<?xml version="1.0" encoding="UTF-8" standalone="no"?>
<!DOCTYPE svg PUBLIC "-//W3C//DTD SVG 1.1//EN"
 "http://www.w3.org/Graphics/SVG/1.1/DTD/svg11.dtd">
<!-- Generated by graphviz version 2.43.0 (0)
 -->
<!-- Title: %3 Pages: 1 -->
<svg width="501pt" height="288pt"
 viewBox="0.00 0.00 501.02 288.00" xmlns="http://www.w3.org/2000/svg" xmlns:xlink="http://www.w3.org/1999/xlink">
<g id="graph0" class="graph" transform="scale(0.5 0.5) rotate(0) translate(4 576)">
<title>%3</title>
<polygon fill="white" stroke="transparent" points="-4,4 -4,-576 1005,-576 1005,4 -4,4"/>
<g id="clust1" class="cluster">
<title>cluster_Stomach</title>
<g id="a_clust1"><a xlink:href="#compartment-Stomach" xlink:title="Stomach&#10;[&#45;]">
<path fill="lightblue" stroke="black" d="M142.85,-472C142.85,-472 351.11,-472 351.11,-472 357.11,-472 363.11,-478 363.11,-484 363.11,-484 363.11,-552 363.11,-552 363.11,-558 357.11,-564 351.11,-564 351.11,-564 142.85,-564 142.85,-564 136.85,-564 130.85,-558 130.85,-552 130.85,-552 130.85,-484 130.85,-484 130.85,-478 136.85,-472 142.85,-472"/>
<text text-anchor="middle" x="246.98" y="-548.8" font-family="Arial" font-size="14.00">Stomach</text>
<text text-anchor="middle" x="246.98" y="-533.8" font-family="Arial" font-size="14.00">[&#45;]</text>
</a>
</g>
</g>
<g id="clust2" class="cluster">
<title>cluster_GITissue</title>
<g id="a_clust2"><a xlink:href="#compartment-GITissue" xlink:title="GITissue&#10;[&#45;]">
<path fill="lightblue" stroke="black" d="M100.32,-222C100.32,-222 390.36,-222 390.36,-222 396.36,-222 402.36,-228 402.36,-234 402.36,-234 402.36,-302 402.36,-302 402.36,-308 396.36,-314 390.36,-314 390.36,-314 100.32,-314 100.32,-314 94.32,-314 88.32,-308 88.32,-302 88.32,-302 88.32,-234 88.32,-234 88.32,-228 94.32,-222 100.32,-222"/>
<text text-anchor="middle" x="245.34" y="-298.8" font-family="Arial" font-size="14.00">GITissue</text>
<text text-anchor="middle" x="245.34" y="-283.8" font-family="Arial" font-size="14.00">[&#45;]</text>
</a>
</g>
</g>
<g id="clust3" class="cluster">
<title>cluster_Duodenum</title>
<g id="a_clust3"><a xlink:href="#compartment-Duodenum" xlink:title="Duodenum&#10;[&#45;]">
<path fill="lightblue" stroke="black" d="M80.7,-347C80.7,-347 409.99,-347 409.99,-347 415.99,-347 421.99,-353 421.99,-359 421.99,-359 421.99,-427 421.99,-427 421.99,-433 415.99,-439 409.99,-439 409.99,-439 80.7,-439 80.7,-439 74.7,-439 68.7,-433 68.7,-427 68.7,-427 68.7,-359 68.7,-359 68.7,-353 74.7,-347 80.7,-347"/>
<text text-anchor="middle" x="245.34" y="-423.8" font-family="Arial" font-size="14.00">Duodenum</text>
<text text-anchor="middle" x="245.34" y="-408.8" font-family="Arial" font-size="14.00">[&#45;]</text>
</a>
</g>
</g>
<g id="clust4" class="cluster">
<title>cluster_Liver</title>
<g id="a_clust4"><a xlink:href="#compartment-Liver" xlink:title="Liver&#10;[&#45;]">
<path fill="lightblue" stroke="black" d="M38.17,-8C38.17,-8 439.43,-8 439.43,-8 445.43,-8 451.43,-14 451.43,-20 451.43,-20 451.43,-177 451.43,-177 451.43,-183 445.43,-189 439.43,-189 439.43,-189 38.17,-189 38.17,-189 32.17,-189 26.17,-183 26.17,-177 26.17,-177 26.17,-20 26.17,-20 26.17,-14 32.17,-8 38.17,-8"/>
<text text-anchor="middle" x="238.8" y="-173.8" font-family="Arial" font-size="14.00">Liver</text>
<text text-anchor="middle" x="238.8" y="-158.8" font-family="Arial" font-size="14.00">[&#45;]</text>
</a>
</g>
</g>
<g id="clust5" class="cluster">
<title>cluster_Plasma</title>
<g id="a_clust5"><a xlink:href="#compartment-Plasma" xlink:title="Plasma&#10;[PBPKO:00488]">
<path fill="lightblue" stroke="black" d="M489.6,-97C489.6,-97 890.86,-97 890.86,-97 896.86,-97 902.86,-103 902.86,-109 902.86,-109 902.86,-302 902.86,-302 902.86,-308 896.86,-314 890.86,-314 890.86,-314 489.6,-314 489.6,-314 483.6,-314 477.6,-308 477.6,-302 477.6,-302 477.6,-109 477.6,-109 477.6,-103 483.6,-97 489.6,-97"/>
<text text-anchor="middle" x="690.23" y="-298.8" font-family="Arial" font-size="14.00">Plasma</text>
<text text-anchor="middle" x="690.23" y="-283.8" font-family="Arial" font-size="14.00">[PBPKO:00488]</text>
</a>
</g>
</g>
<g id="clust6" class="cluster">
<title>cluster_Rest</title>
<g id="a_clust6"><a xlink:href="#compartment-Rest" xlink:title="Rest&#10;[PBPKO:00450]">
<path fill="lightblue" stroke="black" d="M561.57,-347C561.57,-347 962.83,-347 962.83,-347 968.83,-347 974.83,-353 974.83,-359 974.83,-359 974.83,-427 974.83,-427 974.83,-433 968.83,-439 962.83,-439 962.83,-439 561.57,-439 561.57,-439 555.57,-439 549.57,-433 549.57,-427 549.57,-427 549.57,-359 549.57,-359 549.57,-353 555.57,-347 561.57,-347"/>
<text text-anchor="middle" x="762.2" y="-423.8" font-family="Arial" font-size="14.00">Rest</text>
<text text-anchor="middle" x="762.2" y="-408.8" font-family="Arial" font-size="14.00">[PBPKO:00450]</text>
</a>
</g>
</g>
<!-- ASt -->
<g id="node1" class="node">
<title>ASt</title>
<g id="a_node1"><a xlink:href="#species-ASt" xlink:title="ASt&#10;[&#45;]">
<path fill="gold" stroke="black" d="M260.3,-518C260.3,-518 230.3,-518 230.3,-518 224.3,-518 218.3,-512 218.3,-506 218.3,-506 218.3,-492 218.3,-492 218.3,-486 224.3,-480 230.3,-480 230.3,-480 260.3,-480 260.3,-480 266.3,-480 272.3,-486 272.3,-492 272.3,-492 272.3,-506 272.3,-506 272.3,-512 266.3,-518 260.3,-518"/>
<text text-anchor="middle" x="245.3" y="-502.8" font-family="Arial" font-size="14.00">ASt</text>
<text text-anchor="middle" x="245.3" y="-487.8" font-family="Arial" font-size="14.00">[&#45;]</text>
</a>
</g>
</g>
<!-- ADuodenum -->
<g id="node3" class="node">
<title>ADuodenum</title>
<g id="a_node3"><a xlink:href="#species-ADuodenum" xlink:title="ADuodenum&#10;[&#45;]">
<path fill="gold" stroke="black" d="M279.3,-393C279.3,-393 211.3,-393 211.3,-393 205.3,-393 199.3,-387 199.3,-381 199.3,-381 199.3,-367 199.3,-367 199.3,-361 205.3,-355 211.3,-355 211.3,-355 279.3,-355 279.3,-355 285.3,-355 291.3,-361 291.3,-367 291.3,-367 291.3,-381 291.3,-381 291.3,-387 285.3,-393 279.3,-393"/>
<text text-anchor="middle" x="245.3" y="-377.8" font-family="Arial" font-size="14.00">ADuodenum</text>
<text text-anchor="middle" x="245.3" y="-362.8" font-family="Arial" font-size="14.00">[&#45;]</text>
</a>
</g>
</g>
<!-- ASt&#45;&gt;ADuodenum -->
<g id="edge1" class="edge">
<title>ASt&#45;&gt;ADuodenum</title>
<path fill="none" stroke="black" d="M245.3,-479.85C245.3,-459.68 245.3,-426.86 245.3,-403.31"/>
<polygon fill="black" stroke="black" points="248.8,-403.22 245.3,-393.22 241.8,-403.22 248.8,-403.22"/>
<text text-anchor="middle" x="256.3" y="-451.3" font-family="Times,serif" font-size="14.00">_J0</text>
</g>
<!-- AGITissue -->
<g id="node2" class="node">
<title>AGITissue</title>
<g id="a_node2"><a xlink:href="#species-AGITissue" xlink:title="AGITissue&#10;[&#45;]">
<path fill="gold" stroke="black" d="M273.3,-268C273.3,-268 217.3,-268 217.3,-268 211.3,-268 205.3,-262 205.3,-256 205.3,-256 205.3,-242 205.3,-242 205.3,-236 211.3,-230 217.3,-230 217.3,-230 273.3,-230 273.3,-230 279.3,-230 285.3,-236 285.3,-242 285.3,-242 285.3,-256 285.3,-256 285.3,-262 279.3,-268 273.3,-268"/>
<text text-anchor="middle" x="245.3" y="-252.8" font-family="Arial" font-size="14.00">AGITissue</text>
<text text-anchor="middle" x="245.3" y="-237.8" font-family="Arial" font-size="14.00">[&#45;]</text>
</a>
</g>
</g>
<!-- ALiver -->
<g id="node4" class="node">
<title>ALiver</title>
<g id="a_node4"><a xlink:href="#species-ALiver" xlink:title="ALiver&#10;[PBPKO:00497]">
<path fill="gold" stroke="black" d="M283.8,-143C283.8,-143 194.8,-143 194.8,-143 188.8,-143 182.8,-137 182.8,-131 182.8,-131 182.8,-117 182.8,-117 182.8,-111 188.8,-105 194.8,-105 194.8,-105 283.8,-105 283.8,-105 289.8,-105 295.8,-111 295.8,-117 295.8,-117 295.8,-131 295.8,-131 295.8,-137 289.8,-143 283.8,-143"/>
<text text-anchor="middle" x="239.3" y="-127.8" font-family="Arial" font-size="14.00">ALiver</text>
<text text-anchor="middle" x="239.3" y="-112.8" font-family="Arial" font-size="14.00">[PBPKO:00497]</text>
</a>
</g>
</g>
<!-- AGITissue&#45;&gt;ALiver -->
<g id="edge2" class="edge">
<title>AGITissue&#45;&gt;ALiver</title>
<path fill="none" stroke="black" d="M244.41,-229.85C243.43,-209.68 241.83,-176.86 240.68,-153.31"/>
<polygon fill="black" stroke="black" points="244.17,-153.04 240.19,-143.22 237.18,-153.38 244.17,-153.04"/>
<text text-anchor="middle" x="255.3" y="-201.3" font-family="Times,serif" font-size="14.00">_J2</text>
</g>
<!-- ADuodenum&#45;&gt;AGITissue -->
<g id="edge3" class="edge">
<title>ADuodenum&#45;&gt;AGITissue</title>
<path fill="none" stroke="black" d="M245.3,-354.85C245.3,-334.68 245.3,-301.86 245.3,-278.31"/>
<polygon fill="black" stroke="black" points="248.8,-278.22 245.3,-268.22 241.8,-278.22 248.8,-278.22"/>
<text text-anchor="middle" x="256.3" y="-326.3" font-family="Times,serif" font-size="14.00">_J1</text>
</g>
<!-- ALiverMet -->
<g id="node5" class="node">
<title>ALiverMet</title>
<g id="a_node5"><a xlink:href="#species-ALiverMet" xlink:title="ALiverMet&#10;[&#45;]">
<path fill="gold" stroke="black" d="M266.3,-54C266.3,-54 212.3,-54 212.3,-54 206.3,-54 200.3,-48 200.3,-42 200.3,-42 200.3,-28 200.3,-28 200.3,-22 206.3,-16 212.3,-16 212.3,-16 266.3,-16 266.3,-16 272.3,-16 278.3,-22 278.3,-28 278.3,-28 278.3,-42 278.3,-42 278.3,-48 272.3,-54 266.3,-54"/>
<text text-anchor="middle" x="239.3" y="-38.8" font-family="Arial" font-size="14.00">ALiverMet</text>
<text text-anchor="middle" x="239.3" y="-23.8" font-family="Arial" font-size="14.00">[&#45;]</text>
</a>
</g>
</g>
<!-- ALiver&#45;&gt;ALiverMet -->
<g id="edge4" class="edge">
<title>ALiver&#45;&gt;ALiverMet</title>
<path fill="none" stroke="black" d="M239.3,-104.97C239.3,-93.19 239.3,-77.56 239.3,-64.16"/>
<polygon fill="black" stroke="black" points="242.8,-64 239.3,-54 235.8,-64 242.8,-64"/>
<text text-anchor="middle" x="250.3" y="-76.3" font-family="Times,serif" font-size="14.00">_J9</text>
</g>
<!-- APlasma -->
<g id="node6" class="node">
<title>APlasma</title>
<g id="a_node6"><a xlink:href="#species-APlasma" xlink:title="APlasma&#10;[PBPKO:00502]">
<path fill="gold" stroke="black" d="M734.8,-268C734.8,-268 645.8,-268 645.8,-268 639.8,-268 633.8,-262 633.8,-256 633.8,-256 633.8,-242 633.8,-242 633.8,-236 639.8,-230 645.8,-230 645.8,-230 734.8,-230 734.8,-230 740.8,-230 746.8,-236 746.8,-242 746.8,-242 746.8,-256 746.8,-256 746.8,-262 740.8,-268 734.8,-268"/>
<text text-anchor="middle" x="690.3" y="-252.8" font-family="Arial" font-size="14.00">APlasma</text>
<text text-anchor="middle" x="690.3" y="-237.8" font-family="Arial" font-size="14.00">[PBPKO:00502]</text>
</a>
</g>
</g>
<!-- ALiver&#45;&gt;APlasma -->
<g id="edge5" class="edge">
<title>ALiver&#45;&gt;APlasma</title>
<path fill="none" stroke="black" d="M286.61,-143.17C338.26,-162.47 423.7,-192.86 499.3,-212.5 540.03,-223.08 586.42,-231.78 623.29,-237.92"/>
<polygon fill="black" stroke="black" points="622.99,-241.42 633.42,-239.58 624.12,-234.51 622.99,-241.42"/>
<text text-anchor="middle" x="510.3" y="-201.3" font-family="Times,serif" font-size="14.00">_J5</text>
</g>
<!-- APlasma&#45;&gt;AGITissue -->
<g id="edge6" class="edge">
<title>APlasma&#45;&gt;AGITissue</title>
<path fill="none" stroke="black" d="M633.55,-249C545.93,-249 379.11,-249 295.58,-249"/>
<polygon fill="black" stroke="black" points="295.57,-245.5 285.57,-249 295.57,-252.5 295.57,-245.5"/>
<text text-anchor="middle" x="459.55" y="-255.8" font-family="Times,serif" font-size="14.00">_J3</text>
</g>
<!-- APlasma&#45;&gt;ALiver -->
<g id="edge7" class="edge">
<title>APlasma&#45;&gt;ALiver</title>
<path fill="none" stroke="black" d="M635.55,-229.9C602.68,-219.46 559.88,-206.65 521.3,-197.5 500.22,-192.5 494.44,-193.75 473.3,-189 416.33,-176.19 352.43,-158.49 305.82,-144.95"/>
<polygon fill="black" stroke="black" points="306.73,-141.56 296.15,-142.12 304.77,-148.28 306.73,-141.56"/>
<text text-anchor="middle" x="588.3" y="-201.3" font-family="Times,serif" font-size="14.00">_J4</text>
</g>
<!-- APlasmaMet -->
<g id="node7" class="node">
<title>APlasmaMet</title>
<g id="a_node7"><a xlink:href="#species-APlasmaMet" xlink:title="APlasmaMet&#10;[&#45;]">
<path fill="gold" stroke="black" d="M725.8,-143C725.8,-143 654.8,-143 654.8,-143 648.8,-143 642.8,-137 642.8,-131 642.8,-131 642.8,-117 642.8,-117 642.8,-111 648.8,-105 654.8,-105 654.8,-105 725.8,-105 725.8,-105 731.8,-105 737.8,-111 737.8,-117 737.8,-117 737.8,-131 737.8,-131 737.8,-137 731.8,-143 725.8,-143"/>
<text text-anchor="middle" x="690.3" y="-127.8" font-family="Arial" font-size="14.00">APlasmaMet</text>
<text text-anchor="middle" x="690.3" y="-112.8" font-family="Arial" font-size="14.00">[&#45;]</text>
</a>
</g>
</g>
<!-- APlasma&#45;&gt;APlasmaMet -->
<g id="edge8" class="edge">
<title>APlasma&#45;&gt;APlasmaMet</title>
<path fill="none" stroke="black" d="M690.3,-229.85C690.3,-209.68 690.3,-176.86 690.3,-153.31"/>
<polygon fill="black" stroke="black" points="693.8,-153.22 690.3,-143.22 686.8,-153.22 693.8,-153.22"/>
<text text-anchor="middle" x="701.3" y="-201.3" font-family="Times,serif" font-size="14.00">_J8</text>
</g>
<!-- ARest -->
<g id="node8" class="node">
<title>ARest</title>
<g id="a_node8"><a xlink:href="#species-ARest" xlink:title="ARest&#10;[PBPKO:00501]">
<path fill="gold" stroke="black" d="M806.8,-393C806.8,-393 717.8,-393 717.8,-393 711.8,-393 705.8,-387 705.8,-381 705.8,-381 705.8,-367 705.8,-367 705.8,-361 711.8,-355 717.8,-355 717.8,-355 806.8,-355 806.8,-355 812.8,-355 818.8,-361 818.8,-367 818.8,-367 818.8,-381 818.8,-381 818.8,-387 812.8,-393 806.8,-393"/>
<text text-anchor="middle" x="762.3" y="-377.8" font-family="Arial" font-size="14.00">ARest</text>
<text text-anchor="middle" x="762.3" y="-362.8" font-family="Arial" font-size="14.00">[PBPKO:00501]</text>
</a>
</g>
</g>
<!-- APlasma&#45;&gt;ARest -->
<g id="edge9" class="edge">
<title>APlasma&#45;&gt;ARest</title>
<path fill="none" stroke="black" d="M692.94,-268.11C696.36,-286.81 703.69,-316.19 718.3,-337.5 720.86,-341.24 723.94,-344.79 727.26,-348.1"/>
<polygon fill="black" stroke="black" points="725.03,-350.81 734.8,-354.92 729.73,-345.61 725.03,-350.81"/>
<text text-anchor="middle" x="729.3" y="-326.3" font-family="Times,serif" font-size="14.00">_J6</text>
</g>
<!-- ARest&#45;&gt;APlasma -->
<g id="edge10" class="edge">
<title>ARest&#45;&gt;APlasma</title>
<path fill="none" stroke="black" d="M755.38,-354.83C751.4,-345.04 746.06,-332.86 740.3,-322.5 731.46,-306.6 720.04,-289.83 710.35,-276.42"/>
<polygon fill="black" stroke="black" points="713.01,-274.13 704.27,-268.14 707.37,-278.27 713.01,-274.13"/>
<text text-anchor="middle" x="758.3" y="-326.3" font-family="Times,serif" font-size="14.00">_J7</text>
</g>
</g>
</svg>
