<?xml version="1.0" encoding="UTF-8" standalone="no"?>
<!DOCTYPE svg PUBLIC "-//W3C//DTD SVG 1.1//EN"
 "http://www.w3.org/Graphics/SVG/1.1/DTD/svg11.dtd">
<!-- Generated by graphviz version 2.43.0 (0)
 -->
<!-- Title: %3 Pages: 1 -->
<svg width="501pt" height="288pt"
 viewBox="0.00 0.00 501.19 288.00" xmlns="http://www.w3.org/2000/svg" xmlns:xlink="http://www.w3.org/1999/xlink">
<g id="graph0" class="graph" transform="scale(0.47 0.47) rotate(0) translate(4 612)">
<title>%3</title>
<polygon fill="white" stroke="transparent" points="-4,4 -4,-612 1068,-612 1068,4 -4,4"/>
<g id="clust1" class="cluster">
<title>cluster_Stomach</title>
<g id="a_clust1"><a xlink:href="#compartment-Stomach" xlink:title="Stomach&#10;[PBPKO:00566]">
<path fill="lightblue" stroke="black" d="M33.71,-508C33.71,-508 362.57,-508 362.57,-508 368.57,-508 374.57,-514 374.57,-520 374.57,-520 374.57,-588 374.57,-588 374.57,-594 368.57,-600 362.57,-600 362.57,-600 33.71,-600 33.71,-600 27.71,-600 21.71,-594 21.71,-588 21.71,-588 21.71,-520 21.71,-520 21.71,-514 27.71,-508 33.71,-508"/>
<text text-anchor="middle" x="198.14" y="-584.8" font-family="Arial" font-size="14.00">Stomach</text>
<text text-anchor="middle" x="198.14" y="-569.8" font-family="Arial" font-size="14.00">[PBPKO:00566]</text>
</a>
</g>
</g>
<g id="clust2" class="cluster">
<title>cluster_GITissue</title>
<g id="a_clust2"><a xlink:href="#compartment-GITissue" xlink:title="GITissue&#10;[PBPKO:02004]">
<path fill="lightblue" stroke="black" d="M33.71,-258C33.71,-258 362.57,-258 362.57,-258 368.57,-258 374.57,-264 374.57,-270 374.57,-270 374.57,-338 374.57,-338 374.57,-344 368.57,-350 362.57,-350 362.57,-350 33.71,-350 33.71,-350 27.71,-350 21.71,-344 21.71,-338 21.71,-338 21.71,-270 21.71,-270 21.71,-264 27.71,-258 33.71,-258"/>
<text text-anchor="middle" x="198.14" y="-334.8" font-family="Arial" font-size="14.00">GITissue</text>
<text text-anchor="middle" x="198.14" y="-319.8" font-family="Arial" font-size="14.00">[PBPKO:02004]</text>
</a>
</g>
</g>
<g id="clust3" class="cluster">
<title>cluster_Duodenum</title>
<g id="a_clust3"><a xlink:href="#compartment-Duodenum" xlink:title="Duodenum&#10;[PBPKO:00471]">
<path fill="lightblue" stroke="black" d="M33.71,-383C33.71,-383 362.57,-383 362.57,-383 368.57,-383 374.57,-389 374.57,-395 374.57,-395 374.57,-463 374.57,-463 374.57,-469 368.57,-475 362.57,-475 362.57,-475 33.71,-475 33.71,-475 27.71,-475 21.71,-469 21.71,-463 21.71,-463 21.71,-395 21.71,-395 21.71,-389 27.71,-383 33.71,-383"/>
<text text-anchor="middle" x="198.14" y="-459.8" font-family="Arial" font-size="14.00">Duodenum</text>
<text text-anchor="middle" x="198.14" y="-444.8" font-family="Arial" font-size="14.00">[PBPKO:00471]</text>
</a>
</g>
</g>
<g id="clust4" class="cluster">
<title>cluster_Liver</title>
<g id="a_clust4"><a xlink:href="#compartment-Liver" xlink:title="Liver&#10;[PBPKO:00558]">
<path fill="lightblue" stroke="black" d="M74.43,-8C74.43,-8 403.29,-8 403.29,-8 409.29,-8 415.29,-14 415.29,-20 415.29,-20 415.29,-213 415.29,-213 415.29,-219 409.29,-225 403.29,-225 403.29,-225 74.43,-225 74.43,-225 68.43,-225 62.43,-219 62.43,-213 62.43,-213 62.43,-20 62.43,-20 62.43,-14 68.43,-8 74.43,-8"/>
<text text-anchor="middle" x="238.86" y="-209.8" font-family="Arial" font-size="14.00">Liver</text>
<text text-anchor="middle" x="238.86" y="-194.8" font-family="Arial" font-size="14.00">[PBPKO:00558]</text>
</a>
</g>
</g>
<g id="clust5" class="cluster">
<title>cluster_Plasma</title>
<g id="a_clust5"><a xlink:href="#compartment-Plasma" xlink:title="Plasma&#10;[PBPKO:00488]">
<path fill="lightblue" stroke="black" d="M449,-133C449,-133 777.86,-133 777.86,-133 783.86,-133 789.86,-139 789.86,-145 789.86,-145 789.86,-338 789.86,-338 789.86,-344 783.86,-350 777.86,-350 777.86,-350 449,-350 449,-350 443,-350 437,-344 437,-338 437,-338 437,-145 437,-145 437,-139 443,-133 449,-133"/>
<text text-anchor="middle" x="613.43" y="-334.8" font-family="Arial" font-size="14.00">Plasma</text>
<text text-anchor="middle" x="613.43" y="-319.8" font-family="Arial" font-size="14.00">[PBPKO:00488]</text>
</a>
</g>
</g>
<g id="clust6" class="cluster">
<title>cluster_Rest</title>
<g id="a_clust6"><a xlink:href="#compartment-Rest" xlink:title="Rest&#10;[PBPKO:00450]">
<path fill="lightblue" stroke="black" d="M489.71,-383C489.71,-383 818.57,-383 818.57,-383 824.57,-383 830.57,-389 830.57,-395 830.57,-395 830.57,-463 830.57,-463 830.57,-469 824.57,-475 818.57,-475 818.57,-475 489.71,-475 489.71,-475 483.71,-475 477.71,-469 477.71,-463 477.71,-463 477.71,-395 477.71,-395 477.71,-389 483.71,-383 489.71,-383"/>
<text text-anchor="middle" x="654.14" y="-459.8" font-family="Arial" font-size="14.00">Rest</text>
<text text-anchor="middle" x="654.14" y="-444.8" font-family="Arial" font-size="14.00">[PBPKO:00450]</text>
</a>
</g>
</g>
<g id="clust7" class="cluster">
<title>cluster_Urine</title>
<g id="a_clust7"><a xlink:href="#compartment-Urine" xlink:title="Urine&#10;[PBPKO:00556]">
<path fill="lightblue" stroke="black" d="M701.43,-8C701.43,-8 1030.29,-8 1030.29,-8 1036.29,-8 1042.29,-14 1042.29,-20 1042.29,-20 1042.29,-88 1042.29,-88 1042.29,-94 1036.29,-100 1030.29,-100 1030.29,-100 701.43,-100 701.43,-100 695.43,-100 689.43,-94 689.43,-88 689.43,-88 689.43,-20 689.43,-20 689.43,-14 695.43,-8 701.43,-8"/>
<text text-anchor="middle" x="865.86" y="-84.8" font-family="Arial" font-size="14.00">Urine</text>
<text text-anchor="middle" x="865.86" y="-69.8" font-family="Arial" font-size="14.00">[PBPKO:00556]</text>
</a>
</g>
</g>
<!-- ASt -->
<g id="node1" class="node">
<title>ASt</title>
<g id="a_node1"><a xlink:href="#species-ASt" xlink:title="ASt&#10;[PBPKO:06004]">
<path fill="gold" stroke="black" d="M242.64,-554C242.64,-554 153.64,-554 153.64,-554 147.64,-554 141.64,-548 141.64,-542 141.64,-542 141.64,-528 141.64,-528 141.64,-522 147.64,-516 153.64,-516 153.64,-516 242.64,-516 242.64,-516 248.64,-516 254.64,-522 254.64,-528 254.64,-528 254.64,-542 254.64,-542 254.64,-548 248.64,-554 242.64,-554"/>
<text text-anchor="middle" x="198.14" y="-538.8" font-family="Arial" font-size="14.00">ASt</text>
<text text-anchor="middle" x="198.14" y="-523.8" font-family="Arial" font-size="14.00">[PBPKO:06004]</text>
</a>
</g>
</g>
<!-- ADuodenum -->
<g id="node3" class="node">
<title>ADuodenum</title>
<g id="a_node3"><a xlink:href="#species-ADuodenum" xlink:title="ADuodenum&#10;[PBPKO:06014]">
<path fill="gold" stroke="black" d="M242.64,-429C242.64,-429 153.64,-429 153.64,-429 147.64,-429 141.64,-423 141.64,-417 141.64,-417 141.64,-403 141.64,-403 141.64,-397 147.64,-391 153.64,-391 153.64,-391 242.64,-391 242.64,-391 248.64,-391 254.64,-397 254.64,-403 254.64,-403 254.64,-417 254.64,-417 254.64,-423 248.64,-429 242.64,-429"/>
<text text-anchor="middle" x="198.14" y="-413.8" font-family="Arial" font-size="14.00">ADuodenum</text>
<text text-anchor="middle" x="198.14" y="-398.8" font-family="Arial" font-size="14.00">[PBPKO:06014]</text>
</a>
</g>
</g>
<!-- ASt&#45;&gt;ADuodenum -->
<g id="edge1" class="edge">
<title>ASt&#45;&gt;ADuodenum</title>
<path fill="none" stroke="black" d="M198.14,-515.85C198.14,-495.68 198.14,-462.86 198.14,-439.31"/>
<polygon fill="black" stroke="black" points="201.64,-439.22 198.14,-429.22 194.64,-439.22 201.64,-439.22"/>
<text text-anchor="middle" x="209.14" y="-487.3" font-family="Times,serif" font-size="14.00">_J0</text>
</g>
<!-- AGITissue -->
<g id="node2" class="node">
<title>AGITissue</title>
<g id="a_node2"><a xlink:href="#species-AGITissue" xlink:title="AGITissue&#10;[PBPKO:06015]">
<path fill="gold" stroke="black" d="M242.64,-304C242.64,-304 153.64,-304 153.64,-304 147.64,-304 141.64,-298 141.64,-292 141.64,-292 141.64,-278 141.64,-278 141.64,-272 147.64,-266 153.64,-266 153.64,-266 242.64,-266 242.64,-266 248.64,-266 254.64,-272 254.64,-278 254.64,-278 254.64,-292 254.64,-292 254.64,-298 248.64,-304 242.64,-304"/>
<text text-anchor="middle" x="198.14" y="-288.8" font-family="Arial" font-size="14.00">AGITissue</text>
<text text-anchor="middle" x="198.14" y="-273.8" font-family="Arial" font-size="14.00">[PBPKO:06015]</text>
</a>
</g>
</g>
<!-- ALiver -->
<g id="node4" class="node">
<title>ALiver</title>
<g id="a_node4"><a xlink:href="#species-ALiver" xlink:title="ALiver&#10;[PBPKO:00497]">
<path fill="gold" stroke="black" d="M283.64,-179C283.64,-179 194.64,-179 194.64,-179 188.64,-179 182.64,-173 182.64,-167 182.64,-167 182.64,-153 182.64,-153 182.64,-147 188.64,-141 194.64,-141 194.64,-141 283.64,-141 283.64,-141 289.64,-141 295.64,-147 295.64,-153 295.64,-153 295.64,-167 295.64,-167 295.64,-173 289.64,-179 283.64,-179"/>
<text text-anchor="middle" x="239.14" y="-163.8" font-family="Arial" font-size="14.00">ALiver</text>
<text text-anchor="middle" x="239.14" y="-148.8" font-family="Arial" font-size="14.00">[PBPKO:00497]</text>
</a>
</g>
</g>
<!-- AGITissue&#45;&gt;ALiver -->
<g id="edge2" class="edge">
<title>AGITissue&#45;&gt;ALiver</title>
<path fill="none" stroke="black" d="M204.19,-265.85C210.95,-245.59 221.95,-212.57 229.81,-189"/>
<polygon fill="black" stroke="black" points="233.23,-189.82 233.07,-179.22 226.59,-187.6 233.23,-189.82"/>
<text text-anchor="middle" x="226.14" y="-237.3" font-family="Times,serif" font-size="14.00">_J2</text>
</g>
<!-- ADuodenum&#45;&gt;AGITissue -->
<g id="edge3" class="edge">
<title>ADuodenum&#45;&gt;AGITissue</title>
<path fill="none" stroke="black" d="M198.14,-390.85C198.14,-370.68 198.14,-337.86 198.14,-314.31"/>
<polygon fill="black" stroke="black" points="201.64,-314.22 198.14,-304.22 194.64,-314.22 201.64,-314.22"/>
<text text-anchor="middle" x="209.14" y="-362.3" font-family="Times,serif" font-size="14.00">_J1</text>
</g>
<!-- ALiverMet -->
<g id="node5" class="node">
<title>ALiverMet</title>
<g id="a_node5"><a xlink:href="#species-ALiverMet" xlink:title="ALiverMet&#10;[PBPKO:00497]">
<path fill="mediumspringgreen" stroke="black" d="M283.64,-54C283.64,-54 194.64,-54 194.64,-54 188.64,-54 182.64,-48 182.64,-42 182.64,-42 182.64,-28 182.64,-28 182.64,-22 188.64,-16 194.64,-16 194.64,-16 283.64,-16 283.64,-16 289.64,-16 295.64,-22 295.64,-28 295.64,-28 295.64,-42 295.64,-42 295.64,-48 289.64,-54 283.64,-54"/>
<text text-anchor="middle" x="239.14" y="-38.8" font-family="Arial" font-size="14.00">ALiverMet</text>
<text text-anchor="middle" x="239.14" y="-23.8" font-family="Arial" font-size="14.00">[PBPKO:00497]</text>
</a>
</g>
</g>
<!-- ALiver&#45;&gt;ALiverMet -->
<g id="edge4" class="edge">
<title>ALiver&#45;&gt;ALiverMet</title>
<path fill="none" stroke="black" d="M239.14,-140.85C239.14,-120.68 239.14,-87.86 239.14,-64.31"/>
<polygon fill="black" stroke="black" points="242.64,-64.22 239.14,-54.22 235.64,-64.22 242.64,-64.22"/>
<text text-anchor="middle" x="254.64" y="-112.3" font-family="Times,serif" font-size="14.00">_J10</text>
</g>
<!-- APlasma -->
<g id="node6" class="node">
<title>APlasma</title>
<g id="a_node6"><a xlink:href="#species-APlasma" xlink:title="APlasma&#10;[PBPKO:00502]">
<path fill="gold" stroke="black" d="M657.64,-304C657.64,-304 568.64,-304 568.64,-304 562.64,-304 556.64,-298 556.64,-292 556.64,-292 556.64,-278 556.64,-278 556.64,-272 562.64,-266 568.64,-266 568.64,-266 657.64,-266 657.64,-266 663.64,-266 669.64,-272 669.64,-278 669.64,-278 669.64,-292 669.64,-292 669.64,-298 663.64,-304 657.64,-304"/>
<text text-anchor="middle" x="613.14" y="-288.8" font-family="Arial" font-size="14.00">APlasma</text>
<text text-anchor="middle" x="613.14" y="-273.8" font-family="Arial" font-size="14.00">[PBPKO:00502]</text>
</a>
</g>
</g>
<!-- ALiver&#45;&gt;APlasma -->
<g id="edge5" class="edge">
<title>ALiver&#45;&gt;APlasma</title>
<path fill="none" stroke="black" d="M274.97,-179.08C314.88,-198.6 381.76,-229.43 442.14,-248.5 475.93,-259.17 514.5,-267.49 546.45,-273.39"/>
<polygon fill="black" stroke="black" points="546.11,-276.89 556.57,-275.22 547.36,-270 546.11,-276.89"/>
<text text-anchor="middle" x="453.14" y="-237.3" font-family="Times,serif" font-size="14.00">_J5</text>
</g>
<!-- APlasma&#45;&gt;AGITissue -->
<g id="edge6" class="edge">
<title>APlasma&#45;&gt;AGITissue</title>
<path fill="none" stroke="black" d="M556.33,-285C480.34,-285 345.84,-285 265.04,-285"/>
<polygon fill="black" stroke="black" points="264.98,-281.5 254.98,-285 264.98,-288.5 264.98,-281.5"/>
<text text-anchor="middle" x="405.64" y="-291.8" font-family="Times,serif" font-size="14.00">_J3</text>
</g>
<!-- APlasma&#45;&gt;ALiver -->
<g id="edge7" class="edge">
<title>APlasma&#45;&gt;ALiver</title>
<path fill="none" stroke="black" d="M562.35,-265.95C533.66,-255.97 497.05,-243.58 464.14,-233.5 450.48,-229.32 446.82,-229.13 433.14,-225 388.88,-211.64 339.4,-195.29 301.48,-182.46"/>
<polygon fill="black" stroke="black" points="302.2,-179.01 291.61,-179.11 299.95,-185.64 302.2,-179.01"/>
<text text-anchor="middle" x="521.14" y="-237.3" font-family="Times,serif" font-size="14.00">_J4</text>
</g>
<!-- APlasmaMet -->
<g id="node7" class="node">
<title>APlasmaMet</title>
<g id="a_node7"><a xlink:href="#species-APlasmaMet" xlink:title="APlasmaMet&#10;[PBPKO:00502]">
<path fill="mediumspringgreen" stroke="black" d="M657.64,-179C657.64,-179 568.64,-179 568.64,-179 562.64,-179 556.64,-173 556.64,-167 556.64,-167 556.64,-153 556.64,-153 556.64,-147 562.64,-141 568.64,-141 568.64,-141 657.64,-141 657.64,-141 663.64,-141 669.64,-147 669.64,-153 669.64,-153 669.64,-167 669.64,-167 669.64,-173 663.64,-179 657.64,-179"/>
<text text-anchor="middle" x="613.14" y="-163.8" font-family="Arial" font-size="14.00">APlasmaMet</text>
<text text-anchor="middle" x="613.14" y="-148.8" font-family="Arial" font-size="14.00">[PBPKO:00502]</text>
</a>
</g>
</g>
<!-- APlasma&#45;&gt;APlasmaMet -->
<g id="edge8" class="edge">
<title>APlasma&#45;&gt;APlasmaMet</title>
<path fill="none" stroke="black" d="M613.14,-265.85C613.14,-245.68 613.14,-212.86 613.14,-189.31"/>
<polygon fill="black" stroke="black" points="616.64,-189.22 613.14,-179.22 609.64,-189.22 616.64,-189.22"/>
<text text-anchor="middle" x="624.14" y="-237.3" font-family="Times,serif" font-size="14.00">_J8</text>
</g>
<!-- ARest -->
<g id="node8" class="node">
<title>ARest</title>
<g id="a_node8"><a xlink:href="#species-ARest" xlink:title="ARest&#10;[PBPKO:00501]">
<path fill="gold" stroke="black" d="M698.64,-429C698.64,-429 609.64,-429 609.64,-429 603.64,-429 597.64,-423 597.64,-417 597.64,-417 597.64,-403 597.64,-403 597.64,-397 603.64,-391 609.64,-391 609.64,-391 698.64,-391 698.64,-391 704.64,-391 710.64,-397 710.64,-403 710.64,-403 710.64,-417 710.64,-417 710.64,-423 704.64,-429 698.64,-429"/>
<text text-anchor="middle" x="654.14" y="-413.8" font-family="Arial" font-size="14.00">ARest</text>
<text text-anchor="middle" x="654.14" y="-398.8" font-family="Arial" font-size="14.00">[PBPKO:00501]</text>
</a>
</g>
</g>
<!-- APlasma&#45;&gt;ARest -->
<g id="edge9" class="edge">
<title>APlasma&#45;&gt;ARest</title>
<path fill="none" stroke="black" d="M614.17,-304.07C615.72,-322.23 619.58,-350.72 629.14,-373.5 630.36,-376.4 631.84,-379.29 633.47,-382.1"/>
<polygon fill="black" stroke="black" points="630.67,-384.22 639.03,-390.74 636.56,-380.43 630.67,-384.22"/>
<text text-anchor="middle" x="640.14" y="-362.3" font-family="Times,serif" font-size="14.00">_J6</text>
</g>
<!-- AUrine -->
<g id="node9" class="node">
<title>AUrine</title>
<g id="a_node9"><a xlink:href="#species-AUrine" xlink:title="AUrine&#10;[PBPKO:00272]">
<path fill="gold" stroke="black" d="M910.64,-54C910.64,-54 821.64,-54 821.64,-54 815.64,-54 809.64,-48 809.64,-42 809.64,-42 809.64,-28 809.64,-28 809.64,-22 815.64,-16 821.64,-16 821.64,-16 910.64,-16 910.64,-16 916.64,-16 922.64,-22 922.64,-28 922.64,-28 922.64,-42 922.64,-42 922.64,-48 916.64,-54 910.64,-54"/>
<text text-anchor="middle" x="866.14" y="-38.8" font-family="Arial" font-size="14.00">AUrine</text>
<text text-anchor="middle" x="866.14" y="-23.8" font-family="Arial" font-size="14.00">[PBPKO:00272]</text>
</a>
</g>
</g>
<!-- APlasma&#45;&gt;AUrine -->
<g id="edge10" class="edge">
<title>APlasma&#45;&gt;AUrine</title>
<path fill="none" stroke="black" d="M633.59,-265.92C646.51,-254.38 663.49,-239 678.14,-225 738.13,-167.69 806.28,-97.98 841.76,-61.33"/>
<polygon fill="black" stroke="black" points="844.38,-63.64 848.82,-54.02 839.35,-58.78 844.38,-63.64"/>
<text text-anchor="middle" x="781.14" y="-156.3" font-family="Times,serif" font-size="14.00">_J9</text>
</g>
<!-- ARest&#45;&gt;APlasma -->
<g id="edge11" class="edge">
<title>ARest&#45;&gt;APlasma</title>
<path fill="none" stroke="black" d="M654.9,-390.94C654.85,-381.17 654.06,-368.99 651.14,-358.5 646.69,-342.48 638.37,-325.96 630.65,-312.74"/>
<polygon fill="black" stroke="black" points="633.63,-310.91 625.45,-304.17 627.64,-314.53 633.63,-310.91"/>
<text text-anchor="middle" x="665.14" y="-362.3" font-family="Times,serif" font-size="14.00">_J7</text>
</g>
</g>
</svg>
