<?xml version="1.0" encoding="UTF-8" standalone="no"?>
<!DOCTYPE svg PUBLIC "-//W3C//DTD SVG 1.1//EN"
 "http://www.w3.org/Graphics/SVG/1.1/DTD/svg11.dtd">
<!-- Generated by graphviz version 2.43.0 (0)
 -->
<!-- Title: %3 Pages: 1 -->
<svg width="501pt" height="288pt"
 viewBox="0.00 0.00 501.19 288.00" xmlns="http://www.w3.org/2000/svg" xmlns:xlink="http://www.w3.org/1999/xlink">
<g id="graph0" class="graph" transform="scale(0.47 0.47) rotate(0) translate(4 612)">
<title>%3</title>
<polygon fill="white" stroke="transparent" points="-4,4 -4,-612 1068,-612 1068,4 -4,4"/>
<g id="clust1" class="cluster">
<title>cluster_Stomach</title>
<g id="a_clust1"><a xlink:href="#compartment-Stomach" xlink:title="Stomach&#10;[PBPKO:00566]">
<path fill="lightblue" stroke="black" d="M76.91,-508C76.91,-508 371.83,-508 371.83,-508 377.83,-508 383.83,-514 383.83,-520 383.83,-520 383.83,-588 383.83,-588 383.83,-594 377.83,-600 371.83,-600 371.83,-600 76.91,-600 76.91,-600 70.91,-600 64.91,-594 64.91,-588 64.91,-588 64.91,-520 64.91,-520 64.91,-514 70.91,-508 76.91,-508"/>
<text text-anchor="middle" x="224.37" y="-584.8" font-family="Arial" font-size="14.00">Stomach</text>
<text text-anchor="middle" x="224.37" y="-569.8" font-family="Arial" font-size="14.00">[PBPKO:00566]</text>
</a>
</g>
</g>
<g id="clust2" class="cluster">
<title>cluster_GITissue</title>
<g id="a_clust2"><a xlink:href="#compartment-GITissue" xlink:title="GITissue&#10;[&#45;]">
<path fill="lightblue" stroke="black" d="M85.38,-258C85.38,-258 332.32,-258 332.32,-258 338.32,-258 344.32,-264 344.32,-270 344.32,-270 344.32,-338 344.32,-338 344.32,-344 338.32,-350 332.32,-350 332.32,-350 85.38,-350 85.38,-350 79.38,-350 73.38,-344 73.38,-338 73.38,-338 73.38,-270 73.38,-270 73.38,-264 79.38,-258 85.38,-258"/>
<text text-anchor="middle" x="208.85" y="-334.8" font-family="Arial" font-size="14.00">GITissue</text>
<text text-anchor="middle" x="208.85" y="-319.8" font-family="Arial" font-size="14.00">[&#45;]</text>
</a>
</g>
</g>
<g id="clust3" class="cluster">
<title>cluster_Duodenum</title>
<g id="a_clust3"><a xlink:href="#compartment-Duodenum" xlink:title="Duodenum&#10;[PBPKO:00471]">
<path fill="lightblue" stroke="black" d="M59.98,-383C59.98,-383 354.9,-383 354.9,-383 360.9,-383 366.9,-389 366.9,-395 366.9,-395 366.9,-463 366.9,-463 366.9,-469 360.9,-475 354.9,-475 354.9,-475 59.98,-475 59.98,-475 53.98,-475 47.98,-469 47.98,-463 47.98,-463 47.98,-395 47.98,-395 47.98,-389 53.98,-383 59.98,-383"/>
<text text-anchor="middle" x="207.44" y="-459.8" font-family="Arial" font-size="14.00">Duodenum</text>
<text text-anchor="middle" x="207.44" y="-444.8" font-family="Arial" font-size="14.00">[PBPKO:00471]</text>
</a>
</g>
</g>
<g id="clust4" class="cluster">
<title>cluster_Liver</title>
<g id="a_clust4"><a xlink:href="#compartment-Liver" xlink:title="Liver&#10;[PBPKO:00558]">
<path fill="lightblue" stroke="black" d="M34.58,-8C34.58,-8 377.47,-8 377.47,-8 383.47,-8 389.47,-14 389.47,-20 389.47,-20 389.47,-213 389.47,-213 389.47,-219 383.47,-225 377.47,-225 377.47,-225 34.58,-225 34.58,-225 28.58,-225 22.58,-219 22.58,-213 22.58,-213 22.58,-20 22.58,-20 22.58,-14 28.58,-8 34.58,-8"/>
<text text-anchor="middle" x="206.03" y="-209.8" font-family="Arial" font-size="14.00">Liver</text>
<text text-anchor="middle" x="206.03" y="-194.8" font-family="Arial" font-size="14.00">[PBPKO:00558]</text>
</a>
</g>
</g>
<g id="clust5" class="cluster">
<title>cluster_Plasma</title>
<g id="a_clust5"><a xlink:href="#compartment-Plasma" xlink:title="Plasma&#10;[PBPKO:00488]">
<path fill="lightblue" stroke="black" d="M424.05,-133C424.05,-133 766.95,-133 766.95,-133 772.95,-133 778.95,-139 778.95,-145 778.95,-145 778.95,-338 778.95,-338 778.95,-344 772.95,-350 766.95,-350 766.95,-350 424.05,-350 424.05,-350 418.05,-350 412.05,-344 412.05,-338 412.05,-338 412.05,-145 412.05,-145 412.05,-139 418.05,-133 424.05,-133"/>
<text text-anchor="middle" x="595.5" y="-334.8" font-family="Arial" font-size="14.00">Plasma</text>
<text text-anchor="middle" x="595.5" y="-319.8" font-family="Arial" font-size="14.00">[PBPKO:00488]</text>
</a>
</g>
</g>
<g id="clust6" class="cluster">
<title>cluster_Rest</title>
<g id="a_clust6"><a xlink:href="#compartment-Rest" xlink:title="Rest&#10;[PBPKO:00450]">
<path fill="lightblue" stroke="black" d="M474.85,-383C474.85,-383 817.75,-383 817.75,-383 823.75,-383 829.75,-389 829.75,-395 829.75,-395 829.75,-463 829.75,-463 829.75,-469 823.75,-475 817.75,-475 817.75,-475 474.85,-475 474.85,-475 468.85,-475 462.85,-469 462.85,-463 462.85,-463 462.85,-395 462.85,-395 462.85,-389 468.85,-383 474.85,-383"/>
<text text-anchor="middle" x="646.3" y="-459.8" font-family="Arial" font-size="14.00">Rest</text>
<text text-anchor="middle" x="646.3" y="-444.8" font-family="Arial" font-size="14.00">[PBPKO:00450]</text>
</a>
</g>
</g>
<g id="clust7" class="cluster">
<title>cluster_Urine</title>
<g id="a_clust7"><a xlink:href="#compartment-Urine" xlink:title="Urine&#10;[PBPKO:00556]">
<path fill="lightblue" stroke="black" d="M686.53,-8C686.53,-8 1029.42,-8 1029.42,-8 1035.42,-8 1041.42,-14 1041.42,-20 1041.42,-20 1041.42,-88 1041.42,-88 1041.42,-94 1035.42,-100 1029.42,-100 1029.42,-100 686.53,-100 686.53,-100 680.53,-100 674.53,-94 674.53,-88 674.53,-88 674.53,-20 674.53,-20 674.53,-14 680.53,-8 686.53,-8"/>
<text text-anchor="middle" x="857.97" y="-84.8" font-family="Arial" font-size="14.00">Urine</text>
<text text-anchor="middle" x="857.97" y="-69.8" font-family="Arial" font-size="14.00">[PBPKO:00556]</text>
</a>
</g>
</g>
<!-- ASt -->
<g id="node1" class="node">
<title>ASt</title>
<g id="a_node1"><a xlink:href="#species-ASt" xlink:title="ASt&#10;[&#45;]">
<path fill="gold" stroke="black" d="M223.7,-554C223.7,-554 193.7,-554 193.7,-554 187.7,-554 181.7,-548 181.7,-542 181.7,-542 181.7,-528 181.7,-528 181.7,-522 187.7,-516 193.7,-516 193.7,-516 223.7,-516 223.7,-516 229.7,-516 235.7,-522 235.7,-528 235.7,-528 235.7,-542 235.7,-542 235.7,-548 229.7,-554 223.7,-554"/>
<text text-anchor="middle" x="208.7" y="-538.8" font-family="Arial" font-size="14.00">ASt</text>
<text text-anchor="middle" x="208.7" y="-523.8" font-family="Arial" font-size="14.00">[&#45;]</text>
</a>
</g>
</g>
<!-- ADuodenum -->
<g id="node3" class="node">
<title>ADuodenum</title>
<g id="a_node3"><a xlink:href="#species-ADuodenum" xlink:title="ADuodenum&#10;[&#45;]">
<path fill="gold" stroke="black" d="M242.7,-429C242.7,-429 174.7,-429 174.7,-429 168.7,-429 162.7,-423 162.7,-417 162.7,-417 162.7,-403 162.7,-403 162.7,-397 168.7,-391 174.7,-391 174.7,-391 242.7,-391 242.7,-391 248.7,-391 254.7,-397 254.7,-403 254.7,-403 254.7,-417 254.7,-417 254.7,-423 248.7,-429 242.7,-429"/>
<text text-anchor="middle" x="208.7" y="-413.8" font-family="Arial" font-size="14.00">ADuodenum</text>
<text text-anchor="middle" x="208.7" y="-398.8" font-family="Arial" font-size="14.00">[&#45;]</text>
</a>
</g>
</g>
<!-- ASt&#45;&gt;ADuodenum -->
<g id="edge1" class="edge">
<title>ASt&#45;&gt;ADuodenum</title>
<path fill="none" stroke="black" d="M208.7,-515.85C208.7,-495.68 208.7,-462.86 208.7,-439.31"/>
<polygon fill="black" stroke="black" points="212.2,-439.22 208.7,-429.22 205.2,-439.22 212.2,-439.22"/>
<text text-anchor="middle" x="219.7" y="-487.3" font-family="Times,serif" font-size="14.00">_J0</text>
</g>
<!-- AGITissue -->
<g id="node2" class="node">
<title>AGITissue</title>
<g id="a_node2"><a xlink:href="#species-AGITissue" xlink:title="AGITissue&#10;[&#45;]">
<path fill="gold" stroke="black" d="M236.7,-304C236.7,-304 180.7,-304 180.7,-304 174.7,-304 168.7,-298 168.7,-292 168.7,-292 168.7,-278 168.7,-278 168.7,-272 174.7,-266 180.7,-266 180.7,-266 236.7,-266 236.7,-266 242.7,-266 248.7,-272 248.7,-278 248.7,-278 248.7,-292 248.7,-292 248.7,-298 242.7,-304 236.7,-304"/>
<text text-anchor="middle" x="208.7" y="-288.8" font-family="Arial" font-size="14.00">AGITissue</text>
<text text-anchor="middle" x="208.7" y="-273.8" font-family="Arial" font-size="14.00">[&#45;]</text>
</a>
</g>
</g>
<!-- ALiver -->
<g id="node4" class="node">
<title>ALiver</title>
<g id="a_node4"><a xlink:href="#species-ALiver" xlink:title="ALiver&#10;[PBPKO:00497]">
<path fill="gold" stroke="black" d="M250.2,-179C250.2,-179 161.2,-179 161.2,-179 155.2,-179 149.2,-173 149.2,-167 149.2,-167 149.2,-153 149.2,-153 149.2,-147 155.2,-141 161.2,-141 161.2,-141 250.2,-141 250.2,-141 256.2,-141 262.2,-147 262.2,-153 262.2,-153 262.2,-167 262.2,-167 262.2,-173 256.2,-179 250.2,-179"/>
<text text-anchor="middle" x="205.7" y="-163.8" font-family="Arial" font-size="14.00">ALiver</text>
<text text-anchor="middle" x="205.7" y="-148.8" font-family="Arial" font-size="14.00">[PBPKO:00497]</text>
</a>
</g>
</g>
<!-- AGITissue&#45;&gt;ALiver -->
<g id="edge2" class="edge">
<title>AGITissue&#45;&gt;ALiver</title>
<path fill="none" stroke="black" d="M208.26,-265.85C207.77,-245.68 206.97,-212.86 206.39,-189.31"/>
<polygon fill="black" stroke="black" points="209.89,-189.14 206.15,-179.22 202.89,-189.31 209.89,-189.14"/>
<text text-anchor="middle" x="219.7" y="-237.3" font-family="Times,serif" font-size="14.00">_J2</text>
</g>
<!-- ADuodenum&#45;&gt;AGITissue -->
<g id="edge3" class="edge">
<title>ADuodenum&#45;&gt;AGITissue</title>
<path fill="none" stroke="black" d="M208.7,-390.85C208.7,-370.68 208.7,-337.86 208.7,-314.31"/>
<polygon fill="black" stroke="black" points="212.2,-314.22 208.7,-304.22 205.2,-314.22 212.2,-314.22"/>
<text text-anchor="middle" x="219.7" y="-362.3" font-family="Times,serif" font-size="14.00">_J1</text>
</g>
<!-- ALiverMet -->
<g id="node5" class="node">
<title>ALiverMet</title>
<g id="a_node5"><a xlink:href="#species-ALiverMet" xlink:title="ALiverMet&#10;[PBPKO:00497]">
<path fill="gold" stroke="black" d="M250.2,-54C250.2,-54 161.2,-54 161.2,-54 155.2,-54 149.2,-48 149.2,-42 149.2,-42 149.2,-28 149.2,-28 149.2,-22 155.2,-16 161.2,-16 161.2,-16 250.2,-16 250.2,-16 256.2,-16 262.2,-22 262.2,-28 262.2,-28 262.2,-42 262.2,-42 262.2,-48 256.2,-54 250.2,-54"/>
<text text-anchor="middle" x="205.7" y="-38.8" font-family="Arial" font-size="14.00">ALiverMet</text>
<text text-anchor="middle" x="205.7" y="-23.8" font-family="Arial" font-size="14.00">[PBPKO:00497]</text>
</a>
</g>
</g>
<!-- ALiver&#45;&gt;ALiverMet -->
<g id="edge4" class="edge">
<title>ALiver&#45;&gt;ALiverMet</title>
<path fill="none" stroke="black" d="M205.7,-140.85C205.7,-120.68 205.7,-87.86 205.7,-64.31"/>
<polygon fill="black" stroke="black" points="209.2,-64.22 205.7,-54.22 202.2,-64.22 209.2,-64.22"/>
<text text-anchor="middle" x="221.2" y="-112.3" font-family="Times,serif" font-size="14.00">_J10</text>
</g>
<!-- APlasma -->
<g id="node6" class="node">
<title>APlasma</title>
<g id="a_node6"><a xlink:href="#species-APlasma" xlink:title="APlasma&#10;[PBPKO:00502]">
<path fill="gold" stroke="black" d="M640.2,-304C640.2,-304 551.2,-304 551.2,-304 545.2,-304 539.2,-298 539.2,-292 539.2,-292 539.2,-278 539.2,-278 539.2,-272 545.2,-266 551.2,-266 551.2,-266 640.2,-266 640.2,-266 646.2,-266 652.2,-272 652.2,-278 652.2,-278 652.2,-292 652.2,-292 652.2,-298 646.2,-304 640.2,-304"/>
<text text-anchor="middle" x="595.7" y="-288.8" font-family="Arial" font-size="14.00">APlasma</text>
<text text-anchor="middle" x="595.7" y="-273.8" font-family="Arial" font-size="14.00">[PBPKO:00502]</text>
</a>
</g>
</g>
<!-- ALiver&#45;&gt;APlasma -->
<g id="edge5" class="edge">
<title>ALiver&#45;&gt;APlasma</title>
<path fill="none" stroke="black" d="M244.92,-179.1C288.17,-198.49 360.21,-229.09 424.7,-248.5 458.5,-258.67 496.91,-266.93 528.76,-272.92"/>
<polygon fill="black" stroke="black" points="528.39,-276.41 538.86,-274.78 529.66,-269.53 528.39,-276.41"/>
<text text-anchor="middle" x="435.7" y="-237.3" font-family="Times,serif" font-size="14.00">_J5</text>
</g>
<!-- APlasma&#45;&gt;AGITissue -->
<g id="edge6" class="edge">
<title>APlasma&#45;&gt;AGITissue</title>
<path fill="none" stroke="black" d="M538.96,-285C463.52,-285 331.37,-285 259.22,-285"/>
<polygon fill="black" stroke="black" points="259.02,-281.5 249.02,-285 259.02,-288.5 259.02,-281.5"/>
<text text-anchor="middle" x="393.95" y="-291.8" font-family="Times,serif" font-size="14.00">_J3</text>
</g>
<!-- APlasma&#45;&gt;ALiver -->
<g id="edge7" class="edge">
<title>APlasma&#45;&gt;ALiver</title>
<path fill="none" stroke="black" d="M546.81,-265.88C517.93,-255.57 480.52,-242.88 446.7,-233.5 429.61,-228.76 424.84,-229.57 407.7,-225 360.25,-212.34 307.36,-195.48 267.61,-182.24"/>
<polygon fill="black" stroke="black" points="268.65,-178.9 258.05,-179.05 266.43,-185.54 268.65,-178.9"/>
<text text-anchor="middle" x="503.7" y="-237.3" font-family="Times,serif" font-size="14.00">_J4</text>
</g>
<!-- APlasmaMet -->
<g id="node7" class="node">
<title>APlasmaMet</title>
<g id="a_node7"><a xlink:href="#species-APlasmaMet" xlink:title="APlasmaMet&#10;[PBPKO:00502]">
<path fill="gold" stroke="black" d="M640.2,-179C640.2,-179 551.2,-179 551.2,-179 545.2,-179 539.2,-173 539.2,-167 539.2,-167 539.2,-153 539.2,-153 539.2,-147 545.2,-141 551.2,-141 551.2,-141 640.2,-141 640.2,-141 646.2,-141 652.2,-147 652.2,-153 652.2,-153 652.2,-167 652.2,-167 652.2,-173 646.2,-179 640.2,-179"/>
<text text-anchor="middle" x="595.7" y="-163.8" font-family="Arial" font-size="14.00">APlasmaMet</text>
<text text-anchor="middle" x="595.7" y="-148.8" font-family="Arial" font-size="14.00">[PBPKO:00502]</text>
</a>
</g>
</g>
<!-- APlasma&#45;&gt;APlasmaMet -->
<g id="edge8" class="edge">
<title>APlasma&#45;&gt;APlasmaMet</title>
<path fill="none" stroke="black" d="M595.7,-265.85C595.7,-245.68 595.7,-212.86 595.7,-189.31"/>
<polygon fill="black" stroke="black" points="599.2,-189.22 595.7,-179.22 592.2,-189.22 599.2,-189.22"/>
<text text-anchor="middle" x="606.7" y="-237.3" font-family="Times,serif" font-size="14.00">_J8</text>
</g>
<!-- ARest -->
<g id="node8" class="node">
<title>ARest</title>
<g id="a_node8"><a xlink:href="#species-ARest" xlink:title="ARest&#10;[PBPKO:00501]">
<path fill="gold" stroke="black" d="M691.2,-429C691.2,-429 602.2,-429 602.2,-429 596.2,-429 590.2,-423 590.2,-417 590.2,-417 590.2,-403 590.2,-403 590.2,-397 596.2,-391 602.2,-391 602.2,-391 691.2,-391 691.2,-391 697.2,-391 703.2,-397 703.2,-403 703.2,-403 703.2,-417 703.2,-417 703.2,-423 697.2,-429 691.2,-429"/>
<text text-anchor="middle" x="646.7" y="-413.8" font-family="Arial" font-size="14.00">ARest</text>
<text text-anchor="middle" x="646.7" y="-398.8" font-family="Arial" font-size="14.00">[PBPKO:00501]</text>
</a>
</g>
</g>
<!-- APlasma&#45;&gt;ARest -->
<g id="edge9" class="edge">
<title>APlasma&#45;&gt;ARest</title>
<path fill="none" stroke="black" d="M596.57,-304.04C598.09,-322.42 602.26,-351.31 613.7,-373.5 615.42,-376.84 617.55,-380.09 619.88,-383.19"/>
<polygon fill="black" stroke="black" points="617.3,-385.56 626.42,-390.97 622.66,-381.06 617.3,-385.56"/>
<text text-anchor="middle" x="624.7" y="-362.3" font-family="Times,serif" font-size="14.00">_J6</text>
</g>
<!-- AUrine -->
<g id="node9" class="node">
<title>AUrine</title>
<g id="a_node9"><a xlink:href="#species-AUrine" xlink:title="AUrine&#10;[PBPKO:00272]">
<path fill="gold" stroke="black" d="M902.2,-54C902.2,-54 813.2,-54 813.2,-54 807.2,-54 801.2,-48 801.2,-42 801.2,-42 801.2,-28 801.2,-28 801.2,-22 807.2,-16 813.2,-16 813.2,-16 902.2,-16 902.2,-16 908.2,-16 914.2,-22 914.2,-28 914.2,-28 914.2,-42 914.2,-42 914.2,-48 908.2,-54 902.2,-54"/>
<text text-anchor="middle" x="857.7" y="-38.8" font-family="Arial" font-size="14.00">AUrine</text>
<text text-anchor="middle" x="857.7" y="-23.8" font-family="Arial" font-size="14.00">[PBPKO:00272]</text>
</a>
</g>
</g>
<!-- APlasma&#45;&gt;AUrine -->
<g id="edge10" class="edge">
<title>APlasma&#45;&gt;AUrine</title>
<path fill="none" stroke="black" d="M616.04,-265.81C628.92,-254.21 645.88,-238.83 660.7,-225 722.65,-167.19 794.16,-97.94 831.65,-61.43"/>
<polygon fill="black" stroke="black" points="834.41,-63.64 839.12,-54.15 829.52,-58.63 834.41,-63.64"/>
<text text-anchor="middle" x="767.7" y="-156.3" font-family="Times,serif" font-size="14.00">_J9</text>
</g>
<!-- ARest&#45;&gt;APlasma -->
<g id="edge11" class="edge">
<title>ARest&#45;&gt;APlasma</title>
<path fill="none" stroke="black" d="M644.07,-390.87C642.32,-381.09 639.62,-368.92 635.7,-358.5 629.75,-342.65 620.8,-326.03 612.88,-312.71"/>
<polygon fill="black" stroke="black" points="615.8,-310.78 607.61,-304.07 609.83,-314.43 615.8,-310.78"/>
<text text-anchor="middle" x="651.7" y="-362.3" font-family="Times,serif" font-size="14.00">_J7</text>
</g>
</g>
</svg>
