<?xml version="1.0" encoding="UTF-8" standalone="no"?>
<!DOCTYPE svg PUBLIC "-//W3C//DTD SVG 1.1//EN"
 "http://www.w3.org/Graphics/SVG/1.1/DTD/svg11.dtd">
<!-- Generated by graphviz version 2.43.0 (0)
 -->
<!-- Title: %3 Pages: 1 -->
<svg width="503pt" height="288pt"
 viewBox="0.00 0.00 502.73 288.00" xmlns="http://www.w3.org/2000/svg" xmlns:xlink="http://www.w3.org/1999/xlink">
<g id="graph0" class="graph" transform="scale(0.21 0.21) rotate(0) translate(4 1362)">
<title>%3</title>
<polygon fill="white" stroke="transparent" points="-4,4 -4,-1362 2380.5,-1362 2380.5,4 -4,4"/>
<g id="clust1" class="cluster">
<title>cluster_Stomach</title>
<g id="a_clust1"><a xlink:href="#compartment-Stomach" xlink:title="Stomach&#10;[PBPKO:00566]">
<path fill="lightblue" stroke="black" d="M1814.55,-1258C1814.55,-1258 2297.24,-1258 2297.24,-1258 2303.24,-1258 2309.24,-1264 2309.24,-1270 2309.24,-1270 2309.24,-1338 2309.24,-1338 2309.24,-1344 2303.24,-1350 2297.24,-1350 2297.24,-1350 1814.55,-1350 1814.55,-1350 1808.55,-1350 1802.55,-1344 1802.55,-1338 1802.55,-1338 1802.55,-1270 1802.55,-1270 1802.55,-1264 1808.55,-1258 1814.55,-1258"/>
<text text-anchor="middle" x="2055.9" y="-1334.8" font-family="Arial" font-size="14.00">Stomach</text>
<text text-anchor="middle" x="2055.9" y="-1319.8" font-family="Arial" font-size="14.00">[PBPKO:00566]</text>
</a>
</g>
</g>
<g id="clust2" class="cluster">
<title>cluster_SI1</title>
<g id="a_clust2"><a xlink:href="#compartment-SI1" xlink:title="SI1&#10;[PBPKO:00472]">
<path fill="lightblue" stroke="black" d="M1845.94,-1133C1845.94,-1133 2328.63,-1133 2328.63,-1133 2334.63,-1133 2340.63,-1139 2340.63,-1145 2340.63,-1145 2340.63,-1213 2340.63,-1213 2340.63,-1219 2334.63,-1225 2328.63,-1225 2328.63,-1225 1845.94,-1225 1845.94,-1225 1839.94,-1225 1833.94,-1219 1833.94,-1213 1833.94,-1213 1833.94,-1145 1833.94,-1145 1833.94,-1139 1839.94,-1133 1845.94,-1133"/>
<text text-anchor="middle" x="2087.28" y="-1209.8" font-family="Arial" font-size="14.00">SI1</text>
<text text-anchor="middle" x="2087.28" y="-1194.8" font-family="Arial" font-size="14.00">[PBPKO:00472]</text>
</a>
</g>
</g>
<g id="clust3" class="cluster">
<title>cluster_SI2</title>
<g id="a_clust3"><a xlink:href="#compartment-SI2" xlink:title="SI2&#10;[PBPKO:00472]">
<path fill="lightblue" stroke="black" d="M1545.52,-1008C1545.52,-1008 2028.2,-1008 2028.2,-1008 2034.2,-1008 2040.2,-1014 2040.2,-1020 2040.2,-1020 2040.2,-1088 2040.2,-1088 2040.2,-1094 2034.2,-1100 2028.2,-1100 2028.2,-1100 1545.52,-1100 1545.52,-1100 1539.52,-1100 1533.52,-1094 1533.52,-1088 1533.52,-1088 1533.52,-1020 1533.52,-1020 1533.52,-1014 1539.52,-1008 1545.52,-1008"/>
<text text-anchor="middle" x="1786.86" y="-1084.8" font-family="Arial" font-size="14.00">SI2</text>
<text text-anchor="middle" x="1786.86" y="-1069.8" font-family="Arial" font-size="14.00">[PBPKO:00472]</text>
</a>
</g>
</g>
<g id="clust4" class="cluster">
<title>cluster_SI3</title>
<g id="a_clust4"><a xlink:href="#compartment-SI3" xlink:title="SI3&#10;[PBPKO:00472]">
<path fill="lightblue" stroke="black" d="M1321.32,-883C1321.32,-883 1804,-883 1804,-883 1810,-883 1816,-889 1816,-895 1816,-895 1816,-963 1816,-963 1816,-969 1810,-975 1804,-975 1804,-975 1321.32,-975 1321.32,-975 1315.32,-975 1309.32,-969 1309.32,-963 1309.32,-963 1309.32,-895 1309.32,-895 1309.32,-889 1315.32,-883 1321.32,-883"/>
<text text-anchor="middle" x="1562.66" y="-959.8" font-family="Arial" font-size="14.00">SI3</text>
<text text-anchor="middle" x="1562.66" y="-944.8" font-family="Arial" font-size="14.00">[PBPKO:00472]</text>
</a>
</g>
</g>
<g id="clust5" class="cluster">
<title>cluster_SI4</title>
<g id="a_clust5"><a xlink:href="#compartment-SI4" xlink:title="SI4&#10;[PBPKO:00472]">
<path fill="lightblue" stroke="black" d="M1106.09,-758C1106.09,-758 1588.77,-758 1588.77,-758 1594.77,-758 1600.77,-764 1600.77,-770 1600.77,-770 1600.77,-838 1600.77,-838 1600.77,-844 1594.77,-850 1588.77,-850 1588.77,-850 1106.09,-850 1106.09,-850 1100.09,-850 1094.09,-844 1094.09,-838 1094.09,-838 1094.09,-770 1094.09,-770 1094.09,-764 1100.09,-758 1106.09,-758"/>
<text text-anchor="middle" x="1347.43" y="-834.8" font-family="Arial" font-size="14.00">SI4</text>
<text text-anchor="middle" x="1347.43" y="-819.8" font-family="Arial" font-size="14.00">[PBPKO:00472]</text>
</a>
</g>
</g>
<g id="clust6" class="cluster">
<title>cluster_SI5</title>
<g id="a_clust6"><a xlink:href="#compartment-SI5" xlink:title="SI5&#10;[PBPKO:00472]">
<path fill="lightblue" stroke="black" d="M850.5,-633C850.5,-633 1333.19,-633 1333.19,-633 1339.19,-633 1345.19,-639 1345.19,-645 1345.19,-645 1345.19,-713 1345.19,-713 1345.19,-719 1339.19,-725 1333.19,-725 1333.19,-725 850.5,-725 850.5,-725 844.5,-725 838.5,-719 838.5,-713 838.5,-713 838.5,-645 838.5,-645 838.5,-639 844.5,-633 850.5,-633"/>
<text text-anchor="middle" x="1091.84" y="-709.8" font-family="Arial" font-size="14.00">SI5</text>
<text text-anchor="middle" x="1091.84" y="-694.8" font-family="Arial" font-size="14.00">[PBPKO:00472]</text>
</a>
</g>
</g>
<g id="clust7" class="cluster">
<title>cluster_SI6</title>
<g id="a_clust7"><a xlink:href="#compartment-SI6" xlink:title="SI6&#10;[PBPKO:00472]">
<path fill="lightblue" stroke="black" d="M635.27,-508C635.27,-508 1117.96,-508 1117.96,-508 1123.96,-508 1129.96,-514 1129.96,-520 1129.96,-520 1129.96,-588 1129.96,-588 1129.96,-594 1123.96,-600 1117.96,-600 1117.96,-600 635.27,-600 635.27,-600 629.27,-600 623.27,-594 623.27,-588 623.27,-588 623.27,-520 623.27,-520 623.27,-514 629.27,-508 635.27,-508"/>
<text text-anchor="middle" x="876.61" y="-584.8" font-family="Arial" font-size="14.00">SI6</text>
<text text-anchor="middle" x="876.61" y="-569.8" font-family="Arial" font-size="14.00">[PBPKO:00472]</text>
</a>
</g>
</g>
<g id="clust8" class="cluster">
<title>cluster_SI7</title>
<g id="a_clust8"><a xlink:href="#compartment-SI7" xlink:title="SI7&#10;[PBPKO:00472]">
<path fill="lightblue" stroke="black" d="M343.81,-383C343.81,-383 826.5,-383 826.5,-383 832.5,-383 838.5,-389 838.5,-395 838.5,-395 838.5,-463 838.5,-463 838.5,-469 832.5,-475 826.5,-475 826.5,-475 343.81,-475 343.81,-475 337.81,-475 331.81,-469 331.81,-463 331.81,-463 331.81,-395 331.81,-395 331.81,-389 337.81,-383 343.81,-383"/>
<text text-anchor="middle" x="585.16" y="-459.8" font-family="Arial" font-size="14.00">SI7</text>
<text text-anchor="middle" x="585.16" y="-444.8" font-family="Arial" font-size="14.00">[PBPKO:00472]</text>
</a>
</g>
</g>
<g id="clust9" class="cluster">
<title>cluster_Colon</title>
<g id="a_clust9"><a xlink:href="#compartment-Colon" xlink:title="Colon&#10;[&#45;]">
<path fill="lightblue" stroke="black" d="M307.94,-258C307.94,-258 633.69,-258 633.69,-258 639.69,-258 645.69,-264 645.69,-270 645.69,-270 645.69,-338 645.69,-338 645.69,-344 639.69,-350 633.69,-350 633.69,-350 307.94,-350 307.94,-350 301.94,-350 295.94,-344 295.94,-338 295.94,-338 295.94,-270 295.94,-270 295.94,-264 301.94,-258 307.94,-258"/>
<text text-anchor="middle" x="470.82" y="-334.8" font-family="Arial" font-size="14.00">Colon</text>
<text text-anchor="middle" x="470.82" y="-319.8" font-family="Arial" font-size="14.00">[&#45;]</text>
</a>
</g>
</g>
<g id="clust10" class="cluster">
<title>cluster_Liver</title>
<g id="a_clust10"><a xlink:href="#compartment-Liver" xlink:title="Liver&#10;[PBPKO:00558]">
<path fill="lightblue" stroke="black" d="M1285.45,-8C1285.45,-8 2019.23,-8 2019.23,-8 2025.23,-8 2031.23,-14 2031.23,-20 2031.23,-20 2031.23,-338 2031.23,-338 2031.23,-344 2025.23,-350 2019.23,-350 2019.23,-350 1285.45,-350 1285.45,-350 1279.45,-350 1273.45,-344 1273.45,-338 1273.45,-338 1273.45,-20 1273.45,-20 1273.45,-14 1279.45,-8 1285.45,-8"/>
<text text-anchor="middle" x="1652.34" y="-334.8" font-family="Arial" font-size="14.00">Liver</text>
<text text-anchor="middle" x="1652.34" y="-319.8" font-family="Arial" font-size="14.00">[PBPKO:00558]</text>
</a>
</g>
</g>
<g id="clust11" class="cluster">
<title>cluster_Blood</title>
<g id="a_clust11"><a xlink:href="#compartment-Blood" xlink:title="Blood&#10;[PBPKO:00464]">
<path fill="lightblue" stroke="black" d="M666.66,-133C666.66,-133 1225.57,-133 1225.57,-133 1231.57,-133 1237.57,-139 1237.57,-145 1237.57,-145 1237.57,-213 1237.57,-213 1237.57,-219 1231.57,-225 1225.57,-225 1225.57,-225 666.66,-225 666.66,-225 660.66,-225 654.66,-219 654.66,-213 654.66,-213 654.66,-145 654.66,-145 654.66,-139 660.66,-133 666.66,-133"/>
<text text-anchor="middle" x="946.12" y="-209.8" font-family="Arial" font-size="14.00">Blood</text>
<text text-anchor="middle" x="946.12" y="-194.8" font-family="Arial" font-size="14.00">[PBPKO:00464]</text>
</a>
</g>
</g>
<g id="clust12" class="cluster">
<title>cluster_Rest</title>
<g id="a_clust12"><a xlink:href="#compartment-Rest" xlink:title="Rest&#10;[PBPKO:00450]">
<path fill="lightblue" stroke="black" d="M581.46,-8C581.46,-8 1140.38,-8 1140.38,-8 1146.38,-8 1152.38,-14 1152.38,-20 1152.38,-20 1152.38,-88 1152.38,-88 1152.38,-94 1146.38,-100 1140.38,-100 1140.38,-100 581.46,-100 581.46,-100 575.46,-100 569.46,-94 569.46,-88 569.46,-88 569.46,-20 569.46,-20 569.46,-14 575.46,-8 581.46,-8"/>
<text text-anchor="middle" x="860.92" y="-84.8" font-family="Arial" font-size="14.00">Rest</text>
<text text-anchor="middle" x="860.92" y="-69.8" font-family="Arial" font-size="14.00">[PBPKO:00450]</text>
</a>
</g>
</g>
<g id="clust13" class="cluster">
<title>cluster_Feces</title>
<g id="a_clust13"><a xlink:href="#compartment-Feces" xlink:title="Feces&#10;[PBPKO:00555]">
<path fill="lightblue" stroke="black" d="M47.87,-133C47.87,-133 606.79,-133 606.79,-133 612.79,-133 618.79,-139 618.79,-145 618.79,-145 618.79,-213 618.79,-213 618.79,-219 612.79,-225 606.79,-225 606.79,-225 47.87,-225 47.87,-225 41.87,-225 35.87,-219 35.87,-213 35.87,-213 35.87,-145 35.87,-145 35.87,-139 41.87,-133 47.87,-133"/>
<text text-anchor="middle" x="327.33" y="-209.8" font-family="Arial" font-size="14.00">Feces</text>
<text text-anchor="middle" x="327.33" y="-194.8" font-family="Arial" font-size="14.00">[PBPKO:00555]</text>
</a>
</g>
</g>
<!-- ASt -->
<g id="node1" class="node">
<title>ASt</title>
<g id="a_node1"><a xlink:href="#species-ASt" xlink:title="ASt&#10;[&#45;]">
<path fill="gold" stroke="black" d="M2037.4,-1304C2037.4,-1304 2007.4,-1304 2007.4,-1304 2001.4,-1304 1995.4,-1298 1995.4,-1292 1995.4,-1292 1995.4,-1278 1995.4,-1278 1995.4,-1272 2001.4,-1266 2007.4,-1266 2007.4,-1266 2037.4,-1266 2037.4,-1266 2043.4,-1266 2049.4,-1272 2049.4,-1278 2049.4,-1278 2049.4,-1292 2049.4,-1292 2049.4,-1298 2043.4,-1304 2037.4,-1304"/>
<text text-anchor="middle" x="2022.4" y="-1288.8" font-family="Arial" font-size="14.00">ASt</text>
<text text-anchor="middle" x="2022.4" y="-1273.8" font-family="Arial" font-size="14.00">[&#45;]</text>
</a>
</g>
</g>
<!-- ASI1 -->
<g id="node2" class="node">
<title>ASI1</title>
<g id="a_node2"><a xlink:href="#species-ASI1" xlink:title="ASI1&#10;[&#45;]">
<path fill="gold" stroke="black" d="M2037.4,-1179C2037.4,-1179 2007.4,-1179 2007.4,-1179 2001.4,-1179 1995.4,-1173 1995.4,-1167 1995.4,-1167 1995.4,-1153 1995.4,-1153 1995.4,-1147 2001.4,-1141 2007.4,-1141 2007.4,-1141 2037.4,-1141 2037.4,-1141 2043.4,-1141 2049.4,-1147 2049.4,-1153 2049.4,-1153 2049.4,-1167 2049.4,-1167 2049.4,-1173 2043.4,-1179 2037.4,-1179"/>
<text text-anchor="middle" x="2022.4" y="-1163.8" font-family="Arial" font-size="14.00">ASI1</text>
<text text-anchor="middle" x="2022.4" y="-1148.8" font-family="Arial" font-size="14.00">[&#45;]</text>
</a>
</g>
</g>
<!-- ASt&#45;&gt;ASI1 -->
<g id="edge1" class="edge">
<title>ASt&#45;&gt;ASI1</title>
<path fill="none" stroke="black" d="M2022.4,-1265.85C2022.4,-1245.68 2022.4,-1212.86 2022.4,-1189.31"/>
<polygon fill="black" stroke="black" points="2025.9,-1189.22 2022.4,-1179.22 2018.9,-1189.22 2025.9,-1189.22"/>
<text text-anchor="middle" x="2033.4" y="-1237.3" font-family="Times,serif" font-size="14.00">_J0</text>
</g>
<!-- ASI2 -->
<g id="node3" class="node">
<title>ASI2</title>
<g id="a_node3"><a xlink:href="#species-ASI2" xlink:title="ASI2&#10;[&#45;]">
<path fill="gold" stroke="black" d="M1893.4,-1054C1893.4,-1054 1863.4,-1054 1863.4,-1054 1857.4,-1054 1851.4,-1048 1851.4,-1042 1851.4,-1042 1851.4,-1028 1851.4,-1028 1851.4,-1022 1857.4,-1016 1863.4,-1016 1863.4,-1016 1893.4,-1016 1893.4,-1016 1899.4,-1016 1905.4,-1022 1905.4,-1028 1905.4,-1028 1905.4,-1042 1905.4,-1042 1905.4,-1048 1899.4,-1054 1893.4,-1054"/>
<text text-anchor="middle" x="1878.4" y="-1038.8" font-family="Arial" font-size="14.00">ASI2</text>
<text text-anchor="middle" x="1878.4" y="-1023.8" font-family="Arial" font-size="14.00">[&#45;]</text>
</a>
</g>
</g>
<!-- ASI1&#45;&gt;ASI2 -->
<g id="edge2" class="edge">
<title>ASI1&#45;&gt;ASI2</title>
<path fill="none" stroke="black" d="M2001.15,-1140.85C1976.37,-1119.69 1935.28,-1084.58 1907.53,-1060.88"/>
<polygon fill="black" stroke="black" points="1909.61,-1058.06 1899.74,-1054.22 1905.07,-1063.38 1909.61,-1058.06"/>
<text text-anchor="middle" x="1990.4" y="-1112.3" font-family="Times,serif" font-size="14.00">_J1</text>
</g>
<!-- ALiver -->
<g id="node10" class="node">
<title>ALiver</title>
<g id="a_node10"><a xlink:href="#species-ALiver" xlink:title="ALiver&#10;[PBPKO:00497]">
<path fill="gold" stroke="black" d="M1609.9,-304C1609.9,-304 1520.9,-304 1520.9,-304 1514.9,-304 1508.9,-298 1508.9,-292 1508.9,-292 1508.9,-278 1508.9,-278 1508.9,-272 1514.9,-266 1520.9,-266 1520.9,-266 1609.9,-266 1609.9,-266 1615.9,-266 1621.9,-272 1621.9,-278 1621.9,-278 1621.9,-292 1621.9,-292 1621.9,-298 1615.9,-304 1609.9,-304"/>
<text text-anchor="middle" x="1565.4" y="-288.8" font-family="Arial" font-size="14.00">ALiver</text>
<text text-anchor="middle" x="1565.4" y="-273.8" font-family="Arial" font-size="14.00">[PBPKO:00497]</text>
</a>
</g>
</g>
<!-- ASI1&#45;&gt;ALiver -->
<g id="edge3" class="edge">
<title>ASI1&#45;&gt;ALiver</title>
<path fill="none" stroke="black" d="M2049.46,-1142.71C2079.98,-1122.05 2125.4,-1083.35 2125.4,-1036 2125.4,-1036 2125.4,-1036 2125.4,-409 2125.4,-309.06 1780.85,-290.23 1632.27,-286.75"/>
<polygon fill="black" stroke="black" points="1631.99,-283.24 1621.92,-286.53 1631.84,-290.24 1631.99,-283.24"/>
<text text-anchor="middle" x="2136.4" y="-737.3" font-family="Times,serif" font-size="14.00">_J8</text>
</g>
<!-- ASI3 -->
<g id="node4" class="node">
<title>ASI3</title>
<g id="a_node4"><a xlink:href="#species-ASI3" xlink:title="ASI3&#10;[&#45;]">
<path fill="gold" stroke="black" d="M1669.4,-929C1669.4,-929 1639.4,-929 1639.4,-929 1633.4,-929 1627.4,-923 1627.4,-917 1627.4,-917 1627.4,-903 1627.4,-903 1627.4,-897 1633.4,-891 1639.4,-891 1639.4,-891 1669.4,-891 1669.4,-891 1675.4,-891 1681.4,-897 1681.4,-903 1681.4,-903 1681.4,-917 1681.4,-917 1681.4,-923 1675.4,-929 1669.4,-929"/>
<text text-anchor="middle" x="1654.4" y="-913.8" font-family="Arial" font-size="14.00">ASI3</text>
<text text-anchor="middle" x="1654.4" y="-898.8" font-family="Arial" font-size="14.00">[&#45;]</text>
</a>
</g>
</g>
<!-- ASI2&#45;&gt;ASI3 -->
<g id="edge4" class="edge">
<title>ASI2&#45;&gt;ASI3</title>
<path fill="none" stroke="black" d="M1851.38,-1019.16C1811.1,-997.05 1735.25,-955.4 1690.34,-930.73"/>
<polygon fill="black" stroke="black" points="1691.97,-927.63 1681.52,-925.89 1688.6,-933.77 1691.97,-927.63"/>
<text text-anchor="middle" x="1822.4" y="-987.3" font-family="Times,serif" font-size="14.00">_J2</text>
</g>
<!-- ASI2&#45;&gt;ALiver -->
<g id="edge5" class="edge">
<title>ASI2&#45;&gt;ALiver</title>
<path fill="none" stroke="black" d="M1883.97,-1015.86C1890.78,-992.04 1901.4,-948.8 1901.4,-911 1901.4,-911 1901.4,-911 1901.4,-409 1901.4,-352.23 1730.12,-313.82 1632.14,-296.5"/>
<polygon fill="black" stroke="black" points="1632.47,-293 1622.02,-294.74 1631.27,-299.9 1632.47,-293"/>
<text text-anchor="middle" x="1912.4" y="-656.3" font-family="Times,serif" font-size="14.00">_J9</text>
</g>
<!-- ASI4 -->
<g id="node5" class="node">
<title>ASI4</title>
<g id="a_node5"><a xlink:href="#species-ASI4" xlink:title="ASI4&#10;[&#45;]">
<path fill="gold" stroke="black" d="M1445.4,-804C1445.4,-804 1415.4,-804 1415.4,-804 1409.4,-804 1403.4,-798 1403.4,-792 1403.4,-792 1403.4,-778 1403.4,-778 1403.4,-772 1409.4,-766 1415.4,-766 1415.4,-766 1445.4,-766 1445.4,-766 1451.4,-766 1457.4,-772 1457.4,-778 1457.4,-778 1457.4,-792 1457.4,-792 1457.4,-798 1451.4,-804 1445.4,-804"/>
<text text-anchor="middle" x="1430.4" y="-788.8" font-family="Arial" font-size="14.00">ASI4</text>
<text text-anchor="middle" x="1430.4" y="-773.8" font-family="Arial" font-size="14.00">[&#45;]</text>
</a>
</g>
</g>
<!-- ASI3&#45;&gt;ASI4 -->
<g id="edge6" class="edge">
<title>ASI3&#45;&gt;ASI4</title>
<path fill="none" stroke="black" d="M1627.38,-894.16C1587.1,-872.05 1511.25,-830.4 1466.34,-805.73"/>
<polygon fill="black" stroke="black" points="1467.97,-802.63 1457.52,-800.89 1464.6,-808.77 1467.97,-802.63"/>
<text text-anchor="middle" x="1598.4" y="-862.3" font-family="Times,serif" font-size="14.00">_J3</text>
</g>
<!-- ASI3&#45;&gt;ALiver -->
<g id="edge7" class="edge">
<title>ASI3&#45;&gt;ALiver</title>
<path fill="none" stroke="black" d="M1664.54,-890.88C1676.68,-867.42 1695.4,-824.94 1695.4,-786 1695.4,-786 1695.4,-786 1695.4,-409 1695.4,-363.31 1652.51,-329.53 1616.01,-309.05"/>
<polygon fill="black" stroke="black" points="1617.35,-305.8 1606.89,-304.13 1614.03,-311.96 1617.35,-305.8"/>
<text text-anchor="middle" x="1710.9" y="-612.3" font-family="Times,serif" font-size="14.00">_J10</text>
</g>
<!-- ASI5 -->
<g id="node6" class="node">
<title>ASI5</title>
<g id="a_node6"><a xlink:href="#species-ASI5" xlink:title="ASI5&#10;[&#45;]">
<path fill="gold" stroke="black" d="M1198.4,-679C1198.4,-679 1168.4,-679 1168.4,-679 1162.4,-679 1156.4,-673 1156.4,-667 1156.4,-667 1156.4,-653 1156.4,-653 1156.4,-647 1162.4,-641 1168.4,-641 1168.4,-641 1198.4,-641 1198.4,-641 1204.4,-641 1210.4,-647 1210.4,-653 1210.4,-653 1210.4,-667 1210.4,-667 1210.4,-673 1204.4,-679 1198.4,-679"/>
<text text-anchor="middle" x="1183.4" y="-663.8" font-family="Arial" font-size="14.00">ASI5</text>
<text text-anchor="middle" x="1183.4" y="-648.8" font-family="Arial" font-size="14.00">[&#45;]</text>
</a>
</g>
</g>
<!-- ASI4&#45;&gt;ASI5 -->
<g id="edge8" class="edge">
<title>ASI4&#45;&gt;ASI5</title>
<path fill="none" stroke="black" d="M1403.02,-770.37C1358.3,-748.1 1269.57,-703.91 1219.67,-679.06"/>
<polygon fill="black" stroke="black" points="1221.04,-675.83 1210.53,-674.51 1217.92,-682.1 1221.04,-675.83"/>
<text text-anchor="middle" x="1368.4" y="-737.3" font-family="Times,serif" font-size="14.00">_J4</text>
</g>
<!-- ASI4&#45;&gt;ALiver -->
<g id="edge9" class="edge">
<title>ASI4&#45;&gt;ALiver</title>
<path fill="none" stroke="black" d="M1430.4,-765.66C1430.4,-741.63 1430.4,-698.16 1430.4,-661 1430.4,-661 1430.4,-661 1430.4,-409 1430.4,-362.47 1474.76,-328.87 1512.62,-308.67"/>
<polygon fill="black" stroke="black" points="1514.28,-311.75 1521.57,-304.07 1511.08,-305.52 1514.28,-311.75"/>
<text text-anchor="middle" x="1445.9" y="-531.3" font-family="Times,serif" font-size="14.00">_J11</text>
</g>
<!-- ASI6 -->
<g id="node7" class="node">
<title>ASI6</title>
<g id="a_node7"><a xlink:href="#species-ASI6" xlink:title="ASI6&#10;[&#45;]">
<path fill="gold" stroke="black" d="M974.4,-554C974.4,-554 944.4,-554 944.4,-554 938.4,-554 932.4,-548 932.4,-542 932.4,-542 932.4,-528 932.4,-528 932.4,-522 938.4,-516 944.4,-516 944.4,-516 974.4,-516 974.4,-516 980.4,-516 986.4,-522 986.4,-528 986.4,-528 986.4,-542 986.4,-542 986.4,-548 980.4,-554 974.4,-554"/>
<text text-anchor="middle" x="959.4" y="-538.8" font-family="Arial" font-size="14.00">ASI6</text>
<text text-anchor="middle" x="959.4" y="-523.8" font-family="Arial" font-size="14.00">[&#45;]</text>
</a>
</g>
</g>
<!-- ASI5&#45;&gt;ASI6 -->
<g id="edge10" class="edge">
<title>ASI5&#45;&gt;ASI6</title>
<path fill="none" stroke="black" d="M1156.38,-644.16C1116.1,-622.05 1040.25,-580.4 995.34,-555.73"/>
<polygon fill="black" stroke="black" points="996.97,-552.63 986.52,-550.89 993.6,-558.77 996.97,-552.63"/>
<text text-anchor="middle" x="1127.4" y="-612.3" font-family="Times,serif" font-size="14.00">_J5</text>
</g>
<!-- ASI5&#45;&gt;ALiver -->
<g id="edge11" class="edge">
<title>ASI5&#45;&gt;ALiver</title>
<path fill="none" stroke="black" d="M1193.45,-640.76C1222.19,-590.03 1309.55,-445.27 1416.4,-358.5 1442.59,-337.24 1476.04,-320.24 1504.61,-308.07"/>
<polygon fill="black" stroke="black" points="1506.21,-311.2 1514.1,-304.13 1503.52,-304.73 1506.21,-311.2"/>
<text text-anchor="middle" x="1310.9" y="-487.3" font-family="Times,serif" font-size="14.00">_J12</text>
</g>
<!-- ASI7 -->
<g id="node8" class="node">
<title>ASI7</title>
<g id="a_node8"><a xlink:href="#species-ASI7" xlink:title="ASI7&#10;[&#45;]">
<path fill="gold" stroke="black" d="M692.4,-429C692.4,-429 662.4,-429 662.4,-429 656.4,-429 650.4,-423 650.4,-417 650.4,-417 650.4,-403 650.4,-403 650.4,-397 656.4,-391 662.4,-391 662.4,-391 692.4,-391 692.4,-391 698.4,-391 704.4,-397 704.4,-403 704.4,-403 704.4,-417 704.4,-417 704.4,-423 698.4,-429 692.4,-429"/>
<text text-anchor="middle" x="677.4" y="-413.8" font-family="Arial" font-size="14.00">ASI7</text>
<text text-anchor="middle" x="677.4" y="-398.8" font-family="Arial" font-size="14.00">[&#45;]</text>
</a>
</g>
</g>
<!-- ASI6&#45;&gt;ASI7 -->
<g id="edge12" class="edge">
<title>ASI6&#45;&gt;ASI7</title>
<path fill="none" stroke="black" d="M932.36,-522.21C881.54,-500.04 771.71,-452.14 714.21,-427.05"/>
<polygon fill="black" stroke="black" points="715.34,-423.73 704.77,-422.94 712.54,-430.14 715.34,-423.73"/>
<text text-anchor="middle" x="886.4" y="-487.3" font-family="Times,serif" font-size="14.00">_J6</text>
</g>
<!-- ASI6&#45;&gt;ALiver -->
<g id="edge13" class="edge">
<title>ASI6&#45;&gt;ALiver</title>
<path fill="none" stroke="black" d="M979.14,-515.83C1019.37,-479.83 1115.14,-399.43 1210.4,-358.5 1305.76,-317.53 1425.66,-299.25 1498.86,-291.44"/>
<polygon fill="black" stroke="black" points="1499.28,-294.91 1508.87,-290.4 1498.56,-287.95 1499.28,-294.91"/>
<text text-anchor="middle" x="1175.9" y="-406.3" font-family="Times,serif" font-size="14.00">_J13</text>
</g>
<!-- AColon -->
<g id="node9" class="node">
<title>AColon</title>
<g id="a_node9"><a xlink:href="#species-AColon" xlink:title="AColon&#10;[&#45;]">
<path fill="gold" stroke="black" d="M488.9,-304C488.9,-304 451.9,-304 451.9,-304 445.9,-304 439.9,-298 439.9,-292 439.9,-292 439.9,-278 439.9,-278 439.9,-272 445.9,-266 451.9,-266 451.9,-266 488.9,-266 488.9,-266 494.9,-266 500.9,-272 500.9,-278 500.9,-278 500.9,-292 500.9,-292 500.9,-298 494.9,-304 488.9,-304"/>
<text text-anchor="middle" x="470.4" y="-288.8" font-family="Arial" font-size="14.00">AColon</text>
<text text-anchor="middle" x="470.4" y="-273.8" font-family="Arial" font-size="14.00">[&#45;]</text>
</a>
</g>
</g>
<!-- ASI7&#45;&gt;AColon -->
<g id="edge14" class="edge">
<title>ASI7&#45;&gt;AColon</title>
<path fill="none" stroke="black" d="M650.34,-392.92C614.4,-371.57 550.68,-333.7 509.51,-309.24"/>
<polygon fill="black" stroke="black" points="511.22,-306.18 500.83,-304.08 507.64,-312.2 511.22,-306.18"/>
<text text-anchor="middle" x="627.4" y="-362.3" font-family="Times,serif" font-size="14.00">_J7</text>
</g>
<!-- ASI7&#45;&gt;ALiver -->
<g id="edge15" class="edge">
<title>ASI7&#45;&gt;ALiver</title>
<path fill="none" stroke="black" d="M704.61,-402.28C748.5,-391.66 837.78,-370.9 914.4,-358.5 1126.56,-324.17 1380.27,-301.01 1498.55,-291.24"/>
<polygon fill="black" stroke="black" points="1498.86,-294.73 1508.54,-290.42 1498.29,-287.75 1498.86,-294.73"/>
<text text-anchor="middle" x="929.9" y="-362.3" font-family="Times,serif" font-size="14.00">_J14</text>
</g>
<!-- AFeaces -->
<g id="node15" class="node">
<title>AFeaces</title>
<g id="a_node15"><a xlink:href="#species-AFeaces" xlink:title="AFeaces&#10;[PBPKO:00273]">
<path fill="gold" stroke="black" d="M371.9,-179C371.9,-179 282.9,-179 282.9,-179 276.9,-179 270.9,-173 270.9,-167 270.9,-167 270.9,-153 270.9,-153 270.9,-147 276.9,-141 282.9,-141 282.9,-141 371.9,-141 371.9,-141 377.9,-141 383.9,-147 383.9,-153 383.9,-153 383.9,-167 383.9,-167 383.9,-173 377.9,-179 371.9,-179"/>
<text text-anchor="middle" x="327.4" y="-163.8" font-family="Arial" font-size="14.00">AFeaces</text>
<text text-anchor="middle" x="327.4" y="-148.8" font-family="Arial" font-size="14.00">[PBPKO:00273]</text>
</a>
</g>
</g>
<!-- AColon&#45;&gt;AFeaces -->
<g id="edge16" class="edge">
<title>AColon&#45;&gt;AFeaces</title>
<path fill="none" stroke="black" d="M449.3,-265.85C424.69,-244.69 383.88,-209.58 356.33,-185.88"/>
<polygon fill="black" stroke="black" points="358.45,-183.09 348.59,-179.22 353.89,-188.4 358.45,-183.09"/>
<text text-anchor="middle" x="443.9" y="-237.3" font-family="Times,serif" font-size="14.00">_J15</text>
</g>
<!-- ALiverMet1 -->
<g id="node11" class="node">
<title>ALiverMet1</title>
<g id="a_node11"><a xlink:href="#species-ALiverMet1" xlink:title="ALiverMet1&#10;[&#45;]">
<path fill="gold" stroke="black" d="M1533.4,-179C1533.4,-179 1471.4,-179 1471.4,-179 1465.4,-179 1459.4,-173 1459.4,-167 1459.4,-167 1459.4,-153 1459.4,-153 1459.4,-147 1465.4,-141 1471.4,-141 1471.4,-141 1533.4,-141 1533.4,-141 1539.4,-141 1545.4,-147 1545.4,-153 1545.4,-153 1545.4,-167 1545.4,-167 1545.4,-173 1539.4,-179 1533.4,-179"/>
<text text-anchor="middle" x="1502.4" y="-163.8" font-family="Arial" font-size="14.00">ALiverMet1</text>
<text text-anchor="middle" x="1502.4" y="-148.8" font-family="Arial" font-size="14.00">[&#45;]</text>
</a>
</g>
</g>
<!-- ALiver&#45;&gt;ALiverMet1 -->
<g id="edge17" class="edge">
<title>ALiver&#45;&gt;ALiverMet1</title>
<path fill="none" stroke="black" d="M1556.11,-265.85C1545.64,-245.41 1528.51,-211.97 1516.42,-188.36"/>
<polygon fill="black" stroke="black" points="1519.41,-186.53 1511.74,-179.22 1513.18,-189.72 1519.41,-186.53"/>
<text text-anchor="middle" x="1561.9" y="-237.3" font-family="Times,serif" font-size="14.00">_J20</text>
</g>
<!-- ALiverMet2 -->
<g id="node12" class="node">
<title>ALiverMet2</title>
<g id="a_node12"><a xlink:href="#species-ALiverMet2" xlink:title="ALiverMet2&#10;[&#45;]">
<path fill="gold" stroke="black" d="M1833.4,-54C1833.4,-54 1771.4,-54 1771.4,-54 1765.4,-54 1759.4,-48 1759.4,-42 1759.4,-42 1759.4,-28 1759.4,-28 1759.4,-22 1765.4,-16 1771.4,-16 1771.4,-16 1833.4,-16 1833.4,-16 1839.4,-16 1845.4,-22 1845.4,-28 1845.4,-28 1845.4,-42 1845.4,-42 1845.4,-48 1839.4,-54 1833.4,-54"/>
<text text-anchor="middle" x="1802.4" y="-38.8" font-family="Arial" font-size="14.00">ALiverMet2</text>
<text text-anchor="middle" x="1802.4" y="-23.8" font-family="Arial" font-size="14.00">[&#45;]</text>
</a>
</g>
</g>
<!-- ALiver&#45;&gt;ALiverMet2 -->
<g id="edge18" class="edge">
<title>ALiver&#45;&gt;ALiverMet2</title>
<path fill="none" stroke="black" d="M1582.83,-265.76C1624.52,-222.14 1730.09,-111.67 1778.04,-61.5"/>
<polygon fill="black" stroke="black" points="1780.57,-63.91 1784.95,-54.26 1775.51,-59.07 1780.57,-63.91"/>
<text text-anchor="middle" x="1722.9" y="-156.3" font-family="Times,serif" font-size="14.00">_J21</text>
</g>
<!-- ABlood -->
<g id="node13" class="node">
<title>ABlood</title>
<g id="a_node13"><a xlink:href="#species-ABlood" xlink:title="ABlood&#10;[PBPKO:00623]">
<path fill="gold" stroke="black" d="M990.9,-179C990.9,-179 901.9,-179 901.9,-179 895.9,-179 889.9,-173 889.9,-167 889.9,-167 889.9,-153 889.9,-153 889.9,-147 895.9,-141 901.9,-141 901.9,-141 990.9,-141 990.9,-141 996.9,-141 1002.9,-147 1002.9,-153 1002.9,-153 1002.9,-167 1002.9,-167 1002.9,-173 996.9,-179 990.9,-179"/>
<text text-anchor="middle" x="946.4" y="-163.8" font-family="Arial" font-size="14.00">ABlood</text>
<text text-anchor="middle" x="946.4" y="-148.8" font-family="Arial" font-size="14.00">[PBPKO:00623]</text>
</a>
</g>
</g>
<!-- ALiver&#45;&gt;ABlood -->
<g id="edge19" class="edge">
<title>ALiver&#45;&gt;ABlood</title>
<path fill="none" stroke="black" d="M1508.81,-282.52C1436.86,-279.71 1309.15,-271.63 1202.4,-248.5 1130.17,-232.85 1050.01,-203.38 998.96,-182.99"/>
<polygon fill="black" stroke="black" points="1000.05,-179.65 989.47,-179.17 997.44,-186.15 1000.05,-179.65"/>
<text text-anchor="middle" x="1217.9" y="-237.3" font-family="Times,serif" font-size="14.00">_J17</text>
</g>
<!-- ABlood&#45;&gt;ALiver -->
<g id="edge20" class="edge">
<title>ABlood&#45;&gt;ALiver</title>
<path fill="none" stroke="black" d="M1003.07,-172.26C1117.66,-195.03 1376.43,-246.45 1498.83,-270.77"/>
<polygon fill="black" stroke="black" points="1498.34,-274.24 1508.83,-272.76 1499.7,-267.38 1498.34,-274.24"/>
<text text-anchor="middle" x="1397.9" y="-237.3" font-family="Times,serif" font-size="14.00">_J16</text>
</g>
<!-- ARest -->
<g id="node14" class="node">
<title>ARest</title>
<g id="a_node14"><a xlink:href="#species-ARest" xlink:title="ARest&#10;[PBPKO:00501]">
<path fill="gold" stroke="black" d="M905.9,-54C905.9,-54 816.9,-54 816.9,-54 810.9,-54 804.9,-48 804.9,-42 804.9,-42 804.9,-28 804.9,-28 804.9,-22 810.9,-16 816.9,-16 816.9,-16 905.9,-16 905.9,-16 911.9,-16 917.9,-22 917.9,-28 917.9,-28 917.9,-42 917.9,-42 917.9,-48 911.9,-54 905.9,-54"/>
<text text-anchor="middle" x="861.4" y="-38.8" font-family="Arial" font-size="14.00">ARest</text>
<text text-anchor="middle" x="861.4" y="-23.8" font-family="Arial" font-size="14.00">[PBPKO:00501]</text>
</a>
</g>
</g>
<!-- ABlood&#45;&gt;ARest -->
<g id="edge21" class="edge">
<title>ABlood&#45;&gt;ARest</title>
<path fill="none" stroke="black" d="M933.86,-140.85C919.61,-120.23 896.22,-86.38 879.88,-62.74"/>
<polygon fill="black" stroke="black" points="882.56,-60.46 874,-54.22 876.8,-64.44 882.56,-60.46"/>
<text text-anchor="middle" x="935.9" y="-112.3" font-family="Times,serif" font-size="14.00">_J18</text>
</g>
<!-- ARest&#45;&gt;ABlood -->
<g id="edge22" class="edge">
<title>ARest&#45;&gt;ABlood</title>
<path fill="none" stroke="black" d="M899.19,-54.21C919.9,-66.42 943.67,-84.64 955.4,-108.5 958.84,-115.5 958.88,-123.63 957.43,-131.28"/>
<polygon fill="black" stroke="black" points="954.05,-130.38 954.84,-140.95 960.81,-132.2 954.05,-130.38"/>
<text text-anchor="middle" x="972.9" y="-112.3" font-family="Times,serif" font-size="14.00">_J19</text>
</g>
</g>
</svg>
