<?xml version="1.0" encoding="UTF-8" standalone="no"?>
<!DOCTYPE svg PUBLIC "-//W3C//DTD SVG 1.1//EN"
 "http://www.w3.org/Graphics/SVG/1.1/DTD/svg11.dtd">
<!-- Generated by graphviz version 2.43.0 (0)
 -->
<!-- Title: %3 Pages: 1 -->
<svg width="504pt" height="279pt"
 viewBox="0.00 0.00 504.00 279.14" xmlns="http://www.w3.org/2000/svg" xmlns:xlink="http://www.w3.org/1999/xlink">
<g id="graph0" class="graph" transform="scale(0.2 0.2) rotate(0) translate(4 1362)">
<title>%3</title>
<polygon fill="white" stroke="transparent" points="-4,4 -4,-1362 2462.36,-1362 2462.36,4 -4,4"/>
<g id="clust1" class="cluster">
<title>cluster_Stomach</title>
<g id="a_clust1"><a xlink:href="#compartment-Stomach" xlink:title="Stomach&#10;[&#45;]">
<path fill="lightblue" stroke="black" d="M1913.2,-1258C1913.2,-1258 2311.03,-1258 2311.03,-1258 2317.03,-1258 2323.03,-1264 2323.03,-1270 2323.03,-1270 2323.03,-1338 2323.03,-1338 2323.03,-1344 2317.03,-1350 2311.03,-1350 2311.03,-1350 1913.2,-1350 1913.2,-1350 1907.2,-1350 1901.2,-1344 1901.2,-1338 1901.2,-1338 1901.2,-1270 1901.2,-1270 1901.2,-1264 1907.2,-1258 1913.2,-1258"/>
<text text-anchor="middle" x="2112.11" y="-1334.8" font-family="Arial" font-size="14.00">Stomach</text>
<text text-anchor="middle" x="2112.11" y="-1319.8" font-family="Arial" font-size="14.00">[&#45;]</text>
</a>
</g>
</g>
<g id="clust2" class="cluster">
<title>cluster_SI1</title>
<g id="a_clust2"><a xlink:href="#compartment-SI1" xlink:title="SI1&#10;[&#45;]">
<path fill="lightblue" stroke="black" d="M1913.2,-1133C1913.2,-1133 2305.09,-1133 2305.09,-1133 2311.09,-1133 2317.09,-1139 2317.09,-1145 2317.09,-1145 2317.09,-1213 2317.09,-1213 2317.09,-1219 2311.09,-1225 2305.09,-1225 2305.09,-1225 1913.2,-1225 1913.2,-1225 1907.2,-1225 1901.2,-1219 1901.2,-1213 1901.2,-1213 1901.2,-1145 1901.2,-1145 1901.2,-1139 1907.2,-1133 1913.2,-1133"/>
<text text-anchor="middle" x="2109.14" y="-1209.8" font-family="Arial" font-size="14.00">SI1</text>
<text text-anchor="middle" x="2109.14" y="-1194.8" font-family="Arial" font-size="14.00">[&#45;]</text>
</a>
</g>
</g>
<g id="clust3" class="cluster">
<title>cluster_SI2</title>
<g id="a_clust3"><a xlink:href="#compartment-SI2" xlink:title="SI2&#10;[&#45;]">
<path fill="lightblue" stroke="black" d="M1913.2,-1008C1913.2,-1008 2305.09,-1008 2305.09,-1008 2311.09,-1008 2317.09,-1014 2317.09,-1020 2317.09,-1020 2317.09,-1088 2317.09,-1088 2317.09,-1094 2311.09,-1100 2305.09,-1100 2305.09,-1100 1913.2,-1100 1913.2,-1100 1907.2,-1100 1901.2,-1094 1901.2,-1088 1901.2,-1088 1901.2,-1020 1901.2,-1020 1901.2,-1014 1907.2,-1008 1913.2,-1008"/>
<text text-anchor="middle" x="2109.14" y="-1084.8" font-family="Arial" font-size="14.00">SI2</text>
<text text-anchor="middle" x="2109.14" y="-1069.8" font-family="Arial" font-size="14.00">[&#45;]</text>
</a>
</g>
</g>
<g id="clust4" class="cluster">
<title>cluster_SI3</title>
<g id="a_clust4"><a xlink:href="#compartment-SI3" xlink:title="SI3&#10;[&#45;]">
<path fill="lightblue" stroke="black" d="M1616.14,-883C1616.14,-883 2008.03,-883 2008.03,-883 2014.03,-883 2020.03,-889 2020.03,-895 2020.03,-895 2020.03,-963 2020.03,-963 2020.03,-969 2014.03,-975 2008.03,-975 2008.03,-975 1616.14,-975 1616.14,-975 1610.14,-975 1604.14,-969 1604.14,-963 1604.14,-963 1604.14,-895 1604.14,-895 1604.14,-889 1610.14,-883 1616.14,-883"/>
<text text-anchor="middle" x="1812.08" y="-959.8" font-family="Arial" font-size="14.00">SI3</text>
<text text-anchor="middle" x="1812.08" y="-944.8" font-family="Arial" font-size="14.00">[&#45;]</text>
</a>
</g>
</g>
<g id="clust5" class="cluster">
<title>cluster_SI4</title>
<g id="a_clust5"><a xlink:href="#compartment-SI4" xlink:title="SI4&#10;[&#45;]">
<path fill="lightblue" stroke="black" d="M1319.08,-758C1319.08,-758 1710.96,-758 1710.96,-758 1716.96,-758 1722.96,-764 1722.96,-770 1722.96,-770 1722.96,-838 1722.96,-838 1722.96,-844 1716.96,-850 1710.96,-850 1710.96,-850 1319.08,-850 1319.08,-850 1313.08,-850 1307.08,-844 1307.08,-838 1307.08,-838 1307.08,-770 1307.08,-770 1307.08,-764 1313.08,-758 1319.08,-758"/>
<text text-anchor="middle" x="1515.02" y="-834.8" font-family="Arial" font-size="14.00">SI4</text>
<text text-anchor="middle" x="1515.02" y="-819.8" font-family="Arial" font-size="14.00">[&#45;]</text>
</a>
</g>
</g>
<g id="clust6" class="cluster">
<title>cluster_SI5</title>
<g id="a_clust6"><a xlink:href="#compartment-SI5" xlink:title="SI5&#10;[&#45;]">
<path fill="lightblue" stroke="black" d="M992.31,-633C992.31,-633 1384.19,-633 1384.19,-633 1390.19,-633 1396.19,-639 1396.19,-645 1396.19,-645 1396.19,-713 1396.19,-713 1396.19,-719 1390.19,-725 1384.19,-725 1384.19,-725 992.31,-725 992.31,-725 986.31,-725 980.31,-719 980.31,-713 980.31,-713 980.31,-645 980.31,-645 980.31,-639 986.31,-633 992.31,-633"/>
<text text-anchor="middle" x="1188.25" y="-709.8" font-family="Arial" font-size="14.00">SI5</text>
<text text-anchor="middle" x="1188.25" y="-694.8" font-family="Arial" font-size="14.00">[&#45;]</text>
</a>
</g>
</g>
<g id="clust7" class="cluster">
<title>cluster_SI6</title>
<g id="a_clust7"><a xlink:href="#compartment-SI6" xlink:title="SI6&#10;[&#45;]">
<path fill="lightblue" stroke="black" d="M695.24,-508C695.24,-508 1087.13,-508 1087.13,-508 1093.13,-508 1099.13,-514 1099.13,-520 1099.13,-520 1099.13,-588 1099.13,-588 1099.13,-594 1093.13,-600 1087.13,-600 1087.13,-600 695.24,-600 695.24,-600 689.24,-600 683.24,-594 683.24,-588 683.24,-588 683.24,-520 683.24,-520 683.24,-514 689.24,-508 695.24,-508"/>
<text text-anchor="middle" x="891.19" y="-584.8" font-family="Arial" font-size="14.00">SI6</text>
<text text-anchor="middle" x="891.19" y="-569.8" font-family="Arial" font-size="14.00">[&#45;]</text>
</a>
</g>
</g>
<g id="clust8" class="cluster">
<title>cluster_SI7</title>
<g id="a_clust8"><a xlink:href="#compartment-SI7" xlink:title="SI7&#10;[&#45;]">
<path fill="lightblue" stroke="black" d="M320.94,-383C320.94,-383 712.83,-383 712.83,-383 718.83,-383 724.83,-389 724.83,-395 724.83,-395 724.83,-463 724.83,-463 724.83,-469 718.83,-475 712.83,-475 712.83,-475 320.94,-475 320.94,-475 314.94,-475 308.94,-469 308.94,-463 308.94,-463 308.94,-395 308.94,-395 308.94,-389 314.94,-383 320.94,-383"/>
<text text-anchor="middle" x="516.89" y="-459.8" font-family="Arial" font-size="14.00">SI7</text>
<text text-anchor="middle" x="516.89" y="-444.8" font-family="Arial" font-size="14.00">[&#45;]</text>
</a>
</g>
</g>
<g id="clust9" class="cluster">
<title>cluster_Colon</title>
<g id="a_clust9"><a xlink:href="#compartment-Colon" xlink:title="Colon&#10;[&#45;]">
<path fill="lightblue" stroke="black" d="M107.06,-258C107.06,-258 546.48,-258 546.48,-258 552.48,-258 558.48,-264 558.48,-270 558.48,-270 558.48,-338 558.48,-338 558.48,-344 552.48,-350 546.48,-350 546.48,-350 107.06,-350 107.06,-350 101.06,-350 95.06,-344 95.06,-338 95.06,-338 95.06,-270 95.06,-270 95.06,-264 101.06,-258 107.06,-258"/>
<text text-anchor="middle" x="326.77" y="-334.8" font-family="Arial" font-size="14.00">Colon</text>
<text text-anchor="middle" x="326.77" y="-319.8" font-family="Arial" font-size="14.00">[&#45;]</text>
</a>
</g>
</g>
<g id="clust10" class="cluster">
<title>cluster_Liver</title>
<g id="a_clust10"><a xlink:href="#compartment-Liver" xlink:title="Liver&#10;[&#45;]">
<path fill="lightblue" stroke="black" d="M1336.9,-8C1336.9,-8 2316.97,-8 2316.97,-8 2322.97,-8 2328.97,-14 2328.97,-20 2328.97,-20 2328.97,-338 2328.97,-338 2328.97,-344 2322.97,-350 2316.97,-350 2316.97,-350 1336.9,-350 1336.9,-350 1330.9,-350 1324.9,-344 1324.9,-338 1324.9,-338 1324.9,-20 1324.9,-20 1324.9,-14 1330.9,-8 1336.9,-8"/>
<text text-anchor="middle" x="1826.93" y="-334.8" font-family="Arial" font-size="14.00">Liver</text>
<text text-anchor="middle" x="1826.93" y="-319.8" font-family="Arial" font-size="14.00">[&#45;]</text>
</a>
</g>
</g>
<g id="clust11" class="cluster">
<title>cluster_Blood</title>
<g id="a_clust11"><a xlink:href="#compartment-Blood" xlink:title="Blood&#10;[PBPKO:00464]">
<path fill="lightblue" stroke="black" d="M618.01,-133C618.01,-133 1265.37,-133 1265.37,-133 1271.37,-133 1277.37,-139 1277.37,-145 1277.37,-145 1277.37,-213 1277.37,-213 1277.37,-219 1271.37,-225 1265.37,-225 1265.37,-225 618.01,-225 618.01,-225 612.01,-225 606.01,-219 606.01,-213 606.01,-213 606.01,-145 606.01,-145 606.01,-139 612.01,-133 618.01,-133"/>
<text text-anchor="middle" x="941.69" y="-209.8" font-family="Arial" font-size="14.00">Blood</text>
<text text-anchor="middle" x="941.69" y="-194.8" font-family="Arial" font-size="14.00">[PBPKO:00464]</text>
</a>
</g>
</g>
<g id="clust12" class="cluster">
<title>cluster_Rest</title>
<g id="a_clust12"><a xlink:href="#compartment-Rest" xlink:title="Rest&#10;[PBPKO:00450]">
<path fill="lightblue" stroke="black" d="M445.71,-8C445.71,-8 1194.07,-8 1194.07,-8 1200.07,-8 1206.07,-14 1206.07,-20 1206.07,-20 1206.07,-88 1206.07,-88 1206.07,-94 1200.07,-100 1194.07,-100 1194.07,-100 445.71,-100 445.71,-100 439.71,-100 433.71,-94 433.71,-88 433.71,-88 433.71,-20 433.71,-20 433.71,-14 439.71,-8 445.71,-8"/>
<text text-anchor="middle" x="819.89" y="-84.8" font-family="Arial" font-size="14.00">Rest</text>
<text text-anchor="middle" x="819.89" y="-69.8" font-family="Arial" font-size="14.00">[PBPKO:00450]</text>
</a>
</g>
</g>
<g id="clust14" class="cluster">
<title>cluster_Feaces</title>
<g id="a_clust14"><a xlink:href="#compartment-Feaces" xlink:title="Feaces&#10;[&#45;]">
<path fill="lightblue" stroke="black" d="M59.53,-133C59.53,-133 546.48,-133 546.48,-133 552.48,-133 558.48,-139 558.48,-145 558.48,-145 558.48,-213 558.48,-213 558.48,-219 552.48,-225 546.48,-225 546.48,-225 59.53,-225 59.53,-225 53.53,-225 47.53,-219 47.53,-213 47.53,-213 47.53,-145 47.53,-145 47.53,-139 53.53,-133 59.53,-133"/>
<text text-anchor="middle" x="303" y="-209.8" font-family="Arial" font-size="14.00">Feaces</text>
<text text-anchor="middle" x="303" y="-194.8" font-family="Arial" font-size="14.00">[&#45;]</text>
</a>
</g>
</g>
<!-- ASt -->
<g id="node1" class="node">
<title>ASt</title>
<g id="a_node1"><a xlink:href="#species-ASt" xlink:title="ASt&#10;[&#45;]">
<path fill="gold" stroke="black" d="M2124.36,-1304C2124.36,-1304 2094.36,-1304 2094.36,-1304 2088.36,-1304 2082.36,-1298 2082.36,-1292 2082.36,-1292 2082.36,-1278 2082.36,-1278 2082.36,-1272 2088.36,-1266 2094.36,-1266 2094.36,-1266 2124.36,-1266 2124.36,-1266 2130.36,-1266 2136.36,-1272 2136.36,-1278 2136.36,-1278 2136.36,-1292 2136.36,-1292 2136.36,-1298 2130.36,-1304 2124.36,-1304"/>
<text text-anchor="middle" x="2109.36" y="-1288.8" font-family="Arial" font-size="14.00">ASt</text>
<text text-anchor="middle" x="2109.36" y="-1273.8" font-family="Arial" font-size="14.00">[&#45;]</text>
</a>
</g>
</g>
<!-- ASI1 -->
<g id="node2" class="node">
<title>ASI1</title>
<g id="a_node2"><a xlink:href="#species-ASI1" xlink:title="ASI1&#10;[&#45;]">
<path fill="gold" stroke="black" d="M2124.36,-1179C2124.36,-1179 2094.36,-1179 2094.36,-1179 2088.36,-1179 2082.36,-1173 2082.36,-1167 2082.36,-1167 2082.36,-1153 2082.36,-1153 2082.36,-1147 2088.36,-1141 2094.36,-1141 2094.36,-1141 2124.36,-1141 2124.36,-1141 2130.36,-1141 2136.36,-1147 2136.36,-1153 2136.36,-1153 2136.36,-1167 2136.36,-1167 2136.36,-1173 2130.36,-1179 2124.36,-1179"/>
<text text-anchor="middle" x="2109.36" y="-1163.8" font-family="Arial" font-size="14.00">ASI1</text>
<text text-anchor="middle" x="2109.36" y="-1148.8" font-family="Arial" font-size="14.00">[&#45;]</text>
</a>
</g>
</g>
<!-- ASt&#45;&gt;ASI1 -->
<g id="edge1" class="edge">
<title>ASt&#45;&gt;ASI1</title>
<path fill="none" stroke="black" d="M2109.36,-1265.85C2109.36,-1245.68 2109.36,-1212.86 2109.36,-1189.31"/>
<polygon fill="black" stroke="black" points="2112.86,-1189.22 2109.36,-1179.22 2105.86,-1189.22 2112.86,-1189.22"/>
<text text-anchor="middle" x="2120.36" y="-1237.3" font-family="Times,serif" font-size="14.00">_J0</text>
</g>
<!-- ASI2 -->
<g id="node3" class="node">
<title>ASI2</title>
<g id="a_node3"><a xlink:href="#species-ASI2" xlink:title="ASI2&#10;[&#45;]">
<path fill="gold" stroke="black" d="M2124.36,-1054C2124.36,-1054 2094.36,-1054 2094.36,-1054 2088.36,-1054 2082.36,-1048 2082.36,-1042 2082.36,-1042 2082.36,-1028 2082.36,-1028 2082.36,-1022 2088.36,-1016 2094.36,-1016 2094.36,-1016 2124.36,-1016 2124.36,-1016 2130.36,-1016 2136.36,-1022 2136.36,-1028 2136.36,-1028 2136.36,-1042 2136.36,-1042 2136.36,-1048 2130.36,-1054 2124.36,-1054"/>
<text text-anchor="middle" x="2109.36" y="-1038.8" font-family="Arial" font-size="14.00">ASI2</text>
<text text-anchor="middle" x="2109.36" y="-1023.8" font-family="Arial" font-size="14.00">[&#45;]</text>
</a>
</g>
</g>
<!-- ASI1&#45;&gt;ASI2 -->
<g id="edge2" class="edge">
<title>ASI1&#45;&gt;ASI2</title>
<path fill="none" stroke="black" d="M2109.36,-1140.85C2109.36,-1120.68 2109.36,-1087.86 2109.36,-1064.31"/>
<polygon fill="black" stroke="black" points="2112.86,-1064.22 2109.36,-1054.22 2105.86,-1064.22 2112.86,-1064.22"/>
<text text-anchor="middle" x="2120.36" y="-1112.3" font-family="Times,serif" font-size="14.00">_J1</text>
</g>
<!-- ALiver -->
<g id="node10" class="node">
<title>ALiver</title>
<g id="a_node10"><a xlink:href="#species-ALiver" xlink:title="ALiver&#10;[PBPKO:00497]">
<path fill="gold" stroke="black" d="M1755.86,-304C1755.86,-304 1666.86,-304 1666.86,-304 1660.86,-304 1654.86,-298 1654.86,-292 1654.86,-292 1654.86,-278 1654.86,-278 1654.86,-272 1660.86,-266 1666.86,-266 1666.86,-266 1755.86,-266 1755.86,-266 1761.86,-266 1767.86,-272 1767.86,-278 1767.86,-278 1767.86,-292 1767.86,-292 1767.86,-298 1761.86,-304 1755.86,-304"/>
<text text-anchor="middle" x="1711.36" y="-288.8" font-family="Arial" font-size="14.00">ALiver</text>
<text text-anchor="middle" x="1711.36" y="-273.8" font-family="Arial" font-size="14.00">[PBPKO:00497]</text>
</a>
</g>
</g>
<!-- ASI1&#45;&gt;ALiver -->
<g id="edge3" class="edge">
<title>ASI1&#45;&gt;ALiver</title>
<path fill="none" stroke="black" d="M2136.4,-1154.82C2214.74,-1141.96 2436.36,-1099.91 2436.36,-1036 2436.36,-1036 2436.36,-1036 2436.36,-409 2436.36,-342.59 1957.35,-302.87 1778.04,-290.33"/>
<polygon fill="black" stroke="black" points="1778.16,-286.83 1767.95,-289.63 1777.68,-293.82 1778.16,-286.83"/>
<text text-anchor="middle" x="2447.36" y="-737.3" font-family="Times,serif" font-size="14.00">_J8</text>
</g>
<!-- ASI3 -->
<g id="node4" class="node">
<title>ASI3</title>
<g id="a_node4"><a xlink:href="#species-ASI3" xlink:title="ASI3&#10;[&#45;]">
<path fill="gold" stroke="black" d="M1827.36,-929C1827.36,-929 1797.36,-929 1797.36,-929 1791.36,-929 1785.36,-923 1785.36,-917 1785.36,-917 1785.36,-903 1785.36,-903 1785.36,-897 1791.36,-891 1797.36,-891 1797.36,-891 1827.36,-891 1827.36,-891 1833.36,-891 1839.36,-897 1839.36,-903 1839.36,-903 1839.36,-917 1839.36,-917 1839.36,-923 1833.36,-929 1827.36,-929"/>
<text text-anchor="middle" x="1812.36" y="-913.8" font-family="Arial" font-size="14.00">ASI3</text>
<text text-anchor="middle" x="1812.36" y="-898.8" font-family="Arial" font-size="14.00">[&#45;]</text>
</a>
</g>
</g>
<!-- ASI2&#45;&gt;ASI3 -->
<g id="edge4" class="edge">
<title>ASI2&#45;&gt;ASI3</title>
<path fill="none" stroke="black" d="M2082.21,-1022.76C2028.77,-1000.62 1909.85,-951.37 1849.31,-926.3"/>
<polygon fill="black" stroke="black" points="1850.34,-922.94 1839.76,-922.35 1847.66,-929.41 1850.34,-922.94"/>
<text text-anchor="middle" x="2032.36" y="-987.3" font-family="Times,serif" font-size="14.00">_J2</text>
</g>
<!-- ASI2&#45;&gt;ALiver -->
<g id="edge5" class="edge">
<title>ASI2&#45;&gt;ALiver</title>
<path fill="none" stroke="black" d="M2116.38,-1015.98C2124.96,-992.28 2138.36,-949.18 2138.36,-911 2138.36,-911 2138.36,-911 2138.36,-409 2138.36,-334.98 1898.4,-302.81 1778.25,-291.35"/>
<polygon fill="black" stroke="black" points="1778.34,-287.84 1768.06,-290.4 1777.69,-294.81 1778.34,-287.84"/>
<text text-anchor="middle" x="2149.36" y="-656.3" font-family="Times,serif" font-size="14.00">_J9</text>
</g>
<!-- ASI4 -->
<g id="node5" class="node">
<title>ASI4</title>
<g id="a_node5"><a xlink:href="#species-ASI4" xlink:title="ASI4&#10;[&#45;]">
<path fill="gold" stroke="black" d="M1530.36,-804C1530.36,-804 1500.36,-804 1500.36,-804 1494.36,-804 1488.36,-798 1488.36,-792 1488.36,-792 1488.36,-778 1488.36,-778 1488.36,-772 1494.36,-766 1500.36,-766 1500.36,-766 1530.36,-766 1530.36,-766 1536.36,-766 1542.36,-772 1542.36,-778 1542.36,-778 1542.36,-792 1542.36,-792 1542.36,-798 1536.36,-804 1530.36,-804"/>
<text text-anchor="middle" x="1515.36" y="-788.8" font-family="Arial" font-size="14.00">ASI4</text>
<text text-anchor="middle" x="1515.36" y="-773.8" font-family="Arial" font-size="14.00">[&#45;]</text>
</a>
</g>
</g>
<!-- ASI3&#45;&gt;ASI4 -->
<g id="edge6" class="edge">
<title>ASI3&#45;&gt;ASI4</title>
<path fill="none" stroke="black" d="M1785.21,-897.76C1731.77,-875.62 1612.85,-826.37 1552.31,-801.3"/>
<polygon fill="black" stroke="black" points="1553.34,-797.94 1542.76,-797.35 1550.66,-804.41 1553.34,-797.94"/>
<text text-anchor="middle" x="1735.36" y="-862.3" font-family="Times,serif" font-size="14.00">_J3</text>
</g>
<!-- ASI3&#45;&gt;ALiver -->
<g id="edge7" class="edge">
<title>ASI3&#45;&gt;ALiver</title>
<path fill="none" stroke="black" d="M1825.73,-890.88C1841.43,-867.77 1865.36,-825.99 1865.36,-786 1865.36,-786 1865.36,-786 1865.36,-409 1865.36,-360.07 1817.3,-327.42 1774.88,-308.14"/>
<polygon fill="black" stroke="black" points="1776.22,-304.9 1765.65,-304.1 1773.42,-311.32 1776.22,-304.9"/>
<text text-anchor="middle" x="1880.86" y="-612.3" font-family="Times,serif" font-size="14.00">_J10</text>
</g>
<!-- ASI5 -->
<g id="node6" class="node">
<title>ASI5</title>
<g id="a_node6"><a xlink:href="#species-ASI5" xlink:title="ASI5&#10;[&#45;]">
<path fill="gold" stroke="black" d="M1203.36,-679C1203.36,-679 1173.36,-679 1173.36,-679 1167.36,-679 1161.36,-673 1161.36,-667 1161.36,-667 1161.36,-653 1161.36,-653 1161.36,-647 1167.36,-641 1173.36,-641 1173.36,-641 1203.36,-641 1203.36,-641 1209.36,-641 1215.36,-647 1215.36,-653 1215.36,-653 1215.36,-667 1215.36,-667 1215.36,-673 1209.36,-679 1203.36,-679"/>
<text text-anchor="middle" x="1188.36" y="-663.8" font-family="Arial" font-size="14.00">ASI5</text>
<text text-anchor="middle" x="1188.36" y="-648.8" font-family="Arial" font-size="14.00">[&#45;]</text>
</a>
</g>
</g>
<!-- ASI4&#45;&gt;ASI5 -->
<g id="edge8" class="edge">
<title>ASI4&#45;&gt;ASI5</title>
<path fill="none" stroke="black" d="M1488.32,-773.83C1429.81,-751.82 1291.39,-699.76 1225.05,-674.8"/>
<polygon fill="black" stroke="black" points="1226.02,-671.43 1215.43,-671.18 1223.56,-677.98 1226.02,-671.43"/>
<text text-anchor="middle" x="1429.36" y="-737.3" font-family="Times,serif" font-size="14.00">_J4</text>
</g>
<!-- ASI4&#45;&gt;ALiver -->
<g id="edge9" class="edge">
<title>ASI4&#45;&gt;ALiver</title>
<path fill="none" stroke="black" d="M1515.36,-765.66C1515.36,-741.63 1515.36,-698.16 1515.36,-661 1515.36,-661 1515.36,-661 1515.36,-409 1515.36,-346.34 1588.12,-314.37 1644.98,-298.96"/>
<polygon fill="black" stroke="black" points="1645.87,-302.35 1654.67,-296.45 1644.11,-295.57 1645.87,-302.35"/>
<text text-anchor="middle" x="1530.86" y="-531.3" font-family="Times,serif" font-size="14.00">_J11</text>
</g>
<!-- ASI6 -->
<g id="node7" class="node">
<title>ASI6</title>
<g id="a_node7"><a xlink:href="#species-ASI6" xlink:title="ASI6&#10;[&#45;]">
<path fill="gold" stroke="black" d="M906.36,-554C906.36,-554 876.36,-554 876.36,-554 870.36,-554 864.36,-548 864.36,-542 864.36,-542 864.36,-528 864.36,-528 864.36,-522 870.36,-516 876.36,-516 876.36,-516 906.36,-516 906.36,-516 912.36,-516 918.36,-522 918.36,-528 918.36,-528 918.36,-542 918.36,-542 918.36,-548 912.36,-554 906.36,-554"/>
<text text-anchor="middle" x="891.36" y="-538.8" font-family="Arial" font-size="14.00">ASI6</text>
<text text-anchor="middle" x="891.36" y="-523.8" font-family="Arial" font-size="14.00">[&#45;]</text>
</a>
</g>
</g>
<!-- ASI5&#45;&gt;ASI6 -->
<g id="edge10" class="edge">
<title>ASI5&#45;&gt;ASI6</title>
<path fill="none" stroke="black" d="M1161.21,-647.76C1107.77,-625.62 988.85,-576.37 928.31,-551.3"/>
<polygon fill="black" stroke="black" points="929.34,-547.94 918.76,-547.35 926.66,-554.41 929.34,-547.94"/>
<text text-anchor="middle" x="1111.36" y="-612.3" font-family="Times,serif" font-size="14.00">_J5</text>
</g>
<!-- ASI5&#45;&gt;ALiver -->
<g id="edge11" class="edge">
<title>ASI5&#45;&gt;ALiver</title>
<path fill="none" stroke="black" d="M1202.55,-640.64C1243.42,-588.94 1367.03,-440.62 1501.36,-358.5 1545.78,-331.34 1601.74,-312.67 1644.72,-301.08"/>
<polygon fill="black" stroke="black" points="1645.74,-304.43 1654.52,-298.5 1643.96,-297.66 1645.74,-304.43"/>
<text text-anchor="middle" x="1356.86" y="-487.3" font-family="Times,serif" font-size="14.00">_J12</text>
</g>
<!-- ASI7 -->
<g id="node8" class="node">
<title>ASI7</title>
<g id="a_node8"><a xlink:href="#species-ASI7" xlink:title="ASI7&#10;[&#45;]">
<path fill="gold" stroke="black" d="M532.36,-429C532.36,-429 502.36,-429 502.36,-429 496.36,-429 490.36,-423 490.36,-417 490.36,-417 490.36,-403 490.36,-403 490.36,-397 496.36,-391 502.36,-391 502.36,-391 532.36,-391 532.36,-391 538.36,-391 544.36,-397 544.36,-403 544.36,-403 544.36,-417 544.36,-417 544.36,-423 538.36,-429 532.36,-429"/>
<text text-anchor="middle" x="517.36" y="-413.8" font-family="Arial" font-size="14.00">ASI7</text>
<text text-anchor="middle" x="517.36" y="-398.8" font-family="Arial" font-size="14.00">[&#45;]</text>
</a>
</g>
</g>
<!-- ASI6&#45;&gt;ASI7 -->
<g id="edge12" class="edge">
<title>ASI6&#45;&gt;ASI7</title>
<path fill="none" stroke="black" d="M864.16,-525.06C798.18,-503.35 629.52,-447.89 554.41,-423.19"/>
<polygon fill="black" stroke="black" points="555.05,-419.71 544.46,-419.91 552.86,-426.36 555.05,-419.71"/>
<text text-anchor="middle" x="791.36" y="-487.3" font-family="Times,serif" font-size="14.00">_J6</text>
</g>
<!-- ASI6&#45;&gt;ALiver -->
<g id="edge13" class="edge">
<title>ASI6&#45;&gt;ALiver</title>
<path fill="none" stroke="black" d="M918.29,-515.91C973.59,-479.69 1105.03,-398.36 1227.36,-358.5 1371.56,-311.51 1549.97,-294.8 1644.78,-288.99"/>
<polygon fill="black" stroke="black" points="1645.03,-292.48 1654.81,-288.4 1644.62,-285.49 1645.03,-292.48"/>
<text text-anchor="middle" x="1172.86" y="-406.3" font-family="Times,serif" font-size="14.00">_J13</text>
</g>
<!-- AColon -->
<g id="node9" class="node">
<title>AColon</title>
<g id="a_node9"><a xlink:href="#species-AColon" xlink:title="AColon&#10;[&#45;]">
<path fill="gold" stroke="black" d="M344.86,-304C344.86,-304 307.86,-304 307.86,-304 301.86,-304 295.86,-298 295.86,-292 295.86,-292 295.86,-278 295.86,-278 295.86,-272 301.86,-266 307.86,-266 307.86,-266 344.86,-266 344.86,-266 350.86,-266 356.86,-272 356.86,-278 356.86,-278 356.86,-292 356.86,-292 356.86,-298 350.86,-304 344.86,-304"/>
<text text-anchor="middle" x="326.36" y="-288.8" font-family="Arial" font-size="14.00">AColon</text>
<text text-anchor="middle" x="326.36" y="-273.8" font-family="Arial" font-size="14.00">[&#45;]</text>
</a>
</g>
</g>
<!-- ASI7&#45;&gt;AColon -->
<g id="edge14" class="edge">
<title>ASI7&#45;&gt;AColon</title>
<path fill="none" stroke="black" d="M489.99,-391.38C456.67,-369.91 400.24,-333.58 363.14,-309.68"/>
<polygon fill="black" stroke="black" points="364.91,-306.66 354.61,-304.19 361.12,-312.55 364.91,-306.66"/>
<text text-anchor="middle" x="472.36" y="-362.3" font-family="Times,serif" font-size="14.00">_J7</text>
</g>
<!-- ASI7&#45;&gt;ALiver -->
<g id="edge15" class="edge">
<title>ASI7&#45;&gt;ALiver</title>
<path fill="none" stroke="black" d="M544.57,-404.17C600.78,-394.35 733.88,-371.83 846.36,-358.5 1143.22,-323.32 1499.38,-299.13 1644.71,-290.02"/>
<polygon fill="black" stroke="black" points="1645.04,-293.51 1654.8,-289.39 1644.6,-286.52 1645.04,-293.51"/>
<text text-anchor="middle" x="861.86" y="-362.3" font-family="Times,serif" font-size="14.00">_J14</text>
</g>
<!-- AFeaces -->
<g id="node15" class="node">
<title>AFeaces</title>
<g id="a_node15"><a xlink:href="#species-AFeaces" xlink:title="AFeaces&#10;[&#45;]">
<path fill="gold" stroke="black" d="M326.36,-179C326.36,-179 280.36,-179 280.36,-179 274.36,-179 268.36,-173 268.36,-167 268.36,-167 268.36,-153 268.36,-153 268.36,-147 274.36,-141 280.36,-141 280.36,-141 326.36,-141 326.36,-141 332.36,-141 338.36,-147 338.36,-153 338.36,-153 338.36,-167 338.36,-167 338.36,-173 332.36,-179 326.36,-179"/>
<text text-anchor="middle" x="303.36" y="-163.8" font-family="Arial" font-size="14.00">AFeaces</text>
<text text-anchor="middle" x="303.36" y="-148.8" font-family="Arial" font-size="14.00">[&#45;]</text>
</a>
</g>
</g>
<!-- AColon&#45;&gt;AFeaces -->
<g id="edge16" class="edge">
<title>AColon&#45;&gt;AFeaces</title>
<path fill="none" stroke="black" d="M322.97,-265.85C319.19,-245.68 313.06,-212.86 308.65,-189.31"/>
<polygon fill="black" stroke="black" points="312.04,-188.41 306.77,-179.22 305.16,-189.7 312.04,-188.41"/>
<text text-anchor="middle" x="335.86" y="-237.3" font-family="Times,serif" font-size="14.00">_J15</text>
</g>
<!-- ALiverMet1 -->
<g id="node11" class="node">
<title>ALiverMet1</title>
<g id="a_node11"><a xlink:href="#species-ALiverMet1" xlink:title="ALiverMet1&#10;[&#45;]">
<path fill="gold" stroke="black" d="M1659.36,-179C1659.36,-179 1597.36,-179 1597.36,-179 1591.36,-179 1585.36,-173 1585.36,-167 1585.36,-167 1585.36,-153 1585.36,-153 1585.36,-147 1591.36,-141 1597.36,-141 1597.36,-141 1659.36,-141 1659.36,-141 1665.36,-141 1671.36,-147 1671.36,-153 1671.36,-153 1671.36,-167 1671.36,-167 1671.36,-173 1665.36,-179 1659.36,-179"/>
<text text-anchor="middle" x="1628.36" y="-163.8" font-family="Arial" font-size="14.00">ALiverMet1</text>
<text text-anchor="middle" x="1628.36" y="-148.8" font-family="Arial" font-size="14.00">[&#45;]</text>
</a>
</g>
</g>
<!-- ALiver&#45;&gt;ALiverMet1 -->
<g id="edge17" class="edge">
<title>ALiver&#45;&gt;ALiverMet1</title>
<path fill="none" stroke="black" d="M1699.11,-265.85C1685.2,-245.23 1662.35,-211.38 1646.4,-187.74"/>
<polygon fill="black" stroke="black" points="1649.15,-185.56 1640.66,-179.22 1643.35,-189.47 1649.15,-185.56"/>
<text text-anchor="middle" x="1701.86" y="-237.3" font-family="Times,serif" font-size="14.00">_J20</text>
</g>
<!-- ALiverMet2 -->
<g id="node12" class="node">
<title>ALiverMet2</title>
<g id="a_node12"><a xlink:href="#species-ALiverMet2" xlink:title="ALiverMet2&#10;[&#45;]">
<path fill="gold" stroke="black" d="M2057.36,-54C2057.36,-54 1995.36,-54 1995.36,-54 1989.36,-54 1983.36,-48 1983.36,-42 1983.36,-42 1983.36,-28 1983.36,-28 1983.36,-22 1989.36,-16 1995.36,-16 1995.36,-16 2057.36,-16 2057.36,-16 2063.36,-16 2069.36,-22 2069.36,-28 2069.36,-28 2069.36,-42 2069.36,-42 2069.36,-48 2063.36,-54 2057.36,-54"/>
<text text-anchor="middle" x="2026.36" y="-38.8" font-family="Arial" font-size="14.00">ALiverMet2</text>
<text text-anchor="middle" x="2026.36" y="-23.8" font-family="Arial" font-size="14.00">[&#45;]</text>
</a>
</g>
</g>
<!-- ALiver&#45;&gt;ALiverMet2 -->
<g id="edge18" class="edge">
<title>ALiver&#45;&gt;ALiverMet2</title>
<path fill="none" stroke="black" d="M1734.27,-265.96C1789.82,-222.23 1931.78,-110.46 1995.08,-60.63"/>
<polygon fill="black" stroke="black" points="1997.42,-63.24 2003.11,-54.3 1993.09,-57.74 1997.42,-63.24"/>
<text text-anchor="middle" x="1914.86" y="-156.3" font-family="Times,serif" font-size="14.00">_J21</text>
</g>
<!-- ABlood -->
<g id="node13" class="node">
<title>ABlood</title>
<g id="a_node13"><a xlink:href="#species-ABlood" xlink:title="ABlood&#10;[&#45;]">
<path fill="gold" stroke="black" d="M1069.36,-179C1069.36,-179 1033.36,-179 1033.36,-179 1027.36,-179 1021.36,-173 1021.36,-167 1021.36,-167 1021.36,-153 1021.36,-153 1021.36,-147 1027.36,-141 1033.36,-141 1033.36,-141 1069.36,-141 1069.36,-141 1075.36,-141 1081.36,-147 1081.36,-153 1081.36,-153 1081.36,-167 1081.36,-167 1081.36,-173 1075.36,-179 1069.36,-179"/>
<text text-anchor="middle" x="1051.36" y="-163.8" font-family="Arial" font-size="14.00">ABlood</text>
<text text-anchor="middle" x="1051.36" y="-148.8" font-family="Arial" font-size="14.00">[&#45;]</text>
</a>
</g>
</g>
<!-- ALiver&#45;&gt;ABlood -->
<g id="edge19" class="edge">
<title>ALiver&#45;&gt;ABlood</title>
<path fill="none" stroke="black" d="M1654.54,-282.63C1578.77,-279.93 1440.77,-271.94 1325.36,-248.5 1240.08,-231.18 1143.93,-196.89 1091.23,-176.76"/>
<polygon fill="black" stroke="black" points="1092.19,-173.38 1081.6,-173.06 1089.68,-179.92 1092.19,-173.38"/>
<text text-anchor="middle" x="1340.86" y="-237.3" font-family="Times,serif" font-size="14.00">_J17</text>
</g>
<!-- ABlood&#45;&gt;ALiver -->
<g id="edge20" class="edge">
<title>ABlood&#45;&gt;ALiver</title>
<path fill="none" stroke="black" d="M1081.55,-169.02C1131.27,-182.03 1233.63,-208 1321.36,-225 1434.11,-246.85 1566.52,-265.4 1644.44,-275.59"/>
<polygon fill="black" stroke="black" points="1644.23,-279.09 1654.59,-276.91 1645.13,-272.15 1644.23,-279.09"/>
<text text-anchor="middle" x="1464.86" y="-237.3" font-family="Times,serif" font-size="14.00">_J16</text>
</g>
<!-- ARest -->
<g id="node14" class="node">
<title>ARest</title>
<g id="a_node14"><a xlink:href="#species-ARest" xlink:title="ARest&#10;[PBPKO:00501]">
<path fill="gold" stroke="black" d="M864.86,-54C864.86,-54 775.86,-54 775.86,-54 769.86,-54 763.86,-48 763.86,-42 763.86,-42 763.86,-28 763.86,-28 763.86,-22 769.86,-16 775.86,-16 775.86,-16 864.86,-16 864.86,-16 870.86,-16 876.86,-22 876.86,-28 876.86,-28 876.86,-42 876.86,-42 876.86,-48 870.86,-54 864.86,-54"/>
<text text-anchor="middle" x="820.36" y="-38.8" font-family="Arial" font-size="14.00">ARest</text>
<text text-anchor="middle" x="820.36" y="-23.8" font-family="Arial" font-size="14.00">[PBPKO:00501]</text>
</a>
</g>
</g>
<!-- ABlood&#45;&gt;ARest -->
<g id="edge21" class="edge">
<title>ABlood&#45;&gt;ARest</title>
<path fill="none" stroke="black" d="M1021.16,-142.92C980.89,-121.48 909.35,-83.38 863.43,-58.93"/>
<polygon fill="black" stroke="black" points="864.79,-55.69 854.32,-54.08 861.5,-61.87 864.79,-55.69"/>
<text text-anchor="middle" x="997.86" y="-112.3" font-family="Times,serif" font-size="14.00">_J18</text>
</g>
<!-- ARest&#45;&gt;ABlood -->
<g id="edge22" class="edge">
<title>ARest&#45;&gt;ABlood</title>
<path fill="none" stroke="black" d="M877.22,-46.99C919.3,-57.34 976.22,-76.21 1017.36,-108.5 1025.5,-114.89 1032.39,-123.79 1037.8,-132.34"/>
<polygon fill="black" stroke="black" points="1034.8,-134.14 1042.88,-141 1040.84,-130.6 1034.8,-134.14"/>
<text text-anchor="middle" x="1045.86" y="-112.3" font-family="Times,serif" font-size="14.00">_J19</text>
</g>
</g>
</svg>
