<?xml version="1.0" encoding="UTF-8" standalone="no"?>
<!DOCTYPE svg PUBLIC "-//W3C//DTD SVG 1.1//EN"
 "http://www.w3.org/Graphics/SVG/1.1/DTD/svg11.dtd">
<!-- Generated by graphviz version 2.43.0 (0)
 -->
<!-- Title: %3 Pages: 1 -->
<svg width="500pt" height="288pt"
 viewBox="0.00 0.00 500.48 288.00" xmlns="http://www.w3.org/2000/svg" xmlns:xlink="http://www.w3.org/1999/xlink">
<g id="graph0" class="graph" transform="scale(0.59 0.59) rotate(0) translate(4 487)">
<title>%3</title>
<polygon fill="white" stroke="transparent" points="-4,4 -4,-487 849.25,-487 849.25,4 -4,4"/>
<g id="clust1" class="cluster">
<title>cluster_Gut</title>
<g id="a_clust1"><a xlink:href="#compartment-Gut" xlink:title="Gut&#10;[PBPKO:00477]">
<path fill="lightblue" stroke="black" d="M111.44,-383C111.44,-383 427.63,-383 427.63,-383 433.63,-383 439.63,-389 439.63,-395 439.63,-395 439.63,-463 439.63,-463 439.63,-469 433.63,-475 427.63,-475 427.63,-475 111.44,-475 111.44,-475 105.44,-475 99.44,-469 99.44,-463 99.44,-463 99.44,-395 99.44,-395 99.44,-389 105.44,-383 111.44,-383"/>
<text text-anchor="middle" x="269.54" y="-459.8" font-family="Arial" font-size="14.00">Gut</text>
<text text-anchor="middle" x="269.54" y="-444.8" font-family="Arial" font-size="14.00">[PBPKO:00477]</text>
</a>
</g>
</g>
<g id="clust2" class="cluster">
<title>cluster_Liver</title>
<g id="a_clust2"><a xlink:href="#compartment-Liver" xlink:title="Liver&#10;[&#45;]">
<path fill="lightblue" stroke="black" d="M32.93,-8C32.93,-8 427.63,-8 427.63,-8 433.63,-8 439.63,-14 439.63,-20 439.63,-20 439.63,-338 439.63,-338 439.63,-344 433.63,-350 427.63,-350 427.63,-350 32.93,-350 32.93,-350 26.93,-350 20.93,-344 20.93,-338 20.93,-338 20.93,-20 20.93,-20 20.93,-14 26.93,-8 32.93,-8"/>
<text text-anchor="middle" x="230.28" y="-334.8" font-family="Arial" font-size="14.00">Liver</text>
<text text-anchor="middle" x="230.28" y="-319.8" font-family="Arial" font-size="14.00">[&#45;]</text>
</a>
</g>
</g>
<g id="clust3" class="cluster">
<title>cluster_Blood</title>
<g id="a_clust3"><a xlink:href="#compartment-Blood" xlink:title="Blood&#10;[PBPKO:00464]">
<path fill="lightblue" stroke="black" d="M472.57,-133C472.57,-133 744.28,-133 744.28,-133 750.28,-133 756.28,-139 756.28,-145 756.28,-145 756.28,-213 756.28,-213 756.28,-219 750.28,-225 744.28,-225 744.28,-225 472.57,-225 472.57,-225 466.57,-225 460.57,-219 460.57,-213 460.57,-213 460.57,-145 460.57,-145 460.57,-139 466.57,-133 472.57,-133"/>
<text text-anchor="middle" x="608.42" y="-209.8" font-family="Arial" font-size="14.00">Blood</text>
<text text-anchor="middle" x="608.42" y="-194.8" font-family="Arial" font-size="14.00">[PBPKO:00464]</text>
</a>
</g>
</g>
<g id="clust4" class="cluster">
<title>cluster_Rest</title>
<g id="a_clust4"><a xlink:href="#compartment-Rest" xlink:title="Rest&#10;[PBPKO:00450]">
<path fill="lightblue" stroke="black" d="M496.12,-8C496.12,-8 812.32,-8 812.32,-8 818.32,-8 824.32,-14 824.32,-20 824.32,-20 824.32,-88 824.32,-88 824.32,-94 818.32,-100 812.32,-100 812.32,-100 496.12,-100 496.12,-100 490.12,-100 484.12,-94 484.12,-88 484.12,-88 484.12,-20 484.12,-20 484.12,-14 490.12,-8 496.12,-8"/>
<text text-anchor="middle" x="654.22" y="-84.8" font-family="Arial" font-size="14.00">Rest</text>
<text text-anchor="middle" x="654.22" y="-69.8" font-family="Arial" font-size="14.00">[PBPKO:00450]</text>
</a>
</g>
</g>
<!-- AGut -->
<g id="node1" class="node">
<title>AGut</title>
<g id="a_node1"><a xlink:href="#species-AGut" xlink:title="AGut&#10;[PBPKO:00496]">
<path fill="gold" stroke="black" d="M314.25,-429C314.25,-429 225.25,-429 225.25,-429 219.25,-429 213.25,-423 213.25,-417 213.25,-417 213.25,-403 213.25,-403 213.25,-397 219.25,-391 225.25,-391 225.25,-391 314.25,-391 314.25,-391 320.25,-391 326.25,-397 326.25,-403 326.25,-403 326.25,-417 326.25,-417 326.25,-423 320.25,-429 314.25,-429"/>
<text text-anchor="middle" x="269.75" y="-413.8" font-family="Arial" font-size="14.00">AGut</text>
<text text-anchor="middle" x="269.75" y="-398.8" font-family="Arial" font-size="14.00">[PBPKO:00496]</text>
</a>
</g>
</g>
<!-- ALiver -->
<g id="node2" class="node">
<title>ALiver</title>
<g id="a_node2"><a xlink:href="#species-ALiver" xlink:title="ALiver&#10;[PBPKO:00497]">
<path fill="gold" stroke="black" d="M314.25,-304C314.25,-304 225.25,-304 225.25,-304 219.25,-304 213.25,-298 213.25,-292 213.25,-292 213.25,-278 213.25,-278 213.25,-272 219.25,-266 225.25,-266 225.25,-266 314.25,-266 314.25,-266 320.25,-266 326.25,-272 326.25,-278 326.25,-278 326.25,-292 326.25,-292 326.25,-298 320.25,-304 314.25,-304"/>
<text text-anchor="middle" x="269.75" y="-288.8" font-family="Arial" font-size="14.00">ALiver</text>
<text text-anchor="middle" x="269.75" y="-273.8" font-family="Arial" font-size="14.00">[PBPKO:00497]</text>
</a>
</g>
</g>
<!-- AGut&#45;&gt;ALiver -->
<g id="edge1" class="edge">
<title>AGut&#45;&gt;ALiver</title>
<path fill="none" stroke="black" d="M269.75,-390.85C269.75,-370.68 269.75,-337.86 269.75,-314.31"/>
<polygon fill="black" stroke="black" points="273.25,-314.22 269.75,-304.22 266.25,-314.22 273.25,-314.22"/>
<text text-anchor="middle" x="280.75" y="-362.3" font-family="Times,serif" font-size="14.00">_J0</text>
</g>
<!-- ALiverMet1 -->
<g id="node3" class="node">
<title>ALiverMet1</title>
<g id="a_node3"><a xlink:href="#species-ALiverMet1" xlink:title="ALiverMet1&#10;[&#45;]">
<path fill="gold" stroke="black" d="M185.75,-179C185.75,-179 123.75,-179 123.75,-179 117.75,-179 111.75,-173 111.75,-167 111.75,-167 111.75,-153 111.75,-153 111.75,-147 117.75,-141 123.75,-141 123.75,-141 185.75,-141 185.75,-141 191.75,-141 197.75,-147 197.75,-153 197.75,-153 197.75,-167 197.75,-167 197.75,-173 191.75,-179 185.75,-179"/>
<text text-anchor="middle" x="154.75" y="-163.8" font-family="Arial" font-size="14.00">ALiverMet1</text>
<text text-anchor="middle" x="154.75" y="-148.8" font-family="Arial" font-size="14.00">[&#45;]</text>
</a>
</g>
</g>
<!-- ALiver&#45;&gt;ALiverMet1 -->
<g id="edge2" class="edge">
<title>ALiver&#45;&gt;ALiverMet1</title>
<path fill="none" stroke="black" d="M252.78,-265.85C233.24,-244.96 201.01,-210.48 178.87,-186.8"/>
<polygon fill="black" stroke="black" points="181.17,-184.14 171.78,-179.22 176.06,-188.92 181.17,-184.14"/>
<text text-anchor="middle" x="247.75" y="-237.3" font-family="Times,serif" font-size="14.00">_J5</text>
</g>
<!-- ALiverMet2 -->
<g id="node4" class="node">
<title>ALiverMet2</title>
<g id="a_node4"><a xlink:href="#species-ALiverMet2" xlink:title="ALiverMet2&#10;[&#45;]">
<path fill="gold" stroke="black" d="M336.75,-54C336.75,-54 274.75,-54 274.75,-54 268.75,-54 262.75,-48 262.75,-42 262.75,-42 262.75,-28 262.75,-28 262.75,-22 268.75,-16 274.75,-16 274.75,-16 336.75,-16 336.75,-16 342.75,-16 348.75,-22 348.75,-28 348.75,-28 348.75,-42 348.75,-42 348.75,-48 342.75,-54 336.75,-54"/>
<text text-anchor="middle" x="305.75" y="-38.8" font-family="Arial" font-size="14.00">ALiverMet2</text>
<text text-anchor="middle" x="305.75" y="-23.8" font-family="Arial" font-size="14.00">[&#45;]</text>
</a>
</g>
</g>
<!-- ALiver&#45;&gt;ALiverMet2 -->
<g id="edge3" class="edge">
<title>ALiver&#45;&gt;ALiverMet2</title>
<path fill="none" stroke="black" d="M272.39,-265.76C278.61,-222.95 294.17,-115.73 301.63,-64.34"/>
<polygon fill="black" stroke="black" points="305.12,-64.66 303.09,-54.26 298.19,-63.66 305.12,-64.66"/>
<text text-anchor="middle" x="302.75" y="-156.3" font-family="Times,serif" font-size="14.00">_J6</text>
</g>
<!-- ABlood -->
<g id="node5" class="node">
<title>ABlood</title>
<g id="a_node5"><a xlink:href="#species-ABlood" xlink:title="ABlood&#10;[&#45;]">
<path fill="gold" stroke="black" d="M577.75,-179C577.75,-179 541.75,-179 541.75,-179 535.75,-179 529.75,-173 529.75,-167 529.75,-167 529.75,-153 529.75,-153 529.75,-147 535.75,-141 541.75,-141 541.75,-141 577.75,-141 577.75,-141 583.75,-141 589.75,-147 589.75,-153 589.75,-153 589.75,-167 589.75,-167 589.75,-173 583.75,-179 577.75,-179"/>
<text text-anchor="middle" x="559.75" y="-163.8" font-family="Arial" font-size="14.00">ABlood</text>
<text text-anchor="middle" x="559.75" y="-148.8" font-family="Arial" font-size="14.00">[&#45;]</text>
</a>
</g>
</g>
<!-- ALiver&#45;&gt;ABlood -->
<g id="edge4" class="edge">
<title>ALiver&#45;&gt;ABlood</title>
<path fill="none" stroke="black" d="M326.34,-267.6C360.85,-256.92 405.52,-241.87 443.75,-225 470.56,-213.17 499.43,-197.25 521.66,-184.26"/>
<polygon fill="black" stroke="black" points="523.61,-187.17 530.44,-179.07 520.05,-181.14 523.61,-187.17"/>
<text text-anchor="middle" x="430.75" y="-237.3" font-family="Times,serif" font-size="14.00">_J2</text>
</g>
<!-- ABlood&#45;&gt;ALiver -->
<g id="edge5" class="edge">
<title>ABlood&#45;&gt;ALiver</title>
<path fill="none" stroke="black" d="M541.74,-179.12C520.63,-199.27 483.67,-231.25 445.75,-248.5 411.55,-264.05 370.53,-272.83 336.71,-277.76"/>
<polygon fill="black" stroke="black" points="335.89,-274.34 326.46,-279.18 336.84,-281.28 335.89,-274.34"/>
<text text-anchor="middle" x="483.75" y="-237.3" font-family="Times,serif" font-size="14.00">_J1</text>
</g>
<!-- ARest -->
<g id="node6" class="node">
<title>ARest</title>
<g id="a_node6"><a xlink:href="#species-ARest" xlink:title="ARest&#10;[PBPKO:00501]">
<path fill="gold" stroke="black" d="M698.25,-54C698.25,-54 609.25,-54 609.25,-54 603.25,-54 597.25,-48 597.25,-42 597.25,-42 597.25,-28 597.25,-28 597.25,-22 603.25,-16 609.25,-16 609.25,-16 698.25,-16 698.25,-16 704.25,-16 710.25,-22 710.25,-28 710.25,-28 710.25,-42 710.25,-42 710.25,-48 704.25,-54 698.25,-54"/>
<text text-anchor="middle" x="653.75" y="-38.8" font-family="Arial" font-size="14.00">ARest</text>
<text text-anchor="middle" x="653.75" y="-23.8" font-family="Arial" font-size="14.00">[PBPKO:00501]</text>
</a>
</g>
</g>
<!-- ABlood&#45;&gt;ARest -->
<g id="edge6" class="edge">
<title>ABlood&#45;&gt;ARest</title>
<path fill="none" stroke="black" d="M573.62,-140.85C589.44,-120.14 615.47,-86.08 633.55,-62.42"/>
<polygon fill="black" stroke="black" points="636.53,-64.29 639.82,-54.22 630.97,-60.04 636.53,-64.29"/>
<text text-anchor="middle" x="608.75" y="-112.3" font-family="Times,serif" font-size="14.00">_J3</text>
</g>
<!-- ARest&#45;&gt;ABlood -->
<g id="edge7" class="edge">
<title>ARest&#45;&gt;ABlood</title>
<path fill="none" stroke="black" d="M651.4,-54.31C648.12,-73.45 640.56,-103.43 623.75,-123.5 617.08,-131.46 608.14,-137.96 599.06,-143.12"/>
<polygon fill="black" stroke="black" points="597.27,-140.1 590.02,-147.83 600.51,-146.31 597.27,-140.1"/>
<text text-anchor="middle" x="643.75" y="-112.3" font-family="Times,serif" font-size="14.00">_J4</text>
</g>
</g>
</svg>
