<?xml version="1.0" encoding="UTF-8" standalone="no"?>
<!DOCTYPE svg PUBLIC "-//W3C//DTD SVG 1.1//EN"
 "http://www.w3.org/Graphics/SVG/1.1/DTD/svg11.dtd">
<!-- Generated by graphviz version 2.43.0 (0)
 -->
<!-- Title: %3 Pages: 1 -->
<svg width="498pt" height="288pt"
 viewBox="0.00 0.00 498.16 288.00" xmlns="http://www.w3.org/2000/svg" xmlns:xlink="http://www.w3.org/1999/xlink">
<g id="graph0" class="graph" transform="scale(0.97 0.97) rotate(0) translate(4 292)">
<title>%3</title>
<polygon fill="white" stroke="transparent" points="-4,4 -4,-292 508,-292 508,4 -4,4"/>
<g id="clust1" class="cluster">
<title>cluster_GI</title>
<g id="a_clust1"><a xlink:href="#compartment-GI" xlink:title="GI&#10;[&#45;]">
<path fill="lightblue" stroke="black" d="M25.62,-164.39C25.62,-164.39 120.81,-164.39 120.81,-164.39 126.81,-164.39 132.81,-170.39 132.81,-176.39 132.81,-176.39 132.81,-266.11 132.81,-266.11 132.81,-272.11 126.81,-278.11 120.81,-278.11 120.81,-278.11 25.62,-278.11 25.62,-278.11 19.62,-278.11 13.62,-272.11 13.62,-266.11 13.62,-266.11 13.62,-176.39 13.62,-176.39 13.62,-170.39 19.62,-164.39 25.62,-164.39"/>
<text text-anchor="middle" x="73.22" y="-262.91" font-family="Arial" font-size="14.00">GI</text>
<text text-anchor="middle" x="73.22" y="-247.91" font-family="Arial" font-size="14.00">[&#45;]</text>
</a>
</g>
</g>
<g id="clust2" class="cluster">
<title>cluster_Liver</title>
<g id="a_clust2"><a xlink:href="#compartment-Liver" xlink:title="Liver&#10;[&#45;]">
<path fill="lightblue" stroke="black" d="M46.05,-9.89C46.05,-9.89 243.41,-9.89 243.41,-9.89 249.41,-9.89 255.41,-15.89 255.41,-21.89 255.41,-21.89 255.41,-111.61 255.41,-111.61 255.41,-117.61 249.41,-123.61 243.41,-123.61 243.41,-123.61 46.05,-123.61 46.05,-123.61 40.05,-123.61 34.05,-117.61 34.05,-111.61 34.05,-111.61 34.05,-21.89 34.05,-21.89 34.05,-15.89 40.05,-9.89 46.05,-9.89"/>
<text text-anchor="middle" x="144.73" y="-108.41" font-family="Arial" font-size="14.00">Liver</text>
<text text-anchor="middle" x="144.73" y="-93.41" font-family="Arial" font-size="14.00">[&#45;]</text>
</a>
</g>
</g>
<g id="clust3" class="cluster">
<title>cluster_Plasma</title>
<g id="a_clust3"><a xlink:href="#compartment-Plasma" xlink:title="Plasma&#10;[PBPKO:00488]">
<path fill="lightblue" stroke="black" d="M183.97,-164.39C183.97,-164.39 381.32,-164.39 381.32,-164.39 387.32,-164.39 393.32,-170.39 393.32,-176.39 393.32,-176.39 393.32,-266.11 393.32,-266.11 393.32,-272.11 387.32,-278.11 381.32,-278.11 381.32,-278.11 183.97,-278.11 183.97,-278.11 177.97,-278.11 171.97,-272.11 171.97,-266.11 171.97,-266.11 171.97,-176.39 171.97,-176.39 171.97,-170.39 177.97,-164.39 183.97,-164.39"/>
<text text-anchor="middle" x="282.65" y="-262.91" font-family="Arial" font-size="14.00">Plasma</text>
<text text-anchor="middle" x="282.65" y="-247.91" font-family="Arial" font-size="14.00">[PBPKO:00488]</text>
</a>
</g>
</g>
<g id="clust4" class="cluster">
<title>cluster_Rest</title>
<g id="a_clust4"><a xlink:href="#compartment-Rest" xlink:title="Rest&#10;[PBPKO:00450]">
<path fill="lightblue" stroke="black" d="M281.03,-9.89C281.03,-9.89 478.38,-9.89 478.38,-9.89 484.38,-9.89 490.38,-15.89 490.38,-21.89 490.38,-21.89 490.38,-111.61 490.38,-111.61 490.38,-117.61 484.38,-123.61 478.38,-123.61 478.38,-123.61 281.03,-123.61 281.03,-123.61 275.03,-123.61 269.03,-117.61 269.03,-111.61 269.03,-111.61 269.03,-21.89 269.03,-21.89 269.03,-15.89 275.03,-9.89 281.03,-9.89"/>
<text text-anchor="middle" x="379.7" y="-108.41" font-family="Arial" font-size="14.00">Rest</text>
<text text-anchor="middle" x="379.7" y="-93.41" font-family="Arial" font-size="14.00">[PBPKO:00450]</text>
</a>
</g>
</g>
<!-- AGI -->
<g id="node1" class="node">
<title>AGI</title>
<g id="a_node1"><a xlink:href="#species-AGI" xlink:title="AGI&#10;[&#45;]">
<path fill="gold" stroke="black" d="M88,-216.89C88,-216.89 58,-216.89 58,-216.89 52,-216.89 46,-210.89 46,-204.89 46,-204.89 46,-190.89 46,-190.89 46,-184.89 52,-178.89 58,-178.89 58,-178.89 88,-178.89 88,-178.89 94,-178.89 100,-184.89 100,-190.89 100,-190.89 100,-204.89 100,-204.89 100,-210.89 94,-216.89 88,-216.89"/>
<text text-anchor="middle" x="73" y="-201.69" font-family="Arial" font-size="14.00">AGI</text>
<text text-anchor="middle" x="73" y="-186.69" font-family="Arial" font-size="14.00">[&#45;]</text>
</a>
</g>
</g>
<!-- ALiver -->
<g id="node2" class="node">
<title>ALiver</title>
<g id="a_node2"><a xlink:href="#species-ALiver" xlink:title="ALiver&#10;[PBPKO:00497]">
<path fill="gold" stroke="black" d="M189.5,-61.89C189.5,-61.89 100.5,-61.89 100.5,-61.89 94.5,-61.89 88.5,-55.89 88.5,-49.89 88.5,-49.89 88.5,-35.89 88.5,-35.89 88.5,-29.89 94.5,-23.89 100.5,-23.89 100.5,-23.89 189.5,-23.89 189.5,-23.89 195.5,-23.89 201.5,-29.89 201.5,-35.89 201.5,-35.89 201.5,-49.89 201.5,-49.89 201.5,-55.89 195.5,-61.89 189.5,-61.89"/>
<text text-anchor="middle" x="145" y="-46.69" font-family="Arial" font-size="14.00">ALiver</text>
<text text-anchor="middle" x="145" y="-31.69" font-family="Arial" font-size="14.00">[PBPKO:00497]</text>
</a>
</g>
</g>
<!-- AGI&#45;&gt;ALiver -->
<g id="edge1" class="edge">
<title>AGI&#45;&gt;ALiver</title>
<path fill="none" stroke="black" d="M81.54,-178.74C94.05,-152.17 117.43,-102.47 132.05,-71.4"/>
<polygon fill="black" stroke="black" points="135.38,-72.56 136.47,-62.02 129.04,-69.57 135.38,-72.56"/>
<text text-anchor="middle" x="112" y="-139.19" font-family="Times,serif" font-size="14.00">_J0</text>
</g>
<!-- APlasma -->
<g id="node3" class="node">
<title>APlasma</title>
<g id="a_node3"><a xlink:href="#species-APlasma" xlink:title="APlasma&#10;[PBPKO:00502]">
<path fill="gold" stroke="black" d="M327.5,-216.89C327.5,-216.89 238.5,-216.89 238.5,-216.89 232.5,-216.89 226.5,-210.89 226.5,-204.89 226.5,-204.89 226.5,-190.89 226.5,-190.89 226.5,-184.89 232.5,-178.89 238.5,-178.89 238.5,-178.89 327.5,-178.89 327.5,-178.89 333.5,-178.89 339.5,-184.89 339.5,-190.89 339.5,-190.89 339.5,-204.89 339.5,-204.89 339.5,-210.89 333.5,-216.89 327.5,-216.89"/>
<text text-anchor="middle" x="283" y="-201.69" font-family="Arial" font-size="14.00">APlasma</text>
<text text-anchor="middle" x="283" y="-186.69" font-family="Arial" font-size="14.00">[PBPKO:00502]</text>
</a>
</g>
</g>
<!-- ALiver&#45;&gt;APlasma -->
<g id="edge2" class="edge">
<title>ALiver&#45;&gt;APlasma</title>
<path fill="none" stroke="black" d="M146.91,-61.91C150.25,-85.03 159.11,-125.17 182,-150.39 191.7,-161.07 204.34,-169.49 217.39,-176.04"/>
<polygon fill="black" stroke="black" points="215.91,-179.21 226.45,-180.28 218.88,-172.87 215.91,-179.21"/>
<text text-anchor="middle" x="193" y="-139.19" font-family="Times,serif" font-size="14.00">_J3</text>
</g>
<!-- APlasma&#45;&gt;AGI -->
<g id="edge3" class="edge">
<title>APlasma&#45;&gt;AGI</title>
<path fill="none" stroke="black" d="M226.47,-197.89C189.63,-197.89 142.58,-197.89 110.35,-197.89"/>
<polygon fill="black" stroke="black" points="110.02,-194.39 100.02,-197.89 110.02,-201.39 110.02,-194.39"/>
<text text-anchor="middle" x="163.25" y="-204.69" font-family="Times,serif" font-size="14.00">_J1</text>
</g>
<!-- APlasma&#45;&gt;ALiver -->
<g id="edge4" class="edge">
<title>APlasma&#45;&gt;ALiver</title>
<path fill="none" stroke="black" d="M266.63,-178.74C242.25,-151.71 196.28,-100.75 168.37,-69.8"/>
<polygon fill="black" stroke="black" points="170.65,-67.1 161.35,-62.02 165.45,-71.79 170.65,-67.1"/>
<text text-anchor="middle" x="250" y="-139.19" font-family="Times,serif" font-size="14.00">_J2</text>
</g>
<!-- ARest -->
<g id="node4" class="node">
<title>ARest</title>
<g id="a_node4"><a xlink:href="#species-ARest" xlink:title="ARest&#10;[PBPKO:00501]">
<path fill="gold" stroke="black" d="M424.5,-61.89C424.5,-61.89 335.5,-61.89 335.5,-61.89 329.5,-61.89 323.5,-55.89 323.5,-49.89 323.5,-49.89 323.5,-35.89 323.5,-35.89 323.5,-29.89 329.5,-23.89 335.5,-23.89 335.5,-23.89 424.5,-23.89 424.5,-23.89 430.5,-23.89 436.5,-29.89 436.5,-35.89 436.5,-35.89 436.5,-49.89 436.5,-49.89 436.5,-55.89 430.5,-61.89 424.5,-61.89"/>
<text text-anchor="middle" x="380" y="-46.69" font-family="Arial" font-size="14.00">ARest</text>
<text text-anchor="middle" x="380" y="-31.69" font-family="Arial" font-size="14.00">[PBPKO:00501]</text>
</a>
</g>
</g>
<!-- APlasma&#45;&gt;ARest -->
<g id="edge5" class="edge">
<title>APlasma&#45;&gt;ARest</title>
<path fill="none" stroke="black" d="M294.51,-178.74C311.5,-151.94 343.4,-101.61 363.07,-70.6"/>
<polygon fill="black" stroke="black" points="366.11,-72.34 368.51,-62.02 360.2,-68.59 366.11,-72.34"/>
<text text-anchor="middle" x="331" y="-139.19" font-family="Times,serif" font-size="14.00">_J4</text>
</g>
<!-- ARest&#45;&gt;APlasma -->
<g id="edge6" class="edge">
<title>ARest&#45;&gt;APlasma</title>
<path fill="none" stroke="black" d="M377.7,-62C374.11,-84.51 365.45,-123.26 346,-150.39 339.94,-158.84 331.88,-166.39 323.55,-172.83"/>
<polygon fill="black" stroke="black" points="321.24,-170.18 315.19,-178.89 325.35,-175.85 321.24,-170.18"/>
<text text-anchor="middle" x="365" y="-139.19" font-family="Times,serif" font-size="14.00">_J5</text>
</g>
</g>
</svg>
