<?xml version="1.0" encoding="UTF-8" standalone="no"?>
<!DOCTYPE svg PUBLIC "-//W3C//DTD SVG 1.1//EN"
 "http://www.w3.org/Graphics/SVG/1.1/DTD/svg11.dtd">
<!-- Generated by graphviz version 2.43.0 (0)
 -->
<!-- Title: %3 Pages: 1 -->
<svg width="498pt" height="288pt"
 viewBox="0.00 0.00 498.16 288.00" xmlns="http://www.w3.org/2000/svg" xmlns:xlink="http://www.w3.org/1999/xlink">
<g id="graph0" class="graph" transform="scale(0.97 0.97) rotate(0) translate(4 292)">
<title>%3</title>
<polygon fill="white" stroke="transparent" points="-4,4 -4,-292 508,-292 508,4 -4,4"/>
<g id="clust1" class="cluster">
<title>cluster_GI</title>
<g id="a_clust1"><a xlink:href="#compartment-GI" xlink:title="GI&#10;[PBPKO:00477]">
<path fill="lightblue" stroke="black" d="M23.72,-164.39C23.72,-164.39 190.19,-164.39 190.19,-164.39 196.19,-164.39 202.19,-170.39 202.19,-176.39 202.19,-176.39 202.19,-266.11 202.19,-266.11 202.19,-272.11 196.19,-278.11 190.19,-278.11 190.19,-278.11 23.72,-278.11 23.72,-278.11 17.72,-278.11 11.72,-272.11 11.72,-266.11 11.72,-266.11 11.72,-176.39 11.72,-176.39 11.72,-170.39 17.72,-164.39 23.72,-164.39"/>
<text text-anchor="middle" x="106.95" y="-262.91" font-family="Arial" font-size="14.00">GI</text>
<text text-anchor="middle" x="106.95" y="-247.91" font-family="Arial" font-size="14.00">[PBPKO:00477]</text>
</a>
</g>
</g>
<g id="clust2" class="cluster">
<title>cluster_Liver</title>
<g id="a_clust2"><a xlink:href="#compartment-Liver" xlink:title="Liver&#10;[PBPKO:00558]">
<path fill="lightblue" stroke="black" d="M111.63,-9.89C111.63,-9.89 278.09,-9.89 278.09,-9.89 284.09,-9.89 290.09,-15.89 290.09,-21.89 290.09,-21.89 290.09,-111.61 290.09,-111.61 290.09,-117.61 284.09,-123.61 278.09,-123.61 278.09,-123.61 111.63,-123.61 111.63,-123.61 105.63,-123.61 99.63,-117.61 99.63,-111.61 99.63,-111.61 99.63,-21.89 99.63,-21.89 99.63,-15.89 105.63,-9.89 111.63,-9.89"/>
<text text-anchor="middle" x="194.86" y="-108.41" font-family="Arial" font-size="14.00">Liver</text>
<text text-anchor="middle" x="194.86" y="-93.41" font-family="Arial" font-size="14.00">[PBPKO:00558]</text>
</a>
</g>
</g>
<g id="clust3" class="cluster">
<title>cluster_Plasma</title>
<g id="a_clust3"><a xlink:href="#compartment-Plasma" xlink:title="Plasma&#10;[PBPKO:00488]">
<path fill="lightblue" stroke="black" d="M247.88,-164.39C247.88,-164.39 414.35,-164.39 414.35,-164.39 420.35,-164.39 426.35,-170.39 426.35,-176.39 426.35,-176.39 426.35,-266.11 426.35,-266.11 426.35,-272.11 420.35,-278.11 414.35,-278.11 414.35,-278.11 247.88,-278.11 247.88,-278.11 241.88,-278.11 235.88,-272.11 235.88,-266.11 235.88,-266.11 235.88,-176.39 235.88,-176.39 235.88,-170.39 241.88,-164.39 247.88,-164.39"/>
<text text-anchor="middle" x="331.12" y="-262.91" font-family="Arial" font-size="14.00">Plasma</text>
<text text-anchor="middle" x="331.12" y="-247.91" font-family="Arial" font-size="14.00">[PBPKO:00488]</text>
</a>
</g>
</g>
<g id="clust4" class="cluster">
<title>cluster_Rest</title>
<g id="a_clust4"><a xlink:href="#compartment-Rest" xlink:title="Rest&#10;[PBPKO:00450]">
<path fill="lightblue" stroke="black" d="M313.81,-9.89C313.81,-9.89 480.28,-9.89 480.28,-9.89 486.28,-9.89 492.28,-15.89 492.28,-21.89 492.28,-21.89 492.28,-111.61 492.28,-111.61 492.28,-117.61 486.28,-123.61 480.28,-123.61 480.28,-123.61 313.81,-123.61 313.81,-123.61 307.81,-123.61 301.81,-117.61 301.81,-111.61 301.81,-111.61 301.81,-21.89 301.81,-21.89 301.81,-15.89 307.81,-9.89 313.81,-9.89"/>
<text text-anchor="middle" x="397.05" y="-108.41" font-family="Arial" font-size="14.00">Rest</text>
<text text-anchor="middle" x="397.05" y="-93.41" font-family="Arial" font-size="14.00">[PBPKO:00450]</text>
</a>
</g>
</g>
<!-- AGI -->
<g id="node1" class="node">
<title>AGI</title>
<g id="a_node1"><a xlink:href="#species-AGI" xlink:title="AGI&#10;[PBPKO:00496]">
<path fill="gold" stroke="black" d="M151.1,-216.89C151.1,-216.89 62.1,-216.89 62.1,-216.89 56.1,-216.89 50.1,-210.89 50.1,-204.89 50.1,-204.89 50.1,-190.89 50.1,-190.89 50.1,-184.89 56.1,-178.89 62.1,-178.89 62.1,-178.89 151.1,-178.89 151.1,-178.89 157.1,-178.89 163.1,-184.89 163.1,-190.89 163.1,-190.89 163.1,-204.89 163.1,-204.89 163.1,-210.89 157.1,-216.89 151.1,-216.89"/>
<text text-anchor="middle" x="106.6" y="-201.69" font-family="Arial" font-size="14.00">AGI</text>
<text text-anchor="middle" x="106.6" y="-186.69" font-family="Arial" font-size="14.00">[PBPKO:00496]</text>
</a>
</g>
</g>
<!-- ALiver -->
<g id="node2" class="node">
<title>ALiver</title>
<g id="a_node2"><a xlink:href="#species-ALiver" xlink:title="ALiver&#10;[PBPKO:00497]">
<path fill="gold" stroke="black" d="M239.1,-61.89C239.1,-61.89 150.1,-61.89 150.1,-61.89 144.1,-61.89 138.1,-55.89 138.1,-49.89 138.1,-49.89 138.1,-35.89 138.1,-35.89 138.1,-29.89 144.1,-23.89 150.1,-23.89 150.1,-23.89 239.1,-23.89 239.1,-23.89 245.1,-23.89 251.1,-29.89 251.1,-35.89 251.1,-35.89 251.1,-49.89 251.1,-49.89 251.1,-55.89 245.1,-61.89 239.1,-61.89"/>
<text text-anchor="middle" x="194.6" y="-46.69" font-family="Arial" font-size="14.00">ALiver</text>
<text text-anchor="middle" x="194.6" y="-31.69" font-family="Arial" font-size="14.00">[PBPKO:00497]</text>
</a>
</g>
</g>
<!-- AGI&#45;&gt;ALiver -->
<g id="edge1" class="edge">
<title>AGI&#45;&gt;ALiver</title>
<path fill="none" stroke="black" d="M117.04,-178.74C132.39,-152.05 161.16,-102.04 179.01,-71"/>
<polygon fill="black" stroke="black" points="182.23,-72.43 184.18,-62.02 176.16,-68.94 182.23,-72.43"/>
<text text-anchor="middle" x="151.6" y="-139.19" font-family="Times,serif" font-size="14.00">_J0</text>
</g>
<!-- APlasma -->
<g id="node3" class="node">
<title>APlasma</title>
<g id="a_node3"><a xlink:href="#species-APlasma" xlink:title="APlasma&#10;[PBPKO:00502]">
<path fill="gold" stroke="black" d="M376.1,-216.89C376.1,-216.89 287.1,-216.89 287.1,-216.89 281.1,-216.89 275.1,-210.89 275.1,-204.89 275.1,-204.89 275.1,-190.89 275.1,-190.89 275.1,-184.89 281.1,-178.89 287.1,-178.89 287.1,-178.89 376.1,-178.89 376.1,-178.89 382.1,-178.89 388.1,-184.89 388.1,-190.89 388.1,-190.89 388.1,-204.89 388.1,-204.89 388.1,-210.89 382.1,-216.89 376.1,-216.89"/>
<text text-anchor="middle" x="331.6" y="-201.69" font-family="Arial" font-size="14.00">APlasma</text>
<text text-anchor="middle" x="331.6" y="-186.69" font-family="Arial" font-size="14.00">[PBPKO:00502]</text>
</a>
</g>
</g>
<!-- ALiver&#45;&gt;APlasma -->
<g id="edge2" class="edge">
<title>ALiver&#45;&gt;APlasma</title>
<path fill="none" stroke="black" d="M194.07,-61.92C194.35,-85.05 198.22,-125.2 219.6,-150.39 231.56,-164.47 248.48,-174.36 265.56,-181.28"/>
<polygon fill="black" stroke="black" points="264.43,-184.6 275.03,-184.83 266.89,-178.05 264.43,-184.6"/>
<text text-anchor="middle" x="230.6" y="-139.19" font-family="Times,serif" font-size="14.00">_J3</text>
</g>
<!-- APlasma&#45;&gt;AGI -->
<g id="edge3" class="edge">
<title>APlasma&#45;&gt;AGI</title>
<path fill="none" stroke="black" d="M274.85,-197.89C244.07,-197.89 205.85,-197.89 173.62,-197.89"/>
<polygon fill="black" stroke="black" points="173.38,-194.39 163.38,-197.89 173.38,-201.39 173.38,-194.39"/>
<text text-anchor="middle" x="219.1" y="-204.69" font-family="Times,serif" font-size="14.00">_J1</text>
</g>
<!-- APlasma&#45;&gt;ALiver -->
<g id="edge4" class="edge">
<title>APlasma&#45;&gt;ALiver</title>
<path fill="none" stroke="black" d="M315.35,-178.74C291.15,-151.71 245.52,-100.75 217.81,-69.8"/>
<polygon fill="black" stroke="black" points="220.12,-67.13 210.84,-62.02 214.9,-71.8 220.12,-67.13"/>
<text text-anchor="middle" x="298.6" y="-139.19" font-family="Times,serif" font-size="14.00">_J2</text>
</g>
<!-- ARest -->
<g id="node4" class="node">
<title>ARest</title>
<g id="a_node4"><a xlink:href="#species-ARest" xlink:title="ARest&#10;[PBPKO:00501]">
<path fill="gold" stroke="black" d="M441.1,-61.89C441.1,-61.89 352.1,-61.89 352.1,-61.89 346.1,-61.89 340.1,-55.89 340.1,-49.89 340.1,-49.89 340.1,-35.89 340.1,-35.89 340.1,-29.89 346.1,-23.89 352.1,-23.89 352.1,-23.89 441.1,-23.89 441.1,-23.89 447.1,-23.89 453.1,-29.89 453.1,-35.89 453.1,-35.89 453.1,-49.89 453.1,-49.89 453.1,-55.89 447.1,-61.89 441.1,-61.89"/>
<text text-anchor="middle" x="396.6" y="-46.69" font-family="Arial" font-size="14.00">ARest</text>
<text text-anchor="middle" x="396.6" y="-31.69" font-family="Arial" font-size="14.00">[PBPKO:00501]</text>
</a>
</g>
</g>
<!-- APlasma&#45;&gt;ARest -->
<g id="edge5" class="edge">
<title>APlasma&#45;&gt;ARest</title>
<path fill="none" stroke="black" d="M337.2,-178.65C341.15,-166.3 346.75,-149.69 352.6,-135.39 361.57,-113.5 373.22,-89.43 382.28,-71.47"/>
<polygon fill="black" stroke="black" points="385.6,-72.67 387.01,-62.17 379.36,-69.49 385.6,-72.67"/>
<text text-anchor="middle" x="363.6" y="-139.19" font-family="Times,serif" font-size="14.00">_J4</text>
</g>
<!-- ARest&#45;&gt;APlasma -->
<g id="edge6" class="edge">
<title>ARest&#45;&gt;APlasma</title>
<path fill="none" stroke="black" d="M395.79,-62.21C394.17,-84.25 389.28,-121.85 374.6,-150.39 370.79,-157.81 365.45,-164.93 359.83,-171.26"/>
<polygon fill="black" stroke="black" points="357,-169.16 352.66,-178.82 362.08,-173.97 357,-169.16"/>
<text text-anchor="middle" x="390.6" y="-139.19" font-family="Times,serif" font-size="14.00">_J5</text>
</g>
</g>
</svg>
