<?xml version="1.0" encoding="UTF-8" standalone="no"?>
<!DOCTYPE svg PUBLIC "-//W3C//DTD SVG 1.1//EN"
 "http://www.w3.org/Graphics/SVG/1.1/DTD/svg11.dtd">
<!-- Generated by graphviz version 2.43.0 (0)
 -->
<!-- Title: %3 Pages: 1 -->
<svg width="499pt" height="288pt"
 viewBox="0.00 0.00 499.28 288.00" xmlns="http://www.w3.org/2000/svg" xmlns:xlink="http://www.w3.org/1999/xlink">
<g id="graph0" class="graph" transform="scale(0.79 0.79) rotate(0) translate(4 362)">
<title>%3</title>
<polygon fill="white" stroke="transparent" points="-4,4 -4,-362 630.5,-362 630.5,4 -4,4"/>
<g id="clust1" class="cluster">
<title>cluster_Liver</title>
<g id="a_clust1"><a xlink:href="#compartment-Liver" xlink:title="Liver&#10;[PBPKO:00558]">
<path fill="lightblue" stroke="black" d="M46.33,-258C46.33,-258 580.17,-258 580.17,-258 586.17,-258 592.17,-264 592.17,-270 592.17,-270 592.17,-338 592.17,-338 592.17,-344 586.17,-350 580.17,-350 580.17,-350 46.33,-350 46.33,-350 40.33,-350 34.33,-344 34.33,-338 34.33,-338 34.33,-270 34.33,-270 34.33,-264 40.33,-258 46.33,-258"/>
<text text-anchor="middle" x="313.25" y="-334.8" font-family="Arial" font-size="14.00">Liver</text>
<text text-anchor="middle" x="313.25" y="-319.8" font-family="Arial" font-size="14.00">[PBPKO:00558]</text>
</a>
</g>
</g>
<g id="clust2" class="cluster">
<title>cluster_Blood</title>
<g id="a_clust2"><a xlink:href="#compartment-Blood" xlink:title="Blood&#10;[PBPKO:00464]">
<path fill="lightblue" stroke="black" d="M46.33,-133C46.33,-133 580.17,-133 580.17,-133 586.17,-133 592.17,-139 592.17,-145 592.17,-145 592.17,-213 592.17,-213 592.17,-219 586.17,-225 580.17,-225 580.17,-225 46.33,-225 46.33,-225 40.33,-225 34.33,-219 34.33,-213 34.33,-213 34.33,-145 34.33,-145 34.33,-139 40.33,-133 46.33,-133"/>
<text text-anchor="middle" x="313.25" y="-209.8" font-family="Arial" font-size="14.00">Blood</text>
<text text-anchor="middle" x="313.25" y="-194.8" font-family="Arial" font-size="14.00">[PBPKO:00464]</text>
</a>
</g>
</g>
<g id="clust3" class="cluster">
<title>cluster_Rest</title>
<g id="a_clust3"><a xlink:href="#compartment-Rest" xlink:title="Rest&#10;[PBPKO:00450]">
<path fill="lightblue" stroke="black" d="M46.33,-8C46.33,-8 580.17,-8 580.17,-8 586.17,-8 592.17,-14 592.17,-20 592.17,-20 592.17,-88 592.17,-88 592.17,-94 586.17,-100 580.17,-100 580.17,-100 46.33,-100 46.33,-100 40.33,-100 34.33,-94 34.33,-88 34.33,-88 34.33,-20 34.33,-20 34.33,-14 40.33,-8 46.33,-8"/>
<text text-anchor="middle" x="313.25" y="-84.8" font-family="Arial" font-size="14.00">Rest</text>
<text text-anchor="middle" x="313.25" y="-69.8" font-family="Arial" font-size="14.00">[PBPKO:00450]</text>
</a>
</g>
</g>
<!-- ALiver -->
<g id="node1" class="node">
<title>ALiver</title>
<g id="a_node1"><a xlink:href="#species-ALiver" xlink:title="ALiver&#10;[PBPKO:00497]">
<path fill="gold" stroke="black" d="M357.46,-304C357.46,-304 268.46,-304 268.46,-304 262.46,-304 256.46,-298 256.46,-292 256.46,-292 256.46,-278 256.46,-278 256.46,-272 262.46,-266 268.46,-266 268.46,-266 357.46,-266 357.46,-266 363.46,-266 369.46,-272 369.46,-278 369.46,-278 369.46,-292 369.46,-292 369.46,-298 363.46,-304 357.46,-304"/>
<text text-anchor="middle" x="312.96" y="-288.8" font-family="Arial" font-size="14.00">ALiver</text>
<text text-anchor="middle" x="312.96" y="-273.8" font-family="Arial" font-size="14.00">[PBPKO:00497]</text>
</a>
</g>
</g>
<!-- ABlood -->
<g id="node2" class="node">
<title>ABlood</title>
<g id="a_node2"><a xlink:href="#species-ABlood" xlink:title="ABlood&#10;[PBPKO:00623]">
<path fill="gold" stroke="black" d="M357.46,-179C357.46,-179 268.46,-179 268.46,-179 262.46,-179 256.46,-173 256.46,-167 256.46,-167 256.46,-153 256.46,-153 256.46,-147 262.46,-141 268.46,-141 268.46,-141 357.46,-141 357.46,-141 363.46,-141 369.46,-147 369.46,-153 369.46,-153 369.46,-167 369.46,-167 369.46,-173 363.46,-179 357.46,-179"/>
<text text-anchor="middle" x="312.96" y="-163.8" font-family="Arial" font-size="14.00">ABlood</text>
<text text-anchor="middle" x="312.96" y="-148.8" font-family="Arial" font-size="14.00">[PBPKO:00623]</text>
</a>
</g>
</g>
<!-- ALiver&#45;&gt;ABlood -->
<g id="edge1" class="edge">
<title>ALiver&#45;&gt;ABlood</title>
<path fill="none" stroke="black" d="M312.96,-265.85C312.96,-245.68 312.96,-212.86 312.96,-189.31"/>
<polygon fill="black" stroke="black" points="316.46,-189.22 312.96,-179.22 309.46,-189.22 316.46,-189.22"/>
<text text-anchor="middle" x="323.96" y="-237.3" font-family="Times,serif" font-size="14.00">_J0</text>
</g>
<!-- ABlood&#45;&gt;ALiver -->
<g id="edge2" class="edge">
<title>ABlood&#45;&gt;ALiver</title>
<path fill="none" stroke="black" d="M324.89,-179.19C335.01,-196.95 346.74,-224.7 338.96,-248.5 337.99,-251.45 336.68,-254.37 335.15,-257.17"/>
<polygon fill="black" stroke="black" points="332.12,-255.41 329.7,-265.72 338.03,-259.17 332.12,-255.41"/>
<text text-anchor="middle" x="351.96" y="-237.3" font-family="Times,serif" font-size="14.00">_J1</text>
</g>
<!-- ARest -->
<g id="node3" class="node">
<title>ARest</title>
<g id="a_node3"><a xlink:href="#species-ARest" xlink:title="ARest&#10;[PBPKO:00501]">
<path fill="gold" stroke="black" d="M357.46,-54C357.46,-54 268.46,-54 268.46,-54 262.46,-54 256.46,-48 256.46,-42 256.46,-42 256.46,-28 256.46,-28 256.46,-22 262.46,-16 268.46,-16 268.46,-16 357.46,-16 357.46,-16 363.46,-16 369.46,-22 369.46,-28 369.46,-28 369.46,-42 369.46,-42 369.46,-48 363.46,-54 357.46,-54"/>
<text text-anchor="middle" x="312.96" y="-38.8" font-family="Arial" font-size="14.00">ARest</text>
<text text-anchor="middle" x="312.96" y="-23.8" font-family="Arial" font-size="14.00">[PBPKO:00501]</text>
</a>
</g>
</g>
<!-- ABlood&#45;&gt;ARest -->
<g id="edge3" class="edge">
<title>ABlood&#45;&gt;ARest</title>
<path fill="none" stroke="black" d="M312.96,-140.85C312.96,-120.68 312.96,-87.86 312.96,-64.31"/>
<polygon fill="black" stroke="black" points="316.46,-64.22 312.96,-54.22 309.46,-64.22 316.46,-64.22"/>
<text text-anchor="middle" x="323.96" y="-112.3" font-family="Times,serif" font-size="14.00">_J3</text>
</g>
<!-- ARest&#45;&gt;ABlood -->
<g id="edge4" class="edge">
<title>ARest&#45;&gt;ABlood</title>
<path fill="none" stroke="black" d="M324.89,-54.19C335.01,-71.95 346.74,-99.7 338.96,-123.5 337.99,-126.45 336.68,-129.37 335.15,-132.17"/>
<polygon fill="black" stroke="black" points="332.12,-130.41 329.7,-140.72 338.03,-134.17 332.12,-130.41"/>
<text text-anchor="middle" x="351.96" y="-112.3" font-family="Times,serif" font-size="14.00">_J2</text>
</g>
</g>
</svg>
