<?xml version="1.0" encoding="UTF-8" standalone="no"?>
<!DOCTYPE svg PUBLIC "-//W3C//DTD SVG 1.1//EN"
 "http://www.w3.org/Graphics/SVG/1.1/DTD/svg11.dtd">
<!-- Generated by graphviz version 2.43.0 (0)
 -->
<!-- Title: %3 Pages: 1 -->
<svg width="499pt" height="288pt"
 viewBox="0.00 0.00 499.28 288.00" xmlns="http://www.w3.org/2000/svg" xmlns:xlink="http://www.w3.org/1999/xlink">
<g id="graph0" class="graph" transform="scale(0.79 0.79) rotate(0) translate(4 362)">
<title>%3</title>
<polygon fill="white" stroke="transparent" points="-4,4 -4,-362 630.5,-362 630.5,4 -4,4"/>
<g id="clust1" class="cluster">
<title>cluster_Air</title>
<g id="a_clust1"><a xlink:href="#compartment-Air" xlink:title="Air&#10;[PBPKO:00458]">
<path fill="lightblue" stroke="black" d="M29.28,-133C29.28,-133 249.4,-133 249.4,-133 255.4,-133 261.4,-139 261.4,-145 261.4,-145 261.4,-213 261.4,-213 261.4,-219 255.4,-225 249.4,-225 249.4,-225 29.28,-225 29.28,-225 23.28,-225 17.28,-219 17.28,-213 17.28,-213 17.28,-145 17.28,-145 17.28,-139 23.28,-133 29.28,-133"/>
<text text-anchor="middle" x="139.34" y="-209.8" font-family="Arial" font-size="14.00">Air</text>
<text text-anchor="middle" x="139.34" y="-194.8" font-family="Arial" font-size="14.00">[PBPKO:00458]</text>
</a>
</g>
</g>
<g id="clust2" class="cluster">
<title>cluster_Arterial</title>
<g id="a_clust2"><a xlink:href="#compartment-Arterial" xlink:title="Arterial&#10;[&#45;]">
<path fill="lightblue" stroke="black" d="M387.9,-8C387.9,-8 515.12,-8 515.12,-8 521.12,-8 527.12,-14 527.12,-20 527.12,-20 527.12,-88 527.12,-88 527.12,-94 521.12,-100 515.12,-100 515.12,-100 387.9,-100 387.9,-100 381.9,-100 375.9,-94 375.9,-88 375.9,-88 375.9,-20 375.9,-20 375.9,-14 381.9,-8 387.9,-8"/>
<text text-anchor="middle" x="451.51" y="-84.8" font-family="Arial" font-size="14.00">Arterial</text>
<text text-anchor="middle" x="451.51" y="-69.8" font-family="Arial" font-size="14.00">[&#45;]</text>
</a>
</g>
</g>
<g id="clust3" class="cluster">
<title>cluster_Venous</title>
<g id="a_clust3"><a xlink:href="#compartment-Venous" xlink:title="Venous&#10;[&#45;]">
<path fill="lightblue" stroke="black" d="M323.09,-133C323.09,-133 450.31,-133 450.31,-133 456.31,-133 462.31,-139 462.31,-145 462.31,-145 462.31,-213 462.31,-213 462.31,-219 456.31,-225 450.31,-225 450.31,-225 323.09,-225 323.09,-225 317.09,-225 311.09,-219 311.09,-213 311.09,-213 311.09,-145 311.09,-145 311.09,-139 317.09,-133 323.09,-133"/>
<text text-anchor="middle" x="386.7" y="-209.8" font-family="Arial" font-size="14.00">Venous</text>
<text text-anchor="middle" x="386.7" y="-194.8" font-family="Arial" font-size="14.00">[&#45;]</text>
</a>
</g>
</g>
<g id="clust4" class="cluster">
<title>cluster_RestofBody</title>
<g id="a_clust4"><a xlink:href="#compartment-RestofBody" xlink:title="RestofBody&#10;[&#45;]">
<path fill="lightblue" stroke="black" d="M340.37,-258C340.37,-258 597.22,-258 597.22,-258 603.22,-258 609.22,-264 609.22,-270 609.22,-270 609.22,-338 609.22,-338 609.22,-344 603.22,-350 597.22,-350 597.22,-350 340.37,-350 340.37,-350 334.37,-350 328.37,-344 328.37,-338 328.37,-338 328.37,-270 328.37,-270 328.37,-264 334.37,-258 340.37,-258"/>
<text text-anchor="middle" x="468.79" y="-334.8" font-family="Arial" font-size="14.00">RestofBody</text>
<text text-anchor="middle" x="468.79" y="-319.8" font-family="Arial" font-size="14.00">[&#45;]</text>
</a>
</g>
</g>
<g id="clust5" class="cluster">
<title>cluster_Lung</title>
<g id="a_clust5"><a xlink:href="#compartment-Lung" xlink:title="Lung&#10;[&#45;]">
<path fill="lightblue" stroke="black" d="M184.83,-8C184.83,-8 312.05,-8 312.05,-8 318.05,-8 324.05,-14 324.05,-20 324.05,-20 324.05,-88 324.05,-88 324.05,-94 318.05,-100 312.05,-100 312.05,-100 184.83,-100 184.83,-100 178.83,-100 172.83,-94 172.83,-88 172.83,-88 172.83,-20 172.83,-20 172.83,-14 178.83,-8 184.83,-8"/>
<text text-anchor="middle" x="248.44" y="-84.8" font-family="Arial" font-size="14.00">Lung</text>
<text text-anchor="middle" x="248.44" y="-69.8" font-family="Arial" font-size="14.00">[&#45;]</text>
</a>
</g>
</g>
<!-- Aair -->
<g id="node1" class="node">
<title>Aair</title>
<g id="a_node1"><a xlink:href="#species-Aair" xlink:title="Aair&#10;[&#45;]">
<path fill="gold" stroke="black" d="M183.05,-179C183.05,-179 153.05,-179 153.05,-179 147.05,-179 141.05,-173 141.05,-167 141.05,-167 141.05,-153 141.05,-153 141.05,-147 147.05,-141 153.05,-141 153.05,-141 183.05,-141 183.05,-141 189.05,-141 195.05,-147 195.05,-153 195.05,-153 195.05,-167 195.05,-167 195.05,-173 189.05,-179 183.05,-179"/>
<text text-anchor="middle" x="168.05" y="-163.8" font-family="Arial" font-size="14.00">Aair</text>
<text text-anchor="middle" x="168.05" y="-148.8" font-family="Arial" font-size="14.00">[&#45;]</text>
</a>
</g>
</g>
<!-- Alung -->
<g id="node5" class="node">
<title>Alung</title>
<g id="a_node5"><a xlink:href="#species-Alung" xlink:title="Alung&#10;[&#45;]">
<path fill="gold" stroke="black" d="M263.05,-54C263.05,-54 233.05,-54 233.05,-54 227.05,-54 221.05,-48 221.05,-42 221.05,-42 221.05,-28 221.05,-28 221.05,-22 227.05,-16 233.05,-16 233.05,-16 263.05,-16 263.05,-16 269.05,-16 275.05,-22 275.05,-28 275.05,-28 275.05,-42 275.05,-42 275.05,-48 269.05,-54 263.05,-54"/>
<text text-anchor="middle" x="248.05" y="-38.8" font-family="Arial" font-size="14.00">Alung</text>
<text text-anchor="middle" x="248.05" y="-23.8" font-family="Arial" font-size="14.00">[&#45;]</text>
</a>
</g>
</g>
<!-- Aair&#45;&gt;Alung -->
<g id="edge1" class="edge">
<title>Aair&#45;&gt;Alung</title>
<path fill="none" stroke="black" d="M179.85,-140.85C193.26,-120.23 215.28,-86.38 230.66,-62.74"/>
<polygon fill="black" stroke="black" points="233.68,-64.51 236.2,-54.22 227.81,-60.7 233.68,-64.51"/>
<text text-anchor="middle" x="212.05" y="-112.3" font-family="Times,serif" font-size="14.00">_J0</text>
</g>
<!-- Aart -->
<g id="node2" class="node">
<title>Aart</title>
<g id="a_node2"><a xlink:href="#species-Aart" xlink:title="Aart&#10;[&#45;]">
<path fill="gold" stroke="black" d="M466.05,-54C466.05,-54 436.05,-54 436.05,-54 430.05,-54 424.05,-48 424.05,-42 424.05,-42 424.05,-28 424.05,-28 424.05,-22 430.05,-16 436.05,-16 436.05,-16 466.05,-16 466.05,-16 472.05,-16 478.05,-22 478.05,-28 478.05,-28 478.05,-42 478.05,-42 478.05,-48 472.05,-54 466.05,-54"/>
<text text-anchor="middle" x="451.05" y="-38.8" font-family="Arial" font-size="14.00">Aart</text>
<text text-anchor="middle" x="451.05" y="-23.8" font-family="Arial" font-size="14.00">[&#45;]</text>
</a>
</g>
</g>
<!-- Arest -->
<g id="node4" class="node">
<title>Arest</title>
<g id="a_node4"><a xlink:href="#species-Arest" xlink:title="Arest&#10;[PBPKO:00501]">
<path fill="gold" stroke="black" d="M513.55,-304C513.55,-304 424.55,-304 424.55,-304 418.55,-304 412.55,-298 412.55,-292 412.55,-292 412.55,-278 412.55,-278 412.55,-272 418.55,-266 424.55,-266 424.55,-266 513.55,-266 513.55,-266 519.55,-266 525.55,-272 525.55,-278 525.55,-278 525.55,-292 525.55,-292 525.55,-298 519.55,-304 513.55,-304"/>
<text text-anchor="middle" x="469.05" y="-288.8" font-family="Arial" font-size="14.00">Arest</text>
<text text-anchor="middle" x="469.05" y="-273.8" font-family="Arial" font-size="14.00">[PBPKO:00501]</text>
</a>
</g>
</g>
<!-- Aart&#45;&gt;Arest -->
<g id="edge2" class="edge">
<title>Aart&#45;&gt;Arest</title>
<path fill="none" stroke="black" d="M454.43,-54.16C457.92,-73.6 463.23,-105.37 466.05,-133 470.58,-177.49 469.94,-188.79 471.05,-233.5 471.21,-240.16 471.24,-241.84 471.05,-248.5 470.98,-250.89 470.89,-253.38 470.78,-255.87"/>
<polygon fill="black" stroke="black" points="467.28,-255.78 470.26,-265.95 474.27,-256.14 467.28,-255.78"/>
<text text-anchor="middle" x="482.05" y="-156.3" font-family="Times,serif" font-size="14.00">_J3</text>
</g>
<!-- Aven -->
<g id="node3" class="node">
<title>Aven</title>
<g id="a_node3"><a xlink:href="#species-Aven" xlink:title="Aven&#10;[&#45;]">
<path fill="gold" stroke="black" d="M402.05,-179C402.05,-179 372.05,-179 372.05,-179 366.05,-179 360.05,-173 360.05,-167 360.05,-167 360.05,-153 360.05,-153 360.05,-147 366.05,-141 372.05,-141 372.05,-141 402.05,-141 402.05,-141 408.05,-141 414.05,-147 414.05,-153 414.05,-153 414.05,-167 414.05,-167 414.05,-173 408.05,-179 402.05,-179"/>
<text text-anchor="middle" x="387.05" y="-163.8" font-family="Arial" font-size="14.00">Aven</text>
<text text-anchor="middle" x="387.05" y="-148.8" font-family="Arial" font-size="14.00">[&#45;]</text>
</a>
</g>
</g>
<!-- Aven&#45;&gt;Aart -->
<g id="edge3" class="edge">
<title>Aven&#45;&gt;Aart</title>
<path fill="none" stroke="black" d="M396.49,-140.85C407.13,-120.41 424.52,-86.97 436.81,-63.36"/>
<polygon fill="black" stroke="black" points="440.06,-64.71 441.57,-54.22 433.85,-61.48 440.06,-64.71"/>
<text text-anchor="middle" x="425.05" y="-112.3" font-family="Times,serif" font-size="14.00">_J5</text>
</g>
<!-- Aven&#45;&gt;Alung -->
<g id="edge4" class="edge">
<title>Aven&#45;&gt;Alung</title>
<path fill="none" stroke="black" d="M366.54,-140.85C342.62,-119.69 302.95,-84.58 276.17,-60.88"/>
<polygon fill="black" stroke="black" points="278.45,-58.23 268.64,-54.22 273.81,-63.47 278.45,-58.23"/>
<text text-anchor="middle" x="357.05" y="-112.3" font-family="Times,serif" font-size="14.00">_J2</text>
</g>
<!-- Arest&#45;&gt;Aven -->
<g id="edge5" class="edge">
<title>Arest&#45;&gt;Aven</title>
<path fill="none" stroke="black" d="M456.95,-265.85C443.2,-245.23 420.63,-211.38 404.87,-187.74"/>
<polygon fill="black" stroke="black" points="407.66,-185.6 399.2,-179.22 401.83,-189.49 407.66,-185.6"/>
<text text-anchor="middle" x="456.05" y="-237.3" font-family="Times,serif" font-size="14.00">_J4</text>
</g>
<!-- Alung&#45;&gt;Aair -->
<g id="edge6" class="edge">
<title>Alung&#45;&gt;Aair</title>
<path fill="none" stroke="black" d="M220.75,-51.43C201.49,-64.01 177.21,-83.73 166.05,-108.5 162.96,-115.35 162.16,-123.27 162.47,-130.77"/>
<polygon fill="black" stroke="black" points="159.01,-131.36 163.51,-140.96 165.97,-130.65 159.01,-131.36"/>
<text text-anchor="middle" x="177.05" y="-112.3" font-family="Times,serif" font-size="14.00">_J6</text>
</g>
<!-- Alung&#45;&gt;Aart -->
<g id="edge7" class="edge">
<title>Alung&#45;&gt;Aart</title>
<path fill="none" stroke="black" d="M275.43,-35C311.09,-35 373.6,-35 413.63,-35"/>
<polygon fill="black" stroke="black" points="413.78,-38.5 423.78,-35 413.78,-31.5 413.78,-38.5"/>
<text text-anchor="middle" x="349.55" y="-41.8" font-family="Times,serif" font-size="14.00">_J1</text>
</g>
</g>
</svg>
