<?xml version="1.0" encoding="UTF-8" standalone="no"?>
<!DOCTYPE svg PUBLIC "-//W3C//DTD SVG 1.1//EN"
 "http://www.w3.org/Graphics/SVG/1.1/DTD/svg11.dtd">
<!-- Generated by graphviz version 2.43.0 (0)
 -->
<!-- Title: %3 Pages: 1 -->
<svg width="504pt" height="271pt"
 viewBox="0.00 0.00 504.00 271.04" xmlns="http://www.w3.org/2000/svg" xmlns:xlink="http://www.w3.org/1999/xlink">
<g id="graph0" class="graph" transform="scale(0.3 0.3) rotate(0) translate(4 891)">
<title>%3</title>
<polygon fill="white" stroke="transparent" points="-4,4 -4,-891 1660.24,-891 1660.24,4 -4,4"/>
<g id="clust1" class="cluster">
<title>cluster_Stomach</title>
<g id="a_clust1"><a xlink:href="#compartment-Stomach" xlink:title="Stomach&#10;[PBPKO:00566]">
<path fill="lightblue" stroke="black" d="M1126.32,-749C1126.32,-749 1265.64,-749 1265.64,-749 1271.64,-749 1277.64,-755 1277.64,-761 1277.64,-761 1277.64,-867 1277.64,-867 1277.64,-873 1271.64,-879 1265.64,-879 1265.64,-879 1126.32,-879 1126.32,-879 1120.32,-879 1114.32,-873 1114.32,-867 1114.32,-867 1114.32,-761 1114.32,-761 1114.32,-755 1120.32,-749 1126.32,-749"/>
<text text-anchor="middle" x="1195.98" y="-863.8" font-family="Arial" font-size="14.00">Stomach</text>
<text text-anchor="middle" x="1195.98" y="-848.8" font-family="Arial" font-size="14.00">[PBPKO:00566]</text>
</a>
</g>
</g>
<g id="clust2" class="cluster">
<title>cluster_SI</title>
<g id="a_clust2"><a xlink:href="#compartment-SI" xlink:title="SI&#10;[PBPKO:00472]">
<path fill="lightblue" stroke="black" d="M902.3,-497C902.3,-497 1128.34,-497 1128.34,-497 1134.34,-497 1140.34,-503 1140.34,-509 1140.34,-509 1140.34,-704 1140.34,-704 1140.34,-710 1134.34,-716 1128.34,-716 1128.34,-716 902.3,-716 902.3,-716 896.3,-716 890.3,-710 890.3,-704 890.3,-704 890.3,-509 890.3,-509 890.3,-503 896.3,-497 902.3,-497"/>
<text text-anchor="middle" x="1015.32" y="-700.8" font-family="Arial" font-size="14.00">SI</text>
<text text-anchor="middle" x="1015.32" y="-685.8" font-family="Arial" font-size="14.00">[PBPKO:00472]</text>
</a>
</g>
</g>
<g id="clust3" class="cluster">
<title>cluster_Liver</title>
<g id="a_clust3"><a xlink:href="#compartment-Liver" xlink:title="Liver&#10;[PBPKO:00558]">
<path fill="lightblue" stroke="black" d="M899.41,-171C899.41,-171 1329.24,-171 1329.24,-171 1335.24,-171 1341.24,-177 1341.24,-183 1341.24,-183 1341.24,-452 1341.24,-452 1341.24,-458 1335.24,-464 1329.24,-464 1329.24,-464 899.41,-464 899.41,-464 893.41,-464 887.41,-458 887.41,-452 887.41,-452 887.41,-183 887.41,-183 887.41,-177 893.41,-171 899.41,-171"/>
<text text-anchor="middle" x="1114.32" y="-448.8" font-family="Arial" font-size="14.00">Liver</text>
<text text-anchor="middle" x="1114.32" y="-433.8" font-family="Arial" font-size="14.00">[PBPKO:00558]</text>
</a>
</g>
</g>
<g id="clust4" class="cluster">
<title>cluster_Plasma</title>
<g id="a_clust4"><a xlink:href="#compartment-Plasma" xlink:title="Plasma&#10;[PBPKO:00488]">
<path fill="lightblue" stroke="black" d="M795.35,-8C795.35,-8 1337.91,-8 1337.91,-8 1343.91,-8 1349.91,-14 1349.91,-20 1349.91,-20 1349.91,-126 1349.91,-126 1349.91,-132 1343.91,-138 1337.91,-138 1337.91,-138 795.35,-138 795.35,-138 789.35,-138 783.35,-132 783.35,-126 783.35,-126 783.35,-20 783.35,-20 783.35,-14 789.35,-8 795.35,-8"/>
<text text-anchor="middle" x="1066.63" y="-122.8" font-family="Arial" font-size="14.00">Plasma</text>
<text text-anchor="middle" x="1066.63" y="-107.8" font-family="Arial" font-size="14.00">[PBPKO:00488]</text>
</a>
</g>
</g>
<g id="clust5" class="cluster">
<title>cluster_Rest</title>
<g id="a_clust5"><a xlink:href="#compartment-Rest" xlink:title="Rest&#10;[PBPKO:00450]">
<path fill="lightblue" stroke="black" d="M1364.8,-171C1364.8,-171 1528.69,-171 1528.69,-171 1534.69,-171 1540.69,-177 1540.69,-183 1540.69,-183 1540.69,-289 1540.69,-289 1540.69,-295 1534.69,-301 1528.69,-301 1528.69,-301 1364.8,-301 1364.8,-301 1358.8,-301 1352.8,-295 1352.8,-289 1352.8,-289 1352.8,-183 1352.8,-183 1352.8,-177 1358.8,-171 1364.8,-171"/>
<text text-anchor="middle" x="1446.74" y="-285.8" font-family="Arial" font-size="14.00">Rest</text>
<text text-anchor="middle" x="1446.74" y="-270.8" font-family="Arial" font-size="14.00">[PBPKO:00450]</text>
</a>
</g>
</g>
<g id="clust6" class="cluster">
<title>cluster_GILumen</title>
<g id="a_clust6"><a xlink:href="#compartment-GILumen" xlink:title="GILumen&#10;[PBPKO:00478]">
<path fill="lightblue" stroke="black" d="M212.9,-171C212.9,-171 755.45,-171 755.45,-171 761.45,-171 767.45,-177 767.45,-183 767.45,-183 767.45,-289 767.45,-289 767.45,-295 761.45,-301 755.45,-301 755.45,-301 212.9,-301 212.9,-301 206.9,-301 200.9,-295 200.9,-289 200.9,-289 200.9,-183 200.9,-183 200.9,-177 206.9,-171 212.9,-171"/>
<text text-anchor="middle" x="484.17" y="-285.8" font-family="Arial" font-size="14.00">GILumen</text>
<text text-anchor="middle" x="484.17" y="-270.8" font-family="Arial" font-size="14.00">[PBPKO:00478]</text>
</a>
</g>
</g>
<g id="clust7" class="cluster">
<title>cluster_Feces</title>
<g id="a_clust7"><a xlink:href="#compartment-Feces" xlink:title="Feces&#10;[PBPKO:00555]">
<path fill="lightblue" stroke="black" d="M23.56,-8C23.56,-8 566.12,-8 566.12,-8 572.12,-8 578.12,-14 578.12,-20 578.12,-20 578.12,-126 578.12,-126 578.12,-132 572.12,-138 566.12,-138 566.12,-138 23.56,-138 23.56,-138 17.56,-138 11.56,-132 11.56,-126 11.56,-126 11.56,-20 11.56,-20 11.56,-14 17.56,-8 23.56,-8"/>
<text text-anchor="middle" x="294.84" y="-122.8" font-family="Arial" font-size="14.00">Feces</text>
<text text-anchor="middle" x="294.84" y="-107.8" font-family="Arial" font-size="14.00">[PBPKO:00555]</text>
</a>
</g>
</g>
<!-- ASt -->
<g id="node1" class="node">
<title>ASt</title>
<g id="a_node1"><a xlink:href="#species-ASt" xlink:title="ASt&#10;[&#45;]">
<path fill="gold" stroke="black" d="M1210.24,-795C1210.24,-795 1180.24,-795 1180.24,-795 1174.24,-795 1168.24,-789 1168.24,-783 1168.24,-783 1168.24,-769 1168.24,-769 1168.24,-763 1174.24,-757 1180.24,-757 1180.24,-757 1210.24,-757 1210.24,-757 1216.24,-757 1222.24,-763 1222.24,-769 1222.24,-769 1222.24,-783 1222.24,-783 1222.24,-789 1216.24,-795 1210.24,-795"/>
<text text-anchor="middle" x="1195.24" y="-779.8" font-family="Arial" font-size="14.00">ASt</text>
<text text-anchor="middle" x="1195.24" y="-764.8" font-family="Arial" font-size="14.00">[&#45;]</text>
</a>
</g>
</g>
<!-- ASI -->
<g id="node2" class="node">
<title>ASI</title>
<g id="a_node2"><a xlink:href="#species-ASI" xlink:title="ASI&#10;[&#45;]">
<path fill="gold" stroke="black" d="M1093.24,-632C1093.24,-632 1063.24,-632 1063.24,-632 1057.24,-632 1051.24,-626 1051.24,-620 1051.24,-620 1051.24,-606 1051.24,-606 1051.24,-600 1057.24,-594 1063.24,-594 1063.24,-594 1093.24,-594 1093.24,-594 1099.24,-594 1105.24,-600 1105.24,-606 1105.24,-606 1105.24,-620 1105.24,-620 1105.24,-626 1099.24,-632 1093.24,-632"/>
<text text-anchor="middle" x="1078.24" y="-616.8" font-family="Arial" font-size="14.00">ASI</text>
<text text-anchor="middle" x="1078.24" y="-601.8" font-family="Arial" font-size="14.00">[&#45;]</text>
</a>
</g>
</g>
<!-- ASt&#45;&gt;ASI -->
<g id="edge1" class="edge">
<title>ASt&#45;&gt;ASI</title>
<path fill="none" stroke="black" d="M1182.05,-756.84C1161.42,-728.46 1121.43,-673.43 1097.55,-640.58"/>
<polygon fill="black" stroke="black" points="1100.28,-638.37 1091.57,-632.34 1094.61,-642.48 1100.28,-638.37"/>
<text text-anchor="middle" x="1177.24" y="-728.3" font-family="Times,serif" font-size="14.00">_J0</text>
</g>
<!-- ALiver -->
<g id="node5" class="node">
<title>ALiver</title>
<g id="a_node5"><a xlink:href="#species-ALiver" xlink:title="ALiver&#10;[PBPKO:00497]">
<path fill="gold" stroke="black" d="M1291.74,-380C1291.74,-380 1202.74,-380 1202.74,-380 1196.74,-380 1190.74,-374 1190.74,-368 1190.74,-368 1190.74,-354 1190.74,-354 1190.74,-348 1196.74,-342 1202.74,-342 1202.74,-342 1291.74,-342 1291.74,-342 1297.74,-342 1303.74,-348 1303.74,-354 1303.74,-354 1303.74,-368 1303.74,-368 1303.74,-374 1297.74,-380 1291.74,-380"/>
<text text-anchor="middle" x="1247.24" y="-364.8" font-family="Arial" font-size="14.00">ALiver</text>
<text text-anchor="middle" x="1247.24" y="-349.8" font-family="Arial" font-size="14.00">[PBPKO:00497]</text>
</a>
</g>
</g>
<!-- ASt&#45;&gt;ALiver -->
<g id="edge2" class="edge">
<title>ASt&#45;&gt;ALiver</title>
<path fill="none" stroke="black" d="M1197.51,-756.99C1205.69,-692.04 1233.7,-469.55 1243.68,-390.31"/>
<polygon fill="black" stroke="black" points="1247.18,-390.47 1244.96,-380.11 1240.24,-389.59 1247.18,-390.47"/>
<text text-anchor="middle" x="1232.24" y="-565.3" font-family="Times,serif" font-size="14.00">_J1</text>
</g>
<!-- ASIMet1 -->
<g id="node3" class="node">
<title>ASIMet1</title>
<g id="a_node3"><a xlink:href="#species-ASIMet1" xlink:title="ASIMet1&#10;[&#45;]">
<path fill="gold" stroke="black" d="M1100.74,-543C1100.74,-543 1055.74,-543 1055.74,-543 1049.74,-543 1043.74,-537 1043.74,-531 1043.74,-531 1043.74,-517 1043.74,-517 1043.74,-511 1049.74,-505 1055.74,-505 1055.74,-505 1100.74,-505 1100.74,-505 1106.74,-505 1112.74,-511 1112.74,-517 1112.74,-517 1112.74,-531 1112.74,-531 1112.74,-537 1106.74,-543 1100.74,-543"/>
<text text-anchor="middle" x="1078.24" y="-527.8" font-family="Arial" font-size="14.00">ASIMet1</text>
<text text-anchor="middle" x="1078.24" y="-512.8" font-family="Arial" font-size="14.00">[&#45;]</text>
</a>
</g>
</g>
<!-- ASI&#45;&gt;ASIMet1 -->
<g id="edge3" class="edge">
<title>ASI&#45;&gt;ASIMet1</title>
<path fill="none" stroke="black" d="M1078.24,-593.97C1078.24,-582.19 1078.24,-566.56 1078.24,-553.16"/>
<polygon fill="black" stroke="black" points="1081.74,-553 1078.24,-543 1074.74,-553 1081.74,-553"/>
<text text-anchor="middle" x="1089.24" y="-565.3" font-family="Times,serif" font-size="14.00">_J4</text>
</g>
<!-- ASIMet2 -->
<g id="node4" class="node">
<title>ASIMet2</title>
<g id="a_node4"><a xlink:href="#species-ASIMet2" xlink:title="ASIMet2&#10;[&#45;]">
<path fill="gold" stroke="black" d="M974.74,-543C974.74,-543 929.74,-543 929.74,-543 923.74,-543 917.74,-537 917.74,-531 917.74,-531 917.74,-517 917.74,-517 917.74,-511 923.74,-505 929.74,-505 929.74,-505 974.74,-505 974.74,-505 980.74,-505 986.74,-511 986.74,-517 986.74,-517 986.74,-531 986.74,-531 986.74,-537 980.74,-543 974.74,-543"/>
<text text-anchor="middle" x="952.24" y="-527.8" font-family="Arial" font-size="14.00">ASIMet2</text>
<text text-anchor="middle" x="952.24" y="-512.8" font-family="Arial" font-size="14.00">[&#45;]</text>
</a>
</g>
</g>
<!-- ASI&#45;&gt;ASIMet2 -->
<g id="edge4" class="edge">
<title>ASI&#45;&gt;ASIMet2</title>
<path fill="none" stroke="black" d="M1052.13,-593.97C1033.21,-580.91 1007.43,-563.11 986.8,-548.87"/>
<polygon fill="black" stroke="black" points="988.53,-545.81 978.31,-543 984.55,-551.57 988.53,-545.81"/>
<text text-anchor="middle" x="1037.24" y="-565.3" font-family="Times,serif" font-size="14.00">_J8</text>
</g>
<!-- ASI&#45;&gt;ALiver -->
<g id="edge5" class="edge">
<title>ASI&#45;&gt;ALiver</title>
<path fill="none" stroke="black" d="M1091.89,-593.69C1095.92,-588.2 1100.3,-582.14 1104.24,-576.5 1150.85,-509.83 1203.35,-429.7 1229.89,-388.84"/>
<polygon fill="black" stroke="black" points="1232.95,-390.56 1235.45,-380.26 1227.08,-386.75 1232.95,-390.56"/>
<text text-anchor="middle" x="1168.24" y="-520.3" font-family="Times,serif" font-size="14.00">_J2</text>
</g>
<!-- AFeces -->
<g id="node17" class="node">
<title>AFeces</title>
<g id="a_node17"><a xlink:href="#species-AFeces" xlink:title="AFeces&#10;[PBPKO:00273]">
<path fill="gold" stroke="black" d="M149.74,-54C149.74,-54 60.74,-54 60.74,-54 54.74,-54 48.74,-48 48.74,-42 48.74,-42 48.74,-28 48.74,-28 48.74,-22 54.74,-16 60.74,-16 60.74,-16 149.74,-16 149.74,-16 155.74,-16 161.74,-22 161.74,-28 161.74,-28 161.74,-42 161.74,-42 161.74,-48 155.74,-54 149.74,-54"/>
<text text-anchor="middle" x="105.24" y="-38.8" font-family="Arial" font-size="14.00">AFeces</text>
<text text-anchor="middle" x="105.24" y="-23.8" font-family="Arial" font-size="14.00">[PBPKO:00273]</text>
</a>
</g>
</g>
<!-- ASI&#45;&gt;AFeces -->
<g id="edge6" class="edge">
<title>ASI&#45;&gt;AFeces</title>
<path fill="none" stroke="black" d="M1051.15,-610.95C897.19,-604.79 139.24,-572.07 139.24,-525 139.24,-525 139.24,-525 139.24,-197 139.24,-149.52 124.91,-95.82 114.85,-64"/>
<polygon fill="black" stroke="black" points="118.05,-62.52 111.64,-54.09 111.39,-64.68 118.05,-62.52"/>
<text text-anchor="middle" x="150.24" y="-357.3" font-family="Times,serif" font-size="14.00">_J3</text>
</g>
<!-- APVMet1 -->
<g id="node8" class="node">
<title>APVMet1</title>
<g id="a_node8"><a xlink:href="#species-APVMet1" xlink:title="APVMet1&#10;[&#45;]">
<path fill="gold" stroke="black" d="M1110.24,-380C1110.24,-380 1060.24,-380 1060.24,-380 1054.24,-380 1048.24,-374 1048.24,-368 1048.24,-368 1048.24,-354 1048.24,-354 1048.24,-348 1054.24,-342 1060.24,-342 1060.24,-342 1110.24,-342 1110.24,-342 1116.24,-342 1122.24,-348 1122.24,-354 1122.24,-354 1122.24,-368 1122.24,-368 1122.24,-374 1116.24,-380 1110.24,-380"/>
<text text-anchor="middle" x="1085.24" y="-364.8" font-family="Arial" font-size="14.00">APVMet1</text>
<text text-anchor="middle" x="1085.24" y="-349.8" font-family="Arial" font-size="14.00">[&#45;]</text>
</a>
</g>
</g>
<!-- ASIMet1&#45;&gt;APVMet1 -->
<g id="edge7" class="edge">
<title>ASIMet1&#45;&gt;APVMet1</title>
<path fill="none" stroke="black" d="M1079.03,-504.84C1080.24,-477.06 1082.55,-423.76 1083.99,-390.7"/>
<polygon fill="black" stroke="black" points="1087.5,-390.48 1084.44,-380.34 1080.51,-390.17 1087.5,-390.48"/>
<text text-anchor="middle" x="1091.24" y="-476.3" font-family="Times,serif" font-size="14.00">_J5</text>
</g>
<!-- APVMet2 -->
<g id="node9" class="node">
<title>APVMet2</title>
<g id="a_node9"><a xlink:href="#species-APVMet2" xlink:title="APVMet2&#10;[&#45;]">
<path fill="gold" stroke="black" d="M977.24,-380C977.24,-380 927.24,-380 927.24,-380 921.24,-380 915.24,-374 915.24,-368 915.24,-368 915.24,-354 915.24,-354 915.24,-348 921.24,-342 927.24,-342 927.24,-342 977.24,-342 977.24,-342 983.24,-342 989.24,-348 989.24,-354 989.24,-354 989.24,-368 989.24,-368 989.24,-374 983.24,-380 977.24,-380"/>
<text text-anchor="middle" x="952.24" y="-364.8" font-family="Arial" font-size="14.00">APVMet2</text>
<text text-anchor="middle" x="952.24" y="-349.8" font-family="Arial" font-size="14.00">[&#45;]</text>
</a>
</g>
</g>
<!-- ASIMet2&#45;&gt;APVMet2 -->
<g id="edge8" class="edge">
<title>ASIMet2&#45;&gt;APVMet2</title>
<path fill="none" stroke="black" d="M952.24,-504.84C952.24,-477.06 952.24,-423.76 952.24,-390.7"/>
<polygon fill="black" stroke="black" points="955.74,-390.34 952.24,-380.34 948.74,-390.34 955.74,-390.34"/>
<text text-anchor="middle" x="963.24" y="-476.3" font-family="Times,serif" font-size="14.00">_J9</text>
</g>
<!-- ALiverMet1 -->
<g id="node6" class="node">
<title>ALiverMet1</title>
<g id="a_node6"><a xlink:href="#species-ALiverMet1" xlink:title="ALiverMet1&#10;[PBPKO:00497]">
<path fill="gold" stroke="black" d="M1291.74,-217C1291.74,-217 1202.74,-217 1202.74,-217 1196.74,-217 1190.74,-211 1190.74,-205 1190.74,-205 1190.74,-191 1190.74,-191 1190.74,-185 1196.74,-179 1202.74,-179 1202.74,-179 1291.74,-179 1291.74,-179 1297.74,-179 1303.74,-185 1303.74,-191 1303.74,-191 1303.74,-205 1303.74,-205 1303.74,-211 1297.74,-217 1291.74,-217"/>
<text text-anchor="middle" x="1247.24" y="-201.8" font-family="Arial" font-size="14.00">ALiverMet1</text>
<text text-anchor="middle" x="1247.24" y="-186.8" font-family="Arial" font-size="14.00">[PBPKO:00497]</text>
</a>
</g>
</g>
<!-- ALiver&#45;&gt;ALiverMet1 -->
<g id="edge9" class="edge">
<title>ALiver&#45;&gt;ALiverMet1</title>
<path fill="none" stroke="black" d="M1247.24,-341.84C1247.24,-314.06 1247.24,-260.76 1247.24,-227.7"/>
<polygon fill="black" stroke="black" points="1250.74,-227.34 1247.24,-217.34 1243.74,-227.34 1250.74,-227.34"/>
<text text-anchor="middle" x="1262.74" y="-313.3" font-family="Times,serif" font-size="14.00">_J12</text>
</g>
<!-- ALiverMet2 -->
<g id="node7" class="node">
<title>ALiverMet2</title>
<g id="a_node7"><a xlink:href="#species-ALiverMet2" xlink:title="ALiverMet2&#10;[PBPKO:00497]">
<path fill="gold" stroke="black" d="M1102.74,-217C1102.74,-217 1013.74,-217 1013.74,-217 1007.74,-217 1001.74,-211 1001.74,-205 1001.74,-205 1001.74,-191 1001.74,-191 1001.74,-185 1007.74,-179 1013.74,-179 1013.74,-179 1102.74,-179 1102.74,-179 1108.74,-179 1114.74,-185 1114.74,-191 1114.74,-191 1114.74,-205 1114.74,-205 1114.74,-211 1108.74,-217 1102.74,-217"/>
<text text-anchor="middle" x="1058.24" y="-201.8" font-family="Arial" font-size="14.00">ALiverMet2</text>
<text text-anchor="middle" x="1058.24" y="-186.8" font-family="Arial" font-size="14.00">[PBPKO:00497]</text>
</a>
</g>
</g>
<!-- ALiver&#45;&gt;ALiverMet2 -->
<g id="edge10" class="edge">
<title>ALiver&#45;&gt;ALiverMet2</title>
<path fill="none" stroke="black" d="M1225.93,-341.84C1191.95,-312.9 1125.44,-256.25 1087.19,-223.66"/>
<polygon fill="black" stroke="black" points="1089.36,-220.91 1079.48,-217.09 1084.82,-226.24 1089.36,-220.91"/>
<text text-anchor="middle" x="1216.74" y="-313.3" font-family="Times,serif" font-size="14.00">_J15</text>
</g>
<!-- APlasma -->
<g id="node10" class="node">
<title>APlasma</title>
<g id="a_node10"><a xlink:href="#species-APlasma" xlink:title="APlasma&#10;[PBPKO:00502]">
<path fill="gold" stroke="black" d="M1300.74,-54C1300.74,-54 1211.74,-54 1211.74,-54 1205.74,-54 1199.74,-48 1199.74,-42 1199.74,-42 1199.74,-28 1199.74,-28 1199.74,-22 1205.74,-16 1211.74,-16 1211.74,-16 1300.74,-16 1300.74,-16 1306.74,-16 1312.74,-22 1312.74,-28 1312.74,-28 1312.74,-42 1312.74,-42 1312.74,-48 1306.74,-54 1300.74,-54"/>
<text text-anchor="middle" x="1256.24" y="-38.8" font-family="Arial" font-size="14.00">APlasma</text>
<text text-anchor="middle" x="1256.24" y="-23.8" font-family="Arial" font-size="14.00">[PBPKO:00502]</text>
</a>
</g>
</g>
<!-- ALiver&#45;&gt;APlasma -->
<g id="edge11" class="edge">
<title>ALiver&#45;&gt;APlasma</title>
<path fill="none" stroke="black" d="M1303.75,-360.64C1389.96,-360.58 1549.19,-356.01 1595.24,-324.5 1604.92,-317.88 1604.5,-312.4 1607.24,-301 1620.75,-244.82 1639.95,-218.63 1607.24,-171 1543.28,-77.88 1405.43,-48.96 1322.79,-40"/>
<polygon fill="black" stroke="black" points="1323.05,-36.51 1312.75,-38.98 1322.34,-43.48 1323.05,-36.51"/>
<text text-anchor="middle" x="1640.74" y="-194.3" font-family="Times,serif" font-size="14.00">_J19</text>
</g>
<!-- APlasmaMet1 -->
<g id="node11" class="node">
<title>APlasmaMet1</title>
<g id="a_node11"><a xlink:href="#species-APlasmaMet1" xlink:title="APlasmaMet1&#10;[PBPKO:00502]">
<path fill="gold" stroke="black" d="M1110.74,-54C1110.74,-54 1021.74,-54 1021.74,-54 1015.74,-54 1009.74,-48 1009.74,-42 1009.74,-42 1009.74,-28 1009.74,-28 1009.74,-22 1015.74,-16 1021.74,-16 1021.74,-16 1110.74,-16 1110.74,-16 1116.74,-16 1122.74,-22 1122.74,-28 1122.74,-28 1122.74,-42 1122.74,-42 1122.74,-48 1116.74,-54 1110.74,-54"/>
<text text-anchor="middle" x="1066.24" y="-38.8" font-family="Arial" font-size="14.00">APlasmaMet1</text>
<text text-anchor="middle" x="1066.24" y="-23.8" font-family="Arial" font-size="14.00">[PBPKO:00502]</text>
</a>
</g>
</g>
<!-- ALiverMet1&#45;&gt;APlasmaMet1 -->
<g id="edge12" class="edge">
<title>ALiverMet1&#45;&gt;APlasmaMet1</title>
<path fill="none" stroke="black" d="M1226.83,-178.84C1194.42,-150.02 1131.13,-93.72 1094.42,-61.07"/>
<polygon fill="black" stroke="black" points="1096.37,-58.12 1086.58,-54.09 1091.72,-63.35 1096.37,-58.12"/>
<text text-anchor="middle" x="1218.74" y="-150.3" font-family="Times,serif" font-size="14.00">_J13</text>
</g>
<!-- AGILumenMet1 -->
<g id="node15" class="node">
<title>AGILumenMet1</title>
<g id="a_node15"><a xlink:href="#species-AGILumenMet1" xlink:title="AGILumenMet1&#10;[PBPKO:00496]">
<path fill="gold" stroke="black" d="M528.74,-217C528.74,-217 439.74,-217 439.74,-217 433.74,-217 427.74,-211 427.74,-205 427.74,-205 427.74,-191 427.74,-191 427.74,-185 433.74,-179 439.74,-179 439.74,-179 528.74,-179 528.74,-179 534.74,-179 540.74,-185 540.74,-191 540.74,-191 540.74,-205 540.74,-205 540.74,-211 534.74,-217 528.74,-217"/>
<text text-anchor="middle" x="484.24" y="-201.8" font-family="Arial" font-size="14.00">AGILumenMet1</text>
<text text-anchor="middle" x="484.24" y="-186.8" font-family="Arial" font-size="14.00">[PBPKO:00496]</text>
</a>
</g>
</g>
<!-- ALiverMet1&#45;&gt;AGILumenMet1 -->
<g id="edge13" class="edge">
<title>ALiverMet1&#45;&gt;AGILumenMet1</title>
<path fill="none" stroke="black" d="M1230.37,-217.03C1208.54,-240.06 1168.1,-277.6 1124.24,-292.5 1015.67,-329.39 716.88,-329.18 608.24,-292.5 568.61,-279.12 531.64,-247.46 508.56,-224.46"/>
<polygon fill="black" stroke="black" points="510.78,-221.73 501.28,-217.04 505.78,-226.63 510.78,-221.73"/>
<text text-anchor="middle" x="855.24" y="-313.3" font-family="Times,serif" font-size="14.00">_J14</text>
</g>
<!-- APlasmaMet2 -->
<g id="node12" class="node">
<title>APlasmaMet2</title>
<g id="a_node12"><a xlink:href="#species-APlasmaMet2" xlink:title="APlasmaMet2&#10;[PBPKO:00502]">
<path fill="gold" stroke="black" d="M921.74,-54C921.74,-54 832.74,-54 832.74,-54 826.74,-54 820.74,-48 820.74,-42 820.74,-42 820.74,-28 820.74,-28 820.74,-22 826.74,-16 832.74,-16 832.74,-16 921.74,-16 921.74,-16 927.74,-16 933.74,-22 933.74,-28 933.74,-28 933.74,-42 933.74,-42 933.74,-48 927.74,-54 921.74,-54"/>
<text text-anchor="middle" x="877.24" y="-38.8" font-family="Arial" font-size="14.00">APlasmaMet2</text>
<text text-anchor="middle" x="877.24" y="-23.8" font-family="Arial" font-size="14.00">[PBPKO:00502]</text>
</a>
</g>
</g>
<!-- ALiverMet2&#45;&gt;APlasmaMet2 -->
<g id="edge14" class="edge">
<title>ALiverMet2&#45;&gt;APlasmaMet2</title>
<path fill="none" stroke="black" d="M1037.83,-178.84C1005.42,-150.02 942.13,-93.72 905.42,-61.07"/>
<polygon fill="black" stroke="black" points="907.37,-58.12 897.58,-54.09 902.72,-63.35 907.37,-58.12"/>
<text text-anchor="middle" x="1029.74" y="-150.3" font-family="Times,serif" font-size="14.00">_J16</text>
</g>
<!-- AGILumenMet2 -->
<g id="node16" class="node">
<title>AGILumenMet2</title>
<g id="a_node16"><a xlink:href="#species-AGILumenMet2" xlink:title="AGILumenMet2&#10;[PBPKO:00496]">
<path fill="gold" stroke="black" d="M339.74,-217C339.74,-217 250.74,-217 250.74,-217 244.74,-217 238.74,-211 238.74,-205 238.74,-205 238.74,-191 238.74,-191 238.74,-185 244.74,-179 250.74,-179 250.74,-179 339.74,-179 339.74,-179 345.74,-179 351.74,-185 351.74,-191 351.74,-191 351.74,-205 351.74,-205 351.74,-211 345.74,-217 339.74,-217"/>
<text text-anchor="middle" x="295.24" y="-201.8" font-family="Arial" font-size="14.00">AGILumenMet2</text>
<text text-anchor="middle" x="295.24" y="-186.8" font-family="Arial" font-size="14.00">[PBPKO:00496]</text>
</a>
</g>
</g>
<!-- ALiverMet2&#45;&gt;AGILumenMet2 -->
<g id="edge15" class="edge">
<title>ALiverMet2&#45;&gt;AGILumenMet2</title>
<path fill="none" stroke="black" d="M1042.22,-217.02C1021.46,-240.03 982.83,-277.55 940.24,-292.5 831,-330.85 528.93,-329.53 419.24,-292.5 379.61,-279.12 342.64,-247.46 319.56,-224.46"/>
<polygon fill="black" stroke="black" points="321.78,-221.73 312.28,-217.04 316.78,-226.63 321.78,-221.73"/>
<text text-anchor="middle" x="756.24" y="-313.3" font-family="Times,serif" font-size="14.00">_J17</text>
</g>
<!-- APVMet1&#45;&gt;APlasmaMet1 -->
<g id="edge16" class="edge">
<title>APVMet1&#45;&gt;APlasmaMet1</title>
<path fill="none" stroke="black" d="M1122.45,-352.46C1140.46,-348.97 1162.42,-344.96 1182.24,-342 1262.31,-330.05 1490.31,-361.38 1544.24,-301 1582.73,-257.91 1580.34,-216.11 1544.24,-171 1513.22,-132.23 1484.49,-152.84 1435.24,-146.5 1408.33,-143.04 1216.63,-147.55 1191.24,-138 1149.37,-122.26 1111.09,-86.46 1088.22,-61.75"/>
<polygon fill="black" stroke="black" points="1090.65,-59.23 1081.35,-54.16 1085.46,-63.92 1090.65,-59.23"/>
<text text-anchor="middle" x="1582.24" y="-194.3" font-family="Times,serif" font-size="14.00">_J6</text>
</g>
<!-- APVMet1&#45;&gt;AGILumenMet1 -->
<g id="edge17" class="edge">
<title>APVMet1&#45;&gt;AGILumenMet1</title>
<path fill="none" stroke="black" d="M1048.21,-350.91C1032.85,-347.51 1014.78,-344 998.24,-342 971.53,-338.78 535.06,-341.55 514.24,-324.5 485.84,-301.24 481.5,-256.33 482.06,-227.02"/>
<polygon fill="black" stroke="black" points="485.56,-227.13 482.46,-217 478.57,-226.86 485.56,-227.13"/>
<text text-anchor="middle" x="525.24" y="-313.3" font-family="Times,serif" font-size="14.00">_J7</text>
</g>
<!-- APVMet2&#45;&gt;APlasmaMet2 -->
<g id="edge18" class="edge">
<title>APVMet2&#45;&gt;APlasmaMet2</title>
<path fill="none" stroke="black" d="M915.14,-359.53C888.49,-357.01 854.21,-348.8 836.24,-324.5 777.22,-244.72 832.72,-117.82 861.89,-62.85"/>
<polygon fill="black" stroke="black" points="864.97,-64.51 866.66,-54.05 858.82,-61.18 864.97,-64.51"/>
<text text-anchor="middle" x="836.74" y="-194.3" font-family="Times,serif" font-size="14.00">_J10</text>
</g>
<!-- APVMet2&#45;&gt;AGILumenMet2 -->
<g id="edge19" class="edge">
<title>APVMet2&#45;&gt;AGILumenMet2</title>
<path fill="none" stroke="black" d="M915.01,-359.1C816.63,-356.45 551.59,-347.32 467.24,-324.5 405.4,-307.77 348.46,-256.17 318.13,-224.59"/>
<polygon fill="black" stroke="black" points="320.4,-221.9 311,-217.02 315.31,-226.7 320.4,-221.9"/>
<text text-anchor="middle" x="482.74" y="-313.3" font-family="Times,serif" font-size="14.00">_J11</text>
</g>
<!-- APlasma&#45;&gt;ALiver -->
<g id="edge20" class="edge">
<title>APlasma&#45;&gt;ALiver</title>
<path fill="none" stroke="black" d="M1238.46,-54.17C1215.67,-76.58 1174.07,-114.57 1132.24,-138 1104.34,-153.63 1095.49,-154.75 1064.24,-161.5 1041.99,-166.31 977.57,-154.17 962.24,-171 923.33,-213.71 925.76,-256.19 962.24,-301 969.19,-309.53 1098.69,-333.78 1180.71,-348.4"/>
<polygon fill="black" stroke="black" points="1180.26,-351.87 1190.72,-350.18 1181.48,-344.98 1180.26,-351.87"/>
<text text-anchor="middle" x="977.74" y="-194.3" font-family="Times,serif" font-size="14.00">_J18</text>
</g>
<!-- ARest -->
<g id="node13" class="node">
<title>ARest</title>
<g id="a_node13"><a xlink:href="#species-ARest" xlink:title="ARest&#10;[PBPKO:00501]">
<path fill="gold" stroke="black" d="M1491.74,-217C1491.74,-217 1402.74,-217 1402.74,-217 1396.74,-217 1390.74,-211 1390.74,-205 1390.74,-205 1390.74,-191 1390.74,-191 1390.74,-185 1396.74,-179 1402.74,-179 1402.74,-179 1491.74,-179 1491.74,-179 1497.74,-179 1503.74,-185 1503.74,-191 1503.74,-191 1503.74,-205 1503.74,-205 1503.74,-211 1497.74,-217 1491.74,-217"/>
<text text-anchor="middle" x="1447.24" y="-201.8" font-family="Arial" font-size="14.00">ARest</text>
<text text-anchor="middle" x="1447.24" y="-186.8" font-family="Arial" font-size="14.00">[PBPKO:00501]</text>
</a>
</g>
</g>
<!-- APlasma&#45;&gt;ARest -->
<g id="edge21" class="edge">
<title>APlasma&#45;&gt;ARest</title>
<path fill="none" stroke="black" d="M1277.7,-54.09C1311.99,-82.99 1379.19,-139.64 1417.9,-172.27"/>
<polygon fill="black" stroke="black" points="1415.8,-175.08 1425.7,-178.84 1420.31,-169.72 1415.8,-175.08"/>
<text text-anchor="middle" x="1415.74" y="-150.3" font-family="Times,serif" font-size="14.00">_J20</text>
</g>
<!-- ARest&#45;&gt;APlasma -->
<g id="edge22" class="edge">
<title>ARest&#45;&gt;APlasma</title>
<path fill="none" stroke="black" d="M1446.31,-178.76C1444.99,-168.48 1441.99,-155.85 1435.24,-146.5 1405.45,-105.25 1355.06,-76.17 1315.32,-58.23"/>
<polygon fill="black" stroke="black" points="1316.55,-54.95 1305.99,-54.13 1313.74,-61.36 1316.55,-54.95"/>
<text text-anchor="middle" x="1456.74" y="-150.3" font-family="Times,serif" font-size="14.00">_J21</text>
</g>
<!-- AGILumen -->
<g id="node14" class="node">
<title>AGILumen</title>
<g id="a_node14"><a xlink:href="#species-AGILumen" xlink:title="AGILumen&#10;[PBPKO:00496]">
<path fill="gold" stroke="black" d="M717.74,-217C717.74,-217 628.74,-217 628.74,-217 622.74,-217 616.74,-211 616.74,-205 616.74,-205 616.74,-191 616.74,-191 616.74,-185 622.74,-179 628.74,-179 628.74,-179 717.74,-179 717.74,-179 723.74,-179 729.74,-185 729.74,-191 729.74,-191 729.74,-205 729.74,-205 729.74,-211 723.74,-217 717.74,-217"/>
<text text-anchor="middle" x="673.24" y="-201.8" font-family="Arial" font-size="14.00">AGILumen</text>
<text text-anchor="middle" x="673.24" y="-186.8" font-family="Arial" font-size="14.00">[PBPKO:00496]</text>
</a>
</g>
</g>
<!-- AGILumenMet1&#45;&gt;ALiver -->
<g id="edge23" class="edge">
<title>AGILumenMet1&#45;&gt;ALiver</title>
<path fill="none" stroke="black" d="M500.89,-217.04C523.14,-240.03 564.82,-279.39 608.24,-301 712.6,-352.95 1015.22,-330.65 1131.24,-342 1147.13,-343.55 1164.16,-345.84 1180.14,-348.27"/>
<polygon fill="black" stroke="black" points="1180.05,-351.8 1190.47,-349.88 1181.12,-344.88 1180.05,-351.8"/>
<text text-anchor="middle" x="706.74" y="-313.3" font-family="Times,serif" font-size="14.00">_J24</text>
</g>
<!-- AGILumenMet1&#45;&gt;APlasmaMet1 -->
<g id="edge24" class="edge">
<title>AGILumenMet1&#45;&gt;APlasmaMet1</title>
<path fill="none" stroke="black" d="M540.8,-183.79C561.87,-179.23 586.06,-174.41 608.24,-171 756.11,-148.28 805.17,-195.61 943.24,-138 983.9,-121.04 1021.45,-85.87 1044.1,-61.61"/>
<polygon fill="black" stroke="black" points="1046.75,-63.89 1050.91,-54.15 1041.58,-59.17 1046.75,-63.89"/>
<text text-anchor="middle" x="934.74" y="-150.3" font-family="Times,serif" font-size="14.00">_J22</text>
</g>
<!-- AFecesMet1 -->
<g id="node18" class="node">
<title>AFecesMet1</title>
<g id="a_node18"><a xlink:href="#species-AFecesMet1" xlink:title="AFecesMet1&#10;[PBPKO:00273]">
<path fill="gold" stroke="black" d="M528.74,-54C528.74,-54 439.74,-54 439.74,-54 433.74,-54 427.74,-48 427.74,-42 427.74,-42 427.74,-28 427.74,-28 427.74,-22 433.74,-16 439.74,-16 439.74,-16 528.74,-16 528.74,-16 534.74,-16 540.74,-22 540.74,-28 540.74,-28 540.74,-42 540.74,-42 540.74,-48 534.74,-54 528.74,-54"/>
<text text-anchor="middle" x="484.24" y="-38.8" font-family="Arial" font-size="14.00">AFecesMet1</text>
<text text-anchor="middle" x="484.24" y="-23.8" font-family="Arial" font-size="14.00">[PBPKO:00273]</text>
</a>
</g>
</g>
<!-- AGILumenMet1&#45;&gt;AFecesMet1 -->
<g id="edge25" class="edge">
<title>AGILumenMet1&#45;&gt;AFecesMet1</title>
<path fill="none" stroke="black" d="M484.24,-178.84C484.24,-151.06 484.24,-97.76 484.24,-64.7"/>
<polygon fill="black" stroke="black" points="487.74,-64.34 484.24,-54.34 480.74,-64.34 487.74,-64.34"/>
<text text-anchor="middle" x="499.74" y="-150.3" font-family="Times,serif" font-size="14.00">_J23</text>
</g>
<!-- AGILumenMet2&#45;&gt;ALiver -->
<g id="edge26" class="edge">
<title>AGILumenMet2&#45;&gt;ALiver</title>
<path fill="none" stroke="black" d="M310.65,-217.32C332.16,-241.4 373.69,-282.78 419.24,-301 443.44,-310.68 510.53,-305.22 536.24,-309.5 562.08,-313.8 567.32,-320.72 593.24,-324.5 829.97,-359.05 893.04,-319.73 1131.24,-342 1147.14,-343.49 1164.17,-345.75 1180.15,-348.17"/>
<polygon fill="black" stroke="black" points="1180.06,-351.7 1190.48,-349.78 1181.13,-344.78 1180.06,-351.7"/>
<text text-anchor="middle" x="608.74" y="-313.3" font-family="Times,serif" font-size="14.00">_J27</text>
</g>
<!-- AGILumenMet2&#45;&gt;APlasmaMet2 -->
<g id="edge27" class="edge">
<title>AGILumenMet2&#45;&gt;APlasmaMet2</title>
<path fill="none" stroke="black" d="M351.79,-183.75C372.87,-179.18 397.06,-174.37 419.24,-171 463.38,-164.3 475.63,-171.07 519.24,-161.5 632.29,-136.7 758.83,-86.81 827.07,-57.96"/>
<polygon fill="black" stroke="black" points="828.47,-61.17 836.3,-54.04 825.73,-54.73 828.47,-61.17"/>
<text text-anchor="middle" x="584.74" y="-150.3" font-family="Times,serif" font-size="14.00">_J25</text>
</g>
<!-- AFecesMet2 -->
<g id="node19" class="node">
<title>AFecesMet2</title>
<g id="a_node19"><a xlink:href="#species-AFecesMet2" xlink:title="AFecesMet2&#10;[PBPKO:00273]">
<path fill="gold" stroke="black" d="M339.74,-54C339.74,-54 250.74,-54 250.74,-54 244.74,-54 238.74,-48 238.74,-42 238.74,-42 238.74,-28 238.74,-28 238.74,-22 244.74,-16 250.74,-16 250.74,-16 339.74,-16 339.74,-16 345.74,-16 351.74,-22 351.74,-28 351.74,-28 351.74,-42 351.74,-42 351.74,-48 345.74,-54 339.74,-54"/>
<text text-anchor="middle" x="295.24" y="-38.8" font-family="Arial" font-size="14.00">AFecesMet2</text>
<text text-anchor="middle" x="295.24" y="-23.8" font-family="Arial" font-size="14.00">[PBPKO:00273]</text>
</a>
</g>
</g>
<!-- AGILumenMet2&#45;&gt;AFecesMet2 -->
<g id="edge28" class="edge">
<title>AGILumenMet2&#45;&gt;AFecesMet2</title>
<path fill="none" stroke="black" d="M295.24,-178.84C295.24,-151.06 295.24,-97.76 295.24,-64.7"/>
<polygon fill="black" stroke="black" points="298.74,-64.34 295.24,-54.34 291.74,-64.34 298.74,-64.34"/>
<text text-anchor="middle" x="310.74" y="-150.3" font-family="Times,serif" font-size="14.00">_J26</text>
</g>
</g>
</svg>
