<?xml version="1.0" encoding="UTF-8" standalone="no"?>
<!DOCTYPE svg PUBLIC "-//W3C//DTD SVG 1.1//EN"
 "http://www.w3.org/Graphics/SVG/1.1/DTD/svg11.dtd">
<!-- Generated by graphviz version 2.43.0 (0)
 -->
<!-- Title: %3 Pages: 1 -->
<svg width="504pt" height="287pt"
 viewBox="0.00 0.00 504.00 286.56" xmlns="http://www.w3.org/2000/svg" xmlns:xlink="http://www.w3.org/1999/xlink">
<g id="graph0" class="graph" transform="scale(0.39 0.39) rotate(0) translate(4 728)">
<title>%3</title>
<polygon fill="white" stroke="transparent" points="-4,4 -4,-728 1283.44,-728 1283.44,4 -4,4"/>
<g id="clust1" class="cluster">
<title>cluster_Stomach</title>
<g id="a_clust1"><a xlink:href="#compartment-Stomach" xlink:title="Stomach&#10;[PBPKO:00566]">
<path fill="lightblue" stroke="black" d="M198.01,-586C198.01,-586 346.3,-586 346.3,-586 352.3,-586 358.3,-592 358.3,-598 358.3,-598 358.3,-704 358.3,-704 358.3,-710 352.3,-716 346.3,-716 346.3,-716 198.01,-716 198.01,-716 192.01,-716 186.01,-710 186.01,-704 186.01,-704 186.01,-598 186.01,-598 186.01,-592 192.01,-586 198.01,-586"/>
<text text-anchor="middle" x="272.15" y="-700.8" font-family="Arial" font-size="14.00">Stomach</text>
<text text-anchor="middle" x="272.15" y="-685.8" font-family="Arial" font-size="14.00">[PBPKO:00566]</text>
</a>
</g>
</g>
<g id="clust2" class="cluster">
<title>cluster_SI</title>
<g id="a_clust2"><a xlink:href="#compartment-SI" xlink:title="SI&#10;[PBPKO:00472]">
<path fill="lightblue" stroke="black" d="M451.1,-334C451.1,-334 690.87,-334 690.87,-334 696.87,-334 702.87,-340 702.87,-346 702.87,-346 702.87,-541 702.87,-541 702.87,-547 696.87,-553 690.87,-553 690.87,-553 451.1,-553 451.1,-553 445.1,-553 439.1,-547 439.1,-541 439.1,-541 439.1,-346 439.1,-346 439.1,-340 445.1,-334 451.1,-334"/>
<text text-anchor="middle" x="570.99" y="-537.8" font-family="Arial" font-size="14.00">SI</text>
<text text-anchor="middle" x="570.99" y="-522.8" font-family="Arial" font-size="14.00">[PBPKO:00472]</text>
</a>
</g>
</g>
<g id="clust3" class="cluster">
<title>cluster_Liver</title>
<g id="a_clust3"><a xlink:href="#compartment-Liver" xlink:title="Liver&#10;[PBPKO:00558]">
<path fill="lightblue" stroke="black" d="M80.61,-171C80.61,-171 254.82,-171 254.82,-171 260.82,-171 266.82,-177 266.82,-183 266.82,-183 266.82,-289 266.82,-289 266.82,-295 260.82,-301 254.82,-301 254.82,-301 80.61,-301 80.61,-301 74.61,-301 68.61,-295 68.61,-289 68.61,-289 68.61,-183 68.61,-183 68.61,-177 74.61,-171 80.61,-171"/>
<text text-anchor="middle" x="167.71" y="-285.8" font-family="Arial" font-size="14.00">Liver</text>
<text text-anchor="middle" x="167.71" y="-270.8" font-family="Arial" font-size="14.00">[PBPKO:00558]</text>
</a>
</g>
</g>
<g id="clust4" class="cluster">
<title>cluster_Plasma</title>
<g id="a_clust4"><a xlink:href="#compartment-Plasma" xlink:title="Plasma&#10;[PBPKO:00488]">
<path fill="lightblue" stroke="black" d="M24.2,-8C24.2,-8 597.87,-8 597.87,-8 603.87,-8 609.87,-14 609.87,-20 609.87,-20 609.87,-126 609.87,-126 609.87,-132 603.87,-138 597.87,-138 597.87,-138 24.2,-138 24.2,-138 18.2,-138 12.2,-132 12.2,-126 12.2,-126 12.2,-20 12.2,-20 12.2,-14 18.2,-8 24.2,-8"/>
<text text-anchor="middle" x="311.03" y="-122.8" font-family="Arial" font-size="14.00">Plasma</text>
<text text-anchor="middle" x="311.03" y="-107.8" font-family="Arial" font-size="14.00">[PBPKO:00488]</text>
</a>
</g>
</g>
<g id="clust5" class="cluster">
<title>cluster_Rest</title>
<g id="a_clust5"><a xlink:href="#compartment-Rest" xlink:title="Rest&#10;[PBPKO:00450]">
<path fill="lightblue" stroke="black" d="M458.73,-171C458.73,-171 632.94,-171 632.94,-171 638.94,-171 644.94,-177 644.94,-183 644.94,-183 644.94,-289 644.94,-289 644.94,-295 638.94,-301 632.94,-301 632.94,-301 458.73,-301 458.73,-301 452.73,-301 446.73,-295 446.73,-289 446.73,-289 446.73,-183 446.73,-183 446.73,-177 452.73,-171 458.73,-171"/>
<text text-anchor="middle" x="545.83" y="-285.8" font-family="Arial" font-size="14.00">Rest</text>
<text text-anchor="middle" x="545.83" y="-270.8" font-family="Arial" font-size="14.00">[PBPKO:00450]</text>
</a>
</g>
</g>
<g id="clust6" class="cluster">
<title>cluster_GILumen</title>
<g id="a_clust6"><a xlink:href="#compartment-GILumen" xlink:title="GILumen&#10;[PBPKO:00478]">
<path fill="lightblue" stroke="black" d="M669.13,-171C669.13,-171 1242.8,-171 1242.8,-171 1248.8,-171 1254.8,-177 1254.8,-183 1254.8,-183 1254.8,-289 1254.8,-289 1254.8,-295 1248.8,-301 1242.8,-301 1242.8,-301 669.13,-301 669.13,-301 663.13,-301 657.13,-295 657.13,-289 657.13,-289 657.13,-183 657.13,-183 657.13,-177 663.13,-171 669.13,-171"/>
<text text-anchor="middle" x="955.97" y="-285.8" font-family="Arial" font-size="14.00">GILumen</text>
<text text-anchor="middle" x="955.97" y="-270.8" font-family="Arial" font-size="14.00">[PBPKO:00478]</text>
</a>
</g>
</g>
<g id="clust7" class="cluster">
<title>cluster_Feces</title>
<g id="a_clust7"><a xlink:href="#compartment-Feces" xlink:title="Feces&#10;[PBPKO:00555]">
<path fill="lightblue" stroke="black" d="M669.13,-8C669.13,-8 1242.8,-8 1242.8,-8 1248.8,-8 1254.8,-14 1254.8,-20 1254.8,-20 1254.8,-126 1254.8,-126 1254.8,-132 1248.8,-138 1242.8,-138 1242.8,-138 669.13,-138 669.13,-138 663.13,-138 657.13,-132 657.13,-126 657.13,-126 657.13,-20 657.13,-20 657.13,-14 663.13,-8 669.13,-8"/>
<text text-anchor="middle" x="955.97" y="-122.8" font-family="Arial" font-size="14.00">Feces</text>
<text text-anchor="middle" x="955.97" y="-107.8" font-family="Arial" font-size="14.00">[PBPKO:00555]</text>
</a>
</g>
</g>
<!-- ASt -->
<g id="node1" class="node">
<title>ASt</title>
<g id="a_node1"><a xlink:href="#species-ASt" xlink:title="ASt&#10;[&#45;]">
<path fill="gold" stroke="black" d="M286.79,-632C286.79,-632 256.79,-632 256.79,-632 250.79,-632 244.79,-626 244.79,-620 244.79,-620 244.79,-606 244.79,-606 244.79,-600 250.79,-594 256.79,-594 256.79,-594 286.79,-594 286.79,-594 292.79,-594 298.79,-600 298.79,-606 298.79,-606 298.79,-620 298.79,-620 298.79,-626 292.79,-632 286.79,-632"/>
<text text-anchor="middle" x="271.79" y="-616.8" font-family="Arial" font-size="14.00">ASt</text>
<text text-anchor="middle" x="271.79" y="-601.8" font-family="Arial" font-size="14.00">[&#45;]</text>
</a>
</g>
</g>
<!-- ASI -->
<g id="node2" class="node">
<title>ASI</title>
<g id="a_node2"><a xlink:href="#species-ASI" xlink:title="ASI&#10;[&#45;]">
<path fill="gold" stroke="black" d="M519.79,-469C519.79,-469 489.79,-469 489.79,-469 483.79,-469 477.79,-463 477.79,-457 477.79,-457 477.79,-443 477.79,-443 477.79,-437 483.79,-431 489.79,-431 489.79,-431 519.79,-431 519.79,-431 525.79,-431 531.79,-437 531.79,-443 531.79,-443 531.79,-457 531.79,-457 531.79,-463 525.79,-469 519.79,-469"/>
<text text-anchor="middle" x="504.79" y="-453.8" font-family="Arial" font-size="14.00">ASI</text>
<text text-anchor="middle" x="504.79" y="-438.8" font-family="Arial" font-size="14.00">[&#45;]</text>
</a>
</g>
</g>
<!-- ASt&#45;&gt;ASI -->
<g id="edge1" class="edge">
<title>ASt&#45;&gt;ASI</title>
<path fill="none" stroke="black" d="M298.06,-593.84C340.3,-564.66 423.32,-507.3 470.28,-474.85"/>
<polygon fill="black" stroke="black" points="472.37,-477.65 478.61,-469.09 468.39,-471.89 472.37,-477.65"/>
<text text-anchor="middle" x="350.79" y="-565.3" font-family="Times,serif" font-size="14.00">_J0</text>
</g>
<!-- ALiver -->
<g id="node5" class="node">
<title>ALiver</title>
<g id="a_node5"><a xlink:href="#species-ALiver" xlink:title="ALiver&#10;[PBPKO:00497]">
<path fill="gold" stroke="black" d="M212.29,-217C212.29,-217 123.29,-217 123.29,-217 117.29,-217 111.29,-211 111.29,-205 111.29,-205 111.29,-191 111.29,-191 111.29,-185 117.29,-179 123.29,-179 123.29,-179 212.29,-179 212.29,-179 218.29,-179 224.29,-185 224.29,-191 224.29,-191 224.29,-205 224.29,-205 224.29,-211 218.29,-217 212.29,-217"/>
<text text-anchor="middle" x="167.79" y="-201.8" font-family="Arial" font-size="14.00">ALiver</text>
<text text-anchor="middle" x="167.79" y="-186.8" font-family="Arial" font-size="14.00">[PBPKO:00497]</text>
</a>
</g>
</g>
<!-- ASt&#45;&gt;ALiver -->
<g id="edge2" class="edge">
<title>ASt&#45;&gt;ALiver</title>
<path fill="none" stroke="black" d="M267.25,-593.99C250.87,-528.91 194.64,-305.64 174.8,-226.82"/>
<polygon fill="black" stroke="black" points="178.18,-225.95 172.35,-217.11 171.4,-227.66 178.18,-225.95"/>
<text text-anchor="middle" x="231.79" y="-402.3" font-family="Times,serif" font-size="14.00">_J1</text>
</g>
<!-- ASIMet1 -->
<g id="node3" class="node">
<title>ASIMet1</title>
<g id="a_node3"><a xlink:href="#species-ASIMet1" xlink:title="ASIMet1&#10;[&#45;]">
<path fill="gold" stroke="black" d="M660.29,-380C660.29,-380 615.29,-380 615.29,-380 609.29,-380 603.29,-374 603.29,-368 603.29,-368 603.29,-354 603.29,-354 603.29,-348 609.29,-342 615.29,-342 615.29,-342 660.29,-342 660.29,-342 666.29,-342 672.29,-348 672.29,-354 672.29,-354 672.29,-368 672.29,-368 672.29,-374 666.29,-380 660.29,-380"/>
<text text-anchor="middle" x="637.79" y="-364.8" font-family="Arial" font-size="14.00">ASIMet1</text>
<text text-anchor="middle" x="637.79" y="-349.8" font-family="Arial" font-size="14.00">[&#45;]</text>
</a>
</g>
</g>
<!-- ASI&#45;&gt;ASIMet1 -->
<g id="edge3" class="edge">
<title>ASI&#45;&gt;ASIMet1</title>
<path fill="none" stroke="black" d="M532.02,-431.18C552.15,-418.02 579.76,-399.96 601.72,-385.6"/>
<polygon fill="black" stroke="black" points="603.68,-388.49 610.13,-380.09 599.85,-382.64 603.68,-388.49"/>
<text text-anchor="middle" x="589.79" y="-402.3" font-family="Times,serif" font-size="14.00">_J4</text>
</g>
<!-- ASIMet2 -->
<g id="node4" class="node">
<title>ASIMet2</title>
<g id="a_node4"><a xlink:href="#species-ASIMet2" xlink:title="ASIMet2&#10;[&#45;]">
<path fill="gold" stroke="black" d="M527.29,-380C527.29,-380 482.29,-380 482.29,-380 476.29,-380 470.29,-374 470.29,-368 470.29,-368 470.29,-354 470.29,-354 470.29,-348 476.29,-342 482.29,-342 482.29,-342 527.29,-342 527.29,-342 533.29,-342 539.29,-348 539.29,-354 539.29,-354 539.29,-368 539.29,-368 539.29,-374 533.29,-380 527.29,-380"/>
<text text-anchor="middle" x="504.79" y="-364.8" font-family="Arial" font-size="14.00">ASIMet2</text>
<text text-anchor="middle" x="504.79" y="-349.8" font-family="Arial" font-size="14.00">[&#45;]</text>
</a>
</g>
</g>
<!-- ASI&#45;&gt;ASIMet2 -->
<g id="edge4" class="edge">
<title>ASI&#45;&gt;ASIMet2</title>
<path fill="none" stroke="black" d="M504.79,-430.97C504.79,-419.19 504.79,-403.56 504.79,-390.16"/>
<polygon fill="black" stroke="black" points="508.29,-390 504.79,-380 501.29,-390 508.29,-390"/>
<text text-anchor="middle" x="515.79" y="-402.3" font-family="Times,serif" font-size="14.00">_J7</text>
</g>
<!-- ASI&#45;&gt;ALiver -->
<g id="edge5" class="edge">
<title>ASI&#45;&gt;ALiver</title>
<path fill="none" stroke="black" d="M477.6,-431.94C435.67,-405.32 353.12,-351.69 286.79,-301 254.16,-276.06 218.64,-245.07 194.98,-223.84"/>
<polygon fill="black" stroke="black" points="197.2,-221.13 187.43,-217.03 192.51,-226.33 197.2,-221.13"/>
<text text-anchor="middle" x="407.79" y="-357.3" font-family="Times,serif" font-size="14.00">_J2</text>
</g>
<!-- AFeces -->
<g id="node13" class="node">
<title>AFeces</title>
<g id="a_node13"><a xlink:href="#species-AFeces" xlink:title="AFeces&#10;[PBPKO:00273]">
<path fill="gold" stroke="black" d="M1200.29,-54C1200.29,-54 1111.29,-54 1111.29,-54 1105.29,-54 1099.29,-48 1099.29,-42 1099.29,-42 1099.29,-28 1099.29,-28 1099.29,-22 1105.29,-16 1111.29,-16 1111.29,-16 1200.29,-16 1200.29,-16 1206.29,-16 1212.29,-22 1212.29,-28 1212.29,-28 1212.29,-42 1212.29,-42 1212.29,-48 1206.29,-54 1200.29,-54"/>
<text text-anchor="middle" x="1155.79" y="-38.8" font-family="Arial" font-size="14.00">AFeces</text>
<text text-anchor="middle" x="1155.79" y="-23.8" font-family="Arial" font-size="14.00">[PBPKO:00273]</text>
</a>
</g>
</g>
<!-- ASI&#45;&gt;AFeces -->
<g id="edge6" class="edge">
<title>ASI&#45;&gt;AFeces</title>
<path fill="none" stroke="black" d="M531.91,-448.08C655.51,-443.28 1163.65,-416.63 1258.79,-301 1319.94,-226.68 1228.18,-111.83 1180.97,-61.32"/>
<polygon fill="black" stroke="black" points="1183.5,-58.9 1174.08,-54.06 1178.43,-63.72 1183.5,-58.9"/>
<text text-anchor="middle" x="1260.79" y="-313.3" font-family="Times,serif" font-size="14.00">_J3</text>
</g>
<!-- APlasmaMet1 -->
<g id="node7" class="node">
<title>APlasmaMet1</title>
<g id="a_node7"><a xlink:href="#species-APlasmaMet1" xlink:title="APlasmaMet1&#10;[PBPKO:00502]">
<path fill="gold" stroke="black" d="M555.29,-54C555.29,-54 466.29,-54 466.29,-54 460.29,-54 454.29,-48 454.29,-42 454.29,-42 454.29,-28 454.29,-28 454.29,-22 460.29,-16 466.29,-16 466.29,-16 555.29,-16 555.29,-16 561.29,-16 567.29,-22 567.29,-28 567.29,-28 567.29,-42 567.29,-42 567.29,-48 561.29,-54 555.29,-54"/>
<text text-anchor="middle" x="510.79" y="-38.8" font-family="Arial" font-size="14.00">APlasmaMet1</text>
<text text-anchor="middle" x="510.79" y="-23.8" font-family="Arial" font-size="14.00">[PBPKO:00502]</text>
</a>
</g>
</g>
<!-- ASIMet1&#45;&gt;APlasmaMet1 -->
<g id="edge7" class="edge">
<title>ASIMet1&#45;&gt;APlasmaMet1</title>
<path fill="none" stroke="black" d="M637.79,-341.69C636.73,-330.56 633.34,-317.08 623.79,-309.5 606.11,-295.46 436.42,-317.29 420.79,-301 380.8,-259.3 386.23,-217.31 420.79,-171 429.66,-159.11 441.57,-171.21 452.79,-161.5 482.21,-136.04 497.63,-92.51 504.98,-64"/>
<polygon fill="black" stroke="black" points="508.39,-64.77 507.33,-54.23 501.59,-63.13 508.39,-64.77"/>
<text text-anchor="middle" x="431.79" y="-194.3" font-family="Times,serif" font-size="14.00">_J5</text>
</g>
<!-- AGILumenMet1 -->
<g id="node11" class="node">
<title>AGILumenMet1</title>
<g id="a_node11"><a xlink:href="#species-AGILumenMet1" xlink:title="AGILumenMet1&#10;[PBPKO:00496]">
<path fill="gold" stroke="black" d="M1000.29,-217C1000.29,-217 911.29,-217 911.29,-217 905.29,-217 899.29,-211 899.29,-205 899.29,-205 899.29,-191 899.29,-191 899.29,-185 905.29,-179 911.29,-179 911.29,-179 1000.29,-179 1000.29,-179 1006.29,-179 1012.29,-185 1012.29,-191 1012.29,-191 1012.29,-205 1012.29,-205 1012.29,-211 1006.29,-217 1000.29,-217"/>
<text text-anchor="middle" x="955.79" y="-201.8" font-family="Arial" font-size="14.00">AGILumenMet1</text>
<text text-anchor="middle" x="955.79" y="-186.8" font-family="Arial" font-size="14.00">[PBPKO:00496]</text>
</a>
</g>
</g>
<!-- ASIMet1&#45;&gt;AGILumenMet1 -->
<g id="edge8" class="edge">
<title>ASIMet1&#45;&gt;AGILumenMet1</title>
<path fill="none" stroke="black" d="M672.4,-352.63C710.46,-343.7 772.7,-326.58 821.79,-301 862.2,-279.94 903.08,-246.71 928.88,-223.94"/>
<polygon fill="black" stroke="black" points="931.26,-226.51 936.38,-217.23 926.59,-221.29 931.26,-226.51"/>
<text text-anchor="middle" x="813.79" y="-313.3" font-family="Times,serif" font-size="14.00">_J6</text>
</g>
<!-- APlasmaMet2 -->
<g id="node8" class="node">
<title>APlasmaMet2</title>
<g id="a_node8"><a xlink:href="#species-APlasmaMet2" xlink:title="APlasmaMet2&#10;[PBPKO:00502]">
<path fill="gold" stroke="black" d="M355.29,-54C355.29,-54 266.29,-54 266.29,-54 260.29,-54 254.29,-48 254.29,-42 254.29,-42 254.29,-28 254.29,-28 254.29,-22 260.29,-16 266.29,-16 266.29,-16 355.29,-16 355.29,-16 361.29,-16 367.29,-22 367.29,-28 367.29,-28 367.29,-42 367.29,-42 367.29,-48 361.29,-54 355.29,-54"/>
<text text-anchor="middle" x="310.79" y="-38.8" font-family="Arial" font-size="14.00">APlasmaMet2</text>
<text text-anchor="middle" x="310.79" y="-23.8" font-family="Arial" font-size="14.00">[PBPKO:00502]</text>
</a>
</g>
</g>
<!-- ASIMet2&#45;&gt;APlasmaMet2 -->
<g id="edge9" class="edge">
<title>ASIMet2&#45;&gt;APlasmaMet2</title>
<path fill="none" stroke="black" d="M470.02,-357.37C426.33,-353.29 354.98,-343.82 337.79,-324.5 272.27,-250.9 291.21,-121.03 303.72,-64.09"/>
<polygon fill="black" stroke="black" points="307.2,-64.55 306.03,-54.02 300.38,-62.98 307.2,-64.55"/>
<text text-anchor="middle" x="330.79" y="-194.3" font-family="Times,serif" font-size="14.00">_J8</text>
</g>
<!-- AGILumenMet2 -->
<g id="node12" class="node">
<title>AGILumenMet2</title>
<g id="a_node12"><a xlink:href="#species-AGILumenMet2" xlink:title="AGILumenMet2&#10;[PBPKO:00496]">
<path fill="gold" stroke="black" d="M800.29,-217C800.29,-217 711.29,-217 711.29,-217 705.29,-217 699.29,-211 699.29,-205 699.29,-205 699.29,-191 699.29,-191 699.29,-185 705.29,-179 711.29,-179 711.29,-179 800.29,-179 800.29,-179 806.29,-179 812.29,-185 812.29,-191 812.29,-191 812.29,-205 812.29,-205 812.29,-211 806.29,-217 800.29,-217"/>
<text text-anchor="middle" x="755.79" y="-201.8" font-family="Arial" font-size="14.00">AGILumenMet2</text>
<text text-anchor="middle" x="755.79" y="-186.8" font-family="Arial" font-size="14.00">[PBPKO:00496]</text>
</a>
</g>
</g>
<!-- ASIMet2&#45;&gt;AGILumenMet2 -->
<g id="edge10" class="edge">
<title>ASIMet2&#45;&gt;AGILumenMet2</title>
<path fill="none" stroke="black" d="M539.42,-349.86C569.73,-340.06 614.22,-323.41 648.79,-301 681.73,-279.64 713.51,-247.39 733.75,-224.89"/>
<polygon fill="black" stroke="black" points="736.4,-227.18 740.41,-217.37 731.16,-222.54 736.4,-227.18"/>
<text text-anchor="middle" x="644.79" y="-313.3" font-family="Times,serif" font-size="14.00">_J9</text>
</g>
<!-- APlasma -->
<g id="node6" class="node">
<title>APlasma</title>
<g id="a_node6"><a xlink:href="#species-APlasma" xlink:title="APlasma&#10;[PBPKO:00502]">
<path fill="gold" stroke="black" d="M156.29,-54C156.29,-54 67.29,-54 67.29,-54 61.29,-54 55.29,-48 55.29,-42 55.29,-42 55.29,-28 55.29,-28 55.29,-22 61.29,-16 67.29,-16 67.29,-16 156.29,-16 156.29,-16 162.29,-16 168.29,-22 168.29,-28 168.29,-28 168.29,-42 168.29,-42 168.29,-48 162.29,-54 156.29,-54"/>
<text text-anchor="middle" x="111.79" y="-38.8" font-family="Arial" font-size="14.00">APlasma</text>
<text text-anchor="middle" x="111.79" y="-23.8" font-family="Arial" font-size="14.00">[PBPKO:00502]</text>
</a>
</g>
</g>
<!-- ALiver&#45;&gt;APlasma -->
<g id="edge11" class="edge">
<title>ALiver&#45;&gt;APlasma</title>
<path fill="none" stroke="black" d="M120.75,-178.87C113.98,-174.23 107.92,-168.51 103.79,-161.5 86.21,-131.64 93.5,-90.56 101.59,-63.66"/>
<polygon fill="black" stroke="black" points="104.93,-64.68 104.67,-54.09 98.27,-62.53 104.93,-64.68"/>
<text text-anchor="middle" x="119.29" y="-150.3" font-family="Times,serif" font-size="14.00">_J15</text>
</g>
<!-- ALiver&#45;&gt;APlasmaMet1 -->
<g id="edge12" class="edge">
<title>ALiver&#45;&gt;APlasmaMet1</title>
<path fill="none" stroke="black" d="M224.29,-183.24C244.25,-178.78 266.93,-174.17 287.79,-171 311.39,-167.41 373.36,-172.03 394.79,-161.5 439.44,-139.57 475.36,-92.53 494.83,-62.69"/>
<polygon fill="black" stroke="black" points="497.93,-64.34 500.34,-54.02 492.02,-60.58 497.93,-64.34"/>
<text text-anchor="middle" x="433.29" y="-150.3" font-family="Times,serif" font-size="14.00">_J10</text>
</g>
<!-- ALiver&#45;&gt;APlasmaMet2 -->
<g id="edge13" class="edge">
<title>ALiver&#45;&gt;APlasmaMet2</title>
<path fill="none" stroke="black" d="M183.92,-178.84C209.23,-150.34 258.42,-94.96 287.55,-62.16"/>
<polygon fill="black" stroke="black" points="290.48,-64.14 294.5,-54.34 285.25,-59.49 290.48,-64.14"/>
<text text-anchor="middle" x="225.29" y="-150.3" font-family="Times,serif" font-size="14.00">_J12</text>
</g>
<!-- ALiver&#45;&gt;AGILumenMet1 -->
<g id="edge14" class="edge">
<title>ALiver&#45;&gt;AGILumenMet1</title>
<path fill="none" stroke="black" d="M184.15,-217.02C205.34,-240.04 244.69,-277.57 287.79,-292.5 399.92,-331.35 708.68,-328.37 821.79,-292.5 864.09,-279.09 904.55,-246.97 929.74,-223.9"/>
<polygon fill="black" stroke="black" points="932.14,-226.45 937.05,-217.07 927.36,-221.34 932.14,-226.45"/>
<text text-anchor="middle" x="466.79" y="-313.3" font-family="Times,serif" font-size="14.00">_J11</text>
</g>
<!-- ALiver&#45;&gt;AGILumenMet2 -->
<g id="edge15" class="edge">
<title>ALiver&#45;&gt;AGILumenMet2</title>
<path fill="none" stroke="black" d="M184.15,-217.02C205.34,-240.04 244.69,-277.57 287.79,-292.5 363.59,-318.76 573.76,-320.89 648.79,-292.5 684.09,-279.14 715.26,-248.23 734.72,-225.38"/>
<polygon fill="black" stroke="black" points="737.67,-227.31 741.34,-217.38 732.27,-222.85 737.67,-227.31"/>
<text text-anchor="middle" x="411.79" y="-313.3" font-family="Times,serif" font-size="14.00">_J13</text>
</g>
<!-- APlasma&#45;&gt;ALiver -->
<g id="edge16" class="edge">
<title>APlasma&#45;&gt;ALiver</title>
<path fill="none" stroke="black" d="M94.15,-54.43C71.69,-80.21 38.52,-127.67 62.79,-161.5 72.04,-174.39 86.22,-182.66 101.2,-187.95"/>
<polygon fill="black" stroke="black" points="100.52,-191.4 111.11,-191.01 102.59,-184.71 100.52,-191.4"/>
<text text-anchor="middle" x="78.29" y="-150.3" font-family="Times,serif" font-size="14.00">_J14</text>
</g>
<!-- ARest -->
<g id="node9" class="node">
<title>ARest</title>
<g id="a_node9"><a xlink:href="#species-ARest" xlink:title="ARest&#10;[PBPKO:00501]">
<path fill="gold" stroke="black" d="M590.29,-217C590.29,-217 501.29,-217 501.29,-217 495.29,-217 489.29,-211 489.29,-205 489.29,-205 489.29,-191 489.29,-191 489.29,-185 495.29,-179 501.29,-179 501.29,-179 590.29,-179 590.29,-179 596.29,-179 602.29,-185 602.29,-191 602.29,-191 602.29,-205 602.29,-205 602.29,-211 596.29,-217 590.29,-217"/>
<text text-anchor="middle" x="545.79" y="-201.8" font-family="Arial" font-size="14.00">ARest</text>
<text text-anchor="middle" x="545.79" y="-186.8" font-family="Arial" font-size="14.00">[PBPKO:00501]</text>
</a>
</g>
</g>
<!-- APlasma&#45;&gt;ARest -->
<g id="edge17" class="edge">
<title>APlasma&#45;&gt;ARest</title>
<path fill="none" stroke="black" d="M129.97,-54.21C154.22,-77.38 199.48,-116.93 245.79,-138 319.03,-171.32 344.61,-156.7 423.79,-171 441.86,-174.26 461.35,-178.22 479.33,-182.05"/>
<polygon fill="black" stroke="black" points="478.63,-185.48 489.14,-184.16 480.1,-178.63 478.63,-185.48"/>
<text text-anchor="middle" x="344.29" y="-150.3" font-family="Times,serif" font-size="14.00">_J16</text>
</g>
<!-- ARest&#45;&gt;APlasma -->
<g id="edge18" class="edge">
<title>ARest&#45;&gt;APlasma</title>
<path fill="none" stroke="black" d="M489.03,-182.77C468.6,-178.22 445.28,-173.67 423.79,-171 395.43,-167.48 190.42,-177.57 166.79,-161.5 134.56,-139.57 121.05,-94.29 115.51,-64.54"/>
<polygon fill="black" stroke="black" points="118.91,-63.64 113.81,-54.36 112,-64.8 118.91,-63.64"/>
<text text-anchor="middle" x="182.29" y="-150.3" font-family="Times,serif" font-size="14.00">_J17</text>
</g>
<!-- AGILumen -->
<g id="node10" class="node">
<title>AGILumen</title>
<g id="a_node10"><a xlink:href="#species-AGILumen" xlink:title="AGILumen&#10;[PBPKO:00496]">
<path fill="gold" stroke="black" d="M1200.29,-217C1200.29,-217 1111.29,-217 1111.29,-217 1105.29,-217 1099.29,-211 1099.29,-205 1099.29,-205 1099.29,-191 1099.29,-191 1099.29,-185 1105.29,-179 1111.29,-179 1111.29,-179 1200.29,-179 1200.29,-179 1206.29,-179 1212.29,-185 1212.29,-191 1212.29,-191 1212.29,-205 1212.29,-205 1212.29,-211 1206.29,-217 1200.29,-217"/>
<text text-anchor="middle" x="1155.79" y="-201.8" font-family="Arial" font-size="14.00">AGILumen</text>
<text text-anchor="middle" x="1155.79" y="-186.8" font-family="Arial" font-size="14.00">[PBPKO:00496]</text>
</a>
</g>
</g>
<!-- AGILumenMet1&#45;&gt;ALiver -->
<g id="edge19" class="edge">
<title>AGILumenMet1&#45;&gt;ALiver</title>
<path fill="none" stroke="black" d="M937.05,-217.07C912.91,-240.13 868.46,-277.7 821.79,-292.5 708.68,-328.37 399.92,-331.35 287.79,-292.5 249.07,-279.08 213.37,-247.43 191.15,-224.45"/>
<polygon fill="black" stroke="black" points="193.56,-221.9 184.15,-217.02 188.47,-226.7 193.56,-221.9"/>
<text text-anchor="middle" x="521.79" y="-313.3" font-family="Times,serif" font-size="14.00">_J20</text>
</g>
<!-- AGILumenMet1&#45;&gt;APlasmaMet1 -->
<g id="edge20" class="edge">
<title>AGILumenMet1&#45;&gt;APlasmaMet1</title>
<path fill="none" stroke="black" d="M907.44,-178.9C874.94,-167.56 830.88,-153.76 790.79,-146.5 760.56,-141.02 681.73,-148.31 652.79,-138 606.99,-121.68 562.91,-85.85 536.33,-61.31"/>
<polygon fill="black" stroke="black" points="538.66,-58.71 528.98,-54.41 533.87,-63.81 538.66,-58.71"/>
<text text-anchor="middle" x="865.29" y="-150.3" font-family="Times,serif" font-size="14.00">_J18</text>
</g>
<!-- AFecesMet1 -->
<g id="node14" class="node">
<title>AFecesMet1</title>
<g id="a_node14"><a xlink:href="#species-AFecesMet1" xlink:title="AFecesMet1&#10;[PBPKO:00273]">
<path fill="gold" stroke="black" d="M1000.29,-54C1000.29,-54 911.29,-54 911.29,-54 905.29,-54 899.29,-48 899.29,-42 899.29,-42 899.29,-28 899.29,-28 899.29,-22 905.29,-16 911.29,-16 911.29,-16 1000.29,-16 1000.29,-16 1006.29,-16 1012.29,-22 1012.29,-28 1012.29,-28 1012.29,-42 1012.29,-42 1012.29,-48 1006.29,-54 1000.29,-54"/>
<text text-anchor="middle" x="955.79" y="-38.8" font-family="Arial" font-size="14.00">AFecesMet1</text>
<text text-anchor="middle" x="955.79" y="-23.8" font-family="Arial" font-size="14.00">[PBPKO:00273]</text>
</a>
</g>
</g>
<!-- AGILumenMet1&#45;&gt;AFecesMet1 -->
<g id="edge21" class="edge">
<title>AGILumenMet1&#45;&gt;AFecesMet1</title>
<path fill="none" stroke="black" d="M955.79,-178.84C955.79,-151.06 955.79,-97.76 955.79,-64.7"/>
<polygon fill="black" stroke="black" points="959.29,-64.34 955.79,-54.34 952.29,-64.34 959.29,-64.34"/>
<text text-anchor="middle" x="971.29" y="-150.3" font-family="Times,serif" font-size="14.00">_J19</text>
</g>
<!-- AGILumenMet2&#45;&gt;ALiver -->
<g id="edge22" class="edge">
<title>AGILumenMet2&#45;&gt;ALiver</title>
<path fill="none" stroke="black" d="M741.34,-217.38C722.85,-240.38 688.43,-277.5 648.79,-292.5 573.76,-320.89 363.59,-318.76 287.79,-292.5 249.07,-279.08 213.37,-247.43 191.15,-224.45"/>
<polygon fill="black" stroke="black" points="193.56,-221.9 184.15,-217.02 188.47,-226.7 193.56,-221.9"/>
<text text-anchor="middle" x="356.79" y="-313.3" font-family="Times,serif" font-size="14.00">_J23</text>
</g>
<!-- AGILumenMet2&#45;&gt;APlasmaMet2 -->
<g id="edge23" class="edge">
<title>AGILumenMet2&#45;&gt;APlasmaMet2</title>
<path fill="none" stroke="black" d="M699.05,-182.35C682.87,-178.41 665.18,-174.32 648.79,-171 559.2,-152.86 529.83,-173.94 445.79,-138 402.95,-119.68 361.38,-84.91 335.95,-61.11"/>
<polygon fill="black" stroke="black" points="338.24,-58.46 328.59,-54.1 333.42,-63.53 338.24,-58.46"/>
<text text-anchor="middle" x="567.29" y="-150.3" font-family="Times,serif" font-size="14.00">_J21</text>
</g>
<!-- AFecesMet2 -->
<g id="node15" class="node">
<title>AFecesMet2</title>
<g id="a_node15"><a xlink:href="#species-AFecesMet2" xlink:title="AFecesMet2&#10;[PBPKO:00273]">
<path fill="gold" stroke="black" d="M800.29,-54C800.29,-54 711.29,-54 711.29,-54 705.29,-54 699.29,-48 699.29,-42 699.29,-42 699.29,-28 699.29,-28 699.29,-22 705.29,-16 711.29,-16 711.29,-16 800.29,-16 800.29,-16 806.29,-16 812.29,-22 812.29,-28 812.29,-28 812.29,-42 812.29,-42 812.29,-48 806.29,-54 800.29,-54"/>
<text text-anchor="middle" x="755.79" y="-38.8" font-family="Arial" font-size="14.00">AFecesMet2</text>
<text text-anchor="middle" x="755.79" y="-23.8" font-family="Arial" font-size="14.00">[PBPKO:00273]</text>
</a>
</g>
</g>
<!-- AGILumenMet2&#45;&gt;AFecesMet2 -->
<g id="edge24" class="edge">
<title>AGILumenMet2&#45;&gt;AFecesMet2</title>
<path fill="none" stroke="black" d="M755.79,-178.84C755.79,-151.06 755.79,-97.76 755.79,-64.7"/>
<polygon fill="black" stroke="black" points="759.29,-64.34 755.79,-54.34 752.29,-64.34 759.29,-64.34"/>
<text text-anchor="middle" x="771.29" y="-150.3" font-family="Times,serif" font-size="14.00">_J22</text>
</g>
</g>
</svg>
