<?xml version="1.0" encoding="UTF-8" standalone="no"?>
<!DOCTYPE svg PUBLIC "-//W3C//DTD SVG 1.1//EN"
 "http://www.w3.org/Graphics/SVG/1.1/DTD/svg11.dtd">
<!-- Generated by graphviz version 2.43.0 (0)
 -->
<!-- Title: %3 Pages: 1 -->
<svg width="500pt" height="288pt"
 viewBox="0.00 0.00 500.48 288.00" xmlns="http://www.w3.org/2000/svg" xmlns:xlink="http://www.w3.org/1999/xlink">
<g id="graph0" class="graph" transform="scale(0.59 0.59) rotate(0) translate(4 487)">
<title>%3</title>
<polygon fill="white" stroke="transparent" points="-4,4 -4,-487 849.25,-487 849.25,4 -4,4"/>
<g id="clust1" class="cluster">
<title>cluster_default_compartment</title>
<g id="a_clust1"><a xlink:href="#compartment-default_compartment" xlink:title="default_compartment&#10;[&#45;]">
<path fill="lightblue" stroke="black" d="M45.07,-8C45.07,-8 553.95,-8 553.95,-8 559.95,-8 565.95,-14 565.95,-20 565.95,-20 565.95,-88 565.95,-88 565.95,-94 559.95,-100 553.95,-100 553.95,-100 45.07,-100 45.07,-100 39.07,-100 33.07,-94 33.07,-88 33.07,-88 33.07,-20 33.07,-20 33.07,-14 39.07,-8 45.07,-8"/>
<text text-anchor="middle" x="299.51" y="-84.8" font-family="Arial" font-size="14.00">default_compartment</text>
<text text-anchor="middle" x="299.51" y="-69.8" font-family="Arial" font-size="14.00">[&#45;]</text>
</a>
</g>
</g>
<g id="clust2" class="cluster">
<title>cluster_Skin</title>
<g id="a_clust2"><a xlink:href="#compartment-Skin" xlink:title="Skin&#10;[&#45;]">
<path fill="lightblue" stroke="black" d="M56.1,-383C56.1,-383 289.35,-383 289.35,-383 295.35,-383 301.35,-389 301.35,-395 301.35,-395 301.35,-463 301.35,-463 301.35,-469 295.35,-475 289.35,-475 289.35,-475 56.1,-475 56.1,-475 50.1,-475 44.1,-469 44.1,-463 44.1,-463 44.1,-395 44.1,-395 44.1,-389 50.1,-383 56.1,-383"/>
<text text-anchor="middle" x="172.72" y="-459.8" font-family="Arial" font-size="14.00">Skin</text>
<text text-anchor="middle" x="172.72" y="-444.8" font-family="Arial" font-size="14.00">[&#45;]</text>
</a>
</g>
</g>
<g id="clust3" class="cluster">
<title>cluster_Blood</title>
<g id="a_clust3"><a xlink:href="#compartment-Blood" xlink:title="Blood&#10;[&#45;]">
<path fill="lightblue" stroke="black" d="M177.37,-258C177.37,-258 432.67,-258 432.67,-258 438.67,-258 444.67,-264 444.67,-270 444.67,-270 444.67,-338 444.67,-338 444.67,-344 438.67,-350 432.67,-350 432.67,-350 177.38,-350 177.38,-350 171.38,-350 165.37,-344 165.37,-338 165.37,-338 165.37,-270 165.37,-270 165.37,-264 171.37,-258 177.37,-258"/>
<text text-anchor="middle" x="305.02" y="-334.8" font-family="Arial" font-size="14.00">Blood</text>
<text text-anchor="middle" x="305.02" y="-319.8" font-family="Arial" font-size="14.00">[&#45;]</text>
</a>
</g>
</g>
<g id="clust4" class="cluster">
<title>cluster_RestOfBody</title>
<g id="a_clust4"><a xlink:href="#compartment-RestOfBody" xlink:title="RestOfBody&#10;[&#45;]">
<path fill="lightblue" stroke="black" d="M41.4,-133C41.4,-133 348.15,-133 348.15,-133 354.15,-133 360.15,-139 360.15,-145 360.15,-145 360.15,-213 360.15,-213 360.15,-219 354.15,-225 348.15,-225 348.15,-225 41.4,-225 41.4,-225 35.4,-225 29.4,-219 29.4,-213 29.4,-213 29.4,-145 29.4,-145 29.4,-139 35.4,-133 41.4,-133"/>
<text text-anchor="middle" x="194.77" y="-209.8" font-family="Arial" font-size="14.00">RestOfBody</text>
<text text-anchor="middle" x="194.77" y="-194.8" font-family="Arial" font-size="14.00">[&#45;]</text>
</a>
</g>
</g>
<g id="clust5" class="cluster">
<title>cluster_UrinaryExcretion</title>
<g id="a_clust5"><a xlink:href="#compartment-UrinaryExcretion" xlink:title="UrinaryExcretion&#10;[&#45;]">
<path fill="lightblue" stroke="black" d="M401.55,-133C401.55,-133 803.85,-133 803.85,-133 809.85,-133 815.85,-139 815.85,-145 815.85,-145 815.85,-213 815.85,-213 815.85,-219 809.85,-225 803.85,-225 803.85,-225 401.55,-225 401.55,-225 395.55,-225 389.55,-219 389.55,-213 389.55,-213 389.55,-145 389.55,-145 389.55,-139 395.55,-133 401.55,-133"/>
<text text-anchor="middle" x="602.7" y="-209.8" font-family="Arial" font-size="14.00">UrinaryExcretion</text>
<text text-anchor="middle" x="602.7" y="-194.8" font-family="Arial" font-size="14.00">[&#45;]</text>
</a>
</g>
</g>
<!-- ABloodn -->
<g id="node1" class="node">
<title>ABloodn</title>
<g id="a_node1"><a xlink:href="#species-ABloodn" xlink:title="ABloodn&#10;[&#45;]">
<path fill="gold" stroke="black" d="M253.38,-54C253.38,-54 209.37,-54 209.37,-54 203.37,-54 197.37,-48 197.37,-42 197.37,-42 197.37,-28 197.37,-28 197.37,-22 203.37,-16 209.37,-16 209.37,-16 253.38,-16 253.38,-16 259.38,-16 265.38,-22 265.38,-28 265.38,-28 265.38,-42 265.38,-42 265.38,-48 259.38,-54 253.38,-54"/>
<text text-anchor="middle" x="231.37" y="-38.8" font-family="Arial" font-size="14.00">ABloodn</text>
<text text-anchor="middle" x="231.37" y="-23.8" font-family="Arial" font-size="14.00">[&#45;]</text>
</a>
</g>
</g>
<!-- ASkin -->
<g id="node2" class="node">
<title>ASkin</title>
<g id="a_node2"><a xlink:href="#species-ASkin" xlink:title="ASkin&#10;[&#45;]">
<path fill="gold" stroke="black" d="M187.37,-429C187.37,-429 157.37,-429 157.37,-429 151.37,-429 145.37,-423 145.37,-417 145.37,-417 145.37,-403 145.37,-403 145.37,-397 151.37,-391 157.37,-391 157.37,-391 187.37,-391 187.37,-391 193.37,-391 199.37,-397 199.37,-403 199.37,-403 199.37,-417 199.37,-417 199.37,-423 193.37,-429 187.37,-429"/>
<text text-anchor="middle" x="172.37" y="-413.8" font-family="Arial" font-size="14.00">ASkin</text>
<text text-anchor="middle" x="172.37" y="-398.8" font-family="Arial" font-size="14.00">[&#45;]</text>
</a>
</g>
</g>
<!-- ABlood -->
<g id="node3" class="node">
<title>ABlood</title>
<g id="a_node3"><a xlink:href="#species-ABlood" xlink:title="ABlood&#10;[&#45;]">
<path fill="gold" stroke="black" d="M323.38,-304C323.38,-304 287.38,-304 287.38,-304 281.38,-304 275.38,-298 275.38,-292 275.38,-292 275.38,-278 275.38,-278 275.38,-272 281.38,-266 287.38,-266 287.38,-266 323.38,-266 323.38,-266 329.38,-266 335.38,-272 335.38,-278 335.38,-278 335.38,-292 335.38,-292 335.38,-298 329.38,-304 323.38,-304"/>
<text text-anchor="middle" x="305.38" y="-288.8" font-family="Arial" font-size="14.00">ABlood</text>
<text text-anchor="middle" x="305.38" y="-273.8" font-family="Arial" font-size="14.00">[&#45;]</text>
</a>
</g>
</g>
<!-- ASkin&#45;&gt;ABlood -->
<g id="edge1" class="edge">
<title>ASkin&#45;&gt;ABlood</title>
<path fill="none" stroke="black" d="M192,-390.85C214.79,-369.78 252.52,-334.88 278.14,-311.19"/>
<polygon fill="black" stroke="black" points="280.7,-313.58 285.67,-304.22 275.95,-308.44 280.7,-313.58"/>
<text text-anchor="middle" x="236.37" y="-362.3" font-family="Times,serif" font-size="14.00">R2</text>
</g>
<!-- ABlood&#45;&gt;ASkin -->
<g id="edge2" class="edge">
<title>ABlood&#45;&gt;ASkin</title>
<path fill="none" stroke="black" d="M297.75,-304.28C288.87,-323.67 272.53,-354.13 250.37,-373.5 238.45,-383.92 222.96,-391.82 208.93,-397.48"/>
<polygon fill="black" stroke="black" points="207.62,-394.23 199.51,-401.05 210.1,-400.78 207.62,-394.23"/>
<text text-anchor="middle" x="273.38" y="-362.3" font-family="Times,serif" font-size="14.00">R1</text>
</g>
<!-- ARest -->
<g id="node4" class="node">
<title>ARest</title>
<g id="a_node4"><a xlink:href="#species-ARest" xlink:title="ARest&#10;[&#45;]">
<path fill="gold" stroke="black" d="M246.38,-179C246.38,-179 216.37,-179 216.37,-179 210.37,-179 204.37,-173 204.37,-167 204.37,-167 204.37,-153 204.37,-153 204.37,-147 210.37,-141 216.37,-141 216.37,-141 246.38,-141 246.38,-141 252.38,-141 258.38,-147 258.38,-153 258.38,-153 258.38,-167 258.38,-167 258.38,-173 252.38,-179 246.38,-179"/>
<text text-anchor="middle" x="231.37" y="-163.8" font-family="Arial" font-size="14.00">ARest</text>
<text text-anchor="middle" x="231.37" y="-148.8" font-family="Arial" font-size="14.00">[&#45;]</text>
</a>
</g>
</g>
<!-- ABlood&#45;&gt;ARest -->
<g id="edge3" class="edge">
<title>ABlood&#45;&gt;ARest</title>
<path fill="none" stroke="black" d="M294.46,-265.85C282.1,-245.32 261.86,-211.68 247.65,-188.05"/>
<polygon fill="black" stroke="black" points="250.49,-185.99 242.34,-179.22 244.49,-189.6 250.49,-185.99"/>
<text text-anchor="middle" x="293.38" y="-237.3" font-family="Times,serif" font-size="14.00">R3</text>
</g>
<!-- AUrine -->
<g id="node5" class="node">
<title>AUrine</title>
<g id="a_node5"><a xlink:href="#species-AUrine" xlink:title="AUrine&#10;[&#45;]">
<path fill="gold" stroke="black" d="M542.38,-179C542.38,-179 508.38,-179 508.38,-179 502.38,-179 496.38,-173 496.38,-167 496.38,-167 496.38,-153 496.38,-153 496.38,-147 502.38,-141 508.38,-141 508.38,-141 542.38,-141 542.38,-141 548.38,-141 554.38,-147 554.38,-153 554.38,-153 554.38,-167 554.38,-167 554.38,-173 548.38,-179 542.38,-179"/>
<text text-anchor="middle" x="525.38" y="-163.8" font-family="Arial" font-size="14.00">AUrine</text>
<text text-anchor="middle" x="525.38" y="-148.8" font-family="Arial" font-size="14.00">[&#45;]</text>
</a>
</g>
</g>
<!-- ABlood&#45;&gt;AUrine -->
<g id="edge4" class="edge">
<title>ABlood&#45;&gt;AUrine</title>
<path fill="none" stroke="black" d="M335.5,-267.16C375.06,-245.04 444.5,-206.22 487.54,-182.15"/>
<polygon fill="black" stroke="black" points="489.29,-185.19 496.31,-177.25 485.87,-179.08 489.29,-185.19"/>
<text text-anchor="middle" x="405.38" y="-237.3" font-family="Times,serif" font-size="14.00">R5</text>
</g>
<!-- ARest&#45;&gt;ABloodn -->
<g id="edge5" class="edge">
<title>ARest&#45;&gt;ABloodn</title>
<path fill="none" stroke="black" d="M231.37,-140.85C231.37,-120.68 231.37,-87.86 231.37,-64.31"/>
<polygon fill="black" stroke="black" points="234.88,-64.22 231.37,-54.22 227.88,-64.22 234.88,-64.22"/>
<text text-anchor="middle" x="241.37" y="-112.3" font-family="Times,serif" font-size="14.00">R4</text>
</g>
</g>
</svg>
