<?xml version="1.0" encoding="UTF-8" standalone="no"?>
<!DOCTYPE svg PUBLIC "-//W3C//DTD SVG 1.1//EN"
 "http://www.w3.org/Graphics/SVG/1.1/DTD/svg11.dtd">
<!-- Generated by graphviz version 2.43.0 (0)
 -->
<!-- Title: %3 Pages: 1 -->
<svg width="499pt" height="288pt"
 viewBox="0.00 0.00 499.28 288.00" xmlns="http://www.w3.org/2000/svg" xmlns:xlink="http://www.w3.org/1999/xlink">
<g id="graph0" class="graph" transform="scale(0.79 0.79) rotate(0) translate(4 362)">
<title>%3</title>
<polygon fill="white" stroke="transparent" points="-4,4 -4,-362 630.5,-362 630.5,4 -4,4"/>
<g id="clust1" class="cluster">
<title>cluster_Liver</title>
<g id="a_clust1"><a xlink:href="#compartment-Liver" xlink:title="Liver&#10;[&#45;]">
<path fill="lightblue" stroke="black" d="M65.94,-258C65.94,-258 581.31,-258 581.31,-258 587.31,-258 593.31,-264 593.31,-270 593.31,-270 593.31,-338 593.31,-338 593.31,-344 587.31,-350 581.31,-350 581.31,-350 65.94,-350 65.94,-350 59.94,-350 53.94,-344 53.94,-338 53.94,-338 53.94,-270 53.94,-270 53.94,-264 59.94,-258 65.94,-258"/>
<text text-anchor="middle" x="323.62" y="-334.8" font-family="Arial" font-size="14.00">Liver</text>
<text text-anchor="middle" x="323.62" y="-319.8" font-family="Arial" font-size="14.00">[&#45;]</text>
</a>
</g>
</g>
<g id="clust2" class="cluster">
<title>cluster_Blood</title>
<g id="a_clust2"><a xlink:href="#compartment-Blood" xlink:title="Blood&#10;[PBPKO:00464]">
<path fill="lightblue" stroke="black" d="M82.53,-133C82.53,-133 527.37,-133 527.37,-133 533.37,-133 539.37,-139 539.37,-145 539.37,-145 539.37,-213 539.37,-213 539.37,-219 533.37,-225 527.37,-225 527.37,-225 82.53,-225 82.53,-225 76.53,-225 70.53,-219 70.53,-213 70.53,-213 70.53,-145 70.53,-145 70.53,-139 76.53,-133 82.53,-133"/>
<text text-anchor="middle" x="304.95" y="-209.8" font-family="Arial" font-size="14.00">Blood</text>
<text text-anchor="middle" x="304.95" y="-194.8" font-family="Arial" font-size="14.00">[PBPKO:00464]</text>
</a>
</g>
</g>
<g id="clust3" class="cluster">
<title>cluster_Rest</title>
<g id="a_clust3"><a xlink:href="#compartment-Rest" xlink:title="Rest&#10;[PBPKO:00450]">
<path fill="lightblue" stroke="black" d="M45.19,-8C45.19,-8 560.56,-8 560.56,-8 566.56,-8 572.56,-14 572.56,-20 572.56,-20 572.56,-88 572.56,-88 572.56,-94 566.56,-100 560.56,-100 560.56,-100 45.19,-100 45.19,-100 39.19,-100 33.19,-94 33.19,-88 33.19,-88 33.19,-20 33.19,-20 33.19,-14 39.19,-8 45.19,-8"/>
<text text-anchor="middle" x="302.88" y="-84.8" font-family="Arial" font-size="14.00">Rest</text>
<text text-anchor="middle" x="302.88" y="-69.8" font-family="Arial" font-size="14.00">[PBPKO:00450]</text>
</a>
</g>
</g>
<!-- ALiver -->
<g id="node1" class="node">
<title>ALiver</title>
<g id="a_node1"><a xlink:href="#species-ALiver" xlink:title="ALiver&#10;[PBPKO:00497]">
<path fill="gold" stroke="black" d="M367.95,-304C367.95,-304 278.95,-304 278.95,-304 272.95,-304 266.95,-298 266.95,-292 266.95,-292 266.95,-278 266.95,-278 266.95,-272 272.95,-266 278.95,-266 278.95,-266 367.95,-266 367.95,-266 373.95,-266 379.95,-272 379.95,-278 379.95,-278 379.95,-292 379.95,-292 379.95,-298 373.95,-304 367.95,-304"/>
<text text-anchor="middle" x="323.45" y="-288.8" font-family="Arial" font-size="14.00">ALiver</text>
<text text-anchor="middle" x="323.45" y="-273.8" font-family="Arial" font-size="14.00">[PBPKO:00497]</text>
</a>
</g>
</g>
<!-- ABlood -->
<g id="node2" class="node">
<title>ABlood</title>
<g id="a_node2"><a xlink:href="#species-ABlood" xlink:title="ABlood&#10;[&#45;]">
<path fill="gold" stroke="black" d="M275.45,-179C275.45,-179 239.45,-179 239.45,-179 233.45,-179 227.45,-173 227.45,-167 227.45,-167 227.45,-153 227.45,-153 227.45,-147 233.45,-141 239.45,-141 239.45,-141 275.45,-141 275.45,-141 281.45,-141 287.45,-147 287.45,-153 287.45,-153 287.45,-167 287.45,-167 287.45,-173 281.45,-179 275.45,-179"/>
<text text-anchor="middle" x="257.45" y="-163.8" font-family="Arial" font-size="14.00">ABlood</text>
<text text-anchor="middle" x="257.45" y="-148.8" font-family="Arial" font-size="14.00">[&#45;]</text>
</a>
</g>
</g>
<!-- ALiver&#45;&gt;ABlood -->
<g id="edge1" class="edge">
<title>ALiver&#45;&gt;ABlood</title>
<path fill="none" stroke="black" d="M313.71,-265.85C302.7,-245.32 284.64,-211.68 271.96,-188.05"/>
<polygon fill="black" stroke="black" points="275.04,-186.38 267.23,-179.22 268.87,-189.69 275.04,-186.38"/>
<text text-anchor="middle" x="314.45" y="-237.3" font-family="Times,serif" font-size="14.00">_J0</text>
</g>
<!-- ABlood&#45;&gt;ALiver -->
<g id="edge2" class="edge">
<title>ABlood&#45;&gt;ALiver</title>
<path fill="none" stroke="black" d="M284.02,-179.15C300.51,-192.13 320.26,-211.2 329.45,-233.5 332.29,-240.38 332.6,-248.2 331.76,-255.6"/>
<polygon fill="black" stroke="black" points="328.28,-255.17 329.92,-265.64 335.16,-256.43 328.28,-255.17"/>
<text text-anchor="middle" x="342.45" y="-237.3" font-family="Times,serif" font-size="14.00">_J1</text>
</g>
<!-- ARest -->
<g id="node3" class="node">
<title>ARest</title>
<g id="a_node3"><a xlink:href="#species-ARest" xlink:title="ARest&#10;[PBPKO:00501]">
<path fill="gold" stroke="black" d="M346.95,-54C346.95,-54 257.95,-54 257.95,-54 251.95,-54 245.95,-48 245.95,-42 245.95,-42 245.95,-28 245.95,-28 245.95,-22 251.95,-16 257.95,-16 257.95,-16 346.95,-16 346.95,-16 352.95,-16 358.95,-22 358.95,-28 358.95,-28 358.95,-42 358.95,-42 358.95,-48 352.95,-54 346.95,-54"/>
<text text-anchor="middle" x="302.45" y="-38.8" font-family="Arial" font-size="14.00">ARest</text>
<text text-anchor="middle" x="302.45" y="-23.8" font-family="Arial" font-size="14.00">[PBPKO:00501]</text>
</a>
</g>
</g>
<!-- ABlood&#45;&gt;ARest -->
<g id="edge3" class="edge">
<title>ABlood&#45;&gt;ARest</title>
<path fill="none" stroke="black" d="M264.09,-140.85C271.53,-120.5 283.69,-87.27 292.32,-63.68"/>
<polygon fill="black" stroke="black" points="295.63,-64.82 295.78,-54.22 289.06,-62.41 295.63,-64.82"/>
<text text-anchor="middle" x="286.45" y="-112.3" font-family="Times,serif" font-size="14.00">_J3</text>
</g>
<!-- ARest&#45;&gt;ABlood -->
<g id="edge4" class="edge">
<title>ARest&#45;&gt;ABlood</title>
<path fill="none" stroke="black" d="M306.55,-54.11C309.77,-72.56 312.13,-101.49 301.45,-123.5 299.67,-127.17 297.31,-130.58 294.6,-133.73"/>
<polygon fill="black" stroke="black" points="291.92,-131.45 287.29,-140.98 296.85,-136.42 291.92,-131.45"/>
<text text-anchor="middle" x="316.45" y="-112.3" font-family="Times,serif" font-size="14.00">_J2</text>
</g>
</g>
</svg>
