<?xml version="1.0" encoding="UTF-8" standalone="no"?>
<!DOCTYPE svg PUBLIC "-//W3C//DTD SVG 1.1//EN"
 "http://www.w3.org/Graphics/SVG/1.1/DTD/svg11.dtd">
<!-- Generated by graphviz version 2.43.0 (0)
 -->
<!-- Title: %3 Pages: 1 -->
<svg width="499pt" height="288pt"
 viewBox="0.00 0.00 499.28 288.00" xmlns="http://www.w3.org/2000/svg" xmlns:xlink="http://www.w3.org/1999/xlink">
<g id="graph0" class="graph" transform="scale(0.79 0.79) rotate(0) translate(4 362)">
<title>%3</title>
<polygon fill="white" stroke="transparent" points="-4,4 -4,-362 630.5,-362 630.5,4 -4,4"/>
<g id="clust1" class="cluster">
<title>cluster_GI</title>
<g id="a_clust1"><a xlink:href="#compartment-GI" xlink:title="GI&#10;[&#45;]">
<path fill="lightblue" stroke="black" d="M122.56,-258C122.56,-258 421.02,-258 421.02,-258 427.02,-258 433.02,-264 433.02,-270 433.02,-270 433.02,-338 433.02,-338 433.02,-344 427.02,-350 421.02,-350 421.02,-350 122.56,-350 122.56,-350 116.56,-350 110.56,-344 110.56,-338 110.56,-338 110.56,-270 110.56,-270 110.56,-264 116.56,-258 122.56,-258"/>
<text text-anchor="middle" x="271.79" y="-334.8" font-family="Arial" font-size="14.00">GI</text>
<text text-anchor="middle" x="271.79" y="-319.8" font-family="Arial" font-size="14.00">[&#45;]</text>
</a>
</g>
</g>
<g id="clust2" class="cluster">
<title>cluster_Liver</title>
<g id="a_clust2"><a xlink:href="#compartment-Liver" xlink:title="Liver&#10;[&#45;]">
<path fill="lightblue" stroke="black" d="M48.85,-8C48.85,-8 494.73,-8 494.73,-8 500.73,-8 506.73,-14 506.73,-20 506.73,-20 506.73,-88 506.73,-88 506.73,-94 500.73,-100 494.73,-100 494.73,-100 48.85,-100 48.85,-100 42.85,-100 36.85,-94 36.85,-88 36.85,-88 36.85,-20 36.85,-20 36.85,-14 42.85,-8 48.85,-8"/>
<text text-anchor="middle" x="271.79" y="-84.8" font-family="Arial" font-size="14.00">Liver</text>
<text text-anchor="middle" x="271.79" y="-69.8" font-family="Arial" font-size="14.00">[&#45;]</text>
</a>
</g>
</g>
<g id="clust3" class="cluster">
<title>cluster_Blood</title>
<g id="a_clust3"><a xlink:href="#compartment-Blood" xlink:title="Blood&#10;[PBPKO:00464]">
<path fill="lightblue" stroke="black" d="M81.1,-133C81.1,-133 577.65,-133 577.65,-133 583.65,-133 589.65,-139 589.65,-145 589.65,-145 589.65,-213 589.65,-213 589.65,-219 583.65,-225 577.65,-225 577.65,-225 81.1,-225 81.1,-225 75.1,-225 69.1,-219 69.1,-213 69.1,-213 69.1,-145 69.1,-145 69.1,-139 75.1,-133 81.1,-133"/>
<text text-anchor="middle" x="329.37" y="-209.8" font-family="Arial" font-size="14.00">Blood</text>
<text text-anchor="middle" x="329.37" y="-194.8" font-family="Arial" font-size="14.00">[PBPKO:00464]</text>
</a>
</g>
</g>
<!-- AGI -->
<g id="node1" class="node">
<title>AGI</title>
<g id="a_node1"><a xlink:href="#species-AGI" xlink:title="AGI&#10;[&#45;]">
<path fill="gold" stroke="black" d="M286.54,-304C286.54,-304 256.54,-304 256.54,-304 250.54,-304 244.54,-298 244.54,-292 244.54,-292 244.54,-278 244.54,-278 244.54,-272 250.54,-266 256.54,-266 256.54,-266 286.54,-266 286.54,-266 292.54,-266 298.54,-272 298.54,-278 298.54,-278 298.54,-292 298.54,-292 298.54,-298 292.54,-304 286.54,-304"/>
<text text-anchor="middle" x="271.54" y="-288.8" font-family="Arial" font-size="14.00">AGI</text>
<text text-anchor="middle" x="271.54" y="-273.8" font-family="Arial" font-size="14.00">[&#45;]</text>
</a>
</g>
</g>
<!-- ABlood -->
<g id="node3" class="node">
<title>ABlood</title>
<g id="a_node3"><a xlink:href="#species-ABlood" xlink:title="ABlood&#10;[&#45;]">
<path fill="gold" stroke="black" d="M289.54,-179C289.54,-179 253.54,-179 253.54,-179 247.54,-179 241.54,-173 241.54,-167 241.54,-167 241.54,-153 241.54,-153 241.54,-147 247.54,-141 253.54,-141 253.54,-141 289.54,-141 289.54,-141 295.54,-141 301.54,-147 301.54,-153 301.54,-153 301.54,-167 301.54,-167 301.54,-173 295.54,-179 289.54,-179"/>
<text text-anchor="middle" x="271.54" y="-163.8" font-family="Arial" font-size="14.00">ABlood</text>
<text text-anchor="middle" x="271.54" y="-148.8" font-family="Arial" font-size="14.00">[&#45;]</text>
</a>
</g>
</g>
<!-- AGI&#45;&gt;ABlood -->
<g id="edge1" class="edge">
<title>AGI&#45;&gt;ABlood</title>
<path fill="none" stroke="black" d="M271.54,-265.85C271.54,-245.68 271.54,-212.86 271.54,-189.31"/>
<polygon fill="black" stroke="black" points="275.04,-189.22 271.54,-179.22 268.04,-189.22 275.04,-189.22"/>
<text text-anchor="middle" x="282.54" y="-237.3" font-family="Times,serif" font-size="14.00">_J0</text>
</g>
<!-- ALiver_Met -->
<g id="node2" class="node">
<title>ALiver_Met</title>
<g id="a_node2"><a xlink:href="#species-ALiver_Met" xlink:title="ALiver_Met&#10;[&#45;]">
<path fill="gold" stroke="black" d="M302.54,-54C302.54,-54 240.54,-54 240.54,-54 234.54,-54 228.54,-48 228.54,-42 228.54,-42 228.54,-28 228.54,-28 228.54,-22 234.54,-16 240.54,-16 240.54,-16 302.54,-16 302.54,-16 308.54,-16 314.54,-22 314.54,-28 314.54,-28 314.54,-42 314.54,-42 314.54,-48 308.54,-54 302.54,-54"/>
<text text-anchor="middle" x="271.54" y="-38.8" font-family="Arial" font-size="14.00">ALiver_Met</text>
<text text-anchor="middle" x="271.54" y="-23.8" font-family="Arial" font-size="14.00">[&#45;]</text>
</a>
</g>
</g>
<!-- ABlood&#45;&gt;ALiver_Met -->
<g id="edge2" class="edge">
<title>ABlood&#45;&gt;ALiver_Met</title>
<path fill="none" stroke="black" d="M271.54,-140.85C271.54,-120.68 271.54,-87.86 271.54,-64.31"/>
<polygon fill="black" stroke="black" points="275.04,-64.22 271.54,-54.22 268.04,-64.22 275.04,-64.22"/>
<text text-anchor="middle" x="282.54" y="-112.3" font-family="Times,serif" font-size="14.00">_J1</text>
</g>
</g>
</svg>
