<?xml version="1.0" encoding="UTF-8" standalone="no"?>
<!DOCTYPE svg PUBLIC "-//W3C//DTD SVG 1.1//EN"
 "http://www.w3.org/Graphics/SVG/1.1/DTD/svg11.dtd">
<!-- Generated by graphviz version 2.43.0 (0)
 -->
<!-- Title: %3 Pages: 1 -->
<svg width="500pt" height="288pt"
 viewBox="0.00 0.00 500.20 288.00" xmlns="http://www.w3.org/2000/svg" xmlns:xlink="http://www.w3.org/1999/xlink">
<g id="graph0" class="graph" transform="scale(0.63 0.63) rotate(0) translate(4 451)">
<title>%3</title>
<polygon fill="white" stroke="transparent" points="-4,4 -4,-451 786.25,-451 786.25,4 -4,4"/>
<g id="clust1" class="cluster">
<title>cluster_AbsorptionCompartment</title>
<g id="a_clust1"><a xlink:href="#compartment-AbsorptionCompartment" xlink:title="AbsorptionCompartment&#10;[&#45;]">
<path fill="lightblue" stroke="black" d="M31.99,-347C31.99,-347 417.86,-347 417.86,-347 423.86,-347 429.86,-353 429.86,-359 429.86,-359 429.86,-427 429.86,-427 429.86,-433 423.86,-439 417.86,-439 417.86,-439 31.99,-439 31.99,-439 25.99,-439 19.99,-433 19.99,-427 19.99,-427 19.99,-359 19.99,-359 19.99,-353 25.99,-347 31.99,-347"/>
<text text-anchor="middle" x="224.93" y="-423.8" font-family="Arial" font-size="14.00">AbsorptionCompartment</text>
<text text-anchor="middle" x="224.93" y="-408.8" font-family="Arial" font-size="14.00">[&#45;]</text>
</a>
</g>
</g>
<g id="clust2" class="cluster">
<title>cluster_PV</title>
<g id="a_clust2"><a xlink:href="#compartment-PV" xlink:title="PV&#10;[&#45;]">
<path fill="lightblue" stroke="black" d="M149.46,-222C149.46,-222 300.4,-222 300.4,-222 306.4,-222 312.4,-228 312.4,-234 312.4,-234 312.4,-302 312.4,-302 312.4,-308 306.4,-314 300.4,-314 300.4,-314 149.46,-314 149.46,-314 143.46,-314 137.46,-308 137.46,-302 137.46,-302 137.46,-234 137.46,-234 137.46,-228 143.46,-222 149.46,-222"/>
<text text-anchor="middle" x="224.93" y="-298.8" font-family="Arial" font-size="14.00">PV</text>
<text text-anchor="middle" x="224.93" y="-283.8" font-family="Arial" font-size="14.00">[&#45;]</text>
</a>
</g>
</g>
<g id="clust3" class="cluster">
<title>cluster_Liver</title>
<g id="a_clust3"><a xlink:href="#compartment-Liver" xlink:title="Liver&#10;[&#45;]">
<path fill="lightblue" stroke="black" d="M249.42,-8C249.42,-8 460.35,-8 460.35,-8 466.35,-8 472.35,-14 472.35,-20 472.35,-20 472.35,-177 472.35,-177 472.35,-183 466.35,-189 460.35,-189 460.35,-189 249.42,-189 249.42,-189 243.42,-189 237.42,-183 237.42,-177 237.42,-177 237.42,-20 237.42,-20 237.42,-14 243.42,-8 249.42,-8"/>
<text text-anchor="middle" x="354.89" y="-173.8" font-family="Arial" font-size="14.00">Liver</text>
<text text-anchor="middle" x="354.89" y="-158.8" font-family="Arial" font-size="14.00">[&#45;]</text>
</a>
</g>
</g>
<g id="clust4" class="cluster">
<title>cluster_SystCompartment</title>
<g id="a_clust4"><a xlink:href="#compartment-SystCompartment" xlink:title="SystCompartment&#10;[&#45;]">
<path fill="lightblue" stroke="black" d="M361.89,-222C361.89,-222 652.79,-222 652.79,-222 658.79,-222 664.79,-228 664.79,-234 664.79,-234 664.79,-302 664.79,-302 664.79,-308 658.79,-314 652.79,-314 652.79,-314 361.89,-314 361.89,-314 355.89,-314 349.89,-308 349.89,-302 349.89,-302 349.89,-234 349.89,-234 349.89,-228 355.89,-222 361.89,-222"/>
<text text-anchor="middle" x="507.34" y="-298.8" font-family="Arial" font-size="14.00">SystCompartment</text>
<text text-anchor="middle" x="507.34" y="-283.8" font-family="Arial" font-size="14.00">[&#45;]</text>
</a>
</g>
</g>
<g id="clust5" class="cluster">
<title>cluster_RenalExcretion</title>
<g id="a_clust5"><a xlink:href="#compartment-RenalExcretion" xlink:title="RenalExcretion&#10;[&#45;]">
<path fill="lightblue" stroke="black" d="M504.34,-97C504.34,-97 750.26,-97 750.26,-97 756.26,-97 762.26,-103 762.26,-109 762.26,-109 762.26,-177 762.26,-177 762.26,-183 756.26,-189 750.26,-189 750.26,-189 504.34,-189 504.34,-189 498.34,-189 492.34,-183 492.34,-177 492.34,-177 492.34,-109 492.34,-109 492.34,-103 498.34,-97 504.34,-97"/>
<text text-anchor="middle" x="627.3" y="-173.8" font-family="Arial" font-size="14.00">RenalExcretion</text>
<text text-anchor="middle" x="627.3" y="-158.8" font-family="Arial" font-size="14.00">[&#45;]</text>
</a>
</g>
</g>
<!-- AAbsComp -->
<g id="node1" class="node">
<title>AAbsComp</title>
<g id="a_node1"><a xlink:href="#species-AAbsComp" xlink:title="AAbsComp&#10;[&#45;]">
<path fill="gold" stroke="black" d="M256.31,-393C256.31,-393 194.31,-393 194.31,-393 188.31,-393 182.31,-387 182.31,-381 182.31,-381 182.31,-367 182.31,-367 182.31,-361 188.31,-355 194.31,-355 194.31,-355 256.31,-355 256.31,-355 262.31,-355 268.31,-361 268.31,-367 268.31,-367 268.31,-381 268.31,-381 268.31,-387 262.31,-393 256.31,-393"/>
<text text-anchor="middle" x="225.31" y="-377.8" font-family="Arial" font-size="14.00">AAbsComp</text>
<text text-anchor="middle" x="225.31" y="-362.8" font-family="Arial" font-size="14.00">[&#45;]</text>
</a>
</g>
</g>
<!-- APV -->
<g id="node2" class="node">
<title>APV</title>
<g id="a_node2"><a xlink:href="#species-APV" xlink:title="APV&#10;[&#45;]">
<path fill="gold" stroke="black" d="M240.31,-268C240.31,-268 210.31,-268 210.31,-268 204.31,-268 198.31,-262 198.31,-256 198.31,-256 198.31,-242 198.31,-242 198.31,-236 204.31,-230 210.31,-230 210.31,-230 240.31,-230 240.31,-230 246.31,-230 252.31,-236 252.31,-242 252.31,-242 252.31,-256 252.31,-256 252.31,-262 246.31,-268 240.31,-268"/>
<text text-anchor="middle" x="225.31" y="-252.8" font-family="Arial" font-size="14.00">APV</text>
<text text-anchor="middle" x="225.31" y="-237.8" font-family="Arial" font-size="14.00">[&#45;]</text>
</a>
</g>
</g>
<!-- AAbsComp&#45;&gt;APV -->
<g id="edge1" class="edge">
<title>AAbsComp&#45;&gt;APV</title>
<path fill="none" stroke="black" d="M225.31,-354.85C225.31,-334.68 225.31,-301.86 225.31,-278.31"/>
<polygon fill="black" stroke="black" points="228.81,-278.22 225.31,-268.22 221.81,-278.22 228.81,-278.22"/>
<text text-anchor="middle" x="236.31" y="-326.3" font-family="Times,serif" font-size="14.00">_J0</text>
</g>
<!-- ALiver -->
<g id="node3" class="node">
<title>ALiver</title>
<g id="a_node3"><a xlink:href="#species-ALiver" xlink:title="ALiver&#10;[&#45;]">
<path fill="gold" stroke="black" d="M385.81,-143C385.81,-143 354.81,-143 354.81,-143 348.81,-143 342.81,-137 342.81,-131 342.81,-131 342.81,-117 342.81,-117 342.81,-111 348.81,-105 354.81,-105 354.81,-105 385.81,-105 385.81,-105 391.81,-105 397.81,-111 397.81,-117 397.81,-117 397.81,-131 397.81,-131 397.81,-137 391.81,-143 385.81,-143"/>
<text text-anchor="middle" x="370.31" y="-127.8" font-family="Arial" font-size="14.00">ALiver</text>
<text text-anchor="middle" x="370.31" y="-112.8" font-family="Arial" font-size="14.00">[&#45;]</text>
</a>
</g>
</g>
<!-- APV&#45;&gt;ALiver -->
<g id="edge2" class="edge">
<title>APV&#45;&gt;ALiver</title>
<path fill="none" stroke="black" d="M246.7,-229.85C271.65,-208.69 313.04,-173.58 340.97,-149.88"/>
<polygon fill="black" stroke="black" points="343.46,-152.36 348.82,-143.22 338.93,-147.02 343.46,-152.36"/>
<text text-anchor="middle" x="296.31" y="-201.3" font-family="Times,serif" font-size="14.00">_J1</text>
</g>
<!-- ALiverMet -->
<g id="node4" class="node">
<title>ALiverMet</title>
<g id="a_node4"><a xlink:href="#species-ALiverMet" xlink:title="ALiverMet&#10;[&#45;]">
<path fill="gold" stroke="black" d="M382.31,-54C382.31,-54 328.31,-54 328.31,-54 322.31,-54 316.31,-48 316.31,-42 316.31,-42 316.31,-28 316.31,-28 316.31,-22 322.31,-16 328.31,-16 328.31,-16 382.31,-16 382.31,-16 388.31,-16 394.31,-22 394.31,-28 394.31,-28 394.31,-42 394.31,-42 394.31,-48 388.31,-54 382.31,-54"/>
<text text-anchor="middle" x="355.31" y="-38.8" font-family="Arial" font-size="14.00">ALiverMet</text>
<text text-anchor="middle" x="355.31" y="-23.8" font-family="Arial" font-size="14.00">[&#45;]</text>
</a>
</g>
</g>
<!-- ALiver&#45;&gt;ALiverMet -->
<g id="edge3" class="edge">
<title>ALiver&#45;&gt;ALiverMet</title>
<path fill="none" stroke="black" d="M367.2,-104.97C365.17,-93.19 362.47,-77.56 360.16,-64.16"/>
<polygon fill="black" stroke="black" points="363.56,-63.26 358.41,-54 356.66,-64.45 363.56,-63.26"/>
<text text-anchor="middle" x="375.31" y="-76.3" font-family="Times,serif" font-size="14.00">_J5</text>
</g>
<!-- ASysComp -->
<g id="node5" class="node">
<title>ASysComp</title>
<g id="a_node5"><a xlink:href="#species-ASysComp" xlink:title="ASysComp&#10;[&#45;]">
<path fill="gold" stroke="black" d="M527.81,-268C527.81,-268 466.81,-268 466.81,-268 460.81,-268 454.81,-262 454.81,-256 454.81,-256 454.81,-242 454.81,-242 454.81,-236 460.81,-230 466.81,-230 466.81,-230 527.81,-230 527.81,-230 533.81,-230 539.81,-236 539.81,-242 539.81,-242 539.81,-256 539.81,-256 539.81,-262 533.81,-268 527.81,-268"/>
<text text-anchor="middle" x="497.31" y="-252.8" font-family="Arial" font-size="14.00">ASysComp</text>
<text text-anchor="middle" x="497.31" y="-237.8" font-family="Arial" font-size="14.00">[&#45;]</text>
</a>
</g>
</g>
<!-- ALiver&#45;&gt;ASysComp -->
<g id="edge4" class="edge">
<title>ALiver&#45;&gt;ASysComp</title>
<path fill="none" stroke="black" d="M383.98,-143.26C398.36,-161.82 422.21,-190.85 446.31,-212.5 450.68,-216.43 455.49,-220.29 460.37,-223.93"/>
<polygon fill="black" stroke="black" points="458.41,-226.84 468.57,-229.84 462.51,-221.16 458.41,-226.84"/>
<text text-anchor="middle" x="457.31" y="-201.3" font-family="Times,serif" font-size="14.00">_J4</text>
</g>
<!-- ASysComp&#45;&gt;APV -->
<g id="edge5" class="edge">
<title>ASysComp&#45;&gt;APV</title>
<path fill="none" stroke="black" d="M454.36,-249C401.47,-249 312.52,-249 262.45,-249"/>
<polygon fill="black" stroke="black" points="262.38,-245.5 252.38,-249 262.38,-252.5 262.38,-245.5"/>
<text text-anchor="middle" x="353.56" y="-255.8" font-family="Times,serif" font-size="14.00">_J2</text>
</g>
<!-- ASysComp&#45;&gt;ALiver -->
<g id="edge6" class="edge">
<title>ASysComp&#45;&gt;ALiver</title>
<path fill="none" stroke="black" d="M489.26,-230C484.16,-219.79 476.91,-207.16 468.31,-197.5 450.53,-177.54 426.44,-159.62 406.59,-146.6"/>
<polygon fill="black" stroke="black" points="408.4,-143.6 398.09,-141.15 404.62,-149.49 408.4,-143.6"/>
<text text-anchor="middle" x="490.31" y="-201.3" font-family="Times,serif" font-size="14.00">_J3</text>
</g>
<!-- ARenalEx -->
<g id="node6" class="node">
<title>ARenalEx</title>
<g id="a_node6"><a xlink:href="#species-ARenalEx" xlink:title="ARenalEx&#10;[&#45;]">
<path fill="gold" stroke="black" d="M635.81,-143C635.81,-143 582.81,-143 582.81,-143 576.81,-143 570.81,-137 570.81,-131 570.81,-131 570.81,-117 570.81,-117 570.81,-111 576.81,-105 582.81,-105 582.81,-105 635.81,-105 635.81,-105 641.81,-105 647.81,-111 647.81,-117 647.81,-117 647.81,-131 647.81,-131 647.81,-137 641.81,-143 635.81,-143"/>
<text text-anchor="middle" x="609.31" y="-127.8" font-family="Arial" font-size="14.00">ARenalEx</text>
<text text-anchor="middle" x="609.31" y="-112.8" font-family="Arial" font-size="14.00">[&#45;]</text>
</a>
</g>
</g>
<!-- ASysComp&#45;&gt;ARenalEx -->
<g id="edge7" class="edge">
<title>ASysComp&#45;&gt;ARenalEx</title>
<path fill="none" stroke="black" d="M513.83,-229.85C532.86,-208.96 564.25,-174.48 585.81,-150.8"/>
<polygon fill="black" stroke="black" points="588.57,-152.97 592.71,-143.22 583.39,-148.26 588.57,-152.97"/>
<text text-anchor="middle" x="554.31" y="-201.3" font-family="Times,serif" font-size="14.00">_J6</text>
</g>
</g>
</svg>
