<?xml version="1.0" encoding="UTF-8" standalone="no"?>
<!DOCTYPE svg PUBLIC "-//W3C//DTD SVG 1.1//EN"
 "http://www.w3.org/Graphics/SVG/1.1/DTD/svg11.dtd">
<!-- Generated by graphviz version 2.43.0 (0)
 -->
<!-- Title: %3 Pages: 1 -->
<svg width="502pt" height="288pt"
 viewBox="0.00 0.00 501.67 288.00" xmlns="http://www.w3.org/2000/svg" xmlns:xlink="http://www.w3.org/1999/xlink">
<g id="graph0" class="graph" transform="scale(0.39 0.39) rotate(0) translate(4 737)">
<title>%3</title>
<polygon fill="white" stroke="transparent" points="-4,4 -4,-737 1286.75,-737 1286.75,4 -4,4"/>
<g id="clust1" class="cluster">
<title>cluster_Stomach</title>
<g id="a_clust1"><a xlink:href="#compartment-Stomach" xlink:title="Stomach&#10;[&#45;]">
<path fill="lightblue" stroke="black" d="M540.19,-633C540.19,-633 798.16,-633 798.16,-633 804.16,-633 810.16,-639 810.16,-645 810.16,-645 810.16,-713 810.16,-713 810.16,-719 804.16,-725 798.16,-725 798.16,-725 540.19,-725 540.19,-725 534.19,-725 528.19,-719 528.19,-713 528.19,-713 528.19,-645 528.19,-645 528.19,-639 534.19,-633 540.19,-633"/>
<text text-anchor="middle" x="669.17" y="-709.8" font-family="Arial" font-size="14.00">Stomach</text>
<text text-anchor="middle" x="669.17" y="-694.8" font-family="Arial" font-size="14.00">[&#45;]</text>
</a>
</g>
</g>
<g id="clust2" class="cluster">
<title>cluster_Intestinal</title>
<g id="a_clust2"><a xlink:href="#compartment-Intestinal" xlink:title="Intestinal&#10;[&#45;]">
<path fill="lightblue" stroke="black" d="M540.19,-508C540.19,-508 798.16,-508 798.16,-508 804.16,-508 810.16,-514 810.16,-520 810.16,-520 810.16,-588 810.16,-588 810.16,-594 804.16,-600 798.16,-600 798.16,-600 540.19,-600 540.19,-600 534.19,-600 528.19,-594 528.19,-588 528.19,-588 528.19,-520 528.19,-520 528.19,-514 534.19,-508 540.19,-508"/>
<text text-anchor="middle" x="669.17" y="-584.8" font-family="Arial" font-size="14.00">Intestinal</text>
<text text-anchor="middle" x="669.17" y="-569.8" font-family="Arial" font-size="14.00">[&#45;]</text>
</a>
</g>
</g>
<g id="clust3" class="cluster">
<title>cluster_LiverVC</title>
<g id="a_clust3"><a xlink:href="#compartment-LiverVC" xlink:title="LiverVC&#10;[&#45;]">
<path fill="lightblue" stroke="black" d="M297.94,-383C297.94,-383 631.36,-383 631.36,-383 637.36,-383 643.36,-389 643.36,-395 643.36,-395 643.36,-463 643.36,-463 643.36,-469 637.36,-475 631.36,-475 631.36,-475 297.94,-475 297.94,-475 291.94,-475 285.94,-469 285.94,-463 285.94,-463 285.94,-395 285.94,-395 285.94,-389 291.94,-383 297.94,-383"/>
<text text-anchor="middle" x="464.65" y="-459.8" font-family="Arial" font-size="14.00">LiverVC</text>
<text text-anchor="middle" x="464.65" y="-444.8" font-family="Arial" font-size="14.00">[&#45;]</text>
</a>
</g>
</g>
<g id="clust4" class="cluster">
<title>cluster_LiverIC</title>
<g id="a_clust4"><a xlink:href="#compartment-LiverIC" xlink:title="LiverIC&#10;[&#45;]">
<path fill="lightblue" stroke="black" d="M43.77,-133C43.77,-133 393.08,-133 393.08,-133 399.08,-133 405.08,-139 405.08,-145 405.08,-145 405.08,-338 405.08,-338 405.08,-344 399.08,-350 393.08,-350 393.08,-350 43.77,-350 43.77,-350 37.77,-350 31.77,-344 31.77,-338 31.77,-338 31.77,-145 31.77,-145 31.77,-139 37.77,-133 43.77,-133"/>
<text text-anchor="middle" x="218.42" y="-334.8" font-family="Arial" font-size="14.00">LiverIC</text>
<text text-anchor="middle" x="218.42" y="-319.8" font-family="Arial" font-size="14.00">[&#45;]</text>
</a>
</g>
</g>
<g id="clust5" class="cluster">
<title>cluster_Blood</title>
<g id="a_clust5"><a xlink:href="#compartment-Blood" xlink:title="Blood&#10;[&#45;]">
<path fill="lightblue" stroke="black" d="M484.59,-133C484.59,-133 857.73,-133 857.73,-133 863.73,-133 869.73,-139 869.73,-145 869.73,-145 869.73,-338 869.73,-338 869.73,-344 863.73,-350 857.73,-350 857.73,-350 484.59,-350 484.59,-350 478.59,-350 472.59,-344 472.59,-338 472.59,-338 472.59,-145 472.59,-145 472.59,-139 478.59,-133 484.59,-133"/>
<text text-anchor="middle" x="671.16" y="-334.8" font-family="Arial" font-size="14.00">Blood</text>
<text text-anchor="middle" x="671.16" y="-319.8" font-family="Arial" font-size="14.00">[&#45;]</text>
</a>
</g>
</g>
<g id="clust6" class="cluster">
<title>cluster_RestVC</title>
<g id="a_clust6"><a xlink:href="#compartment-RestVC" xlink:title="RestVC&#10;[&#45;]">
<path fill="lightblue" stroke="black" d="M913.5,-133C913.5,-133 1238.98,-133 1238.98,-133 1244.98,-133 1250.98,-139 1250.98,-145 1250.98,-145 1250.98,-213 1250.98,-213 1250.98,-219 1244.98,-225 1238.98,-225 1238.98,-225 913.5,-225 913.5,-225 907.5,-225 901.5,-219 901.5,-213 901.5,-213 901.5,-145 901.5,-145 901.5,-139 907.5,-133 913.5,-133"/>
<text text-anchor="middle" x="1076.24" y="-209.8" font-family="Arial" font-size="14.00">RestVC</text>
<text text-anchor="middle" x="1076.24" y="-194.8" font-family="Arial" font-size="14.00">[&#45;]</text>
</a>
</g>
</g>
<g id="clust7" class="cluster">
<title>cluster_RestIC</title>
<g id="a_clust7"><a xlink:href="#compartment-RestIC" xlink:title="RestIC&#10;[&#45;]">
<path fill="lightblue" stroke="black" d="M877.76,-8C877.76,-8 1187.35,-8 1187.35,-8 1193.35,-8 1199.35,-14 1199.35,-20 1199.35,-20 1199.35,-88 1199.35,-88 1199.35,-94 1193.35,-100 1187.35,-100 1187.35,-100 877.76,-100 877.76,-100 871.76,-100 865.76,-94 865.76,-88 865.76,-88 865.76,-20 865.76,-20 865.76,-14 871.76,-8 877.76,-8"/>
<text text-anchor="middle" x="1032.55" y="-84.8" font-family="Arial" font-size="14.00">RestIC</text>
<text text-anchor="middle" x="1032.55" y="-69.8" font-family="Arial" font-size="14.00">[&#45;]</text>
</a>
</g>
</g>
<g id="clust8" class="cluster">
<title>cluster_Fecal</title>
<g id="a_clust8"><a xlink:href="#compartment-Fecal" xlink:title="Fecal&#10;[&#45;]">
<path fill="lightblue" stroke="black" d="M687.13,-383C687.13,-383 964.96,-383 964.96,-383 970.96,-383 976.96,-389 976.96,-395 976.96,-395 976.96,-463 976.96,-463 976.96,-469 970.96,-475 964.96,-475 964.96,-475 687.13,-475 687.13,-475 681.13,-475 675.13,-469 675.13,-463 675.13,-463 675.13,-395 675.13,-395 675.13,-389 681.13,-383 687.13,-383"/>
<text text-anchor="middle" x="826.04" y="-459.8" font-family="Arial" font-size="14.00">Fecal</text>
<text text-anchor="middle" x="826.04" y="-444.8" font-family="Arial" font-size="14.00">[&#45;]</text>
</a>
</g>
</g>
<!-- ASt -->
<g id="node1" class="node">
<title>ASt</title>
<g id="a_node1"><a xlink:href="#species-ASt" xlink:title="ASt&#10;[&#45;]">
<path fill="gold" stroke="black" d="M682.25,-679C682.25,-679 652.25,-679 652.25,-679 646.25,-679 640.25,-673 640.25,-667 640.25,-667 640.25,-653 640.25,-653 640.25,-647 646.25,-641 652.25,-641 652.25,-641 682.25,-641 682.25,-641 688.25,-641 694.25,-647 694.25,-653 694.25,-653 694.25,-667 694.25,-667 694.25,-673 688.25,-679 682.25,-679"/>
<text text-anchor="middle" x="667.25" y="-663.8" font-family="Arial" font-size="14.00">ASt</text>
<text text-anchor="middle" x="667.25" y="-648.8" font-family="Arial" font-size="14.00">[&#45;]</text>
</a>
</g>
</g>
<!-- AIT -->
<g id="node2" class="node">
<title>AIT</title>
<g id="a_node2"><a xlink:href="#species-AIT" xlink:title="AIT&#10;[&#45;]">
<path fill="gold" stroke="black" d="M682.25,-554C682.25,-554 652.25,-554 652.25,-554 646.25,-554 640.25,-548 640.25,-542 640.25,-542 640.25,-528 640.25,-528 640.25,-522 646.25,-516 652.25,-516 652.25,-516 682.25,-516 682.25,-516 688.25,-516 694.25,-522 694.25,-528 694.25,-528 694.25,-542 694.25,-542 694.25,-548 688.25,-554 682.25,-554"/>
<text text-anchor="middle" x="667.25" y="-538.8" font-family="Arial" font-size="14.00">AIT</text>
<text text-anchor="middle" x="667.25" y="-523.8" font-family="Arial" font-size="14.00">[&#45;]</text>
</a>
</g>
</g>
<!-- ASt&#45;&gt;AIT -->
<g id="edge1" class="edge">
<title>ASt&#45;&gt;AIT</title>
<path fill="none" stroke="black" d="M667.25,-640.85C667.25,-620.68 667.25,-587.86 667.25,-564.31"/>
<polygon fill="black" stroke="black" points="670.75,-564.22 667.25,-554.22 663.75,-564.22 670.75,-564.22"/>
<text text-anchor="middle" x="678.25" y="-612.3" font-family="Times,serif" font-size="14.00">_J0</text>
</g>
<!-- ALiverVC -->
<g id="node3" class="node">
<title>ALiverVC</title>
<g id="a_node3"><a xlink:href="#species-ALiverVC" xlink:title="ALiverVC&#10;[&#45;]">
<path fill="gold" stroke="black" d="M489.25,-429C489.25,-429 439.25,-429 439.25,-429 433.25,-429 427.25,-423 427.25,-417 427.25,-417 427.25,-403 427.25,-403 427.25,-397 433.25,-391 439.25,-391 439.25,-391 489.25,-391 489.25,-391 495.25,-391 501.25,-397 501.25,-403 501.25,-403 501.25,-417 501.25,-417 501.25,-423 495.25,-429 489.25,-429"/>
<text text-anchor="middle" x="464.25" y="-413.8" font-family="Arial" font-size="14.00">ALiverVC</text>
<text text-anchor="middle" x="464.25" y="-398.8" font-family="Arial" font-size="14.00">[&#45;]</text>
</a>
</g>
</g>
<!-- AIT&#45;&gt;ALiverVC -->
<g id="edge2" class="edge">
<title>AIT&#45;&gt;ALiverVC</title>
<path fill="none" stroke="black" d="M639.87,-517.41C604.56,-496.01 542.92,-458.67 502.86,-434.39"/>
<polygon fill="black" stroke="black" points="504.52,-431.31 494.16,-429.12 500.9,-437.3 504.52,-431.31"/>
<text text-anchor="middle" x="618.25" y="-487.3" font-family="Times,serif" font-size="14.00">_J1</text>
</g>
<!-- AFecal -->
<g id="node10" class="node">
<title>AFecal</title>
<g id="a_node10"><a xlink:href="#species-AFecal" xlink:title="AFecal&#10;[&#45;]">
<path fill="gold" stroke="black" d="M843.75,-429C843.75,-429 808.75,-429 808.75,-429 802.75,-429 796.75,-423 796.75,-417 796.75,-417 796.75,-403 796.75,-403 796.75,-397 802.75,-391 808.75,-391 808.75,-391 843.75,-391 843.75,-391 849.75,-391 855.75,-397 855.75,-403 855.75,-403 855.75,-417 855.75,-417 855.75,-423 849.75,-429 843.75,-429"/>
<text text-anchor="middle" x="826.25" y="-413.8" font-family="Arial" font-size="14.00">AFecal</text>
<text text-anchor="middle" x="826.25" y="-398.8" font-family="Arial" font-size="14.00">[&#45;]</text>
</a>
</g>
</g>
<!-- AIT&#45;&gt;AFecal -->
<g id="edge3" class="edge">
<title>AIT&#45;&gt;AFecal</title>
<path fill="none" stroke="black" d="M690.71,-515.85C718.27,-494.53 764.1,-459.08 794.74,-435.37"/>
<polygon fill="black" stroke="black" points="797.18,-437.91 802.95,-429.02 792.9,-432.37 797.18,-437.91"/>
<text text-anchor="middle" x="743.25" y="-487.3" font-family="Times,serif" font-size="14.00">_J2</text>
</g>
<!-- ALiverIC -->
<g id="node4" class="node">
<title>ALiverIC</title>
<g id="a_node4"><a xlink:href="#species-ALiverIC" xlink:title="ALiverIC&#10;[&#45;]">
<path fill="gold" stroke="black" d="M240.25,-304C240.25,-304 196.25,-304 196.25,-304 190.25,-304 184.25,-298 184.25,-292 184.25,-292 184.25,-278 184.25,-278 184.25,-272 190.25,-266 196.25,-266 196.25,-266 240.25,-266 240.25,-266 246.25,-266 252.25,-272 252.25,-278 252.25,-278 252.25,-292 252.25,-292 252.25,-298 246.25,-304 240.25,-304"/>
<text text-anchor="middle" x="218.25" y="-288.8" font-family="Arial" font-size="14.00">ALiverIC</text>
<text text-anchor="middle" x="218.25" y="-273.8" font-family="Arial" font-size="14.00">[&#45;]</text>
</a>
</g>
</g>
<!-- ALiverVC&#45;&gt;ALiverIC -->
<g id="edge4" class="edge">
<title>ALiverVC&#45;&gt;ALiverIC</title>
<path fill="none" stroke="black" d="M427.03,-402.89C400.03,-397.52 363.16,-388.23 333.25,-373.5 299.98,-357.12 266.78,-330.47 244.67,-310.88"/>
<polygon fill="black" stroke="black" points="246.82,-308.11 237.04,-304.02 242.13,-313.31 246.82,-308.11"/>
<text text-anchor="middle" x="344.25" y="-362.3" font-family="Times,serif" font-size="14.00">_J7</text>
</g>
<!-- ABlood -->
<g id="node6" class="node">
<title>ABlood</title>
<g id="a_node6"><a xlink:href="#species-ABlood" xlink:title="ABlood&#10;[&#45;]">
<path fill="gold" stroke="black" d="M737.25,-304C737.25,-304 701.25,-304 701.25,-304 695.25,-304 689.25,-298 689.25,-292 689.25,-292 689.25,-278 689.25,-278 689.25,-272 695.25,-266 701.25,-266 701.25,-266 737.25,-266 737.25,-266 743.25,-266 749.25,-272 749.25,-278 749.25,-278 749.25,-292 749.25,-292 749.25,-298 743.25,-304 737.25,-304"/>
<text text-anchor="middle" x="719.25" y="-288.8" font-family="Arial" font-size="14.00">ABlood</text>
<text text-anchor="middle" x="719.25" y="-273.8" font-family="Arial" font-size="14.00">[&#45;]</text>
</a>
</g>
</g>
<!-- ALiverVC&#45;&gt;ABlood -->
<g id="edge5" class="edge">
<title>ALiverVC&#45;&gt;ABlood</title>
<path fill="none" stroke="black" d="M501.33,-391.11C548.86,-368.19 630.92,-328.61 679.63,-305.11"/>
<polygon fill="black" stroke="black" points="681.43,-308.13 688.91,-300.63 678.39,-301.83 681.43,-308.13"/>
<text text-anchor="middle" x="579.25" y="-362.3" font-family="Times,serif" font-size="14.00">_J4</text>
</g>
<!-- ALiverIC&#45;&gt;ALiverVC -->
<g id="edge6" class="edge">
<title>ALiverIC&#45;&gt;ALiverVC</title>
<path fill="none" stroke="black" d="M252.4,-303.07C295.88,-324.82 371.14,-362.45 419.27,-386.51"/>
<polygon fill="black" stroke="black" points="417.71,-389.64 428.22,-390.98 420.84,-383.38 417.71,-389.64"/>
<text text-anchor="middle" x="402.25" y="-362.3" font-family="Times,serif" font-size="14.00">_J8</text>
</g>
<!-- ALiverMet -->
<g id="node5" class="node">
<title>ALiverMet</title>
<g id="a_node5"><a xlink:href="#species-ALiverMet" xlink:title="ALiverMet&#10;[&#45;]">
<path fill="gold" stroke="black" d="M245.25,-179C245.25,-179 191.25,-179 191.25,-179 185.25,-179 179.25,-173 179.25,-167 179.25,-167 179.25,-153 179.25,-153 179.25,-147 185.25,-141 191.25,-141 191.25,-141 245.25,-141 245.25,-141 251.25,-141 257.25,-147 257.25,-153 257.25,-153 257.25,-167 257.25,-167 257.25,-173 251.25,-179 245.25,-179"/>
<text text-anchor="middle" x="218.25" y="-163.8" font-family="Arial" font-size="14.00">ALiverMet</text>
<text text-anchor="middle" x="218.25" y="-148.8" font-family="Arial" font-size="14.00">[&#45;]</text>
</a>
</g>
</g>
<!-- ALiverIC&#45;&gt;ALiverMet -->
<g id="edge7" class="edge">
<title>ALiverIC&#45;&gt;ALiverMet</title>
<path fill="none" stroke="black" d="M218.25,-265.85C218.25,-245.68 218.25,-212.86 218.25,-189.31"/>
<polygon fill="black" stroke="black" points="221.75,-189.22 218.25,-179.22 214.75,-189.22 221.75,-189.22"/>
<text text-anchor="middle" x="233.75" y="-237.3" font-family="Times,serif" font-size="14.00">_J11</text>
</g>
<!-- ABlood&#45;&gt;ALiverVC -->
<g id="edge8" class="edge">
<title>ABlood&#45;&gt;ALiverVC</title>
<path fill="none" stroke="black" d="M698.1,-304.27C674.31,-323.95 633.82,-354.94 594.25,-373.5 568,-385.81 536.7,-394.53 511.39,-400.24"/>
<polygon fill="black" stroke="black" points="510.33,-396.88 501.3,-402.43 511.82,-403.73 510.33,-396.88"/>
<text text-anchor="middle" x="630.25" y="-362.3" font-family="Times,serif" font-size="14.00">_J3</text>
</g>
<!-- ABloodMet -->
<g id="node7" class="node">
<title>ABloodMet</title>
<g id="a_node7"><a xlink:href="#species-ABloodMet" xlink:title="ABloodMet&#10;[&#45;]">
<path fill="gold" stroke="black" d="M700.75,-179C700.75,-179 641.75,-179 641.75,-179 635.75,-179 629.75,-173 629.75,-167 629.75,-167 629.75,-153 629.75,-153 629.75,-147 635.75,-141 641.75,-141 641.75,-141 700.75,-141 700.75,-141 706.75,-141 712.75,-147 712.75,-153 712.75,-153 712.75,-167 712.75,-167 712.75,-173 706.75,-179 700.75,-179"/>
<text text-anchor="middle" x="671.25" y="-163.8" font-family="Arial" font-size="14.00">ABloodMet</text>
<text text-anchor="middle" x="671.25" y="-148.8" font-family="Arial" font-size="14.00">[&#45;]</text>
</a>
</g>
</g>
<!-- ABlood&#45;&gt;ABloodMet -->
<g id="edge9" class="edge">
<title>ABlood&#45;&gt;ABloodMet</title>
<path fill="none" stroke="black" d="M712.17,-265.85C704.23,-245.5 691.26,-212.27 682.05,-188.68"/>
<polygon fill="black" stroke="black" points="685.26,-187.27 678.36,-179.22 678.74,-189.81 685.26,-187.27"/>
<text text-anchor="middle" x="719.75" y="-237.3" font-family="Times,serif" font-size="14.00">_J12</text>
</g>
<!-- ARestVC -->
<g id="node8" class="node">
<title>ARestVC</title>
<g id="a_node8"><a xlink:href="#species-ARestVC" xlink:title="ARestVC&#10;[&#45;]">
<path fill="gold" stroke="black" d="M1100.25,-179C1100.25,-179 1052.25,-179 1052.25,-179 1046.25,-179 1040.25,-173 1040.25,-167 1040.25,-167 1040.25,-153 1040.25,-153 1040.25,-147 1046.25,-141 1052.25,-141 1052.25,-141 1100.25,-141 1100.25,-141 1106.25,-141 1112.25,-147 1112.25,-153 1112.25,-153 1112.25,-167 1112.25,-167 1112.25,-173 1106.25,-179 1100.25,-179"/>
<text text-anchor="middle" x="1076.25" y="-163.8" font-family="Arial" font-size="14.00">ARestVC</text>
<text text-anchor="middle" x="1076.25" y="-148.8" font-family="Arial" font-size="14.00">[&#45;]</text>
</a>
</g>
</g>
<!-- ABlood&#45;&gt;ARestVC -->
<g id="edge10" class="edge">
<title>ABlood&#45;&gt;ARestVC</title>
<path fill="none" stroke="black" d="M749.38,-273.62C811.96,-252.06 956.35,-202.31 1030.49,-176.76"/>
<polygon fill="black" stroke="black" points="1031.73,-180.04 1040.04,-173.48 1029.45,-173.42 1031.73,-180.04"/>
<text text-anchor="middle" x="876.25" y="-237.3" font-family="Times,serif" font-size="14.00">_J5</text>
</g>
<!-- ARestVC&#45;&gt;ABlood -->
<g id="edge11" class="edge">
<title>ARestVC&#45;&gt;ABlood</title>
<path fill="none" stroke="black" d="M1044.15,-179.08C1008,-198.75 947.02,-229.85 891.25,-248.5 847.17,-263.24 794.59,-273.01 759.27,-278.51"/>
<polygon fill="black" stroke="black" points="758.7,-275.05 749.34,-280.01 759.75,-281.98 758.7,-275.05"/>
<text text-anchor="middle" x="938.25" y="-237.3" font-family="Times,serif" font-size="14.00">_J6</text>
</g>
<!-- ARestIC -->
<g id="node9" class="node">
<title>ARestIC</title>
<g id="a_node9"><a xlink:href="#species-ARestIC" xlink:title="ARestIC&#10;[&#45;]">
<path fill="gold" stroke="black" d="M1053.75,-54C1053.75,-54 1010.75,-54 1010.75,-54 1004.75,-54 998.75,-48 998.75,-42 998.75,-42 998.75,-28 998.75,-28 998.75,-22 1004.75,-16 1010.75,-16 1010.75,-16 1053.75,-16 1053.75,-16 1059.75,-16 1065.75,-22 1065.75,-28 1065.75,-28 1065.75,-42 1065.75,-42 1065.75,-48 1059.75,-54 1053.75,-54"/>
<text text-anchor="middle" x="1032.25" y="-38.8" font-family="Arial" font-size="14.00">ARestIC</text>
<text text-anchor="middle" x="1032.25" y="-23.8" font-family="Arial" font-size="14.00">[&#45;]</text>
</a>
</g>
</g>
<!-- ARestVC&#45;&gt;ARestIC -->
<g id="edge12" class="edge">
<title>ARestVC&#45;&gt;ARestIC</title>
<path fill="none" stroke="black" d="M1069.76,-140.85C1062.48,-120.5 1050.59,-87.27 1042.15,-63.68"/>
<polygon fill="black" stroke="black" points="1045.43,-62.46 1038.77,-54.22 1038.84,-64.82 1045.43,-62.46"/>
<text text-anchor="middle" x="1073.25" y="-112.3" font-family="Times,serif" font-size="14.00">_J9</text>
</g>
<!-- ARestIC&#45;&gt;ARestVC -->
<g id="edge13" class="edge">
<title>ARestIC&#45;&gt;ARestVC</title>
<path fill="none" stroke="black" d="M1051.9,-54.19C1064.99,-67.72 1081.06,-87.43 1088.25,-108.5 1090.69,-115.65 1090.25,-123.54 1088.54,-130.91"/>
<polygon fill="black" stroke="black" points="1085.18,-129.94 1085.59,-140.53 1091.87,-131.99 1085.18,-129.94"/>
<text text-anchor="middle" x="1104.75" y="-112.3" font-family="Times,serif" font-size="14.00">_J10</text>
</g>
</g>
</svg>
