<?xml version="1.0" encoding="UTF-8" standalone="no"?>
<!DOCTYPE svg PUBLIC "-//W3C//DTD SVG 1.1//EN"
 "http://www.w3.org/Graphics/SVG/1.1/DTD/svg11.dtd">
<!-- Generated by graphviz version 2.43.0 (0)
 -->
<!-- Title: %3 Pages: 1 -->
<svg width="504pt" height="276pt"
 viewBox="0.00 0.00 504.00 276.17" xmlns="http://www.w3.org/2000/svg" xmlns:xlink="http://www.w3.org/1999/xlink">
<g id="graph0" class="graph" transform="scale(0.75 0.75) rotate(0) translate(4 362)">
<title>%3</title>
<polygon fill="white" stroke="transparent" points="-4,4 -4,-362 663.95,-362 663.95,4 -4,4"/>
<g id="clust1" class="cluster">
<title>cluster_GILumen</title>
<g id="a_clust1"><a xlink:href="#compartment-GILumen" xlink:title="GILumen&#10;[PBPKO:00478]">
<path fill="lightblue" stroke="black" d="M58.68,-258C58.68,-258 322.56,-258 322.56,-258 328.56,-258 334.56,-264 334.56,-270 334.56,-270 334.56,-338 334.56,-338 334.56,-344 328.56,-350 322.56,-350 322.56,-350 58.68,-350 58.68,-350 52.68,-350 46.68,-344 46.68,-338 46.68,-338 46.68,-270 46.68,-270 46.68,-264 52.68,-258 58.68,-258"/>
<text text-anchor="middle" x="190.62" y="-334.8" font-family="Arial" font-size="14.00">GILumen</text>
<text text-anchor="middle" x="190.62" y="-319.8" font-family="Arial" font-size="14.00">[PBPKO:00478]</text>
</a>
</g>
</g>
<g id="clust2" class="cluster">
<title>cluster_Liver</title>
<g id="a_clust2"><a xlink:href="#compartment-Liver" xlink:title="Liver&#10;[PBPKO:00558]">
<path fill="lightblue" stroke="black" d="M206.48,-8C206.48,-8 325.87,-8 325.87,-8 331.87,-8 337.87,-14 337.87,-20 337.87,-20 337.87,-213 337.87,-213 337.87,-219 331.87,-225 325.87,-225 325.87,-225 206.48,-225 206.48,-225 200.48,-225 194.48,-219 194.48,-213 194.48,-213 194.48,-20 194.48,-20 194.48,-14 200.48,-8 206.48,-8"/>
<text text-anchor="middle" x="266.18" y="-209.8" font-family="Arial" font-size="14.00">Liver</text>
<text text-anchor="middle" x="266.18" y="-194.8" font-family="Arial" font-size="14.00">[PBPKO:00558]</text>
</a>
</g>
</g>
<g id="clust3" class="cluster">
<title>cluster_Blood</title>
<g id="a_clust3"><a xlink:href="#compartment-Blood" xlink:title="Blood&#10;[PBPKO:00464]">
<path fill="lightblue" stroke="black" d="M375.24,-8C375.24,-8 639.12,-8 639.12,-8 645.12,-8 651.12,-14 651.12,-20 651.12,-20 651.12,-88 651.12,-88 651.12,-94 645.12,-100 639.12,-100 639.12,-100 375.24,-100 375.24,-100 369.24,-100 363.24,-94 363.24,-88 363.24,-88 363.24,-20 363.24,-20 363.24,-14 369.24,-8 375.24,-8"/>
<text text-anchor="middle" x="507.18" y="-84.8" font-family="Arial" font-size="14.00">Blood</text>
<text text-anchor="middle" x="507.18" y="-69.8" font-family="Arial" font-size="14.00">[PBPKO:00464]</text>
</a>
</g>
</g>
<g id="clust4" class="cluster">
<title>cluster_Rest</title>
<g id="a_clust4"><a xlink:href="#compartment-Rest" xlink:title="Rest&#10;[PBPKO:00450]">
<path fill="lightblue" stroke="black" d="M506.5,-133C506.5,-133 625.89,-133 625.89,-133 631.89,-133 637.89,-139 637.89,-145 637.89,-145 637.89,-213 637.89,-213 637.89,-219 631.89,-225 625.89,-225 625.89,-225 506.5,-225 506.5,-225 500.5,-225 494.5,-219 494.5,-213 494.5,-213 494.5,-145 494.5,-145 494.5,-139 500.5,-133 506.5,-133"/>
<text text-anchor="middle" x="566.19" y="-209.8" font-family="Arial" font-size="14.00">Rest</text>
<text text-anchor="middle" x="566.19" y="-194.8" font-family="Arial" font-size="14.00">[PBPKO:00450]</text>
</a>
</g>
</g>
<g id="clust5" class="cluster">
<title>cluster_Feces</title>
<g id="a_clust5"><a xlink:href="#compartment-Feces" xlink:title="Feces&#10;[PBPKO:00555]">
<path fill="lightblue" stroke="black" d="M54.27,-133C54.27,-133 173.66,-133 173.66,-133 179.66,-133 185.66,-139 185.66,-145 185.66,-145 185.66,-213 185.66,-213 185.66,-219 179.66,-225 173.66,-225 173.66,-225 54.27,-225 54.27,-225 48.27,-225 42.27,-219 42.27,-213 42.27,-213 42.27,-145 42.27,-145 42.27,-139 48.27,-133 54.27,-133"/>
<text text-anchor="middle" x="113.97" y="-209.8" font-family="Arial" font-size="14.00">Feces</text>
<text text-anchor="middle" x="113.97" y="-194.8" font-family="Arial" font-size="14.00">[PBPKO:00555]</text>
</a>
</g>
</g>
<!-- AGILumen -->
<g id="node1" class="node">
<title>AGILumen</title>
<g id="a_node1"><a xlink:href="#species-AGILumen" xlink:title="AGILumen&#10;[PBPKO:00496]">
<path fill="gold" stroke="black" d="M306.99,-304C306.99,-304 217.99,-304 217.99,-304 211.99,-304 205.99,-298 205.99,-292 205.99,-292 205.99,-278 205.99,-278 205.99,-272 211.99,-266 217.99,-266 217.99,-266 306.99,-266 306.99,-266 312.99,-266 318.99,-272 318.99,-278 318.99,-278 318.99,-292 318.99,-292 318.99,-298 312.99,-304 306.99,-304"/>
<text text-anchor="middle" x="262.49" y="-288.8" font-family="Arial" font-size="14.00">AGILumen</text>
<text text-anchor="middle" x="262.49" y="-273.8" font-family="Arial" font-size="14.00">[PBPKO:00496]</text>
</a>
</g>
</g>
<!-- ALiver -->
<g id="node3" class="node">
<title>ALiver</title>
<g id="a_node3"><a xlink:href="#species-ALiver" xlink:title="ALiver&#10;[PBPKO:00497]">
<path fill="gold" stroke="black" d="M310.99,-179C310.99,-179 221.99,-179 221.99,-179 215.99,-179 209.99,-173 209.99,-167 209.99,-167 209.99,-153 209.99,-153 209.99,-147 215.99,-141 221.99,-141 221.99,-141 310.99,-141 310.99,-141 316.99,-141 322.99,-147 322.99,-153 322.99,-153 322.99,-167 322.99,-167 322.99,-173 316.99,-179 310.99,-179"/>
<text text-anchor="middle" x="266.49" y="-163.8" font-family="Arial" font-size="14.00">ALiver</text>
<text text-anchor="middle" x="266.49" y="-148.8" font-family="Arial" font-size="14.00">[PBPKO:00497]</text>
</a>
</g>
</g>
<!-- AGILumen&#45;&gt;ALiver -->
<g id="edge1" class="edge">
<title>AGILumen&#45;&gt;ALiver</title>
<path fill="none" stroke="black" d="M263.08,-265.85C263.74,-245.68 264.8,-212.86 265.57,-189.31"/>
<polygon fill="black" stroke="black" points="269.07,-189.33 265.9,-179.22 262.07,-189.1 269.07,-189.33"/>
<text text-anchor="middle" x="274.49" y="-237.3" font-family="Times,serif" font-size="14.00">_J0</text>
</g>
<!-- AGILumenMet -->
<g id="node2" class="node">
<title>AGILumenMet</title>
<g id="a_node2"><a xlink:href="#species-AGILumenMet" xlink:title="AGILumenMet&#10;[PBPKO:00496]">
<path fill="gold" stroke="black" d="M162.99,-304C162.99,-304 73.99,-304 73.99,-304 67.99,-304 61.99,-298 61.99,-292 61.99,-292 61.99,-278 61.99,-278 61.99,-272 67.99,-266 73.99,-266 73.99,-266 162.99,-266 162.99,-266 168.99,-266 174.99,-272 174.99,-278 174.99,-278 174.99,-292 174.99,-292 174.99,-298 168.99,-304 162.99,-304"/>
<text text-anchor="middle" x="118.49" y="-288.8" font-family="Arial" font-size="14.00">AGILumenMet</text>
<text text-anchor="middle" x="118.49" y="-273.8" font-family="Arial" font-size="14.00">[PBPKO:00496]</text>
</a>
</g>
</g>
<!-- AGILumenMet&#45;&gt;ALiver -->
<g id="edge2" class="edge">
<title>AGILumenMet&#45;&gt;ALiver</title>
<path fill="none" stroke="black" d="M140.33,-265.85C165.8,-244.69 208.04,-209.58 236.55,-185.88"/>
<polygon fill="black" stroke="black" points="239.11,-188.31 244.56,-179.22 234.63,-182.92 239.11,-188.31"/>
<text text-anchor="middle" x="189.49" y="-237.3" font-family="Times,serif" font-size="14.00">_J8</text>
</g>
<!-- AFecesMet -->
<g id="node8" class="node">
<title>AFecesMet</title>
<g id="a_node8"><a xlink:href="#species-AFecesMet" xlink:title="AFecesMet&#10;[PBPKO:00273]">
<path fill="gold" stroke="black" d="M157.99,-179C157.99,-179 68.99,-179 68.99,-179 62.99,-179 56.99,-173 56.99,-167 56.99,-167 56.99,-153 56.99,-153 56.99,-147 62.99,-141 68.99,-141 68.99,-141 157.99,-141 157.99,-141 163.99,-141 169.99,-147 169.99,-153 169.99,-153 169.99,-167 169.99,-167 169.99,-173 163.99,-179 157.99,-179"/>
<text text-anchor="middle" x="113.49" y="-163.8" font-family="Arial" font-size="14.00">AFecesMet</text>
<text text-anchor="middle" x="113.49" y="-148.8" font-family="Arial" font-size="14.00">[PBPKO:00273]</text>
</a>
</g>
</g>
<!-- AGILumenMet&#45;&gt;AFecesMet -->
<g id="edge3" class="edge">
<title>AGILumenMet&#45;&gt;AFecesMet</title>
<path fill="none" stroke="black" d="M117.75,-265.85C116.93,-245.68 115.6,-212.86 114.64,-189.31"/>
<polygon fill="black" stroke="black" points="118.13,-189.07 114.23,-179.22 111.14,-189.36 118.13,-189.07"/>
<text text-anchor="middle" x="127.49" y="-237.3" font-family="Times,serif" font-size="14.00">_J9</text>
</g>
<!-- ALiverMet -->
<g id="node4" class="node">
<title>ALiverMet</title>
<g id="a_node4"><a xlink:href="#species-ALiverMet" xlink:title="ALiverMet&#10;[PBPKO:00497]">
<path fill="gold" stroke="black" d="M310.99,-54C310.99,-54 221.99,-54 221.99,-54 215.99,-54 209.99,-48 209.99,-42 209.99,-42 209.99,-28 209.99,-28 209.99,-22 215.99,-16 221.99,-16 221.99,-16 310.99,-16 310.99,-16 316.99,-16 322.99,-22 322.99,-28 322.99,-28 322.99,-42 322.99,-42 322.99,-48 316.99,-54 310.99,-54"/>
<text text-anchor="middle" x="266.49" y="-38.8" font-family="Arial" font-size="14.00">ALiverMet</text>
<text text-anchor="middle" x="266.49" y="-23.8" font-family="Arial" font-size="14.00">[PBPKO:00497]</text>
</a>
</g>
</g>
<!-- ALiver&#45;&gt;ALiverMet -->
<g id="edge4" class="edge">
<title>ALiver&#45;&gt;ALiverMet</title>
<path fill="none" stroke="black" d="M266.49,-140.85C266.49,-120.68 266.49,-87.86 266.49,-64.31"/>
<polygon fill="black" stroke="black" points="269.99,-64.22 266.49,-54.22 262.99,-64.22 269.99,-64.22"/>
<text text-anchor="middle" x="277.49" y="-112.3" font-family="Times,serif" font-size="14.00">_J5</text>
</g>
<!-- ABlood -->
<g id="node5" class="node">
<title>ABlood</title>
<g id="a_node5"><a xlink:href="#species-ABlood" xlink:title="ABlood&#10;[PBPKO:00623]">
<path fill="gold" stroke="black" d="M623.99,-54C623.99,-54 534.99,-54 534.99,-54 528.99,-54 522.99,-48 522.99,-42 522.99,-42 522.99,-28 522.99,-28 522.99,-22 528.99,-16 534.99,-16 534.99,-16 623.99,-16 623.99,-16 629.99,-16 635.99,-22 635.99,-28 635.99,-28 635.99,-42 635.99,-42 635.99,-48 629.99,-54 623.99,-54"/>
<text text-anchor="middle" x="579.49" y="-38.8" font-family="Arial" font-size="14.00">ABlood</text>
<text text-anchor="middle" x="579.49" y="-23.8" font-family="Arial" font-size="14.00">[PBPKO:00623]</text>
</a>
</g>
</g>
<!-- ALiver&#45;&gt;ABlood -->
<g id="edge5" class="edge">
<title>ALiver&#45;&gt;ABlood</title>
<path fill="none" stroke="black" d="M312.65,-140.89C342.64,-129.84 382.84,-116.38 419.49,-108.5 454.88,-100.89 467.05,-113.85 500.49,-100 521.4,-91.34 541.19,-75.29 555.73,-61.43"/>
<polygon fill="black" stroke="black" points="558.58,-63.54 563.24,-54.02 553.67,-58.55 558.58,-63.54"/>
<text text-anchor="middle" x="430.49" y="-112.3" font-family="Times,serif" font-size="14.00">_J2</text>
</g>
<!-- ALiverMet&#45;&gt;AGILumenMet -->
<g id="edge6" class="edge">
<title>ALiverMet&#45;&gt;AGILumenMet</title>
<path fill="none" stroke="black" d="M209.82,-40.13C150.37,-47.84 59.69,-69.9 16.49,-133 -6.61,-166.74 -3.94,-189.58 16.49,-225 25.42,-240.48 40.13,-252.27 55.64,-261.08"/>
<polygon fill="black" stroke="black" points="54.35,-264.35 64.83,-265.92 57.62,-258.16 54.35,-264.35"/>
<text text-anchor="middle" x="27.49" y="-156.3" font-family="Times,serif" font-size="14.00">_J7</text>
</g>
<!-- ABloodMet -->
<g id="node6" class="node">
<title>ABloodMet</title>
<g id="a_node6"><a xlink:href="#species-ABloodMet" xlink:title="ABloodMet&#10;[PBPKO:00623]">
<path fill="gold" stroke="black" d="M478.99,-54C478.99,-54 389.99,-54 389.99,-54 383.99,-54 377.99,-48 377.99,-42 377.99,-42 377.99,-28 377.99,-28 377.99,-22 383.99,-16 389.99,-16 389.99,-16 478.99,-16 478.99,-16 484.99,-16 490.99,-22 490.99,-28 490.99,-28 490.99,-42 490.99,-42 490.99,-48 484.99,-54 478.99,-54"/>
<text text-anchor="middle" x="434.49" y="-38.8" font-family="Arial" font-size="14.00">ABloodMet</text>
<text text-anchor="middle" x="434.49" y="-23.8" font-family="Arial" font-size="14.00">[PBPKO:00623]</text>
</a>
</g>
</g>
<!-- ALiverMet&#45;&gt;ABloodMet -->
<g id="edge7" class="edge">
<title>ALiverMet&#45;&gt;ABloodMet</title>
<path fill="none" stroke="black" d="M323.37,-35C337.68,-35 353.16,-35 367.9,-35"/>
<polygon fill="black" stroke="black" points="367.96,-38.5 377.96,-35 367.96,-31.5 367.96,-38.5"/>
<text text-anchor="middle" x="350.49" y="-41.8" font-family="Times,serif" font-size="14.00">_J6</text>
</g>
<!-- ABlood&#45;&gt;ALiver -->
<g id="edge8" class="edge">
<title>ABlood&#45;&gt;ALiver</title>
<path fill="none" stroke="black" d="M560.58,-54.08C545.29,-67.99 522.73,-86.97 500.49,-100 449.02,-130.15 382.43,-145.02 333.45,-152.27"/>
<polygon fill="black" stroke="black" points="332.69,-148.84 323.28,-153.7 333.67,-155.77 332.69,-148.84"/>
<text text-anchor="middle" x="493.49" y="-112.3" font-family="Times,serif" font-size="14.00">_J1</text>
</g>
<!-- ARest -->
<g id="node7" class="node">
<title>ARest</title>
<g id="a_node7"><a xlink:href="#species-ARest" xlink:title="ARest&#10;[PBPKO:00501]">
<path fill="gold" stroke="black" d="M610.99,-179C610.99,-179 521.99,-179 521.99,-179 515.99,-179 509.99,-173 509.99,-167 509.99,-167 509.99,-153 509.99,-153 509.99,-147 515.99,-141 521.99,-141 521.99,-141 610.99,-141 610.99,-141 616.99,-141 622.99,-147 622.99,-153 622.99,-153 622.99,-167 622.99,-167 622.99,-173 616.99,-179 610.99,-179"/>
<text text-anchor="middle" x="566.49" y="-163.8" font-family="Arial" font-size="14.00">ARest</text>
<text text-anchor="middle" x="566.49" y="-148.8" font-family="Arial" font-size="14.00">[PBPKO:00501]</text>
</a>
</g>
</g>
<!-- ABlood&#45;&gt;ARest -->
<g id="edge9" class="edge">
<title>ABlood&#45;&gt;ARest</title>
<path fill="none" stroke="black" d="M568.98,-54.06C561.33,-68.31 551.61,-88.98 547.49,-108.5 546.11,-115.02 545.87,-117.03 547.49,-123.5 548.19,-126.3 549.16,-129.11 550.29,-131.87"/>
<polygon fill="black" stroke="black" points="547.14,-133.4 554.62,-140.91 553.46,-130.38 547.14,-133.4"/>
<text text-anchor="middle" x="558.49" y="-112.3" font-family="Times,serif" font-size="14.00">_J3</text>
</g>
<!-- ARest&#45;&gt;ABlood -->
<g id="edge10" class="edge">
<title>ARest&#45;&gt;ABlood</title>
<path fill="none" stroke="black" d="M568.41,-140.85C570.54,-120.68 574.01,-87.86 576.5,-64.31"/>
<polygon fill="black" stroke="black" points="579.99,-64.54 577.56,-54.22 573.03,-63.8 579.99,-64.54"/>
<text text-anchor="middle" x="582.49" y="-112.3" font-family="Times,serif" font-size="14.00">_J4</text>
</g>
</g>
</svg>
