<?xml version="1.0" encoding="UTF-8" standalone="no"?>
<!DOCTYPE svg PUBLIC "-//W3C//DTD SVG 1.1//EN"
 "http://www.w3.org/Graphics/SVG/1.1/DTD/svg11.dtd">
<!-- Generated by graphviz version 2.43.0 (0)
 -->
<!-- Title: %3 Pages: 1 -->
<svg width="504pt" height="279pt"
 viewBox="0.00 0.00 504.00 278.55" xmlns="http://www.w3.org/2000/svg" xmlns:xlink="http://www.w3.org/1999/xlink">
<g id="graph0" class="graph" transform="scale(0.76 0.76) rotate(0) translate(4 362)">
<title>%3</title>
<polygon fill="white" stroke="transparent" points="-4,4 -4,-362 658.23,-362 658.23,4 -4,4"/>
<g id="clust1" class="cluster">
<title>cluster_GILumen</title>
<g id="a_clust1"><a xlink:href="#compartment-GILumen" xlink:title="GILumen&#10;[&#45;]">
<path fill="lightblue" stroke="black" d="M50.99,-258C50.99,-258 342.35,-258 342.35,-258 348.35,-258 354.35,-264 354.35,-270 354.35,-270 354.35,-338 354.35,-338 354.35,-344 348.35,-350 342.35,-350 342.35,-350 50.99,-350 50.99,-350 44.99,-350 38.99,-344 38.99,-338 38.99,-338 38.99,-270 38.99,-270 38.99,-264 44.99,-258 50.99,-258"/>
<text text-anchor="middle" x="196.67" y="-334.8" font-family="Arial" font-size="14.00">GILumen</text>
<text text-anchor="middle" x="196.67" y="-319.8" font-family="Arial" font-size="14.00">[&#45;]</text>
</a>
</g>
</g>
<g id="clust2" class="cluster">
<title>cluster_Liver</title>
<g id="a_clust2"><a xlink:href="#compartment-Liver" xlink:title="Liver&#10;[&#45;]">
<path fill="lightblue" stroke="black" d="M210.08,-8C210.08,-8 369.1,-8 369.1,-8 375.1,-8 381.1,-14 381.1,-20 381.1,-20 381.1,-213 381.1,-213 381.1,-219 375.1,-225 369.1,-225 369.1,-225 210.08,-225 210.08,-225 204.08,-225 198.08,-219 198.08,-213 198.08,-213 198.08,-20 198.08,-20 198.08,-14 204.08,-8 210.08,-8"/>
<text text-anchor="middle" x="289.59" y="-209.8" font-family="Arial" font-size="14.00">Liver</text>
<text text-anchor="middle" x="289.59" y="-194.8" font-family="Arial" font-size="14.00">[&#45;]</text>
</a>
</g>
</g>
<g id="clust3" class="cluster">
<title>cluster_Blood</title>
<g id="a_clust3"><a xlink:href="#compartment-Blood" xlink:title="Blood&#10;[PBPKO:00464]">
<path fill="lightblue" stroke="black" d="M404.37,-8C404.37,-8 630.97,-8 630.97,-8 636.97,-8 642.97,-14 642.97,-20 642.97,-20 642.97,-88 642.97,-88 642.97,-94 636.97,-100 630.97,-100 630.97,-100 404.37,-100 404.37,-100 398.37,-100 392.37,-94 392.37,-88 392.37,-88 392.37,-20 392.37,-20 392.37,-14 398.37,-8 404.37,-8"/>
<text text-anchor="middle" x="517.67" y="-84.8" font-family="Arial" font-size="14.00">Blood</text>
<text text-anchor="middle" x="517.67" y="-69.8" font-family="Arial" font-size="14.00">[PBPKO:00464]</text>
</a>
</g>
</g>
<g id="clust4" class="cluster">
<title>cluster_Rest</title>
<g id="a_clust4"><a xlink:href="#compartment-Rest" xlink:title="Rest&#10;[PBPKO:00450]">
<path fill="lightblue" stroke="black" d="M464.91,-133C464.91,-133 623.93,-133 623.93,-133 629.93,-133 635.93,-139 635.93,-145 635.93,-145 635.93,-213 635.93,-213 635.93,-219 629.93,-225 623.93,-225 623.93,-225 464.91,-225 464.91,-225 458.91,-225 452.91,-219 452.91,-213 452.91,-213 452.91,-145 452.91,-145 452.91,-139 458.91,-133 464.91,-133"/>
<text text-anchor="middle" x="544.42" y="-209.8" font-family="Arial" font-size="14.00">Rest</text>
<text text-anchor="middle" x="544.42" y="-194.8" font-family="Arial" font-size="14.00">[PBPKO:00450]</text>
</a>
</g>
</g>
<g id="clust5" class="cluster">
<title>cluster_Feces</title>
<g id="a_clust5"><a xlink:href="#compartment-Feces" xlink:title="Feces&#10;[&#45;]">
<path fill="lightblue" stroke="black" d="M55.22,-133C55.22,-133 174.82,-133 174.82,-133 180.82,-133 186.82,-139 186.82,-145 186.82,-145 186.82,-213 186.82,-213 186.82,-219 180.82,-225 174.82,-225 174.82,-225 55.22,-225 55.22,-225 49.22,-225 43.22,-219 43.22,-213 43.22,-213 43.22,-145 43.22,-145 43.22,-139 49.22,-133 55.22,-133"/>
<text text-anchor="middle" x="115.02" y="-209.8" font-family="Arial" font-size="14.00">Feces</text>
<text text-anchor="middle" x="115.02" y="-194.8" font-family="Arial" font-size="14.00">[&#45;]</text>
</a>
</g>
</g>
<!-- AGILumen -->
<g id="node1" class="node">
<title>AGILumen</title>
<g id="a_node1"><a xlink:href="#species-AGILumen" xlink:title="AGILumen&#10;[&#45;]">
<path fill="gold" stroke="black" d="M313.34,-304C313.34,-304 254.34,-304 254.34,-304 248.34,-304 242.34,-298 242.34,-292 242.34,-292 242.34,-278 242.34,-278 242.34,-272 248.34,-266 254.34,-266 254.34,-266 313.34,-266 313.34,-266 319.34,-266 325.34,-272 325.34,-278 325.34,-278 325.34,-292 325.34,-292 325.34,-298 319.34,-304 313.34,-304"/>
<text text-anchor="middle" x="283.84" y="-288.8" font-family="Arial" font-size="14.00">AGILumen</text>
<text text-anchor="middle" x="283.84" y="-273.8" font-family="Arial" font-size="14.00">[&#45;]</text>
</a>
</g>
</g>
<!-- ALiver -->
<g id="node3" class="node">
<title>ALiver</title>
<g id="a_node3"><a xlink:href="#species-ALiver" xlink:title="ALiver&#10;[PBPKO:00497]">
<path fill="gold" stroke="black" d="M334.34,-179C334.34,-179 245.34,-179 245.34,-179 239.34,-179 233.34,-173 233.34,-167 233.34,-167 233.34,-153 233.34,-153 233.34,-147 239.34,-141 245.34,-141 245.34,-141 334.34,-141 334.34,-141 340.34,-141 346.34,-147 346.34,-153 346.34,-153 346.34,-167 346.34,-167 346.34,-173 340.34,-179 334.34,-179"/>
<text text-anchor="middle" x="289.84" y="-163.8" font-family="Arial" font-size="14.00">ALiver</text>
<text text-anchor="middle" x="289.84" y="-148.8" font-family="Arial" font-size="14.00">[PBPKO:00497]</text>
</a>
</g>
</g>
<!-- AGILumen&#45;&gt;ALiver -->
<g id="edge1" class="edge">
<title>AGILumen&#45;&gt;ALiver</title>
<path fill="none" stroke="black" d="M284.72,-265.85C285.7,-245.68 287.31,-212.86 288.45,-189.31"/>
<polygon fill="black" stroke="black" points="291.96,-189.38 288.95,-179.22 284.96,-189.04 291.96,-189.38"/>
<text text-anchor="middle" x="296.84" y="-237.3" font-family="Times,serif" font-size="14.00">_J0</text>
</g>
<!-- AGILumenMet -->
<g id="node2" class="node">
<title>AGILumenMet</title>
<g id="a_node2"><a xlink:href="#species-AGILumenMet" xlink:title="AGILumenMet&#10;[&#45;]">
<path fill="gold" stroke="black" d="M165.84,-304C165.84,-304 83.84,-304 83.84,-304 77.84,-304 71.84,-298 71.84,-292 71.84,-292 71.84,-278 71.84,-278 71.84,-272 77.84,-266 83.84,-266 83.84,-266 165.84,-266 165.84,-266 171.84,-266 177.84,-272 177.84,-278 177.84,-278 177.84,-292 177.84,-292 177.84,-298 171.84,-304 165.84,-304"/>
<text text-anchor="middle" x="124.84" y="-288.8" font-family="Arial" font-size="14.00">AGILumenMet</text>
<text text-anchor="middle" x="124.84" y="-273.8" font-family="Arial" font-size="14.00">[&#45;]</text>
</a>
</g>
</g>
<!-- AGILumenMet&#45;&gt;ALiver -->
<g id="edge2" class="edge">
<title>AGILumenMet&#45;&gt;ALiver</title>
<path fill="none" stroke="black" d="M149.18,-265.85C177.9,-244.44 225.75,-208.77 257.54,-185.07"/>
<polygon fill="black" stroke="black" points="259.73,-187.81 265.66,-179.02 255.55,-182.19 259.73,-187.81"/>
<text text-anchor="middle" x="202.84" y="-237.3" font-family="Times,serif" font-size="14.00">_J8</text>
</g>
<!-- AFecesMet -->
<g id="node8" class="node">
<title>AFecesMet</title>
<g id="a_node8"><a xlink:href="#species-AFecesMet" xlink:title="AFecesMet&#10;[&#45;]">
<path fill="gold" stroke="black" d="M145.84,-179C145.84,-179 83.84,-179 83.84,-179 77.84,-179 71.84,-173 71.84,-167 71.84,-167 71.84,-153 71.84,-153 71.84,-147 77.84,-141 83.84,-141 83.84,-141 145.84,-141 145.84,-141 151.84,-141 157.84,-147 157.84,-153 157.84,-153 157.84,-167 157.84,-167 157.84,-173 151.84,-179 145.84,-179"/>
<text text-anchor="middle" x="114.84" y="-163.8" font-family="Arial" font-size="14.00">AFecesMet</text>
<text text-anchor="middle" x="114.84" y="-148.8" font-family="Arial" font-size="14.00">[&#45;]</text>
</a>
</g>
</g>
<!-- AGILumenMet&#45;&gt;AFecesMet -->
<g id="edge3" class="edge">
<title>AGILumenMet&#45;&gt;AFecesMet</title>
<path fill="none" stroke="black" d="M123.36,-265.85C121.72,-245.68 119.05,-212.86 117.14,-189.31"/>
<polygon fill="black" stroke="black" points="120.62,-188.91 116.32,-179.22 113.64,-189.47 120.62,-188.91"/>
<text text-anchor="middle" x="132.84" y="-237.3" font-family="Times,serif" font-size="14.00">_J9</text>
</g>
<!-- ALiverMet -->
<g id="node4" class="node">
<title>ALiverMet</title>
<g id="a_node4"><a xlink:href="#species-ALiverMet" xlink:title="ALiverMet&#10;[&#45;]">
<path fill="gold" stroke="black" d="M316.84,-54C316.84,-54 262.84,-54 262.84,-54 256.84,-54 250.84,-48 250.84,-42 250.84,-42 250.84,-28 250.84,-28 250.84,-22 256.84,-16 262.84,-16 262.84,-16 316.84,-16 316.84,-16 322.84,-16 328.84,-22 328.84,-28 328.84,-28 328.84,-42 328.84,-42 328.84,-48 322.84,-54 316.84,-54"/>
<text text-anchor="middle" x="289.84" y="-38.8" font-family="Arial" font-size="14.00">ALiverMet</text>
<text text-anchor="middle" x="289.84" y="-23.8" font-family="Arial" font-size="14.00">[&#45;]</text>
</a>
</g>
</g>
<!-- ALiver&#45;&gt;ALiverMet -->
<g id="edge4" class="edge">
<title>ALiver&#45;&gt;ALiverMet</title>
<path fill="none" stroke="black" d="M289.84,-140.85C289.84,-120.68 289.84,-87.86 289.84,-64.31"/>
<polygon fill="black" stroke="black" points="293.34,-64.22 289.84,-54.22 286.34,-64.22 293.34,-64.22"/>
<text text-anchor="middle" x="300.84" y="-112.3" font-family="Times,serif" font-size="14.00">_J5</text>
</g>
<!-- ABlood -->
<g id="node5" class="node">
<title>ABlood</title>
<g id="a_node5"><a xlink:href="#species-ABlood" xlink:title="ABlood&#10;[&#45;]">
<path fill="gold" stroke="black" d="M607.84,-54C607.84,-54 571.84,-54 571.84,-54 565.84,-54 559.84,-48 559.84,-42 559.84,-42 559.84,-28 559.84,-28 559.84,-22 565.84,-16 571.84,-16 571.84,-16 607.84,-16 607.84,-16 613.84,-16 619.84,-22 619.84,-28 619.84,-28 619.84,-42 619.84,-42 619.84,-48 613.84,-54 607.84,-54"/>
<text text-anchor="middle" x="589.84" y="-38.8" font-family="Arial" font-size="14.00">ABlood</text>
<text text-anchor="middle" x="589.84" y="-23.8" font-family="Arial" font-size="14.00">[&#45;]</text>
</a>
</g>
</g>
<!-- ALiver&#45;&gt;ABlood -->
<g id="edge5" class="edge">
<title>ALiver&#45;&gt;ABlood</title>
<path fill="none" stroke="black" d="M325.46,-140.97C349.51,-129.66 382.32,-115.86 412.84,-108.5 456.63,-97.93 472.2,-117.21 513.84,-100 534.28,-91.55 553.32,-75.5 567.22,-61.59"/>
<polygon fill="black" stroke="black" points="569.98,-63.78 574.4,-54.15 564.94,-58.92 569.98,-63.78"/>
<text text-anchor="middle" x="423.84" y="-112.3" font-family="Times,serif" font-size="14.00">_J2</text>
</g>
<!-- ALiverMet&#45;&gt;AGILumenMet -->
<g id="edge6" class="edge">
<title>ALiverMet&#45;&gt;AGILumenMet</title>
<path fill="none" stroke="black" d="M250.62,-36.72C188.85,-40.22 70.43,-57.08 16.84,-133 -6.75,-166.4 -4.03,-189.83 16.84,-225 27.14,-242.37 44.56,-254.96 62.43,-263.92"/>
<polygon fill="black" stroke="black" points="61.24,-267.23 71.79,-268.29 64.2,-260.89 61.24,-267.23"/>
<text text-anchor="middle" x="27.84" y="-156.3" font-family="Times,serif" font-size="14.00">_J7</text>
</g>
<!-- ABloodMet -->
<g id="node6" class="node">
<title>ABloodMet</title>
<g id="a_node6"><a xlink:href="#species-ABloodMet" xlink:title="ABloodMet&#10;[&#45;]">
<path fill="gold" stroke="black" d="M492.34,-54C492.34,-54 433.34,-54 433.34,-54 427.34,-54 421.34,-48 421.34,-42 421.34,-42 421.34,-28 421.34,-28 421.34,-22 427.34,-16 433.34,-16 433.34,-16 492.34,-16 492.34,-16 498.34,-16 504.34,-22 504.34,-28 504.34,-28 504.34,-42 504.34,-42 504.34,-48 498.34,-54 492.34,-54"/>
<text text-anchor="middle" x="462.84" y="-38.8" font-family="Arial" font-size="14.00">ABloodMet</text>
<text text-anchor="middle" x="462.84" y="-23.8" font-family="Arial" font-size="14.00">[&#45;]</text>
</a>
</g>
</g>
<!-- ALiverMet&#45;&gt;ABloodMet -->
<g id="edge7" class="edge">
<title>ALiverMet&#45;&gt;ABloodMet</title>
<path fill="none" stroke="black" d="M329.09,-35C353.38,-35 384.84,-35 411.15,-35"/>
<polygon fill="black" stroke="black" points="411.32,-38.5 421.32,-35 411.32,-31.5 411.32,-38.5"/>
<text text-anchor="middle" x="375.09" y="-41.8" font-family="Times,serif" font-size="14.00">_J6</text>
</g>
<!-- ABlood&#45;&gt;ALiver -->
<g id="edge8" class="edge">
<title>ABlood&#45;&gt;ALiver</title>
<path fill="none" stroke="black" d="M572.67,-54.09C558.2,-68.39 536.31,-87.88 513.84,-100 464.53,-126.58 402.57,-141.7 356.32,-149.97"/>
<polygon fill="black" stroke="black" points="355.67,-146.53 346.41,-151.68 356.86,-153.43 355.67,-146.53"/>
<text text-anchor="middle" x="501.84" y="-112.3" font-family="Times,serif" font-size="14.00">_J1</text>
</g>
<!-- ARest -->
<g id="node7" class="node">
<title>ARest</title>
<g id="a_node7"><a xlink:href="#species-ARest" xlink:title="ARest&#10;[PBPKO:00501]">
<path fill="gold" stroke="black" d="M589.34,-179C589.34,-179 500.34,-179 500.34,-179 494.34,-179 488.34,-173 488.34,-167 488.34,-167 488.34,-153 488.34,-153 488.34,-147 494.34,-141 500.34,-141 500.34,-141 589.34,-141 589.34,-141 595.34,-141 601.34,-147 601.34,-153 601.34,-153 601.34,-167 601.34,-167 601.34,-173 595.34,-179 589.34,-179"/>
<text text-anchor="middle" x="544.84" y="-163.8" font-family="Arial" font-size="14.00">ARest</text>
<text text-anchor="middle" x="544.84" y="-148.8" font-family="Arial" font-size="14.00">[PBPKO:00501]</text>
</a>
</g>
</g>
<!-- ABlood&#45;&gt;ARest -->
<g id="edge9" class="edge">
<title>ABlood&#45;&gt;ARest</title>
<path fill="none" stroke="black" d="M577.53,-54.22C568.6,-68.39 557.03,-88.87 550.84,-108.5 548.59,-115.6 547.18,-123.49 546.29,-130.89"/>
<polygon fill="black" stroke="black" points="542.8,-130.61 545.35,-140.89 549.77,-131.27 542.8,-130.61"/>
<text text-anchor="middle" x="561.84" y="-112.3" font-family="Times,serif" font-size="14.00">_J3</text>
</g>
<!-- ARest&#45;&gt;ABlood -->
<g id="edge10" class="edge">
<title>ARest&#45;&gt;ABlood</title>
<path fill="none" stroke="black" d="M561.76,-140.95C565.94,-135.66 570.02,-129.64 572.84,-123.5 581.38,-104.86 585.63,-82.08 587.75,-64.43"/>
<polygon fill="black" stroke="black" points="591.26,-64.5 588.81,-54.19 584.3,-63.78 591.26,-64.5"/>
<text text-anchor="middle" x="588.84" y="-112.3" font-family="Times,serif" font-size="14.00">_J4</text>
</g>
</g>
</svg>
