<?xml version="1.0" encoding="UTF-8" standalone="no"?>
<!DOCTYPE svg PUBLIC "-//W3C//DTD SVG 1.1//EN"
 "http://www.w3.org/Graphics/SVG/1.1/DTD/svg11.dtd">
<!-- Generated by graphviz version 2.43.0 (0)
 -->
<!-- Title: %3 Pages: 1 -->
<svg width="502pt" height="288pt"
 viewBox="0.00 0.00 501.86 288.00" xmlns="http://www.w3.org/2000/svg" xmlns:xlink="http://www.w3.org/1999/xlink">
<g id="graph0" class="graph" transform="scale(0.36 0.36) rotate(0) translate(4 802)">
<title>%3</title>
<polygon fill="white" stroke="transparent" points="-4,4 -4,-802 1400.5,-802 1400.5,4 -4,4"/>
<g id="clust1" class="cluster">
<title>cluster_Stomach</title>
<g id="a_clust1"><a xlink:href="#compartment-Stomach" xlink:title="Stomach&#10;[&#45;]">
<path fill="lightblue" stroke="black" d="M417.36,-660C417.36,-660 568.85,-660 568.85,-660 574.85,-660 580.85,-666 580.85,-672 580.85,-672 580.85,-778 580.85,-778 580.85,-784 574.85,-790 568.85,-790 568.85,-790 417.36,-790 417.36,-790 411.36,-790 405.36,-784 405.36,-778 405.36,-778 405.36,-672 405.36,-672 405.36,-666 411.36,-660 417.36,-660"/>
<text text-anchor="middle" x="493.1" y="-774.8" font-family="Arial" font-size="14.00">Stomach</text>
<text text-anchor="middle" x="493.1" y="-759.8" font-family="Arial" font-size="14.00">[&#45;]</text>
</a>
</g>
</g>
<g id="clust2" class="cluster">
<title>cluster_Intestinal</title>
<g id="a_clust2"><a xlink:href="#compartment-Intestinal" xlink:title="Intestinal&#10;[&#45;]">
<path fill="lightblue" stroke="black" d="M323.43,-497C323.43,-497 474.92,-497 474.92,-497 480.92,-497 486.92,-503 486.92,-509 486.92,-509 486.92,-615 486.92,-615 486.92,-621 480.92,-627 474.92,-627 474.92,-627 323.43,-627 323.43,-627 317.43,-627 311.43,-621 311.43,-615 311.43,-615 311.43,-509 311.43,-509 311.43,-503 317.43,-497 323.43,-497"/>
<text text-anchor="middle" x="399.18" y="-611.8" font-family="Arial" font-size="14.00">Intestinal</text>
<text text-anchor="middle" x="399.18" y="-596.8" font-family="Arial" font-size="14.00">[&#45;]</text>
</a>
</g>
</g>
<g id="clust3" class="cluster">
<title>cluster_Liver</title>
<g id="a_clust3"><a xlink:href="#compartment-Liver" xlink:title="Liver&#10;[&#45;]">
<path fill="lightblue" stroke="black" d="M239.39,-334C239.39,-334 630.64,-334 630.64,-334 636.64,-334 642.64,-340 642.64,-346 642.64,-346 642.64,-452 642.64,-452 642.64,-458 636.64,-464 630.64,-464 630.64,-464 239.39,-464 239.39,-464 233.39,-464 227.39,-458 227.39,-452 227.39,-452 227.39,-346 227.39,-346 227.39,-340 233.39,-334 239.39,-334"/>
<text text-anchor="middle" x="435.02" y="-448.8" font-family="Arial" font-size="14.00">Liver</text>
<text text-anchor="middle" x="435.02" y="-433.8" font-family="Arial" font-size="14.00">[&#45;]</text>
</a>
</g>
</g>
<g id="clust4" class="cluster">
<title>cluster_Blood</title>
<g id="a_clust4"><a xlink:href="#compartment-Blood" xlink:title="Blood&#10;[&#45;]">
<path fill="lightblue" stroke="black" d="M674.41,-334C674.41,-334 1090.37,-334 1090.37,-334 1096.37,-334 1102.37,-340 1102.37,-346 1102.37,-346 1102.37,-452 1102.37,-452 1102.37,-458 1096.37,-464 1090.37,-464 1090.37,-464 674.41,-464 674.41,-464 668.41,-464 662.41,-458 662.41,-452 662.41,-452 662.41,-346 662.41,-346 662.41,-340 668.41,-334 674.41,-334"/>
<text text-anchor="middle" x="882.39" y="-448.8" font-family="Arial" font-size="14.00">Blood</text>
<text text-anchor="middle" x="882.39" y="-433.8" font-family="Arial" font-size="14.00">[&#45;]</text>
</a>
</g>
</g>
<g id="clust5" class="cluster">
<title>cluster_RestVC</title>
<g id="a_clust5"><a xlink:href="#compartment-RestVC" xlink:title="RestVC&#10;[&#45;]">
<path fill="lightblue" stroke="black" d="M1025.39,-171C1025.39,-171 1218.9,-171 1218.9,-171 1224.9,-171 1230.9,-177 1230.9,-183 1230.9,-183 1230.9,-289 1230.9,-289 1230.9,-295 1224.9,-301 1218.9,-301 1218.9,-301 1025.39,-301 1025.39,-301 1019.39,-301 1013.39,-295 1013.39,-289 1013.39,-289 1013.39,-183 1013.39,-183 1013.39,-177 1019.39,-171 1025.39,-171"/>
<text text-anchor="middle" x="1122.14" y="-285.8" font-family="Arial" font-size="14.00">RestVC</text>
<text text-anchor="middle" x="1122.14" y="-270.8" font-family="Arial" font-size="14.00">[&#45;]</text>
</a>
</g>
</g>
<g id="clust6" class="cluster">
<title>cluster_RestT</title>
<g id="a_clust6"><a xlink:href="#compartment-RestT" xlink:title="RestT&#10;[&#45;]">
<path fill="lightblue" stroke="black" d="M1195.94,-334C1195.94,-334 1364.73,-334 1364.73,-334 1370.73,-334 1376.73,-340 1376.73,-346 1376.73,-346 1376.73,-452 1376.73,-452 1376.73,-458 1370.73,-464 1364.73,-464 1364.73,-464 1195.94,-464 1195.94,-464 1189.94,-464 1183.94,-458 1183.94,-452 1183.94,-452 1183.94,-346 1183.94,-346 1183.94,-340 1189.94,-334 1195.94,-334"/>
<text text-anchor="middle" x="1280.33" y="-448.8" font-family="Arial" font-size="14.00">RestT</text>
<text text-anchor="middle" x="1280.33" y="-433.8" font-family="Arial" font-size="14.00">[&#45;]</text>
</a>
</g>
</g>
<g id="clust7" class="cluster">
<title>cluster_Fecal</title>
<g id="a_clust7"><a xlink:href="#compartment-Fecal" xlink:title="Fecal&#10;[&#45;]">
<path fill="lightblue" stroke="black" d="M31.77,-334C31.77,-334 195.62,-334 195.62,-334 201.62,-334 207.62,-340 207.62,-346 207.62,-346 207.62,-452 207.62,-452 207.62,-458 201.62,-464 195.62,-464 195.62,-464 31.77,-464 31.77,-464 25.77,-464 19.77,-458 19.77,-452 19.77,-452 19.77,-346 19.77,-346 19.77,-340 25.77,-334 31.77,-334"/>
<text text-anchor="middle" x="113.7" y="-448.8" font-family="Arial" font-size="14.00">Fecal</text>
<text text-anchor="middle" x="113.7" y="-433.8" font-family="Arial" font-size="14.00">[&#45;]</text>
</a>
</g>
</g>
<g id="clust8" class="cluster">
<title>cluster_Urine</title>
<g id="a_clust8"><a xlink:href="#compartment-Urine" xlink:title="Urine&#10;[&#45;]">
<path fill="lightblue" stroke="black" d="M624.98,-8C624.98,-8 783.88,-8 783.88,-8 789.88,-8 795.88,-14 795.88,-20 795.88,-20 795.88,-126 795.88,-126 795.88,-132 789.88,-138 783.88,-138 783.88,-138 624.98,-138 624.98,-138 618.98,-138 612.98,-132 612.98,-126 612.98,-126 612.98,-20 612.98,-20 612.98,-14 618.98,-8 624.98,-8"/>
<text text-anchor="middle" x="704.43" y="-122.8" font-family="Arial" font-size="14.00">Urine</text>
<text text-anchor="middle" x="704.43" y="-107.8" font-family="Arial" font-size="14.00">[&#45;]</text>
</a>
</g>
</g>
<g id="clust9" class="cluster">
<title>cluster_ExcretionCompartment</title>
<g id="a_clust9"><a xlink:href="#compartment-ExcretionCompartment" xlink:title="ExcretionCompartment&#10;[&#45;]">
<path fill="lightblue" stroke="black" d="M590.37,-171C590.37,-171 951.96,-171 951.96,-171 957.96,-171 963.96,-177 963.96,-183 963.96,-183 963.96,-289 963.96,-289 963.96,-295 957.96,-301 951.96,-301 951.96,-301 590.37,-301 590.37,-301 584.37,-301 578.37,-295 578.37,-289 578.37,-289 578.37,-183 578.37,-183 578.37,-177 584.37,-171 590.37,-171"/>
<text text-anchor="middle" x="771.16" y="-285.8" font-family="Arial" font-size="14.00">ExcretionCompartment</text>
<text text-anchor="middle" x="771.16" y="-270.8" font-family="Arial" font-size="14.00">[&#45;]</text>
</a>
</g>
</g>
<!-- ASt -->
<g id="node1" class="node">
<title>ASt</title>
<g id="a_node1"><a xlink:href="#species-ASt" xlink:title="ASt&#10;[&#45;]">
<path fill="gold" stroke="black" d="M506.38,-706C506.38,-706 476.38,-706 476.38,-706 470.38,-706 464.38,-700 464.38,-694 464.38,-694 464.38,-680 464.38,-680 464.38,-674 470.38,-668 476.38,-668 476.38,-668 506.38,-668 506.38,-668 512.38,-668 518.38,-674 518.38,-680 518.38,-680 518.38,-694 518.38,-694 518.38,-700 512.38,-706 506.38,-706"/>
<text text-anchor="middle" x="491.38" y="-690.8" font-family="Arial" font-size="14.00">ASt</text>
<text text-anchor="middle" x="491.38" y="-675.8" font-family="Arial" font-size="14.00">[&#45;]</text>
</a>
</g>
</g>
<!-- AIT -->
<g id="node2" class="node">
<title>AIT</title>
<g id="a_node2"><a xlink:href="#species-AIT" xlink:title="AIT&#10;[&#45;]">
<path fill="gold" stroke="black" d="M413.38,-543C413.38,-543 383.38,-543 383.38,-543 377.38,-543 371.38,-537 371.38,-531 371.38,-531 371.38,-517 371.38,-517 371.38,-511 377.38,-505 383.38,-505 383.38,-505 413.38,-505 413.38,-505 419.38,-505 425.38,-511 425.38,-517 425.38,-517 425.38,-531 425.38,-531 425.38,-537 419.38,-543 413.38,-543"/>
<text text-anchor="middle" x="398.38" y="-527.8" font-family="Arial" font-size="14.00">AIT</text>
<text text-anchor="middle" x="398.38" y="-512.8" font-family="Arial" font-size="14.00">[&#45;]</text>
</a>
</g>
</g>
<!-- ASt&#45;&gt;AIT -->
<g id="edge1" class="edge">
<title>ASt&#45;&gt;AIT</title>
<path fill="none" stroke="black" d="M480.89,-667.84C464.56,-639.58 432.98,-584.9 413.97,-552"/>
<polygon fill="black" stroke="black" points="417,-550.24 408.97,-543.34 410.94,-553.75 417,-550.24"/>
<text text-anchor="middle" x="479.38" y="-639.3" font-family="Times,serif" font-size="14.00">_J0</text>
</g>
<!-- ALiver -->
<g id="node3" class="node">
<title>ALiver</title>
<g id="a_node3"><a xlink:href="#species-ALiver" xlink:title="ALiver&#10;[&#45;]">
<path fill="gold" stroke="black" d="M568.88,-380C568.88,-380 537.88,-380 537.88,-380 531.88,-380 525.88,-374 525.88,-368 525.88,-368 525.88,-354 525.88,-354 525.88,-348 531.88,-342 537.88,-342 537.88,-342 568.88,-342 568.88,-342 574.88,-342 580.88,-348 580.88,-354 580.88,-354 580.88,-368 580.88,-368 580.88,-374 574.88,-380 568.88,-380"/>
<text text-anchor="middle" x="553.38" y="-364.8" font-family="Arial" font-size="14.00">ALiver</text>
<text text-anchor="middle" x="553.38" y="-349.8" font-family="Arial" font-size="14.00">[&#45;]</text>
</a>
</g>
</g>
<!-- ASt&#45;&gt;ALiver -->
<g id="edge2" class="edge">
<title>ASt&#45;&gt;ALiver</title>
<path fill="none" stroke="black" d="M494.89,-667.65C505.23,-613.63 535.6,-454.9 548.01,-390.07"/>
<polygon fill="black" stroke="black" points="551.46,-390.63 549.9,-380.15 544.59,-389.31 551.46,-390.63"/>
<text text-anchor="middle" x="538.38" y="-520.3" font-family="Times,serif" font-size="14.00">_J1</text>
</g>
<!-- AIT&#45;&gt;ALiver -->
<g id="edge3" class="edge">
<title>AIT&#45;&gt;ALiver</title>
<path fill="none" stroke="black" d="M415.86,-504.84C443.42,-476.22 497.07,-420.49 528.59,-387.74"/>
<polygon fill="black" stroke="black" points="531.31,-389.97 535.72,-380.34 526.27,-385.11 531.31,-389.97"/>
<text text-anchor="middle" x="454.38" y="-476.3" font-family="Times,serif" font-size="14.00">_J2</text>
</g>
<!-- AFecal -->
<g id="node9" class="node">
<title>AFecal</title>
<g id="a_node9"><a xlink:href="#species-AFecal" xlink:title="AFecal&#10;[&#45;]">
<path fill="gold" stroke="black" d="M130.88,-380C130.88,-380 95.88,-380 95.88,-380 89.88,-380 83.88,-374 83.88,-368 83.88,-368 83.88,-354 83.88,-354 83.88,-348 89.88,-342 95.88,-342 95.88,-342 130.88,-342 130.88,-342 136.88,-342 142.88,-348 142.88,-354 142.88,-354 142.88,-368 142.88,-368 142.88,-374 136.88,-380 130.88,-380"/>
<text text-anchor="middle" x="113.38" y="-364.8" font-family="Arial" font-size="14.00">AFecal</text>
<text text-anchor="middle" x="113.38" y="-349.8" font-family="Arial" font-size="14.00">[&#45;]</text>
</a>
</g>
</g>
<!-- AIT&#45;&gt;AFecal -->
<g id="edge4" class="edge">
<title>AIT&#45;&gt;AFecal</title>
<path fill="none" stroke="black" d="M371.08,-517.56C335.31,-509.62 271.47,-492.59 223.38,-464 188.93,-443.52 156.16,-410.81 135.49,-387.98"/>
<polygon fill="black" stroke="black" points="137.96,-385.49 128.7,-380.34 132.73,-390.14 137.96,-385.49"/>
<text text-anchor="middle" x="279.38" y="-476.3" font-family="Times,serif" font-size="14.00">_J3</text>
</g>
<!-- ABlood -->
<g id="node5" class="node">
<title>ABlood</title>
<g id="a_node5"><a xlink:href="#species-ABlood" xlink:title="ABlood&#10;[&#45;]">
<path fill="gold" stroke="black" d="M1026.38,-380C1026.38,-380 990.38,-380 990.38,-380 984.38,-380 978.38,-374 978.38,-368 978.38,-368 978.38,-354 978.38,-354 978.38,-348 984.38,-342 990.38,-342 990.38,-342 1026.38,-342 1026.38,-342 1032.38,-342 1038.38,-348 1038.38,-354 1038.38,-354 1038.38,-368 1038.38,-368 1038.38,-374 1032.38,-380 1026.38,-380"/>
<text text-anchor="middle" x="1008.38" y="-364.8" font-family="Arial" font-size="14.00">ABlood</text>
<text text-anchor="middle" x="1008.38" y="-349.8" font-family="Arial" font-size="14.00">[&#45;]</text>
</a>
</g>
</g>
<!-- ALiver&#45;&gt;ABlood -->
<g id="edge5" class="edge">
<title>ALiver&#45;&gt;ABlood</title>
<path fill="none" stroke="black" d="M567.47,-380.37C585.53,-403.36 619.22,-440.48 658.38,-455.5 732.65,-484 760.34,-475.37 837.38,-455.5 889.23,-442.12 942.17,-409.3 975.13,-386.11"/>
<polygon fill="black" stroke="black" points="977.38,-388.8 983.47,-380.14 973.3,-383.11 977.38,-388.8"/>
<text text-anchor="middle" x="835.38" y="-476.3" font-family="Times,serif" font-size="14.00">_J5</text>
</g>
<!-- AExcr -->
<g id="node11" class="node">
<title>AExcr</title>
<g id="a_node11"><a xlink:href="#species-AExcr" xlink:title="AExcr&#10;[&#45;]">
<path fill="gold" stroke="black" d="M719.38,-217C719.38,-217 689.38,-217 689.38,-217 683.38,-217 677.38,-211 677.38,-205 677.38,-205 677.38,-191 677.38,-191 677.38,-185 683.38,-179 689.38,-179 689.38,-179 719.38,-179 719.38,-179 725.38,-179 731.38,-185 731.38,-191 731.38,-191 731.38,-205 731.38,-205 731.38,-211 725.38,-217 719.38,-217"/>
<text text-anchor="middle" x="704.38" y="-201.8" font-family="Arial" font-size="14.00">AExcr</text>
<text text-anchor="middle" x="704.38" y="-186.8" font-family="Arial" font-size="14.00">[&#45;]</text>
</a>
</g>
</g>
<!-- ALiver&#45;&gt;AExcr -->
<g id="edge6" class="edge">
<title>ALiver&#45;&gt;AExcr</title>
<path fill="none" stroke="black" d="M570.41,-341.84C597.25,-313.22 649.52,-257.49 680.23,-224.74"/>
<polygon fill="black" stroke="black" points="682.89,-227.02 687.18,-217.34 677.79,-222.24 682.89,-227.02"/>
<text text-anchor="middle" x="612.88" y="-313.3" font-family="Times,serif" font-size="14.00">_J10</text>
</g>
<!-- ALiverMet -->
<g id="node4" class="node">
<title>ALiverMet</title>
<g id="a_node4"><a xlink:href="#species-ALiverMet" xlink:title="ALiverMet&#10;[&#45;]">
<path fill="gold" stroke="black" d="M370.38,-380C370.38,-380 316.38,-380 316.38,-380 310.38,-380 304.38,-374 304.38,-368 304.38,-368 304.38,-354 304.38,-354 304.38,-348 310.38,-342 316.38,-342 316.38,-342 370.38,-342 370.38,-342 376.38,-342 382.38,-348 382.38,-354 382.38,-354 382.38,-368 382.38,-368 382.38,-374 376.38,-380 370.38,-380"/>
<text text-anchor="middle" x="343.38" y="-364.8" font-family="Arial" font-size="14.00">ALiverMet</text>
<text text-anchor="middle" x="343.38" y="-349.8" font-family="Arial" font-size="14.00">[&#45;]</text>
</a>
</g>
</g>
<!-- ABlood&#45;&gt;ALiver -->
<g id="edge7" class="edge">
<title>ABlood&#45;&gt;ALiver</title>
<path fill="none" stroke="black" d="M983.47,-380.14C951.64,-403.28 893.87,-440.93 837.38,-455.5 760.34,-475.37 732.65,-484 658.38,-455.5 623.51,-442.12 592.96,-411.21 573.94,-388.37"/>
<polygon fill="black" stroke="black" points="576.48,-385.94 567.47,-380.37 571.04,-390.34 576.48,-385.94"/>
<text text-anchor="middle" x="744.38" y="-476.3" font-family="Times,serif" font-size="14.00">_J4</text>
</g>
<!-- ARestVC -->
<g id="node7" class="node">
<title>ARestVC</title>
<g id="a_node7"><a xlink:href="#species-ARestVC" xlink:title="ARestVC&#10;[&#45;]">
<path fill="gold" stroke="black" d="M1146.38,-217C1146.38,-217 1098.38,-217 1098.38,-217 1092.38,-217 1086.38,-211 1086.38,-205 1086.38,-205 1086.38,-191 1086.38,-191 1086.38,-185 1092.38,-179 1098.38,-179 1098.38,-179 1146.38,-179 1146.38,-179 1152.38,-179 1158.38,-185 1158.38,-191 1158.38,-191 1158.38,-205 1158.38,-205 1158.38,-211 1152.38,-217 1146.38,-217"/>
<text text-anchor="middle" x="1122.38" y="-201.8" font-family="Arial" font-size="14.00">ARestVC</text>
<text text-anchor="middle" x="1122.38" y="-186.8" font-family="Arial" font-size="14.00">[&#45;]</text>
</a>
</g>
</g>
<!-- ABlood&#45;&gt;ARestVC -->
<g id="edge8" class="edge">
<title>ABlood&#45;&gt;ARestVC</title>
<path fill="none" stroke="black" d="M1009.51,-341.9C1010.72,-331.9 1013.22,-319.51 1018.38,-309.5 1036.03,-275.2 1067.52,-243.98 1091.24,-223.54"/>
<polygon fill="black" stroke="black" points="1093.57,-226.16 1098.95,-217.04 1089.05,-220.81 1093.57,-226.16"/>
<text text-anchor="middle" x="1029.38" y="-313.3" font-family="Times,serif" font-size="14.00">_J6</text>
</g>
<!-- ABlood&#45;&gt;AExcr -->
<g id="edge9" class="edge">
<title>ABlood&#45;&gt;AExcr</title>
<path fill="none" stroke="black" d="M978.12,-343.97C921.81,-314.15 801.17,-250.26 740.62,-218.19"/>
<polygon fill="black" stroke="black" points="741.91,-214.92 731.43,-213.33 738.63,-221.1 741.91,-214.92"/>
<text text-anchor="middle" x="949.88" y="-313.3" font-family="Times,serif" font-size="14.00">_J11</text>
</g>
<!-- ABloodMet -->
<g id="node6" class="node">
<title>ABloodMet</title>
<g id="a_node6"><a xlink:href="#species-ABloodMet" xlink:title="ABloodMet&#10;[&#45;]">
<path fill="gold" stroke="black" d="M815.88,-380C815.88,-380 756.88,-380 756.88,-380 750.88,-380 744.88,-374 744.88,-368 744.88,-368 744.88,-354 744.88,-354 744.88,-348 750.88,-342 756.88,-342 756.88,-342 815.88,-342 815.88,-342 821.88,-342 827.88,-348 827.88,-354 827.88,-354 827.88,-368 827.88,-368 827.88,-374 821.88,-380 815.88,-380"/>
<text text-anchor="middle" x="786.38" y="-364.8" font-family="Arial" font-size="14.00">ABloodMet</text>
<text text-anchor="middle" x="786.38" y="-349.8" font-family="Arial" font-size="14.00">[&#45;]</text>
</a>
</g>
</g>
<!-- ARestVC&#45;&gt;ABlood -->
<g id="edge10" class="edge">
<title>ARestVC&#45;&gt;ABlood</title>
<path fill="none" stroke="black" d="M1111.8,-217.05C1096.92,-241.98 1068.48,-288 1040.38,-324.5 1037.94,-327.66 1035.29,-330.89 1032.59,-334.05"/>
<polygon fill="black" stroke="black" points="1029.86,-331.86 1025.88,-341.68 1035.11,-336.48 1029.86,-331.86"/>
<text text-anchor="middle" x="1060.38" y="-313.3" font-family="Times,serif" font-size="14.00">_J7</text>
</g>
<!-- ARestT -->
<g id="node8" class="node">
<title>ARestT</title>
<g id="a_node8"><a xlink:href="#species-ARestT" xlink:title="ARestT&#10;[&#45;]">
<path fill="gold" stroke="black" d="M1299.38,-380C1299.38,-380 1261.38,-380 1261.38,-380 1255.38,-380 1249.38,-374 1249.38,-368 1249.38,-368 1249.38,-354 1249.38,-354 1249.38,-348 1255.38,-342 1261.38,-342 1261.38,-342 1299.38,-342 1299.38,-342 1305.38,-342 1311.38,-348 1311.38,-354 1311.38,-354 1311.38,-368 1311.38,-368 1311.38,-374 1305.38,-380 1299.38,-380"/>
<text text-anchor="middle" x="1280.38" y="-364.8" font-family="Arial" font-size="14.00">ARestT</text>
<text text-anchor="middle" x="1280.38" y="-349.8" font-family="Arial" font-size="14.00">[&#45;]</text>
</a>
</g>
</g>
<!-- ARestVC&#45;&gt;ARestT -->
<g id="edge11" class="edge">
<title>ARestVC&#45;&gt;ARestT</title>
<path fill="none" stroke="black" d="M1138.92,-217.27C1161.54,-242.07 1203.63,-287.52 1241.38,-324.5 1244.87,-327.92 1248.61,-331.47 1252.33,-334.93"/>
<polygon fill="black" stroke="black" points="1250.14,-337.67 1259.87,-341.85 1254.87,-332.51 1250.14,-337.67"/>
<text text-anchor="middle" x="1252.38" y="-313.3" font-family="Times,serif" font-size="14.00">_J9</text>
</g>
<!-- ARestT&#45;&gt;ARestVC -->
<g id="edge12" class="edge">
<title>ARestT&#45;&gt;ARestVC</title>
<path fill="none" stroke="black" d="M1276.88,-341.52C1274.33,-331.4 1270.11,-319.02 1263.38,-309.5 1237.2,-272.48 1195.11,-241.78 1163.72,-222.22"/>
<polygon fill="black" stroke="black" points="1165.53,-219.22 1155.17,-217 1161.88,-225.2 1165.53,-219.22"/>
<text text-anchor="middle" x="1281.38" y="-313.3" font-family="Times,serif" font-size="14.00">_J8</text>
</g>
<!-- AUrine -->
<g id="node10" class="node">
<title>AUrine</title>
<g id="a_node10"><a xlink:href="#species-AUrine" xlink:title="AUrine&#10;[&#45;]">
<path fill="gold" stroke="black" d="M721.38,-54C721.38,-54 687.38,-54 687.38,-54 681.38,-54 675.38,-48 675.38,-42 675.38,-42 675.38,-28 675.38,-28 675.38,-22 681.38,-16 687.38,-16 687.38,-16 721.38,-16 721.38,-16 727.38,-16 733.38,-22 733.38,-28 733.38,-28 733.38,-42 733.38,-42 733.38,-48 727.38,-54 721.38,-54"/>
<text text-anchor="middle" x="704.38" y="-38.8" font-family="Arial" font-size="14.00">AUrine</text>
<text text-anchor="middle" x="704.38" y="-23.8" font-family="Arial" font-size="14.00">[&#45;]</text>
</a>
</g>
</g>
<!-- AExcr&#45;&gt;AUrine -->
<g id="edge13" class="edge">
<title>AExcr&#45;&gt;AUrine</title>
<path fill="none" stroke="black" d="M704.38,-178.84C704.38,-151.06 704.38,-97.76 704.38,-64.7"/>
<polygon fill="black" stroke="black" points="707.88,-64.34 704.38,-54.34 700.88,-64.34 707.88,-64.34"/>
<text text-anchor="middle" x="719.88" y="-150.3" font-family="Times,serif" font-size="14.00">_J12</text>
</g>
</g>
</svg>
