<?xml version="1.0" encoding="UTF-8" standalone="no"?>
<!DOCTYPE svg PUBLIC "-//W3C//DTD SVG 1.1//EN"
 "http://www.w3.org/Graphics/SVG/1.1/DTD/svg11.dtd">
<!-- Generated by graphviz version 2.43.0 (0)
 -->
<!-- Title: %3 Pages: 1 -->
<svg width="499pt" height="288pt"
 viewBox="0.00 0.00 499.28 288.00" xmlns="http://www.w3.org/2000/svg" xmlns:xlink="http://www.w3.org/1999/xlink">
<g id="graph0" class="graph" transform="scale(0.79 0.79) rotate(0) translate(4 362)">
<title>%3</title>
<polygon fill="white" stroke="transparent" points="-4,4 -4,-362 630.5,-362 630.5,4 -4,4"/>
<g id="clust1" class="cluster">
<title>cluster_GI</title>
<g id="a_clust1"><a xlink:href="#compartment-GI" xlink:title="GI&#10;[PBPKO:00477]">
<path fill="lightblue" stroke="black" d="M111.71,-133C111.71,-133 332.29,-133 332.29,-133 338.29,-133 344.29,-139 344.29,-145 344.29,-145 344.29,-213 344.29,-213 344.29,-219 338.29,-225 332.29,-225 332.29,-225 111.71,-225 111.71,-225 105.71,-225 99.71,-219 99.71,-213 99.71,-213 99.71,-145 99.71,-145 99.71,-139 105.71,-133 111.71,-133"/>
<text text-anchor="middle" x="222" y="-209.8" font-family="Arial" font-size="14.00">GI</text>
<text text-anchor="middle" x="222" y="-194.8" font-family="Arial" font-size="14.00">[PBPKO:00477]</text>
</a>
</g>
</g>
<g id="clust2" class="cluster">
<title>cluster_Liver</title>
<g id="a_clust2"><a xlink:href="#compartment-Liver" xlink:title="Liver&#10;[PBPKO:00558]">
<path fill="lightblue" stroke="black" d="M27.05,-258C27.05,-258 247.63,-258 247.63,-258 253.63,-258 259.63,-264 259.63,-270 259.63,-270 259.63,-338 259.63,-338 259.63,-344 253.63,-350 247.63,-350 247.63,-350 27.05,-350 27.05,-350 21.05,-350 15.05,-344 15.05,-338 15.05,-338 15.05,-270 15.05,-270 15.05,-264 21.05,-258 27.05,-258"/>
<text text-anchor="middle" x="137.34" y="-334.8" font-family="Arial" font-size="14.00">Liver</text>
<text text-anchor="middle" x="137.34" y="-319.8" font-family="Arial" font-size="14.00">[PBPKO:00558]</text>
</a>
</g>
</g>
<g id="clust3" class="cluster">
<title>cluster_Plasma</title>
<g id="a_clust3"><a xlink:href="#compartment-Plasma" xlink:title="Plasma&#10;[PBPKO:00488]">
<path fill="lightblue" stroke="black" d="M314.9,-258C314.9,-258 535.48,-258 535.48,-258 541.48,-258 547.48,-264 547.48,-270 547.48,-270 547.48,-338 547.48,-338 547.48,-344 541.48,-350 535.48,-350 535.48,-350 314.9,-350 314.9,-350 308.9,-350 302.9,-344 302.9,-338 302.9,-338 302.9,-270 302.9,-270 302.9,-264 308.9,-258 314.9,-258"/>
<text text-anchor="middle" x="425.19" y="-334.8" font-family="Arial" font-size="14.00">Plasma</text>
<text text-anchor="middle" x="425.19" y="-319.8" font-family="Arial" font-size="14.00">[PBPKO:00488]</text>
</a>
</g>
</g>
<g id="clust4" class="cluster">
<title>cluster_Rest</title>
<g id="a_clust4"><a xlink:href="#compartment-Rest" xlink:title="Rest&#10;[PBPKO:00450]">
<path fill="lightblue" stroke="black" d="M378.87,-133C378.87,-133 599.45,-133 599.45,-133 605.45,-133 611.45,-139 611.45,-145 611.45,-145 611.45,-213 611.45,-213 611.45,-219 605.45,-225 599.45,-225 599.45,-225 378.87,-225 378.87,-225 372.87,-225 366.87,-219 366.87,-213 366.87,-213 366.87,-145 366.87,-145 366.87,-139 372.87,-133 378.87,-133"/>
<text text-anchor="middle" x="489.16" y="-209.8" font-family="Arial" font-size="14.00">Rest</text>
<text text-anchor="middle" x="489.16" y="-194.8" font-family="Arial" font-size="14.00">[PBPKO:00450]</text>
</a>
</g>
</g>
<g id="clust5" class="cluster">
<title>cluster_Feces</title>
<g id="a_clust5"><a xlink:href="#compartment-Feces" xlink:title="Feces&#10;[PBPKO:00555]">
<path fill="lightblue" stroke="black" d="M111.71,-8C111.71,-8 332.29,-8 332.29,-8 338.29,-8 344.29,-14 344.29,-20 344.29,-20 344.29,-88 344.29,-88 344.29,-94 338.29,-100 332.29,-100 332.29,-100 111.71,-100 111.71,-100 105.71,-100 99.71,-94 99.71,-88 99.71,-88 99.71,-20 99.71,-20 99.71,-14 105.71,-8 111.71,-8"/>
<text text-anchor="middle" x="222" y="-84.8" font-family="Arial" font-size="14.00">Feces</text>
<text text-anchor="middle" x="222" y="-69.8" font-family="Arial" font-size="14.00">[PBPKO:00555]</text>
</a>
</g>
</g>
<!-- AGI -->
<g id="node1" class="node">
<title>AGI</title>
<g id="a_node1"><a xlink:href="#species-AGI" xlink:title="AGI&#10;[PBPKO:00496]">
<path fill="gold" stroke="black" d="M266.56,-179C266.56,-179 177.56,-179 177.56,-179 171.56,-179 165.56,-173 165.56,-167 165.56,-167 165.56,-153 165.56,-153 165.56,-147 171.56,-141 177.56,-141 177.56,-141 266.56,-141 266.56,-141 272.56,-141 278.56,-147 278.56,-153 278.56,-153 278.56,-167 278.56,-167 278.56,-173 272.56,-179 266.56,-179"/>
<text text-anchor="middle" x="222.06" y="-163.8" font-family="Arial" font-size="14.00">AGI</text>
<text text-anchor="middle" x="222.06" y="-148.8" font-family="Arial" font-size="14.00">[PBPKO:00496]</text>
</a>
</g>
</g>
<!-- ALiver -->
<g id="node2" class="node">
<title>ALiver</title>
<g id="a_node2"><a xlink:href="#species-ALiver" xlink:title="ALiver&#10;[PBPKO:00497]">
<path fill="gold" stroke="black" d="M181.56,-304C181.56,-304 92.56,-304 92.56,-304 86.56,-304 80.56,-298 80.56,-292 80.56,-292 80.56,-278 80.56,-278 80.56,-272 86.56,-266 92.56,-266 92.56,-266 181.56,-266 181.56,-266 187.56,-266 193.56,-272 193.56,-278 193.56,-278 193.56,-292 193.56,-292 193.56,-298 187.56,-304 181.56,-304"/>
<text text-anchor="middle" x="137.06" y="-288.8" font-family="Arial" font-size="14.00">ALiver</text>
<text text-anchor="middle" x="137.06" y="-273.8" font-family="Arial" font-size="14.00">[PBPKO:00497]</text>
</a>
</g>
</g>
<!-- AGI&#45;&gt;ALiver -->
<g id="edge1" class="edge">
<title>AGI&#45;&gt;ALiver</title>
<path fill="none" stroke="black" d="M209.46,-179.22C195.19,-199.88 171.8,-233.73 155.47,-257.35"/>
<polygon fill="black" stroke="black" points="152.4,-255.63 149.6,-265.85 158.16,-259.61 152.4,-255.63"/>
<text text-anchor="middle" x="183.06" y="-237.3" font-family="Times,serif" font-size="14.00">_J0</text>
</g>
<!-- AFeces -->
<g id="node5" class="node">
<title>AFeces</title>
<g id="a_node5"><a xlink:href="#species-AFeces" xlink:title="AFeces&#10;[PBPKO:00275]">
<path fill="gold" stroke="black" d="M266.56,-54C266.56,-54 177.56,-54 177.56,-54 171.56,-54 165.56,-48 165.56,-42 165.56,-42 165.56,-28 165.56,-28 165.56,-22 171.56,-16 177.56,-16 177.56,-16 266.56,-16 266.56,-16 272.56,-16 278.56,-22 278.56,-28 278.56,-28 278.56,-42 278.56,-42 278.56,-48 272.56,-54 266.56,-54"/>
<text text-anchor="middle" x="222.06" y="-38.8" font-family="Arial" font-size="14.00">AFeces</text>
<text text-anchor="middle" x="222.06" y="-23.8" font-family="Arial" font-size="14.00">[PBPKO:00275]</text>
</a>
</g>
</g>
<!-- AGI&#45;&gt;AFeces -->
<g id="edge2" class="edge">
<title>AGI&#45;&gt;AFeces</title>
<path fill="none" stroke="black" d="M222.06,-140.85C222.06,-120.68 222.06,-87.86 222.06,-64.31"/>
<polygon fill="black" stroke="black" points="225.56,-64.22 222.06,-54.22 218.56,-64.22 225.56,-64.22"/>
<text text-anchor="middle" x="233.06" y="-112.3" font-family="Times,serif" font-size="14.00">_J2</text>
</g>
<!-- ALiver&#45;&gt;AGI -->
<g id="edge3" class="edge">
<title>ALiver&#45;&gt;AGI</title>
<path fill="none" stroke="black" d="M178.27,-265.98C185.7,-261.2 192.75,-255.4 198.06,-248.5 211.14,-231.49 217.1,-207.8 219.81,-189.36"/>
<polygon fill="black" stroke="black" points="223.31,-189.55 221.05,-179.2 216.36,-188.69 223.31,-189.55"/>
<text text-anchor="middle" x="218.06" y="-237.3" font-family="Times,serif" font-size="14.00">_J1</text>
</g>
<!-- APlasma -->
<g id="node3" class="node">
<title>APlasma</title>
<g id="a_node3"><a xlink:href="#species-APlasma" xlink:title="APlasma&#10;[PBPKO:00502]">
<path fill="gold" stroke="black" d="M469.56,-304C469.56,-304 380.56,-304 380.56,-304 374.56,-304 368.56,-298 368.56,-292 368.56,-292 368.56,-278 368.56,-278 368.56,-272 374.56,-266 380.56,-266 380.56,-266 469.56,-266 469.56,-266 475.56,-266 481.56,-272 481.56,-278 481.56,-278 481.56,-292 481.56,-292 481.56,-298 475.56,-304 469.56,-304"/>
<text text-anchor="middle" x="425.06" y="-288.8" font-family="Arial" font-size="14.00">APlasma</text>
<text text-anchor="middle" x="425.06" y="-273.8" font-family="Arial" font-size="14.00">[PBPKO:00502]</text>
</a>
</g>
</g>
<!-- ALiver&#45;&gt;APlasma -->
<g id="edge4" class="edge">
<title>ALiver&#45;&gt;APlasma</title>
<path fill="none" stroke="black" d="M193.61,-285C240.82,-285 308.19,-285 358.09,-285"/>
<polygon fill="black" stroke="black" points="358.14,-288.5 368.14,-285 358.14,-281.5 358.14,-288.5"/>
<text text-anchor="middle" x="281.06" y="-291.8" font-family="Times,serif" font-size="14.00">_J5</text>
</g>
<!-- APlasma&#45;&gt;AGI -->
<g id="edge5" class="edge">
<title>APlasma&#45;&gt;AGI</title>
<path fill="none" stroke="black" d="M395.1,-265.85C359.47,-244.26 299.9,-208.16 260.79,-184.47"/>
<polygon fill="black" stroke="black" points="262.17,-181.21 251.8,-179.02 258.54,-187.2 262.17,-181.21"/>
<text text-anchor="middle" x="377.06" y="-237.3" font-family="Times,serif" font-size="14.00">_J3</text>
</g>
<!-- APlasma&#45;&gt;ALiver -->
<g id="edge6" class="edge">
<title>APlasma&#45;&gt;ALiver</title>
<path fill="none" stroke="black" d="M368.14,-285C320.83,-285 253.45,-285 203.64,-285"/>
<polygon fill="black" stroke="black" points="203.61,-281.5 193.61,-285 203.61,-288.5 203.61,-281.5"/>
<text text-anchor="middle" x="281.06" y="-291.8" font-family="Times,serif" font-size="14.00">_J4</text>
</g>
<!-- ARest -->
<g id="node4" class="node">
<title>ARest</title>
<g id="a_node4"><a xlink:href="#species-ARest" xlink:title="ARest&#10;[PBPKO:00501]">
<path fill="gold" stroke="black" d="M533.56,-179C533.56,-179 444.56,-179 444.56,-179 438.56,-179 432.56,-173 432.56,-167 432.56,-167 432.56,-153 432.56,-153 432.56,-147 438.56,-141 444.56,-141 444.56,-141 533.56,-141 533.56,-141 539.56,-141 545.56,-147 545.56,-153 545.56,-153 545.56,-167 545.56,-167 545.56,-173 539.56,-179 533.56,-179"/>
<text text-anchor="middle" x="489.06" y="-163.8" font-family="Arial" font-size="14.00">ARest</text>
<text text-anchor="middle" x="489.06" y="-148.8" font-family="Arial" font-size="14.00">[PBPKO:00501]</text>
</a>
</g>
</g>
<!-- APlasma&#45;&gt;ARest -->
<g id="edge7" class="edge">
<title>APlasma&#45;&gt;ARest</title>
<path fill="none" stroke="black" d="M434.5,-265.85C445.14,-245.41 462.53,-211.97 474.82,-188.36"/>
<polygon fill="black" stroke="black" points="478.06,-189.71 479.57,-179.22 471.85,-186.48 478.06,-189.71"/>
<text text-anchor="middle" x="463.06" y="-237.3" font-family="Times,serif" font-size="14.00">_J6</text>
</g>
<!-- ARest&#45;&gt;APlasma -->
<g id="edge8" class="edge">
<title>ARest&#45;&gt;APlasma</title>
<path fill="none" stroke="black" d="M490.96,-179.19C492.03,-197.96 491.08,-227.39 478.06,-248.5 475.64,-252.42 472.6,-256.01 469.22,-259.26"/>
<polygon fill="black" stroke="black" points="466.76,-256.75 461.35,-265.86 471.26,-262.12 466.76,-256.75"/>
<text text-anchor="middle" x="495.06" y="-237.3" font-family="Times,serif" font-size="14.00">_J7</text>
</g>
</g>
</svg>
