<?xml version="1.0" encoding="UTF-8" standalone="no"?>
<!DOCTYPE svg PUBLIC "-//W3C//DTD SVG 1.1//EN"
 "http://www.w3.org/Graphics/SVG/1.1/DTD/svg11.dtd">
<!-- Generated by graphviz version 2.43.0 (0)
 -->
<!-- Title: %3 Pages: 1 -->
<svg width="499pt" height="288pt"
 viewBox="0.00 0.00 499.28 288.00" xmlns="http://www.w3.org/2000/svg" xmlns:xlink="http://www.w3.org/1999/xlink">
<g id="graph0" class="graph" transform="scale(0.79 0.79) rotate(0) translate(4 362)">
<title>%3</title>
<polygon fill="white" stroke="transparent" points="-4,4 -4,-362 630.5,-362 630.5,4 -4,4"/>
<g id="clust1" class="cluster">
<title>cluster_GI</title>
<g id="a_clust1"><a xlink:href="#compartment-GI" xlink:title="GI&#10;[&#45;]">
<path fill="lightblue" stroke="black" d="M173.99,-133C173.99,-133 286.61,-133 286.61,-133 292.61,-133 298.61,-139 298.61,-145 298.61,-145 298.61,-213 298.61,-213 298.61,-219 292.61,-225 286.61,-225 286.61,-225 173.99,-225 173.99,-225 167.99,-225 161.99,-219 161.99,-213 161.99,-213 161.99,-145 161.99,-145 161.99,-139 167.99,-133 173.99,-133"/>
<text text-anchor="middle" x="230.3" y="-209.8" font-family="Arial" font-size="14.00">GI</text>
<text text-anchor="middle" x="230.3" y="-194.8" font-family="Arial" font-size="14.00">[&#45;]</text>
</a>
</g>
</g>
<g id="clust2" class="cluster">
<title>cluster_Liver</title>
<g id="a_clust2"><a xlink:href="#compartment-Liver" xlink:title="Liver&#10;[&#45;]">
<path fill="lightblue" stroke="black" d="M27.61,-258C27.61,-258 257.34,-258 257.34,-258 263.34,-258 269.34,-264 269.34,-270 269.34,-270 269.34,-338 269.34,-338 269.34,-344 263.34,-350 257.34,-350 257.34,-350 27.61,-350 27.61,-350 21.61,-350 15.61,-344 15.61,-338 15.61,-338 15.61,-270 15.61,-270 15.61,-264 21.61,-258 27.61,-258"/>
<text text-anchor="middle" x="142.48" y="-334.8" font-family="Arial" font-size="14.00">Liver</text>
<text text-anchor="middle" x="142.48" y="-319.8" font-family="Arial" font-size="14.00">[&#45;]</text>
</a>
</g>
</g>
<g id="clust3" class="cluster">
<title>cluster_Plasma</title>
<g id="a_clust3"><a xlink:href="#compartment-Plasma" xlink:title="Plasma&#10;[PBPKO:00488]">
<path fill="lightblue" stroke="black" d="M326.23,-258C326.23,-258 555.95,-258 555.95,-258 561.95,-258 567.95,-264 567.95,-270 567.95,-270 567.95,-338 567.95,-338 567.95,-344 561.95,-350 555.95,-350 555.95,-350 326.23,-350 326.23,-350 320.23,-350 314.23,-344 314.23,-338 314.23,-338 314.23,-270 314.23,-270 314.23,-264 320.23,-258 326.23,-258"/>
<text text-anchor="middle" x="441.09" y="-334.8" font-family="Arial" font-size="14.00">Plasma</text>
<text text-anchor="middle" x="441.09" y="-319.8" font-family="Arial" font-size="14.00">[PBPKO:00488]</text>
</a>
</g>
</g>
<g id="clust4" class="cluster">
<title>cluster_Rest</title>
<g id="a_clust4"><a xlink:href="#compartment-Rest" xlink:title="Rest&#10;[PBPKO:00450]">
<path fill="lightblue" stroke="black" d="M369.16,-133C369.16,-133 598.89,-133 598.89,-133 604.89,-133 610.89,-139 610.89,-145 610.89,-145 610.89,-213 610.89,-213 610.89,-219 604.89,-225 598.89,-225 598.89,-225 369.16,-225 369.16,-225 363.16,-225 357.16,-219 357.16,-213 357.16,-213 357.16,-145 357.16,-145 357.16,-139 363.16,-133 369.16,-133"/>
<text text-anchor="middle" x="484.02" y="-209.8" font-family="Arial" font-size="14.00">Rest</text>
<text text-anchor="middle" x="484.02" y="-194.8" font-family="Arial" font-size="14.00">[PBPKO:00450]</text>
</a>
</g>
</g>
<g id="clust5" class="cluster">
<title>cluster_Feces</title>
<g id="a_clust5"><a xlink:href="#compartment-Feces" xlink:title="Feces&#10;[&#45;]">
<path fill="lightblue" stroke="black" d="M166.19,-8C166.19,-8 294.42,-8 294.42,-8 300.42,-8 306.42,-14 306.42,-20 306.42,-20 306.42,-88 306.42,-88 306.42,-94 300.42,-100 294.42,-100 294.42,-100 166.19,-100 166.19,-100 160.19,-100 154.19,-94 154.19,-88 154.19,-88 154.19,-20 154.19,-20 154.19,-14 160.19,-8 166.19,-8"/>
<text text-anchor="middle" x="230.3" y="-84.8" font-family="Arial" font-size="14.00">Feces</text>
<text text-anchor="middle" x="230.3" y="-69.8" font-family="Arial" font-size="14.00">[&#45;]</text>
</a>
</g>
</g>
<!-- AGI -->
<g id="node1" class="node">
<title>AGI</title>
<g id="a_node1"><a xlink:href="#species-AGI" xlink:title="AGI&#10;[&#45;]">
<path fill="gold" stroke="black" d="M245.69,-179C245.69,-179 215.69,-179 215.69,-179 209.69,-179 203.69,-173 203.69,-167 203.69,-167 203.69,-153 203.69,-153 203.69,-147 209.69,-141 215.69,-141 215.69,-141 245.69,-141 245.69,-141 251.69,-141 257.69,-147 257.69,-153 257.69,-153 257.69,-167 257.69,-167 257.69,-173 251.69,-179 245.69,-179"/>
<text text-anchor="middle" x="230.69" y="-163.8" font-family="Arial" font-size="14.00">AGI</text>
<text text-anchor="middle" x="230.69" y="-148.8" font-family="Arial" font-size="14.00">[&#45;]</text>
</a>
</g>
</g>
<!-- ALiver -->
<g id="node2" class="node">
<title>ALiver</title>
<g id="a_node2"><a xlink:href="#species-ALiver" xlink:title="ALiver&#10;[PBPKO:00497]">
<path fill="gold" stroke="black" d="M187.19,-304C187.19,-304 98.19,-304 98.19,-304 92.19,-304 86.19,-298 86.19,-292 86.19,-292 86.19,-278 86.19,-278 86.19,-272 92.19,-266 98.19,-266 98.19,-266 187.19,-266 187.19,-266 193.19,-266 199.19,-272 199.19,-278 199.19,-278 199.19,-292 199.19,-292 199.19,-298 193.19,-304 187.19,-304"/>
<text text-anchor="middle" x="142.69" y="-288.8" font-family="Arial" font-size="14.00">ALiver</text>
<text text-anchor="middle" x="142.69" y="-273.8" font-family="Arial" font-size="14.00">[PBPKO:00497]</text>
</a>
</g>
</g>
<!-- AGI&#45;&gt;ALiver -->
<g id="edge1" class="edge">
<title>AGI&#45;&gt;ALiver</title>
<path fill="none" stroke="black" d="M217.66,-179.22C202.82,-199.97 178.45,-234.03 161.54,-257.66"/>
<polygon fill="black" stroke="black" points="158.65,-255.68 155.68,-265.85 164.34,-259.75 158.65,-255.68"/>
<text text-anchor="middle" x="190.69" y="-237.3" font-family="Times,serif" font-size="14.00">_J0</text>
</g>
<!-- AFeces -->
<g id="node5" class="node">
<title>AFeces</title>
<g id="a_node5"><a xlink:href="#species-AFeces" xlink:title="AFeces&#10;[&#45;]">
<path fill="gold" stroke="black" d="M249.69,-54C249.69,-54 211.69,-54 211.69,-54 205.69,-54 199.69,-48 199.69,-42 199.69,-42 199.69,-28 199.69,-28 199.69,-22 205.69,-16 211.69,-16 211.69,-16 249.69,-16 249.69,-16 255.69,-16 261.69,-22 261.69,-28 261.69,-28 261.69,-42 261.69,-42 261.69,-48 255.69,-54 249.69,-54"/>
<text text-anchor="middle" x="230.69" y="-38.8" font-family="Arial" font-size="14.00">AFeces</text>
<text text-anchor="middle" x="230.69" y="-23.8" font-family="Arial" font-size="14.00">[&#45;]</text>
</a>
</g>
</g>
<!-- AGI&#45;&gt;AFeces -->
<g id="edge2" class="edge">
<title>AGI&#45;&gt;AFeces</title>
<path fill="none" stroke="black" d="M230.69,-140.85C230.69,-120.68 230.69,-87.86 230.69,-64.31"/>
<polygon fill="black" stroke="black" points="234.19,-64.22 230.69,-54.22 227.19,-64.22 234.19,-64.22"/>
<text text-anchor="middle" x="241.69" y="-112.3" font-family="Times,serif" font-size="14.00">_J2</text>
</g>
<!-- ALiver&#45;&gt;AGI -->
<g id="edge3" class="edge">
<title>ALiver&#45;&gt;AGI</title>
<path fill="none" stroke="black" d="M185.52,-265.94C193.07,-261.18 200.25,-255.4 205.69,-248.5 219.09,-231.52 225.31,-207.68 228.19,-189.17"/>
<polygon fill="black" stroke="black" points="231.67,-189.62 229.51,-179.25 224.73,-188.7 231.67,-189.62"/>
<text text-anchor="middle" x="226.69" y="-237.3" font-family="Times,serif" font-size="14.00">_J1</text>
</g>
<!-- APlasma -->
<g id="node3" class="node">
<title>APlasma</title>
<g id="a_node3"><a xlink:href="#species-APlasma" xlink:title="APlasma&#10;[PBPKO:00502]">
<path fill="gold" stroke="black" d="M485.19,-304C485.19,-304 396.19,-304 396.19,-304 390.19,-304 384.19,-298 384.19,-292 384.19,-292 384.19,-278 384.19,-278 384.19,-272 390.19,-266 396.19,-266 396.19,-266 485.19,-266 485.19,-266 491.19,-266 497.19,-272 497.19,-278 497.19,-278 497.19,-292 497.19,-292 497.19,-298 491.19,-304 485.19,-304"/>
<text text-anchor="middle" x="440.69" y="-288.8" font-family="Arial" font-size="14.00">APlasma</text>
<text text-anchor="middle" x="440.69" y="-273.8" font-family="Arial" font-size="14.00">[PBPKO:00502]</text>
</a>
</g>
</g>
<!-- ALiver&#45;&gt;APlasma -->
<g id="edge4" class="edge">
<title>ALiver&#45;&gt;APlasma</title>
<path fill="none" stroke="black" d="M199.45,-285C249.16,-285 321.46,-285 373.93,-285"/>
<polygon fill="black" stroke="black" points="374.15,-288.5 384.15,-285 374.15,-281.5 374.15,-288.5"/>
<text text-anchor="middle" x="291.69" y="-291.8" font-family="Times,serif" font-size="14.00">_J5</text>
</g>
<!-- APlasma&#45;&gt;AGI -->
<g id="edge5" class="edge">
<title>APlasma&#45;&gt;AGI</title>
<path fill="none" stroke="black" d="M409.71,-265.85C371.52,-243.49 306.77,-205.56 266.49,-181.97"/>
<polygon fill="black" stroke="black" points="268.2,-178.91 257.8,-176.88 264.66,-184.95 268.2,-178.91"/>
<text text-anchor="middle" x="388.69" y="-237.3" font-family="Times,serif" font-size="14.00">_J3</text>
</g>
<!-- APlasma&#45;&gt;ALiver -->
<g id="edge6" class="edge">
<title>APlasma&#45;&gt;ALiver</title>
<path fill="none" stroke="black" d="M384.15,-285C334.51,-285 262.21,-285 209.68,-285"/>
<polygon fill="black" stroke="black" points="209.45,-281.5 199.45,-285 209.45,-288.5 209.45,-281.5"/>
<text text-anchor="middle" x="291.69" y="-291.8" font-family="Times,serif" font-size="14.00">_J4</text>
</g>
<!-- ARest -->
<g id="node4" class="node">
<title>ARest</title>
<g id="a_node4"><a xlink:href="#species-ARest" xlink:title="ARest&#10;[PBPKO:00501]">
<path fill="gold" stroke="black" d="M528.19,-179C528.19,-179 439.19,-179 439.19,-179 433.19,-179 427.19,-173 427.19,-167 427.19,-167 427.19,-153 427.19,-153 427.19,-147 433.19,-141 439.19,-141 439.19,-141 528.19,-141 528.19,-141 534.19,-141 540.19,-147 540.19,-153 540.19,-153 540.19,-167 540.19,-167 540.19,-173 534.19,-179 528.19,-179"/>
<text text-anchor="middle" x="483.69" y="-163.8" font-family="Arial" font-size="14.00">ARest</text>
<text text-anchor="middle" x="483.69" y="-148.8" font-family="Arial" font-size="14.00">[PBPKO:00501]</text>
</a>
</g>
</g>
<!-- APlasma&#45;&gt;ARest -->
<g id="edge7" class="edge">
<title>APlasma&#45;&gt;ARest</title>
<path fill="none" stroke="black" d="M447.04,-265.85C454.15,-245.5 465.77,-212.27 474.02,-188.68"/>
<polygon fill="black" stroke="black" points="477.33,-189.82 477.32,-179.22 470.72,-187.51 477.33,-189.82"/>
<text text-anchor="middle" x="468.69" y="-237.3" font-family="Times,serif" font-size="14.00">_J6</text>
</g>
<!-- ARest&#45;&gt;APlasma -->
<g id="edge8" class="edge">
<title>ARest&#45;&gt;APlasma</title>
<path fill="none" stroke="black" d="M488,-179.07C491.43,-197.47 494.12,-226.38 483.69,-248.5 481.98,-252.14 479.69,-255.53 477.05,-258.66"/>
<polygon fill="black" stroke="black" points="474.45,-256.32 469.92,-265.9 479.44,-261.23 474.45,-256.32"/>
<text text-anchor="middle" x="498.69" y="-237.3" font-family="Times,serif" font-size="14.00">_J7</text>
</g>
</g>
</svg>
