<?xml version="1.0" encoding="UTF-8" standalone="no"?>
<!DOCTYPE svg PUBLIC "-//W3C//DTD SVG 1.1//EN"
 "http://www.w3.org/Graphics/SVG/1.1/DTD/svg11.dtd">
<!-- Generated by graphviz version 2.43.0 (0)
 -->
<!-- Title: %3 Pages: 1 -->
<svg width="503pt" height="288pt"
 viewBox="0.00 0.00 502.87 288.00" xmlns="http://www.w3.org/2000/svg" xmlns:xlink="http://www.w3.org/1999/xlink">
<g id="graph0" class="graph" transform="scale(0.19 0.19) rotate(0) translate(4 1526)">
<title>%3</title>
<polygon fill="white" stroke="transparent" points="-4,4 -4,-1526 2667.5,-1526 2667.5,4 -4,4"/>
<g id="clust1" class="cluster">
<title>cluster_Stomach</title>
<g id="a_clust1"><a xlink:href="#compartment-Stomach" xlink:title="Stomach&#10;[&#45;]">
<path fill="lightblue" stroke="black" d="M1594.71,-1422C1594.71,-1422 1830.83,-1422 1830.83,-1422 1836.83,-1422 1842.83,-1428 1842.83,-1434 1842.83,-1434 1842.83,-1502 1842.83,-1502 1842.83,-1508 1836.83,-1514 1830.83,-1514 1830.83,-1514 1594.71,-1514 1594.71,-1514 1588.71,-1514 1582.71,-1508 1582.71,-1502 1582.71,-1502 1582.71,-1434 1582.71,-1434 1582.71,-1428 1588.71,-1422 1594.71,-1422"/>
<text text-anchor="middle" x="1712.77" y="-1498.8" font-family="Arial" font-size="14.00">Stomach</text>
<text text-anchor="middle" x="1712.77" y="-1483.8" font-family="Arial" font-size="14.00">[&#45;]</text>
</a>
</g>
</g>
<g id="clust2" class="cluster">
<title>cluster_SI1</title>
<g id="a_clust2"><a xlink:href="#compartment-SI1" xlink:title="SI1&#10;[&#45;]">
<path fill="lightblue" stroke="black" d="M1594.71,-1297C1594.71,-1297 1827.17,-1297 1827.17,-1297 1833.17,-1297 1839.17,-1303 1839.17,-1309 1839.17,-1309 1839.17,-1377 1839.17,-1377 1839.17,-1383 1833.17,-1389 1827.17,-1389 1827.17,-1389 1594.71,-1389 1594.71,-1389 1588.71,-1389 1582.71,-1383 1582.71,-1377 1582.71,-1377 1582.71,-1309 1582.71,-1309 1582.71,-1303 1588.71,-1297 1594.71,-1297"/>
<text text-anchor="middle" x="1710.94" y="-1373.8" font-family="Arial" font-size="14.00">SI1</text>
<text text-anchor="middle" x="1710.94" y="-1358.8" font-family="Arial" font-size="14.00">[&#45;]</text>
</a>
</g>
</g>
<g id="clust3" class="cluster">
<title>cluster_SI2</title>
<g id="a_clust3"><a xlink:href="#compartment-SI2" xlink:title="SI2&#10;[&#45;]">
<path fill="lightblue" stroke="black" d="M1477.47,-1172C1477.47,-1172 1709.93,-1172 1709.93,-1172 1715.93,-1172 1721.93,-1178 1721.93,-1184 1721.93,-1184 1721.93,-1252 1721.93,-1252 1721.93,-1258 1715.93,-1264 1709.93,-1264 1709.93,-1264 1477.47,-1264 1477.47,-1264 1471.47,-1264 1465.47,-1258 1465.47,-1252 1465.47,-1252 1465.47,-1184 1465.47,-1184 1465.47,-1178 1471.47,-1172 1477.47,-1172"/>
<text text-anchor="middle" x="1593.7" y="-1248.8" font-family="Arial" font-size="14.00">SI2</text>
<text text-anchor="middle" x="1593.7" y="-1233.8" font-family="Arial" font-size="14.00">[&#45;]</text>
</a>
</g>
</g>
<g id="clust4" class="cluster">
<title>cluster_SI3</title>
<g id="a_clust4"><a xlink:href="#compartment-SI3" xlink:title="SI3&#10;[&#45;]">
<path fill="lightblue" stroke="black" d="M1294.29,-1047C1294.29,-1047 1526.75,-1047 1526.75,-1047 1532.75,-1047 1538.75,-1053 1538.75,-1059 1538.75,-1059 1538.75,-1127 1538.75,-1127 1538.75,-1133 1532.75,-1139 1526.75,-1139 1526.75,-1139 1294.29,-1139 1294.29,-1139 1288.29,-1139 1282.29,-1133 1282.29,-1127 1282.29,-1127 1282.29,-1059 1282.29,-1059 1282.29,-1053 1288.29,-1047 1294.29,-1047"/>
<text text-anchor="middle" x="1410.52" y="-1123.8" font-family="Arial" font-size="14.00">SI3</text>
<text text-anchor="middle" x="1410.52" y="-1108.8" font-family="Arial" font-size="14.00">[&#45;]</text>
</a>
</g>
</g>
<g id="clust5" class="cluster">
<title>cluster_SI4</title>
<g id="a_clust5"><a xlink:href="#compartment-SI4" xlink:title="SI4&#10;[&#45;]">
<path fill="lightblue" stroke="black" d="M1111.11,-922C1111.11,-922 1343.56,-922 1343.56,-922 1349.56,-922 1355.56,-928 1355.56,-934 1355.56,-934 1355.56,-1002 1355.56,-1002 1355.56,-1008 1349.56,-1014 1343.56,-1014 1343.56,-1014 1111.11,-1014 1111.11,-1014 1105.11,-1014 1099.11,-1008 1099.11,-1002 1099.11,-1002 1099.11,-934 1099.11,-934 1099.11,-928 1105.11,-922 1111.11,-922"/>
<text text-anchor="middle" x="1227.33" y="-998.8" font-family="Arial" font-size="14.00">SI4</text>
<text text-anchor="middle" x="1227.33" y="-983.8" font-family="Arial" font-size="14.00">[&#45;]</text>
</a>
</g>
</g>
<g id="clust6" class="cluster">
<title>cluster_SI5</title>
<g id="a_clust6"><a xlink:href="#compartment-SI5" xlink:title="SI5&#10;[&#45;]">
<path fill="lightblue" stroke="black" d="M909.6,-797C909.6,-797 1142.06,-797 1142.06,-797 1148.06,-797 1154.06,-803 1154.06,-809 1154.06,-809 1154.06,-877 1154.06,-877 1154.06,-883 1148.06,-889 1142.06,-889 1142.06,-889 909.6,-889 909.6,-889 903.6,-889 897.6,-883 897.6,-877 897.6,-877 897.6,-809 897.6,-809 897.6,-803 903.6,-797 909.6,-797"/>
<text text-anchor="middle" x="1025.83" y="-873.8" font-family="Arial" font-size="14.00">SI5</text>
<text text-anchor="middle" x="1025.83" y="-858.8" font-family="Arial" font-size="14.00">[&#45;]</text>
</a>
</g>
</g>
<g id="clust7" class="cluster">
<title>cluster_SI6</title>
<g id="a_clust7"><a xlink:href="#compartment-SI6" xlink:title="SI6&#10;[&#45;]">
<path fill="lightblue" stroke="black" d="M726.42,-672C726.42,-672 958.88,-672 958.88,-672 964.88,-672 970.88,-678 970.88,-684 970.88,-684 970.88,-752 970.88,-752 970.88,-758 964.88,-764 958.88,-764 958.88,-764 726.42,-764 726.42,-764 720.42,-764 714.42,-758 714.42,-752 714.42,-752 714.42,-684 714.42,-684 714.42,-678 720.42,-672 726.42,-672"/>
<text text-anchor="middle" x="842.65" y="-748.8" font-family="Arial" font-size="14.00">SI6</text>
<text text-anchor="middle" x="842.65" y="-733.8" font-family="Arial" font-size="14.00">[&#45;]</text>
</a>
</g>
</g>
<g id="clust8" class="cluster">
<title>cluster_SI7</title>
<g id="a_clust8"><a xlink:href="#compartment-SI7" xlink:title="SI7&#10;[&#45;]">
<path fill="lightblue" stroke="black" d="M495.61,-547C495.61,-547 728.06,-547 728.06,-547 734.06,-547 740.06,-553 740.06,-559 740.06,-559 740.06,-627 740.06,-627 740.06,-633 734.06,-639 728.06,-639 728.06,-639 495.61,-639 495.61,-639 489.61,-639 483.61,-633 483.61,-627 483.61,-627 483.61,-559 483.61,-559 483.61,-553 489.61,-547 495.61,-547"/>
<text text-anchor="middle" x="611.84" y="-623.8" font-family="Arial" font-size="14.00">SI7</text>
<text text-anchor="middle" x="611.84" y="-608.8" font-family="Arial" font-size="14.00">[&#45;]</text>
</a>
</g>
</g>
<g id="clust9" class="cluster">
<title>cluster_LI1</title>
<g id="a_clust9"><a xlink:href="#compartment-LI1" xlink:title="LI1&#10;[&#45;]">
<path fill="lightblue" stroke="black" d="M41.31,-208C41.31,-208 596.17,-208 596.17,-208 602.17,-208 608.17,-214 608.17,-220 608.17,-220 608.17,-502 608.17,-502 608.17,-508 602.17,-514 596.17,-514 596.17,-514 41.31,-514 41.31,-514 35.31,-514 29.31,-508 29.31,-502 29.31,-502 29.31,-220 29.31,-220 29.31,-214 35.31,-208 41.31,-208"/>
<text text-anchor="middle" x="318.74" y="-498.8" font-family="Arial" font-size="14.00">LI1</text>
<text text-anchor="middle" x="318.74" y="-483.8" font-family="Arial" font-size="14.00">[&#45;]</text>
</a>
</g>
</g>
<g id="clust10" class="cluster">
<title>cluster_SITissue</title>
<g id="a_clust10"><a xlink:href="#compartment-SITissue" xlink:title="SITissue&#10;[&#45;]">
<path fill="lightblue" stroke="black" d="M957.23,-297C957.23,-297 1394.86,-297 1394.86,-297 1400.86,-297 1406.86,-303 1406.86,-309 1406.86,-309 1406.86,-502 1406.86,-502 1406.86,-508 1400.86,-514 1394.86,-514 1394.86,-514 957.23,-514 957.23,-514 951.23,-514 945.23,-508 945.23,-502 945.23,-502 945.23,-309 945.23,-309 945.23,-303 951.23,-297 957.23,-297"/>
<text text-anchor="middle" x="1176.04" y="-498.8" font-family="Arial" font-size="14.00">SITissue</text>
<text text-anchor="middle" x="1176.04" y="-483.8" font-family="Arial" font-size="14.00">[&#45;]</text>
</a>
</g>
</g>
<g id="clust11" class="cluster">
<title>cluster_Liver</title>
<g id="a_clust11"><a xlink:href="#compartment-Liver" xlink:title="Liver&#10;[&#45;]">
<path fill="lightblue" stroke="black" d="M1448.17,-8C1448.17,-8 2116.6,-8 2116.6,-8 2122.6,-8 2128.6,-14 2128.6,-20 2128.6,-20 2128.6,-377 2128.6,-377 2128.6,-383 2122.6,-389 2116.6,-389 2116.6,-389 1448.17,-389 1448.17,-389 1442.17,-389 1436.17,-383 1436.17,-377 1436.17,-377 1436.17,-20 1436.17,-20 1436.17,-14 1442.17,-8 1448.17,-8"/>
<text text-anchor="middle" x="1782.38" y="-373.8" font-family="Arial" font-size="14.00">Liver</text>
<text text-anchor="middle" x="1782.38" y="-358.8" font-family="Arial" font-size="14.00">[&#45;]</text>
</a>
</g>
</g>
<g id="clust12" class="cluster">
<title>cluster_Blood</title>
<g id="a_clust12"><a xlink:href="#compartment-Blood" xlink:title="Blood&#10;[PBPKO:00464]">
<path fill="lightblue" stroke="black" d="M1693.63,-422C1693.63,-422 2083.63,-422 2083.63,-422 2089.63,-422 2095.63,-428 2095.63,-434 2095.63,-434 2095.63,-502 2095.63,-502 2095.63,-508 2089.63,-514 2083.63,-514 2083.63,-514 1693.63,-514 1693.63,-514 1687.63,-514 1681.63,-508 1681.63,-502 1681.63,-502 1681.63,-434 1681.63,-434 1681.63,-428 1687.63,-422 1693.63,-422"/>
<text text-anchor="middle" x="1888.63" y="-498.8" font-family="Arial" font-size="14.00">Blood</text>
<text text-anchor="middle" x="1888.63" y="-483.8" font-family="Arial" font-size="14.00">[PBPKO:00464]</text>
</a>
</g>
</g>
<g id="clust13" class="cluster">
<title>cluster_Rest</title>
<g id="a_clust13"><a xlink:href="#compartment-Rest" xlink:title="Rest&#10;[PBPKO:00450]">
<path fill="lightblue" stroke="black" d="M2169.91,-297C2169.91,-297 2622.19,-297 2622.19,-297 2628.19,-297 2634.19,-303 2634.19,-309 2634.19,-309 2634.19,-377 2634.19,-377 2634.19,-383 2628.19,-389 2622.19,-389 2622.19,-389 2169.91,-389 2169.91,-389 2163.91,-389 2157.91,-383 2157.91,-377 2157.91,-377 2157.91,-309 2157.91,-309 2157.91,-303 2163.91,-297 2169.91,-297"/>
<text text-anchor="middle" x="2396.05" y="-373.8" font-family="Arial" font-size="14.00">Rest</text>
<text text-anchor="middle" x="2396.05" y="-358.8" font-family="Arial" font-size="14.00">[PBPKO:00450]</text>
</a>
</g>
</g>
<g id="clust14" class="cluster">
<title>cluster_Feaces</title>
<g id="a_clust14"><a xlink:href="#compartment-Feaces" xlink:title="Feaces&#10;[&#45;]">
<path fill="lightblue" stroke="black" d="M535.91,-83C535.91,-83 826.98,-83 826.98,-83 832.98,-83 838.98,-89 838.98,-95 838.98,-95 838.98,-163 838.98,-163 838.98,-169 832.98,-175 826.98,-175 826.98,-175 535.91,-175 535.91,-175 529.91,-175 523.91,-169 523.91,-163 523.91,-163 523.91,-95 523.91,-95 523.91,-89 529.91,-83 535.91,-83"/>
<text text-anchor="middle" x="681.45" y="-159.8" font-family="Arial" font-size="14.00">Feaces</text>
<text text-anchor="middle" x="681.45" y="-144.8" font-family="Arial" font-size="14.00">[&#45;]</text>
</a>
</g>
</g>
<!-- ASt -->
<g id="node1" class="node">
<title>ASt</title>
<g id="a_node1"><a xlink:href="#species-ASt" xlink:title="ASt&#10;[&#45;]">
<path fill="gold" stroke="black" d="M1725.7,-1468C1725.7,-1468 1695.7,-1468 1695.7,-1468 1689.7,-1468 1683.7,-1462 1683.7,-1456 1683.7,-1456 1683.7,-1442 1683.7,-1442 1683.7,-1436 1689.7,-1430 1695.7,-1430 1695.7,-1430 1725.7,-1430 1725.7,-1430 1731.7,-1430 1737.7,-1436 1737.7,-1442 1737.7,-1442 1737.7,-1456 1737.7,-1456 1737.7,-1462 1731.7,-1468 1725.7,-1468"/>
<text text-anchor="middle" x="1710.7" y="-1452.8" font-family="Arial" font-size="14.00">ASt</text>
<text text-anchor="middle" x="1710.7" y="-1437.8" font-family="Arial" font-size="14.00">[&#45;]</text>
</a>
</g>
</g>
<!-- ASI1 -->
<g id="node2" class="node">
<title>ASI1</title>
<g id="a_node2"><a xlink:href="#species-ASI1" xlink:title="ASI1&#10;[&#45;]">
<path fill="gold" stroke="black" d="M1725.7,-1343C1725.7,-1343 1695.7,-1343 1695.7,-1343 1689.7,-1343 1683.7,-1337 1683.7,-1331 1683.7,-1331 1683.7,-1317 1683.7,-1317 1683.7,-1311 1689.7,-1305 1695.7,-1305 1695.7,-1305 1725.7,-1305 1725.7,-1305 1731.7,-1305 1737.7,-1311 1737.7,-1317 1737.7,-1317 1737.7,-1331 1737.7,-1331 1737.7,-1337 1731.7,-1343 1725.7,-1343"/>
<text text-anchor="middle" x="1710.7" y="-1327.8" font-family="Arial" font-size="14.00">ASI1</text>
<text text-anchor="middle" x="1710.7" y="-1312.8" font-family="Arial" font-size="14.00">[&#45;]</text>
</a>
</g>
</g>
<!-- ASt&#45;&gt;ASI1 -->
<g id="edge1" class="edge">
<title>ASt&#45;&gt;ASI1</title>
<path fill="none" stroke="black" d="M1710.7,-1429.85C1710.7,-1409.68 1710.7,-1376.86 1710.7,-1353.31"/>
<polygon fill="black" stroke="black" points="1714.2,-1353.22 1710.7,-1343.22 1707.2,-1353.22 1714.2,-1353.22"/>
<text text-anchor="middle" x="1721.7" y="-1401.3" font-family="Times,serif" font-size="14.00">_J0</text>
</g>
<!-- ASI2 -->
<g id="node3" class="node">
<title>ASI2</title>
<g id="a_node3"><a xlink:href="#species-ASI2" xlink:title="ASI2&#10;[&#45;]">
<path fill="gold" stroke="black" d="M1608.7,-1218C1608.7,-1218 1578.7,-1218 1578.7,-1218 1572.7,-1218 1566.7,-1212 1566.7,-1206 1566.7,-1206 1566.7,-1192 1566.7,-1192 1566.7,-1186 1572.7,-1180 1578.7,-1180 1578.7,-1180 1608.7,-1180 1608.7,-1180 1614.7,-1180 1620.7,-1186 1620.7,-1192 1620.7,-1192 1620.7,-1206 1620.7,-1206 1620.7,-1212 1614.7,-1218 1608.7,-1218"/>
<text text-anchor="middle" x="1593.7" y="-1202.8" font-family="Arial" font-size="14.00">ASI2</text>
<text text-anchor="middle" x="1593.7" y="-1187.8" font-family="Arial" font-size="14.00">[&#45;]</text>
</a>
</g>
</g>
<!-- ASI1&#45;&gt;ASI2 -->
<g id="edge2" class="edge">
<title>ASI1&#45;&gt;ASI2</title>
<path fill="none" stroke="black" d="M1693.43,-1304.85C1673.47,-1283.87 1640.48,-1249.18 1617.95,-1225.5"/>
<polygon fill="black" stroke="black" points="1620.46,-1223.06 1611.03,-1218.22 1615.39,-1227.88 1620.46,-1223.06"/>
<text text-anchor="middle" x="1686.7" y="-1276.3" font-family="Times,serif" font-size="14.00">_J1</text>
</g>
<!-- ASITissue -->
<g id="node12" class="node">
<title>ASITissue</title>
<g id="a_node12"><a xlink:href="#species-ASITissue" xlink:title="ASITissue&#10;[&#45;]">
<path fill="gold" stroke="black" d="M1257.7,-468C1257.7,-468 1203.7,-468 1203.7,-468 1197.7,-468 1191.7,-462 1191.7,-456 1191.7,-456 1191.7,-442 1191.7,-442 1191.7,-436 1197.7,-430 1203.7,-430 1203.7,-430 1257.7,-430 1257.7,-430 1263.7,-430 1269.7,-436 1269.7,-442 1269.7,-442 1269.7,-456 1269.7,-456 1269.7,-462 1263.7,-468 1257.7,-468"/>
<text text-anchor="middle" x="1230.7" y="-452.8" font-family="Arial" font-size="14.00">ASITissue</text>
<text text-anchor="middle" x="1230.7" y="-437.8" font-family="Arial" font-size="14.00">[&#45;]</text>
</a>
</g>
</g>
<!-- ASI1&#45;&gt;ASITissue -->
<g id="edge3" class="edge">
<title>ASI1&#45;&gt;ASITissue</title>
<path fill="none" stroke="black" d="M1733.92,-1304.85C1759.09,-1282.95 1795.7,-1243.61 1795.7,-1200 1795.7,-1200 1795.7,-1200 1795.7,-573 1795.7,-520.47 1418.04,-471.62 1280.25,-455.54"/>
<polygon fill="black" stroke="black" points="1280.31,-452.03 1269.98,-454.35 1279.51,-458.98 1280.31,-452.03"/>
<text text-anchor="middle" x="1806.7" y="-901.3" font-family="Times,serif" font-size="14.00">_J8</text>
</g>
<!-- ASI3 -->
<g id="node4" class="node">
<title>ASI3</title>
<g id="a_node4"><a xlink:href="#species-ASI3" xlink:title="ASI3&#10;[&#45;]">
<path fill="gold" stroke="black" d="M1425.7,-1093C1425.7,-1093 1395.7,-1093 1395.7,-1093 1389.7,-1093 1383.7,-1087 1383.7,-1081 1383.7,-1081 1383.7,-1067 1383.7,-1067 1383.7,-1061 1389.7,-1055 1395.7,-1055 1395.7,-1055 1425.7,-1055 1425.7,-1055 1431.7,-1055 1437.7,-1061 1437.7,-1067 1437.7,-1067 1437.7,-1081 1437.7,-1081 1437.7,-1087 1431.7,-1093 1425.7,-1093"/>
<text text-anchor="middle" x="1410.7" y="-1077.8" font-family="Arial" font-size="14.00">ASI3</text>
<text text-anchor="middle" x="1410.7" y="-1062.8" font-family="Arial" font-size="14.00">[&#45;]</text>
</a>
</g>
</g>
<!-- ASI2&#45;&gt;ASI3 -->
<g id="edge4" class="edge">
<title>ASI2&#45;&gt;ASI3</title>
<path fill="none" stroke="black" d="M1566.69,-1179.85C1534.71,-1158.35 1481.32,-1122.47 1446.06,-1098.77"/>
<polygon fill="black" stroke="black" points="1447.76,-1095.7 1437.51,-1093.02 1443.86,-1101.51 1447.76,-1095.7"/>
<text text-anchor="middle" x="1549.7" y="-1151.3" font-family="Times,serif" font-size="14.00">_J2</text>
</g>
<!-- ASI2&#45;&gt;ASITissue -->
<g id="edge5" class="edge">
<title>ASI2&#45;&gt;ASITissue</title>
<path fill="none" stroke="black" d="M1598.05,-1179.78C1603.38,-1155.88 1611.7,-1112.55 1611.7,-1075 1611.7,-1075 1611.7,-1075 1611.7,-573 1611.7,-504.12 1383.33,-468.17 1280.2,-455.45"/>
<polygon fill="black" stroke="black" points="1280.38,-451.94 1270.03,-454.22 1279.54,-458.89 1280.38,-451.94"/>
<text text-anchor="middle" x="1622.7" y="-820.3" font-family="Times,serif" font-size="14.00">_J9</text>
</g>
<!-- ASI4 -->
<g id="node5" class="node">
<title>ASI4</title>
<g id="a_node5"><a xlink:href="#species-ASI4" xlink:title="ASI4&#10;[&#45;]">
<path fill="gold" stroke="black" d="M1242.7,-968C1242.7,-968 1212.7,-968 1212.7,-968 1206.7,-968 1200.7,-962 1200.7,-956 1200.7,-956 1200.7,-942 1200.7,-942 1200.7,-936 1206.7,-930 1212.7,-930 1212.7,-930 1242.7,-930 1242.7,-930 1248.7,-930 1254.7,-936 1254.7,-942 1254.7,-942 1254.7,-956 1254.7,-956 1254.7,-962 1248.7,-968 1242.7,-968"/>
<text text-anchor="middle" x="1227.7" y="-952.8" font-family="Arial" font-size="14.00">ASI4</text>
<text text-anchor="middle" x="1227.7" y="-937.8" font-family="Arial" font-size="14.00">[&#45;]</text>
</a>
</g>
</g>
<!-- ASI3&#45;&gt;ASI4 -->
<g id="edge6" class="edge">
<title>ASI3&#45;&gt;ASI4</title>
<path fill="none" stroke="black" d="M1383.69,-1054.85C1351.71,-1033.35 1298.32,-997.47 1263.06,-973.77"/>
<polygon fill="black" stroke="black" points="1264.76,-970.7 1254.51,-968.02 1260.86,-976.51 1264.76,-970.7"/>
<text text-anchor="middle" x="1366.7" y="-1026.3" font-family="Times,serif" font-size="14.00">_J3</text>
</g>
<!-- ASI3&#45;&gt;ASITissue -->
<g id="edge7" class="edge">
<title>ASI3&#45;&gt;ASITissue</title>
<path fill="none" stroke="black" d="M1418.85,-1054.66C1428.63,-1030.97 1443.7,-988.25 1443.7,-950 1443.7,-950 1443.7,-950 1443.7,-573 1443.7,-497.76 1342.8,-467.83 1279.89,-456.47"/>
<polygon fill="black" stroke="black" points="1280.21,-452.98 1269.76,-454.74 1279.03,-459.88 1280.21,-452.98"/>
<text text-anchor="middle" x="1459.2" y="-776.3" font-family="Times,serif" font-size="14.00">_J10</text>
</g>
<!-- ASI5 -->
<g id="node6" class="node">
<title>ASI5</title>
<g id="a_node6"><a xlink:href="#species-ASI5" xlink:title="ASI5&#10;[&#45;]">
<path fill="gold" stroke="black" d="M1040.7,-843C1040.7,-843 1010.7,-843 1010.7,-843 1004.7,-843 998.7,-837 998.7,-831 998.7,-831 998.7,-817 998.7,-817 998.7,-811 1004.7,-805 1010.7,-805 1010.7,-805 1040.7,-805 1040.7,-805 1046.7,-805 1052.7,-811 1052.7,-817 1052.7,-817 1052.7,-831 1052.7,-831 1052.7,-837 1046.7,-843 1040.7,-843"/>
<text text-anchor="middle" x="1025.7" y="-827.8" font-family="Arial" font-size="14.00">ASI5</text>
<text text-anchor="middle" x="1025.7" y="-812.8" font-family="Arial" font-size="14.00">[&#45;]</text>
</a>
</g>
</g>
<!-- ASI4&#45;&gt;ASI5 -->
<g id="edge8" class="edge">
<title>ASI4&#45;&gt;ASI5</title>
<path fill="none" stroke="black" d="M1200.45,-931.41C1164.51,-909.53 1101.17,-870.96 1061.42,-846.75"/>
<polygon fill="black" stroke="black" points="1063.19,-843.73 1052.83,-841.52 1059.55,-849.71 1063.19,-843.73"/>
<text text-anchor="middle" x="1178.7" y="-901.3" font-family="Times,serif" font-size="14.00">_J4</text>
</g>
<!-- ASI4&#45;&gt;ASITissue -->
<g id="edge9" class="edge">
<title>ASI4&#45;&gt;ASITissue</title>
<path fill="none" stroke="black" d="M1227.7,-929.66C1227.7,-905.63 1227.7,-862.16 1227.7,-825 1227.7,-825 1227.7,-825 1227.7,-573 1227.7,-540.62 1228.75,-503.47 1229.61,-478.54"/>
<polygon fill="black" stroke="black" points="1233.11,-478.45 1229.97,-468.33 1226.12,-478.2 1233.11,-478.45"/>
<text text-anchor="middle" x="1243.2" y="-695.3" font-family="Times,serif" font-size="14.00">_J11</text>
</g>
<!-- ASI6 -->
<g id="node7" class="node">
<title>ASI6</title>
<g id="a_node7"><a xlink:href="#species-ASI6" xlink:title="ASI6&#10;[&#45;]">
<path fill="gold" stroke="black" d="M857.7,-718C857.7,-718 827.7,-718 827.7,-718 821.7,-718 815.7,-712 815.7,-706 815.7,-706 815.7,-692 815.7,-692 815.7,-686 821.7,-680 827.7,-680 827.7,-680 857.7,-680 857.7,-680 863.7,-680 869.7,-686 869.7,-692 869.7,-692 869.7,-706 869.7,-706 869.7,-712 863.7,-718 857.7,-718"/>
<text text-anchor="middle" x="842.7" y="-702.8" font-family="Arial" font-size="14.00">ASI6</text>
<text text-anchor="middle" x="842.7" y="-687.8" font-family="Arial" font-size="14.00">[&#45;]</text>
</a>
</g>
</g>
<!-- ASI5&#45;&gt;ASI6 -->
<g id="edge10" class="edge">
<title>ASI5&#45;&gt;ASI6</title>
<path fill="none" stroke="black" d="M998.69,-804.85C966.71,-783.35 913.32,-747.47 878.06,-723.77"/>
<polygon fill="black" stroke="black" points="879.76,-720.7 869.51,-718.02 875.86,-726.51 879.76,-720.7"/>
<text text-anchor="middle" x="981.7" y="-776.3" font-family="Times,serif" font-size="14.00">_J5</text>
</g>
<!-- ASI5&#45;&gt;ASITissue -->
<g id="edge11" class="edge">
<title>ASI5&#45;&gt;ASITissue</title>
<path fill="none" stroke="black" d="M1035.72,-804.76C1069.03,-744.15 1176.14,-549.26 1215.77,-477.15"/>
<polygon fill="black" stroke="black" points="1218.94,-478.66 1220.69,-468.21 1212.81,-475.29 1218.94,-478.66"/>
<text text-anchor="middle" x="1136.2" y="-651.3" font-family="Times,serif" font-size="14.00">_J12</text>
</g>
<!-- ASI7 -->
<g id="node8" class="node">
<title>ASI7</title>
<g id="a_node8"><a xlink:href="#species-ASI7" xlink:title="ASI7&#10;[&#45;]">
<path fill="gold" stroke="black" d="M626.7,-593C626.7,-593 596.7,-593 596.7,-593 590.7,-593 584.7,-587 584.7,-581 584.7,-581 584.7,-567 584.7,-567 584.7,-561 590.7,-555 596.7,-555 596.7,-555 626.7,-555 626.7,-555 632.7,-555 638.7,-561 638.7,-567 638.7,-567 638.7,-581 638.7,-581 638.7,-587 632.7,-593 626.7,-593"/>
<text text-anchor="middle" x="611.7" y="-577.8" font-family="Arial" font-size="14.00">ASI7</text>
<text text-anchor="middle" x="611.7" y="-562.8" font-family="Arial" font-size="14.00">[&#45;]</text>
</a>
</g>
</g>
<!-- ASI6&#45;&gt;ASI7 -->
<g id="edge12" class="edge">
<title>ASI6&#45;&gt;ASI7</title>
<path fill="none" stroke="black" d="M815.29,-683.41C773.59,-661.2 694.16,-618.91 647.8,-594.22"/>
<polygon fill="black" stroke="black" points="649.18,-590.99 638.71,-589.38 645.89,-597.17 649.18,-590.99"/>
<text text-anchor="middle" x="784.7" y="-651.3" font-family="Times,serif" font-size="14.00">_J6</text>
</g>
<!-- ASI6&#45;&gt;ASITissue -->
<g id="edge13" class="edge">
<title>ASI6&#45;&gt;ASITissue</title>
<path fill="none" stroke="black" d="M858.74,-679.99C890.81,-644.99 966.49,-567.3 1044.7,-522.5 1088.59,-497.35 1142.89,-477.31 1181.47,-464.73"/>
<polygon fill="black" stroke="black" points="1182.96,-467.93 1191.42,-461.54 1180.82,-461.26 1182.96,-467.93"/>
<text text-anchor="middle" x="1019.2" y="-570.3" font-family="Times,serif" font-size="14.00">_J13</text>
</g>
<!-- ALI1 -->
<g id="node9" class="node">
<title>ALI1</title>
<g id="a_node9"><a xlink:href="#species-ALI1" xlink:title="ALI1&#10;[&#45;]">
<path fill="gold" stroke="black" d="M494.7,-468C494.7,-468 464.7,-468 464.7,-468 458.7,-468 452.7,-462 452.7,-456 452.7,-456 452.7,-442 452.7,-442 452.7,-436 458.7,-430 464.7,-430 464.7,-430 494.7,-430 494.7,-430 500.7,-430 506.7,-436 506.7,-442 506.7,-442 506.7,-456 506.7,-456 506.7,-462 500.7,-468 494.7,-468"/>
<text text-anchor="middle" x="479.7" y="-452.8" font-family="Arial" font-size="14.00">ALI1</text>
<text text-anchor="middle" x="479.7" y="-437.8" font-family="Arial" font-size="14.00">[&#45;]</text>
</a>
</g>
</g>
<!-- ASI7&#45;&gt;ALI1 -->
<g id="edge14" class="edge">
<title>ASI7&#45;&gt;ALI1</title>
<path fill="none" stroke="black" d="M592.22,-554.85C569.6,-533.78 532.15,-498.88 506.73,-475.19"/>
<polygon fill="black" stroke="black" points="508.96,-472.48 499.25,-468.22 504.18,-477.6 508.96,-472.48"/>
<text text-anchor="middle" x="582.7" y="-526.3" font-family="Times,serif" font-size="14.00">_J7</text>
</g>
<!-- ASI7&#45;&gt;ASITissue -->
<g id="edge15" class="edge">
<title>ASI7&#45;&gt;ASITissue</title>
<path fill="none" stroke="black" d="M638.9,-564.7C674.96,-553.91 740.66,-534.99 797.7,-522.5 935.58,-492.32 1100.56,-467.86 1181.28,-456.64"/>
<polygon fill="black" stroke="black" points="1182.21,-460.05 1191.63,-455.21 1181.25,-453.12 1182.21,-460.05"/>
<text text-anchor="middle" x="813.2" y="-526.3" font-family="Times,serif" font-size="14.00">_J14</text>
</g>
<!-- ALI1Met2 -->
<g id="node10" class="node">
<title>ALI1Met2</title>
<g id="a_node10"><a xlink:href="#species-ALI1Met2" xlink:title="ALI1Met2&#10;[&#45;]">
<path fill="gold" stroke="black" d="M219.2,-343C219.2,-343 168.2,-343 168.2,-343 162.2,-343 156.2,-337 156.2,-331 156.2,-331 156.2,-317 156.2,-317 156.2,-311 162.2,-305 168.2,-305 168.2,-305 219.2,-305 219.2,-305 225.2,-305 231.2,-311 231.2,-317 231.2,-317 231.2,-331 231.2,-331 231.2,-337 225.2,-343 219.2,-343"/>
<text text-anchor="middle" x="193.7" y="-327.8" font-family="Arial" font-size="14.00">ALI1Met2</text>
<text text-anchor="middle" x="193.7" y="-312.8" font-family="Arial" font-size="14.00">[&#45;]</text>
</a>
</g>
</g>
<!-- ALI1&#45;&gt;ALI1Met2 -->
<g id="edge16" class="edge">
<title>ALI1&#45;&gt;ALI1Met2</title>
<path fill="none" stroke="black" d="M452.53,-436.32C403.83,-415.37 301.1,-371.19 240.74,-345.23"/>
<polygon fill="black" stroke="black" points="241.99,-341.96 231.43,-341.23 239.23,-348.39 241.99,-341.96"/>
<text text-anchor="middle" x="410.2" y="-401.3" font-family="Times,serif" font-size="14.00">_J24</text>
</g>
<!-- ALI1Met3 -->
<g id="node11" class="node">
<title>ALI1Met3</title>
<g id="a_node11"><a xlink:href="#species-ALI1Met3" xlink:title="ALI1Met3&#10;[&#45;]">
<path fill="gold" stroke="black" d="M465.2,-254C465.2,-254 414.2,-254 414.2,-254 408.2,-254 402.2,-248 402.2,-242 402.2,-242 402.2,-228 402.2,-228 402.2,-222 408.2,-216 414.2,-216 414.2,-216 465.2,-216 465.2,-216 471.2,-216 477.2,-222 477.2,-228 477.2,-228 477.2,-242 477.2,-242 477.2,-248 471.2,-254 465.2,-254"/>
<text text-anchor="middle" x="439.7" y="-238.8" font-family="Arial" font-size="14.00">ALI1Met3</text>
<text text-anchor="middle" x="439.7" y="-223.8" font-family="Arial" font-size="14.00">[&#45;]</text>
</a>
</g>
</g>
<!-- ALI1&#45;&gt;ALI1Met3 -->
<g id="edge17" class="edge">
<title>ALI1&#45;&gt;ALI1Met3</title>
<path fill="none" stroke="black" d="M476.29,-429.92C469.3,-392.92 453.34,-308.32 445,-264.09"/>
<polygon fill="black" stroke="black" points="448.39,-263.21 443.1,-254.03 441.51,-264.5 448.39,-263.21"/>
<text text-anchor="middle" x="483.2" y="-320.3" font-family="Times,serif" font-size="14.00">_J25</text>
</g>
<!-- ALiver -->
<g id="node14" class="node">
<title>ALiver</title>
<g id="a_node14"><a xlink:href="#species-ALiver" xlink:title="ALiver&#10;[PBPKO:00497]">
<path fill="gold" stroke="black" d="M1733.2,-343C1733.2,-343 1644.2,-343 1644.2,-343 1638.2,-343 1632.2,-337 1632.2,-331 1632.2,-331 1632.2,-317 1632.2,-317 1632.2,-311 1638.2,-305 1644.2,-305 1644.2,-305 1733.2,-305 1733.2,-305 1739.2,-305 1745.2,-311 1745.2,-317 1745.2,-317 1745.2,-331 1745.2,-331 1745.2,-337 1739.2,-343 1733.2,-343"/>
<text text-anchor="middle" x="1688.7" y="-327.8" font-family="Arial" font-size="14.00">ALiver</text>
<text text-anchor="middle" x="1688.7" y="-312.8" font-family="Arial" font-size="14.00">[PBPKO:00497]</text>
</a>
</g>
</g>
<!-- ALI1&#45;&gt;ALiver -->
<g id="edge18" class="edge">
<title>ALI1&#45;&gt;ALiver</title>
<path fill="none" stroke="black" d="M506.84,-443.87C574.71,-433.74 757.35,-407.76 910.7,-397.5 1021.58,-390.08 1300.39,-402.48 1410.7,-389 1484.09,-380.03 1566.42,-359.76 1622.31,-344.41"/>
<polygon fill="black" stroke="black" points="1623.38,-347.75 1632.08,-341.71 1621.51,-341 1623.38,-347.75"/>
<text text-anchor="middle" x="926.2" y="-401.3" font-family="Times,serif" font-size="14.00">_J15</text>
</g>
<!-- AFeaces -->
<g id="node20" class="node">
<title>AFeaces</title>
<g id="a_node20"><a xlink:href="#species-AFeaces" xlink:title="AFeaces&#10;[&#45;]">
<path fill="gold" stroke="black" d="M704.7,-129C704.7,-129 658.7,-129 658.7,-129 652.7,-129 646.7,-123 646.7,-117 646.7,-117 646.7,-103 646.7,-103 646.7,-97 652.7,-91 658.7,-91 658.7,-91 704.7,-91 704.7,-91 710.7,-91 716.7,-97 716.7,-103 716.7,-103 716.7,-117 716.7,-117 716.7,-123 710.7,-129 704.7,-129"/>
<text text-anchor="middle" x="681.7" y="-113.8" font-family="Arial" font-size="14.00">AFeaces</text>
<text text-anchor="middle" x="681.7" y="-98.8" font-family="Arial" font-size="14.00">[&#45;]</text>
</a>
</g>
</g>
<!-- ALI1&#45;&gt;AFeaces -->
<g id="edge19" class="edge">
<title>ALI1&#45;&gt;AFeaces</title>
<path fill="none" stroke="black" d="M490.56,-429.88C524.05,-374 625.9,-204.09 665.61,-137.84"/>
<polygon fill="black" stroke="black" points="668.64,-139.58 670.78,-129.21 662.64,-135.99 668.64,-139.58"/>
<text text-anchor="middle" x="598.2" y="-276.3" font-family="Times,serif" font-size="14.00">_J16</text>
</g>
<!-- ASITissueMet1 -->
<g id="node13" class="node">
<title>ASITissueMet1</title>
<g id="a_node13"><a xlink:href="#species-ASITissueMet1" xlink:title="ASITissueMet1&#10;[&#45;]">
<path fill="gold" stroke="black" d="M1218.2,-343C1218.2,-343 1133.2,-343 1133.2,-343 1127.2,-343 1121.2,-337 1121.2,-331 1121.2,-331 1121.2,-317 1121.2,-317 1121.2,-311 1127.2,-305 1133.2,-305 1133.2,-305 1218.2,-305 1218.2,-305 1224.2,-305 1230.2,-311 1230.2,-317 1230.2,-317 1230.2,-331 1230.2,-331 1230.2,-337 1224.2,-343 1218.2,-343"/>
<text text-anchor="middle" x="1175.7" y="-327.8" font-family="Arial" font-size="14.00">ASITissueMet1</text>
<text text-anchor="middle" x="1175.7" y="-312.8" font-family="Arial" font-size="14.00">[&#45;]</text>
</a>
</g>
</g>
<!-- ASITissue&#45;&gt;ASITissueMet1 -->
<g id="edge20" class="edge">
<title>ASITissue&#45;&gt;ASITissueMet1</title>
<path fill="none" stroke="black" d="M1222.58,-429.85C1213.44,-409.41 1198.49,-375.97 1187.93,-352.36"/>
<polygon fill="black" stroke="black" points="1191.12,-350.92 1183.84,-343.22 1184.73,-353.78 1191.12,-350.92"/>
<text text-anchor="middle" x="1229.2" y="-401.3" font-family="Times,serif" font-size="14.00">_J23</text>
</g>
<!-- ASITissue&#45;&gt;ALiver -->
<g id="edge21" class="edge">
<title>ASITissue&#45;&gt;ALiver</title>
<path fill="none" stroke="black" d="M1269.74,-437.51C1348.17,-416.45 1525.6,-368.8 1622.49,-342.78"/>
<polygon fill="black" stroke="black" points="1623.43,-346.15 1632.18,-340.18 1621.62,-339.39 1623.43,-346.15"/>
<text text-anchor="middle" x="1433.2" y="-401.3" font-family="Times,serif" font-size="14.00">_J17</text>
</g>
<!-- ALiverMet2 -->
<g id="node15" class="node">
<title>ALiverMet2</title>
<g id="a_node15"><a xlink:href="#species-ALiverMet2" xlink:title="ALiverMet2&#10;[&#45;]">
<path fill="gold" stroke="black" d="M1972.7,-254C1972.7,-254 1910.7,-254 1910.7,-254 1904.7,-254 1898.7,-248 1898.7,-242 1898.7,-242 1898.7,-228 1898.7,-228 1898.7,-222 1904.7,-216 1910.7,-216 1910.7,-216 1972.7,-216 1972.7,-216 1978.7,-216 1984.7,-222 1984.7,-228 1984.7,-228 1984.7,-242 1984.7,-242 1984.7,-248 1978.7,-254 1972.7,-254"/>
<text text-anchor="middle" x="1941.7" y="-238.8" font-family="Arial" font-size="14.00">ALiverMet2</text>
<text text-anchor="middle" x="1941.7" y="-223.8" font-family="Arial" font-size="14.00">[&#45;]</text>
</a>
</g>
</g>
<!-- ALiver&#45;&gt;ALiverMet2 -->
<g id="edge22" class="edge">
<title>ALiver&#45;&gt;ALiverMet2</title>
<path fill="none" stroke="black" d="M1741.12,-304.97C1784.45,-290.07 1845.68,-269.02 1889.06,-254.1"/>
<polygon fill="black" stroke="black" points="1890.27,-257.39 1898.59,-250.82 1887.99,-250.77 1890.27,-257.39"/>
<text text-anchor="middle" x="1845.2" y="-276.3" font-family="Times,serif" font-size="14.00">_J26</text>
</g>
<!-- ALiverMet3 -->
<g id="node16" class="node">
<title>ALiverMet3</title>
<g id="a_node16"><a xlink:href="#species-ALiverMet3" xlink:title="ALiverMet3&#10;[&#45;]">
<path fill="gold" stroke="black" d="M1653.7,-129C1653.7,-129 1591.7,-129 1591.7,-129 1585.7,-129 1579.7,-123 1579.7,-117 1579.7,-117 1579.7,-103 1579.7,-103 1579.7,-97 1585.7,-91 1591.7,-91 1591.7,-91 1653.7,-91 1653.7,-91 1659.7,-91 1665.7,-97 1665.7,-103 1665.7,-103 1665.7,-117 1665.7,-117 1665.7,-123 1659.7,-129 1653.7,-129"/>
<text text-anchor="middle" x="1622.7" y="-113.8" font-family="Arial" font-size="14.00">ALiverMet3</text>
<text text-anchor="middle" x="1622.7" y="-98.8" font-family="Arial" font-size="14.00">[&#45;]</text>
</a>
</g>
</g>
<!-- ALiver&#45;&gt;ALiverMet3 -->
<g id="edge23" class="edge">
<title>ALiver&#45;&gt;ALiverMet3</title>
<path fill="none" stroke="black" d="M1683.07,-304.92C1671.53,-267.84 1645.1,-182.96 1631.36,-138.81"/>
<polygon fill="black" stroke="black" points="1634.62,-137.54 1628.31,-129.03 1627.94,-139.62 1634.62,-137.54"/>
<text text-anchor="middle" x="1681.2" y="-231.3" font-family="Times,serif" font-size="14.00">_J27</text>
</g>
<!-- ALiverMet1 -->
<g id="node17" class="node">
<title>ALiverMet1</title>
<g id="a_node17"><a xlink:href="#species-ALiverMet1" xlink:title="ALiverMet1&#10;[&#45;]">
<path fill="gold" stroke="black" d="M1880.7,-54C1880.7,-54 1818.7,-54 1818.7,-54 1812.7,-54 1806.7,-48 1806.7,-42 1806.7,-42 1806.7,-28 1806.7,-28 1806.7,-22 1812.7,-16 1818.7,-16 1818.7,-16 1880.7,-16 1880.7,-16 1886.7,-16 1892.7,-22 1892.7,-28 1892.7,-28 1892.7,-42 1892.7,-42 1892.7,-48 1886.7,-54 1880.7,-54"/>
<text text-anchor="middle" x="1849.7" y="-38.8" font-family="Arial" font-size="14.00">ALiverMet1</text>
<text text-anchor="middle" x="1849.7" y="-23.8" font-family="Arial" font-size="14.00">[&#45;]</text>
</a>
</g>
</g>
<!-- ALiver&#45;&gt;ALiverMet1 -->
<g id="edge24" class="edge">
<title>ALiver&#45;&gt;ALiverMet1</title>
<path fill="none" stroke="black" d="M1699.01,-304.61C1726.56,-255.51 1801.95,-121.11 1834.45,-63.17"/>
<polygon fill="black" stroke="black" points="1837.63,-64.67 1839.47,-54.24 1831.52,-61.25 1837.63,-64.67"/>
<text text-anchor="middle" x="1782.2" y="-187.3" font-family="Times,serif" font-size="14.00">_J28</text>
</g>
<!-- ABlood -->
<g id="node18" class="node">
<title>ABlood</title>
<g id="a_node18"><a xlink:href="#species-ABlood" xlink:title="ABlood&#10;[&#45;]">
<path fill="gold" stroke="black" d="M1904.7,-468C1904.7,-468 1868.7,-468 1868.7,-468 1862.7,-468 1856.7,-462 1856.7,-456 1856.7,-456 1856.7,-442 1856.7,-442 1856.7,-436 1862.7,-430 1868.7,-430 1868.7,-430 1904.7,-430 1904.7,-430 1910.7,-430 1916.7,-436 1916.7,-442 1916.7,-442 1916.7,-456 1916.7,-456 1916.7,-462 1910.7,-468 1904.7,-468"/>
<text text-anchor="middle" x="1886.7" y="-452.8" font-family="Arial" font-size="14.00">ABlood</text>
<text text-anchor="middle" x="1886.7" y="-437.8" font-family="Arial" font-size="14.00">[&#45;]</text>
</a>
</g>
</g>
<!-- ALiver&#45;&gt;ABlood -->
<g id="edge25" class="edge">
<title>ALiver&#45;&gt;ABlood</title>
<path fill="none" stroke="black" d="M1717.71,-343.02C1752.37,-364.56 1810.47,-400.65 1848.69,-424.39"/>
<polygon fill="black" stroke="black" points="1847.14,-427.55 1857.48,-429.85 1850.83,-421.6 1847.14,-427.55"/>
<text text-anchor="middle" x="1843.2" y="-401.3" font-family="Times,serif" font-size="14.00">_J20</text>
</g>
<!-- ABlood&#45;&gt;ASITissue -->
<g id="edge26" class="edge">
<title>ABlood&#45;&gt;ASITissue</title>
<path fill="none" stroke="black" d="M1856.44,-449C1752.44,-449 1408.98,-449 1280.12,-449"/>
<polygon fill="black" stroke="black" points="1279.77,-445.5 1269.77,-449 1279.77,-452.5 1279.77,-445.5"/>
<text text-anchor="middle" x="1563.2" y="-455.8" font-family="Times,serif" font-size="14.00">_J18</text>
</g>
<!-- ABlood&#45;&gt;ALiver -->
<g id="edge27" class="edge">
<title>ABlood&#45;&gt;ALiver</title>
<path fill="none" stroke="black" d="M1856.51,-443.37C1831.74,-438.55 1796.51,-429.28 1769.7,-412.5 1744.32,-396.62 1721.77,-370.76 1706.95,-351.26"/>
<polygon fill="black" stroke="black" points="1709.65,-349.04 1700.89,-343.08 1704.03,-353.2 1709.65,-349.04"/>
<text text-anchor="middle" x="1785.2" y="-401.3" font-family="Times,serif" font-size="14.00">_J19</text>
</g>
<!-- ARest -->
<g id="node19" class="node">
<title>ARest</title>
<g id="a_node19"><a xlink:href="#species-ARest" xlink:title="ARest&#10;[PBPKO:00501]">
<path fill="gold" stroke="black" d="M2440.2,-343C2440.2,-343 2351.2,-343 2351.2,-343 2345.2,-343 2339.2,-337 2339.2,-331 2339.2,-331 2339.2,-317 2339.2,-317 2339.2,-311 2345.2,-305 2351.2,-305 2351.2,-305 2440.2,-305 2440.2,-305 2446.2,-305 2452.2,-311 2452.2,-317 2452.2,-317 2452.2,-331 2452.2,-331 2452.2,-337 2446.2,-343 2440.2,-343"/>
<text text-anchor="middle" x="2395.7" y="-327.8" font-family="Arial" font-size="14.00">ARest</text>
<text text-anchor="middle" x="2395.7" y="-312.8" font-family="Arial" font-size="14.00">[PBPKO:00501]</text>
</a>
</g>
</g>
<!-- ABlood&#45;&gt;ARest -->
<g id="edge28" class="edge">
<title>ABlood&#45;&gt;ARest</title>
<path fill="none" stroke="black" d="M1917,-440.77C1963.44,-429.67 2055,-407.77 2132.7,-389 2199.53,-372.85 2275.88,-354.26 2329.04,-341.29"/>
<polygon fill="black" stroke="black" points="2330.13,-344.62 2339.02,-338.85 2328.47,-337.82 2330.13,-344.62"/>
<text text-anchor="middle" x="2107.2" y="-401.3" font-family="Times,serif" font-size="14.00">_J21</text>
</g>
<!-- ARest&#45;&gt;ABlood -->
<g id="edge29" class="edge">
<title>ARest&#45;&gt;ABlood</title>
<path fill="none" stroke="black" d="M2348.28,-343.11C2295.07,-362.79 2205.82,-393.92 2126.7,-412.5 2057.36,-428.78 1974.91,-439.04 1926.92,-444.13"/>
<polygon fill="black" stroke="black" points="1926.52,-440.66 1916.93,-445.17 1927.24,-447.62 1926.52,-440.66"/>
<text text-anchor="middle" x="2194.2" y="-401.3" font-family="Times,serif" font-size="14.00">_J22</text>
</g>
</g>
</svg>
