<?xml version="1.0" encoding="UTF-8" standalone="no"?>
<!DOCTYPE svg PUBLIC "-//W3C//DTD SVG 1.1//EN"
 "http://www.w3.org/Graphics/SVG/1.1/DTD/svg11.dtd">
<!-- Generated by graphviz version 2.43.0 (0)
 -->
<!-- Title: %3 Pages: 1 -->
<svg width="503pt" height="288pt"
 viewBox="0.00 0.00 502.87 288.00" xmlns="http://www.w3.org/2000/svg" xmlns:xlink="http://www.w3.org/1999/xlink">
<g id="graph0" class="graph" transform="scale(0.19 0.19) rotate(0) translate(4 1526)">
<title>%3</title>
<polygon fill="white" stroke="transparent" points="-4,4 -4,-1526 2667.5,-1526 2667.5,4 -4,4"/>
<g id="clust1" class="cluster">
<title>cluster_Stomach</title>
<g id="a_clust1"><a xlink:href="#compartment-Stomach" xlink:title="Stomach&#10;[PBPKO:00566]">
<path fill="lightblue" stroke="black" d="M1447.82,-1422C1447.82,-1422 1822.46,-1422 1822.46,-1422 1828.46,-1422 1834.46,-1428 1834.46,-1434 1834.46,-1434 1834.46,-1502 1834.46,-1502 1834.46,-1508 1828.46,-1514 1822.46,-1514 1822.46,-1514 1447.82,-1514 1447.82,-1514 1441.82,-1514 1435.82,-1508 1435.82,-1502 1435.82,-1502 1435.82,-1434 1435.82,-1434 1435.82,-1428 1441.82,-1422 1447.82,-1422"/>
<text text-anchor="middle" x="1635.14" y="-1498.8" font-family="Arial" font-size="14.00">Stomach</text>
<text text-anchor="middle" x="1635.14" y="-1483.8" font-family="Arial" font-size="14.00">[PBPKO:00566]</text>
</a>
</g>
</g>
<g id="clust2" class="cluster">
<title>cluster_SI1</title>
<g id="a_clust2"><a xlink:href="#compartment-SI1" xlink:title="SI1&#10;[PBPKO:00472]">
<path fill="lightblue" stroke="black" d="M1447.82,-1297C1447.82,-1297 1822.46,-1297 1822.46,-1297 1828.46,-1297 1834.46,-1303 1834.46,-1309 1834.46,-1309 1834.46,-1377 1834.46,-1377 1834.46,-1383 1828.46,-1389 1822.46,-1389 1822.46,-1389 1447.82,-1389 1447.82,-1389 1441.82,-1389 1435.82,-1383 1435.82,-1377 1435.82,-1377 1435.82,-1309 1435.82,-1309 1435.82,-1303 1441.82,-1297 1447.82,-1297"/>
<text text-anchor="middle" x="1635.14" y="-1373.8" font-family="Arial" font-size="14.00">SI1</text>
<text text-anchor="middle" x="1635.14" y="-1358.8" font-family="Arial" font-size="14.00">[PBPKO:00472]</text>
</a>
</g>
</g>
<g id="clust3" class="cluster">
<title>cluster_SI2</title>
<g id="a_clust3"><a xlink:href="#compartment-SI2" xlink:title="SI2&#10;[PBPKO:00472]">
<path fill="lightblue" stroke="black" d="M1260.85,-1172C1260.85,-1172 1635.49,-1172 1635.49,-1172 1641.49,-1172 1647.49,-1178 1647.49,-1184 1647.49,-1184 1647.49,-1252 1647.49,-1252 1647.49,-1258 1641.49,-1264 1635.49,-1264 1635.49,-1264 1260.85,-1264 1260.85,-1264 1254.85,-1264 1248.85,-1258 1248.85,-1252 1248.85,-1252 1248.85,-1184 1248.85,-1184 1248.85,-1178 1254.85,-1172 1260.85,-1172"/>
<text text-anchor="middle" x="1448.17" y="-1248.8" font-family="Arial" font-size="14.00">SI2</text>
<text text-anchor="middle" x="1448.17" y="-1233.8" font-family="Arial" font-size="14.00">[PBPKO:00472]</text>
</a>
</g>
</g>
<g id="clust4" class="cluster">
<title>cluster_SI3</title>
<g id="a_clust4"><a xlink:href="#compartment-SI3" xlink:title="SI3&#10;[PBPKO:00472]">
<path fill="lightblue" stroke="black" d="M1084.46,-1047C1084.46,-1047 1459.1,-1047 1459.1,-1047 1465.1,-1047 1471.1,-1053 1471.1,-1059 1471.1,-1059 1471.1,-1127 1471.1,-1127 1471.1,-1133 1465.1,-1139 1459.1,-1139 1459.1,-1139 1084.46,-1139 1084.46,-1139 1078.46,-1139 1072.46,-1133 1072.46,-1127 1072.46,-1127 1072.46,-1059 1072.46,-1059 1072.46,-1053 1078.46,-1047 1084.46,-1047"/>
<text text-anchor="middle" x="1271.78" y="-1123.8" font-family="Arial" font-size="14.00">SI3</text>
<text text-anchor="middle" x="1271.78" y="-1108.8" font-family="Arial" font-size="14.00">[PBPKO:00472]</text>
</a>
</g>
</g>
<g id="clust5" class="cluster">
<title>cluster_SI4</title>
<g id="a_clust5"><a xlink:href="#compartment-SI4" xlink:title="SI4&#10;[PBPKO:00472]">
<path fill="lightblue" stroke="black" d="M915.12,-922C915.12,-922 1289.76,-922 1289.76,-922 1295.76,-922 1301.76,-928 1301.76,-934 1301.76,-934 1301.76,-1002 1301.76,-1002 1301.76,-1008 1295.76,-1014 1289.76,-1014 1289.76,-1014 915.12,-1014 915.12,-1014 909.12,-1014 903.12,-1008 903.12,-1002 903.12,-1002 903.12,-934 903.12,-934 903.12,-928 909.12,-922 915.12,-922"/>
<text text-anchor="middle" x="1102.44" y="-998.8" font-family="Arial" font-size="14.00">SI4</text>
<text text-anchor="middle" x="1102.44" y="-983.8" font-family="Arial" font-size="14.00">[PBPKO:00472]</text>
</a>
</g>
</g>
<g id="clust6" class="cluster">
<title>cluster_SI5</title>
<g id="a_clust6"><a xlink:href="#compartment-SI5" xlink:title="SI5&#10;[PBPKO:00472]">
<path fill="lightblue" stroke="black" d="M714.04,-797C714.04,-797 1088.68,-797 1088.68,-797 1094.68,-797 1100.68,-803 1100.68,-809 1100.68,-809 1100.68,-877 1100.68,-877 1100.68,-883 1094.68,-889 1088.68,-889 1088.68,-889 714.04,-889 714.04,-889 708.04,-889 702.04,-883 702.04,-877 702.04,-877 702.04,-809 702.04,-809 702.04,-803 708.04,-797 714.04,-797"/>
<text text-anchor="middle" x="901.36" y="-873.8" font-family="Arial" font-size="14.00">SI5</text>
<text text-anchor="middle" x="901.36" y="-858.8" font-family="Arial" font-size="14.00">[PBPKO:00472]</text>
</a>
</g>
</g>
<g id="clust7" class="cluster">
<title>cluster_SI6</title>
<g id="a_clust7"><a xlink:href="#compartment-SI6" xlink:title="SI6&#10;[PBPKO:00472]">
<path fill="lightblue" stroke="black" d="M544.7,-672C544.7,-672 919.34,-672 919.34,-672 925.34,-672 931.34,-678 931.34,-684 931.34,-684 931.34,-752 931.34,-752 931.34,-758 925.34,-764 919.34,-764 919.34,-764 544.7,-764 544.7,-764 538.7,-764 532.7,-758 532.7,-752 532.7,-752 532.7,-684 532.7,-684 532.7,-678 538.7,-672 544.7,-672"/>
<text text-anchor="middle" x="732.02" y="-748.8" font-family="Arial" font-size="14.00">SI6</text>
<text text-anchor="middle" x="732.02" y="-733.8" font-family="Arial" font-size="14.00">[PBPKO:00472]</text>
</a>
</g>
</g>
<g id="clust8" class="cluster">
<title>cluster_SI7</title>
<g id="a_clust8"><a xlink:href="#compartment-SI7" xlink:title="SI7&#10;[PBPKO:00472]">
<path fill="lightblue" stroke="black" d="M315.39,-547C315.39,-547 690.04,-547 690.04,-547 696.04,-547 702.04,-553 702.04,-559 702.04,-559 702.04,-627 702.04,-627 702.04,-633 696.04,-639 690.04,-639 690.04,-639 315.39,-639 315.39,-639 309.39,-639 303.39,-633 303.39,-627 303.39,-627 303.39,-559 303.39,-559 303.39,-553 309.39,-547 315.39,-547"/>
<text text-anchor="middle" x="502.71" y="-623.8" font-family="Arial" font-size="14.00">SI7</text>
<text text-anchor="middle" x="502.71" y="-608.8" font-family="Arial" font-size="14.00">[PBPKO:00472]</text>
</a>
</g>
</g>
<g id="clust9" class="cluster">
<title>cluster_LI1</title>
<g id="a_clust9"><a xlink:href="#compartment-LI1" xlink:title="LI1&#10;[PBPKO:00474]">
<path fill="lightblue" stroke="black" d="M40.22,-208C40.22,-208 573.62,-208 573.62,-208 579.62,-208 585.62,-214 585.62,-220 585.62,-220 585.62,-502 585.62,-502 585.62,-508 579.62,-514 573.62,-514 573.62,-514 40.22,-514 40.22,-514 34.22,-514 28.22,-508 28.22,-502 28.22,-502 28.22,-220 28.22,-220 28.22,-214 34.22,-208 40.22,-208"/>
<text text-anchor="middle" x="306.92" y="-498.8" font-family="Arial" font-size="14.00">LI1</text>
<text text-anchor="middle" x="306.92" y="-483.8" font-family="Arial" font-size="14.00">[PBPKO:00474]</text>
</a>
</g>
</g>
<g id="clust10" class="cluster">
<title>cluster_SITissue</title>
<g id="a_clust10"><a xlink:href="#compartment-SITissue" xlink:title="SITissue&#10;[&#45;]">
<path fill="lightblue" stroke="black" d="M922.18,-297C922.18,-297 1342.68,-297 1342.68,-297 1348.68,-297 1354.68,-303 1354.68,-309 1354.68,-309 1354.68,-502 1354.68,-502 1354.68,-508 1348.68,-514 1342.68,-514 1342.68,-514 922.18,-514 922.18,-514 916.18,-514 910.18,-508 910.18,-502 910.18,-502 910.18,-309 910.18,-309 910.18,-303 916.18,-297 922.18,-297"/>
<text text-anchor="middle" x="1132.43" y="-498.8" font-family="Arial" font-size="14.00">SITissue</text>
<text text-anchor="middle" x="1132.43" y="-483.8" font-family="Arial" font-size="14.00">[&#45;]</text>
</a>
</g>
</g>
<g id="clust11" class="cluster">
<title>cluster_Liver</title>
<g id="a_clust11"><a xlink:href="#compartment-Liver" xlink:title="Liver&#10;[PBPKO:00558]">
<path fill="lightblue" stroke="black" d="M1394.9,-8C1394.9,-8 2136.44,-8 2136.44,-8 2142.44,-8 2148.44,-14 2148.44,-20 2148.44,-20 2148.44,-377 2148.44,-377 2148.44,-383 2142.44,-389 2136.44,-389 2136.44,-389 1394.9,-389 1394.9,-389 1388.9,-389 1382.9,-383 1382.9,-377 1382.9,-377 1382.9,-20 1382.9,-20 1382.9,-14 1388.9,-8 1394.9,-8"/>
<text text-anchor="middle" x="1765.67" y="-373.8" font-family="Arial" font-size="14.00">Liver</text>
<text text-anchor="middle" x="1765.67" y="-358.8" font-family="Arial" font-size="14.00">[PBPKO:00558]</text>
</a>
</g>
</g>
<g id="clust12" class="cluster">
<title>cluster_Blood</title>
<g id="a_clust12"><a xlink:href="#compartment-Blood" xlink:title="Blood&#10;[PBPKO:00464]">
<path fill="lightblue" stroke="black" d="M1603.04,-422C1603.04,-422 2037.66,-422 2037.66,-422 2043.66,-422 2049.66,-428 2049.66,-434 2049.66,-434 2049.66,-502 2049.66,-502 2049.66,-508 2043.66,-514 2037.66,-514 2037.66,-514 1603.04,-514 1603.04,-514 1597.04,-514 1591.04,-508 1591.04,-502 1591.04,-502 1591.04,-434 1591.04,-434 1591.04,-428 1597.04,-422 1603.04,-422"/>
<text text-anchor="middle" x="1820.35" y="-498.8" font-family="Arial" font-size="14.00">Blood</text>
<text text-anchor="middle" x="1820.35" y="-483.8" font-family="Arial" font-size="14.00">[PBPKO:00464]</text>
</a>
</g>
</g>
<g id="clust13" class="cluster">
<title>cluster_Rest</title>
<g id="a_clust13"><a xlink:href="#compartment-Rest" xlink:title="Rest&#10;[PBPKO:00450]">
<path fill="lightblue" stroke="black" d="M2188.66,-297C2188.66,-297 2623.28,-297 2623.28,-297 2629.28,-297 2635.28,-303 2635.28,-309 2635.28,-309 2635.28,-377 2635.28,-377 2635.28,-383 2629.28,-389 2623.28,-389 2623.28,-389 2188.66,-389 2188.66,-389 2182.66,-389 2176.66,-383 2176.66,-377 2176.66,-377 2176.66,-309 2176.66,-309 2176.66,-303 2182.66,-297 2188.66,-297"/>
<text text-anchor="middle" x="2405.97" y="-373.8" font-family="Arial" font-size="14.00">Rest</text>
<text text-anchor="middle" x="2405.97" y="-358.8" font-family="Arial" font-size="14.00">[PBPKO:00450]</text>
</a>
</g>
</g>
<g id="clust14" class="cluster">
<title>cluster_Feaces</title>
<g id="a_clust14"><a xlink:href="#compartment-Feaces" xlink:title="Feaces&#10;[PBPKO:00555]">
<path fill="lightblue" stroke="black" d="M438.87,-83C438.87,-83 873.48,-83 873.48,-83 879.48,-83 885.48,-89 885.48,-95 885.48,-95 885.48,-163 885.48,-163 885.48,-169 879.48,-175 873.48,-175 873.48,-175 438.87,-175 438.87,-175 432.87,-175 426.87,-169 426.87,-163 426.87,-163 426.87,-95 426.87,-95 426.87,-89 432.87,-83 438.87,-83"/>
<text text-anchor="middle" x="656.17" y="-159.8" font-family="Arial" font-size="14.00">Feaces</text>
<text text-anchor="middle" x="656.17" y="-144.8" font-family="Arial" font-size="14.00">[PBPKO:00555]</text>
</a>
</g>
</g>
<!-- ASt -->
<g id="node1" class="node">
<title>ASt</title>
<g id="a_node1"><a xlink:href="#species-ASt" xlink:title="ASt&#10;[&#45;]">
<path fill="gold" stroke="black" d="M1648.45,-1468C1648.45,-1468 1618.45,-1468 1618.45,-1468 1612.45,-1468 1606.45,-1462 1606.45,-1456 1606.45,-1456 1606.45,-1442 1606.45,-1442 1606.45,-1436 1612.45,-1430 1618.45,-1430 1618.45,-1430 1648.45,-1430 1648.45,-1430 1654.45,-1430 1660.45,-1436 1660.45,-1442 1660.45,-1442 1660.45,-1456 1660.45,-1456 1660.45,-1462 1654.45,-1468 1648.45,-1468"/>
<text text-anchor="middle" x="1633.45" y="-1452.8" font-family="Arial" font-size="14.00">ASt</text>
<text text-anchor="middle" x="1633.45" y="-1437.8" font-family="Arial" font-size="14.00">[&#45;]</text>
</a>
</g>
</g>
<!-- ASI1 -->
<g id="node2" class="node">
<title>ASI1</title>
<g id="a_node2"><a xlink:href="#species-ASI1" xlink:title="ASI1&#10;[&#45;]">
<path fill="gold" stroke="black" d="M1648.45,-1343C1648.45,-1343 1618.45,-1343 1618.45,-1343 1612.45,-1343 1606.45,-1337 1606.45,-1331 1606.45,-1331 1606.45,-1317 1606.45,-1317 1606.45,-1311 1612.45,-1305 1618.45,-1305 1618.45,-1305 1648.45,-1305 1648.45,-1305 1654.45,-1305 1660.45,-1311 1660.45,-1317 1660.45,-1317 1660.45,-1331 1660.45,-1331 1660.45,-1337 1654.45,-1343 1648.45,-1343"/>
<text text-anchor="middle" x="1633.45" y="-1327.8" font-family="Arial" font-size="14.00">ASI1</text>
<text text-anchor="middle" x="1633.45" y="-1312.8" font-family="Arial" font-size="14.00">[&#45;]</text>
</a>
</g>
</g>
<!-- ASt&#45;&gt;ASI1 -->
<g id="edge1" class="edge">
<title>ASt&#45;&gt;ASI1</title>
<path fill="none" stroke="black" d="M1633.45,-1429.85C1633.45,-1409.68 1633.45,-1376.86 1633.45,-1353.31"/>
<polygon fill="black" stroke="black" points="1636.95,-1353.22 1633.45,-1343.22 1629.95,-1353.22 1636.95,-1353.22"/>
<text text-anchor="middle" x="1644.45" y="-1401.3" font-family="Times,serif" font-size="14.00">_J0</text>
</g>
<!-- ASI2 -->
<g id="node3" class="node">
<title>ASI2</title>
<g id="a_node3"><a xlink:href="#species-ASI2" xlink:title="ASI2&#10;[&#45;]">
<path fill="gold" stroke="black" d="M1535.45,-1218C1535.45,-1218 1505.45,-1218 1505.45,-1218 1499.45,-1218 1493.45,-1212 1493.45,-1206 1493.45,-1206 1493.45,-1192 1493.45,-1192 1493.45,-1186 1499.45,-1180 1505.45,-1180 1505.45,-1180 1535.45,-1180 1535.45,-1180 1541.45,-1180 1547.45,-1186 1547.45,-1192 1547.45,-1192 1547.45,-1206 1547.45,-1206 1547.45,-1212 1541.45,-1218 1535.45,-1218"/>
<text text-anchor="middle" x="1520.45" y="-1202.8" font-family="Arial" font-size="14.00">ASI2</text>
<text text-anchor="middle" x="1520.45" y="-1187.8" font-family="Arial" font-size="14.00">[&#45;]</text>
</a>
</g>
</g>
<!-- ASI1&#45;&gt;ASI2 -->
<g id="edge2" class="edge">
<title>ASI1&#45;&gt;ASI2</title>
<path fill="none" stroke="black" d="M1616.78,-1304.85C1597.58,-1283.96 1565.91,-1249.48 1544.16,-1225.8"/>
<polygon fill="black" stroke="black" points="1546.53,-1223.22 1537.19,-1218.22 1541.38,-1227.96 1546.53,-1223.22"/>
<text text-anchor="middle" x="1610.45" y="-1276.3" font-family="Times,serif" font-size="14.00">_J1</text>
</g>
<!-- ASITissue -->
<g id="node12" class="node">
<title>ASITissue</title>
<g id="a_node12"><a xlink:href="#species-ASITissue" xlink:title="ASITissue&#10;[&#45;]">
<path fill="gold" stroke="black" d="M1198.45,-468C1198.45,-468 1144.45,-468 1144.45,-468 1138.45,-468 1132.45,-462 1132.45,-456 1132.45,-456 1132.45,-442 1132.45,-442 1132.45,-436 1138.45,-430 1144.45,-430 1144.45,-430 1198.45,-430 1198.45,-430 1204.45,-430 1210.45,-436 1210.45,-442 1210.45,-442 1210.45,-456 1210.45,-456 1210.45,-462 1204.45,-468 1198.45,-468"/>
<text text-anchor="middle" x="1171.45" y="-452.8" font-family="Arial" font-size="14.00">ASITissue</text>
<text text-anchor="middle" x="1171.45" y="-437.8" font-family="Arial" font-size="14.00">[&#45;]</text>
</a>
</g>
</g>
<!-- ASI1&#45;&gt;ASITissue -->
<g id="edge3" class="edge">
<title>ASI1&#45;&gt;ASITissue</title>
<path fill="none" stroke="black" d="M1655.58,-1304.62C1679.57,-1282.5 1714.45,-1242.96 1714.45,-1200 1714.45,-1200 1714.45,-1200 1714.45,-573 1714.45,-522.6 1354.03,-472.68 1220.47,-455.91"/>
<polygon fill="black" stroke="black" points="1220.86,-452.43 1210.5,-454.67 1219.99,-459.38 1220.86,-452.43"/>
<text text-anchor="middle" x="1725.45" y="-901.3" font-family="Times,serif" font-size="14.00">_J8</text>
</g>
<!-- ASI3 -->
<g id="node4" class="node">
<title>ASI3</title>
<g id="a_node4"><a xlink:href="#species-ASI3" xlink:title="ASI3&#10;[&#45;]">
<path fill="gold" stroke="black" d="M1359.45,-1093C1359.45,-1093 1329.45,-1093 1329.45,-1093 1323.45,-1093 1317.45,-1087 1317.45,-1081 1317.45,-1081 1317.45,-1067 1317.45,-1067 1317.45,-1061 1323.45,-1055 1329.45,-1055 1329.45,-1055 1359.45,-1055 1359.45,-1055 1365.45,-1055 1371.45,-1061 1371.45,-1067 1371.45,-1067 1371.45,-1081 1371.45,-1081 1371.45,-1087 1365.45,-1093 1359.45,-1093"/>
<text text-anchor="middle" x="1344.45" y="-1077.8" font-family="Arial" font-size="14.00">ASI3</text>
<text text-anchor="middle" x="1344.45" y="-1062.8" font-family="Arial" font-size="14.00">[&#45;]</text>
</a>
</g>
</g>
<!-- ASI2&#45;&gt;ASI3 -->
<g id="edge4" class="edge">
<title>ASI2&#45;&gt;ASI3</title>
<path fill="none" stroke="black" d="M1494.48,-1179.85C1463.72,-1158.35 1412.37,-1122.47 1378.46,-1098.77"/>
<polygon fill="black" stroke="black" points="1380.44,-1095.88 1370.24,-1093.02 1376.43,-1101.62 1380.44,-1095.88"/>
<text text-anchor="middle" x="1478.45" y="-1151.3" font-family="Times,serif" font-size="14.00">_J2</text>
</g>
<!-- ASI2&#45;&gt;ASITissue -->
<g id="edge5" class="edge">
<title>ASI2&#45;&gt;ASITissue</title>
<path fill="none" stroke="black" d="M1524.81,-1179.78C1530.13,-1155.88 1538.45,-1112.55 1538.45,-1075 1538.45,-1075 1538.45,-1075 1538.45,-573 1538.45,-506.8 1321.06,-469.64 1220.9,-456.04"/>
<polygon fill="black" stroke="black" points="1221.1,-452.53 1210.72,-454.68 1220.17,-459.47 1221.1,-452.53"/>
<text text-anchor="middle" x="1549.45" y="-820.3" font-family="Times,serif" font-size="14.00">_J9</text>
</g>
<!-- ASI4 -->
<g id="node5" class="node">
<title>ASI4</title>
<g id="a_node5"><a xlink:href="#species-ASI4" xlink:title="ASI4&#10;[&#45;]">
<path fill="gold" stroke="black" d="M1182.45,-968C1182.45,-968 1152.45,-968 1152.45,-968 1146.45,-968 1140.45,-962 1140.45,-956 1140.45,-956 1140.45,-942 1140.45,-942 1140.45,-936 1146.45,-930 1152.45,-930 1152.45,-930 1182.45,-930 1182.45,-930 1188.45,-930 1194.45,-936 1194.45,-942 1194.45,-942 1194.45,-956 1194.45,-956 1194.45,-962 1188.45,-968 1182.45,-968"/>
<text text-anchor="middle" x="1167.45" y="-952.8" font-family="Arial" font-size="14.00">ASI4</text>
<text text-anchor="middle" x="1167.45" y="-937.8" font-family="Arial" font-size="14.00">[&#45;]</text>
</a>
</g>
</g>
<!-- ASI3&#45;&gt;ASI4 -->
<g id="edge6" class="edge">
<title>ASI3&#45;&gt;ASI4</title>
<path fill="none" stroke="black" d="M1318.33,-1054.85C1287.39,-1033.35 1235.76,-997.47 1201.65,-973.77"/>
<polygon fill="black" stroke="black" points="1203.59,-970.86 1193.38,-968.02 1199.6,-976.6 1203.59,-970.86"/>
<text text-anchor="middle" x="1302.45" y="-1026.3" font-family="Times,serif" font-size="14.00">_J3</text>
</g>
<!-- ASI3&#45;&gt;ASITissue -->
<g id="edge7" class="edge">
<title>ASI3&#45;&gt;ASITissue</title>
<path fill="none" stroke="black" d="M1352.11,-1054.61C1361.29,-1030.88 1375.45,-988.1 1375.45,-950 1375.45,-950 1375.45,-950 1375.45,-573 1375.45,-501.07 1281.27,-470.1 1220.9,-457.64"/>
<polygon fill="black" stroke="black" points="1221.27,-454.15 1210.78,-455.66 1219.92,-461.01 1221.27,-454.15"/>
<text text-anchor="middle" x="1390.95" y="-776.3" font-family="Times,serif" font-size="14.00">_J10</text>
</g>
<!-- ASI5 -->
<g id="node6" class="node">
<title>ASI5</title>
<g id="a_node6"><a xlink:href="#species-ASI5" xlink:title="ASI5&#10;[&#45;]">
<path fill="gold" stroke="black" d="M988.45,-843C988.45,-843 958.45,-843 958.45,-843 952.45,-843 946.45,-837 946.45,-831 946.45,-831 946.45,-817 946.45,-817 946.45,-811 952.45,-805 958.45,-805 958.45,-805 988.45,-805 988.45,-805 994.45,-805 1000.45,-811 1000.45,-817 1000.45,-817 1000.45,-831 1000.45,-831 1000.45,-837 994.45,-843 988.45,-843"/>
<text text-anchor="middle" x="973.45" y="-827.8" font-family="Arial" font-size="14.00">ASI5</text>
<text text-anchor="middle" x="973.45" y="-812.8" font-family="Arial" font-size="14.00">[&#45;]</text>
</a>
</g>
</g>
<!-- ASI4&#45;&gt;ASI5 -->
<g id="edge8" class="edge">
<title>ASI4&#45;&gt;ASI5</title>
<path fill="none" stroke="black" d="M1140.07,-930.64C1105.84,-908.94 1047.16,-871.73 1009.36,-847.77"/>
<polygon fill="black" stroke="black" points="1011.01,-844.67 1000.69,-842.27 1007.27,-850.58 1011.01,-844.67"/>
<text text-anchor="middle" x="1120.45" y="-901.3" font-family="Times,serif" font-size="14.00">_J4</text>
</g>
<!-- ASI4&#45;&gt;ASITissue -->
<g id="edge9" class="edge">
<title>ASI4&#45;&gt;ASITissue</title>
<path fill="none" stroke="black" d="M1167.45,-929.66C1167.45,-905.63 1167.45,-862.16 1167.45,-825 1167.45,-825 1167.45,-825 1167.45,-573 1167.45,-540.62 1168.85,-503.46 1170,-478.54"/>
<polygon fill="black" stroke="black" points="1173.5,-478.49 1170.48,-468.33 1166.51,-478.15 1173.5,-478.49"/>
<text text-anchor="middle" x="1182.95" y="-695.3" font-family="Times,serif" font-size="14.00">_J11</text>
</g>
<!-- ASI6 -->
<g id="node7" class="node">
<title>ASI6</title>
<g id="a_node7"><a xlink:href="#species-ASI6" xlink:title="ASI6&#10;[&#45;]">
<path fill="gold" stroke="black" d="M812.45,-718C812.45,-718 782.45,-718 782.45,-718 776.45,-718 770.45,-712 770.45,-706 770.45,-706 770.45,-692 770.45,-692 770.45,-686 776.45,-680 782.45,-680 782.45,-680 812.45,-680 812.45,-680 818.45,-680 824.45,-686 824.45,-692 824.45,-692 824.45,-706 824.45,-706 824.45,-712 818.45,-718 812.45,-718"/>
<text text-anchor="middle" x="797.45" y="-702.8" font-family="Arial" font-size="14.00">ASI6</text>
<text text-anchor="middle" x="797.45" y="-687.8" font-family="Arial" font-size="14.00">[&#45;]</text>
</a>
</g>
</g>
<!-- ASI5&#45;&gt;ASI6 -->
<g id="edge10" class="edge">
<title>ASI5&#45;&gt;ASI6</title>
<path fill="none" stroke="black" d="M947.48,-804.85C916.72,-783.35 865.37,-747.47 831.46,-723.77"/>
<polygon fill="black" stroke="black" points="833.44,-720.88 823.24,-718.02 829.43,-726.62 833.44,-720.88"/>
<text text-anchor="middle" x="931.45" y="-776.3" font-family="Times,serif" font-size="14.00">_J5</text>
</g>
<!-- ASI5&#45;&gt;ASITissue -->
<g id="edge11" class="edge">
<title>ASI5&#45;&gt;ASITissue</title>
<path fill="none" stroke="black" d="M983.13,-804.76C1015.31,-744.15 1118.76,-549.26 1157.03,-477.15"/>
<polygon fill="black" stroke="black" points="1160.19,-478.68 1161.78,-468.21 1154,-475.4 1160.19,-478.68"/>
<text text-anchor="middle" x="1080.95" y="-651.3" font-family="Times,serif" font-size="14.00">_J12</text>
</g>
<!-- ASI7 -->
<g id="node8" class="node">
<title>ASI7</title>
<g id="a_node8"><a xlink:href="#species-ASI7" xlink:title="ASI7&#10;[&#45;]">
<path fill="gold" stroke="black" d="M590.45,-593C590.45,-593 560.45,-593 560.45,-593 554.45,-593 548.45,-587 548.45,-581 548.45,-581 548.45,-567 548.45,-567 548.45,-561 554.45,-555 560.45,-555 560.45,-555 590.45,-555 590.45,-555 596.45,-555 602.45,-561 602.45,-567 602.45,-567 602.45,-581 602.45,-581 602.45,-587 596.45,-593 590.45,-593"/>
<text text-anchor="middle" x="575.45" y="-577.8" font-family="Arial" font-size="14.00">ASI7</text>
<text text-anchor="middle" x="575.45" y="-562.8" font-family="Arial" font-size="14.00">[&#45;]</text>
</a>
</g>
</g>
<!-- ASI6&#45;&gt;ASI7 -->
<g id="edge12" class="edge">
<title>ASI6&#45;&gt;ASI7</title>
<path fill="none" stroke="black" d="M770.23,-682.92C730.34,-660.82 655.95,-619.6 611.54,-595"/>
<polygon fill="black" stroke="black" points="612.99,-591.8 602.55,-590.01 609.6,-597.92 612.99,-591.8"/>
<text text-anchor="middle" x="742.45" y="-651.3" font-family="Times,serif" font-size="14.00">_J6</text>
</g>
<!-- ASI6&#45;&gt;ASITissue -->
<g id="edge13" class="edge">
<title>ASI6&#45;&gt;ASITissue</title>
<path fill="none" stroke="black" d="M812.66,-679.89C843.13,-644.71 915.24,-566.73 991.45,-522.5 1033.58,-498.05 1085.53,-478.09 1122.78,-465.35"/>
<polygon fill="black" stroke="black" points="1124.04,-468.62 1132.39,-462.11 1121.8,-461.99 1124.04,-468.62"/>
<text text-anchor="middle" x="966.95" y="-570.3" font-family="Times,serif" font-size="14.00">_J13</text>
</g>
<!-- ALI1 -->
<g id="node9" class="node">
<title>ALI1</title>
<g id="a_node9"><a xlink:href="#species-ALI1" xlink:title="ALI1&#10;[&#45;]">
<path fill="gold" stroke="black" d="M477.45,-468C477.45,-468 447.45,-468 447.45,-468 441.45,-468 435.45,-462 435.45,-456 435.45,-456 435.45,-442 435.45,-442 435.45,-436 441.45,-430 447.45,-430 447.45,-430 477.45,-430 477.45,-430 483.45,-430 489.45,-436 489.45,-442 489.45,-442 489.45,-456 489.45,-456 489.45,-462 483.45,-468 477.45,-468"/>
<text text-anchor="middle" x="462.45" y="-452.8" font-family="Arial" font-size="14.00">ALI1</text>
<text text-anchor="middle" x="462.45" y="-437.8" font-family="Arial" font-size="14.00">[&#45;]</text>
</a>
</g>
</g>
<!-- ASI7&#45;&gt;ALI1 -->
<g id="edge14" class="edge">
<title>ASI7&#45;&gt;ALI1</title>
<path fill="none" stroke="black" d="M558.78,-554.85C539.58,-533.96 507.91,-499.48 486.16,-475.8"/>
<polygon fill="black" stroke="black" points="488.53,-473.22 479.19,-468.22 483.38,-477.96 488.53,-473.22"/>
<text text-anchor="middle" x="552.45" y="-526.3" font-family="Times,serif" font-size="14.00">_J7</text>
</g>
<!-- ASI7&#45;&gt;ASITissue -->
<g id="edge15" class="edge">
<title>ASI7&#45;&gt;ASITissue</title>
<path fill="none" stroke="black" d="M602.51,-564.31C637.03,-553.44 698.71,-534.78 752.45,-522.5 884.86,-492.24 1043.37,-468.03 1122.07,-456.8"/>
<polygon fill="black" stroke="black" points="1122.77,-460.24 1132.18,-455.37 1121.79,-453.31 1122.77,-460.24"/>
<text text-anchor="middle" x="767.95" y="-526.3" font-family="Times,serif" font-size="14.00">_J14</text>
</g>
<!-- ALI1Met2 -->
<g id="node10" class="node">
<title>ALI1Met2</title>
<g id="a_node10"><a xlink:href="#species-ALI1Met2" xlink:title="ALI1Met2&#10;[&#45;]">
<path fill="gold" stroke="black" d="M212.95,-343C212.95,-343 161.95,-343 161.95,-343 155.95,-343 149.95,-337 149.95,-331 149.95,-331 149.95,-317 149.95,-317 149.95,-311 155.95,-305 161.95,-305 161.95,-305 212.95,-305 212.95,-305 218.95,-305 224.95,-311 224.95,-317 224.95,-317 224.95,-331 224.95,-331 224.95,-337 218.95,-343 212.95,-343"/>
<text text-anchor="middle" x="187.45" y="-327.8" font-family="Arial" font-size="14.00">ALI1Met2</text>
<text text-anchor="middle" x="187.45" y="-312.8" font-family="Arial" font-size="14.00">[&#45;]</text>
</a>
</g>
</g>
<!-- ALI1&#45;&gt;ALI1Met2 -->
<g id="edge16" class="edge">
<title>ALI1&#45;&gt;ALI1Met2</title>
<path fill="none" stroke="black" d="M435.33,-435.87C388.61,-414.97 292.39,-371.94 234.54,-346.06"/>
<polygon fill="black" stroke="black" points="235.8,-342.79 225.25,-341.91 232.95,-349.18 235.8,-342.79"/>
<text text-anchor="middle" x="396.95" y="-401.3" font-family="Times,serif" font-size="14.00">_J24</text>
</g>
<!-- ALI1Met3 -->
<g id="node11" class="node">
<title>ALI1Met3</title>
<g id="a_node11"><a xlink:href="#species-ALI1Met3" xlink:title="ALI1Met3&#10;[&#45;]">
<path fill="gold" stroke="black" d="M448.95,-254C448.95,-254 397.95,-254 397.95,-254 391.95,-254 385.95,-248 385.95,-242 385.95,-242 385.95,-228 385.95,-228 385.95,-222 391.95,-216 397.95,-216 397.95,-216 448.95,-216 448.95,-216 454.95,-216 460.95,-222 460.95,-228 460.95,-228 460.95,-242 460.95,-242 460.95,-248 454.95,-254 448.95,-254"/>
<text text-anchor="middle" x="423.45" y="-238.8" font-family="Arial" font-size="14.00">ALI1Met3</text>
<text text-anchor="middle" x="423.45" y="-223.8" font-family="Arial" font-size="14.00">[&#45;]</text>
</a>
</g>
</g>
<!-- ALI1&#45;&gt;ALI1Met3 -->
<g id="edge17" class="edge">
<title>ALI1&#45;&gt;ALI1Met3</title>
<path fill="none" stroke="black" d="M459.12,-429.92C452.32,-392.92 436.75,-308.32 428.62,-264.09"/>
<polygon fill="black" stroke="black" points="432.02,-263.23 426.77,-254.03 425.13,-264.5 432.02,-263.23"/>
<text text-anchor="middle" x="465.95" y="-320.3" font-family="Times,serif" font-size="14.00">_J25</text>
</g>
<!-- ALiver -->
<g id="node14" class="node">
<title>ALiver</title>
<g id="a_node14"><a xlink:href="#species-ALiver" xlink:title="ALiver&#10;[PBPKO:00497]">
<path fill="gold" stroke="black" d="M1673.95,-343C1673.95,-343 1584.95,-343 1584.95,-343 1578.95,-343 1572.95,-337 1572.95,-331 1572.95,-331 1572.95,-317 1572.95,-317 1572.95,-311 1578.95,-305 1584.95,-305 1584.95,-305 1673.95,-305 1673.95,-305 1679.95,-305 1685.95,-311 1685.95,-317 1685.95,-317 1685.95,-331 1685.95,-331 1685.95,-337 1679.95,-343 1673.95,-343"/>
<text text-anchor="middle" x="1629.45" y="-327.8" font-family="Arial" font-size="14.00">ALiver</text>
<text text-anchor="middle" x="1629.45" y="-312.8" font-family="Arial" font-size="14.00">[PBPKO:00497]</text>
</a>
</g>
</g>
<!-- ALI1&#45;&gt;ALiver -->
<g id="edge18" class="edge">
<title>ALI1&#45;&gt;ALiver</title>
<path fill="none" stroke="black" d="M489.9,-443.64C556.04,-433.35 729.53,-407.68 875.45,-397.5 982.54,-390.03 1251.93,-402.36 1358.45,-389 1429.23,-380.12 1508.46,-360.22 1562.87,-344.94"/>
<polygon fill="black" stroke="black" points="1564.07,-348.24 1572.74,-342.15 1562.16,-341.51 1564.07,-348.24"/>
<text text-anchor="middle" x="890.95" y="-401.3" font-family="Times,serif" font-size="14.00">_J15</text>
</g>
<!-- AFeaces -->
<g id="node20" class="node">
<title>AFeaces</title>
<g id="a_node20"><a xlink:href="#species-AFeaces" xlink:title="AFeaces&#10;[PBPKO:00273]">
<path fill="gold" stroke="black" d="M700.95,-129C700.95,-129 611.95,-129 611.95,-129 605.95,-129 599.95,-123 599.95,-117 599.95,-117 599.95,-103 599.95,-103 599.95,-97 605.95,-91 611.95,-91 611.95,-91 700.95,-91 700.95,-91 706.95,-91 712.95,-97 712.95,-103 712.95,-103 712.95,-117 712.95,-117 712.95,-123 706.95,-129 700.95,-129"/>
<text text-anchor="middle" x="656.45" y="-113.8" font-family="Arial" font-size="14.00">AFeaces</text>
<text text-anchor="middle" x="656.45" y="-98.8" font-family="Arial" font-size="14.00">[PBPKO:00273]</text>
</a>
</g>
</g>
<!-- ALI1&#45;&gt;AFeaces -->
<g id="edge19" class="edge">
<title>ALI1&#45;&gt;AFeaces</title>
<path fill="none" stroke="black" d="M472.88,-429.88C504.99,-374.11 602.46,-204.78 640.76,-138.25"/>
<polygon fill="black" stroke="black" points="644.01,-139.62 645.97,-129.21 637.94,-136.13 644.01,-139.62"/>
<text text-anchor="middle" x="576.95" y="-276.3" font-family="Times,serif" font-size="14.00">_J16</text>
</g>
<!-- ASITissueMet1 -->
<g id="node13" class="node">
<title>ASITissueMet1</title>
<g id="a_node13"><a xlink:href="#species-ASITissueMet1" xlink:title="ASITissueMet1&#10;[&#45;]">
<path fill="gold" stroke="black" d="M1174.95,-343C1174.95,-343 1089.95,-343 1089.95,-343 1083.95,-343 1077.95,-337 1077.95,-331 1077.95,-331 1077.95,-317 1077.95,-317 1077.95,-311 1083.95,-305 1089.95,-305 1089.95,-305 1174.95,-305 1174.95,-305 1180.95,-305 1186.95,-311 1186.95,-317 1186.95,-317 1186.95,-331 1186.95,-331 1186.95,-337 1180.95,-343 1174.95,-343"/>
<text text-anchor="middle" x="1132.45" y="-327.8" font-family="Arial" font-size="14.00">ASITissueMet1</text>
<text text-anchor="middle" x="1132.45" y="-312.8" font-family="Arial" font-size="14.00">[&#45;]</text>
</a>
</g>
</g>
<!-- ASITissue&#45;&gt;ASITissueMet1 -->
<g id="edge20" class="edge">
<title>ASITissue&#45;&gt;ASITissueMet1</title>
<path fill="none" stroke="black" d="M1165.69,-429.85C1159.27,-409.59 1148.8,-376.57 1141.33,-353"/>
<polygon fill="black" stroke="black" points="1144.59,-351.7 1138.23,-343.22 1137.91,-353.81 1144.59,-351.7"/>
<text text-anchor="middle" x="1174.95" y="-401.3" font-family="Times,serif" font-size="14.00">_J23</text>
</g>
<!-- ASITissue&#45;&gt;ALiver -->
<g id="edge21" class="edge">
<title>ASITissue&#45;&gt;ALiver</title>
<path fill="none" stroke="black" d="M1210.5,-437.51C1288.93,-416.45 1466.35,-368.8 1563.25,-342.78"/>
<polygon fill="black" stroke="black" points="1564.19,-346.15 1572.94,-340.18 1562.37,-339.39 1564.19,-346.15"/>
<text text-anchor="middle" x="1373.95" y="-401.3" font-family="Times,serif" font-size="14.00">_J17</text>
</g>
<!-- ALiverMet2 -->
<g id="node15" class="node">
<title>ALiverMet2</title>
<g id="a_node15"><a xlink:href="#species-ALiverMet2" xlink:title="ALiverMet2&#10;[PBPKO:00497]">
<path fill="gold" stroke="black" d="M1963.95,-254C1963.95,-254 1874.95,-254 1874.95,-254 1868.95,-254 1862.95,-248 1862.95,-242 1862.95,-242 1862.95,-228 1862.95,-228 1862.95,-222 1868.95,-216 1874.95,-216 1874.95,-216 1963.95,-216 1963.95,-216 1969.95,-216 1975.95,-222 1975.95,-228 1975.95,-228 1975.95,-242 1975.95,-242 1975.95,-248 1969.95,-254 1963.95,-254"/>
<text text-anchor="middle" x="1919.45" y="-238.8" font-family="Arial" font-size="14.00">ALiverMet2</text>
<text text-anchor="middle" x="1919.45" y="-223.8" font-family="Arial" font-size="14.00">[PBPKO:00497]</text>
</a>
</g>
</g>
<!-- ALiver&#45;&gt;ALiverMet2 -->
<g id="edge22" class="edge">
<title>ALiver&#45;&gt;ALiverMet2</title>
<path fill="none" stroke="black" d="M1686.05,-306.02C1733.8,-291.69 1802.24,-271.16 1852.66,-256.04"/>
<polygon fill="black" stroke="black" points="1853.92,-259.31 1862.49,-253.09 1851.91,-252.61 1853.92,-259.31"/>
<text text-anchor="middle" x="1806.95" y="-276.3" font-family="Times,serif" font-size="14.00">_J26</text>
</g>
<!-- ALiverMet3 -->
<g id="node16" class="node">
<title>ALiverMet3</title>
<g id="a_node16"><a xlink:href="#species-ALiverMet3" xlink:title="ALiverMet3&#10;[PBPKO:00497]">
<path fill="gold" stroke="black" d="M1656.95,-129C1656.95,-129 1567.95,-129 1567.95,-129 1561.95,-129 1555.95,-123 1555.95,-117 1555.95,-117 1555.95,-103 1555.95,-103 1555.95,-97 1561.95,-91 1567.95,-91 1567.95,-91 1656.95,-91 1656.95,-91 1662.95,-91 1668.95,-97 1668.95,-103 1668.95,-103 1668.95,-117 1668.95,-117 1668.95,-123 1662.95,-129 1656.95,-129"/>
<text text-anchor="middle" x="1612.45" y="-113.8" font-family="Arial" font-size="14.00">ALiverMet3</text>
<text text-anchor="middle" x="1612.45" y="-98.8" font-family="Arial" font-size="14.00">[PBPKO:00497]</text>
</a>
</g>
</g>
<!-- ALiver&#45;&gt;ALiverMet3 -->
<g id="edge23" class="edge">
<title>ALiver&#45;&gt;ALiverMet3</title>
<path fill="none" stroke="black" d="M1624.87,-304.98C1621.58,-291.14 1617.39,-271.49 1615.45,-254 1611.05,-214.39 1610.99,-168.24 1611.55,-139.32"/>
<polygon fill="black" stroke="black" points="1615.06,-139.21 1611.79,-129.13 1608.06,-139.04 1615.06,-139.21"/>
<text text-anchor="middle" x="1630.95" y="-231.3" font-family="Times,serif" font-size="14.00">_J27</text>
</g>
<!-- ALiverMet1 -->
<g id="node17" class="node">
<title>ALiverMet1</title>
<g id="a_node17"><a xlink:href="#species-ALiverMet1" xlink:title="ALiverMet1&#10;[PBPKO:00497]">
<path fill="gold" stroke="black" d="M1924.95,-54C1924.95,-54 1835.95,-54 1835.95,-54 1829.95,-54 1823.95,-48 1823.95,-42 1823.95,-42 1823.95,-28 1823.95,-28 1823.95,-22 1829.95,-16 1835.95,-16 1835.95,-16 1924.95,-16 1924.95,-16 1930.95,-16 1936.95,-22 1936.95,-28 1936.95,-28 1936.95,-42 1936.95,-42 1936.95,-48 1930.95,-54 1924.95,-54"/>
<text text-anchor="middle" x="1880.45" y="-38.8" font-family="Arial" font-size="14.00">ALiverMet1</text>
<text text-anchor="middle" x="1880.45" y="-23.8" font-family="Arial" font-size="14.00">[PBPKO:00497]</text>
</a>
</g>
</g>
<!-- ALiver&#45;&gt;ALiverMet1 -->
<g id="edge24" class="edge">
<title>ALiver&#45;&gt;ALiverMet1</title>
<path fill="none" stroke="black" d="M1645.53,-304.61C1688.74,-255.2 1807.47,-119.45 1857.62,-62.11"/>
<polygon fill="black" stroke="black" points="1860.55,-64.07 1864.5,-54.24 1855.28,-59.46 1860.55,-64.07"/>
<text text-anchor="middle" x="1765.95" y="-187.3" font-family="Times,serif" font-size="14.00">_J28</text>
</g>
<!-- ABlood -->
<g id="node18" class="node">
<title>ABlood</title>
<g id="a_node18"><a xlink:href="#species-ABlood" xlink:title="ABlood&#10;[PBPKO:00623]">
<path fill="gold" stroke="black" d="M1864.95,-468C1864.95,-468 1775.95,-468 1775.95,-468 1769.95,-468 1763.95,-462 1763.95,-456 1763.95,-456 1763.95,-442 1763.95,-442 1763.95,-436 1769.95,-430 1775.95,-430 1775.95,-430 1864.95,-430 1864.95,-430 1870.95,-430 1876.95,-436 1876.95,-442 1876.95,-442 1876.95,-456 1876.95,-456 1876.95,-462 1870.95,-468 1864.95,-468"/>
<text text-anchor="middle" x="1820.45" y="-452.8" font-family="Arial" font-size="14.00">ABlood</text>
<text text-anchor="middle" x="1820.45" y="-437.8" font-family="Arial" font-size="14.00">[PBPKO:00623]</text>
</a>
</g>
</g>
<!-- ALiver&#45;&gt;ABlood -->
<g id="edge25" class="edge">
<title>ALiver&#45;&gt;ABlood</title>
<path fill="none" stroke="black" d="M1657.44,-343.02C1690.88,-364.56 1746.92,-400.65 1783.79,-424.39"/>
<polygon fill="black" stroke="black" points="1781.96,-427.38 1792.27,-429.85 1785.75,-421.49 1781.96,-427.38"/>
<text text-anchor="middle" x="1778.95" y="-401.3" font-family="Times,serif" font-size="14.00">_J20</text>
</g>
<!-- ABlood&#45;&gt;ASITissue -->
<g id="edge26" class="edge">
<title>ABlood&#45;&gt;ASITissue</title>
<path fill="none" stroke="black" d="M1763.83,-449C1638.45,-449 1339.12,-449 1220.79,-449"/>
<polygon fill="black" stroke="black" points="1220.59,-445.5 1210.59,-449 1220.59,-452.5 1220.59,-445.5"/>
<text text-anchor="middle" x="1487.2" y="-455.8" font-family="Times,serif" font-size="14.00">_J18</text>
</g>
<!-- ABlood&#45;&gt;ALiver -->
<g id="edge27" class="edge">
<title>ABlood&#45;&gt;ALiver</title>
<path fill="none" stroke="black" d="M1763.83,-436.92C1744.61,-431.51 1723.67,-423.67 1706.45,-412.5 1682.01,-396.65 1660.71,-370.95 1646.74,-351.5"/>
<polygon fill="black" stroke="black" points="1649.45,-349.26 1640.86,-343.06 1643.71,-353.27 1649.45,-349.26"/>
<text text-anchor="middle" x="1721.95" y="-401.3" font-family="Times,serif" font-size="14.00">_J19</text>
</g>
<!-- ARest -->
<g id="node19" class="node">
<title>ARest</title>
<g id="a_node19"><a xlink:href="#species-ARest" xlink:title="ARest&#10;[PBPKO:00501]">
<path fill="gold" stroke="black" d="M2450.95,-343C2450.95,-343 2361.95,-343 2361.95,-343 2355.95,-343 2349.95,-337 2349.95,-331 2349.95,-331 2349.95,-317 2349.95,-317 2349.95,-311 2355.95,-305 2361.95,-305 2361.95,-305 2450.95,-305 2450.95,-305 2456.95,-305 2462.95,-311 2462.95,-317 2462.95,-317 2462.95,-331 2462.95,-331 2462.95,-337 2456.95,-343 2450.95,-343"/>
<text text-anchor="middle" x="2406.45" y="-327.8" font-family="Arial" font-size="14.00">ARest</text>
<text text-anchor="middle" x="2406.45" y="-312.8" font-family="Arial" font-size="14.00">[PBPKO:00501]</text>
</a>
</g>
</g>
<!-- ABlood&#45;&gt;ARest -->
<g id="edge28" class="edge">
<title>ABlood&#45;&gt;ARest</title>
<path fill="none" stroke="black" d="M1877.08,-439.19C1943.36,-428.59 2056.29,-409.63 2152.45,-389 2216.43,-375.27 2288.75,-356.75 2339.8,-343.17"/>
<polygon fill="black" stroke="black" points="2340.96,-346.48 2349.72,-340.52 2339.16,-339.72 2340.96,-346.48"/>
<text text-anchor="middle" x="2122.95" y="-401.3" font-family="Times,serif" font-size="14.00">_J21</text>
</g>
<!-- ARest&#45;&gt;ABlood -->
<g id="edge29" class="edge">
<title>ARest&#45;&gt;ABlood</title>
<path fill="none" stroke="black" d="M2361.48,-343.14C2309.57,-363.31 2221.23,-395.3 2142.45,-412.5 2055.48,-431.49 1952.96,-440.57 1887.36,-444.73"/>
<polygon fill="black" stroke="black" points="1886.93,-441.25 1877.16,-445.36 1887.36,-448.24 1886.93,-441.25"/>
<text text-anchor="middle" x="2216.95" y="-401.3" font-family="Times,serif" font-size="14.00">_J22</text>
</g>
</g>
</svg>
