<?xml version="1.0" encoding="UTF-8" standalone="no"?>
<!DOCTYPE svg PUBLIC "-//W3C//DTD SVG 1.1//EN"
 "http://www.w3.org/Graphics/SVG/1.1/DTD/svg11.dtd">
<!-- Generated by graphviz version 2.43.0 (0)
 -->
<!-- Title: %3 Pages: 1 -->
<svg width="504pt" height="257pt"
 viewBox="0.00 0.00 504.00 256.50" xmlns="http://www.w3.org/2000/svg" xmlns:xlink="http://www.w3.org/1999/xlink">
<g id="graph0" class="graph" transform="scale(0.24 0.24) rotate(0) translate(4 1069)">
<title>%3</title>
<polygon fill="white" stroke="transparent" points="-4,4 -4,-1069 2104.35,-1069 2104.35,4 -4,4"/>
<g id="clust1" class="cluster">
<title>cluster_Lumen</title>
<g id="a_clust1"><a xlink:href="#compartment-Lumen" xlink:title="Lumen&#10;[PBPKO:00478]">
<path fill="lightblue" stroke="black" d="M42.26,-764C42.26,-764 296.61,-764 296.61,-764 302.61,-764 308.61,-770 308.61,-776 308.61,-776 308.61,-882 308.61,-882 308.61,-888 302.61,-894 296.61,-894 296.61,-894 42.26,-894 42.26,-894 36.26,-894 30.26,-888 30.26,-882 30.26,-882 30.26,-776 30.26,-776 30.26,-770 36.26,-764 42.26,-764"/>
<text text-anchor="middle" x="169.43" y="-878.8" font-family="Arial" font-size="14.00">Lumen</text>
<text text-anchor="middle" x="169.43" y="-863.8" font-family="Arial" font-size="14.00">[PBPKO:00478]</text>
</a>
</g>
</g>
<g id="clust2" class="cluster">
<title>cluster_Gut</title>
<g id="a_clust2"><a xlink:href="#compartment-Gut" xlink:title="Gut&#10;[PBPKO:00477]">
<path fill="lightblue" stroke="black" d="M21.68,-601C21.68,-601 630.63,-601 630.63,-601 636.63,-601 642.63,-607 642.63,-613 642.63,-613 642.63,-719 642.63,-719 642.63,-725 636.63,-731 630.63,-731 630.63,-731 21.68,-731 21.68,-731 15.68,-731 9.68,-725 9.68,-719 9.68,-719 9.68,-613 9.68,-613 9.68,-607 15.68,-601 21.68,-601"/>
<text text-anchor="middle" x="326.16" y="-715.8" font-family="Arial" font-size="14.00">Gut</text>
<text text-anchor="middle" x="326.16" y="-700.8" font-family="Arial" font-size="14.00">[PBPKO:00477]</text>
</a>
</g>
</g>
<g id="clust3" class="cluster">
<title>cluster_Liver</title>
<g id="a_clust3"><a xlink:href="#compartment-Liver" xlink:title="Liver&#10;[PBPKO:00558]">
<path fill="lightblue" stroke="black" d="M664.31,-171C664.31,-171 1111.09,-171 1111.09,-171 1117.09,-171 1123.09,-177 1123.09,-183 1123.09,-183 1123.09,-719 1123.09,-719 1123.09,-725 1117.09,-731 1111.09,-731 1111.09,-731 664.31,-731 664.31,-731 658.31,-731 652.31,-725 652.31,-719 652.31,-719 652.31,-183 652.31,-183 652.31,-177 658.31,-171 664.31,-171"/>
<text text-anchor="middle" x="887.7" y="-715.8" font-family="Arial" font-size="14.00">Liver</text>
<text text-anchor="middle" x="887.7" y="-700.8" font-family="Arial" font-size="14.00">[PBPKO:00558]</text>
</a>
</g>
</g>
<g id="clust4" class="cluster">
<title>cluster_Lung</title>
<g id="a_clust4"><a xlink:href="#compartment-Lung" xlink:title="Lung&#10;[PBPKO:00559]">
<path fill="lightblue" stroke="black" d="M1223.44,-764C1223.44,-764 1842.07,-764 1842.07,-764 1848.07,-764 1854.07,-770 1854.07,-776 1854.07,-776 1854.07,-1045 1854.07,-1045 1854.07,-1051 1848.07,-1057 1842.07,-1057 1842.07,-1057 1223.44,-1057 1223.44,-1057 1217.44,-1057 1211.44,-1051 1211.44,-1045 1211.44,-1045 1211.44,-776 1211.44,-776 1211.44,-770 1217.44,-764 1223.44,-764"/>
<text text-anchor="middle" x="1532.75" y="-1041.8" font-family="Arial" font-size="14.00">Lung</text>
<text text-anchor="middle" x="1532.75" y="-1026.8" font-family="Arial" font-size="14.00">[PBPKO:00559]</text>
</a>
</g>
</g>
<g id="clust5" class="cluster">
<title>cluster_Arterial</title>
<g id="a_clust5"><a xlink:href="#compartment-Arterial" xlink:title="Arterial&#10;[PBPKO:00552]">
<path fill="lightblue" stroke="black" d="M580.81,-764C580.81,-764 1189.76,-764 1189.76,-764 1195.76,-764 1201.76,-770 1201.76,-776 1201.76,-776 1201.76,-882 1201.76,-882 1201.76,-888 1195.76,-894 1189.76,-894 1189.76,-894 580.81,-894 580.81,-894 574.81,-894 568.81,-888 568.81,-882 568.81,-882 568.81,-776 568.81,-776 568.81,-770 574.81,-764 580.81,-764"/>
<text text-anchor="middle" x="885.28" y="-878.8" font-family="Arial" font-size="14.00">Arterial</text>
<text text-anchor="middle" x="885.28" y="-863.8" font-family="Arial" font-size="14.00">[PBPKO:00552]</text>
</a>
</g>
</g>
<g id="clust6" class="cluster">
<title>cluster_Venous</title>
<g id="a_clust6"><a xlink:href="#compartment-Venous" xlink:title="Venous&#10;[PBPKO:00561]">
<path fill="lightblue" stroke="black" d="M1170.19,-438C1170.19,-438 1779.14,-438 1779.14,-438 1785.14,-438 1791.14,-444 1791.14,-450 1791.14,-450 1791.14,-556 1791.14,-556 1791.14,-562 1785.14,-568 1779.14,-568 1779.14,-568 1170.19,-568 1170.19,-568 1164.19,-568 1158.19,-562 1158.19,-556 1158.19,-556 1158.19,-450 1158.19,-450 1158.19,-444 1164.19,-438 1170.19,-438"/>
<text text-anchor="middle" x="1474.66" y="-552.8" font-family="Arial" font-size="14.00">Venous</text>
<text text-anchor="middle" x="1474.66" y="-537.8" font-family="Arial" font-size="14.00">[PBPKO:00561]</text>
</a>
</g>
</g>
<g id="clust7" class="cluster">
<title>cluster_Rest</title>
<g id="a_clust7"><a xlink:href="#compartment-Rest" xlink:title="Rest&#10;[PBPKO:00450]">
<path fill="lightblue" stroke="black" d="M1150.82,-601C1150.82,-601 1759.77,-601 1759.77,-601 1765.77,-601 1771.77,-607 1771.77,-613 1771.77,-613 1771.77,-719 1771.77,-719 1771.77,-725 1765.77,-731 1759.77,-731 1759.77,-731 1150.82,-731 1150.82,-731 1144.82,-731 1138.82,-725 1138.82,-719 1138.82,-719 1138.82,-613 1138.82,-613 1138.82,-607 1144.82,-601 1150.82,-601"/>
<text text-anchor="middle" x="1455.3" y="-715.8" font-family="Arial" font-size="14.00">Rest</text>
<text text-anchor="middle" x="1455.3" y="-700.8" font-family="Arial" font-size="14.00">[PBPKO:00450]</text>
</a>
</g>
</g>
<g id="clust8" class="cluster">
<title>cluster_Urine</title>
<g id="a_clust8"><a xlink:href="#compartment-Urine" xlink:title="Urine&#10;[PBPKO:00556]">
<path fill="lightblue" stroke="black" d="M1205.28,-8C1205.28,-8 1497.15,-8 1497.15,-8 1503.15,-8 1509.15,-14 1509.15,-20 1509.15,-20 1509.15,-126 1509.15,-126 1509.15,-132 1503.15,-138 1497.15,-138 1497.15,-138 1205.28,-138 1205.28,-138 1199.28,-138 1193.28,-132 1193.28,-126 1193.28,-126 1193.28,-20 1193.28,-20 1193.28,-14 1199.28,-8 1205.28,-8"/>
<text text-anchor="middle" x="1351.22" y="-122.8" font-family="Arial" font-size="14.00">Urine</text>
<text text-anchor="middle" x="1351.22" y="-107.8" font-family="Arial" font-size="14.00">[PBPKO:00556]</text>
</a>
</g>
</g>
<!-- ALumen_As3 -->
<g id="node1" class="node">
<title>ALumen_As3</title>
<g id="a_node1"><a xlink:href="#species-ALumen_As3" xlink:title="ALumen_As3&#10;[&#45;]">
<path fill="gold" stroke="black" d="M276.35,-810C276.35,-810 202.35,-810 202.35,-810 196.35,-810 190.35,-804 190.35,-798 190.35,-798 190.35,-784 190.35,-784 190.35,-778 196.35,-772 202.35,-772 202.35,-772 276.35,-772 276.35,-772 282.35,-772 288.35,-778 288.35,-784 288.35,-784 288.35,-798 288.35,-798 288.35,-804 282.35,-810 276.35,-810"/>
<text text-anchor="middle" x="239.35" y="-794.8" font-family="Arial" font-size="14.00">ALumen_As3</text>
<text text-anchor="middle" x="239.35" y="-779.8" font-family="Arial" font-size="14.00">[&#45;]</text>
</a>
</g>
</g>
<!-- AGut_As3 -->
<g id="node3" class="node">
<title>AGut_As3</title>
<g id="a_node3"><a xlink:href="#species-AGut_As3" xlink:title="AGut_As3&#10;[PBPKO:00496]">
<path fill="gold" stroke="black" d="M291.85,-647C291.85,-647 202.85,-647 202.85,-647 196.85,-647 190.85,-641 190.85,-635 190.85,-635 190.85,-621 190.85,-621 190.85,-615 196.85,-609 202.85,-609 202.85,-609 291.85,-609 291.85,-609 297.85,-609 303.85,-615 303.85,-621 303.85,-621 303.85,-635 303.85,-635 303.85,-641 297.85,-647 291.85,-647"/>
<text text-anchor="middle" x="247.35" y="-631.8" font-family="Arial" font-size="14.00">AGut_As3</text>
<text text-anchor="middle" x="247.35" y="-616.8" font-family="Arial" font-size="14.00">[PBPKO:00496]</text>
</a>
</g>
</g>
<!-- ALumen_As3&#45;&gt;AGut_As3 -->
<g id="edge1" class="edge">
<title>ALumen_As3&#45;&gt;AGut_As3</title>
<path fill="none" stroke="black" d="M240.25,-771.84C241.63,-744.06 244.28,-690.76 245.92,-657.7"/>
<polygon fill="black" stroke="black" points="249.43,-657.5 246.44,-647.34 242.44,-657.15 249.43,-657.5"/>
<text text-anchor="middle" x="253.35" y="-743.3" font-family="Times,serif" font-size="14.00">_J0</text>
</g>
<!-- ALumen_As5 -->
<g id="node2" class="node">
<title>ALumen_As5</title>
<g id="a_node2"><a xlink:href="#species-ALumen_As5" xlink:title="ALumen_As5&#10;[&#45;]">
<path fill="gold" stroke="black" d="M136.35,-810C136.35,-810 62.35,-810 62.35,-810 56.35,-810 50.35,-804 50.35,-798 50.35,-798 50.35,-784 50.35,-784 50.35,-778 56.35,-772 62.35,-772 62.35,-772 136.35,-772 136.35,-772 142.35,-772 148.35,-778 148.35,-784 148.35,-784 148.35,-798 148.35,-798 148.35,-804 142.35,-810 136.35,-810"/>
<text text-anchor="middle" x="99.35" y="-794.8" font-family="Arial" font-size="14.00">ALumen_As5</text>
<text text-anchor="middle" x="99.35" y="-779.8" font-family="Arial" font-size="14.00">[&#45;]</text>
</a>
</g>
</g>
<!-- AGut_As5 -->
<g id="node4" class="node">
<title>AGut_As5</title>
<g id="a_node4"><a xlink:href="#species-AGut_As5" xlink:title="AGut_As5&#10;[PBPKO:00496]">
<path fill="gold" stroke="black" d="M132.85,-647C132.85,-647 43.85,-647 43.85,-647 37.85,-647 31.85,-641 31.85,-635 31.85,-635 31.85,-621 31.85,-621 31.85,-615 37.85,-609 43.85,-609 43.85,-609 132.85,-609 132.85,-609 138.85,-609 144.85,-615 144.85,-621 144.85,-621 144.85,-635 144.85,-635 144.85,-641 138.85,-647 132.85,-647"/>
<text text-anchor="middle" x="88.35" y="-631.8" font-family="Arial" font-size="14.00">AGut_As5</text>
<text text-anchor="middle" x="88.35" y="-616.8" font-family="Arial" font-size="14.00">[PBPKO:00496]</text>
</a>
</g>
</g>
<!-- ALumen_As5&#45;&gt;AGut_As5 -->
<g id="edge2" class="edge">
<title>ALumen_As5&#45;&gt;AGut_As5</title>
<path fill="none" stroke="black" d="M98.11,-771.84C96.21,-744.06 92.57,-690.76 90.31,-657.7"/>
<polygon fill="black" stroke="black" points="93.77,-657.07 89.6,-647.34 86.79,-657.55 93.77,-657.07"/>
<text text-anchor="middle" x="108.35" y="-743.3" font-family="Times,serif" font-size="14.00">_J1</text>
</g>
<!-- ALiver_As3 -->
<g id="node7" class="node">
<title>ALiver_As3</title>
<g id="a_node7"><a xlink:href="#species-ALiver_As3" xlink:title="ALiver_As3&#10;[PBPKO:00497]">
<path fill="gold" stroke="black" d="M1055.85,-647C1055.85,-647 966.85,-647 966.85,-647 960.85,-647 954.85,-641 954.85,-635 954.85,-635 954.85,-621 954.85,-621 954.85,-615 960.85,-609 966.85,-609 966.85,-609 1055.85,-609 1055.85,-609 1061.85,-609 1067.85,-615 1067.85,-621 1067.85,-621 1067.85,-635 1067.85,-635 1067.85,-641 1061.85,-647 1055.85,-647"/>
<text text-anchor="middle" x="1011.35" y="-631.8" font-family="Arial" font-size="14.00">ALiver_As3</text>
<text text-anchor="middle" x="1011.35" y="-616.8" font-family="Arial" font-size="14.00">[PBPKO:00497]</text>
</a>
</g>
</g>
<!-- AGut_As3&#45;&gt;ALiver_As3 -->
<g id="edge3" class="edge">
<title>AGut_As3&#45;&gt;ALiver_As3</title>
<path fill="none" stroke="black" d="M259.29,-647.31C274.74,-670.24 304.04,-707.29 340.35,-722.5 432.99,-761.31 693.98,-742.82 792.35,-722.5 857.33,-709.08 926.77,-675.43 969.62,-652.14"/>
<polygon fill="black" stroke="black" points="971.54,-655.08 978.61,-647.19 968.16,-648.95 971.54,-655.08"/>
<text text-anchor="middle" x="909.35" y="-743.3" font-family="Times,serif" font-size="14.00">_J2</text>
</g>
<!-- ALiver_As5 -->
<g id="node8" class="node">
<title>ALiver_As5</title>
<g id="a_node8"><a xlink:href="#species-ALiver_As5" xlink:title="ALiver_As5&#10;[PBPKO:00497]">
<path fill="gold" stroke="black" d="M933.85,-484C933.85,-484 844.85,-484 844.85,-484 838.85,-484 832.85,-478 832.85,-472 832.85,-472 832.85,-458 832.85,-458 832.85,-452 838.85,-446 844.85,-446 844.85,-446 933.85,-446 933.85,-446 939.85,-446 945.85,-452 945.85,-458 945.85,-458 945.85,-472 945.85,-472 945.85,-478 939.85,-484 933.85,-484"/>
<text text-anchor="middle" x="889.35" y="-468.8" font-family="Arial" font-size="14.00">ALiver_As5</text>
<text text-anchor="middle" x="889.35" y="-453.8" font-family="Arial" font-size="14.00">[PBPKO:00497]</text>
</a>
</g>
</g>
<!-- AGut_As5&#45;&gt;ALiver_As5 -->
<g id="edge4" class="edge">
<title>AGut_As5&#45;&gt;ALiver_As5</title>
<path fill="none" stroke="black" d="M145.01,-609.37C156.92,-606.17 169.47,-603.17 181.35,-601 302.49,-578.88 334.4,-583.49 457.35,-576.5 476.21,-575.43 780.18,-575.89 797.35,-568 831.5,-552.3 858.48,-517.26 874.17,-492.65"/>
<polygon fill="black" stroke="black" points="877.16,-494.46 879.43,-484.11 871.2,-490.79 877.16,-494.46"/>
<text text-anchor="middle" x="468.35" y="-580.3" font-family="Times,serif" font-size="14.00">_J3</text>
</g>
<!-- AGut_AsM5 -->
<g id="node5" class="node">
<title>AGut_AsM5</title>
<g id="a_node5"><a xlink:href="#species-AGut_AsM5" xlink:title="AGut_AsM5&#10;[PBPKO:00496]">
<path fill="gold" stroke="black" d="M449.85,-647C449.85,-647 360.85,-647 360.85,-647 354.85,-647 348.85,-641 348.85,-635 348.85,-635 348.85,-621 348.85,-621 348.85,-615 354.85,-609 360.85,-609 360.85,-609 449.85,-609 449.85,-609 455.85,-609 461.85,-615 461.85,-621 461.85,-621 461.85,-635 461.85,-635 461.85,-641 455.85,-647 449.85,-647"/>
<text text-anchor="middle" x="405.35" y="-631.8" font-family="Arial" font-size="14.00">AGut_AsM5</text>
<text text-anchor="middle" x="405.35" y="-616.8" font-family="Arial" font-size="14.00">[PBPKO:00496]</text>
</a>
</g>
</g>
<!-- ALiver_AsM5 -->
<g id="node10" class="node">
<title>ALiver_AsM5</title>
<g id="a_node10"><a xlink:href="#species-ALiver_AsM5" xlink:title="ALiver_AsM5&#10;[PBPKO:00497]">
<path fill="gold" stroke="black" d="M775.85,-484C775.85,-484 686.85,-484 686.85,-484 680.85,-484 674.85,-478 674.85,-472 674.85,-472 674.85,-458 674.85,-458 674.85,-452 680.85,-446 686.85,-446 686.85,-446 775.85,-446 775.85,-446 781.85,-446 787.85,-452 787.85,-458 787.85,-458 787.85,-472 787.85,-472 787.85,-478 781.85,-484 775.85,-484"/>
<text text-anchor="middle" x="731.35" y="-468.8" font-family="Arial" font-size="14.00">ALiver_AsM5</text>
<text text-anchor="middle" x="731.35" y="-453.8" font-family="Arial" font-size="14.00">[PBPKO:00497]</text>
</a>
</g>
</g>
<!-- AGut_AsM5&#45;&gt;ALiver_AsM5 -->
<g id="edge5" class="edge">
<title>AGut_AsM5&#45;&gt;ALiver_AsM5</title>
<path fill="none" stroke="black" d="M441.79,-609C501.5,-579.52 620.02,-520.98 685.39,-488.7"/>
<polygon fill="black" stroke="black" points="687.22,-491.7 694.64,-484.13 684.12,-485.42 687.22,-491.7"/>
<text text-anchor="middle" x="512.35" y="-580.3" font-family="Times,serif" font-size="14.00">_J4</text>
</g>
<!-- AGut_AsD5 -->
<g id="node6" class="node">
<title>AGut_AsD5</title>
<g id="a_node6"><a xlink:href="#species-AGut_AsD5" xlink:title="AGut_AsD5&#10;[PBPKO:00496]">
<path fill="gold" stroke="black" d="M608.85,-647C608.85,-647 519.85,-647 519.85,-647 513.85,-647 507.85,-641 507.85,-635 507.85,-635 507.85,-621 507.85,-621 507.85,-615 513.85,-609 519.85,-609 519.85,-609 608.85,-609 608.85,-609 614.85,-609 620.85,-615 620.85,-621 620.85,-621 620.85,-635 620.85,-635 620.85,-641 614.85,-647 608.85,-647"/>
<text text-anchor="middle" x="564.35" y="-631.8" font-family="Arial" font-size="14.00">AGut_AsD5</text>
<text text-anchor="middle" x="564.35" y="-616.8" font-family="Arial" font-size="14.00">[PBPKO:00496]</text>
</a>
</g>
</g>
<!-- ALiver_AsD5 -->
<g id="node12" class="node">
<title>ALiver_AsD5</title>
<g id="a_node12"><a xlink:href="#species-ALiver_AsD5" xlink:title="ALiver_AsD5&#10;[PBPKO:00497]">
<path fill="gold" stroke="black" d="M1088.85,-306C1088.85,-306 999.85,-306 999.85,-306 993.85,-306 987.85,-300 987.85,-294 987.85,-294 987.85,-280 987.85,-280 987.85,-274 993.85,-268 999.85,-268 999.85,-268 1088.85,-268 1088.85,-268 1094.85,-268 1100.85,-274 1100.85,-280 1100.85,-280 1100.85,-294 1100.85,-294 1100.85,-300 1094.85,-306 1088.85,-306"/>
<text text-anchor="middle" x="1044.35" y="-290.8" font-family="Arial" font-size="14.00">ALiver_AsD5</text>
<text text-anchor="middle" x="1044.35" y="-275.8" font-family="Arial" font-size="14.00">[PBPKO:00497]</text>
</a>
</g>
</g>
<!-- AGut_AsD5&#45;&gt;ALiver_AsD5 -->
<g id="edge6" class="edge">
<title>AGut_AsD5&#45;&gt;ALiver_AsD5</title>
<path fill="none" stroke="black" d="M569.92,-608.77C581.98,-572.05 613.7,-488.42 666.35,-438 754.21,-353.86 895.05,-315.03 977.74,-298.63"/>
<polygon fill="black" stroke="black" points="978.62,-302.03 987.78,-296.7 977.3,-295.15 978.62,-302.03"/>
<text text-anchor="middle" x="702.35" y="-417.3" font-family="Times,serif" font-size="14.00">_J5</text>
</g>
<!-- ALiver_As3&#45;&gt;ALiver_As5 -->
<g id="edge7" class="edge">
<title>ALiver_As3&#45;&gt;ALiver_As5</title>
<path fill="none" stroke="black" d="M954.66,-618.33C924.37,-612.41 891.46,-603.46 882.35,-591.5 861.14,-563.67 869.24,-521.48 878.26,-493.83"/>
<polygon fill="black" stroke="black" points="881.57,-494.95 881.57,-484.35 874.97,-492.64 881.57,-494.95"/>
<text text-anchor="middle" x="897.85" y="-580.3" font-family="Times,serif" font-size="14.00">_J18</text>
</g>
<!-- ALiver_As3&#45;&gt;ALiver_AsM5 -->
<g id="edge8" class="edge">
<title>ALiver_As3&#45;&gt;ALiver_AsM5</title>
<path fill="none" stroke="black" d="M954.63,-624.69C919.12,-621.08 873.59,-612.32 838.35,-591.5 797.64,-567.45 764.93,-522.21 746.83,-493.12"/>
<polygon fill="black" stroke="black" points="749.66,-491.03 741.48,-484.29 743.67,-494.66 749.66,-491.03"/>
<text text-anchor="middle" x="853.85" y="-580.3" font-family="Times,serif" font-size="14.00">_J20</text>
</g>
<!-- ALiver_As3&#45;&gt;ALiver_AsD5 -->
<g id="edge9" class="edge">
<title>ALiver_As3&#45;&gt;ALiver_AsD5</title>
<path fill="none" stroke="black" d="M1067.89,-617.69C1082.47,-612.45 1096.52,-604.27 1105.35,-591.5 1109.14,-586.02 1108.97,-582.09 1105.35,-576.5 1100.32,-568.74 1091.99,-575.33 1086.35,-568 1047.98,-518.23 1072.67,-490.64 1063.35,-428.5 1057.52,-389.65 1051.57,-344.63 1047.92,-316.23"/>
<polygon fill="black" stroke="black" points="1051.38,-315.69 1046.64,-306.21 1044.44,-316.57 1051.38,-315.69"/>
<text text-anchor="middle" x="1078.85" y="-417.3" font-family="Times,serif" font-size="14.00">_J21</text>
</g>
<!-- AVenous_As3 -->
<g id="node23" class="node">
<title>AVenous_As3</title>
<g id="a_node23"><a xlink:href="#species-AVenous_As3" xlink:title="AVenous_As3&#10;[PBPKO:00632]">
<path fill="gold" stroke="black" d="M1439.85,-484C1439.85,-484 1350.85,-484 1350.85,-484 1344.85,-484 1338.85,-478 1338.85,-472 1338.85,-472 1338.85,-458 1338.85,-458 1338.85,-452 1344.85,-446 1350.85,-446 1350.85,-446 1439.85,-446 1439.85,-446 1445.85,-446 1451.85,-452 1451.85,-458 1451.85,-458 1451.85,-472 1451.85,-472 1451.85,-478 1445.85,-484 1439.85,-484"/>
<text text-anchor="middle" x="1395.35" y="-468.8" font-family="Arial" font-size="14.00">AVenous_As3</text>
<text text-anchor="middle" x="1395.35" y="-453.8" font-family="Arial" font-size="14.00">[PBPKO:00632]</text>
</a>
</g>
</g>
<!-- ALiver_As3&#45;&gt;AVenous_As3 -->
<g id="edge10" class="edge">
<title>ALiver_As3&#45;&gt;AVenous_As3</title>
<path fill="none" stroke="black" d="M1063.13,-608.97C1097.61,-597.74 1144.17,-584.03 1186.35,-576.5 1212.01,-571.92 1279.93,-579.45 1303.35,-568 1336.78,-551.65 1363.64,-517.33 1379.52,-493.02"/>
<polygon fill="black" stroke="black" points="1382.67,-494.58 1385.06,-484.26 1376.76,-490.84 1382.67,-494.58"/>
<text text-anchor="middle" x="1201.85" y="-580.3" font-family="Times,serif" font-size="14.00">_J12</text>
</g>
<!-- ALiver_As5&#45;&gt;ALiver_As3 -->
<g id="edge11" class="edge">
<title>ALiver_As5&#45;&gt;ALiver_As3</title>
<path fill="none" stroke="black" d="M894.06,-484.22C901.67,-510.6 918.85,-559.75 948.35,-591.5 952.34,-595.8 956.98,-599.72 961.89,-603.24"/>
<polygon fill="black" stroke="black" points="960.08,-606.24 970.36,-608.81 963.92,-600.39 960.08,-606.24"/>
<text text-anchor="middle" x="963.85" y="-580.3" font-family="Times,serif" font-size="14.00">_J19</text>
</g>
<!-- AVenous_As5 -->
<g id="node24" class="node">
<title>AVenous_As5</title>
<g id="a_node24"><a xlink:href="#species-AVenous_As5" xlink:title="AVenous_As5&#10;[PBPKO:00632]">
<path fill="gold" stroke="black" d="M1281.85,-484C1281.85,-484 1192.85,-484 1192.85,-484 1186.85,-484 1180.85,-478 1180.85,-472 1180.85,-472 1180.85,-458 1180.85,-458 1180.85,-452 1186.85,-446 1192.85,-446 1192.85,-446 1281.85,-446 1281.85,-446 1287.85,-446 1293.85,-452 1293.85,-458 1293.85,-458 1293.85,-472 1293.85,-472 1293.85,-478 1287.85,-484 1281.85,-484"/>
<text text-anchor="middle" x="1237.35" y="-468.8" font-family="Arial" font-size="14.00">AVenous_As5</text>
<text text-anchor="middle" x="1237.35" y="-453.8" font-family="Arial" font-size="14.00">[PBPKO:00632]</text>
</a>
</g>
</g>
<!-- ALiver_As5&#45;&gt;AVenous_As5 -->
<g id="edge12" class="edge">
<title>ALiver_As5&#45;&gt;AVenous_As5</title>
<path fill="none" stroke="black" d="M910.23,-484.22C951.49,-519.75 1046.47,-589.47 1127.35,-559.5 1163.46,-546.12 1195.69,-514.99 1215.78,-492.1"/>
<polygon fill="black" stroke="black" points="1218.54,-494.26 1222.37,-484.39 1213.21,-489.72 1218.54,-494.26"/>
<text text-anchor="middle" x="1042.35" y="-580.3" font-family="Times,serif" font-size="14.00">_J13</text>
</g>
<!-- ALiver_AsM3 -->
<g id="node9" class="node">
<title>ALiver_AsM3</title>
<g id="a_node9"><a xlink:href="#species-ALiver_AsM3" xlink:title="ALiver_AsM3&#10;[PBPKO:00497]">
<path fill="gold" stroke="black" d="M942.85,-395C942.85,-395 853.85,-395 853.85,-395 847.85,-395 841.85,-389 841.85,-383 841.85,-383 841.85,-369 841.85,-369 841.85,-363 847.85,-357 853.85,-357 853.85,-357 942.85,-357 942.85,-357 948.85,-357 954.85,-363 954.85,-369 954.85,-369 954.85,-383 954.85,-383 954.85,-389 948.85,-395 942.85,-395"/>
<text text-anchor="middle" x="898.35" y="-379.8" font-family="Arial" font-size="14.00">ALiver_AsM3</text>
<text text-anchor="middle" x="898.35" y="-364.8" font-family="Arial" font-size="14.00">[PBPKO:00497]</text>
</a>
</g>
</g>
<!-- ALiver_AsM3&#45;&gt;ALiver_AsM5 -->
<g id="edge13" class="edge">
<title>ALiver_AsM3&#45;&gt;ALiver_AsM5</title>
<path fill="none" stroke="black" d="M863.79,-395C838.05,-408.41 802.72,-426.82 775.02,-441.25"/>
<polygon fill="black" stroke="black" points="773.2,-438.25 765.95,-445.97 776.43,-444.46 773.2,-438.25"/>
<text text-anchor="middle" x="839.85" y="-417.3" font-family="Times,serif" font-size="14.00">_J22</text>
</g>
<!-- ALiver_AsM3&#45;&gt;ALiver_AsD5 -->
<g id="edge14" class="edge">
<title>ALiver_AsM3&#45;&gt;ALiver_AsD5</title>
<path fill="none" stroke="black" d="M928.6,-356.97C950.82,-343.73 981.19,-325.63 1005.25,-311.3"/>
<polygon fill="black" stroke="black" points="1007.34,-314.13 1014.13,-306 1003.75,-308.12 1007.34,-314.13"/>
<text text-anchor="middle" x="994.85" y="-328.3" font-family="Times,serif" font-size="14.00">_J24</text>
</g>
<!-- AUrine_AsM3 -->
<g id="node31" class="node">
<title>AUrine_AsM3</title>
<g id="a_node31"><a xlink:href="#species-AUrine_AsM3" xlink:title="AUrine_AsM3&#10;[PBPKO:00274]">
<path fill="gold" stroke="black" d="M1316.85,-54C1316.85,-54 1227.85,-54 1227.85,-54 1221.85,-54 1215.85,-48 1215.85,-42 1215.85,-42 1215.85,-28 1215.85,-28 1215.85,-22 1221.85,-16 1227.85,-16 1227.85,-16 1316.85,-16 1316.85,-16 1322.85,-16 1328.85,-22 1328.85,-28 1328.85,-28 1328.85,-42 1328.85,-42 1328.85,-48 1322.85,-54 1316.85,-54"/>
<text text-anchor="middle" x="1272.35" y="-38.8" font-family="Arial" font-size="14.00">AUrine_AsM3</text>
<text text-anchor="middle" x="1272.35" y="-23.8" font-family="Arial" font-size="14.00">[PBPKO:00274]</text>
</a>
</g>
</g>
<!-- ALiver_AsM3&#45;&gt;AUrine_AsM3 -->
<g id="edge15" class="edge">
<title>ALiver_AsM3&#45;&gt;AUrine_AsM3</title>
<path fill="none" stroke="black" d="M900.94,-356.76C907.38,-317.85 927.45,-225.77 979.35,-171 1041.09,-105.84 1140.37,-69.36 1205.98,-51.18"/>
<polygon fill="black" stroke="black" points="1207.07,-54.51 1215.81,-48.52 1205.24,-47.75 1207.07,-54.51"/>
<text text-anchor="middle" x="951.85" y="-239.3" font-family="Times,serif" font-size="14.00">_J49</text>
</g>
<!-- ALiver_AsM5&#45;&gt;ALiver_AsM3 -->
<g id="edge16" class="edge">
<title>ALiver_AsM5&#45;&gt;ALiver_AsM3</title>
<path fill="none" stroke="black" d="M787.89,-448.12C799.92,-444.76 812.55,-441.25 824.35,-438 839.89,-433.72 845.99,-437.52 859.35,-428.5 868.79,-422.13 876.87,-412.71 883.2,-403.66"/>
<polygon fill="black" stroke="black" points="886.17,-405.5 888.7,-395.21 880.31,-401.68 886.17,-405.5"/>
<text text-anchor="middle" x="889.85" y="-417.3" font-family="Times,serif" font-size="14.00">_J23</text>
</g>
<!-- AVenous_AsM5 -->
<g id="node25" class="node">
<title>AVenous_AsM5</title>
<g id="a_node25"><a xlink:href="#species-AVenous_AsM5" xlink:title="AVenous_AsM5&#10;[PBPKO:00632]">
<path fill="gold" stroke="black" d="M1598.85,-484C1598.85,-484 1509.85,-484 1509.85,-484 1503.85,-484 1497.85,-478 1497.85,-472 1497.85,-472 1497.85,-458 1497.85,-458 1497.85,-452 1503.85,-446 1509.85,-446 1509.85,-446 1598.85,-446 1598.85,-446 1604.85,-446 1610.85,-452 1610.85,-458 1610.85,-458 1610.85,-472 1610.85,-472 1610.85,-478 1604.85,-484 1598.85,-484"/>
<text text-anchor="middle" x="1554.35" y="-468.8" font-family="Arial" font-size="14.00">AVenous_AsM5</text>
<text text-anchor="middle" x="1554.35" y="-453.8" font-family="Arial" font-size="14.00">[PBPKO:00632]</text>
</a>
</g>
</g>
<!-- ALiver_AsM5&#45;&gt;AVenous_AsM5 -->
<g id="edge17" class="edge">
<title>ALiver_AsM5&#45;&gt;AVenous_AsM5</title>
<path fill="none" stroke="black" d="M743.29,-484.31C758.74,-507.24 788.04,-544.29 824.35,-559.5 889.63,-586.85 1396.07,-586.85 1461.35,-559.5 1493.54,-546.01 1520.22,-515.35 1536.63,-492.59"/>
<polygon fill="black" stroke="black" points="1539.56,-494.51 1542.4,-484.31 1533.81,-490.51 1539.56,-494.51"/>
<text text-anchor="middle" x="1085.35" y="-580.3" font-family="Times,serif" font-size="14.00">_J15</text>
</g>
<!-- ALiver_AsD3 -->
<g id="node11" class="node">
<title>ALiver_AsD3</title>
<g id="a_node11"><a xlink:href="#species-ALiver_AsD3" xlink:title="ALiver_AsD3&#10;[PBPKO:00497]">
<path fill="gold" stroke="black" d="M1088.85,-217C1088.85,-217 999.85,-217 999.85,-217 993.85,-217 987.85,-211 987.85,-205 987.85,-205 987.85,-191 987.85,-191 987.85,-185 993.85,-179 999.85,-179 999.85,-179 1088.85,-179 1088.85,-179 1094.85,-179 1100.85,-185 1100.85,-191 1100.85,-191 1100.85,-205 1100.85,-205 1100.85,-211 1094.85,-217 1088.85,-217"/>
<text text-anchor="middle" x="1044.35" y="-201.8" font-family="Arial" font-size="14.00">ALiver_AsD3</text>
<text text-anchor="middle" x="1044.35" y="-186.8" font-family="Arial" font-size="14.00">[PBPKO:00497]</text>
</a>
</g>
</g>
<!-- ALiver_AsD3&#45;&gt;ALiver_AsD5 -->
<g id="edge18" class="edge">
<title>ALiver_AsD3&#45;&gt;ALiver_AsD5</title>
<path fill="none" stroke="black" d="M1019.62,-217.1C1014.24,-222.37 1009.29,-228.6 1006.35,-235.5 1002.68,-244.1 1005.67,-252.57 1011.28,-260.04"/>
<polygon fill="black" stroke="black" points="1008.91,-262.64 1018.21,-267.72 1014.1,-257.95 1008.91,-262.64"/>
<text text-anchor="middle" x="1021.85" y="-239.3" font-family="Times,serif" font-size="14.00">_J25</text>
</g>
<!-- AUrine_AsD3 -->
<g id="node32" class="node">
<title>AUrine_AsD3</title>
<g id="a_node32"><a xlink:href="#species-AUrine_AsD3" xlink:title="AUrine_AsD3&#10;[PBPKO:00274]">
<path fill="gold" stroke="black" d="M1474.85,-54C1474.85,-54 1385.85,-54 1385.85,-54 1379.85,-54 1373.85,-48 1373.85,-42 1373.85,-42 1373.85,-28 1373.85,-28 1373.85,-22 1379.85,-16 1385.85,-16 1385.85,-16 1474.85,-16 1474.85,-16 1480.85,-16 1486.85,-22 1486.85,-28 1486.85,-28 1486.85,-42 1486.85,-42 1486.85,-48 1480.85,-54 1474.85,-54"/>
<text text-anchor="middle" x="1430.35" y="-38.8" font-family="Arial" font-size="14.00">AUrine_AsD3</text>
<text text-anchor="middle" x="1430.35" y="-23.8" font-family="Arial" font-size="14.00">[PBPKO:00274]</text>
</a>
</g>
</g>
<!-- ALiver_AsD3&#45;&gt;AUrine_AsD3 -->
<g id="edge19" class="edge">
<title>ALiver_AsD3&#45;&gt;AUrine_AsD3</title>
<path fill="none" stroke="black" d="M1101.09,-196.04C1163.14,-192.72 1263.7,-180.49 1338.35,-138 1370.32,-119.8 1397.17,-86.49 1413.46,-62.89"/>
<polygon fill="black" stroke="black" points="1416.51,-64.63 1419.18,-54.37 1410.7,-60.73 1416.51,-64.63"/>
<text text-anchor="middle" x="1331.85" y="-150.3" font-family="Times,serif" font-size="14.00">_J50</text>
</g>
<!-- ALiver_AsD5&#45;&gt;ALiver_AsD3 -->
<g id="edge20" class="edge">
<title>ALiver_AsD5&#45;&gt;ALiver_AsD3</title>
<path fill="none" stroke="black" d="M1044.35,-267.97C1044.35,-256.19 1044.35,-240.56 1044.35,-227.16"/>
<polygon fill="black" stroke="black" points="1047.85,-227 1044.35,-217 1040.85,-227 1047.85,-227"/>
<text text-anchor="middle" x="1059.85" y="-239.3" font-family="Times,serif" font-size="14.00">_J26</text>
</g>
<!-- AVenous_AsD5 -->
<g id="node26" class="node">
<title>AVenous_AsD5</title>
<g id="a_node26"><a xlink:href="#species-AVenous_AsD5" xlink:title="AVenous_AsD5&#10;[PBPKO:00632]">
<path fill="gold" stroke="black" d="M1756.85,-484C1756.85,-484 1667.85,-484 1667.85,-484 1661.85,-484 1655.85,-478 1655.85,-472 1655.85,-472 1655.85,-458 1655.85,-458 1655.85,-452 1661.85,-446 1667.85,-446 1667.85,-446 1756.85,-446 1756.85,-446 1762.85,-446 1768.85,-452 1768.85,-458 1768.85,-458 1768.85,-472 1768.85,-472 1768.85,-478 1762.85,-484 1756.85,-484"/>
<text text-anchor="middle" x="1712.35" y="-468.8" font-family="Arial" font-size="14.00">AVenous_AsD5</text>
<text text-anchor="middle" x="1712.35" y="-453.8" font-family="Arial" font-size="14.00">[PBPKO:00632]</text>
</a>
</g>
</g>
<!-- ALiver_AsD5&#45;&gt;AVenous_AsD5 -->
<g id="edge21" class="edge">
<title>ALiver_AsD5&#45;&gt;AVenous_AsD5</title>
<path fill="none" stroke="black" d="M1100.86,-302.3C1204.17,-328.55 1430.37,-386.42 1620.35,-438 1628.52,-440.22 1637.09,-442.59 1645.58,-444.96"/>
<polygon fill="black" stroke="black" points="1644.9,-448.4 1655.47,-447.73 1646.78,-441.66 1644.9,-448.4"/>
<text text-anchor="middle" x="1468.85" y="-372.3" font-family="Times,serif" font-size="14.00">_J17</text>
</g>
<!-- ALung_As3 -->
<g id="node13" class="node">
<title>ALung_As3</title>
<g id="a_node13"><a xlink:href="#species-ALung_As3" xlink:title="ALung_As3&#10;[PBPKO:00504]">
<path fill="gold" stroke="black" d="M1418.85,-973C1418.85,-973 1329.85,-973 1329.85,-973 1323.85,-973 1317.85,-967 1317.85,-961 1317.85,-961 1317.85,-947 1317.85,-947 1317.85,-941 1323.85,-935 1329.85,-935 1329.85,-935 1418.85,-935 1418.85,-935 1424.85,-935 1430.85,-941 1430.85,-947 1430.85,-947 1430.85,-961 1430.85,-961 1430.85,-967 1424.85,-973 1418.85,-973"/>
<text text-anchor="middle" x="1374.35" y="-957.8" font-family="Arial" font-size="14.00">ALung_As3</text>
<text text-anchor="middle" x="1374.35" y="-942.8" font-family="Arial" font-size="14.00">[PBPKO:00504]</text>
</a>
</g>
</g>
<!-- ALung_As5 -->
<g id="node14" class="node">
<title>ALung_As5</title>
<g id="a_node14"><a xlink:href="#species-ALung_As5" xlink:title="ALung_As5&#10;[PBPKO:00504]">
<path fill="gold" stroke="black" d="M1502.85,-810C1502.85,-810 1413.85,-810 1413.85,-810 1407.85,-810 1401.85,-804 1401.85,-798 1401.85,-798 1401.85,-784 1401.85,-784 1401.85,-778 1407.85,-772 1413.85,-772 1413.85,-772 1502.85,-772 1502.85,-772 1508.85,-772 1514.85,-778 1514.85,-784 1514.85,-784 1514.85,-798 1514.85,-798 1514.85,-804 1508.85,-810 1502.85,-810"/>
<text text-anchor="middle" x="1458.35" y="-794.8" font-family="Arial" font-size="14.00">ALung_As5</text>
<text text-anchor="middle" x="1458.35" y="-779.8" font-family="Arial" font-size="14.00">[PBPKO:00504]</text>
</a>
</g>
</g>
<!-- ALung_As3&#45;&gt;ALung_As5 -->
<g id="edge22" class="edge">
<title>ALung_As3&#45;&gt;ALung_As5</title>
<path fill="none" stroke="black" d="M1401.19,-934.81C1407.15,-929.77 1412.99,-923.9 1417.35,-917.5 1437.74,-887.57 1448.58,-846.77 1453.89,-819.92"/>
<polygon fill="black" stroke="black" points="1457.34,-820.5 1455.72,-810.03 1450.46,-819.23 1457.34,-820.5"/>
<text text-anchor="middle" x="1439.85" y="-906.3" font-family="Times,serif" font-size="14.00">_J37</text>
</g>
<!-- AArterial_As3 -->
<g id="node20" class="node">
<title>AArterial_As3</title>
<g id="a_node20"><a xlink:href="#species-AArterial_As3" xlink:title="AArterial_As3&#10;[PBPKO:00631]">
<path fill="gold" stroke="black" d="M1008.85,-810C1008.85,-810 919.85,-810 919.85,-810 913.85,-810 907.85,-804 907.85,-798 907.85,-798 907.85,-784 907.85,-784 907.85,-778 913.85,-772 919.85,-772 919.85,-772 1008.85,-772 1008.85,-772 1014.85,-772 1020.85,-778 1020.85,-784 1020.85,-784 1020.85,-798 1020.85,-798 1020.85,-804 1014.85,-810 1008.85,-810"/>
<text text-anchor="middle" x="964.35" y="-794.8" font-family="Arial" font-size="14.00">AArterial_As3</text>
<text text-anchor="middle" x="964.35" y="-779.8" font-family="Arial" font-size="14.00">[PBPKO:00631]</text>
</a>
</g>
</g>
<!-- ALung_As3&#45;&gt;AArterial_As3 -->
<g id="edge23" class="edge">
<title>ALung_As3&#45;&gt;AArterial_As3</title>
<path fill="none" stroke="black" d="M1317.67,-952.99C1251.5,-950.68 1140.63,-939.53 1058.35,-894 1025.65,-875.91 998.05,-842.27 981.39,-818.58"/>
<polygon fill="black" stroke="black" points="984.08,-816.32 975.55,-810.04 978.3,-820.27 984.08,-816.32"/>
<text text-anchor="middle" x="1120.85" y="-906.3" font-family="Times,serif" font-size="14.00">_J39</text>
</g>
<!-- ALung_As5&#45;&gt;ALung_As3 -->
<g id="edge24" class="edge">
<title>ALung_As5&#45;&gt;ALung_As3</title>
<path fill="none" stroke="black" d="M1401.44,-805.64C1353.09,-820.56 1286.71,-849.72 1255.35,-902.5 1240.1,-928.16 1272.81,-940.79 1307.77,-947"/>
<polygon fill="black" stroke="black" points="1307.22,-950.46 1317.65,-948.59 1308.33,-943.54 1307.22,-950.46"/>
<text text-anchor="middle" x="1270.85" y="-906.3" font-family="Times,serif" font-size="14.00">_J38</text>
</g>
<!-- AArterial_As5 -->
<g id="node21" class="node">
<title>AArterial_As5</title>
<g id="a_node21"><a xlink:href="#species-AArterial_As5" xlink:title="AArterial_As5&#10;[PBPKO:00631]">
<path fill="gold" stroke="black" d="M691.85,-810C691.85,-810 602.85,-810 602.85,-810 596.85,-810 590.85,-804 590.85,-798 590.85,-798 590.85,-784 590.85,-784 590.85,-778 596.85,-772 602.85,-772 602.85,-772 691.85,-772 691.85,-772 697.85,-772 703.85,-778 703.85,-784 703.85,-784 703.85,-798 703.85,-798 703.85,-804 697.85,-810 691.85,-810"/>
<text text-anchor="middle" x="647.35" y="-794.8" font-family="Arial" font-size="14.00">AArterial_As5</text>
<text text-anchor="middle" x="647.35" y="-779.8" font-family="Arial" font-size="14.00">[PBPKO:00631]</text>
</a>
</g>
</g>
<!-- ALung_As5&#45;&gt;AArterial_As5 -->
<g id="edge25" class="edge">
<title>ALung_As5&#45;&gt;AArterial_As5</title>
<path fill="none" stroke="black" d="M1420.56,-810.01C1372.14,-833.21 1284.94,-871.12 1205.35,-885.5 1103.88,-903.83 836.56,-925.09 741.35,-885.5 708.95,-872.03 681.95,-841.36 665.32,-818.6"/>
<polygon fill="black" stroke="black" points="668.1,-816.46 659.47,-810.31 662.38,-820.5 668.1,-816.46"/>
<text text-anchor="middle" x="1349.35" y="-906.3" font-family="Times,serif" font-size="14.00">_J40</text>
</g>
<!-- ALung_AsM3 -->
<g id="node15" class="node">
<title>ALung_AsM3</title>
<g id="a_node15"><a xlink:href="#species-ALung_AsM3" xlink:title="ALung_AsM3&#10;[PBPKO:00504]">
<path fill="gold" stroke="black" d="M1661.85,-973C1661.85,-973 1572.85,-973 1572.85,-973 1566.85,-973 1560.85,-967 1560.85,-961 1560.85,-961 1560.85,-947 1560.85,-947 1560.85,-941 1566.85,-935 1572.85,-935 1572.85,-935 1661.85,-935 1661.85,-935 1667.85,-935 1673.85,-941 1673.85,-947 1673.85,-947 1673.85,-961 1673.85,-961 1673.85,-967 1667.85,-973 1661.85,-973"/>
<text text-anchor="middle" x="1617.35" y="-957.8" font-family="Arial" font-size="14.00">ALung_AsM3</text>
<text text-anchor="middle" x="1617.35" y="-942.8" font-family="Arial" font-size="14.00">[PBPKO:00504]</text>
</a>
</g>
</g>
<!-- ALung_AsM5 -->
<g id="node16" class="node">
<title>ALung_AsM5</title>
<g id="a_node16"><a xlink:href="#species-ALung_AsM5" xlink:title="ALung_AsM5&#10;[PBPKO:00504]">
<path fill="gold" stroke="black" d="M1661.85,-810C1661.85,-810 1572.85,-810 1572.85,-810 1566.85,-810 1560.85,-804 1560.85,-798 1560.85,-798 1560.85,-784 1560.85,-784 1560.85,-778 1566.85,-772 1572.85,-772 1572.85,-772 1661.85,-772 1661.85,-772 1667.85,-772 1673.85,-778 1673.85,-784 1673.85,-784 1673.85,-798 1673.85,-798 1673.85,-804 1667.85,-810 1661.85,-810"/>
<text text-anchor="middle" x="1617.35" y="-794.8" font-family="Arial" font-size="14.00">ALung_AsM5</text>
<text text-anchor="middle" x="1617.35" y="-779.8" font-family="Arial" font-size="14.00">[PBPKO:00504]</text>
</a>
</g>
</g>
<!-- ALung_AsM3&#45;&gt;ALung_AsM5 -->
<g id="edge26" class="edge">
<title>ALung_AsM3&#45;&gt;ALung_AsM5</title>
<path fill="none" stroke="black" d="M1596.47,-934.9C1591.95,-929.78 1587.79,-923.85 1585.35,-917.5 1572.71,-884.6 1587.54,-844.94 1600.95,-819.13"/>
<polygon fill="black" stroke="black" points="1604.05,-820.74 1605.77,-810.28 1597.91,-817.39 1604.05,-820.74"/>
<text text-anchor="middle" x="1600.85" y="-906.3" font-family="Times,serif" font-size="14.00">_J43</text>
</g>
<!-- ALung_AsM3&#45;&gt;AUrine_AsM3 -->
<g id="edge27" class="edge">
<title>ALung_AsM3&#45;&gt;AUrine_AsM3</title>
<path fill="none" stroke="black" d="M1674.31,-941.46C1686.2,-939.19 1698.66,-936.93 1710.35,-935 1853.71,-911.34 2004.35,-937.3 2004.35,-792 2004.35,-792 2004.35,-792 2004.35,-197 2004.35,-125.7 1429.18,-169.77 1365.35,-138 1331.72,-121.26 1304.4,-86.78 1288.28,-62.56"/>
<polygon fill="black" stroke="black" points="1291.22,-60.66 1282.85,-54.15 1285.34,-64.45 1291.22,-60.66"/>
<text text-anchor="middle" x="2019.85" y="-417.3" font-family="Times,serif" font-size="14.00">_J51</text>
</g>
<!-- ALung_AsM5&#45;&gt;ALung_AsM3 -->
<g id="edge28" class="edge">
<title>ALung_AsM5&#45;&gt;ALung_AsM3</title>
<path fill="none" stroke="black" d="M1617.35,-810.34C1617.35,-838.23 1617.35,-891.54 1617.35,-924.51"/>
<polygon fill="black" stroke="black" points="1613.85,-924.84 1617.35,-934.84 1620.85,-924.84 1613.85,-924.84"/>
<text text-anchor="middle" x="1632.85" y="-906.3" font-family="Times,serif" font-size="14.00">_J42</text>
</g>
<!-- AArterial_AsM5 -->
<g id="node22" class="node">
<title>AArterial_AsM5</title>
<g id="a_node22"><a xlink:href="#species-AArterial_AsM5" xlink:title="AArterial_AsM5&#10;[PBPKO:00631]">
<path fill="gold" stroke="black" d="M850.85,-810C850.85,-810 761.85,-810 761.85,-810 755.85,-810 749.85,-804 749.85,-798 749.85,-798 749.85,-784 749.85,-784 749.85,-778 755.85,-772 761.85,-772 761.85,-772 850.85,-772 850.85,-772 856.85,-772 862.85,-778 862.85,-784 862.85,-784 862.85,-798 862.85,-798 862.85,-804 856.85,-810 850.85,-810"/>
<text text-anchor="middle" x="806.35" y="-794.8" font-family="Arial" font-size="14.00">AArterial_AsM5</text>
<text text-anchor="middle" x="806.35" y="-779.8" font-family="Arial" font-size="14.00">[PBPKO:00631]</text>
</a>
</g>
</g>
<!-- ALung_AsM5&#45;&gt;AArterial_AsM5 -->
<g id="edge29" class="edge">
<title>ALung_AsM5&#45;&gt;AArterial_AsM5</title>
<path fill="none" stroke="black" d="M1605.4,-810.31C1589.95,-833.24 1560.65,-870.29 1524.35,-885.5 1460.3,-912.33 963.4,-912.33 899.35,-885.5 867.15,-872.01 840.47,-841.35 824.06,-818.59"/>
<polygon fill="black" stroke="black" points="826.88,-816.51 818.29,-810.31 821.14,-820.51 826.88,-816.51"/>
<text text-anchor="middle" x="1305.35" y="-906.3" font-family="Times,serif" font-size="14.00">_J44</text>
</g>
<!-- ALung_AsD3 -->
<g id="node17" class="node">
<title>ALung_AsD3</title>
<g id="a_node17"><a xlink:href="#species-ALung_AsD3" xlink:title="ALung_AsD3&#10;[PBPKO:00504]">
<path fill="gold" stroke="black" d="M1819.85,-973C1819.85,-973 1730.85,-973 1730.85,-973 1724.85,-973 1718.85,-967 1718.85,-961 1718.85,-961 1718.85,-947 1718.85,-947 1718.85,-941 1724.85,-935 1730.85,-935 1730.85,-935 1819.85,-935 1819.85,-935 1825.85,-935 1831.85,-941 1831.85,-947 1831.85,-947 1831.85,-961 1831.85,-961 1831.85,-967 1825.85,-973 1819.85,-973"/>
<text text-anchor="middle" x="1775.35" y="-957.8" font-family="Arial" font-size="14.00">ALung_AsD3</text>
<text text-anchor="middle" x="1775.35" y="-942.8" font-family="Arial" font-size="14.00">[PBPKO:00504]</text>
</a>
</g>
</g>
<!-- ALung_AsD5 -->
<g id="node18" class="node">
<title>ALung_AsD5</title>
<g id="a_node18"><a xlink:href="#species-ALung_AsD5" xlink:title="ALung_AsD5&#10;[PBPKO:00504]">
<path fill="gold" stroke="black" d="M1819.85,-810C1819.85,-810 1730.85,-810 1730.85,-810 1724.85,-810 1718.85,-804 1718.85,-798 1718.85,-798 1718.85,-784 1718.85,-784 1718.85,-778 1724.85,-772 1730.85,-772 1730.85,-772 1819.85,-772 1819.85,-772 1825.85,-772 1831.85,-778 1831.85,-784 1831.85,-784 1831.85,-798 1831.85,-798 1831.85,-804 1825.85,-810 1819.85,-810"/>
<text text-anchor="middle" x="1775.35" y="-794.8" font-family="Arial" font-size="14.00">ALung_AsD5</text>
<text text-anchor="middle" x="1775.35" y="-779.8" font-family="Arial" font-size="14.00">[PBPKO:00504]</text>
</a>
</g>
</g>
<!-- ALung_AsD3&#45;&gt;ALung_AsD5 -->
<g id="edge30" class="edge">
<title>ALung_AsD3&#45;&gt;ALung_AsD5</title>
<path fill="none" stroke="black" d="M1750.51,-934.64C1745.57,-929.68 1741.07,-923.89 1738.35,-917.5 1724.32,-884.6 1741.54,-844.7 1756.88,-818.86"/>
<polygon fill="black" stroke="black" points="1759.87,-820.68 1762.17,-810.33 1753.92,-816.98 1759.87,-820.68"/>
<text text-anchor="middle" x="1753.85" y="-906.3" font-family="Times,serif" font-size="14.00">_J47</text>
</g>
<!-- ALung_AsD3&#45;&gt;AUrine_AsD3 -->
<g id="edge31" class="edge">
<title>ALung_AsD3&#45;&gt;AUrine_AsD3</title>
<path fill="none" stroke="black" d="M1832.03,-947.37C1917.47,-935.4 2069.35,-899.08 2069.35,-792 2069.35,-792 2069.35,-792 2069.35,-197 2069.35,-80.02 1661.54,-47.19 1497.5,-38.72"/>
<polygon fill="black" stroke="black" points="1497.22,-35.2 1487.05,-38.2 1496.87,-42.19 1497.22,-35.2"/>
<text text-anchor="middle" x="2084.85" y="-417.3" font-family="Times,serif" font-size="14.00">_J52</text>
</g>
<!-- ALung_AsD5&#45;&gt;ALung_AsD3 -->
<g id="edge32" class="edge">
<title>ALung_AsD5&#45;&gt;ALung_AsD3</title>
<path fill="none" stroke="black" d="M1775.35,-810.34C1775.35,-838.23 1775.35,-891.54 1775.35,-924.51"/>
<polygon fill="black" stroke="black" points="1771.85,-924.84 1775.35,-934.84 1778.85,-924.84 1771.85,-924.84"/>
<text text-anchor="middle" x="1790.85" y="-906.3" font-family="Times,serif" font-size="14.00">_J46</text>
</g>
<!-- AArterial_AsD5 -->
<g id="node19" class="node">
<title>AArterial_AsD5</title>
<g id="a_node19"><a xlink:href="#species-AArterial_AsD5" xlink:title="AArterial_AsD5&#10;[PBPKO:00631]">
<path fill="gold" stroke="black" d="M1167.85,-810C1167.85,-810 1078.85,-810 1078.85,-810 1072.85,-810 1066.85,-804 1066.85,-798 1066.85,-798 1066.85,-784 1066.85,-784 1066.85,-778 1072.85,-772 1078.85,-772 1078.85,-772 1167.85,-772 1167.85,-772 1173.85,-772 1179.85,-778 1179.85,-784 1179.85,-784 1179.85,-798 1179.85,-798 1179.85,-804 1173.85,-810 1167.85,-810"/>
<text text-anchor="middle" x="1123.35" y="-794.8" font-family="Arial" font-size="14.00">AArterial_AsD5</text>
<text text-anchor="middle" x="1123.35" y="-779.8" font-family="Arial" font-size="14.00">[PBPKO:00631]</text>
</a>
</g>
</g>
<!-- ALung_AsD5&#45;&gt;AArterial_AsD5 -->
<g id="edge33" class="edge">
<title>ALung_AsD5&#45;&gt;AArterial_AsD5</title>
<path fill="none" stroke="black" d="M1763.58,-810.3C1748.35,-833.22 1719.42,-870.27 1683.35,-885.5 1585.89,-926.63 1303.84,-928.83 1207.35,-885.5 1177.12,-871.93 1153.33,-841.5 1138.9,-818.82"/>
<polygon fill="black" stroke="black" points="1141.86,-816.95 1133.65,-810.25 1135.89,-820.61 1141.86,-816.95"/>
<text text-anchor="middle" x="1397.35" y="-906.3" font-family="Times,serif" font-size="14.00">_J48</text>
</g>
<!-- AArterial_AsD5&#45;&gt;AGut_AsD5 -->
<g id="edge34" class="edge">
<title>AArterial_AsD5&#45;&gt;AGut_AsD5</title>
<path fill="none" stroke="black" d="M1104.01,-771.88C1090.21,-760.21 1070.58,-746.05 1050.35,-739.5 1007.84,-725.74 688.55,-750.49 648.35,-731 615.95,-715.29 591.7,-680.5 577.79,-655.94"/>
<polygon fill="black" stroke="black" points="580.83,-654.19 572.97,-647.08 574.68,-657.54 580.83,-654.19"/>
<text text-anchor="middle" x="1091.35" y="-743.3" font-family="Times,serif" font-size="14.00">_J9</text>
</g>
<!-- AArterial_AsD5&#45;&gt;ALiver_AsD5 -->
<g id="edge35" class="edge">
<title>AArterial_AsD5&#45;&gt;ALiver_AsD5</title>
<path fill="none" stroke="black" d="M1117.96,-771.99C1108.1,-734.95 1091.82,-649.61 1134.35,-601 1148.95,-584.3 1169.23,-608.61 1183.35,-591.5 1187.59,-586.36 1187.72,-581.53 1183.35,-576.5 1165.69,-556.16 1142.81,-586.61 1123.35,-568 1072.85,-519.72 1113.81,-480.6 1094.35,-413.5 1084.31,-378.9 1068.32,-340.64 1057.13,-315.56"/>
<polygon fill="black" stroke="black" points="1060.26,-313.99 1052.95,-306.32 1053.88,-316.87 1060.26,-313.99"/>
<text text-anchor="middle" x="1138.85" y="-461.3" font-family="Times,serif" font-size="14.00">_J16</text>
</g>
<!-- ARest_AsD5 -->
<g id="node30" class="node">
<title>ARest_AsD5</title>
<g id="a_node30"><a xlink:href="#species-ARest_AsD5" xlink:title="ARest_AsD5&#10;[PBPKO:00501]">
<path fill="gold" stroke="black" d="M1737.85,-647C1737.85,-647 1648.85,-647 1648.85,-647 1642.85,-647 1636.85,-641 1636.85,-635 1636.85,-635 1636.85,-621 1636.85,-621 1636.85,-615 1642.85,-609 1648.85,-609 1648.85,-609 1737.85,-609 1737.85,-609 1743.85,-609 1749.85,-615 1749.85,-621 1749.85,-621 1749.85,-635 1749.85,-635 1749.85,-641 1743.85,-647 1737.85,-647"/>
<text text-anchor="middle" x="1693.35" y="-631.8" font-family="Arial" font-size="14.00">ARest_AsD5</text>
<text text-anchor="middle" x="1693.35" y="-616.8" font-family="Arial" font-size="14.00">[PBPKO:00501]</text>
</a>
</g>
</g>
<!-- AArterial_AsD5&#45;&gt;ARest_AsD5 -->
<g id="edge36" class="edge">
<title>AArterial_AsD5&#45;&gt;ARest_AsD5</title>
<path fill="none" stroke="black" d="M1175.33,-772C1185.82,-768.91 1196.86,-766.04 1207.35,-764 1293.38,-747.28 1521.72,-769.72 1600.35,-731 1634.04,-714.4 1661.34,-679.89 1677.44,-655.62"/>
<polygon fill="black" stroke="black" points="1680.4,-657.5 1682.86,-647.2 1674.51,-653.72 1680.4,-657.5"/>
<text text-anchor="middle" x="1587.85" y="-743.3" font-family="Times,serif" font-size="14.00">_J33</text>
</g>
<!-- AArterial_As3&#45;&gt;AGut_As3 -->
<g id="edge37" class="edge">
<title>AArterial_As3&#45;&gt;AGut_As3</title>
<path fill="none" stroke="black" d="M915.34,-771.95C901.36,-766.57 886.17,-760.5 872.35,-754.5 858.31,-748.41 856.24,-743.05 841.35,-739.5 814.27,-733.05 365.72,-742.46 340.35,-731 305.92,-715.45 278.63,-680.37 262.74,-655.72"/>
<polygon fill="black" stroke="black" points="265.66,-653.79 257.41,-647.16 259.72,-657.5 265.66,-653.79"/>
<text text-anchor="middle" x="883.35" y="-743.3" font-family="Times,serif" font-size="14.00">_J6</text>
</g>
<!-- AArterial_As3&#45;&gt;ALiver_As3 -->
<g id="edge38" class="edge">
<title>AArterial_As3&#45;&gt;ALiver_As3</title>
<path fill="none" stroke="black" d="M961.45,-771.58C960.48,-761.93 960.13,-749.97 962.35,-739.5 968.67,-709.63 983.63,-678.03 995.37,-656.31"/>
<polygon fill="black" stroke="black" points="998.55,-657.79 1000.33,-647.35 992.42,-654.4 998.55,-657.79"/>
<text text-anchor="middle" x="977.85" y="-743.3" font-family="Times,serif" font-size="14.00">_J10</text>
</g>
<!-- ARest_As3 -->
<g id="node27" class="node">
<title>ARest_As3</title>
<g id="a_node27"><a xlink:href="#species-ARest_As3" xlink:title="ARest_As3&#10;[PBPKO:00501]">
<path fill="gold" stroke="black" d="M1578.85,-647C1578.85,-647 1489.85,-647 1489.85,-647 1483.85,-647 1477.85,-641 1477.85,-635 1477.85,-635 1477.85,-621 1477.85,-621 1477.85,-615 1483.85,-609 1489.85,-609 1489.85,-609 1578.85,-609 1578.85,-609 1584.85,-609 1590.85,-615 1590.85,-621 1590.85,-621 1590.85,-635 1590.85,-635 1590.85,-641 1584.85,-647 1578.85,-647"/>
<text text-anchor="middle" x="1534.35" y="-631.8" font-family="Arial" font-size="14.00">ARest_As3</text>
<text text-anchor="middle" x="1534.35" y="-616.8" font-family="Arial" font-size="14.00">[PBPKO:00501]</text>
</a>
</g>
</g>
<!-- AArterial_As3&#45;&gt;ARest_As3 -->
<g id="edge39" class="edge">
<title>AArterial_As3&#45;&gt;ARest_As3</title>
<path fill="none" stroke="black" d="M980.1,-771.74C991.77,-758.75 1007.03,-743.02 1015.35,-739.5 1059.05,-721.01 1399.18,-750.71 1442.35,-731 1476.54,-715.38 1503.51,-680.32 1519.18,-655.69"/>
<polygon fill="black" stroke="black" points="1522.18,-657.49 1524.44,-647.14 1516.22,-653.82 1522.18,-657.49"/>
<text text-anchor="middle" x="1030.85" y="-743.3" font-family="Times,serif" font-size="14.00">_J27</text>
</g>
<!-- AArterial_As5&#45;&gt;AGut_As5 -->
<g id="edge40" class="edge">
<title>AArterial_As5&#45;&gt;AGut_As5</title>
<path fill="none" stroke="black" d="M590.6,-781.81C516.56,-771.26 382.92,-752.73 268.35,-739.5 249.05,-737.27 198.71,-739.7 181.35,-731 147.91,-714.25 120.68,-680.01 104.51,-655.84"/>
<polygon fill="black" stroke="black" points="107.24,-653.61 98.87,-647.12 101.37,-657.42 107.24,-653.61"/>
<text text-anchor="middle" x="393.35" y="-743.3" font-family="Times,serif" font-size="14.00">_J7</text>
</g>
<!-- AArterial_As5&#45;&gt;ALiver_As5 -->
<g id="edge41" class="edge">
<title>AArterial_As5&#45;&gt;ALiver_As5</title>
<path fill="none" stroke="black" d="M637.86,-771.62C634.11,-761.76 631.68,-749.6 636.35,-739.5 638.79,-734.21 642.54,-735.42 646.35,-731 690.81,-679.45 676.49,-646.25 727.35,-601 753.04,-578.14 769.73,-588.51 797.35,-568 826.38,-546.44 853.29,-514.64 870.42,-492.29"/>
<polygon fill="black" stroke="black" points="873.27,-494.32 876.48,-484.23 867.67,-490.11 873.27,-494.32"/>
<text text-anchor="middle" x="742.85" y="-624.3" font-family="Times,serif" font-size="14.00">_J11</text>
</g>
<!-- ARest_As5 -->
<g id="node28" class="node">
<title>ARest_As5</title>
<g id="a_node28"><a xlink:href="#species-ARest_As5" xlink:title="ARest_As5&#10;[PBPKO:00501]">
<path fill="gold" stroke="black" d="M1261.85,-647C1261.85,-647 1172.85,-647 1172.85,-647 1166.85,-647 1160.85,-641 1160.85,-635 1160.85,-635 1160.85,-621 1160.85,-621 1160.85,-615 1166.85,-609 1172.85,-609 1172.85,-609 1261.85,-609 1261.85,-609 1267.85,-609 1273.85,-615 1273.85,-621 1273.85,-621 1273.85,-635 1273.85,-635 1273.85,-641 1267.85,-647 1261.85,-647"/>
<text text-anchor="middle" x="1217.35" y="-631.8" font-family="Arial" font-size="14.00">ARest_As5</text>
<text text-anchor="middle" x="1217.35" y="-616.8" font-family="Arial" font-size="14.00">[PBPKO:00501]</text>
</a>
</g>
</g>
<!-- AArterial_As5&#45;&gt;ARest_As5 -->
<g id="edge42" class="edge">
<title>AArterial_As5&#45;&gt;ARest_As5</title>
<path fill="none" stroke="black" d="M641.64,-771.74C639.49,-760.92 639.24,-747.76 647.35,-739.5 666.04,-720.47 1103.13,-742.19 1127.35,-731 1161,-715.46 1187.21,-680.63 1202.46,-656.01"/>
<polygon fill="black" stroke="black" points="1205.64,-657.52 1207.77,-647.14 1199.63,-653.93 1205.64,-657.52"/>
<text text-anchor="middle" x="662.85" y="-743.3" font-family="Times,serif" font-size="14.00">_J28</text>
</g>
<!-- AArterial_AsM5&#45;&gt;AGut_AsM5 -->
<g id="edge43" class="edge">
<title>AArterial_AsM5&#45;&gt;AGut_AsM5</title>
<path fill="none" stroke="black" d="M763.04,-771.96C729,-757.84 686.63,-740.44 682.35,-739.5 642.59,-730.75 536.24,-748.2 499.35,-731 465.14,-715.05 437.58,-680.39 421.35,-655.91"/>
<polygon fill="black" stroke="black" points="424.24,-653.94 415.89,-647.41 418.35,-657.72 424.24,-653.94"/>
<text text-anchor="middle" x="729.35" y="-743.3" font-family="Times,serif" font-size="14.00">_J8</text>
</g>
<!-- AArterial_AsM5&#45;&gt;ALiver_AsM5 -->
<g id="edge44" class="edge">
<title>AArterial_AsM5&#45;&gt;ALiver_AsM5</title>
<path fill="none" stroke="black" d="M802.1,-771.65C789.59,-717.63 752.85,-558.9 737.84,-494.07"/>
<polygon fill="black" stroke="black" points="741.21,-493.1 735.55,-484.15 734.39,-494.68 741.21,-493.1"/>
<text text-anchor="middle" x="806.85" y="-624.3" font-family="Times,serif" font-size="14.00">_J14</text>
</g>
<!-- ARest_AsM5 -->
<g id="node29" class="node">
<title>ARest_AsM5</title>
<g id="a_node29"><a xlink:href="#species-ARest_AsM5" xlink:title="ARest_AsM5&#10;[PBPKO:00501]">
<path fill="gold" stroke="black" d="M1420.85,-647C1420.85,-647 1331.85,-647 1331.85,-647 1325.85,-647 1319.85,-641 1319.85,-635 1319.85,-635 1319.85,-621 1319.85,-621 1319.85,-615 1325.85,-609 1331.85,-609 1331.85,-609 1420.85,-609 1420.85,-609 1426.85,-609 1432.85,-615 1432.85,-621 1432.85,-621 1432.85,-635 1432.85,-635 1432.85,-641 1426.85,-647 1420.85,-647"/>
<text text-anchor="middle" x="1376.35" y="-631.8" font-family="Arial" font-size="14.00">ARest_AsM5</text>
<text text-anchor="middle" x="1376.35" y="-616.8" font-family="Arial" font-size="14.00">[PBPKO:00501]</text>
</a>
</g>
</g>
<!-- AArterial_AsM5&#45;&gt;ARest_AsM5 -->
<g id="edge45" class="edge">
<title>AArterial_AsM5&#45;&gt;ARest_AsM5</title>
<path fill="none" stroke="black" d="M802.3,-771.53C801.09,-760.63 801.89,-747.45 810.35,-739.5 829.49,-721.49 1259.4,-741.83 1283.35,-731 1317.77,-715.43 1345.06,-680.36 1360.95,-655.71"/>
<polygon fill="black" stroke="black" points="1363.97,-657.49 1366.28,-647.15 1358.03,-653.79 1363.97,-657.49"/>
<text text-anchor="middle" x="825.85" y="-743.3" font-family="Times,serif" font-size="14.00">_J31</text>
</g>
<!-- AVenous_As3&#45;&gt;ALung_As3 -->
<g id="edge46" class="edge">
<title>AVenous_As3&#45;&gt;ALung_As3</title>
<path fill="none" stroke="black" d="M1405.61,-484.06C1420.5,-508.26 1450.61,-550.21 1489.35,-568 1514,-579.32 1706.35,-573.84 1733.35,-576.5 1800.57,-583.13 1839.6,-549.53 1883.35,-601 1920.76,-645.02 1890.61,-673.68 1883.35,-731 1872.15,-819.31 1893.71,-886.29 1810.35,-917.5 1756.53,-937.65 1609.61,-930.16 1552.35,-935 1515.6,-938.1 1474.66,-942.2 1441.31,-945.7"/>
<polygon fill="black" stroke="black" points="1440.8,-942.23 1431.22,-946.77 1441.53,-949.2 1440.8,-942.23"/>
<text text-anchor="middle" x="1896.85" y="-743.3" font-family="Times,serif" font-size="14.00">_J35</text>
</g>
<!-- AVenous_As5&#45;&gt;ALiver_As5 -->
<g id="edge47" class="edge">
<title>AVenous_As5&#45;&gt;ALiver_As5</title>
<path fill="none" stroke="black" d="M1222.37,-484.39C1203.23,-507.4 1167.72,-544.54 1127.35,-559.5 1051.21,-587.71 962.58,-527.57 918.03,-490.79"/>
<polygon fill="black" stroke="black" points="920.13,-487.99 910.23,-484.22 915.62,-493.34 920.13,-487.99"/>
<text text-anchor="middle" x="998.35" y="-580.3" font-family="Times,serif" font-size="14.00">_J36</text>
</g>
<!-- AVenous_AsM5&#45;&gt;ALung_AsM5 -->
<g id="edge48" class="edge">
<title>AVenous_AsM5&#45;&gt;ALung_AsM5</title>
<path fill="none" stroke="black" d="M1564.87,-484.12C1579.83,-507.97 1609.65,-549.09 1647.35,-568 1681.68,-585.22 1696.81,-564.66 1733.35,-576.5 1753.91,-583.16 1764.58,-582.26 1775.35,-601 1804.12,-651.1 1808.29,-683.53 1775.35,-731 1769.61,-739.27 1724.47,-755.67 1683.9,-769.09"/>
<polygon fill="black" stroke="black" points="1682.66,-765.81 1674.25,-772.25 1684.84,-772.46 1682.66,-765.81"/>
<text text-anchor="middle" x="1813.85" y="-624.3" font-family="Times,serif" font-size="14.00">_J41</text>
</g>
<!-- AVenous_AsD5&#45;&gt;ALung_AsD5 -->
<g id="edge49" class="edge">
<title>AVenous_AsD5&#45;&gt;ALung_AsD5</title>
<path fill="none" stroke="black" d="M1737.15,-484.14C1766.59,-507.38 1814.12,-550.73 1833.35,-601 1853.99,-654.96 1855.23,-677.53 1833.35,-731 1828.06,-743.92 1818.42,-755.54 1808.5,-764.98"/>
<polygon fill="black" stroke="black" points="1806.05,-762.48 1800.93,-771.76 1810.71,-767.7 1806.05,-762.48"/>
<text text-anchor="middle" x="1863.85" y="-624.3" font-family="Times,serif" font-size="14.00">_J45</text>
</g>
<!-- ARest_As3&#45;&gt;AVenous_As3 -->
<g id="edge50" class="edge">
<title>ARest_As3&#45;&gt;AVenous_As3</title>
<path fill="none" stroke="black" d="M1518.67,-608.84C1494.06,-580.34 1446.25,-524.96 1417.93,-492.16"/>
<polygon fill="black" stroke="black" points="1420.36,-489.62 1411.18,-484.34 1415.06,-494.19 1420.36,-489.62"/>
<text text-anchor="middle" x="1515.85" y="-580.3" font-family="Times,serif" font-size="14.00">_J29</text>
</g>
<!-- ARest_As5&#45;&gt;AVenous_As5 -->
<g id="edge51" class="edge">
<title>ARest_As5&#45;&gt;AVenous_As5</title>
<path fill="none" stroke="black" d="M1219.6,-608.84C1223.07,-580.94 1229.73,-527.29 1233.83,-494.27"/>
<polygon fill="black" stroke="black" points="1237.31,-494.69 1235.07,-484.34 1230.36,-493.83 1237.31,-494.69"/>
<text text-anchor="middle" x="1237.85" y="-580.3" font-family="Times,serif" font-size="14.00">_J30</text>
</g>
<!-- ARest_AsM5&#45;&gt;AVenous_AsM5 -->
<g id="edge52" class="edge">
<title>ARest_AsM5&#45;&gt;AVenous_AsM5</title>
<path fill="none" stroke="black" d="M1405.87,-608.86C1422.8,-597.9 1444.05,-583.15 1461.35,-568 1488.37,-544.34 1515.62,-513.43 1533.58,-491.86"/>
<polygon fill="black" stroke="black" points="1536.32,-494.03 1539.98,-484.09 1530.92,-489.58 1536.32,-494.03"/>
<text text-anchor="middle" x="1465.85" y="-580.3" font-family="Times,serif" font-size="14.00">_J32</text>
</g>
<!-- ARest_AsD5&#45;&gt;AVenous_AsD5 -->
<g id="edge53" class="edge">
<title>ARest_AsD5&#45;&gt;AVenous_AsD5</title>
<path fill="none" stroke="black" d="M1695.49,-608.84C1698.78,-580.94 1705.11,-527.29 1709.01,-494.27"/>
<polygon fill="black" stroke="black" points="1712.49,-494.68 1710.18,-484.34 1705.53,-493.86 1712.49,-494.68"/>
<text text-anchor="middle" x="1713.85" y="-580.3" font-family="Times,serif" font-size="14.00">_J34</text>
</g>
</g>
</svg>
