<?xml version="1.0" encoding="UTF-8" standalone="no"?>
<!DOCTYPE svg PUBLIC "-//W3C//DTD SVG 1.1//EN"
 "http://www.w3.org/Graphics/SVG/1.1/DTD/svg11.dtd">
<!-- Generated by graphviz version 2.43.0 (0)
 -->
<!-- Title: %3 Pages: 1 -->
<svg width="501pt" height="288pt"
 viewBox="0.00 0.00 501.31 288.00" xmlns="http://www.w3.org/2000/svg" xmlns:xlink="http://www.w3.org/1999/xlink">
<g id="graph0" class="graph" transform="scale(0.45 0.45) rotate(0) translate(4 639)">
<title>%3</title>
<polygon fill="white" stroke="transparent" points="-4,4 -4,-639 1115.25,-639 1115.25,4 -4,4"/>
<g id="clust1" class="cluster">
<title>cluster_Air</title>
<g id="a_clust1"><a xlink:href="#compartment-Air" xlink:title="Air&#10;[PBPKO:00458]">
<path fill="lightblue" stroke="black" d="M40.96,-334C40.96,-334 425.98,-334 425.98,-334 431.98,-334 437.98,-340 437.98,-346 437.98,-346 437.98,-452 437.98,-452 437.98,-458 431.98,-464 425.98,-464 425.98,-464 40.96,-464 40.96,-464 34.96,-464 28.96,-458 28.96,-452 28.96,-452 28.96,-346 28.96,-346 28.96,-340 34.96,-334 40.96,-334"/>
<text text-anchor="middle" x="233.47" y="-448.8" font-family="Arial" font-size="14.00">Air</text>
<text text-anchor="middle" x="233.47" y="-433.8" font-family="Arial" font-size="14.00">[PBPKO:00458]</text>
</a>
</g>
</g>
<g id="clust2" class="cluster">
<title>cluster_Arterial</title>
<g id="a_clust2"><a xlink:href="#compartment-Arterial" xlink:title="Arterial&#10;[&#45;]">
<path fill="lightblue" stroke="black" d="M779.38,-171C779.38,-171 1008.76,-171 1008.76,-171 1014.76,-171 1020.76,-177 1020.76,-183 1020.76,-183 1020.76,-289 1020.76,-289 1020.76,-295 1014.76,-301 1008.76,-301 1008.76,-301 779.38,-301 779.38,-301 773.38,-301 767.38,-295 767.38,-289 767.38,-289 767.38,-183 767.38,-183 767.38,-177 773.38,-171 779.38,-171"/>
<text text-anchor="middle" x="894.07" y="-285.8" font-family="Arial" font-size="14.00">Arterial</text>
<text text-anchor="middle" x="894.07" y="-270.8" font-family="Arial" font-size="14.00">[&#45;]</text>
</a>
</g>
</g>
<g id="clust3" class="cluster">
<title>cluster_Venous</title>
<g id="a_clust3"><a xlink:href="#compartment-Venous" xlink:title="Venous&#10;[&#45;]">
<path fill="lightblue" stroke="black" d="M551.34,-334C551.34,-334 780.72,-334 780.72,-334 786.72,-334 792.72,-340 792.72,-346 792.72,-346 792.72,-452 792.72,-452 792.72,-458 786.72,-464 780.72,-464 780.72,-464 551.34,-464 551.34,-464 545.34,-464 539.34,-458 539.34,-452 539.34,-452 539.34,-346 539.34,-346 539.34,-340 545.34,-334 551.34,-334"/>
<text text-anchor="middle" x="666.03" y="-448.8" font-family="Arial" font-size="14.00">Venous</text>
<text text-anchor="middle" x="666.03" y="-433.8" font-family="Arial" font-size="14.00">[&#45;]</text>
</a>
</g>
</g>
<g id="clust4" class="cluster">
<title>cluster_RestofBody</title>
<g id="a_clust4"><a xlink:href="#compartment-RestofBody" xlink:title="RestofBody&#10;[&#45;]">
<path fill="lightblue" stroke="black" d="M623.73,-497C623.73,-497 1070.29,-497 1070.29,-497 1076.29,-497 1082.29,-503 1082.29,-509 1082.29,-509 1082.29,-615 1082.29,-615 1082.29,-621 1076.29,-627 1070.29,-627 1070.29,-627 623.73,-627 623.73,-627 617.73,-627 611.73,-621 611.73,-615 611.73,-615 611.73,-509 611.73,-509 611.73,-503 617.73,-497 623.73,-497"/>
<text text-anchor="middle" x="847.01" y="-611.8" font-family="Arial" font-size="14.00">RestofBody</text>
<text text-anchor="middle" x="847.01" y="-596.8" font-family="Arial" font-size="14.00">[&#45;]</text>
</a>
</g>
</g>
<g id="clust5" class="cluster">
<title>cluster_Lung</title>
<g id="a_clust5"><a xlink:href="#compartment-Lung" xlink:title="Lung&#10;[&#45;]">
<path fill="lightblue" stroke="black" d="M627.35,-8C627.35,-8 856.73,-8 856.73,-8 862.73,-8 868.73,-14 868.73,-20 868.73,-20 868.73,-126 868.73,-126 868.73,-132 862.73,-138 856.73,-138 856.73,-138 627.35,-138 627.35,-138 621.35,-138 615.35,-132 615.35,-126 615.35,-126 615.35,-20 615.35,-20 615.35,-14 621.35,-8 627.35,-8"/>
<text text-anchor="middle" x="742.04" y="-122.8" font-family="Arial" font-size="14.00">Lung</text>
<text text-anchor="middle" x="742.04" y="-107.8" font-family="Arial" font-size="14.00">[&#45;]</text>
</a>
</g>
</g>
<g id="clust6" class="cluster">
<title>cluster_Bloodlung</title>
<g id="a_clust6"><a xlink:href="#compartment-Bloodlung" xlink:title="Bloodlung&#10;[&#45;]">
<path fill="lightblue" stroke="black" d="M131.45,-171C131.45,-171 469.42,-171 469.42,-171 475.42,-171 481.42,-177 481.42,-183 481.42,-183 481.42,-289 481.42,-289 481.42,-295 475.42,-301 469.42,-301 469.42,-301 131.45,-301 131.45,-301 125.45,-301 119.45,-295 119.45,-289 119.45,-289 119.45,-183 119.45,-183 119.45,-177 125.45,-171 131.45,-171"/>
<text text-anchor="middle" x="300.44" y="-285.8" font-family="Arial" font-size="14.00">Bloodlung</text>
<text text-anchor="middle" x="300.44" y="-270.8" font-family="Arial" font-size="14.00">[&#45;]</text>
</a>
</g>
</g>
<!-- Aair -->
<g id="node1" class="node">
<title>Aair</title>
<g id="a_node1"><a xlink:href="#species-Aair" xlink:title="Aair&#10;[&#45;]">
<path fill="gold" stroke="black" d="M221.69,-380C221.69,-380 191.69,-380 191.69,-380 185.69,-380 179.69,-374 179.69,-368 179.69,-368 179.69,-354 179.69,-354 179.69,-348 185.69,-342 191.69,-342 191.69,-342 221.69,-342 221.69,-342 227.69,-342 233.69,-348 233.69,-354 233.69,-354 233.69,-368 233.69,-368 233.69,-374 227.69,-380 221.69,-380"/>
<text text-anchor="middle" x="206.69" y="-364.8" font-family="Arial" font-size="14.00">Aair</text>
<text text-anchor="middle" x="206.69" y="-349.8" font-family="Arial" font-size="14.00">[&#45;]</text>
</a>
</g>
</g>
<!-- Abloodlung -->
<g id="node6" class="node">
<title>Abloodlung</title>
<g id="a_node6"><a xlink:href="#species-Abloodlung" xlink:title="Abloodlung&#10;[&#45;]">
<path fill="gold" stroke="black" d="M330.69,-217C330.69,-217 270.69,-217 270.69,-217 264.69,-217 258.69,-211 258.69,-205 258.69,-205 258.69,-191 258.69,-191 258.69,-185 264.69,-179 270.69,-179 270.69,-179 330.69,-179 330.69,-179 336.69,-179 342.69,-185 342.69,-191 342.69,-191 342.69,-205 342.69,-205 342.69,-211 336.69,-217 330.69,-217"/>
<text text-anchor="middle" x="300.69" y="-201.8" font-family="Arial" font-size="14.00">Abloodlung</text>
<text text-anchor="middle" x="300.69" y="-186.8" font-family="Arial" font-size="14.00">[&#45;]</text>
</a>
</g>
</g>
<!-- Aair&#45;&gt;Abloodlung -->
<g id="edge1" class="edge">
<title>Aair&#45;&gt;Abloodlung</title>
<path fill="none" stroke="black" d="M206.47,-341.63C206.93,-331.77 208.47,-319.6 212.69,-309.5 226.49,-276.44 253.19,-245.14 273.57,-224.34"/>
<polygon fill="black" stroke="black" points="276.15,-226.71 280.76,-217.18 271.21,-221.76 276.15,-226.71"/>
<text text-anchor="middle" x="223.69" y="-313.3" font-family="Times,serif" font-size="14.00">_J0</text>
</g>
<!-- Aart -->
<g id="node2" class="node">
<title>Aart</title>
<g id="a_node2"><a xlink:href="#species-Aart" xlink:title="Aart&#10;[&#45;]">
<path fill="gold" stroke="black" d="M908.69,-217C908.69,-217 878.69,-217 878.69,-217 872.69,-217 866.69,-211 866.69,-205 866.69,-205 866.69,-191 866.69,-191 866.69,-185 872.69,-179 878.69,-179 878.69,-179 908.69,-179 908.69,-179 914.69,-179 920.69,-185 920.69,-191 920.69,-191 920.69,-205 920.69,-205 920.69,-211 914.69,-217 908.69,-217"/>
<text text-anchor="middle" x="893.69" y="-201.8" font-family="Arial" font-size="14.00">Aart</text>
<text text-anchor="middle" x="893.69" y="-186.8" font-family="Arial" font-size="14.00">[&#45;]</text>
</a>
</g>
</g>
<!-- Arest -->
<g id="node4" class="node">
<title>Arest</title>
<g id="a_node4"><a xlink:href="#species-Arest" xlink:title="Arest&#10;[PBPKO:00501]">
<path fill="gold" stroke="black" d="M891.19,-543C891.19,-543 802.19,-543 802.19,-543 796.19,-543 790.19,-537 790.19,-531 790.19,-531 790.19,-517 790.19,-517 790.19,-511 796.19,-505 802.19,-505 802.19,-505 891.19,-505 891.19,-505 897.19,-505 903.19,-511 903.19,-517 903.19,-517 903.19,-531 903.19,-531 903.19,-537 897.19,-543 891.19,-543"/>
<text text-anchor="middle" x="846.69" y="-527.8" font-family="Arial" font-size="14.00">Arest</text>
<text text-anchor="middle" x="846.69" y="-512.8" font-family="Arial" font-size="14.00">[PBPKO:00501]</text>
</a>
</g>
</g>
<!-- Aart&#45;&gt;Arest -->
<g id="edge2" class="edge">
<title>Aart&#45;&gt;Arest</title>
<path fill="none" stroke="black" d="M891.06,-217.15C883.26,-270.91 860.23,-429.63 850.8,-494.69"/>
<polygon fill="black" stroke="black" points="847.32,-494.25 849.35,-504.65 854.25,-495.26 847.32,-494.25"/>
<text text-anchor="middle" x="884.69" y="-357.3" font-family="Times,serif" font-size="14.00">_J3</text>
</g>
<!-- Alung -->
<g id="node5" class="node">
<title>Alung</title>
<g id="a_node5"><a xlink:href="#species-Alung" xlink:title="Alung&#10;[&#45;]">
<path fill="gold" stroke="black" d="M756.69,-54C756.69,-54 726.69,-54 726.69,-54 720.69,-54 714.69,-48 714.69,-42 714.69,-42 714.69,-28 714.69,-28 714.69,-22 720.69,-16 726.69,-16 726.69,-16 756.69,-16 756.69,-16 762.69,-16 768.69,-22 768.69,-28 768.69,-28 768.69,-42 768.69,-42 768.69,-48 762.69,-54 756.69,-54"/>
<text text-anchor="middle" x="741.69" y="-38.8" font-family="Arial" font-size="14.00">Alung</text>
<text text-anchor="middle" x="741.69" y="-23.8" font-family="Arial" font-size="14.00">[&#45;]</text>
</a>
</g>
</g>
<!-- Aart&#45;&gt;Alung -->
<g id="edge3" class="edge">
<title>Aart&#45;&gt;Alung</title>
<path fill="none" stroke="black" d="M876.55,-178.84C849.52,-150.22 796.91,-94.49 765.99,-61.74"/>
<polygon fill="black" stroke="black" points="768.41,-59.21 759,-54.34 763.32,-64.01 768.41,-59.21"/>
<text text-anchor="middle" x="867.69" y="-150.3" font-family="Times,serif" font-size="14.00">_J5</text>
</g>
<!-- Aven -->
<g id="node3" class="node">
<title>Aven</title>
<g id="a_node3"><a xlink:href="#species-Aven" xlink:title="Aven&#10;[&#45;]">
<path fill="gold" stroke="black" d="M680.69,-380C680.69,-380 650.69,-380 650.69,-380 644.69,-380 638.69,-374 638.69,-368 638.69,-368 638.69,-354 638.69,-354 638.69,-348 644.69,-342 650.69,-342 650.69,-342 680.69,-342 680.69,-342 686.69,-342 692.69,-348 692.69,-354 692.69,-354 692.69,-368 692.69,-368 692.69,-374 686.69,-380 680.69,-380"/>
<text text-anchor="middle" x="665.69" y="-364.8" font-family="Arial" font-size="14.00">Aven</text>
<text text-anchor="middle" x="665.69" y="-349.8" font-family="Arial" font-size="14.00">[&#45;]</text>
</a>
</g>
</g>
<!-- Aven&#45;&gt;Aart -->
<g id="edge4" class="edge">
<title>Aven&#45;&gt;Aart</title>
<path fill="none" stroke="black" d="M691.4,-341.84C732.65,-312.72 813.63,-255.53 859.63,-223.05"/>
<polygon fill="black" stroke="black" points="861.92,-225.72 868.07,-217.09 857.88,-220 861.92,-225.72"/>
<text text-anchor="middle" x="743.69" y="-313.3" font-family="Times,serif" font-size="14.00">_J7</text>
</g>
<!-- Aven&#45;&gt;Abloodlung -->
<g id="edge5" class="edge">
<title>Aven&#45;&gt;Abloodlung</title>
<path fill="none" stroke="black" d="M638.54,-355.69C608.87,-350.44 560.29,-340.28 520.69,-324.5 451.47,-296.91 377.5,-250.86 335.39,-222.88"/>
<polygon fill="black" stroke="black" points="337.16,-219.85 326.9,-217.19 333.27,-225.66 337.16,-219.85"/>
<text text-anchor="middle" x="531.69" y="-313.3" font-family="Times,serif" font-size="14.00">_J2</text>
</g>
<!-- Arest&#45;&gt;Aven -->
<g id="edge6" class="edge">
<title>Arest&#45;&gt;Aven</title>
<path fill="none" stroke="black" d="M826.28,-504.84C793.87,-476.02 730.58,-419.72 693.87,-387.07"/>
<polygon fill="black" stroke="black" points="695.82,-384.12 686.03,-380.09 691.17,-389.35 695.82,-384.12"/>
<text text-anchor="middle" x="813.69" y="-476.3" font-family="Times,serif" font-size="14.00">_J4</text>
</g>
<!-- Alung&#45;&gt;Aven -->
<g id="edge7" class="edge">
<title>Alung&#45;&gt;Aven</title>
<path fill="none" stroke="black" d="M737.43,-54.15C724.82,-107.91 687.59,-266.63 672.33,-331.69"/>
<polygon fill="black" stroke="black" points="668.87,-331.12 669.99,-341.65 675.68,-332.72 668.87,-331.12"/>
<text text-anchor="middle" x="720.69" y="-194.3" font-family="Times,serif" font-size="14.00">_J6</text>
</g>
<!-- Abloodlung&#45;&gt;Aair -->
<g id="edge8" class="edge">
<title>Abloodlung&#45;&gt;Aair</title>
<path fill="none" stroke="black" d="M292.49,-217.04C280.89,-241.95 258.42,-287.96 234.69,-324.5 232.75,-327.49 230.62,-330.53 228.42,-333.52"/>
<polygon fill="black" stroke="black" points="225.47,-331.62 222.18,-341.69 231.03,-335.87 225.47,-331.62"/>
<text text-anchor="middle" x="254.69" y="-313.3" font-family="Times,serif" font-size="14.00">_J8</text>
</g>
<!-- Abloodlung&#45;&gt;Aart -->
<g id="edge9" class="edge">
<title>Abloodlung&#45;&gt;Aart</title>
<path fill="none" stroke="black" d="M334.53,-217.06C400.28,-251.74 550.05,-319.2 677.69,-292.5 744.55,-278.51 816.03,-242.61 857.69,-219.3"/>
<polygon fill="black" stroke="black" points="859.64,-222.22 866.62,-214.24 856.19,-216.13 859.64,-222.22"/>
<text text-anchor="middle" x="557.69" y="-313.3" font-family="Times,serif" font-size="14.00">_J1</text>
</g>
</g>
</svg>
