<?xml version="1.0" encoding="UTF-8" standalone="no"?>
<!DOCTYPE svg PUBLIC "-//W3C//DTD SVG 1.1//EN"
 "http://www.w3.org/Graphics/SVG/1.1/DTD/svg11.dtd">
<!-- Generated by graphviz version 2.43.0 (0)
 -->
<!-- Title: %3 Pages: 1 -->
<svg width="502pt" height="288pt"
 viewBox="0.00 0.00 501.55 288.00" xmlns="http://www.w3.org/2000/svg" xmlns:xlink="http://www.w3.org/1999/xlink">
<g id="graph0" class="graph" transform="scale(0.41 0.41) rotate(0) translate(4 701)">
<title>%3</title>
<polygon fill="white" stroke="transparent" points="-4,4 -4,-701 1223.75,-701 1223.75,4 -4,4"/>
<g id="clust1" class="cluster">
<title>cluster_Stomach</title>
<g id="a_clust1"><a xlink:href="#compartment-Stomach" xlink:title="Stomach&#10;[&#45;]">
<path fill="lightblue" stroke="black" d="M322.11,-597C322.11,-597 481.59,-597 481.59,-597 487.59,-597 493.59,-603 493.59,-609 493.59,-609 493.59,-677 493.59,-677 493.59,-683 487.59,-689 481.59,-689 481.59,-689 322.11,-689 322.11,-689 316.11,-689 310.11,-683 310.11,-677 310.11,-677 310.11,-609 310.11,-609 310.11,-603 316.11,-597 322.11,-597"/>
<text text-anchor="middle" x="401.85" y="-673.8" font-family="Arial" font-size="14.00">Stomach</text>
<text text-anchor="middle" x="401.85" y="-658.8" font-family="Arial" font-size="14.00">[&#45;]</text>
</a>
</g>
</g>
<g id="clust2" class="cluster">
<title>cluster_Jejunum</title>
<g id="a_clust2"><a xlink:href="#compartment-Jejunum" xlink:title="Jejunum&#10;[&#45;]">
<path fill="lightblue" stroke="black" d="M322.11,-472C322.11,-472 479,-472 479,-472 485,-472 491,-478 491,-484 491,-484 491,-552 491,-552 491,-558 485,-564 479,-564 479,-564 322.11,-564 322.11,-564 316.11,-564 310.11,-558 310.11,-552 310.11,-552 310.11,-484 310.11,-484 310.11,-478 316.11,-472 322.11,-472"/>
<text text-anchor="middle" x="400.55" y="-548.8" font-family="Arial" font-size="14.00">Jejunum</text>
<text text-anchor="middle" x="400.55" y="-533.8" font-family="Arial" font-size="14.00">[&#45;]</text>
</a>
</g>
</g>
<g id="clust3" class="cluster">
<title>cluster_Ileum</title>
<g id="a_clust3"><a xlink:href="#compartment-Ileum" xlink:title="Ileum&#10;[&#45;]">
<path fill="lightblue" stroke="black" d="M239.41,-347C239.41,-347 396.31,-347 396.31,-347 402.31,-347 408.31,-353 408.31,-359 408.31,-359 408.31,-427 408.31,-427 408.31,-433 402.31,-439 396.31,-439 396.31,-439 239.41,-439 239.41,-439 233.41,-439 227.41,-433 227.41,-427 227.41,-427 227.41,-359 227.41,-359 227.41,-353 233.41,-347 239.41,-347"/>
<text text-anchor="middle" x="317.86" y="-423.8" font-family="Arial" font-size="14.00">Ileum</text>
<text text-anchor="middle" x="317.86" y="-408.8" font-family="Arial" font-size="14.00">[&#45;]</text>
</a>
</g>
</g>
<g id="clust4" class="cluster">
<title>cluster_LargeLumen</title>
<g id="a_clust4"><a xlink:href="#compartment-LargeLumen" xlink:title="LargeLumen&#10;[&#45;]">
<path fill="lightblue" stroke="black" d="M32.67,-222C32.67,-222 249.01,-222 249.01,-222 255.01,-222 261.01,-228 261.01,-234 261.01,-234 261.01,-302 261.01,-302 261.01,-308 255.01,-314 249.01,-314 249.01,-314 32.67,-314 32.67,-314 26.67,-314 20.67,-308 20.67,-302 20.67,-302 20.67,-234 20.67,-234 20.67,-228 26.67,-222 32.67,-222"/>
<text text-anchor="middle" x="140.84" y="-298.8" font-family="Arial" font-size="14.00">LargeLumen</text>
<text text-anchor="middle" x="140.84" y="-283.8" font-family="Arial" font-size="14.00">[&#45;]</text>
</a>
</g>
</g>
<g id="clust5" class="cluster">
<title>cluster_Liver</title>
<g id="a_clust5"><a xlink:href="#compartment-Liver" xlink:title="Liver&#10;[&#45;]">
<path fill="lightblue" stroke="black" d="M513.34,-8C513.34,-8 825.29,-8 825.29,-8 831.29,-8 837.29,-14 837.29,-20 837.29,-20 837.29,-177 837.29,-177 837.29,-183 831.29,-189 825.29,-189 825.29,-189 513.34,-189 513.34,-189 507.34,-189 501.34,-183 501.34,-177 501.34,-177 501.34,-20 501.34,-20 501.34,-14 507.34,-8 513.34,-8"/>
<text text-anchor="middle" x="669.31" y="-173.8" font-family="Arial" font-size="14.00">Liver</text>
<text text-anchor="middle" x="669.31" y="-158.8" font-family="Arial" font-size="14.00">[&#45;]</text>
</a>
</g>
</g>
<g id="clust6" class="cluster">
<title>cluster_Blood</title>
<g id="a_clust6"><a xlink:href="#compartment-Blood" xlink:title="Blood&#10;[PBPKO:00464]">
<path fill="lightblue" stroke="black" d="M642.55,-222C642.55,-222 910.57,-222 910.57,-222 916.57,-222 922.57,-228 922.57,-234 922.57,-234 922.57,-302 922.57,-302 922.57,-308 916.57,-314 910.57,-314 910.57,-314 642.55,-314 642.55,-314 636.55,-314 630.55,-308 630.55,-302 630.55,-302 630.55,-234 630.55,-234 630.55,-228 636.55,-222 642.55,-222"/>
<text text-anchor="middle" x="776.56" y="-298.8" font-family="Arial" font-size="14.00">Blood</text>
<text text-anchor="middle" x="776.56" y="-283.8" font-family="Arial" font-size="14.00">[PBPKO:00464]</text>
</a>
</g>
</g>
<g id="clust7" class="cluster">
<title>cluster_Rest</title>
<g id="a_clust7"><a xlink:href="#compartment-Rest" xlink:title="Rest&#10;[PBPKO:00450]">
<path fill="lightblue" stroke="black" d="M875.13,-97C875.13,-97 1187.08,-97 1187.08,-97 1193.08,-97 1199.08,-103 1199.08,-109 1199.08,-109 1199.08,-177 1199.08,-177 1199.08,-183 1193.08,-189 1187.08,-189 1187.08,-189 875.13,-189 875.13,-189 869.13,-189 863.13,-183 863.13,-177 863.13,-177 863.13,-109 863.13,-109 863.13,-103 869.13,-97 875.13,-97"/>
<text text-anchor="middle" x="1031.1" y="-173.8" font-family="Arial" font-size="14.00">Rest</text>
<text text-anchor="middle" x="1031.1" y="-158.8" font-family="Arial" font-size="14.00">[PBPKO:00450]</text>
</a>
</g>
</g>
<g id="clust9" class="cluster">
<title>cluster_IntestinalTissue</title>
<g id="a_clust9"><a xlink:href="#compartment-IntestinalTissue" xlink:title="IntestinalTissue&#10;[&#45;]">
<path fill="lightblue" stroke="black" d="M187.73,-97C187.73,-97 447.99,-97 447.99,-97 453.99,-97 459.99,-103 459.99,-109 459.99,-109 459.99,-177 459.99,-177 459.99,-183 453.99,-189 447.99,-189 447.99,-189 187.73,-189 187.73,-189 181.73,-189 175.73,-183 175.73,-177 175.73,-177 175.73,-109 175.73,-109 175.73,-103 181.73,-97 187.73,-97"/>
<text text-anchor="middle" x="317.86" y="-173.8" font-family="Arial" font-size="14.00">IntestinalTissue</text>
<text text-anchor="middle" x="317.86" y="-158.8" font-family="Arial" font-size="14.00">[&#45;]</text>
</a>
</g>
</g>
<!-- ASt -->
<g id="node1" class="node">
<title>ASt</title>
<g id="a_node1"><a xlink:href="#species-ASt" xlink:title="ASt&#10;[&#45;]">
<path fill="gold" stroke="black" d="M415.35,-643C415.35,-643 385.35,-643 385.35,-643 379.35,-643 373.35,-637 373.35,-631 373.35,-631 373.35,-617 373.35,-617 373.35,-611 379.35,-605 385.35,-605 385.35,-605 415.35,-605 415.35,-605 421.35,-605 427.35,-611 427.35,-617 427.35,-617 427.35,-631 427.35,-631 427.35,-637 421.35,-643 415.35,-643"/>
<text text-anchor="middle" x="400.35" y="-627.8" font-family="Arial" font-size="14.00">ASt</text>
<text text-anchor="middle" x="400.35" y="-612.8" font-family="Arial" font-size="14.00">[&#45;]</text>
</a>
</g>
</g>
<!-- AJ -->
<g id="node2" class="node">
<title>AJ</title>
<g id="a_node2"><a xlink:href="#species-AJ" xlink:title="AJ&#10;[&#45;]">
<path fill="gold" stroke="black" d="M415.35,-518C415.35,-518 385.35,-518 385.35,-518 379.35,-518 373.35,-512 373.35,-506 373.35,-506 373.35,-492 373.35,-492 373.35,-486 379.35,-480 385.35,-480 385.35,-480 415.35,-480 415.35,-480 421.35,-480 427.35,-486 427.35,-492 427.35,-492 427.35,-506 427.35,-506 427.35,-512 421.35,-518 415.35,-518"/>
<text text-anchor="middle" x="400.35" y="-502.8" font-family="Arial" font-size="14.00">AJ</text>
<text text-anchor="middle" x="400.35" y="-487.8" font-family="Arial" font-size="14.00">[&#45;]</text>
</a>
</g>
</g>
<!-- ASt&#45;&gt;AJ -->
<g id="edge1" class="edge">
<title>ASt&#45;&gt;AJ</title>
<path fill="none" stroke="black" d="M400.35,-604.85C400.35,-584.68 400.35,-551.86 400.35,-528.31"/>
<polygon fill="black" stroke="black" points="403.85,-528.22 400.35,-518.22 396.85,-528.22 403.85,-528.22"/>
<text text-anchor="middle" x="411.35" y="-576.3" font-family="Times,serif" font-size="14.00">_J0</text>
</g>
<!-- AI -->
<g id="node3" class="node">
<title>AI</title>
<g id="a_node3"><a xlink:href="#species-AI" xlink:title="AI&#10;[&#45;]">
<path fill="gold" stroke="black" d="M333.35,-393C333.35,-393 303.35,-393 303.35,-393 297.35,-393 291.35,-387 291.35,-381 291.35,-381 291.35,-367 291.35,-367 291.35,-361 297.35,-355 303.35,-355 303.35,-355 333.35,-355 333.35,-355 339.35,-355 345.35,-361 345.35,-367 345.35,-367 345.35,-381 345.35,-381 345.35,-387 339.35,-393 333.35,-393"/>
<text text-anchor="middle" x="318.35" y="-377.8" font-family="Arial" font-size="14.00">AI</text>
<text text-anchor="middle" x="318.35" y="-362.8" font-family="Arial" font-size="14.00">[&#45;]</text>
</a>
</g>
</g>
<!-- AJ&#45;&gt;AI -->
<g id="edge2" class="edge">
<title>AJ&#45;&gt;AI</title>
<path fill="none" stroke="black" d="M388.25,-479.85C374.5,-459.23 351.94,-425.38 336.17,-401.74"/>
<polygon fill="black" stroke="black" points="338.96,-399.6 330.5,-393.22 333.13,-403.49 338.96,-399.6"/>
<text text-anchor="middle" x="387.35" y="-451.3" font-family="Times,serif" font-size="14.00">_J1</text>
</g>
<!-- AIT -->
<g id="node9" class="node">
<title>AIT</title>
<g id="a_node9"><a xlink:href="#species-AIT" xlink:title="AIT&#10;[&#45;]">
<path fill="gold" stroke="black" d="M366.35,-143C366.35,-143 336.35,-143 336.35,-143 330.35,-143 324.35,-137 324.35,-131 324.35,-131 324.35,-117 324.35,-117 324.35,-111 330.35,-105 336.35,-105 336.35,-105 366.35,-105 366.35,-105 372.35,-105 378.35,-111 378.35,-117 378.35,-117 378.35,-131 378.35,-131 378.35,-137 372.35,-143 366.35,-143"/>
<text text-anchor="middle" x="351.35" y="-127.8" font-family="Arial" font-size="14.00">AIT</text>
<text text-anchor="middle" x="351.35" y="-112.8" font-family="Arial" font-size="14.00">[&#45;]</text>
</a>
</g>
</g>
<!-- AJ&#45;&gt;AIT -->
<g id="edge3" class="edge">
<title>AJ&#45;&gt;AIT</title>
<path fill="none" stroke="black" d="M405.03,-479.81C407.77,-468.22 410.96,-452.83 412.35,-439 416.44,-398.32 417.82,-387.52 412.35,-347 402.67,-275.28 376.17,-193.95 361.48,-152.49"/>
<polygon fill="black" stroke="black" points="364.78,-151.31 358.11,-143.07 358.19,-153.67 364.78,-151.31"/>
<text text-anchor="middle" x="422.35" y="-326.3" font-family="Times,serif" font-size="14.00">_J3</text>
</g>
<!-- ALI -->
<g id="node4" class="node">
<title>ALI</title>
<g id="a_node4"><a xlink:href="#species-ALI" xlink:title="ALI&#10;[&#45;]">
<path fill="gold" stroke="black" d="M183.35,-268C183.35,-268 153.35,-268 153.35,-268 147.35,-268 141.35,-262 141.35,-256 141.35,-256 141.35,-242 141.35,-242 141.35,-236 147.35,-230 153.35,-230 153.35,-230 183.35,-230 183.35,-230 189.35,-230 195.35,-236 195.35,-242 195.35,-242 195.35,-256 195.35,-256 195.35,-262 189.35,-268 183.35,-268"/>
<text text-anchor="middle" x="168.35" y="-252.8" font-family="Arial" font-size="14.00">ALI</text>
<text text-anchor="middle" x="168.35" y="-237.8" font-family="Arial" font-size="14.00">[&#45;]</text>
</a>
</g>
</g>
<!-- AI&#45;&gt;ALI -->
<g id="edge4" class="edge">
<title>AI&#45;&gt;ALI</title>
<path fill="none" stroke="black" d="M296.22,-354.85C270.29,-333.59 227.23,-298.28 198.32,-274.58"/>
<polygon fill="black" stroke="black" points="200.53,-271.86 190.57,-268.22 196.09,-277.27 200.53,-271.86"/>
<text text-anchor="middle" x="285.35" y="-326.3" font-family="Times,serif" font-size="14.00">_J2</text>
</g>
<!-- AI&#45;&gt;AIT -->
<g id="edge5" class="edge">
<title>AI&#45;&gt;AIT</title>
<path fill="none" stroke="black" d="M320.78,-354.76C326.47,-311.95 340.74,-204.73 347.58,-153.34"/>
<polygon fill="black" stroke="black" points="351.07,-153.64 348.92,-143.26 344.13,-152.71 351.07,-153.64"/>
<text text-anchor="middle" x="349.35" y="-245.3" font-family="Times,serif" font-size="14.00">_J4</text>
</g>
<!-- ALI&#45;&gt;AIT -->
<g id="edge6" class="edge">
<title>ALI&#45;&gt;AIT</title>
<path fill="none" stroke="black" d="M195.35,-229.85C227.34,-208.35 280.72,-172.47 315.98,-148.77"/>
<polygon fill="black" stroke="black" points="318.19,-151.51 324.53,-143.02 314.28,-145.7 318.19,-151.51"/>
<text text-anchor="middle" x="255.35" y="-201.3" font-family="Times,serif" font-size="14.00">_J5</text>
</g>
<!-- ALiver -->
<g id="node5" class="node">
<title>ALiver</title>
<g id="a_node5"><a xlink:href="#species-ALiver" xlink:title="ALiver&#10;[PBPKO:00497]">
<path fill="gold" stroke="black" d="M713.85,-143C713.85,-143 624.85,-143 624.85,-143 618.85,-143 612.85,-137 612.85,-131 612.85,-131 612.85,-117 612.85,-117 612.85,-111 618.85,-105 624.85,-105 624.85,-105 713.85,-105 713.85,-105 719.85,-105 725.85,-111 725.85,-117 725.85,-117 725.85,-131 725.85,-131 725.85,-137 719.85,-143 713.85,-143"/>
<text text-anchor="middle" x="669.35" y="-127.8" font-family="Arial" font-size="14.00">ALiver</text>
<text text-anchor="middle" x="669.35" y="-112.8" font-family="Arial" font-size="14.00">[PBPKO:00497]</text>
</a>
</g>
</g>
<!-- AMet -->
<g id="node6" class="node">
<title>AMet</title>
<g id="a_node6"><a xlink:href="#species-AMet" xlink:title="AMet&#10;[&#45;]">
<path fill="gold" stroke="black" d="M684.35,-54C684.35,-54 654.35,-54 654.35,-54 648.35,-54 642.35,-48 642.35,-42 642.35,-42 642.35,-28 642.35,-28 642.35,-22 648.35,-16 654.35,-16 654.35,-16 684.35,-16 684.35,-16 690.35,-16 696.35,-22 696.35,-28 696.35,-28 696.35,-42 696.35,-42 696.35,-48 690.35,-54 684.35,-54"/>
<text text-anchor="middle" x="669.35" y="-38.8" font-family="Arial" font-size="14.00">AMet</text>
<text text-anchor="middle" x="669.35" y="-23.8" font-family="Arial" font-size="14.00">[&#45;]</text>
</a>
</g>
</g>
<!-- ALiver&#45;&gt;AMet -->
<g id="edge7" class="edge">
<title>ALiver&#45;&gt;AMet</title>
<path fill="none" stroke="black" d="M669.35,-104.97C669.35,-93.19 669.35,-77.56 669.35,-64.16"/>
<polygon fill="black" stroke="black" points="672.85,-64 669.35,-54 665.85,-64 672.85,-64"/>
<text text-anchor="middle" x="684.85" y="-76.3" font-family="Times,serif" font-size="14.00">_J12</text>
</g>
<!-- ABlood -->
<g id="node7" class="node">
<title>ABlood</title>
<g id="a_node7"><a xlink:href="#species-ABlood" xlink:title="ABlood&#10;[&#45;]">
<path fill="gold" stroke="black" d="M795.35,-268C795.35,-268 759.35,-268 759.35,-268 753.35,-268 747.35,-262 747.35,-256 747.35,-256 747.35,-242 747.35,-242 747.35,-236 753.35,-230 759.35,-230 759.35,-230 795.35,-230 795.35,-230 801.35,-230 807.35,-236 807.35,-242 807.35,-242 807.35,-256 807.35,-256 807.35,-262 801.35,-268 795.35,-268"/>
<text text-anchor="middle" x="777.35" y="-252.8" font-family="Arial" font-size="14.00">ABlood</text>
<text text-anchor="middle" x="777.35" y="-237.8" font-family="Arial" font-size="14.00">[&#45;]</text>
</a>
</g>
</g>
<!-- ALiver&#45;&gt;ABlood -->
<g id="edge8" class="edge">
<title>ALiver&#45;&gt;ABlood</title>
<path fill="none" stroke="black" d="M680.61,-143.15C692.51,-161.62 712.44,-190.57 733.35,-212.5 736.9,-216.22 740.84,-219.91 744.86,-223.42"/>
<polygon fill="black" stroke="black" points="742.7,-226.17 752.62,-229.91 747.2,-220.81 742.7,-226.17"/>
<text text-anchor="middle" x="744.35" y="-201.3" font-family="Times,serif" font-size="14.00">_J9</text>
</g>
<!-- ABlood&#45;&gt;ALiver -->
<g id="edge9" class="edge">
<title>ABlood&#45;&gt;ALiver</title>
<path fill="none" stroke="black" d="M771.66,-229.63C767.99,-219.55 762.55,-207.16 755.35,-197.5 741.51,-178.93 722.03,-162.01 705.12,-149.19"/>
<polygon fill="black" stroke="black" points="707.18,-146.36 697.05,-143.24 703.02,-151.99 707.18,-146.36"/>
<text text-anchor="middle" x="775.35" y="-201.3" font-family="Times,serif" font-size="14.00">_J8</text>
</g>
<!-- ARest -->
<g id="node8" class="node">
<title>ARest</title>
<g id="a_node8"><a xlink:href="#species-ARest" xlink:title="ARest&#10;[PBPKO:00501]">
<path fill="gold" stroke="black" d="M1075.85,-143C1075.85,-143 986.85,-143 986.85,-143 980.85,-143 974.85,-137 974.85,-131 974.85,-131 974.85,-117 974.85,-117 974.85,-111 980.85,-105 986.85,-105 986.85,-105 1075.85,-105 1075.85,-105 1081.85,-105 1087.85,-111 1087.85,-117 1087.85,-117 1087.85,-131 1087.85,-131 1087.85,-137 1081.85,-143 1075.85,-143"/>
<text text-anchor="middle" x="1031.35" y="-127.8" font-family="Arial" font-size="14.00">ARest</text>
<text text-anchor="middle" x="1031.35" y="-112.8" font-family="Arial" font-size="14.00">[PBPKO:00501]</text>
</a>
</g>
</g>
<!-- ABlood&#45;&gt;ARest -->
<g id="edge10" class="edge">
<title>ABlood&#45;&gt;ARest</title>
<path fill="none" stroke="black" d="M807.48,-233.41C851.28,-212.2 932.9,-172.67 984.56,-147.66"/>
<polygon fill="black" stroke="black" points="986.37,-150.67 993.84,-143.16 983.32,-144.37 986.37,-150.67"/>
<text text-anchor="middle" x="897.85" y="-201.3" font-family="Times,serif" font-size="14.00">_J10</text>
</g>
<!-- ABlood&#45;&gt;AIT -->
<g id="edge11" class="edge">
<title>ABlood&#45;&gt;AIT</title>
<path fill="none" stroke="black" d="M746.99,-243.7C695.02,-235.88 586.05,-217.45 497.35,-189 458.88,-176.66 416.8,-157.58 387.74,-143.46"/>
<polygon fill="black" stroke="black" points="388.93,-140.14 378.41,-138.88 385.85,-146.43 388.93,-140.14"/>
<text text-anchor="middle" x="592.35" y="-201.3" font-family="Times,serif" font-size="14.00">_J6</text>
</g>
<!-- ARest&#45;&gt;ABlood -->
<g id="edge12" class="edge">
<title>ARest&#45;&gt;ABlood</title>
<path fill="none" stroke="black" d="M1012.8,-143.14C991.49,-163 954.62,-194.43 917.35,-212.5 885.6,-227.89 846.45,-237.09 817.64,-242.25"/>
<polygon fill="black" stroke="black" points="816.79,-238.85 807.52,-243.98 817.96,-245.75 816.79,-238.85"/>
<text text-anchor="middle" x="956.85" y="-201.3" font-family="Times,serif" font-size="14.00">_J11</text>
</g>
<!-- AIT&#45;&gt;ALiver -->
<g id="edge13" class="edge">
<title>AIT&#45;&gt;ALiver</title>
<path fill="none" stroke="black" d="M378.46,-124C427.61,-124 532.74,-124 602.23,-124"/>
<polygon fill="black" stroke="black" points="602.64,-127.5 612.64,-124 602.64,-120.5 602.64,-127.5"/>
<text text-anchor="middle" x="495.6" y="-130.8" font-family="Times,serif" font-size="14.00">_J7</text>
</g>
</g>
</svg>
