<?xml version="1.0" encoding="UTF-8" standalone="no"?>
<!DOCTYPE svg PUBLIC "-//W3C//DTD SVG 1.1//EN"
 "http://www.w3.org/Graphics/SVG/1.1/DTD/svg11.dtd">
<!-- Generated by graphviz version 2.43.0 (0)
 -->
<!-- Title: %3 Pages: 1 -->
<svg width="502pt" height="288pt"
 viewBox="0.00 0.00 501.55 288.00" xmlns="http://www.w3.org/2000/svg" xmlns:xlink="http://www.w3.org/1999/xlink">
<g id="graph0" class="graph" transform="scale(0.41 0.41) rotate(0) translate(4 701)">
<title>%3</title>
<polygon fill="white" stroke="transparent" points="-4,4 -4,-701 1223.75,-701 1223.75,4 -4,4"/>
<g id="clust1" class="cluster">
<title>cluster_Stomach</title>
<g id="a_clust1"><a xlink:href="#compartment-Stomach" xlink:title="Stomach&#10;[PBPKO:00566]">
<path fill="lightblue" stroke="black" d="M307.02,-597C307.02,-597 563.17,-597 563.17,-597 569.17,-597 575.17,-603 575.17,-609 575.17,-609 575.17,-677 575.17,-677 575.17,-683 569.17,-689 563.17,-689 563.17,-689 307.02,-689 307.02,-689 301.02,-689 295.02,-683 295.02,-677 295.02,-677 295.02,-609 295.02,-609 295.02,-603 301.02,-597 307.02,-597"/>
<text text-anchor="middle" x="435.09" y="-673.8" font-family="Arial" font-size="14.00">Stomach</text>
<text text-anchor="middle" x="435.09" y="-658.8" font-family="Arial" font-size="14.00">[PBPKO:00566]</text>
</a>
</g>
</g>
<g id="clust2" class="cluster">
<title>cluster_Jejunum</title>
<g id="a_clust2"><a xlink:href="#compartment-Jejunum" xlink:title="Jejunum&#10;[PBPKO:00482]">
<path fill="lightblue" stroke="black" d="M307.02,-472C307.02,-472 563.17,-472 563.17,-472 569.17,-472 575.17,-478 575.17,-484 575.17,-484 575.17,-552 575.17,-552 575.17,-558 569.17,-564 563.17,-564 563.17,-564 307.02,-564 307.02,-564 301.02,-564 295.02,-558 295.02,-552 295.02,-552 295.02,-484 295.02,-484 295.02,-478 301.02,-472 307.02,-472"/>
<text text-anchor="middle" x="435.09" y="-548.8" font-family="Arial" font-size="14.00">Jejunum</text>
<text text-anchor="middle" x="435.09" y="-533.8" font-family="Arial" font-size="14.00">[PBPKO:00482]</text>
</a>
</g>
</g>
<g id="clust3" class="cluster">
<title>cluster_Ileum</title>
<g id="a_clust3"><a xlink:href="#compartment-Ileum" xlink:title="Ileum&#10;[PBPKO:00481]">
<path fill="lightblue" stroke="black" d="M175.62,-347C175.62,-347 431.77,-347 431.77,-347 437.77,-347 443.77,-353 443.77,-359 443.77,-359 443.77,-427 443.77,-427 443.77,-433 437.77,-439 431.77,-439 431.77,-439 175.62,-439 175.62,-439 169.62,-439 163.62,-433 163.62,-427 163.62,-427 163.62,-359 163.62,-359 163.62,-353 169.62,-347 175.62,-347"/>
<text text-anchor="middle" x="303.7" y="-423.8" font-family="Arial" font-size="14.00">Ileum</text>
<text text-anchor="middle" x="303.7" y="-408.8" font-family="Arial" font-size="14.00">[PBPKO:00481]</text>
</a>
</g>
</g>
<g id="clust4" class="cluster">
<title>cluster_LargeLumen</title>
<g id="a_clust4"><a xlink:href="#compartment-LargeLumen" xlink:title="LargeLumen&#10;[PBPKO:00474]">
<path fill="lightblue" stroke="black" d="M31.83,-222C31.83,-222 287.98,-222 287.98,-222 293.98,-222 299.98,-228 299.98,-234 299.98,-234 299.98,-302 299.98,-302 299.98,-308 293.98,-314 287.98,-314 287.98,-314 31.83,-314 31.83,-314 25.83,-314 19.83,-308 19.83,-302 19.83,-302 19.83,-234 19.83,-234 19.83,-228 25.83,-222 31.83,-222"/>
<text text-anchor="middle" x="159.91" y="-298.8" font-family="Arial" font-size="14.00">LargeLumen</text>
<text text-anchor="middle" x="159.91" y="-283.8" font-family="Arial" font-size="14.00">[PBPKO:00474]</text>
</a>
</g>
</g>
<g id="clust5" class="cluster">
<title>cluster_Liver</title>
<g id="a_clust5"><a xlink:href="#compartment-Liver" xlink:title="Liver&#10;[PBPKO:00558]">
<path fill="lightblue" stroke="black" d="M542.54,-8C542.54,-8 840.83,-8 840.83,-8 846.83,-8 852.83,-14 852.83,-20 852.83,-20 852.83,-177 852.83,-177 852.83,-183 846.83,-189 840.83,-189 840.83,-189 542.54,-189 542.54,-189 536.54,-189 530.54,-183 530.54,-177 530.54,-177 530.54,-20 530.54,-20 530.54,-14 536.54,-8 542.54,-8"/>
<text text-anchor="middle" x="691.69" y="-173.8" font-family="Arial" font-size="14.00">Liver</text>
<text text-anchor="middle" x="691.69" y="-158.8" font-family="Arial" font-size="14.00">[PBPKO:00558]</text>
</a>
</g>
</g>
<g id="clust6" class="cluster">
<title>cluster_Blood</title>
<g id="a_clust6"><a xlink:href="#compartment-Blood" xlink:title="Blood&#10;[PBPKO:00464]">
<path fill="lightblue" stroke="black" d="M646.67,-222C646.67,-222 944.96,-222 944.96,-222 950.96,-222 956.96,-228 956.96,-234 956.96,-234 956.96,-302 956.96,-302 956.96,-308 950.96,-314 944.96,-314 944.96,-314 646.67,-314 646.67,-314 640.67,-314 634.67,-308 634.67,-302 634.67,-302 634.67,-234 634.67,-234 634.67,-228 640.67,-222 646.67,-222"/>
<text text-anchor="middle" x="795.81" y="-298.8" font-family="Arial" font-size="14.00">Blood</text>
<text text-anchor="middle" x="795.81" y="-283.8" font-family="Arial" font-size="14.00">[PBPKO:00464]</text>
</a>
</g>
</g>
<g id="clust7" class="cluster">
<title>cluster_Rest</title>
<g id="a_clust7"><a xlink:href="#compartment-Rest" xlink:title="Rest&#10;[PBPKO:00450]">
<path fill="lightblue" stroke="black" d="M889.62,-97C889.62,-97 1187.92,-97 1187.92,-97 1193.92,-97 1199.92,-103 1199.92,-109 1199.92,-109 1199.92,-177 1199.92,-177 1199.92,-183 1193.92,-189 1187.92,-189 1187.92,-189 889.62,-189 889.62,-189 883.62,-189 877.62,-183 877.62,-177 877.62,-177 877.62,-109 877.62,-109 877.62,-103 883.62,-97 889.62,-97"/>
<text text-anchor="middle" x="1038.77" y="-173.8" font-family="Arial" font-size="14.00">Rest</text>
<text text-anchor="middle" x="1038.77" y="-158.8" font-family="Arial" font-size="14.00">[PBPKO:00450]</text>
</a>
</g>
</g>
<g id="clust8" class="cluster">
<title>cluster_IntestinalTissue</title>
<g id="a_clust8"><a xlink:href="#compartment-IntestinalTissue" xlink:title="IntestinalTissue&#10;[&#45;]">
<path fill="lightblue" stroke="black" d="M230.17,-97C230.17,-97 478.88,-97 478.88,-97 484.88,-97 490.88,-103 490.88,-109 490.88,-109 490.88,-177 490.88,-177 490.88,-183 484.88,-189 478.88,-189 478.88,-189 230.17,-189 230.17,-189 224.17,-189 218.17,-183 218.17,-177 218.17,-177 218.17,-109 218.17,-109 218.17,-103 224.17,-97 230.17,-97"/>
<text text-anchor="middle" x="354.52" y="-173.8" font-family="Arial" font-size="14.00">IntestinalTissue</text>
<text text-anchor="middle" x="354.52" y="-158.8" font-family="Arial" font-size="14.00">[&#45;]</text>
</a>
</g>
</g>
<!-- ASt -->
<g id="node1" class="node">
<title>ASt</title>
<g id="a_node1"><a xlink:href="#species-ASt" xlink:title="ASt&#10;[&#45;]">
<path fill="gold" stroke="black" d="M449.33,-643C449.33,-643 419.33,-643 419.33,-643 413.33,-643 407.33,-637 407.33,-631 407.33,-631 407.33,-617 407.33,-617 407.33,-611 413.33,-605 419.33,-605 419.33,-605 449.33,-605 449.33,-605 455.33,-605 461.33,-611 461.33,-617 461.33,-617 461.33,-631 461.33,-631 461.33,-637 455.33,-643 449.33,-643"/>
<text text-anchor="middle" x="434.33" y="-627.8" font-family="Arial" font-size="14.00">ASt</text>
<text text-anchor="middle" x="434.33" y="-612.8" font-family="Arial" font-size="14.00">[&#45;]</text>
</a>
</g>
</g>
<!-- AJ -->
<g id="node2" class="node">
<title>AJ</title>
<g id="a_node2"><a xlink:href="#species-AJ" xlink:title="AJ&#10;[&#45;]">
<path fill="gold" stroke="black" d="M449.33,-518C449.33,-518 419.33,-518 419.33,-518 413.33,-518 407.33,-512 407.33,-506 407.33,-506 407.33,-492 407.33,-492 407.33,-486 413.33,-480 419.33,-480 419.33,-480 449.33,-480 449.33,-480 455.33,-480 461.33,-486 461.33,-492 461.33,-492 461.33,-506 461.33,-506 461.33,-512 455.33,-518 449.33,-518"/>
<text text-anchor="middle" x="434.33" y="-502.8" font-family="Arial" font-size="14.00">AJ</text>
<text text-anchor="middle" x="434.33" y="-487.8" font-family="Arial" font-size="14.00">[&#45;]</text>
</a>
</g>
</g>
<!-- ASt&#45;&gt;AJ -->
<g id="edge1" class="edge">
<title>ASt&#45;&gt;AJ</title>
<path fill="none" stroke="black" d="M434.33,-604.85C434.33,-584.68 434.33,-551.86 434.33,-528.31"/>
<polygon fill="black" stroke="black" points="437.83,-528.22 434.33,-518.22 430.83,-528.22 437.83,-528.22"/>
<text text-anchor="middle" x="445.33" y="-576.3" font-family="Times,serif" font-size="14.00">_J0</text>
</g>
<!-- AI -->
<g id="node3" class="node">
<title>AI</title>
<g id="a_node3"><a xlink:href="#species-AI" xlink:title="AI&#10;[&#45;]">
<path fill="gold" stroke="black" d="M369.33,-393C369.33,-393 339.33,-393 339.33,-393 333.33,-393 327.33,-387 327.33,-381 327.33,-381 327.33,-367 327.33,-367 327.33,-361 333.33,-355 339.33,-355 339.33,-355 369.33,-355 369.33,-355 375.33,-355 381.33,-361 381.33,-367 381.33,-367 381.33,-381 381.33,-381 381.33,-387 375.33,-393 369.33,-393"/>
<text text-anchor="middle" x="354.33" y="-377.8" font-family="Arial" font-size="14.00">AI</text>
<text text-anchor="middle" x="354.33" y="-362.8" font-family="Arial" font-size="14.00">[&#45;]</text>
</a>
</g>
</g>
<!-- AJ&#45;&gt;AI -->
<g id="edge2" class="edge">
<title>AJ&#45;&gt;AI</title>
<path fill="none" stroke="black" d="M422.53,-479.85C409.12,-459.23 387.1,-425.38 371.72,-401.74"/>
<polygon fill="black" stroke="black" points="374.57,-399.7 366.19,-393.22 368.7,-403.51 374.57,-399.7"/>
<text text-anchor="middle" x="422.33" y="-451.3" font-family="Times,serif" font-size="14.00">_J1</text>
</g>
<!-- AIT -->
<g id="node9" class="node">
<title>AIT</title>
<g id="a_node9"><a xlink:href="#species-AIT" xlink:title="AIT&#10;[&#45;]">
<path fill="gold" stroke="black" d="M401.33,-143C401.33,-143 371.33,-143 371.33,-143 365.33,-143 359.33,-137 359.33,-131 359.33,-131 359.33,-117 359.33,-117 359.33,-111 365.33,-105 371.33,-105 371.33,-105 401.33,-105 401.33,-105 407.33,-105 413.33,-111 413.33,-117 413.33,-117 413.33,-131 413.33,-131 413.33,-137 407.33,-143 401.33,-143"/>
<text text-anchor="middle" x="386.33" y="-127.8" font-family="Arial" font-size="14.00">AIT</text>
<text text-anchor="middle" x="386.33" y="-112.8" font-family="Arial" font-size="14.00">[&#45;]</text>
</a>
</g>
</g>
<!-- AJ&#45;&gt;AIT -->
<g id="edge3" class="edge">
<title>AJ&#45;&gt;AIT</title>
<path fill="none" stroke="black" d="M439.41,-479.83C442.37,-468.25 445.82,-452.87 447.33,-439 451.76,-398.35 452.8,-387.52 447.33,-347 437.66,-275.28 411.15,-193.95 396.47,-152.49"/>
<polygon fill="black" stroke="black" points="399.76,-151.31 393.09,-143.07 393.17,-153.67 399.76,-151.31"/>
<text text-anchor="middle" x="457.33" y="-326.3" font-family="Times,serif" font-size="14.00">_J3</text>
</g>
<!-- ALI -->
<g id="node4" class="node">
<title>ALI</title>
<g id="a_node4"><a xlink:href="#species-ALI" xlink:title="ALI&#10;[&#45;]">
<path fill="gold" stroke="black" d="M225.33,-268C225.33,-268 195.33,-268 195.33,-268 189.33,-268 183.33,-262 183.33,-256 183.33,-256 183.33,-242 183.33,-242 183.33,-236 189.33,-230 195.33,-230 195.33,-230 225.33,-230 225.33,-230 231.33,-230 237.33,-236 237.33,-242 237.33,-242 237.33,-256 237.33,-256 237.33,-262 231.33,-268 225.33,-268"/>
<text text-anchor="middle" x="210.33" y="-252.8" font-family="Arial" font-size="14.00">ALI</text>
<text text-anchor="middle" x="210.33" y="-237.8" font-family="Arial" font-size="14.00">[&#45;]</text>
</a>
</g>
</g>
<!-- AI&#45;&gt;ALI -->
<g id="edge4" class="edge">
<title>AI&#45;&gt;ALI</title>
<path fill="none" stroke="black" d="M333.09,-354.85C308.31,-333.69 267.21,-298.58 239.47,-274.88"/>
<polygon fill="black" stroke="black" points="241.55,-272.06 231.67,-268.22 237,-277.38 241.55,-272.06"/>
<text text-anchor="middle" x="323.33" y="-326.3" font-family="Times,serif" font-size="14.00">_J2</text>
</g>
<!-- AI&#45;&gt;AIT -->
<g id="edge5" class="edge">
<title>AI&#45;&gt;AIT</title>
<path fill="none" stroke="black" d="M356.69,-354.76C362.21,-311.95 376.05,-204.73 382.68,-153.34"/>
<polygon fill="black" stroke="black" points="386.17,-153.63 383.98,-143.26 379.23,-152.73 386.17,-153.63"/>
<text text-anchor="middle" x="385.33" y="-245.3" font-family="Times,serif" font-size="14.00">_J4</text>
</g>
<!-- ALI&#45;&gt;AIT -->
<g id="edge6" class="edge">
<title>ALI&#45;&gt;AIT</title>
<path fill="none" stroke="black" d="M236.3,-229.85C267.07,-208.35 318.41,-172.47 352.32,-148.77"/>
<polygon fill="black" stroke="black" points="354.35,-151.62 360.54,-143.02 350.34,-145.88 354.35,-151.62"/>
<text text-anchor="middle" x="294.33" y="-201.3" font-family="Times,serif" font-size="14.00">_J5</text>
</g>
<!-- ALiver -->
<g id="node5" class="node">
<title>ALiver</title>
<g id="a_node5"><a xlink:href="#species-ALiver" xlink:title="ALiver&#10;[PBPKO:00497]">
<path fill="gold" stroke="black" d="M735.83,-143C735.83,-143 646.83,-143 646.83,-143 640.83,-143 634.83,-137 634.83,-131 634.83,-131 634.83,-117 634.83,-117 634.83,-111 640.83,-105 646.83,-105 646.83,-105 735.83,-105 735.83,-105 741.83,-105 747.83,-111 747.83,-117 747.83,-117 747.83,-131 747.83,-131 747.83,-137 741.83,-143 735.83,-143"/>
<text text-anchor="middle" x="691.33" y="-127.8" font-family="Arial" font-size="14.00">ALiver</text>
<text text-anchor="middle" x="691.33" y="-112.8" font-family="Arial" font-size="14.00">[PBPKO:00497]</text>
</a>
</g>
</g>
<!-- AMet -->
<g id="node6" class="node">
<title>AMet</title>
<g id="a_node6"><a xlink:href="#species-AMet" xlink:title="AMet&#10;[PBPKO:00497]">
<path fill="gold" stroke="black" d="M735.83,-54C735.83,-54 646.83,-54 646.83,-54 640.83,-54 634.83,-48 634.83,-42 634.83,-42 634.83,-28 634.83,-28 634.83,-22 640.83,-16 646.83,-16 646.83,-16 735.83,-16 735.83,-16 741.83,-16 747.83,-22 747.83,-28 747.83,-28 747.83,-42 747.83,-42 747.83,-48 741.83,-54 735.83,-54"/>
<text text-anchor="middle" x="691.33" y="-38.8" font-family="Arial" font-size="14.00">AMet</text>
<text text-anchor="middle" x="691.33" y="-23.8" font-family="Arial" font-size="14.00">[PBPKO:00497]</text>
</a>
</g>
</g>
<!-- ALiver&#45;&gt;AMet -->
<g id="edge7" class="edge">
<title>ALiver&#45;&gt;AMet</title>
<path fill="none" stroke="black" d="M691.33,-104.97C691.33,-93.19 691.33,-77.56 691.33,-64.16"/>
<polygon fill="black" stroke="black" points="694.83,-64 691.33,-54 687.83,-64 694.83,-64"/>
<text text-anchor="middle" x="706.83" y="-76.3" font-family="Times,serif" font-size="14.00">_J12</text>
</g>
<!-- ABlood -->
<g id="node7" class="node">
<title>ABlood</title>
<g id="a_node7"><a xlink:href="#species-ABlood" xlink:title="ABlood&#10;[PBPKO:00623]">
<path fill="gold" stroke="black" d="M839.83,-268C839.83,-268 750.83,-268 750.83,-268 744.83,-268 738.83,-262 738.83,-256 738.83,-256 738.83,-242 738.83,-242 738.83,-236 744.83,-230 750.83,-230 750.83,-230 839.83,-230 839.83,-230 845.83,-230 851.83,-236 851.83,-242 851.83,-242 851.83,-256 851.83,-256 851.83,-262 845.83,-268 839.83,-268"/>
<text text-anchor="middle" x="795.33" y="-252.8" font-family="Arial" font-size="14.00">ABlood</text>
<text text-anchor="middle" x="795.33" y="-237.8" font-family="Arial" font-size="14.00">[PBPKO:00623]</text>
</a>
</g>
</g>
<!-- ALiver&#45;&gt;ABlood -->
<g id="edge8" class="edge">
<title>ALiver&#45;&gt;ABlood</title>
<path fill="none" stroke="black" d="M701.67,-143.21C712.66,-161.73 731.2,-190.73 751.33,-212.5 754.66,-216.09 758.36,-219.63 762.16,-223.01"/>
<polygon fill="black" stroke="black" points="760.12,-225.87 770.02,-229.65 764.64,-220.52 760.12,-225.87"/>
<text text-anchor="middle" x="762.33" y="-201.3" font-family="Times,serif" font-size="14.00">_J9</text>
</g>
<!-- ABlood&#45;&gt;ALiver -->
<g id="edge9" class="edge">
<title>ABlood&#45;&gt;ALiver</title>
<path fill="none" stroke="black" d="M789.56,-229.7C785.86,-219.63 780.42,-207.24 773.33,-197.5 760.1,-179.31 741.58,-162.44 725.48,-149.56"/>
<polygon fill="black" stroke="black" points="727.36,-146.59 717.33,-143.2 723.06,-152.11 727.36,-146.59"/>
<text text-anchor="middle" x="793.33" y="-201.3" font-family="Times,serif" font-size="14.00">_J8</text>
</g>
<!-- ARest -->
<g id="node8" class="node">
<title>ARest</title>
<g id="a_node8"><a xlink:href="#species-ARest" xlink:title="ARest&#10;[PBPKO:00501]">
<path fill="gold" stroke="black" d="M1082.83,-143C1082.83,-143 993.83,-143 993.83,-143 987.83,-143 981.83,-137 981.83,-131 981.83,-131 981.83,-117 981.83,-117 981.83,-111 987.83,-105 993.83,-105 993.83,-105 1082.83,-105 1082.83,-105 1088.83,-105 1094.83,-111 1094.83,-117 1094.83,-117 1094.83,-131 1094.83,-131 1094.83,-137 1088.83,-143 1082.83,-143"/>
<text text-anchor="middle" x="1038.33" y="-127.8" font-family="Arial" font-size="14.00">ARest</text>
<text text-anchor="middle" x="1038.33" y="-112.8" font-family="Arial" font-size="14.00">[PBPKO:00501]</text>
</a>
</g>
</g>
<!-- ABlood&#45;&gt;ARest -->
<g id="edge10" class="edge">
<title>ABlood&#45;&gt;ARest</title>
<path fill="none" stroke="black" d="M830.93,-229.98C874.06,-208.15 946.76,-171.35 993.63,-147.63"/>
<polygon fill="black" stroke="black" points="995.3,-150.7 1002.64,-143.07 992.14,-144.46 995.3,-150.7"/>
<text text-anchor="middle" x="910.83" y="-201.3" font-family="Times,serif" font-size="14.00">_J10</text>
</g>
<!-- ABlood&#45;&gt;AIT -->
<g id="edge11" class="edge">
<title>ABlood&#45;&gt;AIT</title>
<path fill="none" stroke="black" d="M738.75,-239.2C683.66,-229.8 597.98,-212.93 526.33,-189 489.9,-176.83 450.24,-158.15 422.46,-144.1"/>
<polygon fill="black" stroke="black" points="424.02,-140.97 413.52,-139.54 420.83,-147.2 424.02,-140.97"/>
<text text-anchor="middle" x="617.33" y="-201.3" font-family="Times,serif" font-size="14.00">_J6</text>
</g>
<!-- ARest&#45;&gt;ABlood -->
<g id="edge12" class="edge">
<title>ARest&#45;&gt;ABlood</title>
<path fill="none" stroke="black" d="M1020.92,-143.13C1000.87,-162.98 966.07,-194.39 930.33,-212.5 909.15,-223.24 884.4,-230.95 861.92,-236.39"/>
<polygon fill="black" stroke="black" points="861.07,-233 852.11,-238.66 862.64,-239.82 861.07,-233"/>
<text text-anchor="middle" x="968.83" y="-201.3" font-family="Times,serif" font-size="14.00">_J11</text>
</g>
<!-- AIT&#45;&gt;ALiver -->
<g id="edge13" class="edge">
<title>AIT&#45;&gt;ALiver</title>
<path fill="none" stroke="black" d="M413.4,-124C460.38,-124 558.33,-124 624.47,-124"/>
<polygon fill="black" stroke="black" points="624.8,-127.5 634.8,-124 624.8,-120.5 624.8,-127.5"/>
<text text-anchor="middle" x="524.08" y="-130.8" font-family="Times,serif" font-size="14.00">_J7</text>
</g>
</g>
</svg>
