<?xml version="1.0" encoding="UTF-8" standalone="no"?>
<!DOCTYPE svg PUBLIC "-//W3C//DTD SVG 1.1//EN"
 "http://www.w3.org/Graphics/SVG/1.1/DTD/svg11.dtd">
<!-- Generated by graphviz version 2.43.0 (0)
 -->
<!-- Title: %3 Pages: 1 -->
<svg width="504pt" height="272pt"
 viewBox="0.00 0.00 504.00 271.62" xmlns="http://www.w3.org/2000/svg" xmlns:xlink="http://www.w3.org/1999/xlink">
<g id="graph0" class="graph" transform="scale(0.3 0.3) rotate(0) translate(4 891)">
<title>%3</title>
<polygon fill="white" stroke="transparent" points="-4,4 -4,-891 1656.73,-891 1656.73,4 -4,4"/>
<g id="clust1" class="cluster">
<title>cluster_Stomach</title>
<g id="a_clust1"><a xlink:href="#compartment-Stomach" xlink:title="Stomach&#10;[&#45;]">
<path fill="lightblue" stroke="black" d="M1064.89,-749C1064.89,-749 1203.39,-749 1203.39,-749 1209.39,-749 1215.39,-755 1215.39,-761 1215.39,-761 1215.39,-867 1215.39,-867 1215.39,-873 1209.39,-879 1203.39,-879 1203.39,-879 1064.89,-879 1064.89,-879 1058.89,-879 1052.89,-873 1052.89,-867 1052.89,-867 1052.89,-761 1052.89,-761 1052.89,-755 1058.89,-749 1064.89,-749"/>
<text text-anchor="middle" x="1134.14" y="-863.8" font-family="Arial" font-size="14.00">Stomach</text>
<text text-anchor="middle" x="1134.14" y="-848.8" font-family="Arial" font-size="14.00">[&#45;]</text>
</a>
</g>
</g>
<g id="clust2" class="cluster">
<title>cluster_SI</title>
<g id="a_clust2"><a xlink:href="#compartment-SI" xlink:title="SI&#10;[&#45;]">
<path fill="lightblue" stroke="black" d="M788.97,-497C788.97,-497 1057.82,-497 1057.82,-497 1063.82,-497 1069.82,-503 1069.82,-509 1069.82,-509 1069.82,-704 1069.82,-704 1069.82,-710 1063.82,-716 1057.82,-716 1057.82,-716 788.97,-716 788.97,-716 782.97,-716 776.97,-710 776.97,-704 776.97,-704 776.97,-509 776.97,-509 776.97,-503 782.97,-497 788.97,-497"/>
<text text-anchor="middle" x="923.39" y="-700.8" font-family="Arial" font-size="14.00">SI</text>
<text text-anchor="middle" x="923.39" y="-685.8" font-family="Arial" font-size="14.00">[&#45;]</text>
</a>
</g>
</g>
<g id="clust3" class="cluster">
<title>cluster_Liver</title>
<g id="a_clust3"><a xlink:href="#compartment-Liver" xlink:title="Liver&#10;[&#45;]">
<path fill="lightblue" stroke="black" d="M785.59,-171C785.59,-171 1293.11,-171 1293.11,-171 1299.11,-171 1305.11,-177 1305.11,-183 1305.11,-183 1305.11,-452 1305.11,-452 1305.11,-458 1299.11,-464 1293.11,-464 1293.11,-464 785.59,-464 785.59,-464 779.59,-464 773.59,-458 773.59,-452 773.59,-452 773.59,-183 773.59,-183 773.59,-177 779.59,-171 785.59,-171"/>
<text text-anchor="middle" x="1039.35" y="-448.8" font-family="Arial" font-size="14.00">Liver</text>
<text text-anchor="middle" x="1039.35" y="-433.8" font-family="Arial" font-size="14.00">[&#45;]</text>
</a>
</g>
</g>
<g id="clust4" class="cluster">
<title>cluster_Plasma</title>
<g id="a_clust4"><a xlink:href="#compartment-Plasma" xlink:title="Plasma&#10;[PBPKO:00488]">
<path fill="lightblue" stroke="black" d="M772.04,-8C772.04,-8 1374.36,-8 1374.36,-8 1380.36,-8 1386.36,-14 1386.36,-20 1386.36,-20 1386.36,-126 1386.36,-126 1386.36,-132 1380.36,-138 1374.36,-138 1374.36,-138 772.04,-138 772.04,-138 766.04,-138 760.04,-132 760.04,-126 760.04,-126 760.04,-20 760.04,-20 760.04,-14 766.04,-8 772.04,-8"/>
<text text-anchor="middle" x="1073.2" y="-122.8" font-family="Arial" font-size="14.00">Plasma</text>
<text text-anchor="middle" x="1073.2" y="-107.8" font-family="Arial" font-size="14.00">[PBPKO:00488]</text>
</a>
</g>
</g>
<g id="clust5" class="cluster">
<title>cluster_Rest</title>
<g id="a_clust5"><a xlink:href="#compartment-Rest" xlink:title="Rest&#10;[PBPKO:00450]">
<path fill="lightblue" stroke="black" d="M1330.65,-171C1330.65,-171 1526.71,-171 1526.71,-171 1532.71,-171 1538.71,-177 1538.71,-183 1538.71,-183 1538.71,-289 1538.71,-289 1538.71,-295 1532.71,-301 1526.71,-301 1526.71,-301 1330.65,-301 1330.65,-301 1324.65,-301 1318.65,-295 1318.65,-289 1318.65,-289 1318.65,-183 1318.65,-183 1318.65,-177 1324.65,-171 1330.65,-171"/>
<text text-anchor="middle" x="1428.68" y="-285.8" font-family="Arial" font-size="14.00">Rest</text>
<text text-anchor="middle" x="1428.68" y="-270.8" font-family="Arial" font-size="14.00">[PBPKO:00450]</text>
</a>
</g>
</g>
<g id="clust6" class="cluster">
<title>cluster_GILumen</title>
<g id="a_clust6"><a xlink:href="#compartment-GILumen" xlink:title="GILumen&#10;[&#45;]">
<path fill="lightblue" stroke="black" d="M125.41,-171C125.41,-171 714.19,-171 714.19,-171 720.19,-171 726.19,-177 726.19,-183 726.19,-183 726.19,-289 726.19,-289 726.19,-295 720.19,-301 714.19,-301 714.19,-301 125.41,-301 125.41,-301 119.41,-301 113.41,-295 113.41,-289 113.41,-289 113.41,-183 113.41,-183 113.41,-177 119.41,-171 125.41,-171"/>
<text text-anchor="middle" x="419.8" y="-285.8" font-family="Arial" font-size="14.00">GILumen</text>
<text text-anchor="middle" x="419.8" y="-270.8" font-family="Arial" font-size="14.00">[&#45;]</text>
</a>
</g>
</g>
<g id="clust7" class="cluster">
<title>cluster_Feces</title>
<g id="a_clust7"><a xlink:href="#compartment-Feces" xlink:title="Feces&#10;[&#45;]">
<path fill="lightblue" stroke="black" d="M25.54,-8C25.54,-8 509.37,-8 509.37,-8 515.37,-8 521.37,-14 521.37,-20 521.37,-20 521.37,-126 521.37,-126 521.37,-132 515.37,-138 509.37,-138 509.37,-138 25.54,-138 25.54,-138 19.54,-138 13.54,-132 13.54,-126 13.54,-126 13.54,-20 13.54,-20 13.54,-14 19.54,-8 25.54,-8"/>
<text text-anchor="middle" x="267.45" y="-122.8" font-family="Arial" font-size="14.00">Feces</text>
<text text-anchor="middle" x="267.45" y="-107.8" font-family="Arial" font-size="14.00">[&#45;]</text>
</a>
</g>
</g>
<!-- AStomach -->
<g id="node1" class="node">
<title>AStomach</title>
<g id="a_node1"><a xlink:href="#species-AStomach" xlink:title="AStomach&#10;[&#45;]">
<path fill="gold" stroke="black" d="M1161.73,-795C1161.73,-795 1105.73,-795 1105.73,-795 1099.73,-795 1093.73,-789 1093.73,-783 1093.73,-783 1093.73,-769 1093.73,-769 1093.73,-763 1099.73,-757 1105.73,-757 1105.73,-757 1161.73,-757 1161.73,-757 1167.73,-757 1173.73,-763 1173.73,-769 1173.73,-769 1173.73,-783 1173.73,-783 1173.73,-789 1167.73,-795 1161.73,-795"/>
<text text-anchor="middle" x="1133.73" y="-779.8" font-family="Arial" font-size="14.00">AStomach</text>
<text text-anchor="middle" x="1133.73" y="-764.8" font-family="Arial" font-size="14.00">[&#45;]</text>
</a>
</g>
</g>
<!-- ASI -->
<g id="node2" class="node">
<title>ASI</title>
<g id="a_node2"><a xlink:href="#species-ASI" xlink:title="ASI&#10;[&#45;]">
<path fill="gold" stroke="black" d="M1011.73,-632C1011.73,-632 981.73,-632 981.73,-632 975.73,-632 969.73,-626 969.73,-620 969.73,-620 969.73,-606 969.73,-606 969.73,-600 975.73,-594 981.73,-594 981.73,-594 1011.73,-594 1011.73,-594 1017.73,-594 1023.73,-600 1023.73,-606 1023.73,-606 1023.73,-620 1023.73,-620 1023.73,-626 1017.73,-632 1011.73,-632"/>
<text text-anchor="middle" x="996.73" y="-616.8" font-family="Arial" font-size="14.00">ASI</text>
<text text-anchor="middle" x="996.73" y="-601.8" font-family="Arial" font-size="14.00">[&#45;]</text>
</a>
</g>
</g>
<!-- AStomach&#45;&gt;ASI -->
<g id="edge1" class="edge">
<title>AStomach&#45;&gt;ASI</title>
<path fill="none" stroke="black" d="M1118.28,-756.84C1094.02,-728.34 1046.9,-672.96 1018.99,-640.16"/>
<polygon fill="black" stroke="black" points="1021.48,-637.68 1012.33,-632.34 1016.15,-642.22 1021.48,-637.68"/>
<text text-anchor="middle" x="1110.73" y="-728.3" font-family="Times,serif" font-size="14.00">_J0</text>
</g>
<!-- ALiver -->
<g id="node5" class="node">
<title>ALiver</title>
<g id="a_node5"><a xlink:href="#species-ALiver" xlink:title="ALiver&#10;[PBPKO:00497]">
<path fill="gold" stroke="black" d="M1239.23,-380C1239.23,-380 1150.23,-380 1150.23,-380 1144.23,-380 1138.23,-374 1138.23,-368 1138.23,-368 1138.23,-354 1138.23,-354 1138.23,-348 1144.23,-342 1150.23,-342 1150.23,-342 1239.23,-342 1239.23,-342 1245.23,-342 1251.23,-348 1251.23,-354 1251.23,-354 1251.23,-368 1251.23,-368 1251.23,-374 1245.23,-380 1239.23,-380"/>
<text text-anchor="middle" x="1194.73" y="-364.8" font-family="Arial" font-size="14.00">ALiver</text>
<text text-anchor="middle" x="1194.73" y="-349.8" font-family="Arial" font-size="14.00">[PBPKO:00497]</text>
</a>
</g>
</g>
<!-- AStomach&#45;&gt;ALiver -->
<g id="edge2" class="edge">
<title>AStomach&#45;&gt;ALiver</title>
<path fill="none" stroke="black" d="M1136.39,-756.99C1145.98,-692.04 1178.84,-469.55 1190.55,-390.31"/>
<polygon fill="black" stroke="black" points="1194.05,-390.51 1192.05,-380.11 1187.13,-389.49 1194.05,-390.51"/>
<text text-anchor="middle" x="1175.73" y="-565.3" font-family="Times,serif" font-size="14.00">_J1</text>
</g>
<!-- ASIMet1 -->
<g id="node3" class="node">
<title>ASIMet1</title>
<g id="a_node3"><a xlink:href="#species-ASIMet1" xlink:title="ASIMet1&#10;[&#45;]">
<path fill="gold" stroke="black" d="M1019.23,-543C1019.23,-543 974.23,-543 974.23,-543 968.23,-543 962.23,-537 962.23,-531 962.23,-531 962.23,-517 962.23,-517 962.23,-511 968.23,-505 974.23,-505 974.23,-505 1019.23,-505 1019.23,-505 1025.23,-505 1031.23,-511 1031.23,-517 1031.23,-517 1031.23,-531 1031.23,-531 1031.23,-537 1025.23,-543 1019.23,-543"/>
<text text-anchor="middle" x="996.73" y="-527.8" font-family="Arial" font-size="14.00">ASIMet1</text>
<text text-anchor="middle" x="996.73" y="-512.8" font-family="Arial" font-size="14.00">[&#45;]</text>
</a>
</g>
</g>
<!-- ASI&#45;&gt;ASIMet1 -->
<g id="edge3" class="edge">
<title>ASI&#45;&gt;ASIMet1</title>
<path fill="none" stroke="black" d="M996.73,-593.97C996.73,-582.19 996.73,-566.56 996.73,-553.16"/>
<polygon fill="black" stroke="black" points="1000.23,-553 996.73,-543 993.23,-553 1000.23,-553"/>
<text text-anchor="middle" x="1007.73" y="-565.3" font-family="Times,serif" font-size="14.00">_J4</text>
</g>
<!-- ASIMet2 -->
<g id="node4" class="node">
<title>ASIMet2</title>
<g id="a_node4"><a xlink:href="#species-ASIMet2" xlink:title="ASIMet2&#10;[&#45;]">
<path fill="gold" stroke="black" d="M872.23,-543C872.23,-543 827.23,-543 827.23,-543 821.23,-543 815.23,-537 815.23,-531 815.23,-531 815.23,-517 815.23,-517 815.23,-511 821.23,-505 827.23,-505 827.23,-505 872.23,-505 872.23,-505 878.23,-505 884.23,-511 884.23,-517 884.23,-517 884.23,-531 884.23,-531 884.23,-537 878.23,-543 872.23,-543"/>
<text text-anchor="middle" x="849.73" y="-527.8" font-family="Arial" font-size="14.00">ASIMet2</text>
<text text-anchor="middle" x="849.73" y="-512.8" font-family="Arial" font-size="14.00">[&#45;]</text>
</a>
</g>
</g>
<!-- ASI&#45;&gt;ASIMet2 -->
<g id="edge4" class="edge">
<title>ASI&#45;&gt;ASIMet2</title>
<path fill="none" stroke="black" d="M969.42,-595.84C946.77,-582.43 914.27,-563.2 888.85,-548.16"/>
<polygon fill="black" stroke="black" points="890.57,-545.11 880.18,-543.03 887.01,-551.13 890.57,-545.11"/>
<text text-anchor="middle" x="946.73" y="-565.3" font-family="Times,serif" font-size="14.00">_J8</text>
</g>
<!-- ASI&#45;&gt;ALiver -->
<g id="edge5" class="edge">
<title>ASI&#45;&gt;ALiver</title>
<path fill="none" stroke="black" d="M1011.29,-593.62C1046.06,-549.72 1134.02,-438.66 1174.17,-387.96"/>
<polygon fill="black" stroke="black" points="1176.95,-390.09 1180.41,-380.07 1171.46,-385.74 1176.95,-390.09"/>
<text text-anchor="middle" x="1096.73" y="-520.3" font-family="Times,serif" font-size="14.00">_J2</text>
</g>
<!-- AFeces -->
<g id="node17" class="node">
<title>AFeces</title>
<g id="a_node17"><a xlink:href="#species-AFeces" xlink:title="AFeces&#10;[&#45;]">
<path fill="gold" stroke="black" d="M98.73,-54C98.73,-54 60.73,-54 60.73,-54 54.73,-54 48.73,-48 48.73,-42 48.73,-42 48.73,-28 48.73,-28 48.73,-22 54.73,-16 60.73,-16 60.73,-16 98.73,-16 98.73,-16 104.73,-16 110.73,-22 110.73,-28 110.73,-28 110.73,-42 110.73,-42 110.73,-48 104.73,-54 98.73,-54"/>
<text text-anchor="middle" x="79.73" y="-38.8" font-family="Arial" font-size="14.00">AFeces</text>
<text text-anchor="middle" x="79.73" y="-23.8" font-family="Arial" font-size="14.00">[&#45;]</text>
</a>
</g>
</g>
<!-- ASI&#45;&gt;AFeces -->
<g id="edge6" class="edge">
<title>ASI&#45;&gt;AFeces</title>
<path fill="none" stroke="black" d="M969.28,-612.35C816.71,-613.92 79.73,-616.75 79.73,-525 79.73,-525 79.73,-525 79.73,-197 79.73,-150.54 79.73,-96.54 79.73,-64.38"/>
<polygon fill="black" stroke="black" points="83.23,-64.35 79.73,-54.35 76.23,-64.35 83.23,-64.35"/>
<text text-anchor="middle" x="90.73" y="-357.3" font-family="Times,serif" font-size="14.00">_J3</text>
</g>
<!-- APVMet1 -->
<g id="node8" class="node">
<title>APVMet1</title>
<g id="a_node8"><a xlink:href="#species-APVMet1" xlink:title="APVMet1&#10;[&#45;]">
<path fill="gold" stroke="black" d="M1030.73,-380C1030.73,-380 980.73,-380 980.73,-380 974.73,-380 968.73,-374 968.73,-368 968.73,-368 968.73,-354 968.73,-354 968.73,-348 974.73,-342 980.73,-342 980.73,-342 1030.73,-342 1030.73,-342 1036.73,-342 1042.73,-348 1042.73,-354 1042.73,-354 1042.73,-368 1042.73,-368 1042.73,-374 1036.73,-380 1030.73,-380"/>
<text text-anchor="middle" x="1005.73" y="-364.8" font-family="Arial" font-size="14.00">APVMet1</text>
<text text-anchor="middle" x="1005.73" y="-349.8" font-family="Arial" font-size="14.00">[&#45;]</text>
</a>
</g>
</g>
<!-- ASIMet1&#45;&gt;APVMet1 -->
<g id="edge7" class="edge">
<title>ASIMet1&#45;&gt;APVMet1</title>
<path fill="none" stroke="black" d="M997.74,-504.84C999.29,-477.06 1002.27,-423.76 1004.12,-390.7"/>
<polygon fill="black" stroke="black" points="1007.64,-390.52 1004.7,-380.34 1000.65,-390.13 1007.64,-390.52"/>
<text text-anchor="middle" x="1009.73" y="-476.3" font-family="Times,serif" font-size="14.00">_J5</text>
</g>
<!-- APVMet2 -->
<g id="node9" class="node">
<title>APVMet2</title>
<g id="a_node9"><a xlink:href="#species-APVMet2" xlink:title="APVMet2&#10;[&#45;]">
<path fill="gold" stroke="black" d="M874.73,-380C874.73,-380 824.73,-380 824.73,-380 818.73,-380 812.73,-374 812.73,-368 812.73,-368 812.73,-354 812.73,-354 812.73,-348 818.73,-342 824.73,-342 824.73,-342 874.73,-342 874.73,-342 880.73,-342 886.73,-348 886.73,-354 886.73,-354 886.73,-368 886.73,-368 886.73,-374 880.73,-380 874.73,-380"/>
<text text-anchor="middle" x="849.73" y="-364.8" font-family="Arial" font-size="14.00">APVMet2</text>
<text text-anchor="middle" x="849.73" y="-349.8" font-family="Arial" font-size="14.00">[&#45;]</text>
</a>
</g>
</g>
<!-- ASIMet2&#45;&gt;APVMet2 -->
<g id="edge8" class="edge">
<title>ASIMet2&#45;&gt;APVMet2</title>
<path fill="none" stroke="black" d="M849.73,-504.84C849.73,-477.06 849.73,-423.76 849.73,-390.7"/>
<polygon fill="black" stroke="black" points="853.23,-390.34 849.73,-380.34 846.23,-390.34 853.23,-390.34"/>
<text text-anchor="middle" x="860.73" y="-476.3" font-family="Times,serif" font-size="14.00">_J9</text>
</g>
<!-- ALiverMet1 -->
<g id="node6" class="node">
<title>ALiverMet1</title>
<g id="a_node6"><a xlink:href="#species-ALiverMet1" xlink:title="ALiverMet1&#10;[&#45;]">
<path fill="gold" stroke="black" d="M1249.73,-217C1249.73,-217 1187.73,-217 1187.73,-217 1181.73,-217 1175.73,-211 1175.73,-205 1175.73,-205 1175.73,-191 1175.73,-191 1175.73,-185 1181.73,-179 1187.73,-179 1187.73,-179 1249.73,-179 1249.73,-179 1255.73,-179 1261.73,-185 1261.73,-191 1261.73,-191 1261.73,-205 1261.73,-205 1261.73,-211 1255.73,-217 1249.73,-217"/>
<text text-anchor="middle" x="1218.73" y="-201.8" font-family="Arial" font-size="14.00">ALiverMet1</text>
<text text-anchor="middle" x="1218.73" y="-186.8" font-family="Arial" font-size="14.00">[&#45;]</text>
</a>
</g>
</g>
<!-- ALiver&#45;&gt;ALiverMet1 -->
<g id="edge9" class="edge">
<title>ALiver&#45;&gt;ALiverMet1</title>
<path fill="none" stroke="black" d="M1197.43,-341.84C1201.59,-313.94 1209.59,-260.29 1214.51,-227.27"/>
<polygon fill="black" stroke="black" points="1217.98,-227.74 1215.99,-217.34 1211.06,-226.71 1217.98,-227.74"/>
<text text-anchor="middle" x="1217.23" y="-313.3" font-family="Times,serif" font-size="14.00">_J12</text>
</g>
<!-- ALiverMet2 -->
<g id="node7" class="node">
<title>ALiverMet2</title>
<g id="a_node7"><a xlink:href="#species-ALiverMet2" xlink:title="ALiverMet2&#10;[&#45;]">
<path fill="gold" stroke="black" d="M1073.73,-217C1073.73,-217 1011.73,-217 1011.73,-217 1005.73,-217 999.73,-211 999.73,-205 999.73,-205 999.73,-191 999.73,-191 999.73,-185 1005.73,-179 1011.73,-179 1011.73,-179 1073.73,-179 1073.73,-179 1079.73,-179 1085.73,-185 1085.73,-191 1085.73,-191 1085.73,-205 1085.73,-205 1085.73,-211 1079.73,-217 1073.73,-217"/>
<text text-anchor="middle" x="1042.73" y="-201.8" font-family="Arial" font-size="14.00">ALiverMet2</text>
<text text-anchor="middle" x="1042.73" y="-186.8" font-family="Arial" font-size="14.00">[&#45;]</text>
</a>
</g>
</g>
<!-- ALiver&#45;&gt;ALiverMet2 -->
<g id="edge10" class="edge">
<title>ALiver&#45;&gt;ALiverMet2</title>
<path fill="none" stroke="black" d="M1177.59,-341.84C1150.56,-313.22 1097.95,-257.49 1067.03,-224.74"/>
<polygon fill="black" stroke="black" points="1069.45,-222.21 1060.04,-217.34 1064.36,-227.01 1069.45,-222.21"/>
<text text-anchor="middle" x="1173.23" y="-313.3" font-family="Times,serif" font-size="14.00">_J15</text>
</g>
<!-- APlasma -->
<g id="node10" class="node">
<title>APlasma</title>
<g id="a_node10"><a xlink:href="#species-APlasma" xlink:title="APlasma&#10;[PBPKO:00502]">
<path fill="gold" stroke="black" d="M1321.23,-54C1321.23,-54 1232.23,-54 1232.23,-54 1226.23,-54 1220.23,-48 1220.23,-42 1220.23,-42 1220.23,-28 1220.23,-28 1220.23,-22 1226.23,-16 1232.23,-16 1232.23,-16 1321.23,-16 1321.23,-16 1327.23,-16 1333.23,-22 1333.23,-28 1333.23,-28 1333.23,-42 1333.23,-42 1333.23,-48 1327.23,-54 1321.23,-54"/>
<text text-anchor="middle" x="1276.73" y="-38.8" font-family="Arial" font-size="14.00">APlasma</text>
<text text-anchor="middle" x="1276.73" y="-23.8" font-family="Arial" font-size="14.00">[PBPKO:00502]</text>
</a>
</g>
</g>
<!-- ALiver&#45;&gt;APlasma -->
<g id="edge11" class="edge">
<title>ALiver&#45;&gt;APlasma</title>
<path fill="none" stroke="black" d="M1251.24,-360.74C1351.74,-360.68 1554.95,-353.85 1596.73,-301 1632.56,-255.67 1628.67,-219.14 1596.73,-171 1540.5,-86.25 1419.44,-54.57 1343.4,-42.82"/>
<polygon fill="black" stroke="black" points="1343.84,-39.35 1333.44,-41.36 1342.82,-46.28 1343.84,-39.35"/>
<text text-anchor="middle" x="1637.23" y="-194.3" font-family="Times,serif" font-size="14.00">_J19</text>
</g>
<!-- APlasmaMet1 -->
<g id="node11" class="node">
<title>APlasmaMet1</title>
<g id="a_node11"><a xlink:href="#species-APlasmaMet1" xlink:title="APlasmaMet1&#10;[&#45;]">
<path fill="gold" stroke="black" d="M1101.73,-54C1101.73,-54 1023.73,-54 1023.73,-54 1017.73,-54 1011.73,-48 1011.73,-42 1011.73,-42 1011.73,-28 1011.73,-28 1011.73,-22 1017.73,-16 1023.73,-16 1023.73,-16 1101.73,-16 1101.73,-16 1107.73,-16 1113.73,-22 1113.73,-28 1113.73,-28 1113.73,-42 1113.73,-42 1113.73,-48 1107.73,-54 1101.73,-54"/>
<text text-anchor="middle" x="1062.73" y="-38.8" font-family="Arial" font-size="14.00">APlasmaMet1</text>
<text text-anchor="middle" x="1062.73" y="-23.8" font-family="Arial" font-size="14.00">[&#45;]</text>
</a>
</g>
</g>
<!-- ALiverMet1&#45;&gt;APlasmaMet1 -->
<g id="edge12" class="edge">
<title>ALiverMet1&#45;&gt;APlasmaMet1</title>
<path fill="none" stroke="black" d="M1201.14,-178.84C1173.4,-150.22 1119.4,-94.49 1087.67,-61.74"/>
<polygon fill="black" stroke="black" points="1089.97,-59.08 1080.49,-54.34 1084.94,-63.95 1089.97,-59.08"/>
<text text-anchor="middle" x="1196.23" y="-150.3" font-family="Times,serif" font-size="14.00">_J13</text>
</g>
<!-- AGILumenMet1 -->
<g id="node15" class="node">
<title>AGILumenMet1</title>
<g id="a_node15"><a xlink:href="#species-AGILumenMet1" xlink:title="AGILumenMet1&#10;[&#45;]">
<path fill="gold" stroke="black" d="M489.23,-217C489.23,-217 400.23,-217 400.23,-217 394.23,-217 388.23,-211 388.23,-205 388.23,-205 388.23,-191 388.23,-191 388.23,-185 394.23,-179 400.23,-179 400.23,-179 489.23,-179 489.23,-179 495.23,-179 501.23,-185 501.23,-191 501.23,-191 501.23,-205 501.23,-205 501.23,-211 495.23,-217 489.23,-217"/>
<text text-anchor="middle" x="444.73" y="-201.8" font-family="Arial" font-size="14.00">AGILumenMet1</text>
<text text-anchor="middle" x="444.73" y="-186.8" font-family="Arial" font-size="14.00">[&#45;]</text>
</a>
</g>
</g>
<!-- ALiverMet1&#45;&gt;AGILumenMet1 -->
<g id="edge13" class="edge">
<title>ALiverMet1&#45;&gt;AGILumenMet1</title>
<path fill="none" stroke="black" d="M1201.68,-217.04C1179.65,-240.07 1138.84,-277.61 1094.73,-292.5 988.82,-328.26 698.97,-324 591.73,-292.5 546.16,-279.12 501.35,-246.76 473.41,-223.65"/>
<polygon fill="black" stroke="black" points="475.55,-220.87 465.65,-217.1 471.04,-226.22 475.55,-220.87"/>
<text text-anchor="middle" x="830.73" y="-313.3" font-family="Times,serif" font-size="14.00">_J14</text>
</g>
<!-- APlasmaMet2 -->
<g id="node12" class="node">
<title>APlasmaMet2</title>
<g id="a_node12"><a xlink:href="#species-APlasmaMet2" xlink:title="APlasmaMet2&#10;[&#45;]">
<path fill="gold" stroke="black" d="M898.73,-54C898.73,-54 820.73,-54 820.73,-54 814.73,-54 808.73,-48 808.73,-42 808.73,-42 808.73,-28 808.73,-28 808.73,-22 814.73,-16 820.73,-16 820.73,-16 898.73,-16 898.73,-16 904.73,-16 910.73,-22 910.73,-28 910.73,-28 910.73,-42 910.73,-42 910.73,-48 904.73,-54 898.73,-54"/>
<text text-anchor="middle" x="859.73" y="-38.8" font-family="Arial" font-size="14.00">APlasmaMet2</text>
<text text-anchor="middle" x="859.73" y="-23.8" font-family="Arial" font-size="14.00">[&#45;]</text>
</a>
</g>
</g>
<!-- ALiverMet2&#45;&gt;APlasmaMet2 -->
<g id="edge14" class="edge">
<title>ALiverMet2&#45;&gt;APlasmaMet2</title>
<path fill="none" stroke="black" d="M1022.09,-178.84C989.33,-150.02 925.34,-93.72 888.22,-61.07"/>
<polygon fill="black" stroke="black" points="890.11,-58.07 880.29,-54.09 885.48,-63.32 890.11,-58.07"/>
<text text-anchor="middle" x="1013.23" y="-150.3" font-family="Times,serif" font-size="14.00">_J16</text>
</g>
<!-- AGILumenMet2 -->
<g id="node16" class="node">
<title>AGILumenMet2</title>
<g id="a_node16"><a xlink:href="#species-AGILumenMet2" xlink:title="AGILumenMet2&#10;[&#45;]">
<path fill="gold" stroke="black" d="M268.23,-217C268.23,-217 179.23,-217 179.23,-217 173.23,-217 167.23,-211 167.23,-205 167.23,-205 167.23,-191 167.23,-191 167.23,-185 173.23,-179 179.23,-179 179.23,-179 268.23,-179 268.23,-179 274.23,-179 280.23,-185 280.23,-191 280.23,-191 280.23,-205 280.23,-205 280.23,-211 274.23,-217 268.23,-217"/>
<text text-anchor="middle" x="223.73" y="-201.8" font-family="Arial" font-size="14.00">AGILumenMet2</text>
<text text-anchor="middle" x="223.73" y="-186.8" font-family="Arial" font-size="14.00">[&#45;]</text>
</a>
</g>
</g>
<!-- ALiverMet2&#45;&gt;AGILumenMet2 -->
<g id="edge15" class="edge">
<title>ALiverMet2&#45;&gt;AGILumenMet2</title>
<path fill="none" stroke="black" d="M1026.2,-217.03C1004.8,-240.05 965.08,-277.58 921.73,-292.5 807.84,-331.7 495.73,-324.9 379.73,-292.5 331.78,-279.11 283.89,-246.52 254.07,-223.37"/>
<polygon fill="black" stroke="black" points="256.16,-220.57 246.15,-217.11 251.82,-226.06 256.16,-220.57"/>
<text text-anchor="middle" x="719.73" y="-313.3" font-family="Times,serif" font-size="14.00">_J17</text>
</g>
<!-- APVMet1&#45;&gt;APlasmaMet1 -->
<g id="edge16" class="edge">
<title>APVMet1&#45;&gt;APlasmaMet1</title>
<path fill="none" stroke="black" d="M1042.84,-354.17C1067.44,-350.41 1100.47,-345.57 1129.73,-342 1175.5,-336.41 1511.77,-335.18 1542.73,-301 1581.51,-258.17 1579.12,-215.88 1542.73,-171 1509.54,-130.07 1479.02,-153.01 1426.73,-146.5 1379.28,-140.59 1257.12,-153.04 1211.73,-138 1163.79,-122.12 1117.18,-85.83 1089.21,-61.11"/>
<polygon fill="black" stroke="black" points="1091.26,-58.25 1081.49,-54.16 1086.58,-63.45 1091.26,-58.25"/>
<text text-anchor="middle" x="1581.73" y="-194.3" font-family="Times,serif" font-size="14.00">_J6</text>
</g>
<!-- APVMet1&#45;&gt;AGILumenMet1 -->
<g id="edge17" class="edge">
<title>APVMet1&#45;&gt;AGILumenMet1</title>
<path fill="none" stroke="black" d="M968.71,-352.8C947.44,-348.96 920.17,-344.51 895.73,-342 872.77,-339.65 498.86,-338.77 480.73,-324.5 451.54,-301.53 444.97,-256.54 444.02,-227.13"/>
<polygon fill="black" stroke="black" points="447.52,-227.03 443.89,-217.08 440.52,-227.12 447.52,-227.03"/>
<text text-anchor="middle" x="491.73" y="-313.3" font-family="Times,serif" font-size="14.00">_J7</text>
</g>
<!-- APVMet2&#45;&gt;APlasmaMet2 -->
<g id="edge18" class="edge">
<title>APVMet2&#45;&gt;APlasmaMet2</title>
<path fill="none" stroke="black" d="M824.23,-341.75C819.16,-336.78 814.53,-330.96 811.73,-324.5 809.07,-318.39 811.24,-316.15 811.73,-309.5 818.37,-218.79 841.29,-113.24 852.89,-63.99"/>
<polygon fill="black" stroke="black" points="856.34,-64.62 855.25,-54.09 849.53,-63 856.34,-64.62"/>
<text text-anchor="middle" x="845.23" y="-194.3" font-family="Times,serif" font-size="14.00">_J10</text>
</g>
<!-- APVMet2&#45;&gt;AGILumenMet2 -->
<g id="edge19" class="edge">
<title>APVMet2&#45;&gt;AGILumenMet2</title>
<path fill="none" stroke="black" d="M812.5,-358.5C723.86,-354.66 502.37,-343.42 430.73,-324.5 406.6,-318.13 401.56,-313.08 379.73,-301 335.99,-276.8 288.23,-244.66 257.24,-222.98"/>
<polygon fill="black" stroke="black" points="259.15,-220.05 248.95,-217.16 255.12,-225.77 259.15,-220.05"/>
<text text-anchor="middle" x="446.23" y="-313.3" font-family="Times,serif" font-size="14.00">_J11</text>
</g>
<!-- APlasma&#45;&gt;ALiver -->
<g id="edge20" class="edge">
<title>APlasma&#45;&gt;ALiver</title>
<path fill="none" stroke="black" d="M1256.67,-54.16C1222.52,-83.67 1149.62,-140.84 1075.73,-161.5 1063.27,-164.98 968.49,-161.49 959.73,-171 920.57,-213.49 924.19,-255.44 959.73,-301 980.31,-327.39 1066.12,-343.77 1128.1,-352.39"/>
<polygon fill="black" stroke="black" points="1127.84,-355.88 1138.22,-353.75 1128.77,-348.95 1127.84,-355.88"/>
<text text-anchor="middle" x="975.23" y="-194.3" font-family="Times,serif" font-size="14.00">_J18</text>
</g>
<!-- ARest -->
<g id="node13" class="node">
<title>ARest</title>
<g id="a_node13"><a xlink:href="#species-ARest" xlink:title="ARest&#10;[PBPKO:00501]">
<path fill="gold" stroke="black" d="M1473.23,-217C1473.23,-217 1384.23,-217 1384.23,-217 1378.23,-217 1372.23,-211 1372.23,-205 1372.23,-205 1372.23,-191 1372.23,-191 1372.23,-185 1378.23,-179 1384.23,-179 1384.23,-179 1473.23,-179 1473.23,-179 1479.23,-179 1485.23,-185 1485.23,-191 1485.23,-191 1485.23,-205 1485.23,-205 1485.23,-211 1479.23,-217 1473.23,-217"/>
<text text-anchor="middle" x="1428.73" y="-201.8" font-family="Arial" font-size="14.00">ARest</text>
<text text-anchor="middle" x="1428.73" y="-186.8" font-family="Arial" font-size="14.00">[PBPKO:00501]</text>
</a>
</g>
</g>
<!-- APlasma&#45;&gt;ARest -->
<g id="edge21" class="edge">
<title>APlasma&#45;&gt;ARest</title>
<path fill="none" stroke="black" d="M1294.04,-54.34C1321.17,-83.08 1373.79,-138.81 1404.62,-171.46"/>
<polygon fill="black" stroke="black" points="1402.18,-173.98 1411.59,-178.84 1407.27,-169.17 1402.18,-173.98"/>
<text text-anchor="middle" x="1407.23" y="-150.3" font-family="Times,serif" font-size="14.00">_J20</text>
</g>
<!-- ARest&#45;&gt;APlasma -->
<g id="edge22" class="edge">
<title>ARest&#45;&gt;APlasma</title>
<path fill="none" stroke="black" d="M1431.71,-178.71C1432.47,-168.65 1431.91,-156.27 1426.73,-146.5 1405.44,-106.37 1362.36,-77.01 1327.81,-58.69"/>
<polygon fill="black" stroke="black" points="1329.26,-55.5 1318.77,-54.04 1326.06,-61.72 1329.26,-55.5"/>
<text text-anchor="middle" x="1446.23" y="-150.3" font-family="Times,serif" font-size="14.00">_J21</text>
</g>
<!-- AGILumen -->
<g id="node14" class="node">
<title>AGILumen</title>
<g id="a_node14"><a xlink:href="#species-AGILumen" xlink:title="AGILumen&#10;[&#45;]">
<path fill="gold" stroke="black" d="M671.23,-217C671.23,-217 612.23,-217 612.23,-217 606.23,-217 600.23,-211 600.23,-205 600.23,-205 600.23,-191 600.23,-191 600.23,-185 606.23,-179 612.23,-179 612.23,-179 671.23,-179 671.23,-179 677.23,-179 683.23,-185 683.23,-191 683.23,-191 683.23,-205 683.23,-205 683.23,-211 677.23,-217 671.23,-217"/>
<text text-anchor="middle" x="641.73" y="-201.8" font-family="Arial" font-size="14.00">AGILumen</text>
<text text-anchor="middle" x="641.73" y="-186.8" font-family="Arial" font-size="14.00">[&#45;]</text>
</a>
</g>
</g>
<!-- AGILumenMet1&#45;&gt;ALiver -->
<g id="edge23" class="edge">
<title>AGILumenMet1&#45;&gt;ALiver</title>
<path fill="none" stroke="black" d="M466.28,-217.24C493.79,-239.72 543.61,-277.78 591.73,-301 624.33,-316.74 634.04,-318.4 669.73,-324.5 837.26,-353.12 882.39,-327.49 1051.73,-342 1076.7,-344.14 1104.03,-347.36 1128.05,-350.49"/>
<polygon fill="black" stroke="black" points="1127.75,-353.98 1138.12,-351.82 1128.67,-347.04 1127.75,-353.98"/>
<text text-anchor="middle" x="685.23" y="-313.3" font-family="Times,serif" font-size="14.00">_J24</text>
</g>
<!-- AGILumenMet1&#45;&gt;APlasmaMet1 -->
<g id="edge24" class="edge">
<title>AGILumenMet1&#45;&gt;APlasmaMet1</title>
<path fill="none" stroke="black" d="M501.46,-185.94C528.69,-180.9 561.82,-175.14 591.73,-171 736.85,-150.89 782.6,-189.6 919.73,-138 965.45,-120.79 1009.94,-85.18 1036.84,-60.94"/>
<polygon fill="black" stroke="black" points="1039.27,-63.46 1044.28,-54.12 1034.54,-58.3 1039.27,-63.46"/>
<text text-anchor="middle" x="903.23" y="-150.3" font-family="Times,serif" font-size="14.00">_J22</text>
</g>
<!-- AFecesMet1 -->
<g id="node18" class="node">
<title>AFecesMet1</title>
<g id="a_node18"><a xlink:href="#species-AFecesMet1" xlink:title="AFecesMet1&#10;[&#45;]">
<path fill="gold" stroke="black" d="M464.23,-54C464.23,-54 395.23,-54 395.23,-54 389.23,-54 383.23,-48 383.23,-42 383.23,-42 383.23,-28 383.23,-28 383.23,-22 389.23,-16 395.23,-16 395.23,-16 464.23,-16 464.23,-16 470.23,-16 476.23,-22 476.23,-28 476.23,-28 476.23,-42 476.23,-42 476.23,-48 470.23,-54 464.23,-54"/>
<text text-anchor="middle" x="429.73" y="-38.8" font-family="Arial" font-size="14.00">AFecesMet1</text>
<text text-anchor="middle" x="429.73" y="-23.8" font-family="Arial" font-size="14.00">[&#45;]</text>
</a>
</g>
</g>
<!-- AGILumenMet1&#45;&gt;AFecesMet1 -->
<g id="edge25" class="edge">
<title>AGILumenMet1&#45;&gt;AFecesMet1</title>
<path fill="none" stroke="black" d="M443.04,-178.84C440.45,-151.06 435.48,-97.76 432.4,-64.7"/>
<polygon fill="black" stroke="black" points="435.85,-63.97 431.44,-54.34 428.88,-64.62 435.85,-63.97"/>
<text text-anchor="middle" x="456.23" y="-150.3" font-family="Times,serif" font-size="14.00">_J23</text>
</g>
<!-- AGILumenMet2&#45;&gt;ALiver -->
<g id="edge26" class="edge">
<title>AGILumenMet2&#45;&gt;ALiver</title>
<path fill="none" stroke="black" d="M244.09,-217.34C272.25,-241.46 325.74,-282.87 379.73,-301 431.67,-318.45 448.44,-302.01 502.73,-309.5 535.11,-313.97 542.28,-320.55 574.73,-324.5 785.32,-350.11 840.28,-324.85 1051.73,-342 1076.71,-344.03 1104.05,-347.22 1128.06,-350.37"/>
<polygon fill="black" stroke="black" points="1127.76,-353.86 1138.13,-351.7 1128.68,-346.92 1127.76,-353.86"/>
<text text-anchor="middle" x="590.23" y="-313.3" font-family="Times,serif" font-size="14.00">_J27</text>
</g>
<!-- AGILumenMet2&#45;&gt;APlasmaMet2 -->
<g id="edge27" class="edge">
<title>AGILumenMet2&#45;&gt;APlasmaMet2</title>
<path fill="none" stroke="black" d="M280.28,-186.64C309.84,-181.47 346.66,-175.39 379.73,-171 422.23,-165.36 433.77,-170.32 475.73,-161.5 596.43,-136.12 732.5,-86.39 805.87,-57.74"/>
<polygon fill="black" stroke="black" points="807.34,-60.92 815.37,-54.01 804.78,-54.41 807.34,-60.92"/>
<text text-anchor="middle" x="544.23" y="-150.3" font-family="Times,serif" font-size="14.00">_J25</text>
</g>
<!-- AFecesMet2 -->
<g id="node19" class="node">
<title>AFecesMet2</title>
<g id="a_node19"><a xlink:href="#species-AFecesMet2" xlink:title="AFecesMet2&#10;[&#45;]">
<path fill="gold" stroke="black" d="M276.23,-54C276.23,-54 207.23,-54 207.23,-54 201.23,-54 195.23,-48 195.23,-42 195.23,-42 195.23,-28 195.23,-28 195.23,-22 201.23,-16 207.23,-16 207.23,-16 276.23,-16 276.23,-16 282.23,-16 288.23,-22 288.23,-28 288.23,-28 288.23,-42 288.23,-42 288.23,-48 282.23,-54 276.23,-54"/>
<text text-anchor="middle" x="241.73" y="-38.8" font-family="Arial" font-size="14.00">AFecesMet2</text>
<text text-anchor="middle" x="241.73" y="-23.8" font-family="Arial" font-size="14.00">[&#45;]</text>
</a>
</g>
</g>
<!-- AGILumenMet2&#45;&gt;AFecesMet2 -->
<g id="edge28" class="edge">
<title>AGILumenMet2&#45;&gt;AFecesMet2</title>
<path fill="none" stroke="black" d="M225.76,-178.84C228.86,-151.06 234.82,-97.76 238.52,-64.7"/>
<polygon fill="black" stroke="black" points="242.04,-64.66 239.68,-54.34 235.09,-63.89 242.04,-64.66"/>
<text text-anchor="middle" x="244.23" y="-150.3" font-family="Times,serif" font-size="14.00">_J26</text>
</g>
</g>
</svg>
