<?xml version="1.0" encoding="UTF-8" standalone="no"?>
<!DOCTYPE svg PUBLIC "-//W3C//DTD SVG 1.1//EN"
 "http://www.w3.org/Graphics/SVG/1.1/DTD/svg11.dtd">
<!-- Generated by graphviz version 2.43.0 (0)
 -->
<!-- Title: %3 Pages: 1 -->
<svg width="501pt" height="288pt"
 viewBox="0.00 0.00 501.19 288.00" xmlns="http://www.w3.org/2000/svg" xmlns:xlink="http://www.w3.org/1999/xlink">
<g id="graph0" class="graph" transform="scale(0.47 0.47) rotate(0) translate(4 612)">
<title>%3</title>
<polygon fill="white" stroke="transparent" points="-4,4 -4,-612 1068,-612 1068,4 -4,4"/>
<g id="clust1" class="cluster">
<title>cluster_Stomach</title>
<g id="a_clust1"><a xlink:href="#compartment-Stomach" xlink:title="Stomach&#10;[&#45;]">
<path fill="lightblue" stroke="black" d="M101.77,-508C101.77,-508 313.85,-508 313.85,-508 319.85,-508 325.85,-514 325.85,-520 325.85,-520 325.85,-588 325.85,-588 325.85,-594 319.85,-600 313.85,-600 313.85,-600 101.77,-600 101.77,-600 95.77,-600 89.77,-594 89.77,-588 89.77,-588 89.77,-520 89.77,-520 89.77,-514 95.77,-508 101.77,-508"/>
<text text-anchor="middle" x="207.81" y="-584.8" font-family="Arial" font-size="14.00">Stomach</text>
<text text-anchor="middle" x="207.81" y="-569.8" font-family="Arial" font-size="14.00">[&#45;]</text>
</a>
</g>
</g>
<g id="clust2" class="cluster">
<title>cluster_GITissue</title>
<g id="a_clust2"><a xlink:href="#compartment-GITissue" xlink:title="GITissue&#10;[&#45;]">
<path fill="lightblue" stroke="black" d="M58.55,-258C58.55,-258 353.75,-258 353.75,-258 359.75,-258 365.75,-264 365.75,-270 365.75,-270 365.75,-338 365.75,-338 365.75,-344 359.75,-350 353.75,-350 353.75,-350 58.55,-350 58.55,-350 52.55,-350 46.55,-344 46.55,-338 46.55,-338 46.55,-270 46.55,-270 46.55,-264 52.55,-258 58.55,-258"/>
<text text-anchor="middle" x="206.15" y="-334.8" font-family="Arial" font-size="14.00">GITissue</text>
<text text-anchor="middle" x="206.15" y="-319.8" font-family="Arial" font-size="14.00">[&#45;]</text>
</a>
</g>
</g>
<g id="clust3" class="cluster">
<title>cluster_Duodenum</title>
<g id="a_clust3"><a xlink:href="#compartment-Duodenum" xlink:title="Duodenum&#10;[&#45;]">
<path fill="lightblue" stroke="black" d="M38.6,-383C38.6,-383 373.7,-383 373.7,-383 379.7,-383 385.7,-389 385.7,-395 385.7,-395 385.7,-463 385.7,-463 385.7,-469 379.7,-475 373.7,-475 373.7,-475 38.6,-475 38.6,-475 32.6,-475 26.6,-469 26.6,-463 26.6,-463 26.6,-395 26.6,-395 26.6,-389 32.6,-383 38.6,-383"/>
<text text-anchor="middle" x="206.15" y="-459.8" font-family="Arial" font-size="14.00">Duodenum</text>
<text text-anchor="middle" x="206.15" y="-444.8" font-family="Arial" font-size="14.00">[&#45;]</text>
</a>
</g>
</g>
<g id="clust4" class="cluster">
<title>cluster_Liver</title>
<g id="a_clust4"><a xlink:href="#compartment-Liver" xlink:title="Liver&#10;[&#45;]">
<path fill="lightblue" stroke="black" d="M121.73,-8C121.73,-8 410.27,-8 410.27,-8 416.27,-8 422.27,-14 422.27,-20 422.27,-20 422.27,-213 422.27,-213 422.27,-219 416.27,-225 410.27,-225 410.27,-225 121.73,-225 121.73,-225 115.73,-225 109.73,-219 109.73,-213 109.73,-213 109.73,-20 109.73,-20 109.73,-14 115.73,-8 121.73,-8"/>
<text text-anchor="middle" x="266" y="-209.8" font-family="Arial" font-size="14.00">Liver</text>
<text text-anchor="middle" x="266" y="-194.8" font-family="Arial" font-size="14.00">[&#45;]</text>
</a>
</g>
</g>
<g id="clust5" class="cluster">
<title>cluster_Plasma</title>
<g id="a_clust5"><a xlink:href="#compartment-Plasma" xlink:title="Plasma&#10;[&#45;]">
<path fill="lightblue" stroke="black" d="M460.88,-133C460.88,-133 809.27,-133 809.27,-133 815.27,-133 821.27,-139 821.27,-145 821.27,-145 821.27,-338 821.27,-338 821.27,-344 815.27,-350 809.27,-350 809.27,-350 460.88,-350 460.88,-350 454.88,-350 448.88,-344 448.88,-338 448.88,-338 448.88,-145 448.88,-145 448.88,-139 454.88,-133 460.88,-133"/>
<text text-anchor="middle" x="635.08" y="-334.8" font-family="Arial" font-size="14.00">Plasma</text>
<text text-anchor="middle" x="635.08" y="-319.8" font-family="Arial" font-size="14.00">[&#45;]</text>
</a>
</g>
</g>
<g id="clust6" class="cluster">
<title>cluster_Rest</title>
<g id="a_clust6"><a xlink:href="#compartment-Rest" xlink:title="Rest&#10;[&#45;]">
<path fill="lightblue" stroke="black" d="M530.7,-383C530.7,-383 739.45,-383 739.45,-383 745.45,-383 751.45,-389 751.45,-395 751.45,-395 751.45,-463 751.45,-463 751.45,-469 745.45,-475 739.45,-475 739.45,-475 530.7,-475 530.7,-475 524.7,-475 518.7,-469 518.7,-463 518.7,-463 518.7,-395 518.7,-395 518.7,-389 524.7,-383 530.7,-383"/>
<text text-anchor="middle" x="635.08" y="-459.8" font-family="Arial" font-size="14.00">Rest</text>
<text text-anchor="middle" x="635.08" y="-444.8" font-family="Arial" font-size="14.00">[&#45;]</text>
</a>
</g>
</g>
<g id="clust7" class="cluster">
<title>cluster_Urine</title>
<g id="a_clust7"><a xlink:href="#compartment-Urine" xlink:title="Urine&#10;[&#45;]">
<path fill="lightblue" stroke="black" d="M803.35,-8C803.35,-8 1025.4,-8 1025.4,-8 1031.4,-8 1037.4,-14 1037.4,-20 1037.4,-20 1037.4,-88 1037.4,-88 1037.4,-94 1031.4,-100 1025.4,-100 1025.4,-100 803.35,-100 803.35,-100 797.35,-100 791.35,-94 791.35,-88 791.35,-88 791.35,-20 791.35,-20 791.35,-14 797.35,-8 803.35,-8"/>
<text text-anchor="middle" x="914.38" y="-84.8" font-family="Arial" font-size="14.00">Urine</text>
<text text-anchor="middle" x="914.38" y="-69.8" font-family="Arial" font-size="14.00">[&#45;]</text>
</a>
</g>
</g>
<!-- ASt -->
<g id="node1" class="node">
<title>ASt</title>
<g id="a_node1"><a xlink:href="#species-ASt" xlink:title="ASt&#10;[&#45;]">
<path fill="gold" stroke="black" d="M220.73,-554C220.73,-554 190.73,-554 190.73,-554 184.73,-554 178.73,-548 178.73,-542 178.73,-542 178.73,-528 178.73,-528 178.73,-522 184.73,-516 190.73,-516 190.73,-516 220.73,-516 220.73,-516 226.73,-516 232.73,-522 232.73,-528 232.73,-528 232.73,-542 232.73,-542 232.73,-548 226.73,-554 220.73,-554"/>
<text text-anchor="middle" x="205.73" y="-538.8" font-family="Arial" font-size="14.00">ASt</text>
<text text-anchor="middle" x="205.73" y="-523.8" font-family="Arial" font-size="14.00">[&#45;]</text>
</a>
</g>
</g>
<!-- ADuodenum -->
<g id="node3" class="node">
<title>ADuodenum</title>
<g id="a_node3"><a xlink:href="#species-ADuodenum" xlink:title="ADuodenum&#10;[&#45;]">
<path fill="gold" stroke="black" d="M239.73,-429C239.73,-429 171.73,-429 171.73,-429 165.73,-429 159.73,-423 159.73,-417 159.73,-417 159.73,-403 159.73,-403 159.73,-397 165.73,-391 171.73,-391 171.73,-391 239.73,-391 239.73,-391 245.73,-391 251.73,-397 251.73,-403 251.73,-403 251.73,-417 251.73,-417 251.73,-423 245.73,-429 239.73,-429"/>
<text text-anchor="middle" x="205.73" y="-413.8" font-family="Arial" font-size="14.00">ADuodenum</text>
<text text-anchor="middle" x="205.73" y="-398.8" font-family="Arial" font-size="14.00">[&#45;]</text>
</a>
</g>
</g>
<!-- ASt&#45;&gt;ADuodenum -->
<g id="edge1" class="edge">
<title>ASt&#45;&gt;ADuodenum</title>
<path fill="none" stroke="black" d="M205.73,-515.85C205.73,-495.68 205.73,-462.86 205.73,-439.31"/>
<polygon fill="black" stroke="black" points="209.23,-439.22 205.73,-429.22 202.23,-439.22 209.23,-439.22"/>
<text text-anchor="middle" x="216.73" y="-487.3" font-family="Times,serif" font-size="14.00">_J0</text>
</g>
<!-- AGITissue -->
<g id="node2" class="node">
<title>AGITissue</title>
<g id="a_node2"><a xlink:href="#species-AGITissue" xlink:title="AGITissue&#10;[&#45;]">
<path fill="gold" stroke="black" d="M233.73,-304C233.73,-304 177.73,-304 177.73,-304 171.73,-304 165.73,-298 165.73,-292 165.73,-292 165.73,-278 165.73,-278 165.73,-272 171.73,-266 177.73,-266 177.73,-266 233.73,-266 233.73,-266 239.73,-266 245.73,-272 245.73,-278 245.73,-278 245.73,-292 245.73,-292 245.73,-298 239.73,-304 233.73,-304"/>
<text text-anchor="middle" x="205.73" y="-288.8" font-family="Arial" font-size="14.00">AGITissue</text>
<text text-anchor="middle" x="205.73" y="-273.8" font-family="Arial" font-size="14.00">[&#45;]</text>
</a>
</g>
</g>
<!-- ALiver -->
<g id="node4" class="node">
<title>ALiver</title>
<g id="a_node4"><a xlink:href="#species-ALiver" xlink:title="ALiver&#10;[&#45;]">
<path fill="gold" stroke="black" d="M308.23,-179C308.23,-179 277.23,-179 277.23,-179 271.23,-179 265.23,-173 265.23,-167 265.23,-167 265.23,-153 265.23,-153 265.23,-147 271.23,-141 277.23,-141 277.23,-141 308.23,-141 308.23,-141 314.23,-141 320.23,-147 320.23,-153 320.23,-153 320.23,-167 320.23,-167 320.23,-173 314.23,-179 308.23,-179"/>
<text text-anchor="middle" x="292.73" y="-163.8" font-family="Arial" font-size="14.00">ALiver</text>
<text text-anchor="middle" x="292.73" y="-148.8" font-family="Arial" font-size="14.00">[&#45;]</text>
</a>
</g>
</g>
<!-- AGITissue&#45;&gt;ALiver -->
<g id="edge2" class="edge">
<title>AGITissue&#45;&gt;ALiver</title>
<path fill="none" stroke="black" d="M218.56,-265.85C233.21,-245.14 257.3,-211.08 274.03,-187.42"/>
<polygon fill="black" stroke="black" points="276.92,-189.41 279.84,-179.22 271.2,-185.37 276.92,-189.41"/>
<text text-anchor="middle" x="252.73" y="-237.3" font-family="Times,serif" font-size="14.00">_J2</text>
</g>
<!-- ADuodenum&#45;&gt;AGITissue -->
<g id="edge3" class="edge">
<title>ADuodenum&#45;&gt;AGITissue</title>
<path fill="none" stroke="black" d="M205.73,-390.85C205.73,-370.68 205.73,-337.86 205.73,-314.31"/>
<polygon fill="black" stroke="black" points="209.23,-314.22 205.73,-304.22 202.23,-314.22 209.23,-314.22"/>
<text text-anchor="middle" x="216.73" y="-362.3" font-family="Times,serif" font-size="14.00">_J1</text>
</g>
<!-- ALiverMet -->
<g id="node5" class="node">
<title>ALiverMet</title>
<g id="a_node5"><a xlink:href="#species-ALiverMet" xlink:title="ALiverMet&#10;[&#45;]">
<path fill="gold" stroke="black" d="M292.73,-54C292.73,-54 238.73,-54 238.73,-54 232.73,-54 226.73,-48 226.73,-42 226.73,-42 226.73,-28 226.73,-28 226.73,-22 232.73,-16 238.73,-16 238.73,-16 292.73,-16 292.73,-16 298.73,-16 304.73,-22 304.73,-28 304.73,-28 304.73,-42 304.73,-42 304.73,-48 298.73,-54 292.73,-54"/>
<text text-anchor="middle" x="265.73" y="-38.8" font-family="Arial" font-size="14.00">ALiverMet</text>
<text text-anchor="middle" x="265.73" y="-23.8" font-family="Arial" font-size="14.00">[&#45;]</text>
</a>
</g>
</g>
<!-- ALiver&#45;&gt;ALiverMet -->
<g id="edge4" class="edge">
<title>ALiver&#45;&gt;ALiverMet</title>
<path fill="none" stroke="black" d="M288.74,-140.85C284.29,-120.59 277.04,-87.57 271.87,-64"/>
<polygon fill="black" stroke="black" points="275.29,-63.24 269.73,-54.22 268.45,-64.74 275.29,-63.24"/>
<text text-anchor="middle" x="301.23" y="-112.3" font-family="Times,serif" font-size="14.00">_J10</text>
</g>
<!-- APlasma -->
<g id="node6" class="node">
<title>APlasma</title>
<g id="a_node6"><a xlink:href="#species-APlasma" xlink:title="APlasma&#10;[&#45;]">
<path fill="gold" stroke="black" d="M618.23,-304C618.23,-304 571.23,-304 571.23,-304 565.23,-304 559.23,-298 559.23,-292 559.23,-292 559.23,-278 559.23,-278 559.23,-272 565.23,-266 571.23,-266 571.23,-266 618.23,-266 618.23,-266 624.23,-266 630.23,-272 630.23,-278 630.23,-278 630.23,-292 630.23,-292 630.23,-298 624.23,-304 618.23,-304"/>
<text text-anchor="middle" x="594.73" y="-288.8" font-family="Arial" font-size="14.00">APlasma</text>
<text text-anchor="middle" x="594.73" y="-273.8" font-family="Arial" font-size="14.00">[&#45;]</text>
</a>
</g>
</g>
<!-- ALiver&#45;&gt;APlasma -->
<g id="edge5" class="edge">
<title>ALiver&#45;&gt;APlasma</title>
<path fill="none" stroke="black" d="M320.38,-178.69C351.85,-198.16 405.29,-229.22 454.73,-248.5 485.41,-260.47 521.47,-269.5 549.31,-275.46"/>
<polygon fill="black" stroke="black" points="548.66,-278.9 559.17,-277.52 550.09,-272.05 548.66,-278.9"/>
<text text-anchor="middle" x="465.73" y="-237.3" font-family="Times,serif" font-size="14.00">_J5</text>
</g>
<!-- APlasma&#45;&gt;AGITissue -->
<g id="edge6" class="edge">
<title>APlasma&#45;&gt;AGITissue</title>
<path fill="none" stroke="black" d="M559.04,-285C489.58,-285 336.04,-285 256.19,-285"/>
<polygon fill="black" stroke="black" points="255.89,-281.5 245.89,-285 255.89,-288.5 255.89,-281.5"/>
<text text-anchor="middle" x="402.48" y="-291.8" font-family="Times,serif" font-size="14.00">_J3</text>
</g>
<!-- APlasma&#45;&gt;ALiver -->
<g id="edge7" class="edge">
<title>APlasma&#45;&gt;ALiver</title>
<path fill="none" stroke="black" d="M559.1,-267.16C535.96,-256.61 504.95,-243.23 476.73,-233.5 462.81,-228.7 458.65,-229.76 444.73,-225 404.63,-211.31 360.1,-192.06 329.65,-178.25"/>
<polygon fill="black" stroke="black" points="330.84,-174.95 320.29,-173.98 327.93,-181.31 330.84,-174.95"/>
<text text-anchor="middle" x="524.73" y="-237.3" font-family="Times,serif" font-size="14.00">_J4</text>
</g>
<!-- APlasmaMet -->
<g id="node7" class="node">
<title>APlasmaMet</title>
<g id="a_node7"><a xlink:href="#species-APlasmaMet" xlink:title="APlasmaMet&#10;[&#45;]">
<path fill="gold" stroke="black" d="M670.23,-179C670.23,-179 599.23,-179 599.23,-179 593.23,-179 587.23,-173 587.23,-167 587.23,-167 587.23,-153 587.23,-153 587.23,-147 593.23,-141 599.23,-141 599.23,-141 670.23,-141 670.23,-141 676.23,-141 682.23,-147 682.23,-153 682.23,-153 682.23,-167 682.23,-167 682.23,-173 676.23,-179 670.23,-179"/>
<text text-anchor="middle" x="634.73" y="-163.8" font-family="Arial" font-size="14.00">APlasmaMet</text>
<text text-anchor="middle" x="634.73" y="-148.8" font-family="Arial" font-size="14.00">[&#45;]</text>
</a>
</g>
</g>
<!-- APlasma&#45;&gt;APlasmaMet -->
<g id="edge8" class="edge">
<title>APlasma&#45;&gt;APlasmaMet</title>
<path fill="none" stroke="black" d="M600.63,-265.85C607.21,-245.59 617.95,-212.57 625.62,-189"/>
<polygon fill="black" stroke="black" points="629.03,-189.82 628.8,-179.22 622.38,-187.65 629.03,-189.82"/>
<text text-anchor="middle" x="622.73" y="-237.3" font-family="Times,serif" font-size="14.00">_J8</text>
</g>
<!-- ARest -->
<g id="node8" class="node">
<title>ARest</title>
<g id="a_node8"><a xlink:href="#species-ARest" xlink:title="ARest&#10;[&#45;]">
<path fill="gold" stroke="black" d="M649.73,-429C649.73,-429 619.73,-429 619.73,-429 613.73,-429 607.73,-423 607.73,-417 607.73,-417 607.73,-403 607.73,-403 607.73,-397 613.73,-391 619.73,-391 619.73,-391 649.73,-391 649.73,-391 655.73,-391 661.73,-397 661.73,-403 661.73,-403 661.73,-417 661.73,-417 661.73,-423 655.73,-429 649.73,-429"/>
<text text-anchor="middle" x="634.73" y="-413.8" font-family="Arial" font-size="14.00">ARest</text>
<text text-anchor="middle" x="634.73" y="-398.8" font-family="Arial" font-size="14.00">[&#45;]</text>
</a>
</g>
</g>
<!-- APlasma&#45;&gt;ARest -->
<g id="edge9" class="edge">
<title>APlasma&#45;&gt;ARest</title>
<path fill="none" stroke="black" d="M600.65,-304.22C607.25,-324.51 617.99,-357.54 625.65,-381.09"/>
<polygon fill="black" stroke="black" points="622.4,-382.42 628.82,-390.85 629.06,-380.26 622.4,-382.42"/>
<text text-anchor="middle" x="634.73" y="-362.3" font-family="Times,serif" font-size="14.00">_J6</text>
</g>
<!-- AUrine -->
<g id="node9" class="node">
<title>AUrine</title>
<g id="a_node9"><a xlink:href="#species-AUrine" xlink:title="AUrine&#10;[&#45;]">
<path fill="gold" stroke="black" d="M931.73,-54C931.73,-54 897.73,-54 897.73,-54 891.73,-54 885.73,-48 885.73,-42 885.73,-42 885.73,-28 885.73,-28 885.73,-22 891.73,-16 897.73,-16 897.73,-16 931.73,-16 931.73,-16 937.73,-16 943.73,-22 943.73,-28 943.73,-28 943.73,-42 943.73,-42 943.73,-48 937.73,-54 931.73,-54"/>
<text text-anchor="middle" x="914.73" y="-38.8" font-family="Arial" font-size="14.00">AUrine</text>
<text text-anchor="middle" x="914.73" y="-23.8" font-family="Arial" font-size="14.00">[&#45;]</text>
</a>
</g>
</g>
<!-- APlasma&#45;&gt;AUrine -->
<g id="edge10" class="edge">
<title>APlasma&#45;&gt;AUrine</title>
<path fill="none" stroke="black" d="M627.06,-265.76C646.06,-254.65 670.27,-239.79 690.73,-225 765.49,-170.95 846.71,-98.65 887.74,-61.07"/>
<polygon fill="black" stroke="black" points="890.17,-63.6 895.16,-54.25 885.43,-58.44 890.17,-63.6"/>
<text text-anchor="middle" x="815.73" y="-156.3" font-family="Times,serif" font-size="14.00">_J9</text>
</g>
<!-- ARest&#45;&gt;APlasma -->
<g id="edge11" class="edge">
<title>ARest&#45;&gt;APlasma</title>
<path fill="none" stroke="black" d="M643.91,-390.58C647.52,-380.93 650.09,-368.97 646.73,-358.5 641.24,-341.44 630.1,-325 619.53,-312.1"/>
<polygon fill="black" stroke="black" points="621.89,-309.48 612.73,-304.16 616.58,-314.03 621.89,-309.48"/>
<text text-anchor="middle" x="659.73" y="-362.3" font-family="Times,serif" font-size="14.00">_J7</text>
</g>
</g>
</svg>
