<?xml version="1.0" encoding="UTF-8" standalone="no"?>
<!DOCTYPE svg PUBLIC "-//W3C//DTD SVG 1.1//EN"
 "http://www.w3.org/Graphics/SVG/1.1/DTD/svg11.dtd">
<!-- Generated by graphviz version 2.43.0 (0)
 -->
<!-- Title: %3 Pages: 1 -->
<svg width="501pt" height="288pt"
 viewBox="0.00 0.00 501.19 288.00" xmlns="http://www.w3.org/2000/svg" xmlns:xlink="http://www.w3.org/1999/xlink">
<g id="graph0" class="graph" transform="scale(0.47 0.47) rotate(0) translate(4 612)">
<title>%3</title>
<polygon fill="white" stroke="transparent" points="-4,4 -4,-612 1068,-612 1068,4 -4,4"/>
<g id="clust1" class="cluster">
<title>cluster_Stomach</title>
<g id="a_clust1"><a xlink:href="#compartment-Stomach" xlink:title="Stomach&#10;[&#45;]">
<path fill="lightblue" stroke="black" d="M408.95,-508C408.95,-508 675.51,-508 675.51,-508 681.51,-508 687.51,-514 687.51,-520 687.51,-520 687.51,-588 687.51,-588 687.51,-594 681.51,-600 675.51,-600 675.51,-600 408.95,-600 408.95,-600 402.95,-600 396.95,-594 396.95,-588 396.95,-588 396.95,-520 396.95,-520 396.95,-514 402.95,-508 408.95,-508"/>
<text text-anchor="middle" x="542.23" y="-584.8" font-family="Arial" font-size="14.00">Stomach</text>
<text text-anchor="middle" x="542.23" y="-569.8" font-family="Arial" font-size="14.00">[&#45;]</text>
</a>
</g>
</g>
<g id="clust2" class="cluster">
<title>cluster_Intestinal</title>
<g id="a_clust2"><a xlink:href="#compartment-Intestinal" xlink:title="Intestinal&#10;[&#45;]">
<path fill="lightblue" stroke="black" d="M253.45,-383C253.45,-383 520,-383 520,-383 526,-383 532,-389 532,-395 532,-395 532,-463 532,-463 532,-469 526,-475 520,-475 520,-475 253.45,-475 253.45,-475 247.45,-475 241.45,-469 241.45,-463 241.45,-463 241.45,-395 241.45,-395 241.45,-389 247.45,-383 253.45,-383"/>
<text text-anchor="middle" x="386.72" y="-459.8" font-family="Arial" font-size="14.00">Intestinal</text>
<text text-anchor="middle" x="386.72" y="-444.8" font-family="Arial" font-size="14.00">[&#45;]</text>
</a>
</g>
</g>
<g id="clust3" class="cluster">
<title>cluster_Liver</title>
<g id="a_clust3"><a xlink:href="#compartment-Liver" xlink:title="Liver&#10;[&#45;]">
<path fill="lightblue" stroke="black" d="M44.74,-8C44.74,-8 675.51,-8 675.51,-8 681.51,-8 687.51,-14 687.51,-20 687.51,-20 687.51,-338 687.51,-338 687.51,-344 681.51,-350 675.51,-350 675.51,-350 44.74,-350 44.74,-350 38.74,-350 32.74,-344 32.74,-338 32.74,-338 32.74,-20 32.74,-20 32.74,-14 38.74,-8 44.74,-8"/>
<text text-anchor="middle" x="360.12" y="-334.8" font-family="Arial" font-size="14.00">Liver</text>
<text text-anchor="middle" x="360.12" y="-319.8" font-family="Arial" font-size="14.00">[&#45;]</text>
</a>
</g>
</g>
<g id="clust4" class="cluster">
<title>cluster_Blood</title>
<g id="a_clust4"><a xlink:href="#compartment-Blood" xlink:title="Blood&#10;[&#45;]">
<path fill="lightblue" stroke="black" d="M732.25,-133C732.25,-133 1019.26,-133 1019.26,-133 1025.26,-133 1031.26,-139 1031.26,-145 1031.26,-145 1031.26,-213 1031.26,-213 1031.26,-219 1025.26,-225 1019.26,-225 1019.26,-225 732.25,-225 732.25,-225 726.25,-225 720.25,-219 720.25,-213 720.25,-213 720.25,-145 720.25,-145 720.25,-139 726.25,-133 732.25,-133"/>
<text text-anchor="middle" x="875.75" y="-209.8" font-family="Arial" font-size="14.00">Blood</text>
<text text-anchor="middle" x="875.75" y="-194.8" font-family="Arial" font-size="14.00">[&#45;]</text>
</a>
</g>
</g>
<g id="clust5" class="cluster">
<title>cluster_Rest</title>
<g id="a_clust5"><a xlink:href="#compartment-Rest" xlink:title="Rest&#10;[&#45;]">
<path fill="lightblue" stroke="black" d="M744.52,-8C744.52,-8 1006.98,-8 1006.98,-8 1012.98,-8 1018.98,-14 1018.98,-20 1018.98,-20 1018.98,-88 1018.98,-88 1018.98,-94 1012.98,-100 1006.98,-100 1006.98,-100 744.52,-100 744.52,-100 738.52,-100 732.52,-94 732.52,-88 732.52,-88 732.52,-20 732.52,-20 732.52,-14 738.52,-8 744.52,-8"/>
<text text-anchor="middle" x="875.75" y="-84.8" font-family="Arial" font-size="14.00">Rest</text>
<text text-anchor="middle" x="875.75" y="-69.8" font-family="Arial" font-size="14.00">[&#45;]</text>
</a>
</g>
</g>
<!-- ASt -->
<g id="node1" class="node">
<title>ASt</title>
<g id="a_node1"><a xlink:href="#species-ASt" xlink:title="ASt&#10;[&#45;]">
<path fill="gold" stroke="black" d="M555.29,-554C555.29,-554 525.29,-554 525.29,-554 519.29,-554 513.29,-548 513.29,-542 513.29,-542 513.29,-528 513.29,-528 513.29,-522 519.29,-516 525.29,-516 525.29,-516 555.29,-516 555.29,-516 561.29,-516 567.29,-522 567.29,-528 567.29,-528 567.29,-542 567.29,-542 567.29,-548 561.29,-554 555.29,-554"/>
<text text-anchor="middle" x="540.29" y="-538.8" font-family="Arial" font-size="14.00">ASt</text>
<text text-anchor="middle" x="540.29" y="-523.8" font-family="Arial" font-size="14.00">[&#45;]</text>
</a>
</g>
</g>
<!-- AIT -->
<g id="node2" class="node">
<title>AIT</title>
<g id="a_node2"><a xlink:href="#species-AIT" xlink:title="AIT&#10;[&#45;]">
<path fill="gold" stroke="black" d="M399.29,-429C399.29,-429 369.29,-429 369.29,-429 363.29,-429 357.29,-423 357.29,-417 357.29,-417 357.29,-403 357.29,-403 357.29,-397 363.29,-391 369.29,-391 369.29,-391 399.29,-391 399.29,-391 405.29,-391 411.29,-397 411.29,-403 411.29,-403 411.29,-417 411.29,-417 411.29,-423 405.29,-429 399.29,-429"/>
<text text-anchor="middle" x="384.29" y="-413.8" font-family="Arial" font-size="14.00">AIT</text>
<text text-anchor="middle" x="384.29" y="-398.8" font-family="Arial" font-size="14.00">[&#45;]</text>
</a>
</g>
</g>
<!-- ASt&#45;&gt;AIT -->
<g id="edge1" class="edge">
<title>ASt&#45;&gt;AIT</title>
<path fill="none" stroke="black" d="M517.27,-515.85C490.24,-494.53 445.27,-459.08 415.21,-435.37"/>
<polygon fill="black" stroke="black" points="417.17,-432.47 407.15,-429.02 412.84,-437.96 417.17,-432.47"/>
<text text-anchor="middle" x="504.29" y="-487.3" font-family="Times,serif" font-size="14.00">_J0</text>
</g>
<!-- ALiver -->
<g id="node3" class="node">
<title>ALiver</title>
<g id="a_node3"><a xlink:href="#species-ALiver" xlink:title="ALiver&#10;[&#45;]">
<path fill="gold" stroke="black" d="M555.79,-304C555.79,-304 524.79,-304 524.79,-304 518.79,-304 512.79,-298 512.79,-292 512.79,-292 512.79,-278 512.79,-278 512.79,-272 518.79,-266 524.79,-266 524.79,-266 555.79,-266 555.79,-266 561.79,-266 567.79,-272 567.79,-278 567.79,-278 567.79,-292 567.79,-292 567.79,-298 561.79,-304 555.79,-304"/>
<text text-anchor="middle" x="540.29" y="-288.8" font-family="Arial" font-size="14.00">ALiver</text>
<text text-anchor="middle" x="540.29" y="-273.8" font-family="Arial" font-size="14.00">[&#45;]</text>
</a>
</g>
</g>
<!-- ASt&#45;&gt;ALiver -->
<g id="edge2" class="edge">
<title>ASt&#45;&gt;ALiver</title>
<path fill="none" stroke="black" d="M540.29,-515.76C540.29,-472.95 540.29,-365.73 540.29,-314.34"/>
<polygon fill="black" stroke="black" points="543.79,-314.26 540.29,-304.26 536.79,-314.26 543.79,-314.26"/>
<text text-anchor="middle" x="551.29" y="-406.3" font-family="Times,serif" font-size="14.00">_J1</text>
</g>
<!-- AIT&#45;&gt;ALiver -->
<g id="edge3" class="edge">
<title>AIT&#45;&gt;ALiver</title>
<path fill="none" stroke="black" d="M407.31,-390.85C434.35,-369.53 479.32,-334.08 509.38,-310.37"/>
<polygon fill="black" stroke="black" points="511.75,-312.96 517.43,-304.02 507.41,-307.47 511.75,-312.96"/>
<text text-anchor="middle" x="459.29" y="-362.3" font-family="Times,serif" font-size="14.00">_J2</text>
</g>
<!-- ALiverMet1 -->
<g id="node4" class="node">
<title>ALiverMet1</title>
<g id="a_node4"><a xlink:href="#species-ALiverMet1" xlink:title="ALiverMet1&#10;[&#45;]">
<path fill="gold" stroke="black" d="M272.29,-179C272.29,-179 210.29,-179 210.29,-179 204.29,-179 198.29,-173 198.29,-167 198.29,-167 198.29,-153 198.29,-153 198.29,-147 204.29,-141 210.29,-141 210.29,-141 272.29,-141 272.29,-141 278.29,-141 284.29,-147 284.29,-153 284.29,-153 284.29,-167 284.29,-167 284.29,-173 278.29,-179 272.29,-179"/>
<text text-anchor="middle" x="241.29" y="-163.8" font-family="Arial" font-size="14.00">ALiverMet1</text>
<text text-anchor="middle" x="241.29" y="-148.8" font-family="Arial" font-size="14.00">[&#45;]</text>
</a>
</g>
</g>
<!-- ALiver&#45;&gt;ALiverMet1 -->
<g id="edge4" class="edge">
<title>ALiver&#45;&gt;ALiverMet1</title>
<path fill="none" stroke="black" d="M512.7,-272.65C462.99,-252.2 357.64,-208.86 293.8,-182.6"/>
<polygon fill="black" stroke="black" points="294.89,-179.26 284.31,-178.7 292.23,-185.74 294.89,-179.26"/>
<text text-anchor="middle" x="462.29" y="-237.3" font-family="Times,serif" font-size="14.00">_J7</text>
</g>
<!-- ALiverMet2 -->
<g id="node5" class="node">
<title>ALiverMet2</title>
<g id="a_node5"><a xlink:href="#species-ALiverMet2" xlink:title="ALiverMet2&#10;[&#45;]">
<path fill="gold" stroke="black" d="M510.29,-54C510.29,-54 448.29,-54 448.29,-54 442.29,-54 436.29,-48 436.29,-42 436.29,-42 436.29,-28 436.29,-28 436.29,-22 442.29,-16 448.29,-16 448.29,-16 510.29,-16 510.29,-16 516.29,-16 522.29,-22 522.29,-28 522.29,-28 522.29,-42 522.29,-42 522.29,-48 516.29,-54 510.29,-54"/>
<text text-anchor="middle" x="479.29" y="-38.8" font-family="Arial" font-size="14.00">ALiverMet2</text>
<text text-anchor="middle" x="479.29" y="-23.8" font-family="Arial" font-size="14.00">[&#45;]</text>
</a>
</g>
</g>
<!-- ALiver&#45;&gt;ALiverMet2 -->
<g id="edge5" class="edge">
<title>ALiver&#45;&gt;ALiverMet2</title>
<path fill="none" stroke="black" d="M535.81,-265.76C525.25,-222.86 498.79,-115.28 486.18,-64.02"/>
<polygon fill="black" stroke="black" points="489.57,-63.14 483.78,-54.26 482.77,-64.81 489.57,-63.14"/>
<text text-anchor="middle" x="536.29" y="-156.3" font-family="Times,serif" font-size="14.00">_J8</text>
</g>
<!-- ABlood -->
<g id="node6" class="node">
<title>ABlood</title>
<g id="a_node6"><a xlink:href="#species-ABlood" xlink:title="ABlood&#10;[&#45;]">
<path fill="gold" stroke="black" d="M893.29,-179C893.29,-179 857.29,-179 857.29,-179 851.29,-179 845.29,-173 845.29,-167 845.29,-167 845.29,-153 845.29,-153 845.29,-147 851.29,-141 857.29,-141 857.29,-141 893.29,-141 893.29,-141 899.29,-141 905.29,-147 905.29,-153 905.29,-153 905.29,-167 905.29,-167 905.29,-173 899.29,-179 893.29,-179"/>
<text text-anchor="middle" x="875.29" y="-163.8" font-family="Arial" font-size="14.00">ABlood</text>
<text text-anchor="middle" x="875.29" y="-148.8" font-family="Arial" font-size="14.00">[&#45;]</text>
</a>
</g>
</g>
<!-- ALiver&#45;&gt;ABlood -->
<g id="edge6" class="edge">
<title>ALiver&#45;&gt;ABlood</title>
<path fill="none" stroke="black" d="M567.99,-273.83C627.31,-252.05 766.79,-200.84 835.55,-175.59"/>
<polygon fill="black" stroke="black" points="836.99,-178.79 845.17,-172.06 834.57,-172.22 836.99,-178.79"/>
<text text-anchor="middle" x="688.29" y="-237.3" font-family="Times,serif" font-size="14.00">_J4</text>
</g>
<!-- ABlood&#45;&gt;ALiver -->
<g id="edge7" class="edge">
<title>ABlood&#45;&gt;ALiver</title>
<path fill="none" stroke="black" d="M845.58,-179.09C812.1,-198.76 755.52,-229.88 703.29,-248.5 661.69,-263.33 611.81,-273.09 578.28,-278.56"/>
<polygon fill="black" stroke="black" points="577.33,-275.16 568,-280.18 578.42,-282.08 577.33,-275.16"/>
<text text-anchor="middle" x="748.29" y="-237.3" font-family="Times,serif" font-size="14.00">_J3</text>
</g>
<!-- ARest -->
<g id="node7" class="node">
<title>ARest</title>
<g id="a_node7"><a xlink:href="#species-ARest" xlink:title="ARest&#10;[&#45;]">
<path fill="gold" stroke="black" d="M890.29,-54C890.29,-54 860.29,-54 860.29,-54 854.29,-54 848.29,-48 848.29,-42 848.29,-42 848.29,-28 848.29,-28 848.29,-22 854.29,-16 860.29,-16 860.29,-16 890.29,-16 890.29,-16 896.29,-16 902.29,-22 902.29,-28 902.29,-28 902.29,-42 902.29,-42 902.29,-48 896.29,-54 890.29,-54"/>
<text text-anchor="middle" x="875.29" y="-38.8" font-family="Arial" font-size="14.00">ARest</text>
<text text-anchor="middle" x="875.29" y="-23.8" font-family="Arial" font-size="14.00">[&#45;]</text>
</a>
</g>
</g>
<!-- ABlood&#45;&gt;ARest -->
<g id="edge8" class="edge">
<title>ABlood&#45;&gt;ARest</title>
<path fill="none" stroke="black" d="M875.29,-140.85C875.29,-120.68 875.29,-87.86 875.29,-64.31"/>
<polygon fill="black" stroke="black" points="878.79,-64.22 875.29,-54.22 871.79,-64.22 878.79,-64.22"/>
<text text-anchor="middle" x="886.29" y="-112.3" font-family="Times,serif" font-size="14.00">_J5</text>
</g>
<!-- ARest&#45;&gt;ABlood -->
<g id="edge9" class="edge">
<title>ARest&#45;&gt;ABlood</title>
<path fill="none" stroke="black" d="M887.23,-54.19C897.35,-71.95 909.08,-99.7 901.29,-123.5 900.33,-126.45 899.01,-129.37 897.48,-132.17"/>
<polygon fill="black" stroke="black" points="894.46,-130.41 892.03,-140.72 900.36,-134.17 894.46,-130.41"/>
<text text-anchor="middle" x="914.29" y="-112.3" font-family="Times,serif" font-size="14.00">_J6</text>
</g>
</g>
</svg>
