<?xml version="1.0" encoding="UTF-8" standalone="no"?>
<!DOCTYPE svg PUBLIC "-//W3C//DTD SVG 1.1//EN"
 "http://www.w3.org/Graphics/SVG/1.1/DTD/svg11.dtd">
<!-- Generated by graphviz version 2.43.0 (0)
 -->
<!-- Title: %3 Pages: 1 -->
<svg width="499pt" height="288pt"
 viewBox="0.00 0.00 499.28 288.00" xmlns="http://www.w3.org/2000/svg" xmlns:xlink="http://www.w3.org/1999/xlink">
<g id="graph0" class="graph" transform="scale(0.79 0.79) rotate(0) translate(4 362)">
<title>%3</title>
<polygon fill="white" stroke="transparent" points="-4,4 -4,-362 630.5,-362 630.5,4 -4,4"/>
<g id="clust1" class="cluster">
<title>cluster_GI</title>
<g id="a_clust1"><a xlink:href="#compartment-GI" xlink:title="GI&#10;[PBPKO:00477]">
<path fill="lightblue" stroke="black" d="M29.65,-258C29.65,-258 292.43,-258 292.43,-258 298.43,-258 304.43,-264 304.43,-270 304.43,-270 304.43,-338 304.43,-338 304.43,-344 298.43,-350 292.43,-350 292.43,-350 29.65,-350 29.65,-350 23.65,-350 17.65,-344 17.65,-338 17.65,-338 17.65,-270 17.65,-270 17.65,-264 23.65,-258 29.65,-258"/>
<text text-anchor="middle" x="161.04" y="-334.8" font-family="Arial" font-size="14.00">GI</text>
<text text-anchor="middle" x="161.04" y="-319.8" font-family="Arial" font-size="14.00">[PBPKO:00477]</text>
</a>
</g>
</g>
<g id="clust2" class="cluster">
<title>cluster_Liver</title>
<g id="a_clust2"><a xlink:href="#compartment-Liver" xlink:title="Liver&#10;[PBPKO:00558]">
<path fill="lightblue" stroke="black" d="M334.07,-258C334.07,-258 596.85,-258 596.85,-258 602.85,-258 608.85,-264 608.85,-270 608.85,-270 608.85,-338 608.85,-338 608.85,-344 602.85,-350 596.85,-350 596.85,-350 334.07,-350 334.07,-350 328.07,-350 322.07,-344 322.07,-338 322.07,-338 322.07,-270 322.07,-270 322.07,-264 328.07,-258 334.07,-258"/>
<text text-anchor="middle" x="465.46" y="-334.8" font-family="Arial" font-size="14.00">Liver</text>
<text text-anchor="middle" x="465.46" y="-319.8" font-family="Arial" font-size="14.00">[PBPKO:00558]</text>
</a>
</g>
</g>
<g id="clust3" class="cluster">
<title>cluster_Plasma</title>
<g id="a_clust3"><a xlink:href="#compartment-Plasma" xlink:title="Plasma&#10;[PBPKO:00488]">
<path fill="lightblue" stroke="black" d="M181.86,-133C181.86,-133 444.64,-133 444.64,-133 450.64,-133 456.64,-139 456.64,-145 456.64,-145 456.64,-213 456.64,-213 456.64,-219 450.64,-225 444.64,-225 444.64,-225 181.86,-225 181.86,-225 175.86,-225 169.86,-219 169.86,-213 169.86,-213 169.86,-145 169.86,-145 169.86,-139 175.86,-133 181.86,-133"/>
<text text-anchor="middle" x="313.25" y="-209.8" font-family="Arial" font-size="14.00">Plasma</text>
<text text-anchor="middle" x="313.25" y="-194.8" font-family="Arial" font-size="14.00">[PBPKO:00488]</text>
</a>
</g>
</g>
<g id="clust4" class="cluster">
<title>cluster_Rest</title>
<g id="a_clust4"><a xlink:href="#compartment-Rest" xlink:title="Rest&#10;[PBPKO:00450]">
<path fill="lightblue" stroke="black" d="M181.86,-8C181.86,-8 444.64,-8 444.64,-8 450.64,-8 456.64,-14 456.64,-20 456.64,-20 456.64,-88 456.64,-88 456.64,-94 450.64,-100 444.64,-100 444.64,-100 181.86,-100 181.86,-100 175.86,-100 169.86,-94 169.86,-88 169.86,-88 169.86,-20 169.86,-20 169.86,-14 175.86,-8 181.86,-8"/>
<text text-anchor="middle" x="313.25" y="-84.8" font-family="Arial" font-size="14.00">Rest</text>
<text text-anchor="middle" x="313.25" y="-69.8" font-family="Arial" font-size="14.00">[PBPKO:00450]</text>
</a>
</g>
</g>
<!-- AGI -->
<g id="node1" class="node">
<title>AGI</title>
<g id="a_node1"><a xlink:href="#species-AGI" xlink:title="AGI&#10;[PBPKO:00496]">
<path fill="gold" stroke="black" d="M205.33,-304C205.33,-304 116.33,-304 116.33,-304 110.33,-304 104.33,-298 104.33,-292 104.33,-292 104.33,-278 104.33,-278 104.33,-272 110.33,-266 116.33,-266 116.33,-266 205.33,-266 205.33,-266 211.33,-266 217.33,-272 217.33,-278 217.33,-278 217.33,-292 217.33,-292 217.33,-298 211.33,-304 205.33,-304"/>
<text text-anchor="middle" x="160.83" y="-288.8" font-family="Arial" font-size="14.00">AGI</text>
<text text-anchor="middle" x="160.83" y="-273.8" font-family="Arial" font-size="14.00">[PBPKO:00496]</text>
</a>
</g>
</g>
<!-- APlasma -->
<g id="node3" class="node">
<title>APlasma</title>
<g id="a_node3"><a xlink:href="#species-APlasma" xlink:title="APlasma&#10;[PBPKO:00502]">
<path fill="gold" stroke="black" d="M357.33,-179C357.33,-179 268.33,-179 268.33,-179 262.33,-179 256.33,-173 256.33,-167 256.33,-167 256.33,-153 256.33,-153 256.33,-147 262.33,-141 268.33,-141 268.33,-141 357.33,-141 357.33,-141 363.33,-141 369.33,-147 369.33,-153 369.33,-153 369.33,-167 369.33,-167 369.33,-173 363.33,-179 357.33,-179"/>
<text text-anchor="middle" x="312.83" y="-163.8" font-family="Arial" font-size="14.00">APlasma</text>
<text text-anchor="middle" x="312.83" y="-148.8" font-family="Arial" font-size="14.00">[PBPKO:00502]</text>
</a>
</g>
</g>
<!-- AGI&#45;&gt;APlasma -->
<g id="edge1" class="edge">
<title>AGI&#45;&gt;APlasma</title>
<path fill="none" stroke="black" d="M182.07,-265.84C193.49,-256.15 207.85,-244.08 220.83,-233.5 240.61,-217.39 263.1,-199.65 280.9,-185.76"/>
<polygon fill="black" stroke="black" points="283.49,-188.18 289.22,-179.27 279.18,-182.66 283.49,-188.18"/>
<text text-anchor="middle" x="231.83" y="-237.3" font-family="Times,serif" font-size="14.00">_J1</text>
</g>
<!-- ALiver -->
<g id="node2" class="node">
<title>ALiver</title>
<g id="a_node2"><a xlink:href="#species-ALiver" xlink:title="ALiver&#10;[PBPKO:00497]">
<path fill="gold" stroke="black" d="M510.33,-304C510.33,-304 421.33,-304 421.33,-304 415.33,-304 409.33,-298 409.33,-292 409.33,-292 409.33,-278 409.33,-278 409.33,-272 415.33,-266 421.33,-266 421.33,-266 510.33,-266 510.33,-266 516.33,-266 522.33,-272 522.33,-278 522.33,-278 522.33,-292 522.33,-292 522.33,-298 516.33,-304 510.33,-304"/>
<text text-anchor="middle" x="465.83" y="-288.8" font-family="Arial" font-size="14.00">ALiver</text>
<text text-anchor="middle" x="465.83" y="-273.8" font-family="Arial" font-size="14.00">[PBPKO:00497]</text>
</a>
</g>
</g>
<!-- ALiver&#45;&gt;APlasma -->
<g id="edge2" class="edge">
<title>ALiver&#45;&gt;APlasma</title>
<path fill="none" stroke="black" d="M441.28,-265.77C434.01,-260.29 426.05,-254.2 418.83,-248.5 392.43,-227.65 362.96,-203.22 341.8,-185.49"/>
<polygon fill="black" stroke="black" points="344.04,-182.79 334.13,-179.04 339.53,-188.15 344.04,-182.79"/>
<text text-anchor="middle" x="429.83" y="-237.3" font-family="Times,serif" font-size="14.00">_J3</text>
</g>
<!-- APlasma&#45;&gt;AGI -->
<g id="edge3" class="edge">
<title>APlasma&#45;&gt;AGI</title>
<path fill="none" stroke="black" d="M302.03,-179.28C289.78,-198.67 268.18,-229.13 242.83,-248.5 236.59,-253.27 229.61,-257.54 222.43,-261.32"/>
<polygon fill="black" stroke="black" points="220.68,-258.28 213.26,-265.85 223.78,-264.56 220.68,-258.28"/>
<text text-anchor="middle" x="269.83" y="-237.3" font-family="Times,serif" font-size="14.00">_J0</text>
</g>
<!-- APlasma&#45;&gt;ALiver -->
<g id="edge4" class="edge">
<title>APlasma&#45;&gt;ALiver</title>
<path fill="none" stroke="black" d="M359.06,-179.01C385.62,-191.2 418.1,-209.47 440.83,-233.5 446.95,-239.97 451.88,-248.22 455.69,-256.17"/>
<polygon fill="black" stroke="black" points="452.58,-257.8 459.78,-265.57 459,-255.01 452.58,-257.8"/>
<text text-anchor="middle" x="461.83" y="-237.3" font-family="Times,serif" font-size="14.00">_J2</text>
</g>
<!-- ARest -->
<g id="node4" class="node">
<title>ARest</title>
<g id="a_node4"><a xlink:href="#species-ARest" xlink:title="ARest&#10;[PBPKO:00501]">
<path fill="gold" stroke="black" d="M357.33,-54C357.33,-54 268.33,-54 268.33,-54 262.33,-54 256.33,-48 256.33,-42 256.33,-42 256.33,-28 256.33,-28 256.33,-22 262.33,-16 268.33,-16 268.33,-16 357.33,-16 357.33,-16 363.33,-16 369.33,-22 369.33,-28 369.33,-28 369.33,-42 369.33,-42 369.33,-48 363.33,-54 357.33,-54"/>
<text text-anchor="middle" x="312.83" y="-38.8" font-family="Arial" font-size="14.00">ARest</text>
<text text-anchor="middle" x="312.83" y="-23.8" font-family="Arial" font-size="14.00">[PBPKO:00501]</text>
</a>
</g>
</g>
<!-- APlasma&#45;&gt;ARest -->
<g id="edge5" class="edge">
<title>APlasma&#45;&gt;ARest</title>
<path fill="none" stroke="black" d="M312.83,-140.85C312.83,-120.68 312.83,-87.86 312.83,-64.31"/>
<polygon fill="black" stroke="black" points="316.33,-64.22 312.83,-54.22 309.33,-64.22 316.33,-64.22"/>
<text text-anchor="middle" x="323.83" y="-112.3" font-family="Times,serif" font-size="14.00">_J4</text>
</g>
<!-- ARest&#45;&gt;APlasma -->
<g id="edge6" class="edge">
<title>ARest&#45;&gt;APlasma</title>
<path fill="none" stroke="black" d="M324.77,-54.19C334.89,-71.95 346.61,-99.7 338.83,-123.5 337.86,-126.45 336.55,-129.37 335.02,-132.17"/>
<polygon fill="black" stroke="black" points="332,-130.41 329.57,-140.72 337.9,-134.17 332,-130.41"/>
<text text-anchor="middle" x="351.83" y="-112.3" font-family="Times,serif" font-size="14.00">_J5</text>
</g>
</g>
</svg>
