<?xml version="1.0" encoding="UTF-8" standalone="no"?>
<!DOCTYPE svg PUBLIC "-//W3C//DTD SVG 1.1//EN"
 "http://www.w3.org/Graphics/SVG/1.1/DTD/svg11.dtd">
<!-- Generated by graphviz version 2.43.0 (0)
 -->
<!-- Title: %3 Pages: 1 -->
<svg width="499pt" height="288pt"
 viewBox="0.00 0.00 499.28 288.00" xmlns="http://www.w3.org/2000/svg" xmlns:xlink="http://www.w3.org/1999/xlink">
<g id="graph0" class="graph" transform="scale(0.79 0.79) rotate(0) translate(4 362)">
<title>%3</title>
<polygon fill="white" stroke="transparent" points="-4,4 -4,-362 630.5,-362 630.5,4 -4,4"/>
<g id="clust1" class="cluster">
<title>cluster_GI</title>
<g id="a_clust1"><a xlink:href="#compartment-GI" xlink:title="GI&#10;[&#45;]">
<path fill="lightblue" stroke="black" d="M33.15,-258C33.15,-258 194.19,-258 194.19,-258 200.19,-258 206.19,-264 206.19,-270 206.19,-270 206.19,-338 206.19,-338 206.19,-344 200.19,-350 194.19,-350 194.19,-350 33.15,-350 33.15,-350 27.15,-350 21.15,-344 21.15,-338 21.15,-338 21.15,-270 21.15,-270 21.15,-264 27.15,-258 33.15,-258"/>
<text text-anchor="middle" x="113.67" y="-334.8" font-family="Arial" font-size="14.00">GI</text>
<text text-anchor="middle" x="113.67" y="-319.8" font-family="Arial" font-size="14.00">[&#45;]</text>
</a>
</g>
</g>
<g id="clust2" class="cluster">
<title>cluster_Liver</title>
<g id="a_clust2"><a xlink:href="#compartment-Liver" xlink:title="Liver&#10;[&#45;]">
<path fill="lightblue" stroke="black" d="M273.7,-258C273.7,-258 593.35,-258 593.35,-258 599.35,-258 605.35,-264 605.35,-270 605.35,-270 605.35,-338 605.35,-338 605.35,-344 599.35,-350 593.35,-350 593.35,-350 273.7,-350 273.7,-350 267.7,-350 261.7,-344 261.7,-338 261.7,-338 261.7,-270 261.7,-270 261.7,-264 267.7,-258 273.7,-258"/>
<text text-anchor="middle" x="433.53" y="-334.8" font-family="Arial" font-size="14.00">Liver</text>
<text text-anchor="middle" x="433.53" y="-319.8" font-family="Arial" font-size="14.00">[&#45;]</text>
</a>
</g>
</g>
<g id="clust3" class="cluster">
<title>cluster_Plasma</title>
<g id="a_clust3"><a xlink:href="#compartment-Plasma" xlink:title="Plasma&#10;[PBPKO:00488]">
<path fill="lightblue" stroke="black" d="M112.45,-133C112.45,-133 432.1,-133 432.1,-133 438.1,-133 444.1,-139 444.1,-145 444.1,-145 444.1,-213 444.1,-213 444.1,-219 438.1,-225 432.1,-225 432.1,-225 112.45,-225 112.45,-225 106.45,-225 100.45,-219 100.45,-213 100.45,-213 100.45,-145 100.45,-145 100.45,-139 106.45,-133 112.45,-133"/>
<text text-anchor="middle" x="272.28" y="-209.8" font-family="Arial" font-size="14.00">Plasma</text>
<text text-anchor="middle" x="272.28" y="-194.8" font-family="Arial" font-size="14.00">[PBPKO:00488]</text>
</a>
</g>
</g>
<g id="clust4" class="cluster">
<title>cluster_Rest</title>
<g id="a_clust4"><a xlink:href="#compartment-Rest" xlink:title="Rest&#10;[PBPKO:00450]">
<path fill="lightblue" stroke="black" d="M130.96,-8C130.96,-8 450.61,-8 450.61,-8 456.61,-8 462.61,-14 462.61,-20 462.61,-20 462.61,-88 462.61,-88 462.61,-94 456.61,-100 450.61,-100 450.61,-100 130.96,-100 130.96,-100 124.96,-100 118.96,-94 118.96,-88 118.96,-88 118.96,-20 118.96,-20 118.96,-14 124.96,-8 130.96,-8"/>
<text text-anchor="middle" x="290.78" y="-84.8" font-family="Arial" font-size="14.00">Rest</text>
<text text-anchor="middle" x="290.78" y="-69.8" font-family="Arial" font-size="14.00">[PBPKO:00450]</text>
</a>
</g>
</g>
<!-- AGI -->
<g id="node1" class="node">
<title>AGI</title>
<g id="a_node1"><a xlink:href="#species-AGI" xlink:title="AGI&#10;[&#45;]">
<path fill="gold" stroke="black" d="M128.69,-304C128.69,-304 98.69,-304 98.69,-304 92.69,-304 86.69,-298 86.69,-292 86.69,-292 86.69,-278 86.69,-278 86.69,-272 92.69,-266 98.69,-266 98.69,-266 128.69,-266 128.69,-266 134.69,-266 140.69,-272 140.69,-278 140.69,-278 140.69,-292 140.69,-292 140.69,-298 134.69,-304 128.69,-304"/>
<text text-anchor="middle" x="113.69" y="-288.8" font-family="Arial" font-size="14.00">AGI</text>
<text text-anchor="middle" x="113.69" y="-273.8" font-family="Arial" font-size="14.00">[&#45;]</text>
</a>
</g>
</g>
<!-- APlasma -->
<g id="node3" class="node">
<title>APlasma</title>
<g id="a_node3"><a xlink:href="#species-APlasma" xlink:title="APlasma&#10;[PBPKO:00502]">
<path fill="gold" stroke="black" d="M317.19,-179C317.19,-179 228.19,-179 228.19,-179 222.19,-179 216.19,-173 216.19,-167 216.19,-167 216.19,-153 216.19,-153 216.19,-147 222.19,-141 228.19,-141 228.19,-141 317.19,-141 317.19,-141 323.19,-141 329.19,-147 329.19,-153 329.19,-153 329.19,-167 329.19,-167 329.19,-173 323.19,-179 317.19,-179"/>
<text text-anchor="middle" x="272.69" y="-163.8" font-family="Arial" font-size="14.00">APlasma</text>
<text text-anchor="middle" x="272.69" y="-148.8" font-family="Arial" font-size="14.00">[PBPKO:00502]</text>
</a>
</g>
</g>
<!-- AGI&#45;&gt;APlasma -->
<g id="edge1" class="edge">
<title>AGI&#45;&gt;APlasma</title>
<path fill="none" stroke="black" d="M132.63,-265.88C143.25,-255.99 156.9,-243.71 169.69,-233.5 191.13,-216.39 216.29,-198.64 236.38,-184.99"/>
<polygon fill="black" stroke="black" points="238.6,-187.71 244.93,-179.21 234.69,-181.91 238.6,-187.71"/>
<text text-anchor="middle" x="180.69" y="-237.3" font-family="Times,serif" font-size="14.00">_J1</text>
</g>
<!-- ALiver -->
<g id="node2" class="node">
<title>ALiver</title>
<g id="a_node2"><a xlink:href="#species-ALiver" xlink:title="ALiver&#10;[PBPKO:00497]">
<path fill="gold" stroke="black" d="M478.19,-304C478.19,-304 389.19,-304 389.19,-304 383.19,-304 377.19,-298 377.19,-292 377.19,-292 377.19,-278 377.19,-278 377.19,-272 383.19,-266 389.19,-266 389.19,-266 478.19,-266 478.19,-266 484.19,-266 490.19,-272 490.19,-278 490.19,-278 490.19,-292 490.19,-292 490.19,-298 484.19,-304 478.19,-304"/>
<text text-anchor="middle" x="433.69" y="-288.8" font-family="Arial" font-size="14.00">ALiver</text>
<text text-anchor="middle" x="433.69" y="-273.8" font-family="Arial" font-size="14.00">[PBPKO:00497]</text>
</a>
</g>
</g>
<!-- ALiver&#45;&gt;APlasma -->
<g id="edge2" class="edge">
<title>ALiver&#45;&gt;APlasma</title>
<path fill="none" stroke="black" d="M409.94,-265.85C382.03,-244.53 335.62,-209.08 304.6,-185.37"/>
<polygon fill="black" stroke="black" points="306.36,-182.31 296.29,-179.02 302.11,-187.88 306.36,-182.31"/>
<text text-anchor="middle" x="396.69" y="-237.3" font-family="Times,serif" font-size="14.00">_J3</text>
</g>
<!-- APlasma&#45;&gt;AGI -->
<g id="edge3" class="edge">
<title>APlasma&#45;&gt;AGI</title>
<path fill="none" stroke="black" d="M259.49,-179.08C244.72,-198.3 219.22,-228.62 191.69,-248.5 179.17,-257.54 163.98,-265.09 150.35,-270.87"/>
<polygon fill="black" stroke="black" points="148.7,-267.76 140.75,-274.76 151.33,-274.24 148.7,-267.76"/>
<text text-anchor="middle" x="220.69" y="-237.3" font-family="Times,serif" font-size="14.00">_J0</text>
</g>
<!-- APlasma&#45;&gt;ALiver -->
<g id="edge4" class="edge">
<title>APlasma&#45;&gt;ALiver</title>
<path fill="none" stroke="black" d="M326.75,-179.12C355.08,-190.89 388.59,-208.72 411.69,-233.5 417.72,-239.96 422.26,-248.34 425.61,-256.41"/>
<polygon fill="black" stroke="black" points="422.38,-257.77 429.11,-265.95 428.95,-255.36 422.38,-257.77"/>
<text text-anchor="middle" x="432.69" y="-237.3" font-family="Times,serif" font-size="14.00">_J2</text>
</g>
<!-- ARest -->
<g id="node4" class="node">
<title>ARest</title>
<g id="a_node4"><a xlink:href="#species-ARest" xlink:title="ARest&#10;[PBPKO:00501]">
<path fill="gold" stroke="black" d="M335.19,-54C335.19,-54 246.19,-54 246.19,-54 240.19,-54 234.19,-48 234.19,-42 234.19,-42 234.19,-28 234.19,-28 234.19,-22 240.19,-16 246.19,-16 246.19,-16 335.19,-16 335.19,-16 341.19,-16 347.19,-22 347.19,-28 347.19,-28 347.19,-42 347.19,-42 347.19,-48 341.19,-54 335.19,-54"/>
<text text-anchor="middle" x="290.69" y="-38.8" font-family="Arial" font-size="14.00">ARest</text>
<text text-anchor="middle" x="290.69" y="-23.8" font-family="Arial" font-size="14.00">[PBPKO:00501]</text>
</a>
</g>
</g>
<!-- APlasma&#45;&gt;ARest -->
<g id="edge5" class="edge">
<title>APlasma&#45;&gt;ARest</title>
<path fill="none" stroke="black" d="M275.35,-140.85C278.3,-120.68 283.1,-87.86 286.55,-64.31"/>
<polygon fill="black" stroke="black" points="290.04,-64.62 288.03,-54.22 283.12,-63.61 290.04,-64.62"/>
<text text-anchor="middle" x="290.69" y="-112.3" font-family="Times,serif" font-size="14.00">_J4</text>
</g>
<!-- ARest&#45;&gt;APlasma -->
<g id="edge6" class="edge">
<title>ARest&#45;&gt;APlasma</title>
<path fill="none" stroke="black" d="M299.25,-54C306.6,-72.11 314.71,-100.55 305.69,-123.5 304.39,-126.81 302.62,-130 300.57,-133.01"/>
<polygon fill="black" stroke="black" points="297.7,-130.99 294.21,-140.99 303.18,-135.35 297.7,-130.99"/>
<text text-anchor="middle" x="319.69" y="-112.3" font-family="Times,serif" font-size="14.00">_J5</text>
</g>
</g>
</svg>
