<?xml version="1.0" encoding="UTF-8" standalone="no"?>
<!DOCTYPE svg PUBLIC "-//W3C//DTD SVG 1.1//EN"
 "http://www.w3.org/Graphics/SVG/1.1/DTD/svg11.dtd">
<!-- Generated by graphviz version 2.43.0 (0)
 -->
<!-- Title: %3 Pages: 1 -->
<svg width="501pt" height="288pt"
 viewBox="0.00 0.00 501.02 288.00" xmlns="http://www.w3.org/2000/svg" xmlns:xlink="http://www.w3.org/1999/xlink">
<g id="graph0" class="graph" transform="scale(0.5 0.5) rotate(0) translate(4 576)">
<title>%3</title>
<polygon fill="white" stroke="transparent" points="-4,4 -4,-576 1005,-576 1005,4 -4,4"/>
<g id="clust1" class="cluster">
<title>cluster_GI</title>
<g id="a_clust1"><a xlink:href="#compartment-GI" xlink:title="GI&#10;[PBPKO:00477]">
<path fill="lightblue" stroke="black" d="M739.35,-347C739.35,-347 847.6,-347 847.6,-347 853.6,-347 859.6,-353 859.6,-359 859.6,-359 859.6,-552 859.6,-552 859.6,-558 853.6,-564 847.6,-564 847.6,-564 739.35,-564 739.35,-564 733.35,-564 727.35,-558 727.35,-552 727.35,-552 727.35,-359 727.35,-359 727.35,-353 733.35,-347 739.35,-347"/>
<text text-anchor="middle" x="793.48" y="-548.8" font-family="Arial" font-size="14.00">GI</text>
<text text-anchor="middle" x="793.48" y="-533.8" font-family="Arial" font-size="14.00">[PBPKO:00477]</text>
</a>
</g>
</g>
<g id="clust2" class="cluster">
<title>cluster_Liver</title>
<g id="a_clust2"><a xlink:href="#compartment-Liver" xlink:title="Liver&#10;[PBPKO:00558]">
<path fill="lightblue" stroke="black" d="M598.97,-222C598.97,-222 707.21,-222 707.21,-222 713.21,-222 719.21,-228 719.21,-234 719.21,-234 719.21,-427 719.21,-427 719.21,-433 713.21,-439 707.21,-439 707.21,-439 598.97,-439 598.97,-439 592.97,-439 586.97,-433 586.97,-427 586.97,-427 586.97,-234 586.97,-234 586.97,-228 592.97,-222 598.97,-222"/>
<text text-anchor="middle" x="653.09" y="-423.8" font-family="Arial" font-size="14.00">Liver</text>
<text text-anchor="middle" x="653.09" y="-408.8" font-family="Arial" font-size="14.00">[PBPKO:00558]</text>
</a>
</g>
</g>
<g id="clust3" class="cluster">
<title>cluster_Plasma</title>
<g id="a_clust3"><a xlink:href="#compartment-Plasma" xlink:title="Plasma&#10;[PBPKO:00488]">
<path fill="lightblue" stroke="black" d="M458.58,-97C458.58,-97 566.83,-97 566.83,-97 572.83,-97 578.83,-103 578.83,-109 578.83,-109 578.83,-302 578.83,-302 578.83,-308 572.83,-314 566.83,-314 566.83,-314 458.58,-314 458.58,-314 452.58,-314 446.58,-308 446.58,-302 446.58,-302 446.58,-109 446.58,-109 446.58,-103 452.58,-97 458.58,-97"/>
<text text-anchor="middle" x="512.71" y="-298.8" font-family="Arial" font-size="14.00">Plasma</text>
<text text-anchor="middle" x="512.71" y="-283.8" font-family="Arial" font-size="14.00">[PBPKO:00488]</text>
</a>
</g>
</g>
<g id="clust4" class="cluster">
<title>cluster_RBC</title>
<g id="a_clust4"><a xlink:href="#compartment-RBC" xlink:title="RBC&#10;[PBPKO:00634]">
<path fill="lightblue" stroke="black" d="M20.14,-8C20.14,-8 128.38,-8 128.38,-8 134.38,-8 140.38,-14 140.38,-20 140.38,-20 140.38,-177 140.38,-177 140.38,-183 134.38,-189 128.38,-189 128.38,-189 20.14,-189 20.14,-189 14.14,-189 8.14,-183 8.14,-177 8.14,-177 8.14,-20 8.14,-20 8.14,-14 14.14,-8 20.14,-8"/>
<text text-anchor="middle" x="74.26" y="-173.8" font-family="Arial" font-size="14.00">RBC</text>
<text text-anchor="middle" x="74.26" y="-158.8" font-family="Arial" font-size="14.00">[PBPKO:00634]</text>
</a>
</g>
</g>
<g id="clust5" class="cluster">
<title>cluster_Rest</title>
<g id="a_clust5"><a xlink:href="#compartment-Rest" xlink:title="Rest&#10;[PBPKO:00450]">
<path fill="lightblue" stroke="black" d="M160.52,-97C160.52,-97 402.03,-97 402.03,-97 408.03,-97 414.03,-103 414.03,-109 414.03,-109 414.03,-177 414.03,-177 414.03,-183 408.03,-189 402.03,-189 402.03,-189 160.52,-189 160.52,-189 154.52,-189 148.52,-183 148.52,-177 148.52,-177 148.52,-109 148.52,-109 148.52,-103 154.52,-97 160.52,-97"/>
<text text-anchor="middle" x="281.28" y="-173.8" font-family="Arial" font-size="14.00">Rest</text>
<text text-anchor="middle" x="281.28" y="-158.8" font-family="Arial" font-size="14.00">[PBPKO:00450]</text>
</a>
</g>
</g>
<g id="clust6" class="cluster">
<title>cluster_Feces</title>
<g id="a_clust6"><a xlink:href="#compartment-Feces" xlink:title="Feces&#10;[PBPKO:00555]">
<path fill="lightblue" stroke="black" d="M739.35,-222C739.35,-222 980.86,-222 980.86,-222 986.86,-222 992.86,-228 992.86,-234 992.86,-234 992.86,-302 992.86,-302 992.86,-308 986.86,-314 980.86,-314 980.86,-314 739.35,-314 739.35,-314 733.35,-314 727.35,-308 727.35,-302 727.35,-302 727.35,-234 727.35,-234 727.35,-228 733.35,-222 739.35,-222"/>
<text text-anchor="middle" x="860.11" y="-298.8" font-family="Arial" font-size="14.00">Feces</text>
<text text-anchor="middle" x="860.11" y="-283.8" font-family="Arial" font-size="14.00">[PBPKO:00555]</text>
</a>
</g>
</g>
<!-- AGI_Cr3 -->
<g id="node1" class="node">
<title>AGI_Cr3</title>
<g id="a_node1"><a xlink:href="#species-AGI_Cr3" xlink:title="AGI_Cr3&#10;[PBPKO:00496]">
<path fill="gold" stroke="black" d="M837.88,-393C837.88,-393 748.88,-393 748.88,-393 742.88,-393 736.88,-387 736.88,-381 736.88,-381 736.88,-367 736.88,-367 736.88,-361 742.88,-355 748.88,-355 748.88,-355 837.88,-355 837.88,-355 843.88,-355 849.88,-361 849.88,-367 849.88,-367 849.88,-381 849.88,-381 849.88,-387 843.88,-393 837.88,-393"/>
<text text-anchor="middle" x="793.38" y="-377.8" font-family="Arial" font-size="14.00">AGI_Cr3</text>
<text text-anchor="middle" x="793.38" y="-362.8" font-family="Arial" font-size="14.00">[PBPKO:00496]</text>
</a>
</g>
</g>
<!-- ALiver_Cr3 -->
<g id="node3" class="node">
<title>ALiver_Cr3</title>
<g id="a_node3"><a xlink:href="#species-ALiver_Cr3" xlink:title="ALiver_Cr3&#10;[PBPKO:00497]">
<path fill="gold" stroke="black" d="M697.88,-268C697.88,-268 608.88,-268 608.88,-268 602.88,-268 596.88,-262 596.88,-256 596.88,-256 596.88,-242 596.88,-242 596.88,-236 602.88,-230 608.88,-230 608.88,-230 697.88,-230 697.88,-230 703.88,-230 709.88,-236 709.88,-242 709.88,-242 709.88,-256 709.88,-256 709.88,-262 703.88,-268 697.88,-268"/>
<text text-anchor="middle" x="653.38" y="-252.8" font-family="Arial" font-size="14.00">ALiver_Cr3</text>
<text text-anchor="middle" x="653.38" y="-237.8" font-family="Arial" font-size="14.00">[PBPKO:00497]</text>
</a>
</g>
</g>
<!-- AGI_Cr3&#45;&gt;ALiver_Cr3 -->
<g id="edge1" class="edge">
<title>AGI_Cr3&#45;&gt;ALiver_Cr3</title>
<path fill="none" stroke="black" d="M771.43,-354.89C757.54,-343.33 739.26,-327.95 723.38,-314 709.03,-301.4 693.32,-287.09 680.43,-275.2"/>
<polygon fill="black" stroke="black" points="682.52,-272.36 672.8,-268.14 677.77,-277.5 682.52,-272.36"/>
<text text-anchor="middle" x="760.38" y="-326.3" font-family="Times,serif" font-size="14.00">_J2</text>
</g>
<!-- AFeces_Cr3 -->
<g id="node11" class="node">
<title>AFeces_Cr3</title>
<g id="a_node11"><a xlink:href="#species-AFeces_Cr3" xlink:title="AFeces_Cr3&#10;[PBPKO:00273]">
<path fill="gold" stroke="black" d="M837.88,-268C837.88,-268 748.88,-268 748.88,-268 742.88,-268 736.88,-262 736.88,-256 736.88,-256 736.88,-242 736.88,-242 736.88,-236 742.88,-230 748.88,-230 748.88,-230 837.88,-230 837.88,-230 843.88,-230 849.88,-236 849.88,-242 849.88,-242 849.88,-256 849.88,-256 849.88,-262 843.88,-268 837.88,-268"/>
<text text-anchor="middle" x="793.38" y="-252.8" font-family="Arial" font-size="14.00">AFeces_Cr3</text>
<text text-anchor="middle" x="793.38" y="-237.8" font-family="Arial" font-size="14.00">[PBPKO:00273]</text>
</a>
</g>
</g>
<!-- AGI_Cr3&#45;&gt;AFeces_Cr3 -->
<g id="edge2" class="edge">
<title>AGI_Cr3&#45;&gt;AFeces_Cr3</title>
<path fill="none" stroke="black" d="M793.38,-354.85C793.38,-334.68 793.38,-301.86 793.38,-278.31"/>
<polygon fill="black" stroke="black" points="796.88,-278.22 793.38,-268.22 789.88,-278.22 796.88,-278.22"/>
<text text-anchor="middle" x="804.38" y="-326.3" font-family="Times,serif" font-size="14.00">_J4</text>
</g>
<!-- AGI_Cr6 -->
<g id="node2" class="node">
<title>AGI_Cr6</title>
<g id="a_node2"><a xlink:href="#species-AGI_Cr6" xlink:title="AGI_Cr6&#10;[PBPKO:00496]">
<path fill="gold" stroke="black" d="M837.88,-518C837.88,-518 748.88,-518 748.88,-518 742.88,-518 736.88,-512 736.88,-506 736.88,-506 736.88,-492 736.88,-492 736.88,-486 742.88,-480 748.88,-480 748.88,-480 837.88,-480 837.88,-480 843.88,-480 849.88,-486 849.88,-492 849.88,-492 849.88,-506 849.88,-506 849.88,-512 843.88,-518 837.88,-518"/>
<text text-anchor="middle" x="793.38" y="-502.8" font-family="Arial" font-size="14.00">AGI_Cr6</text>
<text text-anchor="middle" x="793.38" y="-487.8" font-family="Arial" font-size="14.00">[PBPKO:00496]</text>
</a>
</g>
</g>
<!-- AGI_Cr6&#45;&gt;AGI_Cr3 -->
<g id="edge3" class="edge">
<title>AGI_Cr6&#45;&gt;AGI_Cr3</title>
<path fill="none" stroke="black" d="M793.38,-479.85C793.38,-459.68 793.38,-426.86 793.38,-403.31"/>
<polygon fill="black" stroke="black" points="796.88,-403.22 793.38,-393.22 789.88,-403.22 796.88,-403.22"/>
<text text-anchor="middle" x="804.38" y="-451.3" font-family="Times,serif" font-size="14.00">_J0</text>
</g>
<!-- ALiver_Cr6 -->
<g id="node4" class="node">
<title>ALiver_Cr6</title>
<g id="a_node4"><a xlink:href="#species-ALiver_Cr6" xlink:title="ALiver_Cr6&#10;[PBPKO:00497]">
<path fill="gold" stroke="black" d="M697.88,-393C697.88,-393 608.88,-393 608.88,-393 602.88,-393 596.88,-387 596.88,-381 596.88,-381 596.88,-367 596.88,-367 596.88,-361 602.88,-355 608.88,-355 608.88,-355 697.88,-355 697.88,-355 703.88,-355 709.88,-361 709.88,-367 709.88,-367 709.88,-381 709.88,-381 709.88,-387 703.88,-393 697.88,-393"/>
<text text-anchor="middle" x="653.38" y="-377.8" font-family="Arial" font-size="14.00">ALiver_Cr6</text>
<text text-anchor="middle" x="653.38" y="-362.8" font-family="Arial" font-size="14.00">[PBPKO:00497]</text>
</a>
</g>
</g>
<!-- AGI_Cr6&#45;&gt;ALiver_Cr6 -->
<g id="edge4" class="edge">
<title>AGI_Cr6&#45;&gt;ALiver_Cr6</title>
<path fill="none" stroke="black" d="M771.43,-479.89C757.54,-468.33 739.26,-452.95 723.38,-439 709.03,-426.4 693.32,-412.09 680.43,-400.2"/>
<polygon fill="black" stroke="black" points="682.52,-397.36 672.8,-393.14 677.77,-402.5 682.52,-397.36"/>
<text text-anchor="middle" x="760.38" y="-451.3" font-family="Times,serif" font-size="14.00">_J1</text>
</g>
<!-- AFeces_Cr6 -->
<g id="node12" class="node">
<title>AFeces_Cr6</title>
<g id="a_node12"><a xlink:href="#species-AFeces_Cr6" xlink:title="AFeces_Cr6&#10;[PBPKO:00273]">
<path fill="gold" stroke="black" d="M970.88,-268C970.88,-268 881.88,-268 881.88,-268 875.88,-268 869.88,-262 869.88,-256 869.88,-256 869.88,-242 869.88,-242 869.88,-236 875.88,-230 881.88,-230 881.88,-230 970.88,-230 970.88,-230 976.88,-230 982.88,-236 982.88,-242 982.88,-242 982.88,-256 982.88,-256 982.88,-262 976.88,-268 970.88,-268"/>
<text text-anchor="middle" x="926.38" y="-252.8" font-family="Arial" font-size="14.00">AFeces_Cr6</text>
<text text-anchor="middle" x="926.38" y="-237.8" font-family="Arial" font-size="14.00">[PBPKO:00273]</text>
</a>
</g>
</g>
<!-- AGI_Cr6&#45;&gt;AFeces_Cr6 -->
<g id="edge5" class="edge">
<title>AGI_Cr6&#45;&gt;AFeces_Cr6</title>
<path fill="none" stroke="black" d="M819.13,-480C832.69,-469.39 848.67,-454.95 859.38,-439 893.78,-387.74 912.67,-316.81 921.03,-278.05"/>
<polygon fill="black" stroke="black" points="924.51,-278.52 923.11,-268.02 917.65,-277.1 924.51,-278.52"/>
<text text-anchor="middle" x="912.38" y="-370.3" font-family="Times,serif" font-size="14.00">_J3</text>
</g>
<!-- Aplasma_Cr3 -->
<g id="node5" class="node">
<title>Aplasma_Cr3</title>
<g id="a_node5"><a xlink:href="#species-Aplasma_Cr3" xlink:title="Aplasma_Cr3&#10;[PBPKO:00502]">
<path fill="gold" stroke="black" d="M556.88,-143C556.88,-143 467.88,-143 467.88,-143 461.88,-143 455.88,-137 455.88,-131 455.88,-131 455.88,-117 455.88,-117 455.88,-111 461.88,-105 467.88,-105 467.88,-105 556.88,-105 556.88,-105 562.88,-105 568.88,-111 568.88,-117 568.88,-117 568.88,-131 568.88,-131 568.88,-137 562.88,-143 556.88,-143"/>
<text text-anchor="middle" x="512.38" y="-127.8" font-family="Arial" font-size="14.00">Aplasma_Cr3</text>
<text text-anchor="middle" x="512.38" y="-112.8" font-family="Arial" font-size="14.00">[PBPKO:00502]</text>
</a>
</g>
</g>
<!-- ALiver_Cr3&#45;&gt;Aplasma_Cr3 -->
<g id="edge6" class="edge">
<title>ALiver_Cr3&#45;&gt;Aplasma_Cr3</title>
<path fill="none" stroke="black" d="M640.39,-229.73C632.81,-219.67 622.71,-207.28 612.38,-197.5 593.25,-179.39 569.46,-161.97 549.88,-148.75"/>
<polygon fill="black" stroke="black" points="551.76,-145.79 541.5,-143.16 547.88,-151.62 551.76,-145.79"/>
<text text-anchor="middle" x="636.38" y="-201.3" font-family="Times,serif" font-size="14.00">_J7</text>
</g>
<!-- ALiver_Cr6&#45;&gt;ALiver_Cr3 -->
<g id="edge7" class="edge">
<title>ALiver_Cr6&#45;&gt;ALiver_Cr3</title>
<path fill="none" stroke="black" d="M653.38,-354.85C653.38,-334.68 653.38,-301.86 653.38,-278.31"/>
<polygon fill="black" stroke="black" points="656.88,-278.22 653.38,-268.22 649.88,-278.22 656.88,-278.22"/>
<text text-anchor="middle" x="664.38" y="-326.3" font-family="Times,serif" font-size="14.00">_J5</text>
</g>
<!-- Aplasma_Cr6 -->
<g id="node6" class="node">
<title>Aplasma_Cr6</title>
<g id="a_node6"><a xlink:href="#species-Aplasma_Cr6" xlink:title="Aplasma_Cr6&#10;[PBPKO:00502]">
<path fill="gold" stroke="black" d="M556.88,-268C556.88,-268 467.88,-268 467.88,-268 461.88,-268 455.88,-262 455.88,-256 455.88,-256 455.88,-242 455.88,-242 455.88,-236 461.88,-230 467.88,-230 467.88,-230 556.88,-230 556.88,-230 562.88,-230 568.88,-236 568.88,-242 568.88,-242 568.88,-256 568.88,-256 568.88,-262 562.88,-268 556.88,-268"/>
<text text-anchor="middle" x="512.38" y="-252.8" font-family="Arial" font-size="14.00">Aplasma_Cr6</text>
<text text-anchor="middle" x="512.38" y="-237.8" font-family="Arial" font-size="14.00">[PBPKO:00502]</text>
</a>
</g>
</g>
<!-- ALiver_Cr6&#45;&gt;Aplasma_Cr6 -->
<g id="edge8" class="edge">
<title>ALiver_Cr6&#45;&gt;Aplasma_Cr6</title>
<path fill="none" stroke="black" d="M596.8,-362.24C580.64,-356.95 564.01,-349.11 551.38,-337.5 534.25,-321.76 524.2,-297.1 518.6,-277.97"/>
<polygon fill="black" stroke="black" points="521.97,-277.02 516,-268.27 515.21,-278.83 521.97,-277.02"/>
<text text-anchor="middle" x="562.38" y="-326.3" font-family="Times,serif" font-size="14.00">_J6</text>
</g>
<!-- Aplasma_Cr3&#45;&gt;ALiver_Cr3 -->
<g id="edge9" class="edge">
<title>Aplasma_Cr3&#45;&gt;ALiver_Cr3</title>
<path fill="none" stroke="black" d="M522.21,-143.18C533.42,-162.49 553.33,-192.88 577.38,-212.5 583.04,-217.12 589.41,-221.29 595.98,-225.02"/>
<polygon fill="black" stroke="black" points="594.55,-228.22 605.02,-229.82 597.83,-222.04 594.55,-228.22"/>
<text text-anchor="middle" x="592.88" y="-201.3" font-family="Times,serif" font-size="14.00">_J10</text>
</g>
<!-- ARBC_Cr3 -->
<g id="node7" class="node">
<title>ARBC_Cr3</title>
<g id="a_node7"><a xlink:href="#species-ARBC_Cr3" xlink:title="ARBC_Cr3&#10;[PBPKO:00623]">
<path fill="gold" stroke="black" d="M118.88,-54C118.88,-54 29.88,-54 29.88,-54 23.88,-54 17.88,-48 17.88,-42 17.88,-42 17.88,-28 17.88,-28 17.88,-22 23.88,-16 29.88,-16 29.88,-16 118.88,-16 118.88,-16 124.88,-16 130.88,-22 130.88,-28 130.88,-28 130.88,-42 130.88,-42 130.88,-48 124.88,-54 118.88,-54"/>
<text text-anchor="middle" x="74.38" y="-38.8" font-family="Arial" font-size="14.00">ARBC_Cr3</text>
<text text-anchor="middle" x="74.38" y="-23.8" font-family="Arial" font-size="14.00">[PBPKO:00623]</text>
</a>
</g>
</g>
<!-- Aplasma_Cr3&#45;&gt;ARBC_Cr3 -->
<g id="edge10" class="edge">
<title>Aplasma_Cr3&#45;&gt;ARBC_Cr3</title>
<path fill="none" stroke="black" d="M455.72,-107.29C443.41,-103.89 430.46,-100.32 418.38,-97 378.4,-86.03 368.97,-80.91 328.38,-72.5 265.29,-59.43 192.43,-49.48 140.97,-43.3"/>
<polygon fill="black" stroke="black" points="141.31,-39.81 130.97,-42.11 140.49,-46.76 141.31,-39.81"/>
<text text-anchor="middle" x="401.88" y="-76.3" font-family="Times,serif" font-size="14.00">_J13</text>
</g>
<!-- ARest_Cr3 -->
<g id="node9" class="node">
<title>ARest_Cr3</title>
<g id="a_node9"><a xlink:href="#species-ARest_Cr3" xlink:title="ARest_Cr3&#10;[PBPKO:00501]">
<path fill="gold" stroke="black" d="M392.88,-143C392.88,-143 303.88,-143 303.88,-143 297.88,-143 291.88,-137 291.88,-131 291.88,-131 291.88,-117 291.88,-117 291.88,-111 297.88,-105 303.88,-105 303.88,-105 392.88,-105 392.88,-105 398.88,-105 404.88,-111 404.88,-117 404.88,-117 404.88,-131 404.88,-131 404.88,-137 398.88,-143 392.88,-143"/>
<text text-anchor="middle" x="348.38" y="-127.8" font-family="Arial" font-size="14.00">ARest_Cr3</text>
<text text-anchor="middle" x="348.38" y="-112.8" font-family="Arial" font-size="14.00">[PBPKO:00501]</text>
</a>
</g>
</g>
<!-- Aplasma_Cr3&#45;&gt;ARest_Cr3 -->
<g id="edge11" class="edge">
<title>Aplasma_Cr3&#45;&gt;ARest_Cr3</title>
<path fill="none" stroke="black" d="M455.86,-124C442.83,-124 428.84,-124 415.41,-124"/>
<polygon fill="black" stroke="black" points="415.28,-120.5 405.28,-124 415.28,-127.5 415.28,-120.5"/>
<text text-anchor="middle" x="430.38" y="-130.8" font-family="Times,serif" font-size="14.00">_J19</text>
</g>
<!-- Aplasma_Cr6&#45;&gt;ALiver_Cr6 -->
<g id="edge12" class="edge">
<title>Aplasma_Cr6&#45;&gt;ALiver_Cr6</title>
<path fill="none" stroke="black" d="M532.11,-268.11C546.27,-281.02 565.87,-298.73 583.38,-314 596.45,-325.39 611.09,-337.79 623.6,-348.27"/>
<polygon fill="black" stroke="black" points="621.55,-351.12 631.46,-354.85 626.04,-345.75 621.55,-351.12"/>
<text text-anchor="middle" x="620.38" y="-326.3" font-family="Times,serif" font-size="14.00">_J9</text>
</g>
<!-- Aplasma_Cr6&#45;&gt;Aplasma_Cr3 -->
<g id="edge13" class="edge">
<title>Aplasma_Cr6&#45;&gt;Aplasma_Cr3</title>
<path fill="none" stroke="black" d="M512.38,-229.85C512.38,-209.68 512.38,-176.86 512.38,-153.31"/>
<polygon fill="black" stroke="black" points="515.88,-153.22 512.38,-143.22 508.88,-153.22 515.88,-153.22"/>
<text text-anchor="middle" x="523.38" y="-201.3" font-family="Times,serif" font-size="14.00">_J8</text>
</g>
<!-- ARBC_Cr6 -->
<g id="node8" class="node">
<title>ARBC_Cr6</title>
<g id="a_node8"><a xlink:href="#species-ARBC_Cr6" xlink:title="ARBC_Cr6&#10;[PBPKO:00623]">
<path fill="gold" stroke="black" d="M118.88,-143C118.88,-143 29.88,-143 29.88,-143 23.88,-143 17.88,-137 17.88,-131 17.88,-131 17.88,-117 17.88,-117 17.88,-111 23.88,-105 29.88,-105 29.88,-105 118.88,-105 118.88,-105 124.88,-105 130.88,-111 130.88,-117 130.88,-117 130.88,-131 130.88,-131 130.88,-137 124.88,-143 118.88,-143"/>
<text text-anchor="middle" x="74.38" y="-127.8" font-family="Arial" font-size="14.00">ARBC_Cr6</text>
<text text-anchor="middle" x="74.38" y="-112.8" font-family="Arial" font-size="14.00">[PBPKO:00623]</text>
</a>
</g>
</g>
<!-- Aplasma_Cr6&#45;&gt;ARBC_Cr6 -->
<g id="edge14" class="edge">
<title>Aplasma_Cr6&#45;&gt;ARBC_Cr6</title>
<path fill="none" stroke="black" d="M455.56,-247.73C366.43,-246.44 198.5,-240.26 146.38,-212.5 120.93,-198.94 101.03,-172.23 88.65,-151.87"/>
<polygon fill="black" stroke="black" points="91.56,-149.91 83.51,-143.03 85.51,-153.44 91.56,-149.91"/>
<text text-anchor="middle" x="161.88" y="-201.3" font-family="Times,serif" font-size="14.00">_J12</text>
</g>
<!-- ARest_Cr6 -->
<g id="node10" class="node">
<title>ARest_Cr6</title>
<g id="a_node10"><a xlink:href="#species-ARest_Cr6" xlink:title="ARest_Cr6&#10;[PBPKO:00501]">
<path fill="gold" stroke="black" d="M258.88,-143C258.88,-143 169.88,-143 169.88,-143 163.88,-143 157.88,-137 157.88,-131 157.88,-131 157.88,-117 157.88,-117 157.88,-111 163.88,-105 169.88,-105 169.88,-105 258.88,-105 258.88,-105 264.88,-105 270.88,-111 270.88,-117 270.88,-117 270.88,-131 270.88,-131 270.88,-137 264.88,-143 258.88,-143"/>
<text text-anchor="middle" x="214.38" y="-127.8" font-family="Arial" font-size="14.00">ARest_Cr6</text>
<text text-anchor="middle" x="214.38" y="-112.8" font-family="Arial" font-size="14.00">[PBPKO:00501]</text>
</a>
</g>
</g>
<!-- Aplasma_Cr6&#45;&gt;ARest_Cr6 -->
<g id="edge15" class="edge">
<title>Aplasma_Cr6&#45;&gt;ARest_Cr6</title>
<path fill="none" stroke="black" d="M455.64,-242.3C406.94,-235.41 336.28,-220.54 282.38,-189 265.07,-178.87 248.61,-163.58 236.22,-150.49"/>
<polygon fill="black" stroke="black" points="238.76,-148.09 229.42,-143.09 233.61,-152.82 238.76,-148.09"/>
<text text-anchor="middle" x="344.88" y="-201.3" font-family="Times,serif" font-size="14.00">_J18</text>
</g>
<!-- ARBC_Cr3&#45;&gt;Aplasma_Cr3 -->
<g id="edge16" class="edge">
<title>ARBC_Cr3&#45;&gt;Aplasma_Cr3</title>
<path fill="none" stroke="black" d="M131.08,-51.89C175.02,-63.58 237.6,-78.88 293.38,-87.5 348.44,-96.01 363.49,-87.42 418.38,-97 427.38,-98.57 436.77,-100.64 445.97,-102.92"/>
<polygon fill="black" stroke="black" points="445.31,-106.36 455.87,-105.46 447.05,-99.58 445.31,-106.36"/>
<text text-anchor="middle" x="308.88" y="-76.3" font-family="Times,serif" font-size="14.00">_J14</text>
</g>
<!-- ARBC_Cr6&#45;&gt;Aplasma_Cr6 -->
<g id="edge17" class="edge">
<title>ARBC_Cr6&#45;&gt;Aplasma_Cr6</title>
<path fill="none" stroke="black" d="M89.1,-143.11C102.08,-157.82 122.32,-177.88 144.38,-189 156.51,-195.12 250.98,-210.23 264.38,-212.5 325.56,-222.86 395.58,-232.7 445.58,-239.38"/>
<polygon fill="black" stroke="black" points="445.24,-242.87 455.61,-240.72 446.16,-235.93 445.24,-242.87"/>
<text text-anchor="middle" x="279.88" y="-201.3" font-family="Times,serif" font-size="14.00">_J15</text>
</g>
<!-- ARBC_Cr6&#45;&gt;ARBC_Cr3 -->
<g id="edge18" class="edge">
<title>ARBC_Cr6&#45;&gt;ARBC_Cr3</title>
<path fill="none" stroke="black" d="M74.38,-104.97C74.38,-93.19 74.38,-77.56 74.38,-64.16"/>
<polygon fill="black" stroke="black" points="77.88,-64 74.38,-54 70.88,-64 77.88,-64"/>
<text text-anchor="middle" x="89.88" y="-76.3" font-family="Times,serif" font-size="14.00">_J11</text>
</g>
<!-- ARest_Cr3&#45;&gt;Aplasma_Cr3 -->
<g id="edge19" class="edge">
<title>ARest_Cr3&#45;&gt;Aplasma_Cr3</title>
<path fill="none" stroke="black" d="M405.28,-124C418.33,-124 432.31,-124 445.73,-124"/>
<polygon fill="black" stroke="black" points="445.86,-127.5 455.86,-124 445.86,-120.5 445.86,-127.5"/>
<text text-anchor="middle" x="430.38" y="-130.8" font-family="Times,serif" font-size="14.00">_J17</text>
</g>
<!-- ARest_Cr6&#45;&gt;Aplasma_Cr6 -->
<g id="edge20" class="edge">
<title>ARest_Cr6&#45;&gt;Aplasma_Cr6</title>
<path fill="none" stroke="black" d="M227.83,-143.03C240.2,-158.11 259.97,-178.75 282.38,-189 315.7,-204.25 328.59,-189.65 364.38,-197.5 396.28,-204.5 430.89,-216.08 458.61,-226.38"/>
<polygon fill="black" stroke="black" points="457.52,-229.71 468.11,-229.96 459.99,-223.16 457.52,-229.71"/>
<text text-anchor="middle" x="433.88" y="-201.3" font-family="Times,serif" font-size="14.00">_J16</text>
</g>
</g>
</svg>
