<?xml version="1.0" encoding="UTF-8" standalone="no"?>
<!DOCTYPE svg PUBLIC "-//W3C//DTD SVG 1.1//EN"
 "http://www.w3.org/Graphics/SVG/1.1/DTD/svg11.dtd">
<!-- Generated by graphviz version 2.43.0 (0)
 -->
<!-- Title: %3 Pages: 1 -->
<svg width="499pt" height="288pt"
 viewBox="0.00 0.00 499.28 288.00" xmlns="http://www.w3.org/2000/svg" xmlns:xlink="http://www.w3.org/1999/xlink">
<g id="graph0" class="graph" transform="scale(0.79 0.79) rotate(0) translate(4 362)">
<title>%3</title>
<polygon fill="white" stroke="transparent" points="-4,4 -4,-362 630.5,-362 630.5,4 -4,4"/>
<g id="clust1" class="cluster">
<title>cluster_Stomach</title>
<g id="a_clust1"><a xlink:href="#compartment-Stomach" xlink:title="Stomach&#10;[PBPKO:00566]">
<path fill="lightblue" stroke="black" d="M106.18,-258C106.18,-258 544.89,-258 544.89,-258 550.89,-258 556.89,-264 556.89,-270 556.89,-270 556.89,-338 556.89,-338 556.89,-344 550.89,-350 544.89,-350 544.89,-350 106.18,-350 106.18,-350 100.18,-350 94.18,-344 94.18,-338 94.18,-338 94.18,-270 94.18,-270 94.18,-264 100.18,-258 106.18,-258"/>
<text text-anchor="middle" x="325.53" y="-334.8" font-family="Arial" font-size="14.00">Stomach</text>
<text text-anchor="middle" x="325.53" y="-319.8" font-family="Arial" font-size="14.00">[PBPKO:00566]</text>
</a>
</g>
</g>
<g id="clust2" class="cluster">
<title>cluster_Blood</title>
<g id="a_clust2"><a xlink:href="#compartment-Blood" xlink:title="Blood&#10;[PBPKO:00464]">
<path fill="lightblue" stroke="black" d="M44.76,-133C44.76,-133 553.08,-133 553.08,-133 559.08,-133 565.08,-139 565.08,-145 565.08,-145 565.08,-213 565.08,-213 565.08,-219 559.08,-225 553.08,-225 553.08,-225 44.76,-225 44.76,-225 38.76,-225 32.76,-219 32.76,-213 32.76,-213 32.76,-145 32.76,-145 32.76,-139 38.76,-133 44.76,-133"/>
<text text-anchor="middle" x="298.92" y="-209.8" font-family="Arial" font-size="14.00">Blood</text>
<text text-anchor="middle" x="298.92" y="-194.8" font-family="Arial" font-size="14.00">[PBPKO:00464]</text>
</a>
</g>
</g>
<g id="clust3" class="cluster">
<title>cluster_Bladder</title>
<g id="a_clust3"><a xlink:href="#compartment-Bladder" xlink:title="Bladder&#10;[PBPKO:00402]">
<path fill="lightblue" stroke="black" d="M143.03,-8C143.03,-8 581.74,-8 581.74,-8 587.74,-8 593.74,-14 593.74,-20 593.74,-20 593.74,-88 593.74,-88 593.74,-94 587.74,-100 581.74,-100 581.74,-100 143.03,-100 143.03,-100 137.03,-100 131.03,-94 131.03,-88 131.03,-88 131.03,-20 131.03,-20 131.03,-14 137.03,-8 143.03,-8"/>
<text text-anchor="middle" x="362.39" y="-84.8" font-family="Arial" font-size="14.00">Bladder</text>
<text text-anchor="middle" x="362.39" y="-69.8" font-family="Arial" font-size="14.00">[PBPKO:00402]</text>
</a>
</g>
</g>
<!-- ASt -->
<g id="node1" class="node">
<title>ASt</title>
<g id="a_node1"><a xlink:href="#species-ASt" xlink:title="ASt&#10;[&#45;]">
<path fill="gold" stroke="black" d="M313.64,-304C313.64,-304 283.64,-304 283.64,-304 277.64,-304 271.64,-298 271.64,-292 271.64,-292 271.64,-278 271.64,-278 271.64,-272 277.64,-266 283.64,-266 283.64,-266 313.64,-266 313.64,-266 319.64,-266 325.64,-272 325.64,-278 325.64,-278 325.64,-292 325.64,-292 325.64,-298 319.64,-304 313.64,-304"/>
<text text-anchor="middle" x="298.64" y="-288.8" font-family="Arial" font-size="14.00">ASt</text>
<text text-anchor="middle" x="298.64" y="-273.8" font-family="Arial" font-size="14.00">[&#45;]</text>
</a>
</g>
</g>
<!-- ABlood -->
<g id="node2" class="node">
<title>ABlood</title>
<g id="a_node2"><a xlink:href="#species-ABlood" xlink:title="ABlood&#10;[PBPKO:00623]">
<path fill="gold" stroke="black" d="M343.14,-179C343.14,-179 254.14,-179 254.14,-179 248.14,-179 242.14,-173 242.14,-167 242.14,-167 242.14,-153 242.14,-153 242.14,-147 248.14,-141 254.14,-141 254.14,-141 343.14,-141 343.14,-141 349.14,-141 355.14,-147 355.14,-153 355.14,-153 355.14,-167 355.14,-167 355.14,-173 349.14,-179 343.14,-179"/>
<text text-anchor="middle" x="298.64" y="-163.8" font-family="Arial" font-size="14.00">ABlood</text>
<text text-anchor="middle" x="298.64" y="-148.8" font-family="Arial" font-size="14.00">[PBPKO:00623]</text>
</a>
</g>
</g>
<!-- ASt&#45;&gt;ABlood -->
<g id="edge1" class="edge">
<title>ASt&#45;&gt;ABlood</title>
<path fill="none" stroke="black" d="M298.64,-265.85C298.64,-245.68 298.64,-212.86 298.64,-189.31"/>
<polygon fill="black" stroke="black" points="302.14,-189.22 298.64,-179.22 295.14,-189.22 302.14,-189.22"/>
<text text-anchor="middle" x="309.64" y="-237.3" font-family="Times,serif" font-size="14.00">_J0</text>
</g>
<!-- AExcr -->
<g id="node3" class="node">
<title>AExcr</title>
<g id="a_node3"><a xlink:href="#species-AExcr" xlink:title="AExcr&#10;[&#45;]">
<path fill="gold" stroke="black" d="M313.64,-54C313.64,-54 283.64,-54 283.64,-54 277.64,-54 271.64,-48 271.64,-42 271.64,-42 271.64,-28 271.64,-28 271.64,-22 277.64,-16 283.64,-16 283.64,-16 313.64,-16 313.64,-16 319.64,-16 325.64,-22 325.64,-28 325.64,-28 325.64,-42 325.64,-42 325.64,-48 319.64,-54 313.64,-54"/>
<text text-anchor="middle" x="298.64" y="-38.8" font-family="Arial" font-size="14.00">AExcr</text>
<text text-anchor="middle" x="298.64" y="-23.8" font-family="Arial" font-size="14.00">[&#45;]</text>
</a>
</g>
</g>
<!-- ABlood&#45;&gt;AExcr -->
<g id="edge2" class="edge">
<title>ABlood&#45;&gt;AExcr</title>
<path fill="none" stroke="black" d="M298.64,-140.85C298.64,-120.68 298.64,-87.86 298.64,-64.31"/>
<polygon fill="black" stroke="black" points="302.14,-64.22 298.64,-54.22 295.14,-64.22 302.14,-64.22"/>
<text text-anchor="middle" x="309.64" y="-112.3" font-family="Times,serif" font-size="14.00">_J1</text>
</g>
</g>
</svg>
