<?xml version="1.0" encoding="UTF-8" standalone="no"?>
<!DOCTYPE svg PUBLIC "-//W3C//DTD SVG 1.1//EN"
 "http://www.w3.org/Graphics/SVG/1.1/DTD/svg11.dtd">
<!-- Generated by graphviz version 2.43.0 (0)
 -->
<!-- Title: %3 Pages: 1 -->
<svg width="499pt" height="288pt"
 viewBox="0.00 0.00 499.28 288.00" xmlns="http://www.w3.org/2000/svg" xmlns:xlink="http://www.w3.org/1999/xlink">
<g id="graph0" class="graph" transform="scale(0.79 0.79) rotate(0) translate(4 362)">
<title>%3</title>
<polygon fill="white" stroke="transparent" points="-4,4 -4,-362 630.5,-362 630.5,4 -4,4"/>
<g id="clust1" class="cluster">
<title>cluster_Stomach</title>
<g id="a_clust1"><a xlink:href="#compartment-Stomach" xlink:title="Stomach&#10;[&#45;]">
<path fill="lightblue" stroke="black" d="M86.91,-258C86.91,-258 546.4,-258 546.4,-258 552.4,-258 558.4,-264 558.4,-270 558.4,-270 558.4,-338 558.4,-338 558.4,-344 552.4,-350 546.4,-350 546.4,-350 86.91,-350 86.91,-350 80.91,-350 74.91,-344 74.91,-338 74.91,-338 74.91,-270 74.91,-270 74.91,-264 80.91,-258 86.91,-258"/>
<text text-anchor="middle" x="316.65" y="-334.8" font-family="Arial" font-size="14.00">Stomach</text>
<text text-anchor="middle" x="316.65" y="-319.8" font-family="Arial" font-size="14.00">[&#45;]</text>
</a>
</g>
</g>
<g id="clust2" class="cluster">
<title>cluster_Blood</title>
<g id="a_clust2"><a xlink:href="#compartment-Blood" xlink:title="Blood&#10;[&#45;]">
<path fill="lightblue" stroke="black" d="M66.48,-133C66.48,-133 560.02,-133 560.02,-133 566.02,-133 572.02,-139 572.02,-145 572.02,-145 572.02,-213 572.02,-213 572.02,-219 566.02,-225 560.02,-225 560.02,-225 66.48,-225 66.48,-225 60.48,-225 54.48,-219 54.48,-213 54.48,-213 54.48,-145 54.48,-145 54.48,-139 60.48,-133 66.48,-133"/>
<text text-anchor="middle" x="313.25" y="-209.8" font-family="Arial" font-size="14.00">Blood</text>
<text text-anchor="middle" x="313.25" y="-194.8" font-family="Arial" font-size="14.00">[&#45;]</text>
</a>
</g>
</g>
<g id="clust3" class="cluster">
<title>cluster_Bladder</title>
<g id="a_clust3"><a xlink:href="#compartment-Bladder" xlink:title="Bladder&#10;[&#45;]">
<path fill="lightblue" stroke="black" d="M86.91,-8C86.91,-8 539.59,-8 539.59,-8 545.59,-8 551.59,-14 551.59,-20 551.59,-20 551.59,-88 551.59,-88 551.59,-94 545.59,-100 539.59,-100 539.59,-100 86.91,-100 86.91,-100 80.91,-100 74.91,-94 74.91,-88 74.91,-88 74.91,-20 74.91,-20 74.91,-14 80.91,-8 86.91,-8"/>
<text text-anchor="middle" x="313.25" y="-84.8" font-family="Arial" font-size="14.00">Bladder</text>
<text text-anchor="middle" x="313.25" y="-69.8" font-family="Arial" font-size="14.00">[&#45;]</text>
</a>
</g>
</g>
<!-- ASt -->
<g id="node1" class="node">
<title>ASt</title>
<g id="a_node1"><a xlink:href="#species-ASt" xlink:title="ASt&#10;[&#45;]">
<path fill="gold" stroke="black" d="M328.01,-304C328.01,-304 298.01,-304 298.01,-304 292.01,-304 286.01,-298 286.01,-292 286.01,-292 286.01,-278 286.01,-278 286.01,-272 292.01,-266 298.01,-266 298.01,-266 328.01,-266 328.01,-266 334.01,-266 340.01,-272 340.01,-278 340.01,-278 340.01,-292 340.01,-292 340.01,-298 334.01,-304 328.01,-304"/>
<text text-anchor="middle" x="313.01" y="-288.8" font-family="Arial" font-size="14.00">ASt</text>
<text text-anchor="middle" x="313.01" y="-273.8" font-family="Arial" font-size="14.00">[&#45;]</text>
</a>
</g>
</g>
<!-- ABlood -->
<g id="node2" class="node">
<title>ABlood</title>
<g id="a_node2"><a xlink:href="#species-ABlood" xlink:title="ABlood&#10;[&#45;]">
<path fill="gold" stroke="black" d="M331.01,-179C331.01,-179 295.01,-179 295.01,-179 289.01,-179 283.01,-173 283.01,-167 283.01,-167 283.01,-153 283.01,-153 283.01,-147 289.01,-141 295.01,-141 295.01,-141 331.01,-141 331.01,-141 337.01,-141 343.01,-147 343.01,-153 343.01,-153 343.01,-167 343.01,-167 343.01,-173 337.01,-179 331.01,-179"/>
<text text-anchor="middle" x="313.01" y="-163.8" font-family="Arial" font-size="14.00">ABlood</text>
<text text-anchor="middle" x="313.01" y="-148.8" font-family="Arial" font-size="14.00">[&#45;]</text>
</a>
</g>
</g>
<!-- ASt&#45;&gt;ABlood -->
<g id="edge1" class="edge">
<title>ASt&#45;&gt;ABlood</title>
<path fill="none" stroke="black" d="M313.01,-265.85C313.01,-245.68 313.01,-212.86 313.01,-189.31"/>
<polygon fill="black" stroke="black" points="316.51,-189.22 313.01,-179.22 309.51,-189.22 316.51,-189.22"/>
<text text-anchor="middle" x="324.01" y="-237.3" font-family="Times,serif" font-size="14.00">_J0</text>
</g>
<!-- AExcr -->
<g id="node3" class="node">
<title>AExcr</title>
<g id="a_node3"><a xlink:href="#species-AExcr" xlink:title="AExcr&#10;[&#45;]">
<path fill="gold" stroke="black" d="M328.01,-54C328.01,-54 298.01,-54 298.01,-54 292.01,-54 286.01,-48 286.01,-42 286.01,-42 286.01,-28 286.01,-28 286.01,-22 292.01,-16 298.01,-16 298.01,-16 328.01,-16 328.01,-16 334.01,-16 340.01,-22 340.01,-28 340.01,-28 340.01,-42 340.01,-42 340.01,-48 334.01,-54 328.01,-54"/>
<text text-anchor="middle" x="313.01" y="-38.8" font-family="Arial" font-size="14.00">AExcr</text>
<text text-anchor="middle" x="313.01" y="-23.8" font-family="Arial" font-size="14.00">[&#45;]</text>
</a>
</g>
</g>
<!-- ABlood&#45;&gt;AExcr -->
<g id="edge2" class="edge">
<title>ABlood&#45;&gt;AExcr</title>
<path fill="none" stroke="black" d="M313.01,-140.85C313.01,-120.68 313.01,-87.86 313.01,-64.31"/>
<polygon fill="black" stroke="black" points="316.51,-64.22 313.01,-54.22 309.51,-64.22 316.51,-64.22"/>
<text text-anchor="middle" x="324.01" y="-112.3" font-family="Times,serif" font-size="14.00">_J1</text>
</g>
</g>
</svg>
