<?xml version="1.0" encoding="UTF-8" standalone="no"?>
<!DOCTYPE svg PUBLIC "-//W3C//DTD SVG 1.1//EN"
 "http://www.w3.org/Graphics/SVG/1.1/DTD/svg11.dtd">
<!-- Generated by graphviz version 2.43.0 (0)
 -->
<!-- Title: %3 Pages: 1 -->
<svg width="501pt" height="288pt"
 viewBox="0.00 0.00 500.95 288.00" xmlns="http://www.w3.org/2000/svg" xmlns:xlink="http://www.w3.org/1999/xlink">
<g id="graph0" class="graph" transform="scale(0.51 0.51) rotate(0) translate(4 562)">
<title>%3</title>
<polygon fill="white" stroke="transparent" points="-4,4 -4,-562 980.5,-562 980.5,4 -4,4"/>
<g id="clust1" class="cluster">
<title>cluster_Gut</title>
<g id="a_clust1"><a xlink:href="#compartment-Gut" xlink:title="Gut&#10;[&#45;]">
<path fill="lightblue" stroke="black" d="M407.33,-458C407.33,-458 619.85,-458 619.85,-458 625.85,-458 631.85,-464 631.85,-470 631.85,-470 631.85,-538 631.85,-538 631.85,-544 625.85,-550 619.85,-550 619.85,-550 407.33,-550 407.33,-550 401.33,-550 395.33,-544 395.33,-538 395.33,-538 395.33,-470 395.33,-470 395.33,-464 401.33,-458 407.33,-458"/>
<text text-anchor="middle" x="513.59" y="-534.8" font-family="Arial" font-size="14.00">Gut</text>
<text text-anchor="middle" x="513.59" y="-519.8" font-family="Arial" font-size="14.00">[&#45;]</text>
</a>
</g>
</g>
<g id="clust2" class="cluster">
<title>cluster_Liver</title>
<g id="a_clust2"><a xlink:href="#compartment-Liver" xlink:title="Liver&#10;[&#45;]">
<path fill="lightblue" stroke="black" d="M39.03,-8C39.03,-8 623.23,-8 623.23,-8 629.23,-8 635.23,-14 635.23,-20 635.23,-20 635.23,-413 635.23,-413 635.23,-419 629.23,-425 623.23,-425 623.23,-425 39.03,-425 39.03,-425 33.03,-425 27.03,-419 27.03,-413 27.03,-413 27.03,-20 27.03,-20 27.03,-14 33.03,-8 39.03,-8"/>
<text text-anchor="middle" x="331.13" y="-409.8" font-family="Arial" font-size="14.00">Liver</text>
<text text-anchor="middle" x="331.13" y="-394.8" font-family="Arial" font-size="14.00">[&#45;]</text>
</a>
</g>
</g>
<g id="clust3" class="cluster">
<title>cluster_Blood</title>
<g id="a_clust3"><a xlink:href="#compartment-Blood" xlink:title="Blood&#10;[&#45;]">
<path fill="lightblue" stroke="black" d="M704.67,-208C704.67,-208 937.47,-208 937.47,-208 943.47,-208 949.47,-214 949.47,-220 949.47,-220 949.47,-288 949.47,-288 949.47,-294 943.47,-300 937.47,-300 937.47,-300 704.67,-300 704.67,-300 698.67,-300 692.67,-294 692.67,-288 692.67,-288 692.67,-220 692.67,-220 692.67,-214 698.67,-208 704.67,-208"/>
<text text-anchor="middle" x="821.07" y="-284.8" font-family="Arial" font-size="14.00">Blood</text>
<text text-anchor="middle" x="821.07" y="-269.8" font-family="Arial" font-size="14.00">[&#45;]</text>
</a>
</g>
</g>
<g id="clust4" class="cluster">
<title>cluster_Rest</title>
<g id="a_clust4"><a xlink:href="#compartment-Rest" xlink:title="Rest&#10;[&#45;]">
<path fill="lightblue" stroke="black" d="M708.05,-83C708.05,-83 920.57,-83 920.57,-83 926.57,-83 932.57,-89 932.57,-95 932.57,-95 932.57,-163 932.57,-163 932.57,-169 926.57,-175 920.57,-175 920.57,-175 708.05,-175 708.05,-175 702.05,-175 696.05,-169 696.05,-163 696.05,-163 696.05,-95 696.05,-95 696.05,-89 702.05,-83 708.05,-83"/>
<text text-anchor="middle" x="814.31" y="-159.8" font-family="Arial" font-size="14.00">Rest</text>
<text text-anchor="middle" x="814.31" y="-144.8" font-family="Arial" font-size="14.00">[&#45;]</text>
</a>
</g>
</g>
<!-- AGut -->
<g id="node1" class="node">
<title>AGut</title>
<g id="a_node1"><a xlink:href="#species-AGut" xlink:title="AGut&#10;[&#45;]">
<path fill="gold" stroke="black" d="M528.32,-504C528.32,-504 498.32,-504 498.32,-504 492.32,-504 486.32,-498 486.32,-492 486.32,-492 486.32,-478 486.32,-478 486.32,-472 492.32,-466 498.32,-466 498.32,-466 528.32,-466 528.32,-466 534.32,-466 540.32,-472 540.32,-478 540.32,-478 540.32,-492 540.32,-492 540.32,-498 534.32,-504 528.32,-504"/>
<text text-anchor="middle" x="513.32" y="-488.8" font-family="Arial" font-size="14.00">AGut</text>
<text text-anchor="middle" x="513.32" y="-473.8" font-family="Arial" font-size="14.00">[&#45;]</text>
</a>
</g>
</g>
<!-- ALiver -->
<g id="node2" class="node">
<title>ALiver</title>
<g id="a_node2"><a xlink:href="#species-ALiver" xlink:title="ALiver&#10;[&#45;]">
<path fill="gold" stroke="black" d="M528.82,-379C528.82,-379 497.82,-379 497.82,-379 491.82,-379 485.82,-373 485.82,-367 485.82,-367 485.82,-353 485.82,-353 485.82,-347 491.82,-341 497.82,-341 497.82,-341 528.82,-341 528.82,-341 534.82,-341 540.82,-347 540.82,-353 540.82,-353 540.82,-367 540.82,-367 540.82,-373 534.82,-379 528.82,-379"/>
<text text-anchor="middle" x="513.32" y="-363.8" font-family="Arial" font-size="14.00">ALiver</text>
<text text-anchor="middle" x="513.32" y="-348.8" font-family="Arial" font-size="14.00">[&#45;]</text>
</a>
</g>
</g>
<!-- AGut&#45;&gt;ALiver -->
<g id="edge1" class="edge">
<title>AGut&#45;&gt;ALiver</title>
<path fill="none" stroke="black" d="M513.32,-465.85C513.32,-445.68 513.32,-412.86 513.32,-389.31"/>
<polygon fill="black" stroke="black" points="516.82,-389.22 513.32,-379.22 509.82,-389.22 516.82,-389.22"/>
<text text-anchor="middle" x="524.32" y="-437.3" font-family="Times,serif" font-size="14.00">_J0</text>
</g>
<!-- ALiverMet1 -->
<g id="node3" class="node">
<title>ALiverMet1</title>
<g id="a_node3"><a xlink:href="#species-ALiverMet1" xlink:title="ALiverMet1&#10;[&#45;]">
<path fill="gold" stroke="black" d="M230.32,-254C230.32,-254 168.32,-254 168.32,-254 162.32,-254 156.32,-248 156.32,-242 156.32,-242 156.32,-228 156.32,-228 156.32,-222 162.32,-216 168.32,-216 168.32,-216 230.32,-216 230.32,-216 236.32,-216 242.32,-222 242.32,-228 242.32,-228 242.32,-242 242.32,-242 242.32,-248 236.32,-254 230.32,-254"/>
<text text-anchor="middle" x="199.32" y="-238.8" font-family="Arial" font-size="14.00">ALiverMet1</text>
<text text-anchor="middle" x="199.32" y="-223.8" font-family="Arial" font-size="14.00">[&#45;]</text>
</a>
</g>
</g>
<!-- ALiver&#45;&gt;ALiverMet1 -->
<g id="edge2" class="edge">
<title>ALiver&#45;&gt;ALiverMet1</title>
<path fill="none" stroke="black" d="M485.73,-348.19C433.52,-327.74 319.5,-283.08 252.13,-256.69"/>
<polygon fill="black" stroke="black" points="253.13,-253.32 242.54,-252.93 250.58,-259.84 253.13,-253.32"/>
<text text-anchor="middle" x="432.32" y="-312.3" font-family="Times,serif" font-size="14.00">_J5</text>
</g>
<!-- ALiverMet2 -->
<g id="node4" class="node">
<title>ALiverMet2</title>
<g id="a_node4"><a xlink:href="#species-ALiverMet2" xlink:title="ALiverMet2&#10;[&#45;]">
<path fill="gold" stroke="black" d="M355.32,-129C355.32,-129 293.32,-129 293.32,-129 287.32,-129 281.32,-123 281.32,-117 281.32,-117 281.32,-103 281.32,-103 281.32,-97 287.32,-91 293.32,-91 293.32,-91 355.32,-91 355.32,-91 361.32,-91 367.32,-97 367.32,-103 367.32,-103 367.32,-117 367.32,-117 367.32,-123 361.32,-129 355.32,-129"/>
<text text-anchor="middle" x="324.32" y="-113.8" font-family="Arial" font-size="14.00">ALiverMet2</text>
<text text-anchor="middle" x="324.32" y="-98.8" font-family="Arial" font-size="14.00">[&#45;]</text>
</a>
</g>
</g>
<!-- ALiver&#45;&gt;ALiverMet2 -->
<g id="edge3" class="edge">
<title>ALiver&#45;&gt;ALiverMet2</title>
<path fill="none" stroke="black" d="M499.42,-340.76C466.38,-297.41 383.02,-188.03 344.46,-137.43"/>
<polygon fill="black" stroke="black" points="347.08,-135.09 338.24,-129.26 341.51,-139.34 347.08,-135.09"/>
<text text-anchor="middle" x="478.32" y="-231.3" font-family="Times,serif" font-size="14.00">_J6</text>
</g>
<!-- ALiverMet3 -->
<g id="node5" class="node">
<title>ALiverMet3</title>
<g id="a_node5"><a xlink:href="#species-ALiverMet3" xlink:title="ALiverMet3&#10;[&#45;]">
<path fill="gold" stroke="black" d="M494.32,-54C494.32,-54 432.32,-54 432.32,-54 426.32,-54 420.32,-48 420.32,-42 420.32,-42 420.32,-28 420.32,-28 420.32,-22 426.32,-16 432.32,-16 432.32,-16 494.32,-16 494.32,-16 500.32,-16 506.32,-22 506.32,-28 506.32,-28 506.32,-42 506.32,-42 506.32,-48 500.32,-54 494.32,-54"/>
<text text-anchor="middle" x="463.32" y="-38.8" font-family="Arial" font-size="14.00">ALiverMet3</text>
<text text-anchor="middle" x="463.32" y="-23.8" font-family="Arial" font-size="14.00">[&#45;]</text>
</a>
</g>
</g>
<!-- ALiver&#45;&gt;ALiverMet3 -->
<g id="edge4" class="edge">
<title>ALiver&#45;&gt;ALiverMet3</title>
<path fill="none" stroke="black" d="M511.16,-340.84C507.72,-312.44 500.65,-255.83 493.32,-208 485.52,-157.17 474.89,-98.18 468.6,-64.16"/>
<polygon fill="black" stroke="black" points="471.98,-63.23 466.72,-54.04 465.1,-64.51 471.98,-63.23"/>
<text text-anchor="middle" x="503.32" y="-187.3" font-family="Times,serif" font-size="14.00">_J7</text>
</g>
<!-- ABlood -->
<g id="node6" class="node">
<title>ABlood</title>
<g id="a_node6"><a xlink:href="#species-ABlood" xlink:title="ABlood&#10;[&#45;]">
<path fill="gold" stroke="black" d="M839.32,-254C839.32,-254 803.32,-254 803.32,-254 797.32,-254 791.32,-248 791.32,-242 791.32,-242 791.32,-228 791.32,-228 791.32,-222 797.32,-216 803.32,-216 803.32,-216 839.32,-216 839.32,-216 845.32,-216 851.32,-222 851.32,-228 851.32,-228 851.32,-242 851.32,-242 851.32,-248 845.32,-254 839.32,-254"/>
<text text-anchor="middle" x="821.32" y="-238.8" font-family="Arial" font-size="14.00">ABlood</text>
<text text-anchor="middle" x="821.32" y="-223.8" font-family="Arial" font-size="14.00">[&#45;]</text>
</a>
</g>
</g>
<!-- ALiver&#45;&gt;ABlood -->
<g id="edge5" class="edge">
<title>ALiver&#45;&gt;ABlood</title>
<path fill="none" stroke="black" d="M541.03,-349.21C560.5,-342.25 587.1,-332.56 610.32,-323.5 670.47,-300.03 739.46,-271.02 781.71,-253.01"/>
<polygon fill="black" stroke="black" points="783.26,-256.16 791.08,-249.01 780.51,-249.72 783.26,-256.16"/>
<text text-anchor="middle" x="655.32" y="-312.3" font-family="Times,serif" font-size="14.00">_J2</text>
</g>
<!-- ABlood&#45;&gt;ALiver -->
<g id="edge6" class="edge">
<title>ABlood&#45;&gt;ALiver</title>
<path fill="none" stroke="black" d="M795.81,-254.03C766.73,-273.8 717.14,-305.14 670.32,-323.5 631,-338.92 583.38,-348.51 550.97,-353.77"/>
<polygon fill="black" stroke="black" points="550.35,-350.33 541.01,-355.33 551.43,-357.24 550.35,-350.33"/>
<text text-anchor="middle" x="711.32" y="-312.3" font-family="Times,serif" font-size="14.00">_J1</text>
</g>
<!-- ARest -->
<g id="node7" class="node">
<title>ARest</title>
<g id="a_node7"><a xlink:href="#species-ARest" xlink:title="ARest&#10;[&#45;]">
<path fill="gold" stroke="black" d="M829.32,-129C829.32,-129 799.32,-129 799.32,-129 793.32,-129 787.32,-123 787.32,-117 787.32,-117 787.32,-103 787.32,-103 787.32,-97 793.32,-91 799.32,-91 799.32,-91 829.32,-91 829.32,-91 835.32,-91 841.32,-97 841.32,-103 841.32,-103 841.32,-117 841.32,-117 841.32,-123 835.32,-129 829.32,-129"/>
<text text-anchor="middle" x="814.32" y="-113.8" font-family="Arial" font-size="14.00">ARest</text>
<text text-anchor="middle" x="814.32" y="-98.8" font-family="Arial" font-size="14.00">[&#45;]</text>
</a>
</g>
</g>
<!-- ABlood&#45;&gt;ARest -->
<g id="edge7" class="edge">
<title>ABlood&#45;&gt;ARest</title>
<path fill="none" stroke="black" d="M820.29,-215.85C819.14,-195.68 817.27,-162.86 815.93,-139.31"/>
<polygon fill="black" stroke="black" points="819.42,-139.01 815.36,-129.22 812.43,-139.41 819.42,-139.01"/>
<text text-anchor="middle" x="829.32" y="-187.3" font-family="Times,serif" font-size="14.00">_J3</text>
</g>
<!-- ARest&#45;&gt;ABlood -->
<g id="edge8" class="edge">
<title>ARest&#45;&gt;ABlood</title>
<path fill="none" stroke="black" d="M824.18,-129.14C831.36,-143.44 840.47,-164.13 844.32,-183.5 845.62,-190.04 846.21,-192.11 844.32,-198.5 843.48,-201.34 842.33,-204.16 841,-206.91"/>
<polygon fill="black" stroke="black" points="837.82,-205.42 835.91,-215.84 843.9,-208.89 837.82,-205.42"/>
<text text-anchor="middle" x="856.32" y="-187.3" font-family="Times,serif" font-size="14.00">_J4</text>
</g>
</g>
</svg>
