<?xml version="1.0" encoding="UTF-8" standalone="no"?>
<!DOCTYPE svg PUBLIC "-//W3C//DTD SVG 1.1//EN"
 "http://www.w3.org/Graphics/SVG/1.1/DTD/svg11.dtd">
<!-- Generated by graphviz version 2.43.0 (0)
 -->
<!-- Title: %3 Pages: 1 -->
<svg width="500pt" height="288pt"
 viewBox="0.00 0.00 500.20 288.00" xmlns="http://www.w3.org/2000/svg" xmlns:xlink="http://www.w3.org/1999/xlink">
<g id="graph0" class="graph" transform="scale(0.63 0.63) rotate(0) translate(4 451)">
<title>%3</title>
<polygon fill="white" stroke="transparent" points="-4,4 -4,-451 786.25,-451 786.25,4 -4,4"/>
<g id="clust1" class="cluster">
<title>cluster_Stomach</title>
<g id="a_clust1"><a xlink:href="#compartment-Stomach" xlink:title="Stomach&#10;[PBPKO:00566]">
<path fill="lightblue" stroke="black" d="M640.84,-222C640.84,-222 760.11,-222 760.11,-222 766.11,-222 772.11,-228 772.11,-234 772.11,-234 772.11,-302 772.11,-302 772.11,-308 766.11,-314 760.11,-314 760.11,-314 640.84,-314 640.84,-314 634.84,-314 628.84,-308 628.84,-302 628.84,-302 628.84,-234 628.84,-234 628.84,-228 634.84,-222 640.84,-222"/>
<text text-anchor="middle" x="700.48" y="-298.8" font-family="Arial" font-size="14.00">Stomach</text>
<text text-anchor="middle" x="700.48" y="-283.8" font-family="Arial" font-size="14.00">[PBPKO:00566]</text>
</a>
</g>
</g>
<g id="clust2" class="cluster">
<title>cluster_IntestinalLumen</title>
<g id="a_clust2"><a xlink:href="#compartment-IntestinalLumen" xlink:title="IntestinalLumen&#10;[PBPKO:00478]">
<path fill="lightblue" stroke="black" d="M38.62,-347C38.62,-347 179.44,-347 179.44,-347 185.44,-347 191.44,-353 191.44,-359 191.44,-359 191.44,-427 191.44,-427 191.44,-433 185.44,-439 179.44,-439 179.44,-439 38.62,-439 38.62,-439 32.62,-439 26.62,-433 26.62,-427 26.62,-427 26.62,-359 26.62,-359 26.62,-353 32.62,-347 38.62,-347"/>
<text text-anchor="middle" x="109.03" y="-423.8" font-family="Arial" font-size="14.00">IntestinalLumen</text>
<text text-anchor="middle" x="109.03" y="-408.8" font-family="Arial" font-size="14.00">[PBPKO:00478]</text>
</a>
</g>
</g>
<g id="clust3" class="cluster">
<title>cluster_Spleen</title>
<g id="a_clust3"><a xlink:href="#compartment-Spleen" xlink:title="Spleen&#10;[PBPKO:00492]">
<path fill="lightblue" stroke="black" d="M175.55,-222C175.55,-222 294.81,-222 294.81,-222 300.81,-222 306.81,-228 306.81,-234 306.81,-234 306.81,-302 306.81,-302 306.81,-308 300.81,-314 294.81,-314 294.81,-314 175.55,-314 175.55,-314 169.55,-314 163.55,-308 163.55,-302 163.55,-302 163.55,-234 163.55,-234 163.55,-228 169.55,-222 175.55,-222"/>
<text text-anchor="middle" x="235.18" y="-298.8" font-family="Arial" font-size="14.00">Spleen</text>
<text text-anchor="middle" x="235.18" y="-283.8" font-family="Arial" font-size="14.00">[PBPKO:00492]</text>
</a>
</g>
</g>
<g id="clust4" class="cluster">
<title>cluster_SmallIntestine</title>
<g id="a_clust4"><a xlink:href="#compartment-SmallIntestine" xlink:title="SmallIntestine&#10;[PBPKO:00472]">
<path fill="lightblue" stroke="black" d="M22.14,-222C22.14,-222 141.41,-222 141.41,-222 147.41,-222 153.41,-228 153.41,-234 153.41,-234 153.41,-302 153.41,-302 153.41,-308 147.41,-314 141.41,-314 141.41,-314 22.14,-314 22.14,-314 16.14,-314 10.14,-308 10.14,-302 10.14,-302 10.14,-234 10.14,-234 10.14,-228 16.14,-222 22.14,-222"/>
<text text-anchor="middle" x="81.77" y="-298.8" font-family="Arial" font-size="14.00">SmallIntestine</text>
<text text-anchor="middle" x="81.77" y="-283.8" font-family="Arial" font-size="14.00">[PBPKO:00472]</text>
</a>
</g>
</g>
<g id="clust5" class="cluster">
<title>cluster_Liver</title>
<g id="a_clust5"><a xlink:href="#compartment-Liver" xlink:title="Liver&#10;[PBPKO:00558]">
<path fill="lightblue" stroke="black" d="M269.37,-8C269.37,-8 410.19,-8 410.19,-8 416.19,-8 422.19,-14 422.19,-20 422.19,-20 422.19,-177 422.19,-177 422.19,-183 416.19,-189 410.19,-189 410.19,-189 269.37,-189 269.37,-189 263.37,-189 257.37,-183 257.37,-177 257.37,-177 257.37,-20 257.37,-20 257.37,-14 263.37,-8 269.37,-8"/>
<text text-anchor="middle" x="339.78" y="-173.8" font-family="Arial" font-size="14.00">Liver</text>
<text text-anchor="middle" x="339.78" y="-158.8" font-family="Arial" font-size="14.00">[PBPKO:00558]</text>
</a>
</g>
</g>
<g id="clust6" class="cluster">
<title>cluster_Blood</title>
<g id="a_clust6"><a xlink:href="#compartment-Blood" xlink:title="Blood&#10;[PBPKO:00464]">
<path fill="lightblue" stroke="black" d="M342.9,-347C342.9,-347 483.72,-347 483.72,-347 489.72,-347 495.72,-353 495.72,-359 495.72,-359 495.72,-427 495.72,-427 495.72,-433 489.72,-439 483.72,-439 483.72,-439 342.9,-439 342.9,-439 336.9,-439 330.9,-433 330.9,-427 330.9,-427 330.9,-359 330.9,-359 330.9,-353 336.9,-347 342.9,-347"/>
<text text-anchor="middle" x="413.31" y="-423.8" font-family="Arial" font-size="14.00">Blood</text>
<text text-anchor="middle" x="413.31" y="-408.8" font-family="Arial" font-size="14.00">[PBPKO:00464]</text>
</a>
</g>
</g>
<g id="clust7" class="cluster">
<title>cluster_Rest</title>
<g id="a_clust7"><a xlink:href="#compartment-Rest" xlink:title="Rest&#10;[PBPKO:00450]">
<path fill="lightblue" stroke="black" d="M465.88,-222C465.88,-222 606.7,-222 606.7,-222 612.7,-222 618.7,-228 618.7,-234 618.7,-234 618.7,-302 618.7,-302 618.7,-308 612.7,-314 606.7,-314 606.7,-314 465.88,-314 465.88,-314 459.88,-314 453.88,-308 453.88,-302 453.88,-302 453.88,-234 453.88,-234 453.88,-228 459.88,-222 465.88,-222"/>
<text text-anchor="middle" x="536.29" y="-298.8" font-family="Arial" font-size="14.00">Rest</text>
<text text-anchor="middle" x="536.29" y="-283.8" font-family="Arial" font-size="14.00">[PBPKO:00450]</text>
</a>
</g>
</g>
<!-- ASt -->
<g id="node1" class="node">
<title>ASt</title>
<g id="a_node1"><a xlink:href="#species-ASt" xlink:title="ASt&#10;[&#45;]">
<path fill="gold" stroke="black" d="M688.3,-268C688.3,-268 658.3,-268 658.3,-268 652.3,-268 646.3,-262 646.3,-256 646.3,-256 646.3,-242 646.3,-242 646.3,-236 652.3,-230 658.3,-230 658.3,-230 688.3,-230 688.3,-230 694.3,-230 700.3,-236 700.3,-242 700.3,-242 700.3,-256 700.3,-256 700.3,-262 694.3,-268 688.3,-268"/>
<text text-anchor="middle" x="673.3" y="-252.8" font-family="Arial" font-size="14.00">ASt</text>
<text text-anchor="middle" x="673.3" y="-237.8" font-family="Arial" font-size="14.00">[&#45;]</text>
</a>
</g>
</g>
<!-- ALiver -->
<g id="node5" class="node">
<title>ALiver</title>
<g id="a_node5"><a xlink:href="#species-ALiver" xlink:title="ALiver&#10;[PBPKO:00497]">
<path fill="gold" stroke="black" d="M383.8,-143C383.8,-143 294.8,-143 294.8,-143 288.8,-143 282.8,-137 282.8,-131 282.8,-131 282.8,-117 282.8,-117 282.8,-111 288.8,-105 294.8,-105 294.8,-105 383.8,-105 383.8,-105 389.8,-105 395.8,-111 395.8,-117 395.8,-117 395.8,-131 395.8,-131 395.8,-137 389.8,-143 383.8,-143"/>
<text text-anchor="middle" x="339.3" y="-127.8" font-family="Arial" font-size="14.00">ALiver</text>
<text text-anchor="middle" x="339.3" y="-112.8" font-family="Arial" font-size="14.00">[PBPKO:00497]</text>
</a>
</g>
</g>
<!-- ASt&#45;&gt;ALiver -->
<g id="edge1" class="edge">
<title>ASt&#45;&gt;ALiver</title>
<path fill="none" stroke="black" d="M646.11,-233.24C638.5,-229.36 630.17,-225.33 622.3,-222 549.74,-191.25 463.78,-162.88 405.79,-144.87"/>
<polygon fill="black" stroke="black" points="406.61,-141.45 396.02,-141.85 404.54,-148.14 406.61,-141.45"/>
<text text-anchor="middle" x="602.3" y="-201.3" font-family="Times,serif" font-size="14.00">_J5</text>
</g>
<!-- AIL -->
<g id="node2" class="node">
<title>AIL</title>
<g id="a_node2"><a xlink:href="#species-AIL" xlink:title="AIL&#10;[PBPKO:00496]">
<path fill="gold" stroke="black" d="M153.8,-393C153.8,-393 64.8,-393 64.8,-393 58.8,-393 52.8,-387 52.8,-381 52.8,-381 52.8,-367 52.8,-367 52.8,-361 58.8,-355 64.8,-355 64.8,-355 153.8,-355 153.8,-355 159.8,-355 165.8,-361 165.8,-367 165.8,-367 165.8,-381 165.8,-381 165.8,-387 159.8,-393 153.8,-393"/>
<text text-anchor="middle" x="109.3" y="-377.8" font-family="Arial" font-size="14.00">AIL</text>
<text text-anchor="middle" x="109.3" y="-362.8" font-family="Arial" font-size="14.00">[PBPKO:00496]</text>
</a>
</g>
</g>
<!-- ASI -->
<g id="node4" class="node">
<title>ASI</title>
<g id="a_node4"><a xlink:href="#species-ASI" xlink:title="ASI&#10;[&#45;]">
<path fill="gold" stroke="black" d="M124.3,-268C124.3,-268 94.3,-268 94.3,-268 88.3,-268 82.3,-262 82.3,-256 82.3,-256 82.3,-242 82.3,-242 82.3,-236 88.3,-230 94.3,-230 94.3,-230 124.3,-230 124.3,-230 130.3,-230 136.3,-236 136.3,-242 136.3,-242 136.3,-256 136.3,-256 136.3,-262 130.3,-268 124.3,-268"/>
<text text-anchor="middle" x="109.3" y="-252.8" font-family="Arial" font-size="14.00">ASI</text>
<text text-anchor="middle" x="109.3" y="-237.8" font-family="Arial" font-size="14.00">[&#45;]</text>
</a>
</g>
</g>
<!-- AIL&#45;&gt;ASI -->
<g id="edge2" class="edge">
<title>AIL&#45;&gt;ASI</title>
<path fill="none" stroke="black" d="M109.3,-354.85C109.3,-334.68 109.3,-301.86 109.3,-278.31"/>
<polygon fill="black" stroke="black" points="112.8,-278.22 109.3,-268.22 105.8,-278.22 112.8,-278.22"/>
<text text-anchor="middle" x="120.3" y="-326.3" font-family="Times,serif" font-size="14.00">_J0</text>
</g>
<!-- ASpleen -->
<g id="node3" class="node">
<title>ASpleen</title>
<g id="a_node3"><a xlink:href="#species-ASpleen" xlink:title="ASpleen&#10;[&#45;]">
<path fill="gold" stroke="black" d="M273.3,-268C273.3,-268 229.3,-268 229.3,-268 223.3,-268 217.3,-262 217.3,-256 217.3,-256 217.3,-242 217.3,-242 217.3,-236 223.3,-230 229.3,-230 229.3,-230 273.3,-230 273.3,-230 279.3,-230 285.3,-236 285.3,-242 285.3,-242 285.3,-256 285.3,-256 285.3,-262 279.3,-268 273.3,-268"/>
<text text-anchor="middle" x="251.3" y="-252.8" font-family="Arial" font-size="14.00">ASpleen</text>
<text text-anchor="middle" x="251.3" y="-237.8" font-family="Arial" font-size="14.00">[&#45;]</text>
</a>
</g>
</g>
<!-- ASpleen&#45;&gt;ALiver -->
<g id="edge3" class="edge">
<title>ASpleen&#45;&gt;ALiver</title>
<path fill="none" stroke="black" d="M264.28,-229.85C279.1,-209.14 303.47,-175.08 320.39,-151.42"/>
<polygon fill="black" stroke="black" points="323.29,-153.39 326.26,-143.22 317.59,-149.32 323.29,-153.39"/>
<text text-anchor="middle" x="299.3" y="-201.3" font-family="Times,serif" font-size="14.00">_J3</text>
</g>
<!-- ASI&#45;&gt;ALiver -->
<g id="edge4" class="edge">
<title>ASI&#45;&gt;ALiver</title>
<path fill="none" stroke="black" d="M136.58,-233.41C176.07,-212.29 249.54,-173 296.34,-147.97"/>
<polygon fill="black" stroke="black" points="298.16,-150.97 305.33,-143.16 294.86,-144.79 298.16,-150.97"/>
<text text-anchor="middle" x="215.3" y="-201.3" font-family="Times,serif" font-size="14.00">_J1</text>
</g>
<!-- AMet -->
<g id="node6" class="node">
<title>AMet</title>
<g id="a_node6"><a xlink:href="#species-AMet" xlink:title="AMet&#10;[PBPKO:00497]">
<path fill="gold" stroke="black" d="M383.8,-54C383.8,-54 294.8,-54 294.8,-54 288.8,-54 282.8,-48 282.8,-42 282.8,-42 282.8,-28 282.8,-28 282.8,-22 288.8,-16 294.8,-16 294.8,-16 383.8,-16 383.8,-16 389.8,-16 395.8,-22 395.8,-28 395.8,-28 395.8,-42 395.8,-42 395.8,-48 389.8,-54 383.8,-54"/>
<text text-anchor="middle" x="339.3" y="-38.8" font-family="Arial" font-size="14.00">AMet</text>
<text text-anchor="middle" x="339.3" y="-23.8" font-family="Arial" font-size="14.00">[PBPKO:00497]</text>
</a>
</g>
</g>
<!-- ALiver&#45;&gt;AMet -->
<g id="edge5" class="edge">
<title>ALiver&#45;&gt;AMet</title>
<path fill="none" stroke="black" d="M339.3,-104.97C339.3,-93.19 339.3,-77.56 339.3,-64.16"/>
<polygon fill="black" stroke="black" points="342.8,-64 339.3,-54 335.8,-64 342.8,-64"/>
<text text-anchor="middle" x="354.8" y="-76.3" font-family="Times,serif" font-size="14.00">_J11</text>
</g>
<!-- ABlood -->
<g id="node7" class="node">
<title>ABlood</title>
<g id="a_node7"><a xlink:href="#species-ABlood" xlink:title="ABlood&#10;[PBPKO:00623]">
<path fill="gold" stroke="black" d="M457.8,-393C457.8,-393 368.8,-393 368.8,-393 362.8,-393 356.8,-387 356.8,-381 356.8,-381 356.8,-367 356.8,-367 356.8,-361 362.8,-355 368.8,-355 368.8,-355 457.8,-355 457.8,-355 463.8,-355 469.8,-361 469.8,-367 469.8,-367 469.8,-381 469.8,-381 469.8,-387 463.8,-393 457.8,-393"/>
<text text-anchor="middle" x="413.3" y="-377.8" font-family="Arial" font-size="14.00">ABlood</text>
<text text-anchor="middle" x="413.3" y="-362.8" font-family="Arial" font-size="14.00">[PBPKO:00623]</text>
</a>
</g>
</g>
<!-- ALiver&#45;&gt;ABlood -->
<g id="edge6" class="edge">
<title>ALiver&#45;&gt;ABlood</title>
<path fill="none" stroke="black" d="M339.33,-143.24C340,-177.9 344.44,-255.07 369.3,-314 374.21,-325.66 381.91,-337.12 389.49,-346.8"/>
<polygon fill="black" stroke="black" points="387.01,-349.29 396.06,-354.8 392.42,-344.85 387.01,-349.29"/>
<text text-anchor="middle" x="380.3" y="-245.3" font-family="Times,serif" font-size="14.00">_J8</text>
</g>
<!-- ABlood&#45;&gt;ASt -->
<g id="edge7" class="edge">
<title>ABlood&#45;&gt;ASt</title>
<path fill="none" stroke="black" d="M470.05,-366.63C514.5,-359.48 576.29,-344.57 622.3,-314 636.62,-304.48 648.8,-289.65 657.67,-276.66"/>
<polygon fill="black" stroke="black" points="660.74,-278.35 663.26,-268.05 654.87,-274.54 660.74,-278.35"/>
<text text-anchor="middle" x="618.3" y="-326.3" font-family="Times,serif" font-size="14.00">_J6</text>
</g>
<!-- ABlood&#45;&gt;ASpleen -->
<g id="edge8" class="edge">
<title>ABlood&#45;&gt;ASpleen</title>
<path fill="none" stroke="black" d="M356.6,-363.06C338.19,-357.76 318.59,-349.7 303.3,-337.5 283.77,-321.92 269.95,-296.87 261.49,-277.55"/>
<polygon fill="black" stroke="black" points="264.62,-275.95 257.56,-268.06 258.15,-278.63 264.62,-275.95"/>
<text text-anchor="middle" x="314.3" y="-326.3" font-family="Times,serif" font-size="14.00">_J4</text>
</g>
<!-- ABlood&#45;&gt;ASI -->
<g id="edge9" class="edge">
<title>ABlood&#45;&gt;ASI</title>
<path fill="none" stroke="black" d="M356.64,-370.6C302.22,-365.93 219.6,-352.47 159.3,-314 144.91,-304.82 132.94,-290.01 124.33,-276.95"/>
<polygon fill="black" stroke="black" points="127.18,-274.9 118.92,-268.27 121.24,-278.61 127.18,-274.9"/>
<text text-anchor="middle" x="214.3" y="-326.3" font-family="Times,serif" font-size="14.00">_J2</text>
</g>
<!-- ABlood&#45;&gt;ALiver -->
<g id="edge10" class="edge">
<title>ABlood&#45;&gt;ALiver</title>
<path fill="none" stroke="black" d="M412.68,-354.87C411.24,-326.05 406.56,-268.3 391.3,-222 383.02,-196.89 368.5,-170.59 356.9,-151.72"/>
<polygon fill="black" stroke="black" points="359.77,-149.7 351.49,-143.09 353.84,-153.42 359.77,-149.7"/>
<text text-anchor="middle" x="420.3" y="-245.3" font-family="Times,serif" font-size="14.00">_J7</text>
</g>
<!-- ARest -->
<g id="node8" class="node">
<title>ARest</title>
<g id="a_node8"><a xlink:href="#species-ARest" xlink:title="ARest&#10;[PBPKO:00501]">
<path fill="gold" stroke="black" d="M580.8,-268C580.8,-268 491.8,-268 491.8,-268 485.8,-268 479.8,-262 479.8,-256 479.8,-256 479.8,-242 479.8,-242 479.8,-236 485.8,-230 491.8,-230 491.8,-230 580.8,-230 580.8,-230 586.8,-230 592.8,-236 592.8,-242 592.8,-242 592.8,-256 592.8,-256 592.8,-262 586.8,-268 580.8,-268"/>
<text text-anchor="middle" x="536.3" y="-252.8" font-family="Arial" font-size="14.00">ARest</text>
<text text-anchor="middle" x="536.3" y="-237.8" font-family="Arial" font-size="14.00">[PBPKO:00501]</text>
</a>
</g>
</g>
<!-- ABlood&#45;&gt;ARest -->
<g id="edge11" class="edge">
<title>ABlood&#45;&gt;ARest</title>
<path fill="none" stroke="black" d="M431.45,-354.85C452.43,-333.87 487.11,-299.18 510.8,-275.5"/>
<polygon fill="black" stroke="black" points="513.48,-277.77 518.07,-268.22 508.53,-272.82 513.48,-277.77"/>
<text text-anchor="middle" x="474.3" y="-326.3" font-family="Times,serif" font-size="14.00">_J9</text>
</g>
<!-- ARest&#45;&gt;ABlood -->
<g id="edge12" class="edge">
<title>ARest&#45;&gt;ABlood</title>
<path fill="none" stroke="black" d="M530.41,-268.25C523.35,-287.62 509.84,-318.07 489.3,-337.5 484.39,-342.14 478.77,-346.26 472.85,-349.9"/>
<polygon fill="black" stroke="black" points="471,-346.93 464.02,-354.9 474.45,-353.02 471,-346.93"/>
<text text-anchor="middle" x="516.8" y="-326.3" font-family="Times,serif" font-size="14.00">_J10</text>
</g>
</g>
</svg>
