<?xml version="1.0" encoding="UTF-8" standalone="no"?>
<!DOCTYPE svg PUBLIC "-//W3C//DTD SVG 1.1//EN"
 "http://www.w3.org/Graphics/SVG/1.1/DTD/svg11.dtd">
<!-- Generated by graphviz version 2.43.0 (0)
 -->
<!-- Title: %3 Pages: 1 -->
<svg width="500pt" height="288pt"
 viewBox="0.00 0.00 500.20 288.00" xmlns="http://www.w3.org/2000/svg" xmlns:xlink="http://www.w3.org/1999/xlink">
<g id="graph0" class="graph" transform="scale(0.63 0.63) rotate(0) translate(4 451)">
<title>%3</title>
<polygon fill="white" stroke="transparent" points="-4,4 -4,-451 786.25,-451 786.25,4 -4,4"/>
<g id="clust1" class="cluster">
<title>cluster_Stomach</title>
<g id="a_clust1"><a xlink:href="#compartment-Stomach" xlink:title="Stomach&#10;[&#45;]">
<path fill="lightblue" stroke="black" d="M684.68,-222C684.68,-222 759.15,-222 759.15,-222 765.15,-222 771.15,-228 771.15,-234 771.15,-234 771.15,-302 771.15,-302 771.15,-308 765.15,-314 759.15,-314 759.15,-314 684.68,-314 684.68,-314 678.68,-314 672.68,-308 672.68,-302 672.68,-302 672.68,-234 672.68,-234 672.68,-228 678.68,-222 684.68,-222"/>
<text text-anchor="middle" x="721.92" y="-298.8" font-family="Arial" font-size="14.00">Stomach</text>
<text text-anchor="middle" x="721.92" y="-283.8" font-family="Arial" font-size="14.00">[&#45;]</text>
</a>
</g>
</g>
<g id="clust2" class="cluster">
<title>cluster_IntestinalLumen</title>
<g id="a_clust2"><a xlink:href="#compartment-IntestinalLumen" xlink:title="IntestinalLumen&#10;[&#45;]">
<path fill="lightblue" stroke="black" d="M45.29,-347C45.29,-347 178.01,-347 178.01,-347 184.01,-347 190.01,-353 190.01,-359 190.01,-359 190.01,-427 190.01,-427 190.01,-433 184.01,-439 178.01,-439 178.01,-439 45.29,-439 45.29,-439 39.29,-439 33.29,-433 33.29,-427 33.29,-427 33.29,-359 33.29,-359 33.29,-353 39.29,-347 45.29,-347"/>
<text text-anchor="middle" x="111.65" y="-423.8" font-family="Arial" font-size="14.00">IntestinalLumen</text>
<text text-anchor="middle" x="111.65" y="-408.8" font-family="Arial" font-size="14.00">[&#45;]</text>
</a>
</g>
</g>
<g id="clust3" class="cluster">
<title>cluster_Spleen</title>
<g id="a_clust3"><a xlink:href="#compartment-Spleen" xlink:title="Spleen&#10;[PBPKO:00492]">
<path fill="lightblue" stroke="black" d="M175.66,-222C175.66,-222 308.39,-222 308.39,-222 314.39,-222 320.39,-228 320.39,-234 320.39,-234 320.39,-302 320.39,-302 320.39,-308 314.39,-314 308.39,-314 308.39,-314 175.66,-314 175.66,-314 169.66,-314 163.66,-308 163.66,-302 163.66,-302 163.66,-234 163.66,-234 163.66,-228 169.66,-222 175.66,-222"/>
<text text-anchor="middle" x="242.03" y="-298.8" font-family="Arial" font-size="14.00">Spleen</text>
<text text-anchor="middle" x="242.03" y="-283.8" font-family="Arial" font-size="14.00">[PBPKO:00492]</text>
</a>
</g>
</g>
<g id="clust4" class="cluster">
<title>cluster_SmallIntestine</title>
<g id="a_clust4"><a xlink:href="#compartment-SmallIntestine" xlink:title="SmallIntestine&#10;[&#45;]">
<path fill="lightblue" stroke="black" d="M23.1,-222C23.1,-222 140.57,-222 140.57,-222 146.57,-222 152.57,-228 152.57,-234 152.57,-234 152.57,-302 152.57,-302 152.57,-308 146.57,-314 140.57,-314 140.57,-314 23.1,-314 23.1,-314 17.1,-314 11.1,-308 11.1,-302 11.1,-302 11.1,-234 11.1,-234 11.1,-228 17.1,-222 23.1,-222"/>
<text text-anchor="middle" x="81.83" y="-298.8" font-family="Arial" font-size="14.00">SmallIntestine</text>
<text text-anchor="middle" x="81.83" y="-283.8" font-family="Arial" font-size="14.00">[&#45;]</text>
</a>
</g>
</g>
<g id="clust5" class="cluster">
<title>cluster_Liver</title>
<g id="a_clust5"><a xlink:href="#compartment-Liver" xlink:title="Liver&#10;[&#45;]">
<path fill="lightblue" stroke="black" d="M278.3,-8C278.3,-8 434.6,-8 434.6,-8 440.6,-8 446.6,-14 446.6,-20 446.6,-20 446.6,-177 446.6,-177 446.6,-183 440.6,-189 434.6,-189 434.6,-189 278.3,-189 278.3,-189 272.3,-189 266.3,-183 266.3,-177 266.3,-177 266.3,-20 266.3,-20 266.3,-14 272.3,-8 278.3,-8"/>
<text text-anchor="middle" x="356.45" y="-173.8" font-family="Arial" font-size="14.00">Liver</text>
<text text-anchor="middle" x="356.45" y="-158.8" font-family="Arial" font-size="14.00">[&#45;]</text>
</a>
</g>
</g>
<g id="clust6" class="cluster">
<title>cluster_Blood</title>
<g id="a_clust6"><a xlink:href="#compartment-Blood" xlink:title="Blood&#10;[PBPKO:00464]">
<path fill="lightblue" stroke="black" d="M371.22,-347C371.22,-347 503.95,-347 503.95,-347 509.95,-347 515.95,-353 515.95,-359 515.95,-359 515.95,-427 515.95,-427 515.95,-433 509.95,-439 503.95,-439 503.95,-439 371.22,-439 371.22,-439 365.22,-439 359.22,-433 359.22,-427 359.22,-427 359.22,-359 359.22,-359 359.22,-353 365.22,-347 371.22,-347"/>
<text text-anchor="middle" x="437.59" y="-423.8" font-family="Arial" font-size="14.00">Blood</text>
<text text-anchor="middle" x="437.59" y="-408.8" font-family="Arial" font-size="14.00">[PBPKO:00464]</text>
</a>
</g>
</g>
<g id="clust7" class="cluster">
<title>cluster_Rest</title>
<g id="a_clust7"><a xlink:href="#compartment-Rest" xlink:title="Rest&#10;[PBPKO:00450]">
<path fill="lightblue" stroke="black" d="M493.28,-222C493.28,-222 649.58,-222 649.58,-222 655.58,-222 661.58,-228 661.58,-234 661.58,-234 661.58,-302 661.58,-302 661.58,-308 655.58,-314 649.58,-314 649.58,-314 493.28,-314 493.28,-314 487.28,-314 481.28,-308 481.28,-302 481.28,-302 481.28,-234 481.28,-234 481.28,-228 487.28,-222 493.28,-222"/>
<text text-anchor="middle" x="571.43" y="-298.8" font-family="Arial" font-size="14.00">Rest</text>
<text text-anchor="middle" x="571.43" y="-283.8" font-family="Arial" font-size="14.00">[PBPKO:00450]</text>
</a>
</g>
</g>
<!-- ASt -->
<g id="node1" class="node">
<title>ASt</title>
<g id="a_node1"><a xlink:href="#species-ASt" xlink:title="ASt&#10;[&#45;]">
<path fill="gold" stroke="black" d="M736.09,-268C736.09,-268 706.09,-268 706.09,-268 700.09,-268 694.09,-262 694.09,-256 694.09,-256 694.09,-242 694.09,-242 694.09,-236 700.09,-230 706.09,-230 706.09,-230 736.09,-230 736.09,-230 742.09,-230 748.09,-236 748.09,-242 748.09,-242 748.09,-256 748.09,-256 748.09,-262 742.09,-268 736.09,-268"/>
<text text-anchor="middle" x="721.09" y="-252.8" font-family="Arial" font-size="14.00">ASt</text>
<text text-anchor="middle" x="721.09" y="-237.8" font-family="Arial" font-size="14.00">[&#45;]</text>
</a>
</g>
</g>
<!-- ALiver -->
<g id="node5" class="node">
<title>ALiver</title>
<g id="a_node5"><a xlink:href="#species-ALiver" xlink:title="ALiver&#10;[PBPKO:00497]">
<path fill="gold" stroke="black" d="M400.59,-143C400.59,-143 311.59,-143 311.59,-143 305.59,-143 299.59,-137 299.59,-131 299.59,-131 299.59,-117 299.59,-117 299.59,-111 305.59,-105 311.59,-105 311.59,-105 400.59,-105 400.59,-105 406.59,-105 412.59,-111 412.59,-117 412.59,-117 412.59,-131 412.59,-131 412.59,-137 406.59,-143 400.59,-143"/>
<text text-anchor="middle" x="356.09" y="-127.8" font-family="Arial" font-size="14.00">ALiver</text>
<text text-anchor="middle" x="356.09" y="-112.8" font-family="Arial" font-size="14.00">[PBPKO:00497]</text>
</a>
</g>
</g>
<!-- ASt&#45;&gt;ALiver -->
<g id="edge1" class="edge">
<title>ASt&#45;&gt;ALiver</title>
<path fill="none" stroke="black" d="M694.06,-234.58C684.96,-230.3 674.69,-225.72 665.09,-222 582.97,-190.2 485.68,-161.01 422.51,-143.13"/>
<polygon fill="black" stroke="black" points="423.25,-139.7 412.67,-140.36 421.35,-146.44 423.25,-139.7"/>
<text text-anchor="middle" x="643.09" y="-201.3" font-family="Times,serif" font-size="14.00">_J5</text>
</g>
<!-- AIL -->
<g id="node2" class="node">
<title>AIL</title>
<g id="a_node2"><a xlink:href="#species-AIL" xlink:title="AIL&#10;[&#45;]">
<path fill="gold" stroke="black" d="M119.09,-393C119.09,-393 89.09,-393 89.09,-393 83.09,-393 77.09,-387 77.09,-381 77.09,-381 77.09,-367 77.09,-367 77.09,-361 83.09,-355 89.09,-355 89.09,-355 119.09,-355 119.09,-355 125.09,-355 131.09,-361 131.09,-367 131.09,-367 131.09,-381 131.09,-381 131.09,-387 125.09,-393 119.09,-393"/>
<text text-anchor="middle" x="104.09" y="-377.8" font-family="Arial" font-size="14.00">AIL</text>
<text text-anchor="middle" x="104.09" y="-362.8" font-family="Arial" font-size="14.00">[&#45;]</text>
</a>
</g>
</g>
<!-- ASI -->
<g id="node4" class="node">
<title>ASI</title>
<g id="a_node4"><a xlink:href="#species-ASI" xlink:title="ASI&#10;[&#45;]">
<path fill="gold" stroke="black" d="M119.09,-268C119.09,-268 89.09,-268 89.09,-268 83.09,-268 77.09,-262 77.09,-256 77.09,-256 77.09,-242 77.09,-242 77.09,-236 83.09,-230 89.09,-230 89.09,-230 119.09,-230 119.09,-230 125.09,-230 131.09,-236 131.09,-242 131.09,-242 131.09,-256 131.09,-256 131.09,-262 125.09,-268 119.09,-268"/>
<text text-anchor="middle" x="104.09" y="-252.8" font-family="Arial" font-size="14.00">ASI</text>
<text text-anchor="middle" x="104.09" y="-237.8" font-family="Arial" font-size="14.00">[&#45;]</text>
</a>
</g>
</g>
<!-- AIL&#45;&gt;ASI -->
<g id="edge2" class="edge">
<title>AIL&#45;&gt;ASI</title>
<path fill="none" stroke="black" d="M104.09,-354.85C104.09,-334.68 104.09,-301.86 104.09,-278.31"/>
<polygon fill="black" stroke="black" points="107.59,-278.22 104.09,-268.22 100.59,-278.22 107.59,-278.22"/>
<text text-anchor="middle" x="115.09" y="-326.3" font-family="Times,serif" font-size="14.00">_J0</text>
</g>
<!-- ASpleen -->
<g id="node3" class="node">
<title>ASpleen</title>
<g id="a_node3"><a xlink:href="#species-ASpleen" xlink:title="ASpleen&#10;[&#45;]">
<path fill="gold" stroke="black" d="M281.09,-268C281.09,-268 237.09,-268 237.09,-268 231.09,-268 225.09,-262 225.09,-256 225.09,-256 225.09,-242 225.09,-242 225.09,-236 231.09,-230 237.09,-230 237.09,-230 281.09,-230 281.09,-230 287.09,-230 293.09,-236 293.09,-242 293.09,-242 293.09,-256 293.09,-256 293.09,-262 287.09,-268 281.09,-268"/>
<text text-anchor="middle" x="259.09" y="-252.8" font-family="Arial" font-size="14.00">ASpleen</text>
<text text-anchor="middle" x="259.09" y="-237.8" font-family="Arial" font-size="14.00">[&#45;]</text>
</a>
</g>
</g>
<!-- ASpleen&#45;&gt;ALiver -->
<g id="edge3" class="edge">
<title>ASpleen&#45;&gt;ALiver</title>
<path fill="none" stroke="black" d="M273.41,-229.85C289.81,-209.05 316.84,-174.78 335.5,-151.11"/>
<polygon fill="black" stroke="black" points="338.28,-153.24 341.72,-143.22 332.78,-148.91 338.28,-153.24"/>
<text text-anchor="middle" x="310.09" y="-201.3" font-family="Times,serif" font-size="14.00">_J3</text>
</g>
<!-- ASI&#45;&gt;ALiver -->
<g id="edge4" class="edge">
<title>ASI&#45;&gt;ALiver</title>
<path fill="none" stroke="black" d="M131.54,-234.6C174.38,-213.69 257.63,-173.06 309.85,-147.57"/>
<polygon fill="black" stroke="black" points="311.46,-150.68 318.91,-143.15 308.38,-144.39 311.46,-150.68"/>
<text text-anchor="middle" x="219.09" y="-201.3" font-family="Times,serif" font-size="14.00">_J1</text>
</g>
<!-- AMet -->
<g id="node6" class="node">
<title>AMet</title>
<g id="a_node6"><a xlink:href="#species-AMet" xlink:title="AMet&#10;[&#45;]">
<path fill="gold" stroke="black" d="M371.09,-54C371.09,-54 341.09,-54 341.09,-54 335.09,-54 329.09,-48 329.09,-42 329.09,-42 329.09,-28 329.09,-28 329.09,-22 335.09,-16 341.09,-16 341.09,-16 371.09,-16 371.09,-16 377.09,-16 383.09,-22 383.09,-28 383.09,-28 383.09,-42 383.09,-42 383.09,-48 377.09,-54 371.09,-54"/>
<text text-anchor="middle" x="356.09" y="-38.8" font-family="Arial" font-size="14.00">AMet</text>
<text text-anchor="middle" x="356.09" y="-23.8" font-family="Arial" font-size="14.00">[&#45;]</text>
</a>
</g>
</g>
<!-- ALiver&#45;&gt;AMet -->
<g id="edge5" class="edge">
<title>ALiver&#45;&gt;AMet</title>
<path fill="none" stroke="black" d="M356.09,-104.97C356.09,-93.19 356.09,-77.56 356.09,-64.16"/>
<polygon fill="black" stroke="black" points="359.59,-64 356.09,-54 352.59,-64 359.59,-64"/>
<text text-anchor="middle" x="371.59" y="-76.3" font-family="Times,serif" font-size="14.00">_J11</text>
</g>
<!-- ABlood -->
<g id="node7" class="node">
<title>ABlood</title>
<g id="a_node7"><a xlink:href="#species-ABlood" xlink:title="ABlood&#10;[&#45;]">
<path fill="gold" stroke="black" d="M455.09,-393C455.09,-393 419.09,-393 419.09,-393 413.09,-393 407.09,-387 407.09,-381 407.09,-381 407.09,-367 407.09,-367 407.09,-361 413.09,-355 419.09,-355 419.09,-355 455.09,-355 455.09,-355 461.09,-355 467.09,-361 467.09,-367 467.09,-367 467.09,-381 467.09,-381 467.09,-387 461.09,-393 455.09,-393"/>
<text text-anchor="middle" x="437.09" y="-377.8" font-family="Arial" font-size="14.00">ABlood</text>
<text text-anchor="middle" x="437.09" y="-362.8" font-family="Arial" font-size="14.00">[&#45;]</text>
</a>
</g>
</g>
<!-- ALiver&#45;&gt;ABlood -->
<g id="edge6" class="edge">
<title>ALiver&#45;&gt;ABlood</title>
<path fill="none" stroke="black" d="M356.98,-143.26C359.24,-177.94 367.02,-255.15 393.09,-314 398.31,-325.77 406.24,-337.42 413.94,-347.22"/>
<polygon fill="black" stroke="black" points="411.24,-349.45 420.28,-354.97 416.66,-345.02 411.24,-349.45"/>
<text text-anchor="middle" x="404.09" y="-245.3" font-family="Times,serif" font-size="14.00">_J8</text>
</g>
<!-- ABlood&#45;&gt;ASt -->
<g id="edge7" class="edge">
<title>ABlood&#45;&gt;ASt</title>
<path fill="none" stroke="black" d="M467.36,-370.85C513.24,-366.4 601.76,-353.06 665.09,-314 680.45,-304.53 693.91,-289.51 703.78,-276.4"/>
<polygon fill="black" stroke="black" points="706.73,-278.3 709.74,-268.14 701.05,-274.21 706.73,-278.3"/>
<text text-anchor="middle" x="659.09" y="-326.3" font-family="Times,serif" font-size="14.00">_J6</text>
</g>
<!-- ABlood&#45;&gt;ASpleen -->
<g id="edge8" class="edge">
<title>ABlood&#45;&gt;ASpleen</title>
<path fill="none" stroke="black" d="M407.03,-369.45C381.83,-365.25 345.94,-356.28 320.09,-337.5 298.72,-321.97 282.23,-296.58 271.81,-277.14"/>
<polygon fill="black" stroke="black" points="274.87,-275.44 267.19,-268.14 268.64,-278.64 274.87,-275.44"/>
<text text-anchor="middle" x="331.09" y="-326.3" font-family="Times,serif" font-size="14.00">_J4</text>
</g>
<!-- ABlood&#45;&gt;ASI -->
<g id="edge9" class="edge">
<title>ABlood&#45;&gt;ASI</title>
<path fill="none" stroke="black" d="M407,-372.67C353.62,-370.84 240.44,-361.18 160.09,-314 144.43,-304.8 130.88,-289.66 121.04,-276.41"/>
<polygon fill="black" stroke="black" points="123.76,-274.2 115.12,-268.06 118.05,-278.25 123.76,-274.2"/>
<text text-anchor="middle" x="220.09" y="-326.3" font-family="Times,serif" font-size="14.00">_J2</text>
</g>
<!-- ABlood&#45;&gt;ALiver -->
<g id="edge10" class="edge">
<title>ABlood&#45;&gt;ALiver</title>
<path fill="none" stroke="black" d="M436.77,-354.77C435.75,-325.81 431.61,-267.86 415.09,-222 405.87,-196.38 389.43,-170.17 376.24,-151.46"/>
<polygon fill="black" stroke="black" points="378.94,-149.24 370.26,-143.17 373.27,-153.33 378.94,-149.24"/>
<text text-anchor="middle" x="444.09" y="-245.3" font-family="Times,serif" font-size="14.00">_J7</text>
</g>
<!-- ARest -->
<g id="node8" class="node">
<title>ARest</title>
<g id="a_node8"><a xlink:href="#species-ARest" xlink:title="ARest&#10;[PBPKO:00501]">
<path fill="gold" stroke="black" d="M615.59,-268C615.59,-268 526.59,-268 526.59,-268 520.59,-268 514.59,-262 514.59,-256 514.59,-256 514.59,-242 514.59,-242 514.59,-236 520.59,-230 526.59,-230 526.59,-230 615.59,-230 615.59,-230 621.59,-230 627.59,-236 627.59,-242 627.59,-242 627.59,-256 627.59,-256 627.59,-262 621.59,-268 615.59,-268"/>
<text text-anchor="middle" x="571.09" y="-252.8" font-family="Arial" font-size="14.00">ARest</text>
<text text-anchor="middle" x="571.09" y="-237.8" font-family="Arial" font-size="14.00">[PBPKO:00501]</text>
</a>
</g>
</g>
<!-- ABlood&#45;&gt;ARest -->
<g id="edge11" class="edge">
<title>ABlood&#45;&gt;ARest</title>
<path fill="none" stroke="black" d="M456.87,-354.85C479.83,-333.78 517.84,-298.88 543.65,-275.19"/>
<polygon fill="black" stroke="black" points="546.24,-277.56 551.24,-268.22 541.51,-272.41 546.24,-277.56"/>
<text text-anchor="middle" x="502.09" y="-326.3" font-family="Times,serif" font-size="14.00">_J9</text>
</g>
<!-- ARest&#45;&gt;ABlood -->
<g id="edge12" class="edge">
<title>ARest&#45;&gt;ABlood</title>
<path fill="none" stroke="black" d="M563.73,-268.32C555.11,-287.75 539.15,-318.25 517.09,-337.5 505.47,-347.65 490.48,-355.33 476.62,-360.91"/>
<polygon fill="black" stroke="black" points="475.38,-357.64 467.26,-364.44 477.85,-364.19 475.38,-357.64"/>
<text text-anchor="middle" x="545.59" y="-326.3" font-family="Times,serif" font-size="14.00">_J10</text>
</g>
</g>
</svg>
