<?xml version="1.0" encoding="UTF-8" standalone="no"?>
<!DOCTYPE svg PUBLIC "-//W3C//DTD SVG 1.1//EN"
 "http://www.w3.org/Graphics/SVG/1.1/DTD/svg11.dtd">
<!-- Generated by graphviz version 2.43.0 (0)
 -->
<!-- Title: %3 Pages: 1 -->
<svg width="500pt" height="288pt"
 viewBox="0.00 0.00 500.38 288.00" xmlns="http://www.w3.org/2000/svg" xmlns:xlink="http://www.w3.org/1999/xlink">
<g id="graph0" class="graph" transform="scale(0.6 0.6) rotate(0) translate(4 473)">
<title>%3</title>
<polygon fill="white" stroke="transparent" points="-4,4 -4,-473 824.75,-473 824.75,4 -4,4"/>
<g id="clust1" class="cluster">
<title>cluster_Gut_lumen</title>
<g id="a_clust1"><a xlink:href="#compartment-Gut_lumen" xlink:title="Gut_lumen&#10;[PBPKO:00478]">
<path fill="lightblue" stroke="black" d="M203.12,-119C203.12,-119 351.91,-119 351.91,-119 357.91,-119 363.91,-125 363.91,-131 363.91,-131 363.91,-324 363.91,-324 363.91,-330 357.91,-336 351.91,-336 351.91,-336 203.12,-336 203.12,-336 197.12,-336 191.12,-330 191.12,-324 191.12,-324 191.12,-131 191.12,-131 191.12,-125 197.12,-119 203.12,-119"/>
<text text-anchor="middle" x="277.51" y="-320.8" font-family="Arial" font-size="14.00">Gut_lumen</text>
<text text-anchor="middle" x="277.51" y="-305.8" font-family="Arial" font-size="14.00">[PBPKO:00478]</text>
</a>
</g>
</g>
<g id="clust2" class="cluster">
<title>cluster_Gut</title>
<g id="a_clust2"><a xlink:href="#compartment-Gut" xlink:title="Gut&#10;[PBPKO:00477]">
<path fill="lightblue" stroke="black" d="M386.38,-119C386.38,-119 532.55,-119 532.55,-119 538.55,-119 544.55,-125 544.55,-131 544.55,-131 544.55,-199 544.55,-199 544.55,-205 538.55,-211 532.55,-211 532.55,-211 386.38,-211 386.38,-211 380.38,-211 374.38,-205 374.38,-199 374.38,-199 374.38,-131 374.38,-131 374.38,-125 380.38,-119 386.38,-119"/>
<text text-anchor="middle" x="459.46" y="-195.8" font-family="Arial" font-size="14.00">Gut</text>
<text text-anchor="middle" x="459.46" y="-180.8" font-family="Arial" font-size="14.00">[PBPKO:00477]</text>
</a>
</g>
</g>
<g id="clust3" class="cluster">
<title>cluster_Liver</title>
<g id="a_clust3"><a xlink:href="#compartment-Liver" xlink:title="Liver&#10;[PBPKO:00558]">
<path fill="lightblue" stroke="black" d="M22.47,-244C22.47,-244 168.64,-244 168.64,-244 174.64,-244 180.64,-250 180.64,-256 180.64,-256 180.64,-449 180.64,-449 180.64,-455 174.64,-461 168.64,-461 168.64,-461 22.47,-461 22.47,-461 16.47,-461 10.47,-455 10.47,-449 10.47,-449 10.47,-256 10.47,-256 10.47,-250 16.47,-244 22.47,-244"/>
<text text-anchor="middle" x="95.56" y="-445.8" font-family="Arial" font-size="14.00">Liver</text>
<text text-anchor="middle" x="95.56" y="-430.8" font-family="Arial" font-size="14.00">[PBPKO:00558]</text>
</a>
</g>
</g>
<g id="clust4" class="cluster">
<title>cluster_Red_Blood_Cell</title>
<g id="a_clust4"><a xlink:href="#compartment-Red_Blood_Cell" xlink:title="Red_Blood_Cell&#10;[PBPKO:00634]">
<path fill="lightblue" stroke="black" d="M519.9,-369C519.9,-369 666.07,-369 666.07,-369 672.07,-369 678.07,-375 678.07,-381 678.07,-381 678.07,-449 678.07,-449 678.07,-455 672.07,-461 666.07,-461 666.07,-461 519.9,-461 519.9,-461 513.9,-461 507.9,-455 507.9,-449 507.9,-449 507.9,-381 507.9,-381 507.9,-375 513.9,-369 519.9,-369"/>
<text text-anchor="middle" x="592.98" y="-445.8" font-family="Arial" font-size="14.00">Red_Blood_Cell</text>
<text text-anchor="middle" x="592.98" y="-430.8" font-family="Arial" font-size="14.00">[PBPKO:00634]</text>
</a>
</g>
</g>
<g id="clust5" class="cluster">
<title>cluster_Plasma</title>
<g id="a_clust5"><a xlink:href="#compartment-Plasma" xlink:title="Plasma&#10;[PBPKO:00488]">
<path fill="lightblue" stroke="black" d="M544.77,-244C544.77,-244 690.94,-244 690.94,-244 696.94,-244 702.94,-250 702.94,-256 702.94,-256 702.94,-324 702.94,-324 702.94,-330 696.94,-336 690.94,-336 690.94,-336 544.77,-336 544.77,-336 538.77,-336 532.77,-330 532.77,-324 532.77,-324 532.77,-256 532.77,-256 532.77,-250 538.77,-244 544.77,-244"/>
<text text-anchor="middle" x="617.85" y="-320.8" font-family="Arial" font-size="14.00">Plasma</text>
<text text-anchor="middle" x="617.85" y="-305.8" font-family="Arial" font-size="14.00">[PBPKO:00488]</text>
</a>
</g>
</g>
<g id="clust6" class="cluster">
<title>cluster_Rest</title>
<g id="a_clust6"><a xlink:href="#compartment-Rest" xlink:title="Rest&#10;[PBPKO:00450]">
<path fill="lightblue" stroke="black" d="M652.11,-119C652.11,-119 798.28,-119 798.28,-119 804.28,-119 810.28,-125 810.28,-131 810.28,-131 810.28,-199 810.28,-199 810.28,-205 804.28,-211 798.28,-211 798.28,-211 652.11,-211 652.11,-211 646.11,-211 640.11,-205 640.11,-199 640.11,-199 640.11,-131 640.11,-131 640.11,-125 646.11,-119 652.11,-119"/>
<text text-anchor="middle" x="725.19" y="-195.8" font-family="Arial" font-size="14.00">Rest</text>
<text text-anchor="middle" x="725.19" y="-180.8" font-family="Arial" font-size="14.00">[PBPKO:00450]</text>
</a>
</g>
</g>
<g id="clust7" class="cluster">
<title>cluster_Feces</title>
<g id="a_clust7"><a xlink:href="#compartment-Feces" xlink:title="Feces&#10;[PBPKO:00555]">
<path fill="lightblue" stroke="black" d="M508.12,-8C508.12,-8 654.29,-8 654.29,-8 660.29,-8 666.29,-14 666.29,-20 666.29,-20 666.29,-88 666.29,-88 666.29,-94 660.29,-100 654.29,-100 654.29,-100 508.12,-100 508.12,-100 502.12,-100 496.12,-94 496.12,-88 496.12,-88 496.12,-20 496.12,-20 496.12,-14 502.12,-8 508.12,-8"/>
<text text-anchor="middle" x="581.2" y="-84.8" font-family="Arial" font-size="14.00">Feces</text>
<text text-anchor="middle" x="581.2" y="-69.8" font-family="Arial" font-size="14.00">[PBPKO:00555]</text>
</a>
</g>
</g>
<!-- AGut_lumen -->
<g id="node1" class="node">
<title>AGut_lumen</title>
<g id="a_node1"><a xlink:href="#species-AGut_lumen" xlink:title="AGut_lumen&#10;[&#45;]">
<path fill="gold" stroke="black" d="M316.98,-290C316.98,-290 247.98,-290 247.98,-290 241.98,-290 235.98,-284 235.98,-278 235.98,-278 235.98,-264 235.98,-264 235.98,-258 241.98,-252 247.98,-252 247.98,-252 316.98,-252 316.98,-252 322.98,-252 328.98,-258 328.98,-264 328.98,-264 328.98,-278 328.98,-278 328.98,-284 322.98,-290 316.98,-290"/>
<text text-anchor="middle" x="282.48" y="-274.8" font-family="Arial" font-size="14.00">AGut_lumen</text>
<text text-anchor="middle" x="282.48" y="-259.8" font-family="Arial" font-size="14.00">[&#45;]</text>
</a>
</g>
</g>
<!-- AGutlumen_Met -->
<g id="node2" class="node">
<title>AGutlumen_Met</title>
<g id="a_node2"><a xlink:href="#species-AGutlumen_Met" xlink:title="AGutlumen_Met&#10;[PBPKO:00496]">
<path fill="gold" stroke="black" d="M323.48,-165C323.48,-165 231.48,-165 231.48,-165 225.48,-165 219.48,-159 219.48,-153 219.48,-153 219.48,-139 219.48,-139 219.48,-133 225.48,-127 231.48,-127 231.48,-127 323.48,-127 323.48,-127 329.48,-127 335.48,-133 335.48,-139 335.48,-139 335.48,-153 335.48,-153 335.48,-159 329.48,-165 323.48,-165"/>
<text text-anchor="middle" x="277.48" y="-149.8" font-family="Arial" font-size="14.00">AGutlumen_Met</text>
<text text-anchor="middle" x="277.48" y="-134.8" font-family="Arial" font-size="14.00">[PBPKO:00496]</text>
</a>
</g>
</g>
<!-- AGut_lumen&#45;&gt;AGutlumen_Met -->
<g id="edge1" class="edge">
<title>AGut_lumen&#45;&gt;AGutlumen_Met</title>
<path fill="none" stroke="black" d="M281.75,-251.85C280.93,-231.68 279.59,-198.86 278.64,-175.31"/>
<polygon fill="black" stroke="black" points="282.13,-175.07 278.23,-165.22 275.13,-175.36 282.13,-175.07"/>
<text text-anchor="middle" x="295.98" y="-223.3" font-family="Times,serif" font-size="14.00">_J11</text>
</g>
<!-- AGut -->
<g id="node3" class="node">
<title>AGut</title>
<g id="a_node3"><a xlink:href="#species-AGut" xlink:title="AGut&#10;[PBPKO:00496]">
<path fill="gold" stroke="black" d="M503.98,-165C503.98,-165 414.98,-165 414.98,-165 408.98,-165 402.98,-159 402.98,-153 402.98,-153 402.98,-139 402.98,-139 402.98,-133 408.98,-127 414.98,-127 414.98,-127 503.98,-127 503.98,-127 509.98,-127 515.98,-133 515.98,-139 515.98,-139 515.98,-153 515.98,-153 515.98,-159 509.98,-165 503.98,-165"/>
<text text-anchor="middle" x="459.48" y="-149.8" font-family="Arial" font-size="14.00">AGut</text>
<text text-anchor="middle" x="459.48" y="-134.8" font-family="Arial" font-size="14.00">[PBPKO:00496]</text>
</a>
</g>
</g>
<!-- AGut_lumen&#45;&gt;AGut -->
<g id="edge2" class="edge">
<title>AGut_lumen&#45;&gt;AGut</title>
<path fill="none" stroke="black" d="M308.53,-251.93C325.36,-240.26 347.72,-224.74 367.48,-211 386.4,-197.86 407.49,-183.19 424.7,-171.21"/>
<polygon fill="black" stroke="black" points="427.11,-173.8 433.32,-165.21 423.11,-168.05 427.11,-173.8"/>
<text text-anchor="middle" x="364.48" y="-223.3" font-family="Times,serif" font-size="14.00">_J0</text>
</g>
<!-- AFeces -->
<g id="node9" class="node">
<title>AFeces</title>
<g id="a_node9"><a xlink:href="#species-AFeces" xlink:title="AFeces&#10;[PBPKO:00273]">
<path fill="gold" stroke="black" d="M625.98,-54C625.98,-54 536.98,-54 536.98,-54 530.98,-54 524.98,-48 524.98,-42 524.98,-42 524.98,-28 524.98,-28 524.98,-22 530.98,-16 536.98,-16 536.98,-16 625.98,-16 625.98,-16 631.98,-16 637.98,-22 637.98,-28 637.98,-28 637.98,-42 637.98,-42 637.98,-48 631.98,-54 625.98,-54"/>
<text text-anchor="middle" x="581.48" y="-38.8" font-family="Arial" font-size="14.00">AFeces</text>
<text text-anchor="middle" x="581.48" y="-23.8" font-family="Arial" font-size="14.00">[PBPKO:00273]</text>
</a>
</g>
</g>
<!-- AGut_lumen&#45;&gt;AFeces -->
<g id="edge3" class="edge">
<title>AGut_lumen&#45;&gt;AFeces</title>
<path fill="none" stroke="black" d="M329.12,-256.13C343.88,-251.97 360.31,-247.56 375.48,-244 451.69,-226.11 493.19,-266.41 548.48,-211 587.31,-172.09 588.13,-102.82 585,-64.13"/>
<polygon fill="black" stroke="black" points="588.47,-63.7 584.04,-54.08 581.51,-64.36 588.47,-63.7"/>
<text text-anchor="middle" x="599.98" y="-142.3" font-family="Times,serif" font-size="14.00">_J12</text>
</g>
<!-- ALiver -->
<g id="node4" class="node">
<title>ALiver</title>
<g id="a_node4"><a xlink:href="#species-ALiver" xlink:title="ALiver&#10;[PBPKO:00497]">
<path fill="gold" stroke="black" d="M139.98,-415C139.98,-415 50.98,-415 50.98,-415 44.98,-415 38.98,-409 38.98,-403 38.98,-403 38.98,-389 38.98,-389 38.98,-383 44.98,-377 50.98,-377 50.98,-377 139.98,-377 139.98,-377 145.98,-377 151.98,-383 151.98,-389 151.98,-389 151.98,-403 151.98,-403 151.98,-409 145.98,-415 139.98,-415"/>
<text text-anchor="middle" x="95.48" y="-399.8" font-family="Arial" font-size="14.00">ALiver</text>
<text text-anchor="middle" x="95.48" y="-384.8" font-family="Arial" font-size="14.00">[PBPKO:00497]</text>
</a>
</g>
</g>
<!-- AGut&#45;&gt;ALiver -->
<g id="edge4" class="edge">
<title>AGut&#45;&gt;ALiver</title>
<path fill="none" stroke="black" d="M456.15,-165.12C448.15,-203.17 424.17,-291.49 367.48,-336 336.11,-360.64 232.04,-378.04 162.11,-387.29"/>
<polygon fill="black" stroke="black" points="161.52,-383.84 152.05,-388.59 162.42,-390.78 161.52,-383.84"/>
<text text-anchor="middle" x="442.48" y="-267.3" font-family="Times,serif" font-size="14.00">_J1</text>
</g>
<!-- ALiver&#45;&gt;AGut_lumen -->
<g id="edge5" class="edge">
<title>ALiver&#45;&gt;AGut_lumen</title>
<path fill="none" stroke="black" d="M123.08,-376.85C155.76,-355.35 210.32,-319.47 246.35,-295.77"/>
<polygon fill="black" stroke="black" points="248.65,-298.44 255.08,-290.02 244.81,-292.59 248.65,-298.44"/>
<text text-anchor="middle" x="182.48" y="-348.3" font-family="Times,serif" font-size="14.00">_J9</text>
</g>
<!-- ALiver_Met -->
<g id="node5" class="node">
<title>ALiver_Met</title>
<g id="a_node5"><a xlink:href="#species-ALiver_Met" xlink:title="ALiver_Met&#10;[PBPKO:00497]">
<path fill="gold" stroke="black" d="M139.98,-290C139.98,-290 50.98,-290 50.98,-290 44.98,-290 38.98,-284 38.98,-278 38.98,-278 38.98,-264 38.98,-264 38.98,-258 44.98,-252 50.98,-252 50.98,-252 139.98,-252 139.98,-252 145.98,-252 151.98,-258 151.98,-264 151.98,-264 151.98,-278 151.98,-278 151.98,-284 145.98,-290 139.98,-290"/>
<text text-anchor="middle" x="95.48" y="-274.8" font-family="Arial" font-size="14.00">ALiver_Met</text>
<text text-anchor="middle" x="95.48" y="-259.8" font-family="Arial" font-size="14.00">[PBPKO:00497]</text>
</a>
</g>
</g>
<!-- ALiver&#45;&gt;ALiver_Met -->
<g id="edge6" class="edge">
<title>ALiver&#45;&gt;ALiver_Met</title>
<path fill="none" stroke="black" d="M95.48,-376.85C95.48,-356.68 95.48,-323.86 95.48,-300.31"/>
<polygon fill="black" stroke="black" points="98.98,-300.22 95.48,-290.22 91.98,-300.22 98.98,-300.22"/>
<text text-anchor="middle" x="110.98" y="-348.3" font-family="Times,serif" font-size="14.00">_J10</text>
</g>
<!-- APlasma -->
<g id="node7" class="node">
<title>APlasma</title>
<g id="a_node7"><a xlink:href="#species-APlasma" xlink:title="APlasma&#10;[PBPKO:00502]">
<path fill="gold" stroke="black" d="M661.98,-290C661.98,-290 572.98,-290 572.98,-290 566.98,-290 560.98,-284 560.98,-278 560.98,-278 560.98,-264 560.98,-264 560.98,-258 566.98,-252 572.98,-252 572.98,-252 661.98,-252 661.98,-252 667.98,-252 673.98,-258 673.98,-264 673.98,-264 673.98,-278 673.98,-278 673.98,-284 667.98,-290 661.98,-290"/>
<text text-anchor="middle" x="617.48" y="-274.8" font-family="Arial" font-size="14.00">APlasma</text>
<text text-anchor="middle" x="617.48" y="-259.8" font-family="Arial" font-size="14.00">[PBPKO:00502]</text>
</a>
</g>
</g>
<!-- ALiver&#45;&gt;APlasma -->
<g id="edge7" class="edge">
<title>ALiver&#45;&gt;APlasma</title>
<path fill="none" stroke="black" d="M152.04,-393.56C215.97,-390.81 322.71,-382.81 411.48,-359.5 470.06,-344.12 533.67,-315.03 574.47,-294.63"/>
<polygon fill="black" stroke="black" points="576.23,-297.67 583.58,-290.03 573.07,-291.42 576.23,-297.67"/>
<text text-anchor="middle" x="468.48" y="-348.3" font-family="Times,serif" font-size="14.00">_J4</text>
</g>
<!-- ARBC -->
<g id="node6" class="node">
<title>ARBC</title>
<g id="a_node6"><a xlink:href="#species-ARBC" xlink:title="ARBC&#10;[PBPKO:00623]">
<path fill="gold" stroke="black" d="M636.98,-415C636.98,-415 547.98,-415 547.98,-415 541.98,-415 535.98,-409 535.98,-403 535.98,-403 535.98,-389 535.98,-389 535.98,-383 541.98,-377 547.98,-377 547.98,-377 636.98,-377 636.98,-377 642.98,-377 648.98,-383 648.98,-389 648.98,-389 648.98,-403 648.98,-403 648.98,-409 642.98,-415 636.98,-415"/>
<text text-anchor="middle" x="592.48" y="-399.8" font-family="Arial" font-size="14.00">ARBC</text>
<text text-anchor="middle" x="592.48" y="-384.8" font-family="Arial" font-size="14.00">[PBPKO:00623]</text>
</a>
</g>
</g>
<!-- ARBC&#45;&gt;APlasma -->
<g id="edge8" class="edge">
<title>ARBC&#45;&gt;APlasma</title>
<path fill="none" stroke="black" d="M583.36,-376.79C579.67,-367.2 576.84,-355.22 579.48,-344.5 583.46,-328.36 591.74,-311.82 599.56,-298.63"/>
<polygon fill="black" stroke="black" points="602.56,-300.43 604.84,-290.08 596.61,-296.75 602.56,-300.43"/>
<text text-anchor="middle" x="590.48" y="-348.3" font-family="Times,serif" font-size="14.00">_J8</text>
</g>
<!-- APlasma&#45;&gt;AGut -->
<g id="edge9" class="edge">
<title>APlasma&#45;&gt;AGut</title>
<path fill="none" stroke="black" d="M594.17,-251.85C566.79,-230.53 521.24,-195.08 490.8,-171.37"/>
<polygon fill="black" stroke="black" points="492.68,-168.4 482.64,-165.02 488.38,-173.93 492.68,-168.4"/>
<text text-anchor="middle" x="581.48" y="-223.3" font-family="Times,serif" font-size="14.00">_J2</text>
</g>
<!-- APlasma&#45;&gt;ALiver -->
<g id="edge10" class="edge">
<title>APlasma&#45;&gt;ALiver</title>
<path fill="none" stroke="black" d="M596.58,-290.09C571.25,-310.86 526.35,-344.05 481.48,-359.5 424.24,-379.22 256.76,-388.76 162.29,-392.68"/>
<polygon fill="black" stroke="black" points="162.12,-389.19 152.27,-393.09 162.4,-396.18 162.12,-389.19"/>
<text text-anchor="middle" x="524.48" y="-348.3" font-family="Times,serif" font-size="14.00">_J3</text>
</g>
<!-- APlasma&#45;&gt;ARBC -->
<g id="edge11" class="edge">
<title>APlasma&#45;&gt;ARBC</title>
<path fill="none" stroke="black" d="M614.53,-290.17C611.56,-307.92 606.68,-335.66 601.48,-359.5 600.94,-362 600.34,-364.59 599.73,-367.18"/>
<polygon fill="black" stroke="black" points="596.3,-366.45 597.3,-377 603.1,-368.13 596.3,-366.45"/>
<text text-anchor="middle" x="614.48" y="-348.3" font-family="Times,serif" font-size="14.00">_J7</text>
</g>
<!-- ARest -->
<g id="node8" class="node">
<title>ARest</title>
<g id="a_node8"><a xlink:href="#species-ARest" xlink:title="ARest&#10;[PBPKO:00501]">
<path fill="gold" stroke="black" d="M769.98,-165C769.98,-165 680.98,-165 680.98,-165 674.98,-165 668.98,-159 668.98,-153 668.98,-153 668.98,-139 668.98,-139 668.98,-133 674.98,-127 680.98,-127 680.98,-127 769.98,-127 769.98,-127 775.98,-127 781.98,-133 781.98,-139 781.98,-139 781.98,-153 781.98,-153 781.98,-159 775.98,-165 769.98,-165"/>
<text text-anchor="middle" x="725.48" y="-149.8" font-family="Arial" font-size="14.00">ARest</text>
<text text-anchor="middle" x="725.48" y="-134.8" font-family="Arial" font-size="14.00">[PBPKO:00501]</text>
</a>
</g>
</g>
<!-- APlasma&#45;&gt;ARest -->
<g id="edge12" class="edge">
<title>APlasma&#45;&gt;ARest</title>
<path fill="none" stroke="black" d="M633.42,-251.85C651.77,-230.96 682.04,-196.48 702.83,-172.8"/>
<polygon fill="black" stroke="black" points="705.52,-175.05 709.48,-165.22 700.26,-170.43 705.52,-175.05"/>
<text text-anchor="middle" x="672.48" y="-223.3" font-family="Times,serif" font-size="14.00">_J5</text>
</g>
<!-- ARest&#45;&gt;APlasma -->
<g id="edge13" class="edge">
<title>ARest&#45;&gt;APlasma</title>
<path fill="none" stroke="black" d="M721.51,-165.12C716.47,-184.38 706.11,-214.73 687.48,-234.5 683.35,-238.88 678.56,-242.81 673.46,-246.31"/>
<polygon fill="black" stroke="black" points="671.29,-243.54 664.65,-251.8 674.99,-249.49 671.29,-243.54"/>
<text text-anchor="middle" x="709.48" y="-223.3" font-family="Times,serif" font-size="14.00">_J6</text>
</g>
</g>
</svg>
