<?xml version="1.0" encoding="UTF-8" standalone="no"?>
<!DOCTYPE svg PUBLIC "-//W3C//DTD SVG 1.1//EN"
 "http://www.w3.org/Graphics/SVG/1.1/DTD/svg11.dtd">
<!-- Generated by graphviz version 2.43.0 (0)
 -->
<!-- Title: %3 Pages: 1 -->
<svg width="504pt" height="286pt"
 viewBox="0.00 0.00 504.00 285.51" xmlns="http://www.w3.org/2000/svg" xmlns:xlink="http://www.w3.org/1999/xlink">
<g id="graph0" class="graph" transform="scale(0.39 0.39) rotate(0) translate(4 728)">
<title>%3</title>
<polygon fill="white" stroke="transparent" points="-4,4 -4,-728 1288.19,-728 1288.19,4 -4,4"/>
<g id="clust1" class="cluster">
<title>cluster_Stomach</title>
<g id="a_clust1"><a xlink:href="#compartment-Stomach" xlink:title="Stomach&#10;[PBPKO:00566]">
<path fill="lightblue" stroke="black" d="M554.56,-586C554.56,-586 646.02,-586 646.02,-586 652.02,-586 658.02,-592 658.02,-598 658.02,-598 658.02,-704 658.02,-704 658.02,-710 652.02,-716 646.02,-716 646.02,-716 554.56,-716 554.56,-716 548.56,-716 542.56,-710 542.56,-704 542.56,-704 542.56,-598 542.56,-598 542.56,-592 548.56,-586 554.56,-586"/>
<text text-anchor="middle" x="600.29" y="-700.8" font-family="Arial" font-size="14.00">Stomach</text>
<text text-anchor="middle" x="600.29" y="-685.8" font-family="Arial" font-size="14.00">[PBPKO:00566]</text>
</a>
</g>
</g>
<g id="clust2" class="cluster">
<title>cluster_SI</title>
<g id="a_clust2"><a xlink:href="#compartment-SI" xlink:title="SI&#10;[PBPKO:00472]">
<path fill="lightblue" stroke="black" d="M724.18,-334C724.18,-334 876.94,-334 876.94,-334 882.94,-334 888.94,-340 888.94,-346 888.94,-346 888.94,-541 888.94,-541 888.94,-547 882.94,-553 876.94,-553 876.94,-553 724.18,-553 724.18,-553 718.18,-553 712.18,-547 712.18,-541 712.18,-541 712.18,-346 712.18,-346 712.18,-340 718.18,-334 724.18,-334"/>
<text text-anchor="middle" x="800.56" y="-537.8" font-family="Arial" font-size="14.00">SI</text>
<text text-anchor="middle" x="800.56" y="-522.8" font-family="Arial" font-size="14.00">[PBPKO:00472]</text>
</a>
</g>
</g>
<g id="clust3" class="cluster">
<title>cluster_Liver</title>
<g id="a_clust3"><a xlink:href="#compartment-Liver" xlink:title="Liver&#10;[PBPKO:00558]">
<path fill="lightblue" stroke="black" d="M20.17,-171C20.17,-171 584.72,-171 584.72,-171 590.72,-171 596.72,-177 596.72,-183 596.72,-183 596.72,-289 596.72,-289 596.72,-295 590.72,-301 584.72,-301 584.72,-301 20.17,-301 20.17,-301 14.17,-301 8.17,-295 8.17,-289 8.17,-289 8.17,-183 8.17,-183 8.17,-177 14.17,-171 20.17,-171"/>
<text text-anchor="middle" x="302.45" y="-285.8" font-family="Arial" font-size="14.00">Liver</text>
<text text-anchor="middle" x="302.45" y="-270.8" font-family="Arial" font-size="14.00">[PBPKO:00558]</text>
</a>
</g>
</g>
<g id="clust4" class="cluster">
<title>cluster_Plasma</title>
<g id="a_clust4"><a xlink:href="#compartment-Plasma" xlink:title="Plasma&#10;[PBPKO:00488]">
<path fill="lightblue" stroke="black" d="M438.08,-8C438.08,-8 814.62,-8 814.62,-8 820.62,-8 826.62,-14 826.62,-20 826.62,-20 826.62,-126 826.62,-126 826.62,-132 820.62,-138 814.62,-138 814.62,-138 438.08,-138 438.08,-138 432.08,-138 426.08,-132 426.08,-126 426.08,-126 426.08,-20 426.08,-20 426.08,-14 432.08,-8 438.08,-8"/>
<text text-anchor="middle" x="626.35" y="-122.8" font-family="Arial" font-size="14.00">Plasma</text>
<text text-anchor="middle" x="626.35" y="-107.8" font-family="Arial" font-size="14.00">[PBPKO:00488]</text>
</a>
</g>
</g>
<g id="clust5" class="cluster">
<title>cluster_Rest</title>
<g id="a_clust5"><a xlink:href="#compartment-Rest" xlink:title="Rest&#10;[PBPKO:00450]">
<path fill="lightblue" stroke="black" d="M729.29,-171C729.29,-171 838.12,-171 838.12,-171 844.12,-171 850.12,-177 850.12,-183 850.12,-183 850.12,-289 850.12,-289 850.12,-295 844.12,-301 838.12,-301 838.12,-301 729.29,-301 729.29,-301 723.29,-301 717.29,-295 717.29,-289 717.29,-289 717.29,-183 717.29,-183 717.29,-177 723.29,-171 729.29,-171"/>
<text text-anchor="middle" x="783.7" y="-285.8" font-family="Arial" font-size="14.00">Rest</text>
<text text-anchor="middle" x="783.7" y="-270.8" font-family="Arial" font-size="14.00">[PBPKO:00450]</text>
</a>
</g>
</g>
<g id="clust6" class="cluster">
<title>cluster_GILumen</title>
<g id="a_clust6"><a xlink:href="#compartment-GILumen" xlink:title="GILumen&#10;[PBPKO:00478]">
<path fill="lightblue" stroke="black" d="M870.29,-171C870.29,-171 1246.83,-171 1246.83,-171 1252.83,-171 1258.83,-177 1258.83,-183 1258.83,-183 1258.83,-289 1258.83,-289 1258.83,-295 1252.83,-301 1246.83,-301 1246.83,-301 870.29,-301 870.29,-301 864.29,-301 858.29,-295 858.29,-289 858.29,-289 858.29,-183 858.29,-183 858.29,-177 864.29,-171 870.29,-171"/>
<text text-anchor="middle" x="1058.56" y="-285.8" font-family="Arial" font-size="14.00">GILumen</text>
<text text-anchor="middle" x="1058.56" y="-270.8" font-family="Arial" font-size="14.00">[PBPKO:00478]</text>
</a>
</g>
</g>
<g id="clust7" class="cluster">
<title>cluster_Feces</title>
<g id="a_clust7"><a xlink:href="#compartment-Feces" xlink:title="Feces&#10;[PBPKO:00555]">
<path fill="lightblue" stroke="black" d="M870.29,-8C870.29,-8 1246.83,-8 1246.83,-8 1252.83,-8 1258.83,-14 1258.83,-20 1258.83,-20 1258.83,-126 1258.83,-126 1258.83,-132 1252.83,-138 1246.83,-138 1246.83,-138 870.29,-138 870.29,-138 864.29,-138 858.29,-132 858.29,-126 858.29,-126 858.29,-20 858.29,-20 858.29,-14 864.29,-8 870.29,-8"/>
<text text-anchor="middle" x="1058.56" y="-122.8" font-family="Arial" font-size="14.00">Feces</text>
<text text-anchor="middle" x="1058.56" y="-107.8" font-family="Arial" font-size="14.00">[PBPKO:00555]</text>
</a>
</g>
</g>
<!-- ASt -->
<g id="node1" class="node">
<title>ASt</title>
<g id="a_node1"><a xlink:href="#species-ASt" xlink:title="ASt&#10;[&#45;]">
<path fill="gold" stroke="black" d="M615.2,-632C615.2,-632 585.2,-632 585.2,-632 579.2,-632 573.2,-626 573.2,-620 573.2,-620 573.2,-606 573.2,-606 573.2,-600 579.2,-594 585.2,-594 585.2,-594 615.2,-594 615.2,-594 621.2,-594 627.2,-600 627.2,-606 627.2,-606 627.2,-620 627.2,-620 627.2,-626 621.2,-632 615.2,-632"/>
<text text-anchor="middle" x="600.2" y="-616.8" font-family="Arial" font-size="14.00">ASt</text>
<text text-anchor="middle" x="600.2" y="-601.8" font-family="Arial" font-size="14.00">[&#45;]</text>
</a>
</g>
</g>
<!-- ASI -->
<g id="node2" class="node">
<title>ASI</title>
<g id="a_node2"><a xlink:href="#species-ASI" xlink:title="ASI&#10;[&#45;]">
<path fill="gold" stroke="black" d="M771.2,-469C771.2,-469 741.2,-469 741.2,-469 735.2,-469 729.2,-463 729.2,-457 729.2,-457 729.2,-443 729.2,-443 729.2,-437 735.2,-431 741.2,-431 741.2,-431 771.2,-431 771.2,-431 777.2,-431 783.2,-437 783.2,-443 783.2,-443 783.2,-457 783.2,-457 783.2,-463 777.2,-469 771.2,-469"/>
<text text-anchor="middle" x="756.2" y="-453.8" font-family="Arial" font-size="14.00">ASI</text>
<text text-anchor="middle" x="756.2" y="-438.8" font-family="Arial" font-size="14.00">[&#45;]</text>
</a>
</g>
</g>
<!-- ASt&#45;&gt;ASI -->
<g id="edge1" class="edge">
<title>ASt&#45;&gt;ASI</title>
<path fill="none" stroke="black" d="M617.79,-593.84C645.53,-565.22 699.52,-509.49 731.25,-476.74"/>
<polygon fill="black" stroke="black" points="733.98,-478.95 738.43,-469.34 728.96,-474.08 733.98,-478.95"/>
<text text-anchor="middle" x="657.2" y="-565.3" font-family="Times,serif" font-size="14.00">_J0</text>
</g>
<!-- ALiver -->
<g id="node5" class="node">
<title>ALiver</title>
<g id="a_node5"><a xlink:href="#species-ALiver" xlink:title="ALiver&#10;[PBPKO:00497]">
<path fill="gold" stroke="black" d="M574.7,-217C574.7,-217 485.7,-217 485.7,-217 479.7,-217 473.7,-211 473.7,-205 473.7,-205 473.7,-191 473.7,-191 473.7,-185 479.7,-179 485.7,-179 485.7,-179 574.7,-179 574.7,-179 580.7,-179 586.7,-185 586.7,-191 586.7,-191 586.7,-205 586.7,-205 586.7,-211 580.7,-217 574.7,-217"/>
<text text-anchor="middle" x="530.2" y="-201.8" font-family="Arial" font-size="14.00">ALiver</text>
<text text-anchor="middle" x="530.2" y="-186.8" font-family="Arial" font-size="14.00">[PBPKO:00497]</text>
</a>
</g>
</g>
<!-- ASt&#45;&gt;ALiver -->
<g id="edge2" class="edge">
<title>ASt&#45;&gt;ALiver</title>
<path fill="none" stroke="black" d="M597.14,-593.99C586.14,-529.04 548.42,-306.55 534.99,-227.31"/>
<polygon fill="black" stroke="black" points="538.39,-226.38 533.26,-217.11 531.49,-227.55 538.39,-226.38"/>
<text text-anchor="middle" x="576.2" y="-402.3" font-family="Times,serif" font-size="14.00">_J1</text>
</g>
<!-- ASIMet1 -->
<g id="node3" class="node">
<title>ASIMet1</title>
<g id="a_node3"><a xlink:href="#species-ASIMet1" xlink:title="ASIMet1&#10;[&#45;]">
<path fill="gold" stroke="black" d="M867.7,-380C867.7,-380 822.7,-380 822.7,-380 816.7,-380 810.7,-374 810.7,-368 810.7,-368 810.7,-354 810.7,-354 810.7,-348 816.7,-342 822.7,-342 822.7,-342 867.7,-342 867.7,-342 873.7,-342 879.7,-348 879.7,-354 879.7,-354 879.7,-368 879.7,-368 879.7,-374 873.7,-380 867.7,-380"/>
<text text-anchor="middle" x="845.2" y="-364.8" font-family="Arial" font-size="14.00">ASIMet1</text>
<text text-anchor="middle" x="845.2" y="-349.8" font-family="Arial" font-size="14.00">[&#45;]</text>
</a>
</g>
</g>
<!-- ASI&#45;&gt;ASIMet1 -->
<g id="edge3" class="edge">
<title>ASI&#45;&gt;ASIMet1</title>
<path fill="none" stroke="black" d="M774.64,-430.97C787.64,-418.26 805.24,-401.06 819.6,-387.02"/>
<polygon fill="black" stroke="black" points="822.07,-389.5 826.78,-380 817.18,-384.49 822.07,-389.5"/>
<text text-anchor="middle" x="816.2" y="-402.3" font-family="Times,serif" font-size="14.00">_J4</text>
</g>
<!-- ASIMet2 -->
<g id="node4" class="node">
<title>ASIMet2</title>
<g id="a_node4"><a xlink:href="#species-ASIMet2" xlink:title="ASIMet2&#10;[&#45;]">
<path fill="gold" stroke="black" d="M778.7,-380C778.7,-380 733.7,-380 733.7,-380 727.7,-380 721.7,-374 721.7,-368 721.7,-368 721.7,-354 721.7,-354 721.7,-348 727.7,-342 733.7,-342 733.7,-342 778.7,-342 778.7,-342 784.7,-342 790.7,-348 790.7,-354 790.7,-354 790.7,-368 790.7,-368 790.7,-374 784.7,-380 778.7,-380"/>
<text text-anchor="middle" x="756.2" y="-364.8" font-family="Arial" font-size="14.00">ASIMet2</text>
<text text-anchor="middle" x="756.2" y="-349.8" font-family="Arial" font-size="14.00">[&#45;]</text>
</a>
</g>
</g>
<!-- ASI&#45;&gt;ASIMet2 -->
<g id="edge4" class="edge">
<title>ASI&#45;&gt;ASIMet2</title>
<path fill="none" stroke="black" d="M756.2,-430.97C756.2,-419.19 756.2,-403.56 756.2,-390.16"/>
<polygon fill="black" stroke="black" points="759.7,-390 756.2,-380 752.7,-390 759.7,-390"/>
<text text-anchor="middle" x="767.2" y="-402.3" font-family="Times,serif" font-size="14.00">_J7</text>
</g>
<!-- ASI&#45;&gt;ALiver -->
<g id="edge5" class="edge">
<title>ASI&#45;&gt;ALiver</title>
<path fill="none" stroke="black" d="M735.43,-430.93C708.94,-407.48 662.25,-364.79 626.2,-324.5 597.11,-291.99 567.11,-251.45 548.56,-225.39"/>
<polygon fill="black" stroke="black" points="551.36,-223.28 542.73,-217.14 545.65,-227.33 551.36,-223.28"/>
<text text-anchor="middle" x="690.2" y="-357.3" font-family="Times,serif" font-size="14.00">_J2</text>
</g>
<!-- AFeces -->
<g id="node17" class="node">
<title>AFeces</title>
<g id="a_node17"><a xlink:href="#species-AFeces" xlink:title="AFeces&#10;[PBPKO:00273]">
<path fill="gold" stroke="black" d="M1236.7,-54C1236.7,-54 1147.7,-54 1147.7,-54 1141.7,-54 1135.7,-48 1135.7,-42 1135.7,-42 1135.7,-28 1135.7,-28 1135.7,-22 1141.7,-16 1147.7,-16 1147.7,-16 1236.7,-16 1236.7,-16 1242.7,-16 1248.7,-22 1248.7,-28 1248.7,-28 1248.7,-42 1248.7,-42 1248.7,-48 1242.7,-54 1236.7,-54"/>
<text text-anchor="middle" x="1192.2" y="-38.8" font-family="Arial" font-size="14.00">AFeces</text>
<text text-anchor="middle" x="1192.2" y="-23.8" font-family="Arial" font-size="14.00">[PBPKO:00273]</text>
</a>
</g>
</g>
<!-- ASI&#45;&gt;AFeces -->
<g id="edge6" class="edge">
<title>ASI&#45;&gt;AFeces</title>
<path fill="none" stroke="black" d="M783.42,-445.33C879.98,-431.71 1203.44,-380.69 1263.2,-301 1318.57,-227.15 1249.42,-113.26 1212.55,-62.26"/>
<polygon fill="black" stroke="black" points="1215.25,-60.03 1206.5,-54.06 1209.62,-64.19 1215.25,-60.03"/>
<text text-anchor="middle" x="1266.2" y="-313.3" font-family="Times,serif" font-size="14.00">_J3</text>
</g>
<!-- APlasmaMet1 -->
<g id="node11" class="node">
<title>APlasmaMet1</title>
<g id="a_node11"><a xlink:href="#species-APlasmaMet1" xlink:title="APlasmaMet1&#10;[PBPKO:00502]">
<path fill="gold" stroke="black" d="M804.7,-54C804.7,-54 715.7,-54 715.7,-54 709.7,-54 703.7,-48 703.7,-42 703.7,-42 703.7,-28 703.7,-28 703.7,-22 709.7,-16 715.7,-16 715.7,-16 804.7,-16 804.7,-16 810.7,-16 816.7,-22 816.7,-28 816.7,-28 816.7,-42 816.7,-42 816.7,-48 810.7,-54 804.7,-54"/>
<text text-anchor="middle" x="760.2" y="-38.8" font-family="Arial" font-size="14.00">APlasmaMet1</text>
<text text-anchor="middle" x="760.2" y="-23.8" font-family="Arial" font-size="14.00">[PBPKO:00502]</text>
</a>
</g>
</g>
<!-- ASIMet1&#45;&gt;APlasmaMet1 -->
<g id="edge7" class="edge">
<title>ASIMet1&#45;&gt;APlasmaMet1</title>
<path fill="none" stroke="black" d="M845.14,-341.75C844.06,-330.65 840.67,-317.17 831.2,-309.5 806.97,-289.89 712.56,-323.7 691.2,-301 651.6,-258.93 654.12,-215.31 691.2,-171 706.55,-152.65 727.71,-178.84 744.2,-161.5 768.62,-135.81 768.61,-92.64 765.26,-64.23"/>
<polygon fill="black" stroke="black" points="768.7,-63.56 763.86,-54.13 761.77,-64.52 768.7,-63.56"/>
<text text-anchor="middle" x="702.2" y="-194.3" font-family="Times,serif" font-size="14.00">_J5</text>
</g>
<!-- AGILumenMet1 -->
<g id="node15" class="node">
<title>AGILumenMet1</title>
<g id="a_node15"><a xlink:href="#species-AGILumenMet1" xlink:title="AGILumenMet1&#10;[&#45;]">
<path fill="gold" stroke="black" d="M1102.7,-217C1102.7,-217 1013.7,-217 1013.7,-217 1007.7,-217 1001.7,-211 1001.7,-205 1001.7,-205 1001.7,-191 1001.7,-191 1001.7,-185 1007.7,-179 1013.7,-179 1013.7,-179 1102.7,-179 1102.7,-179 1108.7,-179 1114.7,-185 1114.7,-191 1114.7,-191 1114.7,-205 1114.7,-205 1114.7,-211 1108.7,-217 1102.7,-217"/>
<text text-anchor="middle" x="1058.2" y="-201.8" font-family="Arial" font-size="14.00">AGILumenMet1</text>
<text text-anchor="middle" x="1058.2" y="-186.8" font-family="Arial" font-size="14.00">[&#45;]</text>
</a>
</g>
</g>
<!-- ASIMet1&#45;&gt;AGILumenMet1 -->
<g id="edge8" class="edge">
<title>ASIMet1&#45;&gt;AGILumenMet1</title>
<path fill="none" stroke="black" d="M879.83,-352.32C911.52,-343.93 958.32,-327.96 991.2,-301 1015.85,-280.78 1034.67,-249.08 1046,-226.39"/>
<polygon fill="black" stroke="black" points="1049.2,-227.8 1050.39,-217.28 1042.9,-224.77 1049.2,-227.8"/>
<text text-anchor="middle" x="988.2" y="-313.3" font-family="Times,serif" font-size="14.00">_J6</text>
</g>
<!-- APlasmaMet2 -->
<g id="node12" class="node">
<title>APlasmaMet2</title>
<g id="a_node12"><a xlink:href="#species-APlasmaMet2" xlink:title="APlasmaMet2&#10;[PBPKO:00502]">
<path fill="gold" stroke="black" d="M670.7,-54C670.7,-54 581.7,-54 581.7,-54 575.7,-54 569.7,-48 569.7,-42 569.7,-42 569.7,-28 569.7,-28 569.7,-22 575.7,-16 581.7,-16 581.7,-16 670.7,-16 670.7,-16 676.7,-16 682.7,-22 682.7,-28 682.7,-28 682.7,-42 682.7,-42 682.7,-48 676.7,-54 670.7,-54"/>
<text text-anchor="middle" x="626.2" y="-38.8" font-family="Arial" font-size="14.00">APlasmaMet2</text>
<text text-anchor="middle" x="626.2" y="-23.8" font-family="Arial" font-size="14.00">[PBPKO:00502]</text>
</a>
</g>
</g>
<!-- ASIMet2&#45;&gt;APlasmaMet2 -->
<g id="edge9" class="edge">
<title>ASIMet2&#45;&gt;APlasmaMet2</title>
<path fill="none" stroke="black" d="M721.58,-359.14C694.92,-356.5 659.34,-348.33 639.2,-324.5 606.62,-285.95 617.24,-129.56 623.27,-64.56"/>
<polygon fill="black" stroke="black" points="626.79,-64.52 624.26,-54.23 619.82,-63.85 626.79,-64.52"/>
<text text-anchor="middle" x="637.2" y="-194.3" font-family="Times,serif" font-size="14.00">_J8</text>
</g>
<!-- AGILumenMet2 -->
<g id="node16" class="node">
<title>AGILumenMet2</title>
<g id="a_node16"><a xlink:href="#species-AGILumenMet2" xlink:title="AGILumenMet2&#10;[&#45;]">
<path fill="gold" stroke="black" d="M969.7,-217C969.7,-217 880.7,-217 880.7,-217 874.7,-217 868.7,-211 868.7,-205 868.7,-205 868.7,-191 868.7,-191 868.7,-185 874.7,-179 880.7,-179 880.7,-179 969.7,-179 969.7,-179 975.7,-179 981.7,-185 981.7,-191 981.7,-191 981.7,-205 981.7,-205 981.7,-211 975.7,-217 969.7,-217"/>
<text text-anchor="middle" x="925.2" y="-201.8" font-family="Arial" font-size="14.00">AGILumenMet2</text>
<text text-anchor="middle" x="925.2" y="-186.8" font-family="Arial" font-size="14.00">[&#45;]</text>
</a>
</g>
</g>
<!-- ASIMet2&#45;&gt;AGILumenMet2 -->
<g id="edge10" class="edge">
<title>ASIMet2&#45;&gt;AGILumenMet2</title>
<path fill="none" stroke="black" d="M787.81,-341.85C814.28,-326.51 848.61,-306.22 854.2,-301 877.63,-279.07 897.8,-248.19 910.59,-226.16"/>
<polygon fill="black" stroke="black" points="913.72,-227.74 915.61,-217.31 907.63,-224.29 913.72,-227.74"/>
<text text-anchor="middle" x="851.2" y="-313.3" font-family="Times,serif" font-size="14.00">_J9</text>
</g>
<!-- APlasma -->
<g id="node10" class="node">
<title>APlasma</title>
<g id="a_node10"><a xlink:href="#species-APlasma" xlink:title="APlasma&#10;[PBPKO:00502]">
<path fill="gold" stroke="black" d="M536.7,-54C536.7,-54 447.7,-54 447.7,-54 441.7,-54 435.7,-48 435.7,-42 435.7,-42 435.7,-28 435.7,-28 435.7,-22 441.7,-16 447.7,-16 447.7,-16 536.7,-16 536.7,-16 542.7,-16 548.7,-22 548.7,-28 548.7,-28 548.7,-42 548.7,-42 548.7,-48 542.7,-54 536.7,-54"/>
<text text-anchor="middle" x="492.2" y="-38.8" font-family="Arial" font-size="14.00">APlasma</text>
<text text-anchor="middle" x="492.2" y="-23.8" font-family="Arial" font-size="14.00">[PBPKO:00502]</text>
</a>
</g>
</g>
<!-- ALiver&#45;&gt;APlasma -->
<g id="edge11" class="edge">
<title>ALiver&#45;&gt;APlasma</title>
<path fill="none" stroke="black" d="M486.64,-178.83C480.06,-174.16 474.15,-168.44 470.2,-161.5 452.82,-131.04 465.4,-90.18 477.5,-63.48"/>
<polygon fill="black" stroke="black" points="480.72,-64.86 481.88,-54.33 474.41,-61.84 480.72,-64.86"/>
<text text-anchor="middle" x="485.7" y="-150.3" font-family="Times,serif" font-size="14.00">_J15</text>
</g>
<!-- ALiver&#45;&gt;APlasmaMet1 -->
<g id="edge12" class="edge">
<title>ALiver&#45;&gt;APlasmaMet1</title>
<path fill="none" stroke="black" d="M575.66,-178.95C584.67,-175.9 594.15,-173.06 603.2,-171 622.59,-166.58 675.67,-172.57 692.2,-161.5 726.08,-138.8 744.5,-93.41 753.34,-63.89"/>
<polygon fill="black" stroke="black" points="756.73,-64.75 756.07,-54.17 750,-62.85 756.73,-64.75"/>
<text text-anchor="middle" x="724.7" y="-150.3" font-family="Times,serif" font-size="14.00">_J10</text>
</g>
<!-- ALiver&#45;&gt;APlasmaMet2 -->
<g id="edge13" class="edge">
<title>ALiver&#45;&gt;APlasmaMet2</title>
<path fill="none" stroke="black" d="M544.13,-178.88C548.17,-173.39 552.48,-167.29 556.2,-161.5 577.22,-128.73 598.63,-89.27 612.13,-63.46"/>
<polygon fill="black" stroke="black" points="615.4,-64.77 616.91,-54.28 609.19,-61.54 615.4,-64.77"/>
<text text-anchor="middle" x="579.7" y="-150.3" font-family="Times,serif" font-size="14.00">_J12</text>
</g>
<!-- ALiver&#45;&gt;AGILumenMet1 -->
<g id="edge14" class="edge">
<title>ALiver&#45;&gt;AGILumenMet1</title>
<path fill="none" stroke="black" d="M538.47,-217.17C549.49,-239.96 571.38,-276.87 603.2,-292.5 680.59,-330.51 914.6,-332.09 991.2,-292.5 1017.81,-278.75 1036.14,-249 1046.81,-226.54"/>
<polygon fill="black" stroke="black" points="1050.14,-227.67 1051.05,-217.11 1043.75,-224.8 1050.14,-227.67"/>
<text text-anchor="middle" x="730.2" y="-313.3" font-family="Times,serif" font-size="14.00">_J11</text>
</g>
<!-- ALiver&#45;&gt;AGILumenMet2 -->
<g id="edge15" class="edge">
<title>ALiver&#45;&gt;AGILumenMet2</title>
<path fill="none" stroke="black" d="M538.47,-217.17C549.49,-239.96 571.38,-276.87 603.2,-292.5 653.26,-317.09 804.3,-317.42 854.2,-292.5 881.66,-278.78 901.28,-248.82 912.84,-226.28"/>
<polygon fill="black" stroke="black" points="916.05,-227.67 917.29,-217.15 909.76,-224.6 916.05,-227.67"/>
<text text-anchor="middle" x="694.2" y="-313.3" font-family="Times,serif" font-size="14.00">_J13</text>
</g>
<!-- ALiverMet1 -->
<g id="node6" class="node">
<title>ALiverMet1</title>
<g id="a_node6"><a xlink:href="#species-ALiverMet1" xlink:title="ALiverMet1&#10;[PBPKO:00497]">
<path fill="gold" stroke="black" d="M440.7,-217C440.7,-217 351.7,-217 351.7,-217 345.7,-217 339.7,-211 339.7,-205 339.7,-205 339.7,-191 339.7,-191 339.7,-185 345.7,-179 351.7,-179 351.7,-179 440.7,-179 440.7,-179 446.7,-179 452.7,-185 452.7,-191 452.7,-191 452.7,-205 452.7,-205 452.7,-211 446.7,-217 440.7,-217"/>
<text text-anchor="middle" x="396.2" y="-201.8" font-family="Arial" font-size="14.00">ALiverMet1</text>
<text text-anchor="middle" x="396.2" y="-186.8" font-family="Arial" font-size="14.00">[PBPKO:00497]</text>
</a>
</g>
</g>
<!-- ALiverMet2 -->
<g id="node7" class="node">
<title>ALiverMet2</title>
<g id="a_node7"><a xlink:href="#species-ALiverMet2" xlink:title="ALiverMet2&#10;[PBPKO:00497]">
<path fill="gold" stroke="black" d="M306.7,-217C306.7,-217 217.7,-217 217.7,-217 211.7,-217 205.7,-211 205.7,-205 205.7,-205 205.7,-191 205.7,-191 205.7,-185 211.7,-179 217.7,-179 217.7,-179 306.7,-179 306.7,-179 312.7,-179 318.7,-185 318.7,-191 318.7,-191 318.7,-205 318.7,-205 318.7,-211 312.7,-217 306.7,-217"/>
<text text-anchor="middle" x="262.2" y="-201.8" font-family="Arial" font-size="14.00">ALiverMet2</text>
<text text-anchor="middle" x="262.2" y="-186.8" font-family="Arial" font-size="14.00">[PBPKO:00497]</text>
</a>
</g>
</g>
<!-- APVMet1 -->
<g id="node8" class="node">
<title>APVMet1</title>
<g id="a_node8"><a xlink:href="#species-APVMet1" xlink:title="APVMet1&#10;[&#45;]">
<path fill="gold" stroke="black" d="M173.2,-217C173.2,-217 123.2,-217 123.2,-217 117.2,-217 111.2,-211 111.2,-205 111.2,-205 111.2,-191 111.2,-191 111.2,-185 117.2,-179 123.2,-179 123.2,-179 173.2,-179 173.2,-179 179.2,-179 185.2,-185 185.2,-191 185.2,-191 185.2,-205 185.2,-205 185.2,-211 179.2,-217 173.2,-217"/>
<text text-anchor="middle" x="148.2" y="-201.8" font-family="Arial" font-size="14.00">APVMet1</text>
<text text-anchor="middle" x="148.2" y="-186.8" font-family="Arial" font-size="14.00">[&#45;]</text>
</a>
</g>
</g>
<!-- APVMet2 -->
<g id="node9" class="node">
<title>APVMet2</title>
<g id="a_node9"><a xlink:href="#species-APVMet2" xlink:title="APVMet2&#10;[&#45;]">
<path fill="gold" stroke="black" d="M79.2,-217C79.2,-217 29.2,-217 29.2,-217 23.2,-217 17.2,-211 17.2,-205 17.2,-205 17.2,-191 17.2,-191 17.2,-185 23.2,-179 29.2,-179 29.2,-179 79.2,-179 79.2,-179 85.2,-179 91.2,-185 91.2,-191 91.2,-191 91.2,-205 91.2,-205 91.2,-211 85.2,-217 79.2,-217"/>
<text text-anchor="middle" x="54.2" y="-201.8" font-family="Arial" font-size="14.00">APVMet2</text>
<text text-anchor="middle" x="54.2" y="-186.8" font-family="Arial" font-size="14.00">[&#45;]</text>
</a>
</g>
</g>
<!-- APlasma&#45;&gt;ALiver -->
<g id="edge16" class="edge">
<title>APlasma&#45;&gt;ALiver</title>
<path fill="none" stroke="black" d="M470.95,-54.2C443.75,-79.7 403.1,-126.83 429.2,-161.5 438.37,-173.69 447.72,-166.16 462.2,-171 466.42,-172.41 470.78,-173.93 475.14,-175.5"/>
<polygon fill="black" stroke="black" points="474.07,-178.83 484.67,-178.98 476.48,-172.26 474.07,-178.83"/>
<text text-anchor="middle" x="444.7" y="-150.3" font-family="Times,serif" font-size="14.00">_J14</text>
</g>
<!-- ARest -->
<g id="node13" class="node">
<title>ARest</title>
<g id="a_node13"><a xlink:href="#species-ARest" xlink:title="ARest&#10;[PBPKO:00501]">
<path fill="gold" stroke="black" d="M828.7,-217C828.7,-217 739.7,-217 739.7,-217 733.7,-217 727.7,-211 727.7,-205 727.7,-205 727.7,-191 727.7,-191 727.7,-185 733.7,-179 739.7,-179 739.7,-179 828.7,-179 828.7,-179 834.7,-179 840.7,-185 840.7,-191 840.7,-191 840.7,-205 840.7,-205 840.7,-211 834.7,-217 828.7,-217"/>
<text text-anchor="middle" x="784.2" y="-201.8" font-family="Arial" font-size="14.00">ARest</text>
<text text-anchor="middle" x="784.2" y="-186.8" font-family="Arial" font-size="14.00">[PBPKO:00501]</text>
</a>
</g>
</g>
<!-- APlasma&#45;&gt;ARest -->
<g id="edge17" class="edge">
<title>APlasma&#45;&gt;ARest</title>
<path fill="none" stroke="black" d="M499.44,-54.24C509.62,-77.46 530.45,-117.05 561.2,-138 575.5,-147.74 582.37,-142.44 599.2,-146.5 625.08,-152.74 631.18,-155.81 657.2,-161.5 680.57,-166.61 687.05,-164.9 710.2,-171 715.55,-172.41 721.06,-174.03 726.55,-175.75"/>
<polygon fill="black" stroke="black" points="725.79,-179.18 736.38,-178.94 727.95,-172.52 725.79,-179.18"/>
<text text-anchor="middle" x="672.7" y="-150.3" font-family="Times,serif" font-size="14.00">_J16</text>
</g>
<!-- ARest&#45;&gt;APlasma -->
<g id="edge18" class="edge">
<title>ARest&#45;&gt;APlasma</title>
<path fill="none" stroke="black" d="M739.37,-178.94C729.88,-175.77 719.82,-172.89 710.2,-171 689.56,-166.95 537.32,-175 521.2,-161.5 493.25,-138.1 489.13,-93.63 489.83,-64.4"/>
<polygon fill="black" stroke="black" points="493.33,-64.53 490.27,-54.39 486.33,-64.22 493.33,-64.53"/>
<text text-anchor="middle" x="536.7" y="-150.3" font-family="Times,serif" font-size="14.00">_J17</text>
</g>
<!-- AGILumen -->
<g id="node14" class="node">
<title>AGILumen</title>
<g id="a_node14"><a xlink:href="#species-AGILumen" xlink:title="AGILumen&#10;[PBPKO:00496]">
<path fill="gold" stroke="black" d="M1236.7,-217C1236.7,-217 1147.7,-217 1147.7,-217 1141.7,-217 1135.7,-211 1135.7,-205 1135.7,-205 1135.7,-191 1135.7,-191 1135.7,-185 1141.7,-179 1147.7,-179 1147.7,-179 1236.7,-179 1236.7,-179 1242.7,-179 1248.7,-185 1248.7,-191 1248.7,-191 1248.7,-205 1248.7,-205 1248.7,-211 1242.7,-217 1236.7,-217"/>
<text text-anchor="middle" x="1192.2" y="-201.8" font-family="Arial" font-size="14.00">AGILumen</text>
<text text-anchor="middle" x="1192.2" y="-186.8" font-family="Arial" font-size="14.00">[PBPKO:00496]</text>
</a>
</g>
</g>
<!-- AGILumenMet1&#45;&gt;ALiver -->
<g id="edge19" class="edge">
<title>AGILumenMet1&#45;&gt;ALiver</title>
<path fill="none" stroke="black" d="M1051.05,-217.11C1041.38,-239.85 1021.75,-276.71 991.2,-292.5 914.6,-332.09 680.59,-330.51 603.2,-292.5 575.35,-278.83 555.12,-248.85 543.11,-226.31"/>
<polygon fill="black" stroke="black" points="546.12,-224.5 538.47,-217.17 539.88,-227.67 546.12,-224.5"/>
<text text-anchor="middle" x="767.2" y="-313.3" font-family="Times,serif" font-size="14.00">_J20</text>
</g>
<!-- AGILumenMet1&#45;&gt;APlasmaMet1 -->
<g id="edge20" class="edge">
<title>AGILumenMet1&#45;&gt;APlasmaMet1</title>
<path fill="none" stroke="black" d="M1030.28,-178.82C1011.32,-167.45 985.23,-153.64 960.2,-146.5 937.47,-140.02 875.44,-148.34 854.2,-138 820.26,-121.48 792.64,-86.95 776.32,-62.66"/>
<polygon fill="black" stroke="black" points="779.22,-60.69 770.83,-54.22 773.36,-64.51 779.22,-60.69"/>
<text text-anchor="middle" x="1011.7" y="-150.3" font-family="Times,serif" font-size="14.00">_J18</text>
</g>
<!-- AFecesMet1 -->
<g id="node18" class="node">
<title>AFecesMet1</title>
<g id="a_node18"><a xlink:href="#species-AFecesMet1" xlink:title="AFecesMet1&#10;[PBPKO:00273]">
<path fill="gold" stroke="black" d="M1102.7,-54C1102.7,-54 1013.7,-54 1013.7,-54 1007.7,-54 1001.7,-48 1001.7,-42 1001.7,-42 1001.7,-28 1001.7,-28 1001.7,-22 1007.7,-16 1013.7,-16 1013.7,-16 1102.7,-16 1102.7,-16 1108.7,-16 1114.7,-22 1114.7,-28 1114.7,-28 1114.7,-42 1114.7,-42 1114.7,-48 1108.7,-54 1102.7,-54"/>
<text text-anchor="middle" x="1058.2" y="-38.8" font-family="Arial" font-size="14.00">AFecesMet1</text>
<text text-anchor="middle" x="1058.2" y="-23.8" font-family="Arial" font-size="14.00">[PBPKO:00273]</text>
</a>
</g>
</g>
<!-- AGILumenMet1&#45;&gt;AFecesMet1 -->
<g id="edge21" class="edge">
<title>AGILumenMet1&#45;&gt;AFecesMet1</title>
<path fill="none" stroke="black" d="M1058.2,-178.84C1058.2,-151.06 1058.2,-97.76 1058.2,-64.7"/>
<polygon fill="black" stroke="black" points="1061.7,-64.34 1058.2,-54.34 1054.7,-64.34 1061.7,-64.34"/>
<text text-anchor="middle" x="1073.7" y="-150.3" font-family="Times,serif" font-size="14.00">_J19</text>
</g>
<!-- AGILumenMet2&#45;&gt;ALiver -->
<g id="edge22" class="edge">
<title>AGILumenMet2&#45;&gt;ALiver</title>
<path fill="none" stroke="black" d="M917.29,-217.15C906.72,-239.92 885.59,-276.82 854.2,-292.5 804.3,-317.42 653.26,-317.09 603.2,-292.5 575.35,-278.83 555.12,-248.85 543.11,-226.31"/>
<polygon fill="black" stroke="black" points="546.12,-224.5 538.47,-217.17 539.88,-227.67 546.12,-224.5"/>
<text text-anchor="middle" x="657.2" y="-313.3" font-family="Times,serif" font-size="14.00">_J23</text>
</g>
<!-- AGILumenMet2&#45;&gt;APlasmaMet2 -->
<g id="edge23" class="edge">
<title>AGILumenMet2&#45;&gt;APlasmaMet2</title>
<path fill="none" stroke="black" d="M878.51,-178.91C870.46,-176.08 862.13,-173.33 854.2,-171 806.13,-156.91 793.33,-156.23 744.2,-146.5 722.51,-142.21 713.76,-150 695.2,-138 667.58,-120.15 648.24,-86.93 637.2,-63.25"/>
<polygon fill="black" stroke="black" points="640.38,-61.78 633.11,-54.07 633.99,-64.63 640.38,-61.78"/>
<text text-anchor="middle" x="833.7" y="-150.3" font-family="Times,serif" font-size="14.00">_J21</text>
</g>
<!-- AFecesMet2 -->
<g id="node19" class="node">
<title>AFecesMet2</title>
<g id="a_node19"><a xlink:href="#species-AFecesMet2" xlink:title="AFecesMet2&#10;[PBPKO:00273]">
<path fill="gold" stroke="black" d="M969.7,-54C969.7,-54 880.7,-54 880.7,-54 874.7,-54 868.7,-48 868.7,-42 868.7,-42 868.7,-28 868.7,-28 868.7,-22 874.7,-16 880.7,-16 880.7,-16 969.7,-16 969.7,-16 975.7,-16 981.7,-22 981.7,-28 981.7,-28 981.7,-42 981.7,-42 981.7,-48 975.7,-54 969.7,-54"/>
<text text-anchor="middle" x="925.2" y="-38.8" font-family="Arial" font-size="14.00">AFecesMet2</text>
<text text-anchor="middle" x="925.2" y="-23.8" font-family="Arial" font-size="14.00">[PBPKO:00273]</text>
</a>
</g>
</g>
<!-- AGILumenMet2&#45;&gt;AFecesMet2 -->
<g id="edge24" class="edge">
<title>AGILumenMet2&#45;&gt;AFecesMet2</title>
<path fill="none" stroke="black" d="M925.2,-178.84C925.2,-151.06 925.2,-97.76 925.2,-64.7"/>
<polygon fill="black" stroke="black" points="928.7,-64.34 925.2,-54.34 921.7,-64.34 928.7,-64.34"/>
<text text-anchor="middle" x="940.7" y="-150.3" font-family="Times,serif" font-size="14.00">_J22</text>
</g>
</g>
</svg>
