<?xml version="1.0" encoding="UTF-8" standalone="no"?>
<!DOCTYPE svg PUBLIC "-//W3C//DTD SVG 1.1//EN"
 "http://www.w3.org/Graphics/SVG/1.1/DTD/svg11.dtd">
<!-- Generated by graphviz version 2.43.0 (0)
 -->
<!-- Title: %3 Pages: 1 -->
<svg width="501pt" height="288pt"
 viewBox="0.00 0.00 501.19 288.00" xmlns="http://www.w3.org/2000/svg" xmlns:xlink="http://www.w3.org/1999/xlink">
<g id="graph0" class="graph" transform="scale(0.47 0.47) rotate(0) translate(4 612)">
<title>%3</title>
<polygon fill="white" stroke="transparent" points="-4,4 -4,-612 1068,-612 1068,4 -4,4"/>
<g id="clust1" class="cluster">
<title>cluster_GI</title>
<g id="a_clust1"><a xlink:href="#compartment-GI" xlink:title="GI&#10;[&#45;]">
<path fill="lightblue" stroke="black" d="M243.96,-508C243.96,-508 396.45,-508 396.45,-508 402.45,-508 408.45,-514 408.45,-520 408.45,-520 408.45,-588 408.45,-588 408.45,-594 402.45,-600 396.45,-600 396.45,-600 243.96,-600 243.96,-600 237.96,-600 231.96,-594 231.96,-588 231.96,-588 231.96,-520 231.96,-520 231.96,-514 237.96,-508 243.96,-508"/>
<text text-anchor="middle" x="320.21" y="-584.8" font-family="Arial" font-size="14.00">GI</text>
<text text-anchor="middle" x="320.21" y="-569.8" font-family="Arial" font-size="14.00">[&#45;]</text>
</a>
</g>
</g>
<g id="clust2" class="cluster">
<title>cluster_Intestinal_Tissue</title>
<g id="a_clust2"><a xlink:href="#compartment-Intestinal_Tissue" xlink:title="Intestinal_Tissue&#10;[&#45;]">
<path fill="lightblue" stroke="black" d="M188.49,-383C188.49,-383 462.01,-383 462.01,-383 468.01,-383 474.01,-389 474.01,-395 474.01,-395 474.01,-463 474.01,-463 474.01,-469 468.01,-475 462.01,-475 462.01,-475 188.49,-475 188.49,-475 182.49,-475 176.49,-469 176.49,-463 176.49,-463 176.49,-395 176.49,-395 176.49,-389 182.49,-383 188.49,-383"/>
<text text-anchor="middle" x="325.25" y="-459.8" font-family="Arial" font-size="14.00">Intestinal_Tissue</text>
<text text-anchor="middle" x="325.25" y="-444.8" font-family="Arial" font-size="14.00">[&#45;]</text>
</a>
</g>
</g>
<g id="clust3" class="cluster">
<title>cluster_Liver</title>
<g id="a_clust3"><a xlink:href="#compartment-Liver" xlink:title="Liver&#10;[PBPKO:00558]">
<path fill="lightblue" stroke="black" d="M506.18,-258C506.18,-258 809.95,-258 809.95,-258 815.95,-258 821.95,-264 821.95,-270 821.95,-270 821.95,-338 821.95,-338 821.95,-344 815.95,-350 809.95,-350 809.95,-350 506.18,-350 506.18,-350 500.18,-350 494.18,-344 494.18,-338 494.18,-338 494.18,-270 494.18,-270 494.18,-264 500.18,-258 506.18,-258"/>
<text text-anchor="middle" x="658.07" y="-334.8" font-family="Arial" font-size="14.00">Liver</text>
<text text-anchor="middle" x="658.07" y="-319.8" font-family="Arial" font-size="14.00">[PBPKO:00558]</text>
</a>
</g>
</g>
<g id="clust4" class="cluster">
<title>cluster_Kidney</title>
<g id="a_clust4"><a xlink:href="#compartment-Kidney" xlink:title="Kidney&#10;[PBPKO:00557]">
<path fill="lightblue" stroke="black" d="M32.17,-8C32.17,-8 335.94,-8 335.94,-8 341.94,-8 347.94,-14 347.94,-20 347.94,-20 347.94,-88 347.94,-88 347.94,-94 341.94,-100 335.94,-100 335.94,-100 32.17,-100 32.17,-100 26.17,-100 20.17,-94 20.17,-88 20.17,-88 20.17,-20 20.17,-20 20.17,-14 26.17,-8 32.17,-8"/>
<text text-anchor="middle" x="184.06" y="-84.8" font-family="Arial" font-size="14.00">Kidney</text>
<text text-anchor="middle" x="184.06" y="-69.8" font-family="Arial" font-size="14.00">[PBPKO:00557]</text>
</a>
</g>
</g>
<g id="clust5" class="cluster">
<title>cluster_Plasma</title>
<g id="a_clust5"><a xlink:href="#compartment-Plasma" xlink:title="Plasma&#10;[PBPKO:00488]">
<path fill="lightblue" stroke="black" d="M518.79,-133C518.79,-133 822.56,-133 822.56,-133 828.56,-133 834.56,-139 834.56,-145 834.56,-145 834.56,-213 834.56,-213 834.56,-219 828.56,-225 822.56,-225 822.56,-225 518.79,-225 518.79,-225 512.79,-225 506.79,-219 506.79,-213 506.79,-213 506.79,-145 506.79,-145 506.79,-139 512.79,-133 518.79,-133"/>
<text text-anchor="middle" x="670.67" y="-209.8" font-family="Arial" font-size="14.00">Plasma</text>
<text text-anchor="middle" x="670.67" y="-194.8" font-family="Arial" font-size="14.00">[PBPKO:00488]</text>
</a>
</g>
</g>
<g id="clust6" class="cluster">
<title>cluster_Red_Blood_Cell</title>
<g id="a_clust6"><a xlink:href="#compartment-Red_Blood_Cell" xlink:title="Red_Blood_Cell&#10;[PBPKO:00634]">
<path fill="lightblue" stroke="black" d="M380.11,-8C380.11,-8 683.89,-8 683.89,-8 689.89,-8 695.89,-14 695.89,-20 695.89,-20 695.89,-88 695.89,-88 695.89,-94 689.89,-100 683.89,-100 683.89,-100 380.11,-100 380.11,-100 374.11,-100 368.11,-94 368.11,-88 368.11,-88 368.11,-20 368.11,-20 368.11,-14 374.11,-8 380.11,-8"/>
<text text-anchor="middle" x="532" y="-84.8" font-family="Arial" font-size="14.00">Red_Blood_Cell</text>
<text text-anchor="middle" x="532" y="-69.8" font-family="Arial" font-size="14.00">[PBPKO:00634]</text>
</a>
</g>
</g>
<g id="clust7" class="cluster">
<title>cluster_Metallothionein</title>
<g id="a_clust7"><a xlink:href="#compartment-Metallothionein" xlink:title="Metallothionein&#10;[PBPKO:00552]">
<path fill="lightblue" stroke="black" d="M160.76,-133C160.76,-133 474.62,-133 474.62,-133 480.62,-133 486.62,-139 486.62,-145 486.62,-145 486.62,-213 486.62,-213 486.62,-219 480.62,-225 474.62,-225 474.62,-225 160.76,-225 160.76,-225 154.76,-225 148.76,-219 148.76,-213 148.76,-213 148.76,-145 148.76,-145 148.76,-139 154.76,-133 160.76,-133"/>
<text text-anchor="middle" x="317.69" y="-209.8" font-family="Arial" font-size="14.00">Metallothionein</text>
<text text-anchor="middle" x="317.69" y="-194.8" font-family="Arial" font-size="14.00">[PBPKO:00552]</text>
</a>
</g>
</g>
<g id="clust8" class="cluster">
<title>cluster_Rest</title>
<g id="a_clust8"><a xlink:href="#compartment-Rest" xlink:title="Rest&#10;[PBPKO:00450]">
<path fill="lightblue" stroke="black" d="M728.06,-8C728.06,-8 1031.83,-8 1031.83,-8 1037.83,-8 1043.83,-14 1043.83,-20 1043.83,-20 1043.83,-88 1043.83,-88 1043.83,-94 1037.83,-100 1031.83,-100 1031.83,-100 728.06,-100 728.06,-100 722.06,-100 716.06,-94 716.06,-88 716.06,-88 716.06,-20 716.06,-20 716.06,-14 722.06,-8 728.06,-8"/>
<text text-anchor="middle" x="879.94" y="-84.8" font-family="Arial" font-size="14.00">Rest</text>
<text text-anchor="middle" x="879.94" y="-69.8" font-family="Arial" font-size="14.00">[PBPKO:00450]</text>
</a>
</g>
</g>
<g id="clust9" class="cluster">
<title>cluster_Daily_Uptake</title>
<g id="a_clust9"><a xlink:href="#compartment-Daily_Uptake" xlink:title="Daily_Uptake&#10;[&#45;]">
<path fill="lightblue" stroke="black" d="M178.41,-258C178.41,-258 462.01,-258 462.01,-258 468.01,-258 474.01,-264 474.01,-270 474.01,-270 474.01,-338 474.01,-338 474.01,-344 468.01,-350 462.01,-350 462.01,-350 178.41,-350 178.41,-350 172.41,-350 166.41,-344 166.41,-338 166.41,-338 166.41,-270 166.41,-270 166.41,-264 172.41,-258 178.41,-258"/>
<text text-anchor="middle" x="320.21" y="-334.8" font-family="Arial" font-size="14.00">Daily_Uptake</text>
<text text-anchor="middle" x="320.21" y="-319.8" font-family="Arial" font-size="14.00">[&#45;]</text>
</a>
</g>
</g>
<!-- AGI -->
<g id="node1" class="node">
<title>AGI</title>
<g id="a_node1"><a xlink:href="#species-AGI" xlink:title="AGI&#10;[&#45;]">
<path fill="gold" stroke="black" d="M335.18,-554C335.18,-554 305.18,-554 305.18,-554 299.18,-554 293.18,-548 293.18,-542 293.18,-542 293.18,-528 293.18,-528 293.18,-522 299.18,-516 305.18,-516 305.18,-516 335.18,-516 335.18,-516 341.18,-516 347.18,-522 347.18,-528 347.18,-528 347.18,-542 347.18,-542 347.18,-548 341.18,-554 335.18,-554"/>
<text text-anchor="middle" x="320.18" y="-538.8" font-family="Arial" font-size="14.00">AGI</text>
<text text-anchor="middle" x="320.18" y="-523.8" font-family="Arial" font-size="14.00">[&#45;]</text>
</a>
</g>
</g>
<!-- ATI -->
<g id="node2" class="node">
<title>ATI</title>
<g id="a_node2"><a xlink:href="#species-ATI" xlink:title="ATI&#10;[&#45;]">
<path fill="gold" stroke="black" d="M335.18,-429C335.18,-429 305.18,-429 305.18,-429 299.18,-429 293.18,-423 293.18,-417 293.18,-417 293.18,-403 293.18,-403 293.18,-397 299.18,-391 305.18,-391 305.18,-391 335.18,-391 335.18,-391 341.18,-391 347.18,-397 347.18,-403 347.18,-403 347.18,-417 347.18,-417 347.18,-423 341.18,-429 335.18,-429"/>
<text text-anchor="middle" x="320.18" y="-413.8" font-family="Arial" font-size="14.00">ATI</text>
<text text-anchor="middle" x="320.18" y="-398.8" font-family="Arial" font-size="14.00">[&#45;]</text>
</a>
</g>
</g>
<!-- AGI&#45;&gt;ATI -->
<g id="edge1" class="edge">
<title>AGI&#45;&gt;ATI</title>
<path fill="none" stroke="black" d="M320.18,-515.85C320.18,-495.68 320.18,-462.86 320.18,-439.31"/>
<polygon fill="black" stroke="black" points="323.68,-439.22 320.18,-429.22 316.68,-439.22 323.68,-439.22"/>
<text text-anchor="middle" x="331.18" y="-487.3" font-family="Times,serif" font-size="14.00">_J0</text>
</g>
<!-- ADaily_Uptake -->
<g id="node9" class="node">
<title>ADaily_Uptake</title>
<g id="a_node9"><a xlink:href="#species-ADaily_Uptake" xlink:title="ADaily_Uptake&#10;[&#45;]">
<path fill="gold" stroke="black" d="M361.18,-304C361.18,-304 279.18,-304 279.18,-304 273.18,-304 267.18,-298 267.18,-292 267.18,-292 267.18,-278 267.18,-278 267.18,-272 273.18,-266 279.18,-266 279.18,-266 361.18,-266 361.18,-266 367.18,-266 373.18,-272 373.18,-278 373.18,-278 373.18,-292 373.18,-292 373.18,-298 367.18,-304 361.18,-304"/>
<text text-anchor="middle" x="320.18" y="-288.8" font-family="Arial" font-size="14.00">ADaily_Uptake</text>
<text text-anchor="middle" x="320.18" y="-273.8" font-family="Arial" font-size="14.00">[&#45;]</text>
</a>
</g>
</g>
<!-- ATI&#45;&gt;ADaily_Uptake -->
<g id="edge2" class="edge">
<title>ATI&#45;&gt;ADaily_Uptake</title>
<path fill="none" stroke="black" d="M320.18,-390.85C320.18,-370.68 320.18,-337.86 320.18,-314.31"/>
<polygon fill="black" stroke="black" points="323.68,-314.22 320.18,-304.22 316.68,-314.22 323.68,-314.22"/>
<text text-anchor="middle" x="331.18" y="-362.3" font-family="Times,serif" font-size="14.00">_J1</text>
</g>
<!-- ALiver -->
<g id="node3" class="node">
<title>ALiver</title>
<g id="a_node3"><a xlink:href="#species-ALiver" xlink:title="ALiver&#10;[PBPKO:00497]">
<path fill="gold" stroke="black" d="M702.68,-304C702.68,-304 613.68,-304 613.68,-304 607.68,-304 601.68,-298 601.68,-292 601.68,-292 601.68,-278 601.68,-278 601.68,-272 607.68,-266 613.68,-266 613.68,-266 702.68,-266 702.68,-266 708.68,-266 714.68,-272 714.68,-278 714.68,-278 714.68,-292 714.68,-292 714.68,-298 708.68,-304 702.68,-304"/>
<text text-anchor="middle" x="658.18" y="-288.8" font-family="Arial" font-size="14.00">ALiver</text>
<text text-anchor="middle" x="658.18" y="-273.8" font-family="Arial" font-size="14.00">[PBPKO:00497]</text>
</a>
</g>
</g>
<!-- APlasma -->
<g id="node5" class="node">
<title>APlasma</title>
<g id="a_node5"><a xlink:href="#species-APlasma" xlink:title="APlasma&#10;[PBPKO:00502]">
<path fill="gold" stroke="black" d="M714.68,-179C714.68,-179 625.68,-179 625.68,-179 619.68,-179 613.68,-173 613.68,-167 613.68,-167 613.68,-153 613.68,-153 613.68,-147 619.68,-141 625.68,-141 625.68,-141 714.68,-141 714.68,-141 720.68,-141 726.68,-147 726.68,-153 726.68,-153 726.68,-167 726.68,-167 726.68,-173 720.68,-179 714.68,-179"/>
<text text-anchor="middle" x="670.18" y="-163.8" font-family="Arial" font-size="14.00">APlasma</text>
<text text-anchor="middle" x="670.18" y="-148.8" font-family="Arial" font-size="14.00">[PBPKO:00502]</text>
</a>
</g>
</g>
<!-- ALiver&#45;&gt;APlasma -->
<g id="edge3" class="edge">
<title>ALiver&#45;&gt;APlasma</title>
<path fill="none" stroke="black" d="M659.95,-265.85C661.91,-245.68 665.12,-212.86 667.41,-189.31"/>
<polygon fill="black" stroke="black" points="670.91,-189.52 668.4,-179.22 663.94,-188.84 670.91,-189.52"/>
<text text-anchor="middle" x="674.18" y="-237.3" font-family="Times,serif" font-size="14.00">_J7</text>
</g>
<!-- AMetallothionein -->
<g id="node7" class="node">
<title>AMetallothionein</title>
<g id="a_node7"><a xlink:href="#species-AMetallothionein" xlink:title="AMetallothionein&#10;[PBPKO:00623]">
<path fill="gold" stroke="black" d="M364.68,-179C364.68,-179 271.68,-179 271.68,-179 265.68,-179 259.68,-173 259.68,-167 259.68,-167 259.68,-153 259.68,-153 259.68,-147 265.68,-141 271.68,-141 271.68,-141 364.68,-141 364.68,-141 370.68,-141 376.68,-147 376.68,-153 376.68,-153 376.68,-167 376.68,-167 376.68,-173 370.68,-179 364.68,-179"/>
<text text-anchor="middle" x="318.18" y="-163.8" font-family="Arial" font-size="14.00">AMetallothionein</text>
<text text-anchor="middle" x="318.18" y="-148.8" font-family="Arial" font-size="14.00">[PBPKO:00623]</text>
</a>
</g>
</g>
<!-- ALiver&#45;&gt;AMetallothionein -->
<g id="edge4" class="edge">
<title>ALiver&#45;&gt;AMetallothionein</title>
<path fill="none" stroke="black" d="M608.37,-265.98C547.14,-243.83 443.32,-206.27 377.88,-182.6"/>
<polygon fill="black" stroke="black" points="378.71,-179.18 368.11,-179.07 376.32,-185.76 378.71,-179.18"/>
<text text-anchor="middle" x="569.18" y="-237.3" font-family="Times,serif" font-size="14.00">_J8</text>
</g>
<!-- AKidney -->
<g id="node4" class="node">
<title>AKidney</title>
<g id="a_node4"><a xlink:href="#species-AKidney" xlink:title="AKidney&#10;[PBPKO:00498]">
<path fill="gold" stroke="black" d="M228.68,-54C228.68,-54 139.68,-54 139.68,-54 133.68,-54 127.68,-48 127.68,-42 127.68,-42 127.68,-28 127.68,-28 127.68,-22 133.68,-16 139.68,-16 139.68,-16 228.68,-16 228.68,-16 234.68,-16 240.68,-22 240.68,-28 240.68,-28 240.68,-42 240.68,-42 240.68,-48 234.68,-54 228.68,-54"/>
<text text-anchor="middle" x="184.18" y="-38.8" font-family="Arial" font-size="14.00">AKidney</text>
<text text-anchor="middle" x="184.18" y="-23.8" font-family="Arial" font-size="14.00">[PBPKO:00498]</text>
</a>
</g>
</g>
<!-- AKidney&#45;&gt;APlasma -->
<g id="edge5" class="edge">
<title>AKidney&#45;&gt;APlasma</title>
<path fill="none" stroke="black" d="M226.66,-54.07C262.65,-68.65 315.93,-88.55 364.18,-100 393.81,-107.03 402.14,-103.45 432.18,-108.5 490.31,-118.28 555.8,-132.41 603.34,-143.24"/>
<polygon fill="black" stroke="black" points="602.68,-146.67 613.21,-145.49 604.24,-139.85 602.68,-146.67"/>
<text text-anchor="middle" x="526.68" y="-112.3" font-family="Times,serif" font-size="14.00">_J11</text>
</g>
<!-- APlasma&#45;&gt;ALiver -->
<g id="edge6" class="edge">
<title>APlasma&#45;&gt;ALiver</title>
<path fill="none" stroke="black" d="M680.03,-179.2C688.43,-197.21 697.86,-225.36 689.18,-248.5 688,-251.64 686.4,-254.69 684.55,-257.59"/>
<polygon fill="black" stroke="black" points="681.59,-255.7 678.4,-265.8 687.2,-259.89 681.59,-255.7"/>
<text text-anchor="middle" x="704.18" y="-237.3" font-family="Times,serif" font-size="14.00">_J6</text>
</g>
<!-- ARBC -->
<g id="node6" class="node">
<title>ARBC</title>
<g id="a_node6"><a xlink:href="#species-ARBC" xlink:title="ARBC&#10;[PBPKO:00623]">
<path fill="gold" stroke="black" d="M576.68,-54C576.68,-54 487.68,-54 487.68,-54 481.68,-54 475.68,-48 475.68,-42 475.68,-42 475.68,-28 475.68,-28 475.68,-22 481.68,-16 487.68,-16 487.68,-16 576.68,-16 576.68,-16 582.68,-16 588.68,-22 588.68,-28 588.68,-28 588.68,-42 588.68,-42 588.68,-48 582.68,-54 576.68,-54"/>
<text text-anchor="middle" x="532.18" y="-38.8" font-family="Arial" font-size="14.00">ARBC</text>
<text text-anchor="middle" x="532.18" y="-23.8" font-family="Arial" font-size="14.00">[PBPKO:00623]</text>
</a>
</g>
</g>
<!-- APlasma&#45;&gt;ARBC -->
<g id="edge7" class="edge">
<title>APlasma&#45;&gt;ARBC</title>
<path fill="none" stroke="black" d="M649.81,-140.85C626.07,-119.69 586.68,-84.58 560.09,-60.88"/>
<polygon fill="black" stroke="black" points="562.42,-58.26 552.62,-54.22 557.76,-63.49 562.42,-58.26"/>
<text text-anchor="middle" x="645.68" y="-112.3" font-family="Times,serif" font-size="14.00">_J12</text>
</g>
<!-- ARest -->
<g id="node8" class="node">
<title>ARest</title>
<g id="a_node8"><a xlink:href="#species-ARest" xlink:title="ARest&#10;[PBPKO:00501]">
<path fill="gold" stroke="black" d="M924.68,-54C924.68,-54 835.68,-54 835.68,-54 829.68,-54 823.68,-48 823.68,-42 823.68,-42 823.68,-28 823.68,-28 823.68,-22 829.68,-16 835.68,-16 835.68,-16 924.68,-16 924.68,-16 930.68,-16 936.68,-22 936.68,-28 936.68,-28 936.68,-42 936.68,-42 936.68,-48 930.68,-54 924.68,-54"/>
<text text-anchor="middle" x="880.18" y="-38.8" font-family="Arial" font-size="14.00">ARest</text>
<text text-anchor="middle" x="880.18" y="-23.8" font-family="Arial" font-size="14.00">[PBPKO:00501]</text>
</a>
</g>
</g>
<!-- APlasma&#45;&gt;ARest -->
<g id="edge8" class="edge">
<title>APlasma&#45;&gt;ARest</title>
<path fill="none" stroke="black" d="M701.16,-140.85C738.18,-119.17 800.17,-82.86 840.62,-59.17"/>
<polygon fill="black" stroke="black" points="842.54,-62.1 849.4,-54.02 839.01,-56.06 842.54,-62.1"/>
<text text-anchor="middle" x="768.18" y="-112.3" font-family="Times,serif" font-size="14.00">_J4</text>
</g>
<!-- ARBC&#45;&gt;AMetallothionein -->
<g id="edge9" class="edge">
<title>ARBC&#45;&gt;AMetallothionein</title>
<path fill="none" stroke="black" d="M500.82,-54.02C463.11,-75.69 399.76,-112.11 358.47,-135.84"/>
<polygon fill="black" stroke="black" points="356.68,-132.83 349.75,-140.85 360.17,-138.9 356.68,-132.83"/>
<text text-anchor="middle" x="417.18" y="-112.3" font-family="Times,serif" font-size="14.00">_J9</text>
</g>
<!-- AMetallothionein&#45;&gt;AKidney -->
<g id="edge10" class="edge">
<title>AMetallothionein&#45;&gt;AKidney</title>
<path fill="none" stroke="black" d="M298.4,-140.85C275.44,-119.78 237.43,-84.88 211.62,-61.19"/>
<polygon fill="black" stroke="black" points="213.76,-58.41 204.03,-54.22 209.03,-63.56 213.76,-58.41"/>
<text text-anchor="middle" x="294.68" y="-112.3" font-family="Times,serif" font-size="14.00">_J10</text>
</g>
<!-- ARest&#45;&gt;APlasma -->
<g id="edge11" class="edge">
<title>ARest&#45;&gt;APlasma</title>
<path fill="none" stroke="black" d="M864.44,-54.27C846.57,-73.95 815.67,-104.93 783.18,-123.5 768.83,-131.7 752.37,-138.24 736.52,-143.37"/>
<polygon fill="black" stroke="black" points="735.28,-140.09 726.76,-146.38 737.35,-146.78 735.28,-140.09"/>
<text text-anchor="middle" x="814.18" y="-112.3" font-family="Times,serif" font-size="14.00">_J5</text>
</g>
<!-- ADaily_Uptake&#45;&gt;APlasma -->
<g id="edge12" class="edge">
<title>ADaily_Uptake&#45;&gt;APlasma</title>
<path fill="none" stroke="black" d="M372.67,-265.9C406.29,-254.27 450.83,-238.82 490.18,-225 530.22,-210.93 575.21,-194.94 610.19,-182.46"/>
<polygon fill="black" stroke="black" points="611.54,-185.69 619.78,-179.03 609.18,-179.1 611.54,-185.69"/>
<text text-anchor="middle" x="474.18" y="-237.3" font-family="Times,serif" font-size="14.00">_J3</text>
</g>
<!-- ADaily_Uptake&#45;&gt;AMetallothionein -->
<g id="edge13" class="edge">
<title>ADaily_Uptake&#45;&gt;AMetallothionein</title>
<path fill="none" stroke="black" d="M319.88,-265.85C319.55,-245.68 319.02,-212.86 318.64,-189.31"/>
<polygon fill="black" stroke="black" points="322.13,-189.17 318.47,-179.22 315.13,-189.28 322.13,-189.17"/>
<text text-anchor="middle" x="331.18" y="-237.3" font-family="Times,serif" font-size="14.00">_J2</text>
</g>
</g>
</svg>
