<?xml version="1.0" encoding="UTF-8" standalone="no"?>
<!DOCTYPE svg PUBLIC "-//W3C//DTD SVG 1.1//EN"
 "http://www.w3.org/Graphics/SVG/1.1/DTD/svg11.dtd">
<!-- Generated by graphviz version 2.43.0 (0)
 -->
<!-- Title: %3 Pages: 1 -->
<svg width="501pt" height="288pt"
 viewBox="0.00 0.00 501.19 288.00" xmlns="http://www.w3.org/2000/svg" xmlns:xlink="http://www.w3.org/1999/xlink">
<g id="graph0" class="graph" transform="scale(0.47 0.47) rotate(0) translate(4 612)">
<title>%3</title>
<polygon fill="white" stroke="transparent" points="-4,4 -4,-612 1068,-612 1068,4 -4,4"/>
<g id="clust1" class="cluster">
<title>cluster_GI</title>
<g id="a_clust1"><a xlink:href="#compartment-GI" xlink:title="GI&#10;[&#45;]">
<path fill="lightblue" stroke="black" d="M219.03,-508C219.03,-508 378.48,-508 378.48,-508 384.48,-508 390.48,-514 390.48,-520 390.48,-520 390.48,-588 390.48,-588 390.48,-594 384.48,-600 378.48,-600 378.48,-600 219.03,-600 219.03,-600 213.03,-600 207.03,-594 207.03,-588 207.03,-588 207.03,-520 207.03,-520 207.03,-514 213.03,-508 219.03,-508"/>
<text text-anchor="middle" x="298.76" y="-584.8" font-family="Arial" font-size="14.00">GI</text>
<text text-anchor="middle" x="298.76" y="-569.8" font-family="Arial" font-size="14.00">[&#45;]</text>
</a>
</g>
</g>
<g id="clust2" class="cluster">
<title>cluster_Intestinal_Tissue</title>
<g id="a_clust2"><a xlink:href="#compartment-Intestinal_Tissue" xlink:title="Intestinal_Tissue&#10;[&#45;]">
<path fill="lightblue" stroke="black" d="M161.38,-383C161.38,-383 446.62,-383 446.62,-383 452.62,-383 458.62,-389 458.62,-395 458.62,-395 458.62,-463 458.62,-463 458.62,-469 452.62,-475 446.62,-475 446.62,-475 161.38,-475 161.38,-475 155.38,-475 149.38,-469 149.38,-463 149.38,-463 149.38,-395 149.38,-395 149.38,-389 155.38,-383 161.38,-383"/>
<text text-anchor="middle" x="304" y="-459.8" font-family="Arial" font-size="14.00">Intestinal_Tissue</text>
<text text-anchor="middle" x="304" y="-444.8" font-family="Arial" font-size="14.00">[&#45;]</text>
</a>
</g>
</g>
<g id="clust3" class="cluster">
<title>cluster_Liver</title>
<g id="a_clust3"><a xlink:href="#compartment-Liver" xlink:title="Liver&#10;[&#45;]">
<path fill="lightblue" stroke="black" d="M491.59,-258C491.59,-258 808.28,-258 808.28,-258 814.28,-258 820.28,-264 820.28,-270 820.28,-270 820.28,-338 820.28,-338 820.28,-344 814.28,-350 808.28,-350 808.28,-350 491.59,-350 491.59,-350 485.59,-350 479.59,-344 479.59,-338 479.59,-338 479.59,-270 479.59,-270 479.59,-264 485.59,-258 491.59,-258"/>
<text text-anchor="middle" x="649.93" y="-334.8" font-family="Arial" font-size="14.00">Liver</text>
<text text-anchor="middle" x="649.93" y="-319.8" font-family="Arial" font-size="14.00">[&#45;]</text>
</a>
</g>
</g>
<g id="clust4" class="cluster">
<title>cluster_Kidney</title>
<g id="a_clust4"><a xlink:href="#compartment-Kidney" xlink:title="Kidney&#10;[&#45;]">
<path fill="lightblue" stroke="black" d="M32.97,-8C32.97,-8 349.66,-8 349.66,-8 355.66,-8 361.66,-14 361.66,-20 361.66,-20 361.66,-88 361.66,-88 361.66,-94 355.66,-100 349.66,-100 349.66,-100 32.97,-100 32.97,-100 26.97,-100 20.97,-94 20.97,-88 20.97,-88 20.97,-20 20.97,-20 20.97,-14 26.97,-8 32.97,-8"/>
<text text-anchor="middle" x="191.31" y="-84.8" font-family="Arial" font-size="14.00">Kidney</text>
<text text-anchor="middle" x="191.31" y="-69.8" font-family="Arial" font-size="14.00">[&#45;]</text>
</a>
</g>
</g>
<g id="clust5" class="cluster">
<title>cluster_Plasma</title>
<g id="a_clust5"><a xlink:href="#compartment-Plasma" xlink:title="Plasma&#10;[PBPKO:00488]">
<path fill="lightblue" stroke="black" d="M504.69,-133C504.69,-133 821.38,-133 821.38,-133 827.38,-133 833.38,-139 833.38,-145 833.38,-145 833.38,-213 833.38,-213 833.38,-219 827.38,-225 821.38,-225 821.38,-225 504.69,-225 504.69,-225 498.69,-225 492.69,-219 492.69,-213 492.69,-213 492.69,-145 492.69,-145 492.69,-139 498.69,-133 504.69,-133"/>
<text text-anchor="middle" x="663.03" y="-209.8" font-family="Arial" font-size="14.00">Plasma</text>
<text text-anchor="middle" x="663.03" y="-194.8" font-family="Arial" font-size="14.00">[PBPKO:00488]</text>
</a>
</g>
</g>
<g id="clust6" class="cluster">
<title>cluster_Red_Blood_Cell</title>
<g id="a_clust6"><a xlink:href="#compartment-Red_Blood_Cell" xlink:title="Red_Blood_Cell&#10;[&#45;]">
<path fill="lightblue" stroke="black" d="M394.62,-8C394.62,-8 669.38,-8 669.38,-8 675.38,-8 681.38,-14 681.38,-20 681.38,-20 681.38,-88 681.38,-88 681.38,-94 675.38,-100 669.38,-100 669.38,-100 394.62,-100 394.62,-100 388.62,-100 382.62,-94 382.62,-88 382.62,-88 382.62,-20 382.62,-20 382.62,-14 388.62,-8 394.62,-8"/>
<text text-anchor="middle" x="532" y="-84.8" font-family="Arial" font-size="14.00">Red_Blood_Cell</text>
<text text-anchor="middle" x="532" y="-69.8" font-family="Arial" font-size="14.00">[&#45;]</text>
</a>
</g>
</g>
<g id="clust7" class="cluster">
<title>cluster_Metallothionein</title>
<g id="a_clust7"><a xlink:href="#compartment-Metallothionein" xlink:title="Metallothionein&#10;[&#45;]">
<path fill="lightblue" stroke="black" d="M132.55,-133C132.55,-133 459.72,-133 459.72,-133 465.72,-133 471.72,-139 471.72,-145 471.72,-145 471.72,-213 471.72,-213 471.72,-219 465.72,-225 459.72,-225 459.72,-225 132.55,-225 132.55,-225 126.55,-225 120.55,-219 120.55,-213 120.55,-213 120.55,-145 120.55,-145 120.55,-139 126.55,-133 132.55,-133"/>
<text text-anchor="middle" x="296.14" y="-209.8" font-family="Arial" font-size="14.00">Metallothionein</text>
<text text-anchor="middle" x="296.14" y="-194.8" font-family="Arial" font-size="14.00">[&#45;]</text>
</a>
</g>
</g>
<g id="clust8" class="cluster">
<title>cluster_Rest</title>
<g id="a_clust8"><a xlink:href="#compartment-Rest" xlink:title="Rest&#10;[PBPKO:00450]">
<path fill="lightblue" stroke="black" d="M714.34,-8C714.34,-8 1031.03,-8 1031.03,-8 1037.03,-8 1043.03,-14 1043.03,-20 1043.03,-20 1043.03,-88 1043.03,-88 1043.03,-94 1037.03,-100 1031.03,-100 1031.03,-100 714.34,-100 714.34,-100 708.34,-100 702.34,-94 702.34,-88 702.34,-88 702.34,-20 702.34,-20 702.34,-14 708.34,-8 714.34,-8"/>
<text text-anchor="middle" x="872.69" y="-84.8" font-family="Arial" font-size="14.00">Rest</text>
<text text-anchor="middle" x="872.69" y="-69.8" font-family="Arial" font-size="14.00">[PBPKO:00450]</text>
</a>
</g>
</g>
<g id="clust9" class="cluster">
<title>cluster_Daily_Uptake</title>
<g id="a_clust9"><a xlink:href="#compartment-Daily_Uptake" xlink:title="Daily_Uptake&#10;[&#45;]">
<path fill="lightblue" stroke="black" d="M150.9,-258C150.9,-258 446.62,-258 446.62,-258 452.62,-258 458.62,-264 458.62,-270 458.62,-270 458.62,-338 458.62,-338 458.62,-344 452.62,-350 446.62,-350 446.62,-350 150.9,-350 150.9,-350 144.9,-350 138.9,-344 138.9,-338 138.9,-338 138.9,-270 138.9,-270 138.9,-264 144.9,-258 150.9,-258"/>
<text text-anchor="middle" x="298.76" y="-334.8" font-family="Arial" font-size="14.00">Daily_Uptake</text>
<text text-anchor="middle" x="298.76" y="-319.8" font-family="Arial" font-size="14.00">[&#45;]</text>
</a>
</g>
</g>
<!-- AGI -->
<g id="node1" class="node">
<title>AGI</title>
<g id="a_node1"><a xlink:href="#species-AGI" xlink:title="AGI&#10;[&#45;]">
<path fill="gold" stroke="black" d="M313.28,-554C313.28,-554 283.28,-554 283.28,-554 277.28,-554 271.28,-548 271.28,-542 271.28,-542 271.28,-528 271.28,-528 271.28,-522 277.28,-516 283.28,-516 283.28,-516 313.28,-516 313.28,-516 319.28,-516 325.28,-522 325.28,-528 325.28,-528 325.28,-542 325.28,-542 325.28,-548 319.28,-554 313.28,-554"/>
<text text-anchor="middle" x="298.28" y="-538.8" font-family="Arial" font-size="14.00">AGI</text>
<text text-anchor="middle" x="298.28" y="-523.8" font-family="Arial" font-size="14.00">[&#45;]</text>
</a>
</g>
</g>
<!-- ATI -->
<g id="node2" class="node">
<title>ATI</title>
<g id="a_node2"><a xlink:href="#species-ATI" xlink:title="ATI&#10;[&#45;]">
<path fill="gold" stroke="black" d="M313.28,-429C313.28,-429 283.28,-429 283.28,-429 277.28,-429 271.28,-423 271.28,-417 271.28,-417 271.28,-403 271.28,-403 271.28,-397 277.28,-391 283.28,-391 283.28,-391 313.28,-391 313.28,-391 319.28,-391 325.28,-397 325.28,-403 325.28,-403 325.28,-417 325.28,-417 325.28,-423 319.28,-429 313.28,-429"/>
<text text-anchor="middle" x="298.28" y="-413.8" font-family="Arial" font-size="14.00">ATI</text>
<text text-anchor="middle" x="298.28" y="-398.8" font-family="Arial" font-size="14.00">[&#45;]</text>
</a>
</g>
</g>
<!-- AGI&#45;&gt;ATI -->
<g id="edge1" class="edge">
<title>AGI&#45;&gt;ATI</title>
<path fill="none" stroke="black" d="M298.28,-515.85C298.28,-495.68 298.28,-462.86 298.28,-439.31"/>
<polygon fill="black" stroke="black" points="301.78,-439.22 298.28,-429.22 294.78,-439.22 301.78,-439.22"/>
<text text-anchor="middle" x="309.28" y="-487.3" font-family="Times,serif" font-size="14.00">_J0</text>
</g>
<!-- ADaily_Uptake -->
<g id="node9" class="node">
<title>ADaily_Uptake</title>
<g id="a_node9"><a xlink:href="#species-ADaily_Uptake" xlink:title="ADaily_Uptake&#10;[&#45;]">
<path fill="gold" stroke="black" d="M339.28,-304C339.28,-304 257.28,-304 257.28,-304 251.28,-304 245.28,-298 245.28,-292 245.28,-292 245.28,-278 245.28,-278 245.28,-272 251.28,-266 257.28,-266 257.28,-266 339.28,-266 339.28,-266 345.28,-266 351.28,-272 351.28,-278 351.28,-278 351.28,-292 351.28,-292 351.28,-298 345.28,-304 339.28,-304"/>
<text text-anchor="middle" x="298.28" y="-288.8" font-family="Arial" font-size="14.00">ADaily_Uptake</text>
<text text-anchor="middle" x="298.28" y="-273.8" font-family="Arial" font-size="14.00">[&#45;]</text>
</a>
</g>
</g>
<!-- ATI&#45;&gt;ADaily_Uptake -->
<g id="edge2" class="edge">
<title>ATI&#45;&gt;ADaily_Uptake</title>
<path fill="none" stroke="black" d="M298.28,-390.85C298.28,-370.68 298.28,-337.86 298.28,-314.31"/>
<polygon fill="black" stroke="black" points="301.78,-314.22 298.28,-304.22 294.78,-314.22 301.78,-314.22"/>
<text text-anchor="middle" x="309.28" y="-362.3" font-family="Times,serif" font-size="14.00">_J1</text>
</g>
<!-- ALiver -->
<g id="node3" class="node">
<title>ALiver</title>
<g id="a_node3"><a xlink:href="#species-ALiver" xlink:title="ALiver&#10;[PBPKO:00497]">
<path fill="gold" stroke="black" d="M694.78,-304C694.78,-304 605.78,-304 605.78,-304 599.78,-304 593.78,-298 593.78,-292 593.78,-292 593.78,-278 593.78,-278 593.78,-272 599.78,-266 605.78,-266 605.78,-266 694.78,-266 694.78,-266 700.78,-266 706.78,-272 706.78,-278 706.78,-278 706.78,-292 706.78,-292 706.78,-298 700.78,-304 694.78,-304"/>
<text text-anchor="middle" x="650.28" y="-288.8" font-family="Arial" font-size="14.00">ALiver</text>
<text text-anchor="middle" x="650.28" y="-273.8" font-family="Arial" font-size="14.00">[PBPKO:00497]</text>
</a>
</g>
</g>
<!-- APlasma -->
<g id="node5" class="node">
<title>APlasma</title>
<g id="a_node5"><a xlink:href="#species-APlasma" xlink:title="APlasma&#10;[PBPKO:00502]">
<path fill="gold" stroke="black" d="M707.78,-179C707.78,-179 618.78,-179 618.78,-179 612.78,-179 606.78,-173 606.78,-167 606.78,-167 606.78,-153 606.78,-153 606.78,-147 612.78,-141 618.78,-141 618.78,-141 707.78,-141 707.78,-141 713.78,-141 719.78,-147 719.78,-153 719.78,-153 719.78,-167 719.78,-167 719.78,-173 713.78,-179 707.78,-179"/>
<text text-anchor="middle" x="663.28" y="-163.8" font-family="Arial" font-size="14.00">APlasma</text>
<text text-anchor="middle" x="663.28" y="-148.8" font-family="Arial" font-size="14.00">[PBPKO:00502]</text>
</a>
</g>
</g>
<!-- ALiver&#45;&gt;APlasma -->
<g id="edge3" class="edge">
<title>ALiver&#45;&gt;APlasma</title>
<path fill="none" stroke="black" d="M652.19,-265.85C654.33,-245.68 657.79,-212.86 660.28,-189.31"/>
<polygon fill="black" stroke="black" points="663.78,-189.54 661.35,-179.22 656.82,-188.8 663.78,-189.54"/>
<text text-anchor="middle" x="667.28" y="-237.3" font-family="Times,serif" font-size="14.00">_J7</text>
</g>
<!-- AMetallothionein -->
<g id="node7" class="node">
<title>AMetallothionein</title>
<g id="a_node7"><a xlink:href="#species-AMetallothionein" xlink:title="AMetallothionein&#10;[&#45;]">
<path fill="gold" stroke="black" d="M342.78,-179C342.78,-179 249.78,-179 249.78,-179 243.78,-179 237.78,-173 237.78,-167 237.78,-167 237.78,-153 237.78,-153 237.78,-147 243.78,-141 249.78,-141 249.78,-141 342.78,-141 342.78,-141 348.78,-141 354.78,-147 354.78,-153 354.78,-153 354.78,-167 354.78,-167 354.78,-173 348.78,-179 342.78,-179"/>
<text text-anchor="middle" x="296.28" y="-163.8" font-family="Arial" font-size="14.00">AMetallothionein</text>
<text text-anchor="middle" x="296.28" y="-148.8" font-family="Arial" font-size="14.00">[&#45;]</text>
</a>
</g>
</g>
<!-- ALiver&#45;&gt;AMetallothionein -->
<g id="edge4" class="edge">
<title>ALiver&#45;&gt;AMetallothionein</title>
<path fill="none" stroke="black" d="M598.42,-265.98C534.54,-243.79 426.13,-206.12 358.02,-182.45"/>
<polygon fill="black" stroke="black" points="358.86,-179.04 348.27,-179.07 356.57,-185.65 358.86,-179.04"/>
<text text-anchor="middle" x="557.28" y="-237.3" font-family="Times,serif" font-size="14.00">_J8</text>
</g>
<!-- AKidney -->
<g id="node4" class="node">
<title>AKidney</title>
<g id="a_node4"><a xlink:href="#species-AKidney" xlink:title="AKidney&#10;[PBPKO:00498]">
<path fill="gold" stroke="black" d="M235.78,-54C235.78,-54 146.78,-54 146.78,-54 140.78,-54 134.78,-48 134.78,-42 134.78,-42 134.78,-28 134.78,-28 134.78,-22 140.78,-16 146.78,-16 146.78,-16 235.78,-16 235.78,-16 241.78,-16 247.78,-22 247.78,-28 247.78,-28 247.78,-42 247.78,-42 247.78,-48 241.78,-54 235.78,-54"/>
<text text-anchor="middle" x="191.28" y="-38.8" font-family="Arial" font-size="14.00">AKidney</text>
<text text-anchor="middle" x="191.28" y="-23.8" font-family="Arial" font-size="14.00">[PBPKO:00498]</text>
</a>
</g>
</g>
<!-- AKidney&#45;&gt;APlasma -->
<g id="edge5" class="edge">
<title>AKidney&#45;&gt;APlasma</title>
<path fill="none" stroke="black" d="M238.8,-54.12C276.29,-67.96 330.12,-86.83 378.28,-100 378.61,-100.09 512.6,-127.82 596.72,-145.23"/>
<polygon fill="black" stroke="black" points="596.21,-148.7 606.71,-147.3 597.63,-141.84 596.21,-148.7"/>
<text text-anchor="middle" x="502.78" y="-112.3" font-family="Times,serif" font-size="14.00">_J11</text>
</g>
<!-- APlasma&#45;&gt;ALiver -->
<g id="edge6" class="edge">
<title>APlasma&#45;&gt;ALiver</title>
<path fill="none" stroke="black" d="M673.21,-179.23C681.66,-197.26 691.14,-225.43 682.28,-248.5 681.02,-251.77 679.3,-254.94 677.31,-257.93"/>
<polygon fill="black" stroke="black" points="674.5,-255.85 671.15,-265.9 680.04,-260.13 674.5,-255.85"/>
<text text-anchor="middle" x="697.28" y="-237.3" font-family="Times,serif" font-size="14.00">_J6</text>
</g>
<!-- ARBC -->
<g id="node6" class="node">
<title>ARBC</title>
<g id="a_node6"><a xlink:href="#species-ARBC" xlink:title="ARBC&#10;[&#45;]">
<path fill="gold" stroke="black" d="M547.28,-54C547.28,-54 517.28,-54 517.28,-54 511.28,-54 505.28,-48 505.28,-42 505.28,-42 505.28,-28 505.28,-28 505.28,-22 511.28,-16 517.28,-16 517.28,-16 547.28,-16 547.28,-16 553.28,-16 559.28,-22 559.28,-28 559.28,-28 559.28,-42 559.28,-42 559.28,-48 553.28,-54 547.28,-54"/>
<text text-anchor="middle" x="532.28" y="-38.8" font-family="Arial" font-size="14.00">ARBC</text>
<text text-anchor="middle" x="532.28" y="-23.8" font-family="Arial" font-size="14.00">[&#45;]</text>
</a>
</g>
</g>
<!-- APlasma&#45;&gt;ARBC -->
<g id="edge7" class="edge">
<title>APlasma&#45;&gt;ARBC</title>
<path fill="none" stroke="black" d="M643.95,-140.85C621.5,-119.78 584.34,-84.88 559.1,-61.19"/>
<polygon fill="black" stroke="black" points="561.37,-58.52 551.68,-54.22 556.58,-63.62 561.37,-58.52"/>
<text text-anchor="middle" x="640.78" y="-112.3" font-family="Times,serif" font-size="14.00">_J12</text>
</g>
<!-- ARest -->
<g id="node8" class="node">
<title>ARest</title>
<g id="a_node8"><a xlink:href="#species-ARest" xlink:title="ARest&#10;[PBPKO:00501]">
<path fill="gold" stroke="black" d="M916.78,-54C916.78,-54 827.78,-54 827.78,-54 821.78,-54 815.78,-48 815.78,-42 815.78,-42 815.78,-28 815.78,-28 815.78,-22 821.78,-16 827.78,-16 827.78,-16 916.78,-16 916.78,-16 922.78,-16 928.78,-22 928.78,-28 928.78,-28 928.78,-42 928.78,-42 928.78,-48 922.78,-54 916.78,-54"/>
<text text-anchor="middle" x="872.28" y="-38.8" font-family="Arial" font-size="14.00">ARest</text>
<text text-anchor="middle" x="872.28" y="-23.8" font-family="Arial" font-size="14.00">[PBPKO:00501]</text>
</a>
</g>
</g>
<!-- APlasma&#45;&gt;ARest -->
<g id="edge8" class="edge">
<title>APlasma&#45;&gt;ARest</title>
<path fill="none" stroke="black" d="M694.11,-140.85C730.96,-119.17 792.65,-82.86 832.91,-59.17"/>
<polygon fill="black" stroke="black" points="834.81,-62.11 841.65,-54.02 831.26,-56.08 834.81,-62.11"/>
<text text-anchor="middle" x="760.28" y="-112.3" font-family="Times,serif" font-size="14.00">_J4</text>
</g>
<!-- ARBC&#45;&gt;AMetallothionein -->
<g id="edge9" class="edge">
<title>ARBC&#45;&gt;AMetallothionein</title>
<path fill="none" stroke="black" d="M504.97,-50.23C464.47,-71.34 388.08,-111.15 339.81,-136.31"/>
<polygon fill="black" stroke="black" points="338.1,-133.26 330.85,-140.98 341.33,-139.46 338.1,-133.26"/>
<text text-anchor="middle" x="404.28" y="-112.3" font-family="Times,serif" font-size="14.00">_J9</text>
</g>
<!-- AMetallothionein&#45;&gt;AKidney -->
<g id="edge10" class="edge">
<title>AMetallothionein&#45;&gt;AKidney</title>
<path fill="none" stroke="black" d="M280.78,-140.85C263.02,-120.05 233.77,-85.78 213.57,-62.11"/>
<polygon fill="black" stroke="black" points="215.99,-59.56 206.83,-54.22 210.66,-64.1 215.99,-59.56"/>
<text text-anchor="middle" x="280.78" y="-112.3" font-family="Times,serif" font-size="14.00">_J10</text>
</g>
<!-- ARest&#45;&gt;APlasma -->
<g id="edge11" class="edge">
<title>ARest&#45;&gt;APlasma</title>
<path fill="none" stroke="black" d="M856.53,-54.25C838.65,-73.92 807.74,-104.89 775.28,-123.5 761.21,-131.56 745.07,-138.04 729.52,-143.14"/>
<polygon fill="black" stroke="black" points="728.43,-139.82 719.93,-146.14 730.52,-146.5 728.43,-139.82"/>
<text text-anchor="middle" x="807.28" y="-112.3" font-family="Times,serif" font-size="14.00">_J5</text>
</g>
<!-- ADaily_Uptake&#45;&gt;APlasma -->
<g id="edge12" class="edge">
<title>ADaily_Uptake&#45;&gt;APlasma</title>
<path fill="none" stroke="black" d="M351.36,-266.4C386.53,-254.72 433.68,-239.01 475.28,-225 517.27,-210.85 564.48,-194.78 601.08,-182.28"/>
<polygon fill="black" stroke="black" points="602.3,-185.57 610.63,-179.02 600.04,-178.94 602.3,-185.57"/>
<text text-anchor="middle" x="458.28" y="-237.3" font-family="Times,serif" font-size="14.00">_J3</text>
</g>
<!-- ADaily_Uptake&#45;&gt;AMetallothionein -->
<g id="edge13" class="edge">
<title>ADaily_Uptake&#45;&gt;AMetallothionein</title>
<path fill="none" stroke="black" d="M297.98,-265.85C297.65,-245.68 297.12,-212.86 296.74,-189.31"/>
<polygon fill="black" stroke="black" points="300.23,-189.17 296.57,-179.22 293.24,-189.28 300.23,-189.17"/>
<text text-anchor="middle" x="309.28" y="-237.3" font-family="Times,serif" font-size="14.00">_J2</text>
</g>
</g>
</svg>
