<?xml version="1.0" encoding="UTF-8" standalone="no"?>
<!DOCTYPE svg PUBLIC "-//W3C//DTD SVG 1.1//EN"
 "http://www.w3.org/Graphics/SVG/1.1/DTD/svg11.dtd">
<!-- Generated by graphviz version 2.43.0 (0)
 -->
<!-- Title: %3 Pages: 1 -->
<svg width="499pt" height="288pt"
 viewBox="0.00 0.00 499.28 288.00" xmlns="http://www.w3.org/2000/svg" xmlns:xlink="http://www.w3.org/1999/xlink">
<g id="graph0" class="graph" transform="scale(0.79 0.79) rotate(0) translate(4 362)">
<title>%3</title>
<polygon fill="white" stroke="transparent" points="-4,4 -4,-362 630.5,-362 630.5,4 -4,4"/>
<g id="clust1" class="cluster">
<title>cluster_Gut</title>
<g id="a_clust1"><a xlink:href="#compartment-Gut" xlink:title="Gut&#10;[&#45;]">
<path fill="lightblue" stroke="black" d="M189.79,-258C189.79,-258 363.34,-258 363.34,-258 369.34,-258 375.34,-264 375.34,-270 375.34,-270 375.34,-338 375.34,-338 375.34,-344 369.34,-350 363.34,-350 363.34,-350 189.79,-350 189.79,-350 183.79,-350 177.79,-344 177.79,-338 177.79,-338 177.79,-270 177.79,-270 177.79,-264 183.79,-258 189.79,-258"/>
<text text-anchor="middle" x="276.56" y="-334.8" font-family="Arial" font-size="14.00">Gut</text>
<text text-anchor="middle" x="276.56" y="-319.8" font-family="Arial" font-size="14.00">[&#45;]</text>
</a>
</g>
</g>
<g id="clust2" class="cluster">
<title>cluster_Blood</title>
<g id="a_clust2"><a xlink:href="#compartment-Blood" xlink:title="Blood&#10;[&#45;]">
<path fill="lightblue" stroke="black" d="M34.58,-8C34.58,-8 371.8,-8 371.8,-8 377.8,-8 383.8,-14 383.8,-20 383.8,-20 383.8,-213 383.8,-213 383.8,-219 377.8,-225 371.8,-225 371.8,-225 34.58,-225 34.58,-225 28.58,-225 22.58,-219 22.58,-213 22.58,-213 22.58,-20 22.58,-20 22.58,-14 28.58,-8 34.58,-8"/>
<text text-anchor="middle" x="203.19" y="-209.8" font-family="Arial" font-size="14.00">Blood</text>
<text text-anchor="middle" x="203.19" y="-194.8" font-family="Arial" font-size="14.00">[&#45;]</text>
</a>
</g>
</g>
<g id="clust3" class="cluster">
<title>cluster_Rest</title>
<g id="a_clust3"><a xlink:href="#compartment-Rest" xlink:title="Rest&#10;[&#45;]">
<path fill="lightblue" stroke="black" d="M418.38,-8C418.38,-8 591.92,-8 591.92,-8 597.92,-8 603.92,-14 603.92,-20 603.92,-20 603.92,-88 603.92,-88 603.92,-94 597.92,-100 591.92,-100 591.92,-100 418.38,-100 418.38,-100 412.38,-100 406.38,-94 406.38,-88 406.38,-88 406.38,-20 406.38,-20 406.38,-14 412.38,-8 418.38,-8"/>
<text text-anchor="middle" x="505.15" y="-84.8" font-family="Arial" font-size="14.00">Rest</text>
<text text-anchor="middle" x="505.15" y="-69.8" font-family="Arial" font-size="14.00">[&#45;]</text>
</a>
</g>
</g>
<!-- AGut -->
<g id="node1" class="node">
<title>AGut</title>
<g id="a_node1"><a xlink:href="#species-AGut" xlink:title="AGut&#10;[&#45;]">
<path fill="gold" stroke="black" d="M291.11,-304C291.11,-304 261.11,-304 261.11,-304 255.11,-304 249.11,-298 249.11,-292 249.11,-292 249.11,-278 249.11,-278 249.11,-272 255.11,-266 261.11,-266 261.11,-266 291.11,-266 291.11,-266 297.11,-266 303.11,-272 303.11,-278 303.11,-278 303.11,-292 303.11,-292 303.11,-298 297.11,-304 291.11,-304"/>
<text text-anchor="middle" x="276.11" y="-288.8" font-family="Arial" font-size="14.00">AGut</text>
<text text-anchor="middle" x="276.11" y="-273.8" font-family="Arial" font-size="14.00">[&#45;]</text>
</a>
</g>
</g>
<!-- ABlood -->
<g id="node2" class="node">
<title>ABlood</title>
<g id="a_node2"><a xlink:href="#species-ABlood" xlink:title="ABlood&#10;[&#45;]">
<path fill="gold" stroke="black" d="M294.11,-179C294.11,-179 258.11,-179 258.11,-179 252.11,-179 246.11,-173 246.11,-167 246.11,-167 246.11,-153 246.11,-153 246.11,-147 252.11,-141 258.11,-141 258.11,-141 294.11,-141 294.11,-141 300.11,-141 306.11,-147 306.11,-153 306.11,-153 306.11,-167 306.11,-167 306.11,-173 300.11,-179 294.11,-179"/>
<text text-anchor="middle" x="276.11" y="-163.8" font-family="Arial" font-size="14.00">ABlood</text>
<text text-anchor="middle" x="276.11" y="-148.8" font-family="Arial" font-size="14.00">[&#45;]</text>
</a>
</g>
</g>
<!-- AGut&#45;&gt;ABlood -->
<g id="edge1" class="edge">
<title>AGut&#45;&gt;ABlood</title>
<path fill="none" stroke="black" d="M276.11,-265.85C276.11,-245.68 276.11,-212.86 276.11,-189.31"/>
<polygon fill="black" stroke="black" points="279.61,-189.22 276.11,-179.22 272.61,-189.22 279.61,-189.22"/>
<text text-anchor="middle" x="287.11" y="-237.3" font-family="Times,serif" font-size="14.00">_J0</text>
</g>
<!-- ABloodMetTotal -->
<g id="node3" class="node">
<title>ABloodMetTotal</title>
<g id="a_node3"><a xlink:href="#species-ABloodMetTotal" xlink:title="ABloodMetTotal&#10;[&#45;]">
<path fill="gold" stroke="black" d="M247.11,-54C247.11,-54 159.11,-54 159.11,-54 153.11,-54 147.11,-48 147.11,-42 147.11,-42 147.11,-28 147.11,-28 147.11,-22 153.11,-16 159.11,-16 159.11,-16 247.11,-16 247.11,-16 253.11,-16 259.11,-22 259.11,-28 259.11,-28 259.11,-42 259.11,-42 259.11,-48 253.11,-54 247.11,-54"/>
<text text-anchor="middle" x="203.11" y="-38.8" font-family="Arial" font-size="14.00">ABloodMetTotal</text>
<text text-anchor="middle" x="203.11" y="-23.8" font-family="Arial" font-size="14.00">[&#45;]</text>
</a>
</g>
</g>
<!-- ABlood&#45;&gt;ABloodMetTotal -->
<g id="edge2" class="edge">
<title>ABlood&#45;&gt;ABloodMetTotal</title>
<path fill="none" stroke="black" d="M265.34,-140.85C253.16,-120.32 233.19,-86.68 219.17,-63.05"/>
<polygon fill="black" stroke="black" points="222.04,-61.04 213.93,-54.22 216.02,-64.61 222.04,-61.04"/>
<text text-anchor="middle" x="266.11" y="-112.3" font-family="Times,serif" font-size="14.00">_J3</text>
</g>
<!-- ARest -->
<g id="node4" class="node">
<title>ARest</title>
<g id="a_node4"><a xlink:href="#species-ARest" xlink:title="ARest&#10;[&#45;]">
<path fill="gold" stroke="black" d="M520.11,-54C520.11,-54 490.11,-54 490.11,-54 484.11,-54 478.11,-48 478.11,-42 478.11,-42 478.11,-28 478.11,-28 478.11,-22 484.11,-16 490.11,-16 490.11,-16 520.11,-16 520.11,-16 526.11,-16 532.11,-22 532.11,-28 532.11,-28 532.11,-42 532.11,-42 532.11,-48 526.11,-54 520.11,-54"/>
<text text-anchor="middle" x="505.11" y="-38.8" font-family="Arial" font-size="14.00">ARest</text>
<text text-anchor="middle" x="505.11" y="-23.8" font-family="Arial" font-size="14.00">[&#45;]</text>
</a>
</g>
</g>
<!-- ABlood&#45;&gt;ARest -->
<g id="edge3" class="edge">
<title>ABlood&#45;&gt;ARest</title>
<path fill="none" stroke="black" d="M306.13,-143.35C328.72,-131.53 360.43,-114.87 388.11,-100 415.31,-85.4 445.91,-68.65 468.99,-55.95"/>
<polygon fill="black" stroke="black" points="470.69,-59.01 477.76,-51.12 467.31,-52.88 470.69,-59.01"/>
<text text-anchor="middle" x="380.11" y="-112.3" font-family="Times,serif" font-size="14.00">_J1</text>
</g>
<!-- ARest&#45;&gt;ABlood -->
<g id="edge4" class="edge">
<title>ARest&#45;&gt;ABlood</title>
<path fill="none" stroke="black" d="M486.83,-54.25C466.19,-73.91 430.81,-104.87 395.11,-123.5 370.2,-136.5 339.79,-145.47 315.96,-151.14"/>
<polygon fill="black" stroke="black" points="315.15,-147.73 306.18,-153.37 316.71,-154.56 315.15,-147.73"/>
<text text-anchor="middle" x="429.11" y="-112.3" font-family="Times,serif" font-size="14.00">_J2</text>
</g>
</g>
</svg>
