<?xml version="1.0" encoding="UTF-8" standalone="no"?>
<!DOCTYPE svg PUBLIC "-//W3C//DTD SVG 1.1//EN"
 "http://www.w3.org/Graphics/SVG/1.1/DTD/svg11.dtd">
<!-- Generated by graphviz version 2.43.0 (0)
 -->
<!-- Title: %3 Pages: 1 -->
<svg width="504pt" height="276pt"
 viewBox="0.00 0.00 504.00 276.33" xmlns="http://www.w3.org/2000/svg" xmlns:xlink="http://www.w3.org/1999/xlink">
<g id="graph0" class="graph" transform="scale(0.35 0.35) rotate(0) translate(4 776)">
<title>%3</title>
<polygon fill="white" stroke="transparent" points="-4,4 -4,-776 1418.64,-776 1418.64,4 -4,4"/>
<g id="clust1" class="cluster">
<title>cluster_GILumen</title>
<g id="a_clust1"><a xlink:href="#compartment-GILumen" xlink:title="GILumen&#10;[PBPKO:00478]">
<path fill="lightblue" stroke="black" d="M325.3,-672C325.3,-672 505.94,-672 505.94,-672 511.94,-672 517.94,-678 517.94,-684 517.94,-684 517.94,-752 517.94,-752 517.94,-758 511.94,-764 505.94,-764 505.94,-764 325.3,-764 325.3,-764 319.3,-764 313.3,-758 313.3,-752 313.3,-752 313.3,-684 313.3,-684 313.3,-678 319.3,-672 325.3,-672"/>
<text text-anchor="middle" x="415.62" y="-748.8" font-family="Arial" font-size="14.00">GILumen</text>
<text text-anchor="middle" x="415.62" y="-733.8" font-family="Arial" font-size="14.00">[PBPKO:00478]</text>
</a>
</g>
</g>
<g id="clust2" class="cluster">
<title>cluster_Fast</title>
<g id="a_clust2"><a xlink:href="#compartment-Fast" xlink:title="Fast&#10;[PBPKO:00478]">
<path fill="lightblue" stroke="black" d="M131.53,-547C131.53,-547 312.17,-547 312.17,-547 318.17,-547 324.17,-553 324.17,-559 324.17,-559 324.17,-627 324.17,-627 324.17,-633 318.17,-639 312.17,-639 312.17,-639 131.53,-639 131.53,-639 125.53,-639 119.53,-633 119.53,-627 119.53,-627 119.53,-559 119.53,-559 119.53,-553 125.53,-547 131.53,-547"/>
<text text-anchor="middle" x="221.85" y="-623.8" font-family="Arial" font-size="14.00">Fast</text>
<text text-anchor="middle" x="221.85" y="-608.8" font-family="Arial" font-size="14.00">[PBPKO:00478]</text>
</a>
</g>
</g>
<g id="clust3" class="cluster">
<title>cluster_Slow</title>
<g id="a_clust3"><a xlink:href="#compartment-Slow" xlink:title="Slow&#10;[PBPKO:00478]">
<path fill="lightblue" stroke="black" d="M359.71,-547C359.71,-547 540.35,-547 540.35,-547 546.35,-547 552.35,-553 552.35,-559 552.35,-559 552.35,-627 552.35,-627 552.35,-633 546.35,-639 540.35,-639 540.35,-639 359.71,-639 359.71,-639 353.71,-639 347.71,-633 347.71,-627 347.71,-627 347.71,-559 347.71,-559 347.71,-553 353.71,-547 359.71,-547"/>
<text text-anchor="middle" x="450.03" y="-623.8" font-family="Arial" font-size="14.00">Slow</text>
<text text-anchor="middle" x="450.03" y="-608.8" font-family="Arial" font-size="14.00">[PBPKO:00478]</text>
</a>
</g>
</g>
<g id="clust4" class="cluster">
<title>cluster_Colon</title>
<g id="a_clust4"><a xlink:href="#compartment-Colon" xlink:title="Colon&#10;[&#45;]">
<path fill="lightblue" stroke="black" d="M73.57,-422C73.57,-422 190.83,-422 190.83,-422 196.83,-422 202.83,-428 202.83,-434 202.83,-434 202.83,-502 202.83,-502 202.83,-508 196.83,-514 190.83,-514 190.83,-514 73.57,-514 73.57,-514 67.57,-514 61.57,-508 61.57,-502 61.57,-502 61.57,-434 61.57,-434 61.57,-428 67.57,-422 73.57,-422"/>
<text text-anchor="middle" x="132.2" y="-498.8" font-family="Arial" font-size="14.00">Colon</text>
<text text-anchor="middle" x="132.2" y="-483.8" font-family="Arial" font-size="14.00">[&#45;]</text>
</a>
</g>
</g>
<g id="clust5" class="cluster">
<title>cluster_Gut</title>
<g id="a_clust5"><a xlink:href="#compartment-Gut" xlink:title="Gut&#10;[PBPKO:00477]">
<path fill="lightblue" stroke="black" d="M229.32,-422C229.32,-422 440.75,-422 440.75,-422 446.75,-422 452.75,-428 452.75,-434 452.75,-434 452.75,-502 452.75,-502 452.75,-508 446.75,-514 440.75,-514 440.75,-514 229.32,-514 229.32,-514 223.32,-514 217.32,-508 217.32,-502 217.32,-502 217.32,-434 217.32,-434 217.32,-428 223.32,-422 229.32,-422"/>
<text text-anchor="middle" x="335.03" y="-498.8" font-family="Arial" font-size="14.00">Gut</text>
<text text-anchor="middle" x="335.03" y="-483.8" font-family="Arial" font-size="14.00">[PBPKO:00477]</text>
</a>
</g>
</g>
<g id="clust6" class="cluster">
<title>cluster_Liver</title>
<g id="a_clust6"><a xlink:href="#compartment-Liver" xlink:title="Liver&#10;[PBPKO:00558]">
<path fill="lightblue" stroke="black" d="M669.39,-8C669.39,-8 1176.01,-8 1176.01,-8 1182.01,-8 1188.01,-14 1188.01,-20 1188.01,-20 1188.01,-377 1188.01,-377 1188.01,-383 1182.01,-389 1176.01,-389 1176.01,-389 669.39,-389 669.39,-389 663.39,-389 657.39,-383 657.39,-377 657.39,-377 657.39,-20 657.39,-20 657.39,-14 663.39,-8 669.39,-8"/>
<text text-anchor="middle" x="922.7" y="-373.8" font-family="Arial" font-size="14.00">Liver</text>
<text text-anchor="middle" x="922.7" y="-358.8" font-family="Arial" font-size="14.00">[PBPKO:00558]</text>
</a>
</g>
</g>
<g id="clust7" class="cluster">
<title>cluster_Blood</title>
<g id="a_clust7"><a xlink:href="#compartment-Blood" xlink:title="Blood&#10;[PBPKO:00464]">
<path fill="lightblue" stroke="black" d="M783.48,-547C783.48,-547 994.91,-547 994.91,-547 1000.91,-547 1006.91,-553 1006.91,-559 1006.91,-559 1006.91,-627 1006.91,-627 1006.91,-633 1000.91,-639 994.91,-639 994.91,-639 783.48,-639 783.48,-639 777.48,-639 771.48,-633 771.48,-627 771.48,-627 771.48,-559 771.48,-559 771.48,-553 777.48,-547 783.48,-547"/>
<text text-anchor="middle" x="889.2" y="-623.8" font-family="Arial" font-size="14.00">Blood</text>
<text text-anchor="middle" x="889.2" y="-608.8" font-family="Arial" font-size="14.00">[PBPKO:00464]</text>
</a>
</g>
</g>
<g id="clust8" class="cluster">
<title>cluster_Rest</title>
<g id="a_clust8"><a xlink:href="#compartment-Rest" xlink:title="Rest&#10;[PBPKO:00450]">
<path fill="lightblue" stroke="black" d="M698.37,-422C698.37,-422 909.79,-422 909.79,-422 915.79,-422 921.79,-428 921.79,-434 921.79,-434 921.79,-502 921.79,-502 921.79,-508 915.79,-514 909.79,-514 909.79,-514 698.37,-514 698.37,-514 692.37,-514 686.37,-508 686.37,-502 686.37,-502 686.37,-434 686.37,-434 686.37,-428 692.37,-422 698.37,-422"/>
<text text-anchor="middle" x="804.08" y="-498.8" font-family="Arial" font-size="14.00">Rest</text>
<text text-anchor="middle" x="804.08" y="-483.8" font-family="Arial" font-size="14.00">[PBPKO:00450]</text>
</a>
</g>
</g>
<g id="clust9" class="cluster">
<title>cluster_Bile</title>
<g id="a_clust9"><a xlink:href="#compartment-Bile" xlink:title="Bile&#10;[&#45;]">
<path fill="lightblue" stroke="black" d="M1218.12,-172C1218.12,-172 1320.89,-172 1320.89,-172 1326.89,-172 1332.89,-178 1332.89,-184 1332.89,-184 1332.89,-252 1332.89,-252 1332.89,-258 1326.89,-264 1320.89,-264 1320.89,-264 1218.12,-264 1218.12,-264 1212.12,-264 1206.12,-258 1206.12,-252 1206.12,-252 1206.12,-184 1206.12,-184 1206.12,-178 1212.12,-172 1218.12,-172"/>
<text text-anchor="middle" x="1269.51" y="-248.8" font-family="Arial" font-size="14.00">Bile</text>
<text text-anchor="middle" x="1269.51" y="-233.8" font-family="Arial" font-size="14.00">[&#45;]</text>
</a>
</g>
</g>
<g id="clust10" class="cluster">
<title>cluster_Feces</title>
<g id="a_clust10"><a xlink:href="#compartment-Feces" xlink:title="Feces&#10;[PBPKO:00555]">
<path fill="lightblue" stroke="black" d="M26.49,-297C26.49,-297 237.92,-297 237.92,-297 243.92,-297 249.92,-303 249.92,-309 249.92,-309 249.92,-377 249.92,-377 249.92,-383 243.92,-389 237.92,-389 237.92,-389 26.49,-389 26.49,-389 20.49,-389 14.49,-383 14.49,-377 14.49,-377 14.49,-309 14.49,-309 14.49,-303 20.49,-297 26.49,-297"/>
<text text-anchor="middle" x="132.2" y="-373.8" font-family="Arial" font-size="14.00">Feces</text>
<text text-anchor="middle" x="132.2" y="-358.8" font-family="Arial" font-size="14.00">[PBPKO:00555]</text>
</a>
</g>
</g>
<g id="clust11" class="cluster">
<title>cluster_Stomach</title>
<g id="a_clust11"><a xlink:href="#compartment-Stomach" xlink:title="Stomach&#10;[PBPKO:00566]">
<path fill="lightblue" stroke="black" d="M1143.87,-422C1143.87,-422 1324.51,-422 1324.51,-422 1330.51,-422 1336.51,-428 1336.51,-434 1336.51,-434 1336.51,-502 1336.51,-502 1336.51,-508 1330.51,-514 1324.51,-514 1324.51,-514 1143.87,-514 1143.87,-514 1137.87,-514 1131.87,-508 1131.87,-502 1131.87,-502 1131.87,-434 1131.87,-434 1131.87,-428 1137.87,-422 1143.87,-422"/>
<text text-anchor="middle" x="1234.19" y="-498.8" font-family="Arial" font-size="14.00">Stomach</text>
<text text-anchor="middle" x="1234.19" y="-483.8" font-family="Arial" font-size="14.00">[PBPKO:00566]</text>
</a>
</g>
</g>
<g id="clust12" class="cluster">
<title>cluster_Spleen</title>
<g id="a_clust12"><a xlink:href="#compartment-Spleen" xlink:title="Spleen&#10;[PBPKO:00492]">
<path fill="lightblue" stroke="black" d="M479.24,-422C479.24,-422 659.88,-422 659.88,-422 665.88,-422 671.88,-428 671.88,-434 671.88,-434 671.88,-502 671.88,-502 671.88,-508 665.88,-514 659.88,-514 659.88,-514 479.24,-514 479.24,-514 473.24,-514 467.24,-508 467.24,-502 467.24,-502 467.24,-434 467.24,-434 467.24,-428 473.24,-422 479.24,-422"/>
<text text-anchor="middle" x="569.56" y="-498.8" font-family="Arial" font-size="14.00">Spleen</text>
<text text-anchor="middle" x="569.56" y="-483.8" font-family="Arial" font-size="14.00">[PBPKO:00492]</text>
</a>
</g>
</g>
<!-- AGILumen -->
<g id="node1" class="node">
<title>AGILumen</title>
<g id="a_node1"><a xlink:href="#species-AGILumen" xlink:title="AGILumen&#10;[&#45;]">
<path fill="gold" stroke="black" d="M444.14,-718C444.14,-718 385.14,-718 385.14,-718 379.14,-718 373.14,-712 373.14,-706 373.14,-706 373.14,-692 373.14,-692 373.14,-686 379.14,-680 385.14,-680 385.14,-680 444.14,-680 444.14,-680 450.14,-680 456.14,-686 456.14,-692 456.14,-692 456.14,-706 456.14,-706 456.14,-712 450.14,-718 444.14,-718"/>
<text text-anchor="middle" x="414.64" y="-702.8" font-family="Arial" font-size="14.00">AGILumen</text>
<text text-anchor="middle" x="414.64" y="-687.8" font-family="Arial" font-size="14.00">[&#45;]</text>
</a>
</g>
</g>
<!-- AFast -->
<g id="node2" class="node">
<title>AFast</title>
<g id="a_node2"><a xlink:href="#species-AFast" xlink:title="AFast&#10;[&#45;]">
<path fill="gold" stroke="black" d="M270.64,-593C270.64,-593 240.64,-593 240.64,-593 234.64,-593 228.64,-587 228.64,-581 228.64,-581 228.64,-567 228.64,-567 228.64,-561 234.64,-555 240.64,-555 240.64,-555 270.64,-555 270.64,-555 276.64,-555 282.64,-561 282.64,-567 282.64,-567 282.64,-581 282.64,-581 282.64,-587 276.64,-593 270.64,-593"/>
<text text-anchor="middle" x="255.64" y="-577.8" font-family="Arial" font-size="14.00">AFast</text>
<text text-anchor="middle" x="255.64" y="-562.8" font-family="Arial" font-size="14.00">[&#45;]</text>
</a>
</g>
</g>
<!-- AGILumen&#45;&gt;AFast -->
<g id="edge1" class="edge">
<title>AGILumen&#45;&gt;AFast</title>
<path fill="none" stroke="black" d="M391.18,-679.85C363.62,-658.53 317.79,-623.08 287.15,-599.37"/>
<polygon fill="black" stroke="black" points="288.99,-596.37 278.94,-593.02 284.71,-601.91 288.99,-596.37"/>
<text text-anchor="middle" x="378.64" y="-651.3" font-family="Times,serif" font-size="14.00">_J0</text>
</g>
<!-- ASlow -->
<g id="node3" class="node">
<title>ASlow</title>
<g id="a_node3"><a xlink:href="#species-ASlow" xlink:title="ASlow&#10;[&#45;]">
<path fill="gold" stroke="black" d="M430.14,-593C430.14,-593 399.14,-593 399.14,-593 393.14,-593 387.14,-587 387.14,-581 387.14,-581 387.14,-567 387.14,-567 387.14,-561 393.14,-555 399.14,-555 399.14,-555 430.14,-555 430.14,-555 436.14,-555 442.14,-561 442.14,-567 442.14,-567 442.14,-581 442.14,-581 442.14,-587 436.14,-593 430.14,-593"/>
<text text-anchor="middle" x="414.64" y="-577.8" font-family="Arial" font-size="14.00">ASlow</text>
<text text-anchor="middle" x="414.64" y="-562.8" font-family="Arial" font-size="14.00">[&#45;]</text>
</a>
</g>
</g>
<!-- AGILumen&#45;&gt;ASlow -->
<g id="edge2" class="edge">
<title>AGILumen&#45;&gt;ASlow</title>
<path fill="none" stroke="black" d="M414.64,-679.85C414.64,-659.68 414.64,-626.86 414.64,-603.31"/>
<polygon fill="black" stroke="black" points="418.14,-603.22 414.64,-593.22 411.14,-603.22 418.14,-603.22"/>
<text text-anchor="middle" x="425.64" y="-651.3" font-family="Times,serif" font-size="14.00">_J1</text>
</g>
<!-- AGut -->
<g id="node5" class="node">
<title>AGut</title>
<g id="a_node5"><a xlink:href="#species-AGut" xlink:title="AGut&#10;[PBPKO:00496]">
<path fill="gold" stroke="black" d="M379.14,-468C379.14,-468 290.14,-468 290.14,-468 284.14,-468 278.14,-462 278.14,-456 278.14,-456 278.14,-442 278.14,-442 278.14,-436 284.14,-430 290.14,-430 290.14,-430 379.14,-430 379.14,-430 385.14,-430 391.14,-436 391.14,-442 391.14,-442 391.14,-456 391.14,-456 391.14,-462 385.14,-468 379.14,-468"/>
<text text-anchor="middle" x="334.64" y="-452.8" font-family="Arial" font-size="14.00">AGut</text>
<text text-anchor="middle" x="334.64" y="-437.8" font-family="Arial" font-size="14.00">[PBPKO:00496]</text>
</a>
</g>
</g>
<!-- AFast&#45;&gt;AGut -->
<g id="edge3" class="edge">
<title>AFast&#45;&gt;AGut</title>
<path fill="none" stroke="black" d="M267.3,-554.85C280.54,-534.23 302.28,-500.38 317.47,-476.74"/>
<polygon fill="black" stroke="black" points="320.48,-478.53 322.94,-468.22 314.59,-474.75 320.48,-478.53"/>
<text text-anchor="middle" x="298.64" y="-526.3" font-family="Times,serif" font-size="14.00">_J3</text>
</g>
<!-- AColon -->
<g id="node4" class="node">
<title>AColon</title>
<g id="a_node4"><a xlink:href="#species-AColon" xlink:title="AColon&#10;[&#45;]">
<path fill="gold" stroke="black" d="M151.14,-468C151.14,-468 114.14,-468 114.14,-468 108.14,-468 102.14,-462 102.14,-456 102.14,-456 102.14,-442 102.14,-442 102.14,-436 108.14,-430 114.14,-430 114.14,-430 151.14,-430 151.14,-430 157.14,-430 163.14,-436 163.14,-442 163.14,-442 163.14,-456 163.14,-456 163.14,-462 157.14,-468 151.14,-468"/>
<text text-anchor="middle" x="132.64" y="-452.8" font-family="Arial" font-size="14.00">AColon</text>
<text text-anchor="middle" x="132.64" y="-437.8" font-family="Arial" font-size="14.00">[&#45;]</text>
</a>
</g>
</g>
<!-- ASlow&#45;&gt;AColon -->
<g id="edge4" class="edge">
<title>ASlow&#45;&gt;AColon</title>
<path fill="none" stroke="black" d="M386.78,-555.63C366.89,-544.15 339.09,-529.9 312.64,-522.5 270.11,-510.61 254.7,-530.26 213.64,-514 192.07,-505.46 171.61,-489.19 156.65,-475.2"/>
<polygon fill="black" stroke="black" points="158.97,-472.57 149.35,-468.14 154.1,-477.61 158.97,-472.57"/>
<text text-anchor="middle" x="360.64" y="-526.3" font-family="Times,serif" font-size="14.00">_J2</text>
</g>
<!-- ASlow&#45;&gt;AGut -->
<g id="edge5" class="edge">
<title>ASlow&#45;&gt;AGut</title>
<path fill="none" stroke="black" d="M402.84,-554.85C389.43,-534.23 367.41,-500.38 352.03,-476.74"/>
<polygon fill="black" stroke="black" points="354.88,-474.7 346.49,-468.22 349.01,-478.51 354.88,-474.7"/>
<text text-anchor="middle" x="401.64" y="-526.3" font-family="Times,serif" font-size="14.00">_J4</text>
</g>
<!-- AFeces -->
<g id="node14" class="node">
<title>AFeces</title>
<g id="a_node14"><a xlink:href="#species-AFeces" xlink:title="AFeces&#10;[PBPKO:00273]">
<path fill="gold" stroke="black" d="M177.14,-343C177.14,-343 88.14,-343 88.14,-343 82.14,-343 76.14,-337 76.14,-331 76.14,-331 76.14,-317 76.14,-317 76.14,-311 82.14,-305 88.14,-305 88.14,-305 177.14,-305 177.14,-305 183.14,-305 189.14,-311 189.14,-317 189.14,-317 189.14,-331 189.14,-331 189.14,-337 183.14,-343 177.14,-343"/>
<text text-anchor="middle" x="132.64" y="-327.8" font-family="Arial" font-size="14.00">AFeces</text>
<text text-anchor="middle" x="132.64" y="-312.8" font-family="Arial" font-size="14.00">[PBPKO:00273]</text>
</a>
</g>
</g>
<!-- AColon&#45;&gt;AFeces -->
<g id="edge6" class="edge">
<title>AColon&#45;&gt;AFeces</title>
<path fill="none" stroke="black" d="M132.64,-429.85C132.64,-409.68 132.64,-376.86 132.64,-353.31"/>
<polygon fill="black" stroke="black" points="136.14,-353.22 132.64,-343.22 129.14,-353.22 136.14,-353.22"/>
<text text-anchor="middle" x="143.64" y="-401.3" font-family="Times,serif" font-size="14.00">_J5</text>
</g>
<!-- ALiver -->
<g id="node6" class="node">
<title>ALiver</title>
<g id="a_node6"><a xlink:href="#species-ALiver" xlink:title="ALiver&#10;[PBPKO:00497]">
<path fill="gold" stroke="black" d="M1019.14,-343C1019.14,-343 930.14,-343 930.14,-343 924.14,-343 918.14,-337 918.14,-331 918.14,-331 918.14,-317 918.14,-317 918.14,-311 924.14,-305 930.14,-305 930.14,-305 1019.14,-305 1019.14,-305 1025.14,-305 1031.14,-311 1031.14,-317 1031.14,-317 1031.14,-331 1031.14,-331 1031.14,-337 1025.14,-343 1019.14,-343"/>
<text text-anchor="middle" x="974.64" y="-327.8" font-family="Arial" font-size="14.00">ALiver</text>
<text text-anchor="middle" x="974.64" y="-312.8" font-family="Arial" font-size="14.00">[PBPKO:00497]</text>
</a>
</g>
</g>
<!-- AGut&#45;&gt;ALiver -->
<g id="edge7" class="edge">
<title>AGut&#45;&gt;ALiver</title>
<path fill="none" stroke="black" d="M391.45,-436.41C413.92,-431.86 439.99,-426.63 463.64,-422 622.84,-390.85 810.24,-355.65 907.87,-337.43"/>
<polygon fill="black" stroke="black" points="908.7,-340.83 917.89,-335.56 907.42,-333.95 908.7,-340.83"/>
<text text-anchor="middle" x="600.64" y="-401.3" font-family="Times,serif" font-size="14.00">_J7</text>
</g>
<!-- ALiverMet1 -->
<g id="node7" class="node">
<title>ALiverMet1</title>
<g id="a_node7"><a xlink:href="#species-ALiverMet1" xlink:title="ALiverMet1&#10;[&#45;]">
<path fill="gold" stroke="black" d="M780.64,-218C780.64,-218 718.64,-218 718.64,-218 712.64,-218 706.64,-212 706.64,-206 706.64,-206 706.64,-192 706.64,-192 706.64,-186 712.64,-180 718.64,-180 718.64,-180 780.64,-180 780.64,-180 786.64,-180 792.64,-186 792.64,-192 792.64,-192 792.64,-206 792.64,-206 792.64,-212 786.64,-218 780.64,-218"/>
<text text-anchor="middle" x="749.64" y="-202.8" font-family="Arial" font-size="14.00">ALiverMet1</text>
<text text-anchor="middle" x="749.64" y="-187.8" font-family="Arial" font-size="14.00">[&#45;]</text>
</a>
</g>
</g>
<!-- ALiver&#45;&gt;ALiverMet1 -->
<g id="edge8" class="edge">
<title>ALiver&#45;&gt;ALiverMet1</title>
<path fill="none" stroke="black" d="M917.93,-310.79C897.89,-305.24 875.62,-297.6 856.64,-287.5 825.64,-271.01 795.13,-244.79 774.67,-225.35"/>
<polygon fill="black" stroke="black" points="776.96,-222.69 767.34,-218.26 772.1,-227.73 776.96,-222.69"/>
<text text-anchor="middle" x="872.14" y="-276.3" font-family="Times,serif" font-size="14.00">_J12</text>
</g>
<!-- ALiverMet2 -->
<g id="node8" class="node">
<title>ALiverMet2</title>
<g id="a_node8"><a xlink:href="#species-ALiverMet2" xlink:title="ALiverMet2&#10;[&#45;]">
<path fill="gold" stroke="black" d="M901.64,-129C901.64,-129 839.64,-129 839.64,-129 833.64,-129 827.64,-123 827.64,-117 827.64,-117 827.64,-103 827.64,-103 827.64,-97 833.64,-91 839.64,-91 839.64,-91 901.64,-91 901.64,-91 907.64,-91 913.64,-97 913.64,-103 913.64,-103 913.64,-117 913.64,-117 913.64,-123 907.64,-129 901.64,-129"/>
<text text-anchor="middle" x="870.64" y="-113.8" font-family="Arial" font-size="14.00">ALiverMet2</text>
<text text-anchor="middle" x="870.64" y="-98.8" font-family="Arial" font-size="14.00">[&#45;]</text>
</a>
</g>
</g>
<!-- ALiver&#45;&gt;ALiverMet2 -->
<g id="edge9" class="edge">
<title>ALiver&#45;&gt;ALiverMet2</title>
<path fill="none" stroke="black" d="M965.78,-304.92C947.51,-267.69 905.59,-182.24 884.01,-138.26"/>
<polygon fill="black" stroke="black" points="887.03,-136.47 879.49,-129.03 880.75,-139.55 887.03,-136.47"/>
<text text-anchor="middle" x="959.14" y="-195.3" font-family="Times,serif" font-size="14.00">_J13</text>
</g>
<!-- ALiverMet3 -->
<g id="node9" class="node">
<title>ALiverMet3</title>
<g id="a_node9"><a xlink:href="#species-ALiverMet3" xlink:title="ALiverMet3&#10;[&#45;]">
<path fill="gold" stroke="black" d="M1014.64,-54C1014.64,-54 952.64,-54 952.64,-54 946.64,-54 940.64,-48 940.64,-42 940.64,-42 940.64,-28 940.64,-28 940.64,-22 946.64,-16 952.64,-16 952.64,-16 1014.64,-16 1014.64,-16 1020.64,-16 1026.64,-22 1026.64,-28 1026.64,-28 1026.64,-42 1026.64,-42 1026.64,-48 1020.64,-54 1014.64,-54"/>
<text text-anchor="middle" x="983.64" y="-38.8" font-family="Arial" font-size="14.00">ALiverMet3</text>
<text text-anchor="middle" x="983.64" y="-23.8" font-family="Arial" font-size="14.00">[&#45;]</text>
</a>
</g>
</g>
<!-- ALiver&#45;&gt;ALiverMet3 -->
<g id="edge10" class="edge">
<title>ALiver&#45;&gt;ALiverMet3</title>
<path fill="none" stroke="black" d="M976.08,-304.94C976.96,-293.26 978.03,-277.74 978.64,-264 981.87,-191.99 983.04,-107.08 983.44,-64.04"/>
<polygon fill="black" stroke="black" points="986.94,-64.07 983.53,-54.04 979.94,-64.01 986.94,-64.07"/>
<text text-anchor="middle" x="997.14" y="-151.3" font-family="Times,serif" font-size="14.00">_J14</text>
</g>
<!-- ALiverMet4 -->
<g id="node10" class="node">
<title>ALiverMet4</title>
<g id="a_node10"><a xlink:href="#species-ALiverMet4" xlink:title="ALiverMet4&#10;[&#45;]">
<path fill="gold" stroke="black" d="M1126.64,-218C1126.64,-218 1064.64,-218 1064.64,-218 1058.64,-218 1052.64,-212 1052.64,-206 1052.64,-206 1052.64,-192 1052.64,-192 1052.64,-186 1058.64,-180 1064.64,-180 1064.64,-180 1126.64,-180 1126.64,-180 1132.64,-180 1138.64,-186 1138.64,-192 1138.64,-192 1138.64,-206 1138.64,-206 1138.64,-212 1132.64,-218 1126.64,-218"/>
<text text-anchor="middle" x="1095.64" y="-202.8" font-family="Arial" font-size="14.00">ALiverMet4</text>
<text text-anchor="middle" x="1095.64" y="-187.8" font-family="Arial" font-size="14.00">[&#45;]</text>
</a>
</g>
</g>
<!-- ALiver&#45;&gt;ALiverMet4 -->
<g id="edge11" class="edge">
<title>ALiver&#45;&gt;ALiverMet4</title>
<path fill="none" stroke="black" d="M992.5,-304.85C1013.14,-283.87 1047.26,-249.18 1070.56,-225.5"/>
<polygon fill="black" stroke="black" points="1073.2,-227.81 1077.71,-218.22 1068.21,-222.9 1073.2,-227.81"/>
<text text-anchor="middle" x="1039.14" y="-276.3" font-family="Times,serif" font-size="14.00">_J15</text>
</g>
<!-- ABlood -->
<g id="node11" class="node">
<title>ABlood</title>
<g id="a_node11"><a xlink:href="#species-ABlood" xlink:title="ABlood&#10;[PBPKO:00623]">
<path fill="gold" stroke="black" d="M934.14,-593C934.14,-593 845.14,-593 845.14,-593 839.14,-593 833.14,-587 833.14,-581 833.14,-581 833.14,-567 833.14,-567 833.14,-561 839.14,-555 845.14,-555 845.14,-555 934.14,-555 934.14,-555 940.14,-555 946.14,-561 946.14,-567 946.14,-567 946.14,-581 946.14,-581 946.14,-587 940.14,-593 934.14,-593"/>
<text text-anchor="middle" x="889.64" y="-577.8" font-family="Arial" font-size="14.00">ABlood</text>
<text text-anchor="middle" x="889.64" y="-562.8" font-family="Arial" font-size="14.00">[PBPKO:00623]</text>
</a>
</g>
</g>
<!-- ALiver&#45;&gt;ABlood -->
<g id="edge12" class="edge">
<title>ALiver&#45;&gt;ABlood</title>
<path fill="none" stroke="black" d="M971.79,-343.03C965.98,-377.33 951.1,-453.92 925.64,-514 920.95,-525.08 914.4,-536.54 908.18,-546.37"/>
<polygon fill="black" stroke="black" points="905.16,-544.6 902.62,-554.89 911.02,-548.43 905.16,-544.6"/>
<text text-anchor="middle" x="965.64" y="-445.3" font-family="Times,serif" font-size="14.00">_J9</text>
</g>
<!-- ABile -->
<g id="node13" class="node">
<title>ABile</title>
<g id="a_node13"><a xlink:href="#species-ABile" xlink:title="ABile&#10;[&#45;]">
<path fill="gold" stroke="black" d="M1284.64,-218C1284.64,-218 1254.64,-218 1254.64,-218 1248.64,-218 1242.64,-212 1242.64,-206 1242.64,-206 1242.64,-192 1242.64,-192 1242.64,-186 1248.64,-180 1254.64,-180 1254.64,-180 1284.64,-180 1284.64,-180 1290.64,-180 1296.64,-186 1296.64,-192 1296.64,-192 1296.64,-206 1296.64,-206 1296.64,-212 1290.64,-218 1284.64,-218"/>
<text text-anchor="middle" x="1269.64" y="-202.8" font-family="Arial" font-size="14.00">ABile</text>
<text text-anchor="middle" x="1269.64" y="-187.8" font-family="Arial" font-size="14.00">[&#45;]</text>
</a>
</g>
</g>
<!-- ALiver&#45;&gt;ABile -->
<g id="edge13" class="edge">
<title>ALiver&#45;&gt;ABile</title>
<path fill="none" stroke="black" d="M1031.42,-314.33C1076.66,-305.86 1140.64,-290.31 1191.64,-264 1211.08,-253.97 1230.12,-238.5 1244.51,-225.28"/>
<polygon fill="black" stroke="black" points="1247.13,-227.62 1252.01,-218.21 1242.33,-222.53 1247.13,-227.62"/>
<text text-anchor="middle" x="1185.14" y="-276.3" font-family="Times,serif" font-size="14.00">_J16</text>
</g>
<!-- ABlood&#45;&gt;AGut -->
<g id="edge14" class="edge">
<title>ABlood&#45;&gt;AGut</title>
<path fill="none" stroke="black" d="M832.91,-570.94C750.06,-566.64 591.89,-553.54 463.64,-514 431.62,-504.13 397.77,-487.05 372.78,-473.01"/>
<polygon fill="black" stroke="black" points="374.41,-469.92 363.99,-468 370.94,-476 374.41,-469.92"/>
<text text-anchor="middle" x="565.64" y="-526.3" font-family="Times,serif" font-size="14.00">_J6</text>
</g>
<!-- ABlood&#45;&gt;ALiver -->
<g id="edge15" class="edge">
<title>ABlood&#45;&gt;ALiver</title>
<path fill="none" stroke="black" d="M935.51,-554.82C952.89,-545.41 970.84,-532.03 980.64,-514 1008.44,-462.85 994.85,-391.88 983.87,-353.09"/>
<polygon fill="black" stroke="black" points="987.09,-351.63 980.88,-343.04 980.38,-353.62 987.09,-351.63"/>
<text text-anchor="middle" x="1007.64" y="-445.3" font-family="Times,serif" font-size="14.00">_J8</text>
</g>
<!-- ARest -->
<g id="node12" class="node">
<title>ARest</title>
<g id="a_node12"><a xlink:href="#species-ARest" xlink:title="ARest&#10;[PBPKO:00501]">
<path fill="gold" stroke="black" d="M848.14,-468C848.14,-468 759.14,-468 759.14,-468 753.14,-468 747.14,-462 747.14,-456 747.14,-456 747.14,-442 747.14,-442 747.14,-436 753.14,-430 759.14,-430 759.14,-430 848.14,-430 848.14,-430 854.14,-430 860.14,-436 860.14,-442 860.14,-442 860.14,-456 860.14,-456 860.14,-462 854.14,-468 848.14,-468"/>
<text text-anchor="middle" x="803.64" y="-452.8" font-family="Arial" font-size="14.00">ARest</text>
<text text-anchor="middle" x="803.64" y="-437.8" font-family="Arial" font-size="14.00">[PBPKO:00501]</text>
</a>
</g>
</g>
<!-- ABlood&#45;&gt;ARest -->
<g id="edge16" class="edge">
<title>ABlood&#45;&gt;ARest</title>
<path fill="none" stroke="black" d="M855.64,-554.81C848.67,-549.9 841.87,-544.09 836.64,-537.5 822.83,-520.09 814.35,-496.28 809.46,-477.89"/>
<polygon fill="black" stroke="black" points="812.82,-476.92 807.03,-468.04 806.02,-478.59 812.82,-476.92"/>
<text text-anchor="middle" x="852.14" y="-526.3" font-family="Times,serif" font-size="14.00">_J10</text>
</g>
<!-- ASt -->
<g id="node15" class="node">
<title>ASt</title>
<g id="a_node15"><a xlink:href="#species-ASt" xlink:title="ASt&#10;[&#45;]">
<path fill="gold" stroke="black" d="M1213.64,-468C1213.64,-468 1183.64,-468 1183.64,-468 1177.64,-468 1171.64,-462 1171.64,-456 1171.64,-456 1171.64,-442 1171.64,-442 1171.64,-436 1177.64,-430 1183.64,-430 1183.64,-430 1213.64,-430 1213.64,-430 1219.64,-430 1225.64,-436 1225.64,-442 1225.64,-442 1225.64,-456 1225.64,-456 1225.64,-462 1219.64,-468 1213.64,-468"/>
<text text-anchor="middle" x="1198.64" y="-452.8" font-family="Arial" font-size="14.00">ASt</text>
<text text-anchor="middle" x="1198.64" y="-437.8" font-family="Arial" font-size="14.00">[&#45;]</text>
</a>
</g>
</g>
<!-- ABlood&#45;&gt;ASt -->
<g id="edge17" class="edge">
<title>ABlood&#45;&gt;ASt</title>
<path fill="none" stroke="black" d="M946.35,-570.72C988.15,-567.24 1045.52,-558.64 1091.64,-537.5 1123.95,-522.7 1154.68,-495.74 1174.85,-475.65"/>
<polygon fill="black" stroke="black" points="1177.54,-477.91 1182.05,-468.32 1172.54,-473 1177.54,-477.91"/>
<text text-anchor="middle" x="1133.14" y="-526.3" font-family="Times,serif" font-size="14.00">_J18</text>
</g>
<!-- ASpleen -->
<g id="node16" class="node">
<title>ASpleen</title>
<g id="a_node16"><a xlink:href="#species-ASpleen" xlink:title="ASpleen&#10;[&#45;]">
<path fill="gold" stroke="black" d="M617.64,-468C617.64,-468 573.64,-468 573.64,-468 567.64,-468 561.64,-462 561.64,-456 561.64,-456 561.64,-442 561.64,-442 561.64,-436 567.64,-430 573.64,-430 573.64,-430 617.64,-430 617.64,-430 623.64,-430 629.64,-436 629.64,-442 629.64,-442 629.64,-456 629.64,-456 629.64,-462 623.64,-468 617.64,-468"/>
<text text-anchor="middle" x="595.64" y="-452.8" font-family="Arial" font-size="14.00">ASpleen</text>
<text text-anchor="middle" x="595.64" y="-437.8" font-family="Arial" font-size="14.00">[&#45;]</text>
</a>
</g>
</g>
<!-- ABlood&#45;&gt;ASpleen -->
<g id="edge18" class="edge">
<title>ABlood&#45;&gt;ASpleen</title>
<path fill="none" stroke="black" d="M832.74,-562.51C790,-553.29 730.79,-537.61 682.64,-514 661.42,-503.59 640.01,-487.92 623.74,-474.69"/>
<polygon fill="black" stroke="black" points="625.66,-471.73 615.73,-468.04 621.18,-477.12 625.66,-471.73"/>
<text text-anchor="middle" x="752.14" y="-526.3" font-family="Times,serif" font-size="14.00">_J20</text>
</g>
<!-- ARest&#45;&gt;ABlood -->
<g id="edge19" class="edge">
<title>ARest&#45;&gt;ABlood</title>
<path fill="none" stroke="black" d="M822.5,-468.07C836.29,-482 854.75,-502.25 867.64,-522.5 872.12,-529.53 876.1,-537.63 879.4,-545.26"/>
<polygon fill="black" stroke="black" points="876.18,-546.62 883.21,-554.54 882.65,-543.96 876.18,-546.62"/>
<text text-anchor="middle" x="891.14" y="-526.3" font-family="Times,serif" font-size="14.00">_J11</text>
</g>
<!-- ABile&#45;&gt;AGILumen -->
<g id="edge20" class="edge">
<title>ABile&#45;&gt;AGILumen</title>
<path fill="none" stroke="black" d="M1296.66,-213.85C1330.37,-233.28 1383.64,-272.05 1383.64,-323 1383.64,-575 1383.64,-575 1383.64,-575 1383.64,-668.29 667.6,-692.08 466.57,-696.92"/>
<polygon fill="black" stroke="black" points="466.19,-693.43 456.28,-697.17 466.36,-700.43 466.19,-693.43"/>
<text text-anchor="middle" x="1399.14" y="-445.3" font-family="Times,serif" font-size="14.00">_J17</text>
</g>
<!-- ASt&#45;&gt;ALiver -->
<g id="edge21" class="edge">
<title>ASt&#45;&gt;ALiver</title>
<path fill="none" stroke="black" d="M1171.62,-433.16C1133.09,-412 1061.99,-372.96 1016.57,-348.02"/>
<polygon fill="black" stroke="black" points="1018.02,-344.83 1007.57,-343.08 1014.65,-350.96 1018.02,-344.83"/>
<text text-anchor="middle" x="1147.14" y="-401.3" font-family="Times,serif" font-size="14.00">_J19</text>
</g>
<!-- ASpleen&#45;&gt;ALiver -->
<g id="edge22" class="edge">
<title>ASpleen&#45;&gt;ALiver</title>
<path fill="none" stroke="black" d="M629.94,-436.87C692.98,-416.41 828.19,-372.53 909.27,-346.21"/>
<polygon fill="black" stroke="black" points="910.45,-349.51 918.88,-343.1 908.29,-342.85 910.45,-349.51"/>
<text text-anchor="middle" x="766.14" y="-401.3" font-family="Times,serif" font-size="14.00">_J21</text>
</g>
</g>
</svg>
