<?xml version="1.0" encoding="UTF-8" standalone="no"?>
<!DOCTYPE svg PUBLIC "-//W3C//DTD SVG 1.1//EN"
 "http://www.w3.org/Graphics/SVG/1.1/DTD/svg11.dtd">
<!-- Generated by graphviz version 2.43.0 (0)
 -->
<!-- Title: %3 Pages: 1 -->
<svg width="502pt" height="288pt"
 viewBox="0.00 0.00 501.78 288.00" xmlns="http://www.w3.org/2000/svg" xmlns:xlink="http://www.w3.org/1999/xlink">
<g id="graph0" class="graph" transform="scale(0.37 0.37) rotate(0) translate(4 776)">
<title>%3</title>
<polygon fill="white" stroke="transparent" points="-4,4 -4,-776 1355,-776 1355,4 -4,4"/>
<g id="clust1" class="cluster">
<title>cluster_GILumen</title>
<g id="a_clust1"><a xlink:href="#compartment-GILumen" xlink:title="GILumen&#10;[&#45;]">
<path fill="lightblue" stroke="black" d="M288.42,-672C288.42,-672 447.49,-672 447.49,-672 453.49,-672 459.49,-678 459.49,-684 459.49,-684 459.49,-752 459.49,-752 459.49,-758 453.49,-764 447.49,-764 447.49,-764 288.42,-764 288.42,-764 282.42,-764 276.42,-758 276.42,-752 276.42,-752 276.42,-684 276.42,-684 276.42,-678 282.42,-672 288.42,-672"/>
<text text-anchor="middle" x="367.96" y="-748.8" font-family="Arial" font-size="14.00">GILumen</text>
<text text-anchor="middle" x="367.96" y="-733.8" font-family="Arial" font-size="14.00">[&#45;]</text>
</a>
</g>
</g>
<g id="clust2" class="cluster">
<title>cluster_Fast</title>
<g id="a_clust2"><a xlink:href="#compartment-Fast" xlink:title="Fast&#10;[&#45;]">
<path fill="lightblue" stroke="black" d="M162.11,-547C162.11,-547 266.25,-547 266.25,-547 272.25,-547 278.25,-553 278.25,-559 278.25,-559 278.25,-627 278.25,-627 278.25,-633 272.25,-639 266.25,-639 266.25,-639 162.11,-639 162.11,-639 156.11,-639 150.11,-633 150.11,-627 150.11,-627 150.11,-559 150.11,-559 150.11,-553 156.11,-547 162.11,-547"/>
<text text-anchor="middle" x="214.18" y="-623.8" font-family="Arial" font-size="14.00">Fast</text>
<text text-anchor="middle" x="214.18" y="-608.8" font-family="Arial" font-size="14.00">[&#45;]</text>
</a>
</g>
</g>
<g id="clust3" class="cluster">
<title>cluster_Slow</title>
<g id="a_clust3"><a xlink:href="#compartment-Slow" xlink:title="Slow&#10;[&#45;]">
<path fill="lightblue" stroke="black" d="M314.05,-547C314.05,-547 421.86,-547 421.86,-547 427.86,-547 433.86,-553 433.86,-559 433.86,-559 433.86,-627 433.86,-627 433.86,-633 427.86,-639 421.86,-639 421.86,-639 314.05,-639 314.05,-639 308.05,-639 302.05,-633 302.05,-627 302.05,-627 302.05,-559 302.05,-559 302.05,-553 308.05,-547 314.05,-547"/>
<text text-anchor="middle" x="367.96" y="-623.8" font-family="Arial" font-size="14.00">Slow</text>
<text text-anchor="middle" x="367.96" y="-608.8" font-family="Arial" font-size="14.00">[&#45;]</text>
</a>
</g>
</g>
<g id="clust4" class="cluster">
<title>cluster_Colon</title>
<g id="a_clust4"><a xlink:href="#compartment-Colon" xlink:title="Colon&#10;[&#45;]">
<path fill="lightblue" stroke="black" d="M26.64,-422C26.64,-422 145.43,-422 145.43,-422 151.43,-422 157.43,-428 157.43,-434 157.43,-434 157.43,-502 157.43,-502 157.43,-508 151.43,-514 145.43,-514 145.43,-514 26.64,-514 26.64,-514 20.64,-514 14.64,-508 14.64,-502 14.64,-502 14.64,-434 14.64,-434 14.64,-428 20.64,-422 26.64,-422"/>
<text text-anchor="middle" x="86.04" y="-498.8" font-family="Arial" font-size="14.00">Colon</text>
<text text-anchor="middle" x="86.04" y="-483.8" font-family="Arial" font-size="14.00">[&#45;]</text>
</a>
</g>
</g>
<g id="clust5" class="cluster">
<title>cluster_Gut</title>
<g id="a_clust5"><a xlink:href="#compartment-Gut" xlink:title="Gut&#10;[PBPKO:00477]">
<path fill="lightblue" stroke="black" d="M184.08,-422C184.08,-422 398.06,-422 398.06,-422 404.06,-422 410.06,-428 410.06,-434 410.06,-434 410.06,-502 410.06,-502 410.06,-508 404.06,-514 398.06,-514 398.06,-514 184.08,-514 184.08,-514 178.08,-514 172.08,-508 172.08,-502 172.08,-502 172.08,-434 172.08,-434 172.08,-428 178.08,-422 184.08,-422"/>
<text text-anchor="middle" x="291.07" y="-498.8" font-family="Arial" font-size="14.00">Gut</text>
<text text-anchor="middle" x="291.07" y="-483.8" font-family="Arial" font-size="14.00">[PBPKO:00477]</text>
</a>
</g>
</g>
<g id="clust6" class="cluster">
<title>cluster_Liver</title>
<g id="a_clust6"><a xlink:href="#compartment-Liver" xlink:title="Liver&#10;[&#45;]">
<path fill="lightblue" stroke="black" d="M654.55,-8C654.55,-8 1166.92,-8 1166.92,-8 1172.92,-8 1178.92,-14 1178.92,-20 1178.92,-20 1178.92,-377 1178.92,-377 1178.92,-383 1172.92,-389 1166.92,-389 1166.92,-389 654.55,-389 654.55,-389 648.55,-389 642.55,-383 642.55,-377 642.55,-377 642.55,-20 642.55,-20 642.55,-14 648.55,-8 654.55,-8"/>
<text text-anchor="middle" x="910.74" y="-373.8" font-family="Arial" font-size="14.00">Liver</text>
<text text-anchor="middle" x="910.74" y="-358.8" font-family="Arial" font-size="14.00">[&#45;]</text>
</a>
</g>
</g>
<g id="clust7" class="cluster">
<title>cluster_Blood</title>
<g id="a_clust7"><a xlink:href="#compartment-Blood" xlink:title="Blood&#10;[PBPKO:00464]">
<path fill="lightblue" stroke="black" d="M760.72,-547C760.72,-547 943.59,-547 943.59,-547 949.59,-547 955.59,-553 955.59,-559 955.59,-559 955.59,-627 955.59,-627 955.59,-633 949.59,-639 943.59,-639 943.59,-639 760.72,-639 760.72,-639 754.72,-639 748.72,-633 748.72,-627 748.72,-627 748.72,-559 748.72,-559 748.72,-553 754.72,-547 760.72,-547"/>
<text text-anchor="middle" x="852.16" y="-623.8" font-family="Arial" font-size="14.00">Blood</text>
<text text-anchor="middle" x="852.16" y="-608.8" font-family="Arial" font-size="14.00">[PBPKO:00464]</text>
</a>
</g>
</g>
<g id="clust8" class="cluster">
<title>cluster_Rest</title>
<g id="a_clust8"><a xlink:href="#compartment-Rest" xlink:title="Rest&#10;[PBPKO:00450]">
<path fill="lightblue" stroke="black" d="M658.21,-422C658.21,-422 872.19,-422 872.19,-422 878.19,-422 884.19,-428 884.19,-434 884.19,-434 884.19,-502 884.19,-502 884.19,-508 878.19,-514 872.19,-514 872.19,-514 658.21,-514 658.21,-514 652.21,-514 646.21,-508 646.21,-502 646.21,-502 646.21,-434 646.21,-434 646.21,-428 652.21,-422 658.21,-422"/>
<text text-anchor="middle" x="765.2" y="-498.8" font-family="Arial" font-size="14.00">Rest</text>
<text text-anchor="middle" x="765.2" y="-483.8" font-family="Arial" font-size="14.00">[PBPKO:00450]</text>
</a>
</g>
</g>
<g id="clust9" class="cluster">
<title>cluster_Bile</title>
<g id="a_clust9"><a xlink:href="#compartment-Bile" xlink:title="Bile&#10;[&#45;]">
<path fill="lightblue" stroke="black" d="M1220.21,-172C1220.21,-172 1324.36,-172 1324.36,-172 1330.36,-172 1336.36,-178 1336.36,-184 1336.36,-184 1336.36,-252 1336.36,-252 1336.36,-258 1330.36,-264 1324.36,-264 1324.36,-264 1220.21,-264 1220.21,-264 1214.21,-264 1208.21,-258 1208.21,-252 1208.21,-252 1208.21,-184 1208.21,-184 1208.21,-178 1214.21,-172 1220.21,-172"/>
<text text-anchor="middle" x="1272.28" y="-248.8" font-family="Arial" font-size="14.00">Bile</text>
<text text-anchor="middle" x="1272.28" y="-233.8" font-family="Arial" font-size="14.00">[&#45;]</text>
</a>
</g>
</g>
<g id="clust10" class="cluster">
<title>cluster_Feces</title>
<g id="a_clust10"><a xlink:href="#compartment-Feces" xlink:title="Feces&#10;[&#45;]">
<path fill="lightblue" stroke="black" d="M26.64,-297C26.64,-297 145.43,-297 145.43,-297 151.43,-297 157.43,-303 157.43,-309 157.43,-309 157.43,-377 157.43,-377 157.43,-383 151.43,-389 145.43,-389 145.43,-389 26.64,-389 26.64,-389 20.64,-389 14.64,-383 14.64,-377 14.64,-377 14.64,-309 14.64,-309 14.64,-303 20.64,-297 26.64,-297"/>
<text text-anchor="middle" x="86.04" y="-373.8" font-family="Arial" font-size="14.00">Feces</text>
<text text-anchor="middle" x="86.04" y="-358.8" font-family="Arial" font-size="14.00">[&#45;]</text>
</a>
</g>
</g>
<g id="clust11" class="cluster">
<title>cluster_Stomach</title>
<g id="a_clust11"><a xlink:href="#compartment-Stomach" xlink:title="Stomach&#10;[&#45;]">
<path fill="lightblue" stroke="black" d="M1110.37,-422C1110.37,-422 1216.35,-422 1216.35,-422 1222.35,-422 1228.35,-428 1228.35,-434 1228.35,-434 1228.35,-502 1228.35,-502 1228.35,-508 1222.35,-514 1216.35,-514 1216.35,-514 1110.37,-514 1110.37,-514 1104.37,-514 1098.37,-508 1098.37,-502 1098.37,-502 1098.37,-434 1098.37,-434 1098.37,-428 1104.37,-422 1110.37,-422"/>
<text text-anchor="middle" x="1163.36" y="-498.8" font-family="Arial" font-size="14.00">Stomach</text>
<text text-anchor="middle" x="1163.36" y="-483.8" font-family="Arial" font-size="14.00">[&#45;]</text>
</a>
</g>
</g>
<g id="clust12" class="cluster">
<title>cluster_Spleen</title>
<g id="a_clust12"><a xlink:href="#compartment-Spleen" xlink:title="Spleen&#10;[PBPKO:00492]">
<path fill="lightblue" stroke="black" d="M436.7,-422C436.7,-422 619.57,-422 619.57,-422 625.57,-422 631.57,-428 631.57,-434 631.57,-434 631.57,-502 631.57,-502 631.57,-508 625.57,-514 619.57,-514 619.57,-514 436.7,-514 436.7,-514 430.7,-514 424.7,-508 424.7,-502 424.7,-502 424.7,-434 424.7,-434 424.7,-428 430.7,-422 436.7,-422"/>
<text text-anchor="middle" x="528.13" y="-498.8" font-family="Arial" font-size="14.00">Spleen</text>
<text text-anchor="middle" x="528.13" y="-483.8" font-family="Arial" font-size="14.00">[PBPKO:00492]</text>
</a>
</g>
</g>
<!-- AGILumen -->
<g id="node1" class="node">
<title>AGILumen</title>
<g id="a_node1"><a xlink:href="#species-AGILumen" xlink:title="AGILumen&#10;[&#45;]">
<path fill="gold" stroke="black" d="M397.77,-718C397.77,-718 338.77,-718 338.77,-718 332.77,-718 326.77,-712 326.77,-706 326.77,-706 326.77,-692 326.77,-692 326.77,-686 332.77,-680 338.77,-680 338.77,-680 397.77,-680 397.77,-680 403.77,-680 409.77,-686 409.77,-692 409.77,-692 409.77,-706 409.77,-706 409.77,-712 403.77,-718 397.77,-718"/>
<text text-anchor="middle" x="368.27" y="-702.8" font-family="Arial" font-size="14.00">AGILumen</text>
<text text-anchor="middle" x="368.27" y="-687.8" font-family="Arial" font-size="14.00">[&#45;]</text>
</a>
</g>
</g>
<!-- AFast -->
<g id="node2" class="node">
<title>AFast</title>
<g id="a_node2"><a xlink:href="#species-AFast" xlink:title="AFast&#10;[&#45;]">
<path fill="gold" stroke="black" d="M229.27,-593C229.27,-593 199.27,-593 199.27,-593 193.27,-593 187.27,-587 187.27,-581 187.27,-581 187.27,-567 187.27,-567 187.27,-561 193.27,-555 199.27,-555 199.27,-555 229.27,-555 229.27,-555 235.27,-555 241.27,-561 241.27,-567 241.27,-567 241.27,-581 241.27,-581 241.27,-587 235.27,-593 229.27,-593"/>
<text text-anchor="middle" x="214.27" y="-577.8" font-family="Arial" font-size="14.00">AFast</text>
<text text-anchor="middle" x="214.27" y="-562.8" font-family="Arial" font-size="14.00">[&#45;]</text>
</a>
</g>
</g>
<!-- AGILumen&#45;&gt;AFast -->
<g id="edge1" class="edge">
<title>AGILumen&#45;&gt;AFast</title>
<path fill="none" stroke="black" d="M345.55,-679.85C318.86,-658.53 274.46,-623.08 244.79,-599.37"/>
<polygon fill="black" stroke="black" points="246.83,-596.53 236.84,-593.02 242.47,-602 246.83,-596.53"/>
<text text-anchor="middle" x="333.27" y="-651.3" font-family="Times,serif" font-size="14.00">_J0</text>
</g>
<!-- ASlow -->
<g id="node3" class="node">
<title>ASlow</title>
<g id="a_node3"><a xlink:href="#species-ASlow" xlink:title="ASlow&#10;[&#45;]">
<path fill="gold" stroke="black" d="M383.77,-593C383.77,-593 352.77,-593 352.77,-593 346.77,-593 340.77,-587 340.77,-581 340.77,-581 340.77,-567 340.77,-567 340.77,-561 346.77,-555 352.77,-555 352.77,-555 383.77,-555 383.77,-555 389.77,-555 395.77,-561 395.77,-567 395.77,-567 395.77,-581 395.77,-581 395.77,-587 389.77,-593 383.77,-593"/>
<text text-anchor="middle" x="368.27" y="-577.8" font-family="Arial" font-size="14.00">ASlow</text>
<text text-anchor="middle" x="368.27" y="-562.8" font-family="Arial" font-size="14.00">[&#45;]</text>
</a>
</g>
</g>
<!-- AGILumen&#45;&gt;ASlow -->
<g id="edge2" class="edge">
<title>AGILumen&#45;&gt;ASlow</title>
<path fill="none" stroke="black" d="M368.27,-679.85C368.27,-659.68 368.27,-626.86 368.27,-603.31"/>
<polygon fill="black" stroke="black" points="371.77,-603.22 368.27,-593.22 364.77,-603.22 371.77,-603.22"/>
<text text-anchor="middle" x="379.27" y="-651.3" font-family="Times,serif" font-size="14.00">_J1</text>
</g>
<!-- AGut -->
<g id="node5" class="node">
<title>AGut</title>
<g id="a_node5"><a xlink:href="#species-AGut" xlink:title="AGut&#10;[PBPKO:00496]">
<path fill="gold" stroke="black" d="M335.77,-468C335.77,-468 246.77,-468 246.77,-468 240.77,-468 234.77,-462 234.77,-456 234.77,-456 234.77,-442 234.77,-442 234.77,-436 240.77,-430 246.77,-430 246.77,-430 335.77,-430 335.77,-430 341.77,-430 347.77,-436 347.77,-442 347.77,-442 347.77,-456 347.77,-456 347.77,-462 341.77,-468 335.77,-468"/>
<text text-anchor="middle" x="291.27" y="-452.8" font-family="Arial" font-size="14.00">AGut</text>
<text text-anchor="middle" x="291.27" y="-437.8" font-family="Arial" font-size="14.00">[PBPKO:00496]</text>
</a>
</g>
</g>
<!-- AFast&#45;&gt;AGut -->
<g id="edge3" class="edge">
<title>AFast&#45;&gt;AGut</title>
<path fill="none" stroke="black" d="M225.63,-554.85C238.54,-534.23 259.73,-500.38 274.53,-476.74"/>
<polygon fill="black" stroke="black" points="277.52,-478.56 279.86,-468.22 271.59,-474.84 277.52,-478.56"/>
<text text-anchor="middle" x="257.27" y="-526.3" font-family="Times,serif" font-size="14.00">_J3</text>
</g>
<!-- AColon -->
<g id="node4" class="node">
<title>AColon</title>
<g id="a_node4"><a xlink:href="#species-AColon" xlink:title="AColon&#10;[&#45;]">
<path fill="gold" stroke="black" d="M104.77,-468C104.77,-468 67.77,-468 67.77,-468 61.77,-468 55.77,-462 55.77,-456 55.77,-456 55.77,-442 55.77,-442 55.77,-436 61.77,-430 67.77,-430 67.77,-430 104.77,-430 104.77,-430 110.77,-430 116.77,-436 116.77,-442 116.77,-442 116.77,-456 116.77,-456 116.77,-462 110.77,-468 104.77,-468"/>
<text text-anchor="middle" x="86.27" y="-452.8" font-family="Arial" font-size="14.00">AColon</text>
<text text-anchor="middle" x="86.27" y="-437.8" font-family="Arial" font-size="14.00">[&#45;]</text>
</a>
</g>
</g>
<!-- ASlow&#45;&gt;AColon -->
<g id="edge4" class="edge">
<title>ASlow&#45;&gt;AColon</title>
<path fill="none" stroke="black" d="M340.46,-555.11C321.26,-543.7 294.69,-529.75 269.27,-522.5 225.95,-510.14 210.22,-530.43 168.27,-514 146.51,-505.47 125.79,-489.21 110.62,-475.21"/>
<polygon fill="black" stroke="black" points="112.87,-472.52 103.22,-468.15 108.04,-477.58 112.87,-472.52"/>
<text text-anchor="middle" x="316.27" y="-526.3" font-family="Times,serif" font-size="14.00">_J2</text>
</g>
<!-- ASlow&#45;&gt;AGut -->
<g id="edge5" class="edge">
<title>ASlow&#45;&gt;AGut</title>
<path fill="none" stroke="black" d="M356.91,-554.85C344,-534.23 322.81,-500.38 308.01,-476.74"/>
<polygon fill="black" stroke="black" points="310.95,-474.84 302.68,-468.22 305.02,-478.56 310.95,-474.84"/>
<text text-anchor="middle" x="356.27" y="-526.3" font-family="Times,serif" font-size="14.00">_J4</text>
</g>
<!-- AFeces -->
<g id="node14" class="node">
<title>AFeces</title>
<g id="a_node14"><a xlink:href="#species-AFeces" xlink:title="AFeces&#10;[&#45;]">
<path fill="gold" stroke="black" d="M105.27,-343C105.27,-343 67.27,-343 67.27,-343 61.27,-343 55.27,-337 55.27,-331 55.27,-331 55.27,-317 55.27,-317 55.27,-311 61.27,-305 67.27,-305 67.27,-305 105.27,-305 105.27,-305 111.27,-305 117.27,-311 117.27,-317 117.27,-317 117.27,-331 117.27,-331 117.27,-337 111.27,-343 105.27,-343"/>
<text text-anchor="middle" x="86.27" y="-327.8" font-family="Arial" font-size="14.00">AFeces</text>
<text text-anchor="middle" x="86.27" y="-312.8" font-family="Arial" font-size="14.00">[&#45;]</text>
</a>
</g>
</g>
<!-- AColon&#45;&gt;AFeces -->
<g id="edge6" class="edge">
<title>AColon&#45;&gt;AFeces</title>
<path fill="none" stroke="black" d="M86.27,-429.85C86.27,-409.68 86.27,-376.86 86.27,-353.31"/>
<polygon fill="black" stroke="black" points="89.77,-353.22 86.27,-343.22 82.77,-353.22 89.77,-353.22"/>
<text text-anchor="middle" x="97.27" y="-401.3" font-family="Times,serif" font-size="14.00">_J5</text>
</g>
<!-- ALiver -->
<g id="node6" class="node">
<title>ALiver</title>
<g id="a_node6"><a xlink:href="#species-ALiver" xlink:title="ALiver&#10;[PBPKO:00497]">
<path fill="gold" stroke="black" d="M987.77,-343C987.77,-343 898.77,-343 898.77,-343 892.77,-343 886.77,-337 886.77,-331 886.77,-331 886.77,-317 886.77,-317 886.77,-311 892.77,-305 898.77,-305 898.77,-305 987.77,-305 987.77,-305 993.77,-305 999.77,-311 999.77,-317 999.77,-317 999.77,-331 999.77,-331 999.77,-337 993.77,-343 987.77,-343"/>
<text text-anchor="middle" x="943.27" y="-327.8" font-family="Arial" font-size="14.00">ALiver</text>
<text text-anchor="middle" x="943.27" y="-312.8" font-family="Arial" font-size="14.00">[PBPKO:00497]</text>
</a>
</g>
</g>
<!-- AGut&#45;&gt;ALiver -->
<g id="edge7" class="edge">
<title>AGut&#45;&gt;ALiver</title>
<path fill="none" stroke="black" d="M348.07,-436.36C370.54,-431.8 396.61,-426.58 420.27,-422 584.19,-390.28 777.42,-354.99 876.82,-336.98"/>
<polygon fill="black" stroke="black" points="877.5,-340.42 886.72,-335.19 876.26,-333.53 877.5,-340.42"/>
<text text-anchor="middle" x="545.27" y="-401.3" font-family="Times,serif" font-size="14.00">_J7</text>
</g>
<!-- ALiverMet1 -->
<g id="node7" class="node">
<title>ALiverMet1</title>
<g id="a_node7"><a xlink:href="#species-ALiverMet1" xlink:title="ALiverMet1&#10;[&#45;]">
<path fill="gold" stroke="black" d="M767.27,-218C767.27,-218 705.27,-218 705.27,-218 699.27,-218 693.27,-212 693.27,-206 693.27,-206 693.27,-192 693.27,-192 693.27,-186 699.27,-180 705.27,-180 705.27,-180 767.27,-180 767.27,-180 773.27,-180 779.27,-186 779.27,-192 779.27,-192 779.27,-206 779.27,-206 779.27,-212 773.27,-218 767.27,-218"/>
<text text-anchor="middle" x="736.27" y="-202.8" font-family="Arial" font-size="14.00">ALiverMet1</text>
<text text-anchor="middle" x="736.27" y="-187.8" font-family="Arial" font-size="14.00">[&#45;]</text>
</a>
</g>
</g>
<!-- ALiver&#45;&gt;ALiverMet1 -->
<g id="edge8" class="edge">
<title>ALiver&#45;&gt;ALiverMet1</title>
<path fill="none" stroke="black" d="M886.58,-306.36C872.35,-301.2 857.4,-294.89 844.27,-287.5 813.69,-270.29 783,-244.4 762.2,-225.24"/>
<polygon fill="black" stroke="black" points="764.42,-222.53 754.73,-218.26 759.64,-227.64 764.42,-222.53"/>
<text text-anchor="middle" x="859.77" y="-276.3" font-family="Times,serif" font-size="14.00">_J12</text>
</g>
<!-- ALiverMet2 -->
<g id="node8" class="node">
<title>ALiverMet2</title>
<g id="a_node8"><a xlink:href="#species-ALiverMet2" xlink:title="ALiverMet2&#10;[&#45;]">
<path fill="gold" stroke="black" d="M889.27,-129C889.27,-129 827.27,-129 827.27,-129 821.27,-129 815.27,-123 815.27,-117 815.27,-117 815.27,-103 815.27,-103 815.27,-97 821.27,-91 827.27,-91 827.27,-91 889.27,-91 889.27,-91 895.27,-91 901.27,-97 901.27,-103 901.27,-103 901.27,-117 901.27,-117 901.27,-123 895.27,-129 889.27,-129"/>
<text text-anchor="middle" x="858.27" y="-113.8" font-family="Arial" font-size="14.00">ALiverMet2</text>
<text text-anchor="middle" x="858.27" y="-98.8" font-family="Arial" font-size="14.00">[&#45;]</text>
</a>
</g>
</g>
<!-- ALiver&#45;&gt;ALiverMet2 -->
<g id="edge9" class="edge">
<title>ALiver&#45;&gt;ALiverMet2</title>
<path fill="none" stroke="black" d="M936.02,-304.92C921.13,-267.77 886.98,-182.6 869.31,-138.54"/>
<polygon fill="black" stroke="black" points="872.47,-137.01 865.5,-129.03 865.97,-139.61 872.47,-137.01"/>
<text text-anchor="middle" x="933.77" y="-195.3" font-family="Times,serif" font-size="14.00">_J13</text>
</g>
<!-- ALiverMet3 -->
<g id="node9" class="node">
<title>ALiverMet3</title>
<g id="a_node9"><a xlink:href="#species-ALiverMet3" xlink:title="ALiverMet3&#10;[&#45;]">
<path fill="gold" stroke="black" d="M1003.27,-54C1003.27,-54 941.27,-54 941.27,-54 935.27,-54 929.27,-48 929.27,-42 929.27,-42 929.27,-28 929.27,-28 929.27,-22 935.27,-16 941.27,-16 941.27,-16 1003.27,-16 1003.27,-16 1009.27,-16 1015.27,-22 1015.27,-28 1015.27,-28 1015.27,-42 1015.27,-42 1015.27,-48 1009.27,-54 1003.27,-54"/>
<text text-anchor="middle" x="972.27" y="-38.8" font-family="Arial" font-size="14.00">ALiverMet3</text>
<text text-anchor="middle" x="972.27" y="-23.8" font-family="Arial" font-size="14.00">[&#45;]</text>
</a>
</g>
</g>
<!-- ALiver&#45;&gt;ALiverMet3 -->
<g id="edge10" class="edge">
<title>ALiver&#45;&gt;ALiverMet3</title>
<path fill="none" stroke="black" d="M946.73,-304.98C948.87,-293.33 951.53,-277.81 953.27,-264 962.32,-192.25 968.11,-107.23 970.7,-64.11"/>
<polygon fill="black" stroke="black" points="974.19,-64.27 971.29,-54.08 967.21,-63.86 974.19,-64.27"/>
<text text-anchor="middle" x="979.77" y="-151.3" font-family="Times,serif" font-size="14.00">_J14</text>
</g>
<!-- ALiverMet4 -->
<g id="node10" class="node">
<title>ALiverMet4</title>
<g id="a_node10"><a xlink:href="#species-ALiverMet4" xlink:title="ALiverMet4&#10;[&#45;]">
<path fill="gold" stroke="black" d="M1116.27,-218C1116.27,-218 1054.27,-218 1054.27,-218 1048.27,-218 1042.27,-212 1042.27,-206 1042.27,-206 1042.27,-192 1042.27,-192 1042.27,-186 1048.27,-180 1054.27,-180 1054.27,-180 1116.27,-180 1116.27,-180 1122.27,-180 1128.27,-186 1128.27,-192 1128.27,-192 1128.27,-206 1128.27,-206 1128.27,-212 1122.27,-218 1116.27,-218"/>
<text text-anchor="middle" x="1085.27" y="-202.8" font-family="Arial" font-size="14.00">ALiverMet4</text>
<text text-anchor="middle" x="1085.27" y="-187.8" font-family="Arial" font-size="14.00">[&#45;]</text>
</a>
</g>
</g>
<!-- ALiver&#45;&gt;ALiverMet4 -->
<g id="edge11" class="edge">
<title>ALiver&#45;&gt;ALiverMet4</title>
<path fill="none" stroke="black" d="M964.22,-304.85C988.66,-283.69 1029.19,-248.58 1056.54,-224.88"/>
<polygon fill="black" stroke="black" points="1058.97,-227.42 1064.23,-218.22 1054.38,-222.13 1058.97,-227.42"/>
<text text-anchor="middle" x="1016.77" y="-276.3" font-family="Times,serif" font-size="14.00">_J15</text>
</g>
<!-- ABlood -->
<g id="node11" class="node">
<title>ABlood</title>
<g id="a_node11"><a xlink:href="#species-ABlood" xlink:title="ABlood&#10;[&#45;]">
<path fill="gold" stroke="black" d="M869.27,-593C869.27,-593 833.27,-593 833.27,-593 827.27,-593 821.27,-587 821.27,-581 821.27,-581 821.27,-567 821.27,-567 821.27,-561 827.27,-555 833.27,-555 833.27,-555 869.27,-555 869.27,-555 875.27,-555 881.27,-561 881.27,-567 881.27,-567 881.27,-581 881.27,-581 881.27,-587 875.27,-593 869.27,-593"/>
<text text-anchor="middle" x="851.27" y="-577.8" font-family="Arial" font-size="14.00">ABlood</text>
<text text-anchor="middle" x="851.27" y="-562.8" font-family="Arial" font-size="14.00">[&#45;]</text>
</a>
</g>
</g>
<!-- ALiver&#45;&gt;ABlood -->
<g id="edge12" class="edge">
<title>ALiver&#45;&gt;ABlood</title>
<path fill="none" stroke="black" d="M939.77,-343.04C932.73,-377.36 915.19,-453.98 888.27,-514 883.31,-525.06 876.55,-536.52 870.18,-546.35"/>
<polygon fill="black" stroke="black" points="867.13,-544.61 864.48,-554.87 872.95,-548.5 867.13,-544.61"/>
<text text-anchor="middle" x="930.27" y="-445.3" font-family="Times,serif" font-size="14.00">_J9</text>
</g>
<!-- ABile -->
<g id="node13" class="node">
<title>ABile</title>
<g id="a_node13"><a xlink:href="#species-ABile" xlink:title="ABile&#10;[&#45;]">
<path fill="gold" stroke="black" d="M1287.27,-218C1287.27,-218 1257.27,-218 1257.27,-218 1251.27,-218 1245.27,-212 1245.27,-206 1245.27,-206 1245.27,-192 1245.27,-192 1245.27,-186 1251.27,-180 1257.27,-180 1257.27,-180 1287.27,-180 1287.27,-180 1293.27,-180 1299.27,-186 1299.27,-192 1299.27,-192 1299.27,-206 1299.27,-206 1299.27,-212 1293.27,-218 1287.27,-218"/>
<text text-anchor="middle" x="1272.27" y="-202.8" font-family="Arial" font-size="14.00">ABile</text>
<text text-anchor="middle" x="1272.27" y="-187.8" font-family="Arial" font-size="14.00">[&#45;]</text>
</a>
</g>
</g>
<!-- ALiver&#45;&gt;ABile -->
<g id="edge13" class="edge">
<title>ALiver&#45;&gt;ABile</title>
<path fill="none" stroke="black" d="M1000.1,-315.31C1050.06,-307.1 1123.86,-291.41 1183.27,-264 1205.05,-253.95 1226.96,-238.29 1243.59,-224.97"/>
<polygon fill="black" stroke="black" points="1246.26,-227.31 1251.77,-218.26 1241.82,-221.89 1246.26,-227.31"/>
<text text-anchor="middle" x="1173.77" y="-276.3" font-family="Times,serif" font-size="14.00">_J16</text>
</g>
<!-- ABlood&#45;&gt;AGut -->
<g id="edge14" class="edge">
<title>ABlood&#45;&gt;AGut</title>
<path fill="none" stroke="black" d="M821.03,-572.21C749.68,-569.62 565.91,-558.78 420.27,-514 388.24,-504.15 354.39,-487.07 329.4,-473.03"/>
<polygon fill="black" stroke="black" points="331.04,-469.93 320.62,-468.02 327.56,-476.01 331.04,-469.93"/>
<text text-anchor="middle" x="523.27" y="-526.3" font-family="Times,serif" font-size="14.00">_J6</text>
</g>
<!-- ABlood&#45;&gt;ALiver -->
<g id="edge15" class="edge">
<title>ABlood&#45;&gt;ALiver</title>
<path fill="none" stroke="black" d="M881.34,-563.13C903.39,-554.13 931.75,-538.45 945.27,-514 973.43,-463.08 961.62,-392.02 951.7,-353.15"/>
<polygon fill="black" stroke="black" points="954.97,-351.83 948.99,-343.08 948.21,-353.65 954.97,-351.83"/>
<text text-anchor="middle" x="973.27" y="-445.3" font-family="Times,serif" font-size="14.00">_J8</text>
</g>
<!-- ARest -->
<g id="node12" class="node">
<title>ARest</title>
<g id="a_node12"><a xlink:href="#species-ARest" xlink:title="ARest&#10;[PBPKO:00501]">
<path fill="gold" stroke="black" d="M809.77,-468C809.77,-468 720.77,-468 720.77,-468 714.77,-468 708.77,-462 708.77,-456 708.77,-456 708.77,-442 708.77,-442 708.77,-436 714.77,-430 720.77,-430 720.77,-430 809.77,-430 809.77,-430 815.77,-430 821.77,-436 821.77,-442 821.77,-442 821.77,-456 821.77,-456 821.77,-462 815.77,-468 809.77,-468"/>
<text text-anchor="middle" x="765.27" y="-452.8" font-family="Arial" font-size="14.00">ARest</text>
<text text-anchor="middle" x="765.27" y="-437.8" font-family="Arial" font-size="14.00">[PBPKO:00501]</text>
</a>
</g>
</g>
<!-- ABlood&#45;&gt;ARest -->
<g id="edge16" class="edge">
<title>ABlood&#45;&gt;ARest</title>
<path fill="none" stroke="black" d="M821.13,-557.43C812.86,-552.01 804.47,-545.31 798.27,-537.5 784.46,-520.09 775.98,-496.28 771.08,-477.89"/>
<polygon fill="black" stroke="black" points="774.45,-476.92 768.66,-468.04 767.65,-478.59 774.45,-476.92"/>
<text text-anchor="middle" x="813.77" y="-526.3" font-family="Times,serif" font-size="14.00">_J10</text>
</g>
<!-- ASt -->
<g id="node15" class="node">
<title>ASt</title>
<g id="a_node15"><a xlink:href="#species-ASt" xlink:title="ASt&#10;[&#45;]">
<path fill="gold" stroke="black" d="M1179.27,-468C1179.27,-468 1149.27,-468 1149.27,-468 1143.27,-468 1137.27,-462 1137.27,-456 1137.27,-456 1137.27,-442 1137.27,-442 1137.27,-436 1143.27,-430 1149.27,-430 1149.27,-430 1179.27,-430 1179.27,-430 1185.27,-430 1191.27,-436 1191.27,-442 1191.27,-442 1191.27,-456 1191.27,-456 1191.27,-462 1185.27,-468 1179.27,-468"/>
<text text-anchor="middle" x="1164.27" y="-452.8" font-family="Arial" font-size="14.00">ASt</text>
<text text-anchor="middle" x="1164.27" y="-437.8" font-family="Arial" font-size="14.00">[&#45;]</text>
</a>
</g>
</g>
<!-- ABlood&#45;&gt;ASt -->
<g id="edge17" class="edge">
<title>ABlood&#45;&gt;ASt</title>
<path fill="none" stroke="black" d="M881.34,-572.41C922.39,-570.6 997.45,-563.62 1055.27,-537.5 1088.02,-522.7 1119.35,-495.75 1139.95,-475.65"/>
<polygon fill="black" stroke="black" points="1142.69,-477.86 1147.3,-468.32 1137.75,-472.91 1142.69,-477.86"/>
<text text-anchor="middle" x="1096.77" y="-526.3" font-family="Times,serif" font-size="14.00">_J18</text>
</g>
<!-- ASpleen -->
<g id="node16" class="node">
<title>ASpleen</title>
<g id="a_node16"><a xlink:href="#species-ASpleen" xlink:title="ASpleen&#10;[&#45;]">
<path fill="gold" stroke="black" d="M576.27,-468C576.27,-468 532.27,-468 532.27,-468 526.27,-468 520.27,-462 520.27,-456 520.27,-456 520.27,-442 520.27,-442 520.27,-436 526.27,-430 532.27,-430 532.27,-430 576.27,-430 576.27,-430 582.27,-430 588.27,-436 588.27,-442 588.27,-442 588.27,-456 588.27,-456 588.27,-462 582.27,-468 576.27,-468"/>
<text text-anchor="middle" x="554.27" y="-452.8" font-family="Arial" font-size="14.00">ASpleen</text>
<text text-anchor="middle" x="554.27" y="-437.8" font-family="Arial" font-size="14.00">[&#45;]</text>
</a>
</g>
</g>
<!-- ABlood&#45;&gt;ASpleen -->
<g id="edge18" class="edge">
<title>ABlood&#45;&gt;ASpleen</title>
<path fill="none" stroke="black" d="M821,-567.94C779.23,-560.19 702.3,-543.15 642.27,-514 620.85,-503.6 599.2,-487.93 582.72,-474.7"/>
<polygon fill="black" stroke="black" points="584.56,-471.68 574.61,-468.04 580.12,-477.09 584.56,-471.68"/>
<text text-anchor="middle" x="712.77" y="-526.3" font-family="Times,serif" font-size="14.00">_J20</text>
</g>
<!-- ARest&#45;&gt;ABlood -->
<g id="edge19" class="edge">
<title>ARest&#45;&gt;ABlood</title>
<path fill="none" stroke="black" d="M784.13,-468.07C797.92,-482 816.38,-502.25 829.27,-522.5 833.75,-529.53 837.73,-537.63 841.03,-545.26"/>
<polygon fill="black" stroke="black" points="837.81,-546.62 844.84,-554.54 844.28,-543.96 837.81,-546.62"/>
<text text-anchor="middle" x="852.77" y="-526.3" font-family="Times,serif" font-size="14.00">_J11</text>
</g>
<!-- ABile&#45;&gt;AGILumen -->
<g id="edge20" class="edge">
<title>ABile&#45;&gt;AGILumen</title>
<path fill="none" stroke="black" d="M1273.97,-218.32C1276.04,-242.34 1279.27,-285.78 1279.27,-323 1279.27,-575 1279.27,-575 1279.27,-575 1279.27,-662.37 612.75,-690.27 419.94,-696.51"/>
<polygon fill="black" stroke="black" points="419.67,-693.01 409.78,-696.83 419.89,-700.01 419.67,-693.01"/>
<text text-anchor="middle" x="1294.77" y="-445.3" font-family="Times,serif" font-size="14.00">_J17</text>
</g>
<!-- ASt&#45;&gt;ALiver -->
<g id="edge21" class="edge">
<title>ASt&#45;&gt;ALiver</title>
<path fill="none" stroke="black" d="M1137.17,-432.92C1099,-411.67 1029.08,-372.76 984.46,-347.92"/>
<polygon fill="black" stroke="black" points="986.05,-344.81 975.61,-343 982.65,-350.92 986.05,-344.81"/>
<text text-anchor="middle" x="1113.77" y="-401.3" font-family="Times,serif" font-size="14.00">_J19</text>
</g>
<!-- ASpleen&#45;&gt;ALiver -->
<g id="edge22" class="edge">
<title>ASpleen&#45;&gt;ALiver</title>
<path fill="none" stroke="black" d="M588.45,-437.19C652.92,-416.81 793.48,-372.36 877.04,-345.94"/>
<polygon fill="black" stroke="black" points="878.21,-349.24 886.69,-342.89 876.1,-342.57 878.21,-349.24"/>
<text text-anchor="middle" x="728.77" y="-401.3" font-family="Times,serif" font-size="14.00">_J21</text>
</g>
</g>
</svg>
