<?xml version="1.0" encoding="UTF-8" standalone="no"?>
<!DOCTYPE svg PUBLIC "-//W3C//DTD SVG 1.1//EN"
 "http://www.w3.org/Graphics/SVG/1.1/DTD/svg11.dtd">
<!-- Generated by graphviz version 2.43.0 (0)
 -->
<!-- Title: %3 Pages: 1 -->
<svg width="499pt" height="288pt"
 viewBox="0.00 0.00 499.28 288.00" xmlns="http://www.w3.org/2000/svg" xmlns:xlink="http://www.w3.org/1999/xlink">
<g id="graph0" class="graph" transform="scale(0.79 0.79) rotate(0) translate(4 362)">
<title>%3</title>
<polygon fill="white" stroke="transparent" points="-4,4 -4,-362 630.5,-362 630.5,4 -4,4"/>
<g id="clust1" class="cluster">
<title>cluster_Liver</title>
<g id="a_clust1"><a xlink:href="#compartment-Liver" xlink:title="Liver&#10;[&#45;]">
<path fill="lightblue" stroke="black" d="M31.28,-8C31.28,-8 392.82,-8 392.82,-8 398.82,-8 404.82,-14 404.82,-20 404.82,-20 404.82,-338 404.82,-338 404.82,-344 398.82,-350 392.82,-350 392.82,-350 31.28,-350 31.28,-350 25.28,-350 19.28,-344 19.28,-338 19.28,-338 19.28,-20 19.28,-20 19.28,-14 25.28,-8 31.28,-8"/>
<text text-anchor="middle" x="212.05" y="-334.8" font-family="Arial" font-size="14.00">Liver</text>
<text text-anchor="middle" x="212.05" y="-319.8" font-family="Arial" font-size="14.00">[&#45;]</text>
</a>
</g>
</g>
<g id="clust2" class="cluster">
<title>cluster_Blood</title>
<g id="a_clust2"><a xlink:href="#compartment-Blood" xlink:title="Blood&#10;[&#45;]">
<path fill="lightblue" stroke="black" d="M436.09,-133C436.09,-133 595.22,-133 595.22,-133 601.22,-133 607.22,-139 607.22,-145 607.22,-145 607.22,-213 607.22,-213 607.22,-219 601.22,-225 595.22,-225 595.22,-225 436.09,-225 436.09,-225 430.09,-225 424.09,-219 424.09,-213 424.09,-213 424.09,-145 424.09,-145 424.09,-139 430.09,-133 436.09,-133"/>
<text text-anchor="middle" x="515.66" y="-209.8" font-family="Arial" font-size="14.00">Blood</text>
<text text-anchor="middle" x="515.66" y="-194.8" font-family="Arial" font-size="14.00">[&#45;]</text>
</a>
</g>
</g>
<g id="clust3" class="cluster">
<title>cluster_Rest</title>
<g id="a_clust3"><a xlink:href="#compartment-Rest" xlink:title="Rest&#10;[&#45;]">
<path fill="lightblue" stroke="black" d="M443.32,-8C443.32,-8 587.99,-8 587.99,-8 593.99,-8 599.99,-14 599.99,-20 599.99,-20 599.99,-88 599.99,-88 599.99,-94 593.99,-100 587.99,-100 587.99,-100 443.32,-100 443.32,-100 437.32,-100 431.32,-94 431.32,-88 431.32,-88 431.32,-20 431.32,-20 431.32,-14 437.32,-8 443.32,-8"/>
<text text-anchor="middle" x="515.66" y="-84.8" font-family="Arial" font-size="14.00">Rest</text>
<text text-anchor="middle" x="515.66" y="-69.8" font-family="Arial" font-size="14.00">[&#45;]</text>
</a>
</g>
</g>
<!-- ALiver -->
<g id="node1" class="node">
<title>ALiver</title>
<g id="a_node1"><a xlink:href="#species-ALiver" xlink:title="ALiver&#10;[&#45;]">
<path fill="gold" stroke="black" d="M333.75,-304C333.75,-304 302.75,-304 302.75,-304 296.75,-304 290.75,-298 290.75,-292 290.75,-292 290.75,-278 290.75,-278 290.75,-272 296.75,-266 302.75,-266 302.75,-266 333.75,-266 333.75,-266 339.75,-266 345.75,-272 345.75,-278 345.75,-278 345.75,-292 345.75,-292 345.75,-298 339.75,-304 333.75,-304"/>
<text text-anchor="middle" x="318.25" y="-288.8" font-family="Arial" font-size="14.00">ALiver</text>
<text text-anchor="middle" x="318.25" y="-273.8" font-family="Arial" font-size="14.00">[&#45;]</text>
</a>
</g>
</g>
<!-- ALiverMet1 -->
<g id="node2" class="node">
<title>ALiverMet1</title>
<g id="a_node2"><a xlink:href="#species-ALiverMet1" xlink:title="ALiverMet1&#10;[&#45;]">
<path fill="gold" stroke="black" d="M173.25,-179C173.25,-179 111.25,-179 111.25,-179 105.25,-179 99.25,-173 99.25,-167 99.25,-167 99.25,-153 99.25,-153 99.25,-147 105.25,-141 111.25,-141 111.25,-141 173.25,-141 173.25,-141 179.25,-141 185.25,-147 185.25,-153 185.25,-153 185.25,-167 185.25,-167 185.25,-173 179.25,-179 173.25,-179"/>
<text text-anchor="middle" x="142.25" y="-163.8" font-family="Arial" font-size="14.00">ALiverMet1</text>
<text text-anchor="middle" x="142.25" y="-148.8" font-family="Arial" font-size="14.00">[&#45;]</text>
</a>
</g>
</g>
<!-- ALiver&#45;&gt;ALiverMet1 -->
<g id="edge1" class="edge">
<title>ALiver&#45;&gt;ALiverMet1</title>
<path fill="none" stroke="black" d="M292.28,-265.85C261.52,-244.35 210.17,-208.47 176.26,-184.77"/>
<polygon fill="black" stroke="black" points="178.24,-181.88 168.04,-179.02 174.23,-187.62 178.24,-181.88"/>
<text text-anchor="middle" x="277.25" y="-237.3" font-family="Times,serif" font-size="14.00">_J4</text>
</g>
<!-- ALiverMet2 -->
<g id="node3" class="node">
<title>ALiverMet2</title>
<g id="a_node3"><a xlink:href="#species-ALiverMet2" xlink:title="ALiverMet2&#10;[&#45;]">
<path fill="gold" stroke="black" d="M313.25,-54C313.25,-54 251.25,-54 251.25,-54 245.25,-54 239.25,-48 239.25,-42 239.25,-42 239.25,-28 239.25,-28 239.25,-22 245.25,-16 251.25,-16 251.25,-16 313.25,-16 313.25,-16 319.25,-16 325.25,-22 325.25,-28 325.25,-28 325.25,-42 325.25,-42 325.25,-48 319.25,-54 313.25,-54"/>
<text text-anchor="middle" x="282.25" y="-38.8" font-family="Arial" font-size="14.00">ALiverMet2</text>
<text text-anchor="middle" x="282.25" y="-23.8" font-family="Arial" font-size="14.00">[&#45;]</text>
</a>
</g>
</g>
<!-- ALiver&#45;&gt;ALiverMet2 -->
<g id="edge2" class="edge">
<title>ALiver&#45;&gt;ALiverMet2</title>
<path fill="none" stroke="black" d="M315.6,-265.76C309.39,-222.95 293.82,-115.73 286.36,-64.34"/>
<polygon fill="black" stroke="black" points="289.8,-63.66 284.9,-54.26 282.87,-64.66 289.8,-63.66"/>
<text text-anchor="middle" x="321.25" y="-156.3" font-family="Times,serif" font-size="14.00">_J5</text>
</g>
<!-- ABlood -->
<g id="node4" class="node">
<title>ABlood</title>
<g id="a_node4"><a xlink:href="#species-ABlood" xlink:title="ABlood&#10;[&#45;]">
<path fill="gold" stroke="black" d="M533.25,-179C533.25,-179 497.25,-179 497.25,-179 491.25,-179 485.25,-173 485.25,-167 485.25,-167 485.25,-153 485.25,-153 485.25,-147 491.25,-141 497.25,-141 497.25,-141 533.25,-141 533.25,-141 539.25,-141 545.25,-147 545.25,-153 545.25,-153 545.25,-167 545.25,-167 545.25,-173 539.25,-179 533.25,-179"/>
<text text-anchor="middle" x="515.25" y="-163.8" font-family="Arial" font-size="14.00">ABlood</text>
<text text-anchor="middle" x="515.25" y="-148.8" font-family="Arial" font-size="14.00">[&#45;]</text>
</a>
</g>
</g>
<!-- ALiver&#45;&gt;ABlood -->
<g id="edge3" class="edge">
<title>ALiver&#45;&gt;ABlood</title>
<path fill="none" stroke="black" d="M346.06,-266.64C380.42,-245.18 439.06,-208.57 477.48,-184.59"/>
<polygon fill="black" stroke="black" points="479.67,-187.34 486.3,-179.07 475.97,-181.4 479.67,-187.34"/>
<text text-anchor="middle" x="409.25" y="-237.3" font-family="Times,serif" font-size="14.00">_J1</text>
</g>
<!-- ABlood&#45;&gt;ALiver -->
<g id="edge4" class="edge">
<title>ABlood&#45;&gt;ALiver</title>
<path fill="none" stroke="black" d="M500.66,-179.21C484.05,-198.83 455.18,-229.77 424.25,-248.5 403.14,-261.29 376.84,-270.13 355.72,-275.79"/>
<polygon fill="black" stroke="black" points="354.63,-272.46 345.81,-278.32 356.37,-279.24 354.63,-272.46"/>
<text text-anchor="middle" x="454.25" y="-237.3" font-family="Times,serif" font-size="14.00">_J0</text>
</g>
<!-- ARest -->
<g id="node5" class="node">
<title>ARest</title>
<g id="a_node5"><a xlink:href="#species-ARest" xlink:title="ARest&#10;[&#45;]">
<path fill="gold" stroke="black" d="M530.25,-54C530.25,-54 500.25,-54 500.25,-54 494.25,-54 488.25,-48 488.25,-42 488.25,-42 488.25,-28 488.25,-28 488.25,-22 494.25,-16 500.25,-16 500.25,-16 530.25,-16 530.25,-16 536.25,-16 542.25,-22 542.25,-28 542.25,-28 542.25,-42 542.25,-42 542.25,-48 536.25,-54 530.25,-54"/>
<text text-anchor="middle" x="515.25" y="-38.8" font-family="Arial" font-size="14.00">ARest</text>
<text text-anchor="middle" x="515.25" y="-23.8" font-family="Arial" font-size="14.00">[&#45;]</text>
</a>
</g>
</g>
<!-- ABlood&#45;&gt;ARest -->
<g id="edge5" class="edge">
<title>ABlood&#45;&gt;ARest</title>
<path fill="none" stroke="black" d="M515.25,-140.85C515.25,-120.68 515.25,-87.86 515.25,-64.31"/>
<polygon fill="black" stroke="black" points="518.75,-64.22 515.25,-54.22 511.75,-64.22 518.75,-64.22"/>
<text text-anchor="middle" x="526.25" y="-112.3" font-family="Times,serif" font-size="14.00">_J2</text>
</g>
<!-- ARest&#45;&gt;ABlood -->
<g id="edge6" class="edge">
<title>ARest&#45;&gt;ABlood</title>
<path fill="none" stroke="black" d="M527.19,-54.19C537.3,-71.95 549.03,-99.7 541.25,-123.5 540.28,-126.45 538.97,-129.37 537.44,-132.17"/>
<polygon fill="black" stroke="black" points="534.42,-130.41 531.99,-140.72 540.32,-134.17 534.42,-130.41"/>
<text text-anchor="middle" x="554.25" y="-112.3" font-family="Times,serif" font-size="14.00">_J3</text>
</g>
</g>
</svg>
