<?xml version="1.0" encoding="UTF-8" standalone="no"?>
<!DOCTYPE svg PUBLIC "-//W3C//DTD SVG 1.1//EN"
 "http://www.w3.org/Graphics/SVG/1.1/DTD/svg11.dtd">
<!-- Generated by graphviz version 2.43.0 (0)
 -->
<!-- Title: %3 Pages: 1 -->
<svg width="500pt" height="288pt"
 viewBox="0.00 0.00 500.48 288.00" xmlns="http://www.w3.org/2000/svg" xmlns:xlink="http://www.w3.org/1999/xlink">
<g id="graph0" class="graph" transform="scale(0.59 0.59) rotate(0) translate(4 487)">
<title>%3</title>
<polygon fill="white" stroke="transparent" points="-4,4 -4,-487 849.25,-487 849.25,4 -4,4"/>
<g id="clust1" class="cluster">
<title>cluster_Lumen</title>
<g id="a_clust1"><a xlink:href="#compartment-Lumen" xlink:title="Lumen&#10;[&#45;]">
<path fill="lightblue" stroke="black" d="M55.35,-383C55.35,-383 291.42,-383 291.42,-383 297.42,-383 303.42,-389 303.42,-395 303.42,-395 303.42,-463 303.42,-463 303.42,-469 297.42,-475 291.42,-475 291.42,-475 55.35,-475 55.35,-475 49.35,-475 43.35,-469 43.35,-463 43.35,-463 43.35,-395 43.35,-395 43.35,-389 49.35,-383 55.35,-383"/>
<text text-anchor="middle" x="173.38" y="-459.8" font-family="Arial" font-size="14.00">Lumen</text>
<text text-anchor="middle" x="173.38" y="-444.8" font-family="Arial" font-size="14.00">[&#45;]</text>
</a>
</g>
</g>
<g id="clust2" class="cluster">
<title>cluster_Gut</title>
<g id="a_clust2"><a xlink:href="#compartment-Gut" xlink:title="Gut&#10;[&#45;]">
<path fill="lightblue" stroke="black" d="M36.77,-258C36.77,-258 229.5,-258 229.5,-258 235.5,-258 241.5,-264 241.5,-270 241.5,-270 241.5,-338 241.5,-338 241.5,-344 235.5,-350 229.5,-350 229.5,-350 36.77,-350 36.77,-350 30.77,-350 24.77,-344 24.77,-338 24.77,-338 24.77,-270 24.77,-270 24.77,-264 30.77,-258 36.77,-258"/>
<text text-anchor="middle" x="133.13" y="-334.8" font-family="Arial" font-size="14.00">Gut</text>
<text text-anchor="middle" x="133.13" y="-319.8" font-family="Arial" font-size="14.00">[&#45;]</text>
</a>
</g>
</g>
<g id="clust3" class="cluster">
<title>cluster_Liver</title>
<g id="a_clust3"><a xlink:href="#compartment-Liver" xlink:title="Liver&#10;[&#45;]">
<path fill="lightblue" stroke="black" d="M126.56,-8C126.56,-8 418.37,-8 418.37,-8 424.37,-8 430.37,-14 430.37,-20 430.37,-20 430.37,-213 430.37,-213 430.37,-219 424.37,-225 418.37,-225 418.37,-225 126.56,-225 126.56,-225 120.56,-225 114.56,-219 114.56,-213 114.56,-213 114.56,-20 114.56,-20 114.56,-14 120.56,-8 126.56,-8"/>
<text text-anchor="middle" x="272.46" y="-209.8" font-family="Arial" font-size="14.00">Liver</text>
<text text-anchor="middle" x="272.46" y="-194.8" font-family="Arial" font-size="14.00">[&#45;]</text>
</a>
</g>
</g>
<g id="clust4" class="cluster">
<title>cluster_Plasma</title>
<g id="a_clust4"><a xlink:href="#compartment-Plasma" xlink:title="Plasma&#10;[&#45;]">
<path fill="lightblue" stroke="black" d="M324.71,-258C324.71,-258 573.17,-258 573.17,-258 579.17,-258 585.17,-264 585.17,-270 585.17,-270 585.17,-338 585.17,-338 585.17,-344 579.17,-350 573.17,-350 573.17,-350 324.71,-350 324.71,-350 318.71,-350 312.71,-344 312.71,-338 312.71,-338 312.71,-270 312.71,-270 312.71,-264 318.71,-258 324.71,-258"/>
<text text-anchor="middle" x="448.94" y="-334.8" font-family="Arial" font-size="14.00">Plasma</text>
<text text-anchor="middle" x="448.94" y="-319.8" font-family="Arial" font-size="14.00">[&#45;]</text>
</a>
</g>
</g>
<g id="clust5" class="cluster">
<title>cluster_RestPlasma</title>
<g id="a_clust5"><a xlink:href="#compartment-RestPlasma" xlink:title="RestPlasma&#10;[&#45;]">
<path fill="lightblue" stroke="black" d="M473.33,-133C473.33,-133 808.48,-133 808.48,-133 814.48,-133 820.48,-139 820.48,-145 820.48,-145 820.48,-213 820.48,-213 820.48,-219 814.48,-225 808.48,-225 808.48,-225 473.33,-225 473.33,-225 467.33,-225 461.33,-219 461.33,-213 461.33,-213 461.33,-145 461.33,-145 461.33,-139 467.33,-133 473.33,-133"/>
<text text-anchor="middle" x="640.9" y="-209.8" font-family="Arial" font-size="14.00">RestPlasma</text>
<text text-anchor="middle" x="640.9" y="-194.8" font-family="Arial" font-size="14.00">[&#45;]</text>
</a>
</g>
</g>
<g id="clust6" class="cluster">
<title>cluster_RestTissue</title>
<g id="a_clust6"><a xlink:href="#compartment-RestTissue" xlink:title="RestTissue&#10;[&#45;]">
<path fill="lightblue" stroke="black" d="M482.62,-8C482.62,-8 793,-8 793,-8 799,-8 805,-14 805,-20 805,-20 805,-88 805,-88 805,-94 799,-100 793,-100 793,-100 482.62,-100 482.62,-100 476.62,-100 470.62,-94 470.62,-88 470.62,-88 470.62,-20 470.62,-20 470.62,-14 476.62,-8 482.62,-8"/>
<text text-anchor="middle" x="637.81" y="-84.8" font-family="Arial" font-size="14.00">RestTissue</text>
<text text-anchor="middle" x="637.81" y="-69.8" font-family="Arial" font-size="14.00">[&#45;]</text>
</a>
</g>
</g>
<!-- ALumen -->
<g id="node1" class="node">
<title>ALumen</title>
<g id="a_node1"><a xlink:href="#species-ALumen" xlink:title="ALumen&#10;[&#45;]">
<path fill="gold" stroke="black" d="M195.35,-429C195.35,-429 151.35,-429 151.35,-429 145.35,-429 139.35,-423 139.35,-417 139.35,-417 139.35,-403 139.35,-403 139.35,-397 145.35,-391 151.35,-391 151.35,-391 195.35,-391 195.35,-391 201.35,-391 207.35,-397 207.35,-403 207.35,-403 207.35,-417 207.35,-417 207.35,-423 201.35,-429 195.35,-429"/>
<text text-anchor="middle" x="173.35" y="-413.8" font-family="Arial" font-size="14.00">ALumen</text>
<text text-anchor="middle" x="173.35" y="-398.8" font-family="Arial" font-size="14.00">[&#45;]</text>
</a>
</g>
</g>
<!-- AGut -->
<g id="node2" class="node">
<title>AGut</title>
<g id="a_node2"><a xlink:href="#species-AGut" xlink:title="AGut&#10;[&#45;]">
<path fill="gold" stroke="black" d="M148.35,-304C148.35,-304 118.35,-304 118.35,-304 112.35,-304 106.35,-298 106.35,-292 106.35,-292 106.35,-278 106.35,-278 106.35,-272 112.35,-266 118.35,-266 118.35,-266 148.35,-266 148.35,-266 154.35,-266 160.35,-272 160.35,-278 160.35,-278 160.35,-292 160.35,-292 160.35,-298 154.35,-304 148.35,-304"/>
<text text-anchor="middle" x="133.35" y="-288.8" font-family="Arial" font-size="14.00">AGut</text>
<text text-anchor="middle" x="133.35" y="-273.8" font-family="Arial" font-size="14.00">[&#45;]</text>
</a>
</g>
</g>
<!-- ALumen&#45;&gt;AGut -->
<g id="edge1" class="edge">
<title>ALumen&#45;&gt;AGut</title>
<path fill="none" stroke="black" d="M167.44,-390.85C160.86,-370.59 150.12,-337.57 142.45,-314"/>
<polygon fill="black" stroke="black" points="145.69,-312.65 139.27,-304.22 139.04,-314.82 145.69,-312.65"/>
<text text-anchor="middle" x="173.35" y="-362.3" font-family="Times,serif" font-size="14.00">_J0</text>
</g>
<!-- APlasma -->
<g id="node5" class="node">
<title>APlasma</title>
<g id="a_node5"><a xlink:href="#species-APlasma" xlink:title="APlasma&#10;[&#45;]">
<path fill="gold" stroke="black" d="M472.85,-304C472.85,-304 425.85,-304 425.85,-304 419.85,-304 413.85,-298 413.85,-292 413.85,-292 413.85,-278 413.85,-278 413.85,-272 419.85,-266 425.85,-266 425.85,-266 472.85,-266 472.85,-266 478.85,-266 484.85,-272 484.85,-278 484.85,-278 484.85,-292 484.85,-292 484.85,-298 478.85,-304 472.85,-304"/>
<text text-anchor="middle" x="449.35" y="-288.8" font-family="Arial" font-size="14.00">APlasma</text>
<text text-anchor="middle" x="449.35" y="-273.8" font-family="Arial" font-size="14.00">[&#45;]</text>
</a>
</g>
</g>
<!-- ALumen&#45;&gt;APlasma -->
<g id="edge2" class="edge">
<title>ALumen&#45;&gt;APlasma</title>
<path fill="none" stroke="black" d="M207.47,-393.79C257.09,-371.68 349.26,-330.6 404.38,-306.04"/>
<polygon fill="black" stroke="black" points="405.85,-309.22 413.56,-301.95 403,-302.82 405.85,-309.22"/>
<text text-anchor="middle" x="298.35" y="-362.3" font-family="Times,serif" font-size="14.00">_J1</text>
</g>
<!-- ALiver -->
<g id="node3" class="node">
<title>ALiver</title>
<g id="a_node3"><a xlink:href="#species-ALiver" xlink:title="ALiver&#10;[&#45;]">
<path fill="gold" stroke="black" d="M287.85,-179C287.85,-179 256.85,-179 256.85,-179 250.85,-179 244.85,-173 244.85,-167 244.85,-167 244.85,-153 244.85,-153 244.85,-147 250.85,-141 256.85,-141 256.85,-141 287.85,-141 287.85,-141 293.85,-141 299.85,-147 299.85,-153 299.85,-153 299.85,-167 299.85,-167 299.85,-173 293.85,-179 287.85,-179"/>
<text text-anchor="middle" x="272.35" y="-163.8" font-family="Arial" font-size="14.00">ALiver</text>
<text text-anchor="middle" x="272.35" y="-148.8" font-family="Arial" font-size="14.00">[&#45;]</text>
</a>
</g>
</g>
<!-- AGut&#45;&gt;ALiver -->
<g id="edge3" class="edge">
<title>AGut&#45;&gt;ALiver</title>
<path fill="none" stroke="black" d="M153.86,-265.85C177.78,-244.69 217.45,-209.58 244.23,-185.88"/>
<polygon fill="black" stroke="black" points="246.58,-188.47 251.75,-179.22 241.94,-183.23 246.58,-188.47"/>
<text text-anchor="middle" x="202.35" y="-237.3" font-family="Times,serif" font-size="14.00">_J2</text>
</g>
<!-- ALiverMet1 -->
<g id="node4" class="node">
<title>ALiverMet1</title>
<g id="a_node4"><a xlink:href="#species-ALiverMet1" xlink:title="ALiverMet1&#10;[&#45;]">
<path fill="gold" stroke="black" d="M303.35,-54C303.35,-54 241.35,-54 241.35,-54 235.35,-54 229.35,-48 229.35,-42 229.35,-42 229.35,-28 229.35,-28 229.35,-22 235.35,-16 241.35,-16 241.35,-16 303.35,-16 303.35,-16 309.35,-16 315.35,-22 315.35,-28 315.35,-28 315.35,-42 315.35,-42 315.35,-48 309.35,-54 303.35,-54"/>
<text text-anchor="middle" x="272.35" y="-38.8" font-family="Arial" font-size="14.00">ALiverMet1</text>
<text text-anchor="middle" x="272.35" y="-23.8" font-family="Arial" font-size="14.00">[&#45;]</text>
</a>
</g>
</g>
<!-- ALiver&#45;&gt;ALiverMet1 -->
<g id="edge4" class="edge">
<title>ALiver&#45;&gt;ALiverMet1</title>
<path fill="none" stroke="black" d="M272.35,-140.85C272.35,-120.68 272.35,-87.86 272.35,-64.31"/>
<polygon fill="black" stroke="black" points="275.85,-64.22 272.35,-54.22 268.85,-64.22 275.85,-64.22"/>
<text text-anchor="middle" x="287.85" y="-112.3" font-family="Times,serif" font-size="14.00">_J10</text>
</g>
<!-- ALiver&#45;&gt;APlasma -->
<g id="edge5" class="edge">
<title>ALiver&#45;&gt;APlasma</title>
<path fill="none" stroke="black" d="M288.39,-179.01C306.2,-198.18 336.52,-228.46 367.35,-248.5 378.75,-255.91 391.95,-262.41 404.39,-267.75"/>
<polygon fill="black" stroke="black" points="403.14,-271.02 413.71,-271.61 405.81,-264.55 403.14,-271.02"/>
<text text-anchor="middle" x="378.35" y="-237.3" font-family="Times,serif" font-size="14.00">_J5</text>
</g>
<!-- APlasma&#45;&gt;AGut -->
<g id="edge6" class="edge">
<title>APlasma&#45;&gt;AGut</title>
<path fill="none" stroke="black" d="M413.76,-285C353.5,-285 231.94,-285 170.58,-285"/>
<polygon fill="black" stroke="black" points="170.56,-281.5 160.56,-285 170.56,-288.5 170.56,-281.5"/>
<text text-anchor="middle" x="287.1" y="-291.8" font-family="Times,serif" font-size="14.00">_J3</text>
</g>
<!-- APlasma&#45;&gt;ALiver -->
<g id="edge7" class="edge">
<title>APlasma&#45;&gt;ALiver</title>
<path fill="none" stroke="black" d="M429.39,-265.95C417.99,-255.96 403.24,-243.57 389.35,-233.5 363.38,-214.68 332.49,-195.67 308.97,-181.84"/>
<polygon fill="black" stroke="black" points="310.43,-178.64 300.02,-176.62 306.9,-184.68 310.43,-178.64"/>
<text text-anchor="middle" x="418.35" y="-237.3" font-family="Times,serif" font-size="14.00">_J4</text>
</g>
<!-- ARestPlasma -->
<g id="node6" class="node">
<title>ARestPlasma</title>
<g id="a_node6"><a xlink:href="#species-ARestPlasma" xlink:title="ARestPlasma&#10;[&#45;]">
<path fill="gold" stroke="black" d="M678.85,-179C678.85,-179 603.85,-179 603.85,-179 597.85,-179 591.85,-173 591.85,-167 591.85,-167 591.85,-153 591.85,-153 591.85,-147 597.85,-141 603.85,-141 603.85,-141 678.85,-141 678.85,-141 684.85,-141 690.85,-147 690.85,-153 690.85,-153 690.85,-167 690.85,-167 690.85,-173 684.85,-179 678.85,-179"/>
<text text-anchor="middle" x="641.35" y="-163.8" font-family="Arial" font-size="14.00">ARestPlasma</text>
<text text-anchor="middle" x="641.35" y="-148.8" font-family="Arial" font-size="14.00">[&#45;]</text>
</a>
</g>
</g>
<!-- APlasma&#45;&gt;ARestPlasma -->
<g id="edge8" class="edge">
<title>APlasma&#45;&gt;ARestPlasma</title>
<path fill="none" stroke="black" d="M477.68,-265.85C511.38,-244.26 567.72,-208.16 604.71,-184.47"/>
<polygon fill="black" stroke="black" points="606.68,-187.36 613.21,-179.02 602.9,-181.47 606.68,-187.36"/>
<text text-anchor="middle" x="538.35" y="-237.3" font-family="Times,serif" font-size="14.00">_J6</text>
</g>
<!-- ARestPlasma&#45;&gt;APlasma -->
<g id="edge9" class="edge">
<title>ARestPlasma&#45;&gt;APlasma</title>
<path fill="none" stroke="black" d="M627.34,-179.2C611.37,-198.82 583.55,-229.75 553.35,-248.5 535.54,-259.56 513.87,-267.66 494.92,-273.31"/>
<polygon fill="black" stroke="black" points="493.96,-269.95 485.3,-276.04 495.88,-276.68 493.96,-269.95"/>
<text text-anchor="middle" x="583.35" y="-237.3" font-family="Times,serif" font-size="14.00">_J7</text>
</g>
<!-- ARestTissue -->
<g id="node7" class="node">
<title>ARestTissue</title>
<g id="a_node7"><a xlink:href="#species-ARestTissue" xlink:title="ARestTissue&#10;[&#45;]">
<path fill="gold" stroke="black" d="M671.85,-54C671.85,-54 602.85,-54 602.85,-54 596.85,-54 590.85,-48 590.85,-42 590.85,-42 590.85,-28 590.85,-28 590.85,-22 596.85,-16 602.85,-16 602.85,-16 671.85,-16 671.85,-16 677.85,-16 683.85,-22 683.85,-28 683.85,-28 683.85,-42 683.85,-42 683.85,-48 677.85,-54 671.85,-54"/>
<text text-anchor="middle" x="637.35" y="-38.8" font-family="Arial" font-size="14.00">ARestTissue</text>
<text text-anchor="middle" x="637.35" y="-23.8" font-family="Arial" font-size="14.00">[&#45;]</text>
</a>
</g>
</g>
<!-- ARestPlasma&#45;&gt;ARestTissue -->
<g id="edge10" class="edge">
<title>ARestPlasma&#45;&gt;ARestTissue</title>
<path fill="none" stroke="black" d="M640.76,-140.85C640.1,-120.68 639.03,-87.86 638.27,-64.31"/>
<polygon fill="black" stroke="black" points="641.76,-64.1 637.94,-54.22 634.77,-64.33 641.76,-64.1"/>
<text text-anchor="middle" x="650.35" y="-112.3" font-family="Times,serif" font-size="14.00">_J8</text>
</g>
<!-- ARestTissue&#45;&gt;ARestPlasma -->
<g id="edge11" class="edge">
<title>ARestTissue&#45;&gt;ARestPlasma</title>
<path fill="none" stroke="black" d="M649.76,-54.06C660.33,-71.72 672.73,-99.4 665.35,-123.5 664.44,-126.46 663.19,-129.4 661.74,-132.25"/>
<polygon fill="black" stroke="black" points="658.68,-130.54 656.56,-140.92 664.69,-134.13 658.68,-130.54"/>
<text text-anchor="middle" x="678.35" y="-112.3" font-family="Times,serif" font-size="14.00">_J9</text>
</g>
</g>
</svg>
