<?xml version="1.0" encoding="UTF-8" standalone="no"?>
<!DOCTYPE svg PUBLIC "-//W3C//DTD SVG 1.1//EN"
 "http://www.w3.org/Graphics/SVG/1.1/DTD/svg11.dtd">
<!-- Generated by graphviz version 2.43.0 (0)
 -->
<!-- Title: %3 Pages: 1 -->
<svg width="500pt" height="288pt"
 viewBox="0.00 0.00 500.48 288.00" xmlns="http://www.w3.org/2000/svg" xmlns:xlink="http://www.w3.org/1999/xlink">
<g id="graph0" class="graph" transform="scale(0.59 0.59) rotate(0) translate(4 487)">
<title>%3</title>
<polygon fill="white" stroke="transparent" points="-4,4 -4,-487 849.25,-487 849.25,4 -4,4"/>
<g id="clust1" class="cluster">
<title>cluster_Air</title>
<g id="a_clust1"><a xlink:href="#compartment-Air" xlink:title="Air&#10;[PBPKO:00458]">
<path fill="lightblue" stroke="black" d="M273.84,-383C273.84,-383 768.94,-383 768.94,-383 774.94,-383 780.94,-389 780.94,-395 780.94,-395 780.94,-463 780.94,-463 780.94,-469 774.94,-475 768.94,-475 768.94,-475 273.84,-475 273.84,-475 267.84,-475 261.84,-469 261.84,-463 261.84,-463 261.84,-395 261.84,-395 261.84,-389 267.84,-383 273.84,-383"/>
<text text-anchor="middle" x="521.39" y="-459.8" font-family="Arial" font-size="14.00">Air</text>
<text text-anchor="middle" x="521.39" y="-444.8" font-family="Arial" font-size="14.00">[PBPKO:00458]</text>
</a>
</g>
</g>
<g id="clust2" class="cluster">
<title>cluster_Arterial</title>
<g id="a_clust2"><a xlink:href="#compartment-Arterial" xlink:title="Arterial&#10;[&#45;]">
<path fill="lightblue" stroke="black" d="M498.94,-258C498.94,-258 796.5,-258 796.5,-258 802.5,-258 808.5,-264 808.5,-270 808.5,-270 808.5,-338 808.5,-338 808.5,-344 802.5,-350 796.5,-350 796.5,-350 498.94,-350 498.94,-350 492.94,-350 486.94,-344 486.94,-338 486.94,-338 486.94,-270 486.94,-270 486.94,-264 492.94,-258 498.94,-258"/>
<text text-anchor="middle" x="647.72" y="-334.8" font-family="Arial" font-size="14.00">Arterial</text>
<text text-anchor="middle" x="647.72" y="-319.8" font-family="Arial" font-size="14.00">[&#45;]</text>
</a>
</g>
</g>
<g id="clust3" class="cluster">
<title>cluster_Venous</title>
<g id="a_clust3"><a xlink:href="#compartment-Venous" xlink:title="Venous&#10;[&#45;]">
<path fill="lightblue" stroke="black" d="M407.06,-8C407.06,-8 704.62,-8 704.62,-8 710.62,-8 716.62,-14 716.62,-20 716.62,-20 716.62,-88 716.62,-88 716.62,-94 710.62,-100 704.62,-100 704.62,-100 407.06,-100 407.06,-100 401.06,-100 395.06,-94 395.06,-88 395.06,-88 395.06,-20 395.06,-20 395.06,-14 401.06,-8 407.06,-8"/>
<text text-anchor="middle" x="555.84" y="-84.8" font-family="Arial" font-size="14.00">Venous</text>
<text text-anchor="middle" x="555.84" y="-69.8" font-family="Arial" font-size="14.00">[&#45;]</text>
</a>
</g>
</g>
<g id="clust4" class="cluster">
<title>cluster_RestofBody</title>
<g id="a_clust4"><a xlink:href="#compartment-RestofBody" xlink:title="RestofBody&#10;[&#45;]">
<path fill="lightblue" stroke="black" d="M48.75,-133C48.75,-133 621.94,-133 621.94,-133 627.94,-133 633.94,-139 633.94,-145 633.94,-145 633.94,-213 633.94,-213 633.94,-219 627.94,-225 621.94,-225 621.94,-225 48.75,-225 48.75,-225 42.75,-225 36.75,-219 36.75,-213 36.75,-213 36.75,-145 36.75,-145 36.75,-139 42.75,-133 48.75,-133"/>
<text text-anchor="middle" x="335.34" y="-209.8" font-family="Arial" font-size="14.00">RestofBody</text>
<text text-anchor="middle" x="335.34" y="-194.8" font-family="Arial" font-size="14.00">[&#45;]</text>
</a>
</g>
</g>
<!-- Aair -->
<g id="node1" class="node">
<title>Aair</title>
<g id="a_node1"><a xlink:href="#species-Aair" xlink:title="Aair&#10;[&#45;]">
<path fill="gold" stroke="black" d="M529.5,-429C529.5,-429 499.5,-429 499.5,-429 493.5,-429 487.5,-423 487.5,-417 487.5,-417 487.5,-403 487.5,-403 487.5,-397 493.5,-391 499.5,-391 499.5,-391 529.5,-391 529.5,-391 535.5,-391 541.5,-397 541.5,-403 541.5,-403 541.5,-417 541.5,-417 541.5,-423 535.5,-429 529.5,-429"/>
<text text-anchor="middle" x="514.5" y="-413.8" font-family="Arial" font-size="14.00">Aair</text>
<text text-anchor="middle" x="514.5" y="-398.8" font-family="Arial" font-size="14.00">[&#45;]</text>
</a>
</g>
</g>
<!-- Aart -->
<g id="node2" class="node">
<title>Aart</title>
<g id="a_node2"><a xlink:href="#species-Aart" xlink:title="Aart&#10;[&#45;]">
<path fill="gold" stroke="black" d="M662.5,-304C662.5,-304 632.5,-304 632.5,-304 626.5,-304 620.5,-298 620.5,-292 620.5,-292 620.5,-278 620.5,-278 620.5,-272 626.5,-266 632.5,-266 632.5,-266 662.5,-266 662.5,-266 668.5,-266 674.5,-272 674.5,-278 674.5,-278 674.5,-292 674.5,-292 674.5,-298 668.5,-304 662.5,-304"/>
<text text-anchor="middle" x="647.5" y="-288.8" font-family="Arial" font-size="14.00">Aart</text>
<text text-anchor="middle" x="647.5" y="-273.8" font-family="Arial" font-size="14.00">[&#45;]</text>
</a>
</g>
</g>
<!-- Aair&#45;&gt;Aart -->
<g id="edge1" class="edge">
<title>Aair&#45;&gt;Aart</title>
<path fill="none" stroke="black" d="M534.12,-390.85C556.91,-369.78 594.64,-334.88 620.26,-311.19"/>
<polygon fill="black" stroke="black" points="622.83,-313.58 627.79,-304.22 618.08,-308.44 622.83,-313.58"/>
<text text-anchor="middle" x="579.5" y="-362.3" font-family="Times,serif" font-size="14.00">_J0</text>
</g>
<!-- Aart&#45;&gt;Aair -->
<g id="edge2" class="edge">
<title>Aart&#45;&gt;Aair</title>
<path fill="none" stroke="black" d="M640.35,-304.32C631.96,-323.76 616.36,-354.25 594.5,-373.5 582.18,-384.35 566,-392.37 551.42,-398.01"/>
<polygon fill="black" stroke="black" points="549.87,-394.85 541.65,-401.54 552.25,-401.43 549.87,-394.85"/>
<text text-anchor="middle" x="618.5" y="-362.3" font-family="Times,serif" font-size="14.00">_J4</text>
</g>
<!-- Arest -->
<g id="node4" class="node">
<title>Arest</title>
<g id="a_node4"><a xlink:href="#species-Arest" xlink:title="Arest&#10;[PBPKO:00501]">
<path fill="gold" stroke="black" d="M380,-179C380,-179 291,-179 291,-179 285,-179 279,-173 279,-167 279,-167 279,-153 279,-153 279,-147 285,-141 291,-141 291,-141 380,-141 380,-141 386,-141 392,-147 392,-153 392,-153 392,-167 392,-167 392,-173 386,-179 380,-179"/>
<text text-anchor="middle" x="335.5" y="-163.8" font-family="Arial" font-size="14.00">Arest</text>
<text text-anchor="middle" x="335.5" y="-148.8" font-family="Arial" font-size="14.00">[PBPKO:00501]</text>
</a>
</g>
</g>
<!-- Aart&#45;&gt;Arest -->
<g id="edge3" class="edge">
<title>Aart&#45;&gt;Arest</title>
<path fill="none" stroke="black" d="M620.36,-273.3C569.35,-253.19 458.25,-209.39 390.86,-182.83"/>
<polygon fill="black" stroke="black" points="391.84,-179.45 381.25,-179.04 389.27,-185.96 391.84,-179.45"/>
<text text-anchor="middle" x="565.5" y="-237.3" font-family="Times,serif" font-size="14.00">_J1</text>
</g>
<!-- Aven -->
<g id="node3" class="node">
<title>Aven</title>
<g id="a_node3"><a xlink:href="#species-Aven" xlink:title="Aven&#10;[&#45;]">
<path fill="gold" stroke="black" d="M570.5,-54C570.5,-54 540.5,-54 540.5,-54 534.5,-54 528.5,-48 528.5,-42 528.5,-42 528.5,-28 528.5,-28 528.5,-22 534.5,-16 540.5,-16 540.5,-16 570.5,-16 570.5,-16 576.5,-16 582.5,-22 582.5,-28 582.5,-28 582.5,-42 582.5,-42 582.5,-48 576.5,-54 570.5,-54"/>
<text text-anchor="middle" x="555.5" y="-38.8" font-family="Arial" font-size="14.00">Aven</text>
<text text-anchor="middle" x="555.5" y="-23.8" font-family="Arial" font-size="14.00">[&#45;]</text>
</a>
</g>
</g>
<!-- Aven&#45;&gt;Aart -->
<g id="edge4" class="edge">
<title>Aven&#45;&gt;Aart</title>
<path fill="none" stroke="black" d="M577.36,-54.24C596.98,-72.06 624.61,-101.1 637.5,-133 653.79,-173.31 653.2,-224.61 650.74,-255.84"/>
<polygon fill="black" stroke="black" points="647.24,-255.72 649.82,-266 654.21,-256.35 647.24,-255.72"/>
<text text-anchor="middle" x="662.5" y="-156.3" font-family="Times,serif" font-size="14.00">_J3</text>
</g>
<!-- Arest&#45;&gt;Aven -->
<g id="edge5" class="edge">
<title>Arest&#45;&gt;Aven</title>
<path fill="none" stroke="black" d="M367.96,-140.85C408.49,-118.19 477.61,-79.55 519.66,-56.04"/>
<polygon fill="black" stroke="black" points="521.43,-59.06 528.45,-51.12 518.02,-52.95 521.43,-59.06"/>
<text text-anchor="middle" x="436.5" y="-112.3" font-family="Times,serif" font-size="14.00">_J2</text>
</g>
</g>
</svg>
