<?xml version="1.0" encoding="utf-8" standalone="no"?>
<!DOCTYPE svg PUBLIC "-//W3C//DTD SVG 1.1//EN"
  "http://www.w3.org/Graphics/SVG/1.1/DTD/svg11.dtd">
<svg xmlns:xlink="http://www.w3.org/1999/xlink" width="504pt" height="360pt" viewBox="0 0 504 360" xmlns="http://www.w3.org/2000/svg" version="1.1">
 <metadata>
  <rdf:RDF xmlns:dc="http://purl.org/dc/elements/1.1/" xmlns:cc="http://creativecommons.org/ns#" xmlns:rdf="http://www.w3.org/1999/02/22-rdf-syntax-ns#">
   <cc:Work>
    <dc:type rdf:resource="http://purl.org/dc/dcmitype/StillImage"/>
    <dc:date>2026-08-23T07:58:19.248967</dc:date>
    <dc:format>image/svg+xml</dc:format>
    <dc:creator>
     <cc:Agent>
      <dc:title>Matplotlib v3.11.1, https://matplotlib.org/</dc:title>
     </cc:Agent>
    </dc:creator>
   </cc:Work>
  </rdf:RDF>
 </metadata>
 <defs>
  <style type="text/css">*{stroke-linejoin: round; stroke-linecap: butt}</style>
 </defs>
 <g id="figure_1">
  <g id="patch_1">
   <path d="M 0 360 
L 504 360 
L 504 0 
L 0 0 
z
" style="fill: #ffffff"/>
  </g>
  <g id="axes_1">
   <g id="patch_2">
    <path d="M 49.882813 315.957188 
L 493.2 315.957188 
L 493.2 38.034375 
L 49.882813 38.034375 
z
" style="fill: #ffffff"/>
   </g>
   <g id="matplotlib.axis_1">
    <g id="xtick_1">
     <g id="line2d_1">
      <path d="M 49.882813 315.957188 
L 49.882813 38.034375 
" clip-path="url(#p5b407dbb4d)" style="fill: none; stroke-dasharray: 2.96,1.28; stroke-dashoffset: 0; stroke: #b0b0b0; stroke-opacity: 0.3; stroke-width: 0.8"/>
     </g>
     <g id="line2d_2">
      <defs>
       <path id="m1ac437de42" d="M 0 0 
L 0 3.5 
" style="stroke: #000000; stroke-width: 0.8"/>
      </defs>
      <g>
       <use xlink:href="#m1ac437de42" x="49.882813" y="315.957188" style="stroke: #000000; stroke-width: 0.8"/>
      </g>
     </g>
     <g id="text_1">
      <!-- 0 -->
      <g transform="translate(46.701563 330.554844) scale(0.1 -0.1)">
       <defs>
        <path id="DejaVuSans-13" d="M 2034 4250 
Q 1547 4250 1301 3770 
Q 1056 3291 1056 2328 
Q 1056 1369 1301 889 
Q 1547 409 2034 409 
Q 2525 409 2770 889 
Q 3016 1369 3016 2328 
Q 3016 3291 2770 3770 
Q 2525 4250 2034 4250 
z
M 2034 4750 
Q 2819 4750 3233 4129 
Q 3647 3509 3647 2328 
Q 3647 1150 3233 529 
Q 2819 -91 2034 -91 
Q 1250 -91 836 529 
Q 422 1150 422 2328 
Q 422 3509 836 4129 
Q 1250 4750 2034 4750 
z
" transform="scale(0.015625)"/>
       </defs>
       <use xlink:href="#DejaVuSans-13"/>
      </g>
     </g>
    </g>
    <g id="xtick_2">
     <g id="line2d_3">
      <path d="M 120.25062 315.957188 
L 120.25062 38.034375 
" clip-path="url(#p5b407dbb4d)" style="fill: none; stroke-dasharray: 2.96,1.28; stroke-dashoffset: 0; stroke: #b0b0b0; stroke-opacity: 0.3; stroke-width: 0.8"/>
     </g>
     <g id="line2d_4">
      <g>
       <use xlink:href="#m1ac437de42" x="120.25062" y="315.957188" style="stroke: #000000; stroke-width: 0.8"/>
      </g>
     </g>
     <g id="text_2">
      <!-- 200 -->
      <g transform="translate(110.70687 330.554844) scale(0.1 -0.1)">
       <defs>
        <path id="DejaVuSans-15" d="M 1228 531 
L 3431 531 
L 3431 0 
L 469 0 
L 469 531 
Q 828 903 1448 1529 
Q 2069 2156 2228 2338 
Q 2531 2678 2651 2914 
Q 2772 3150 2772 3378 
Q 2772 3750 2511 3984 
Q 2250 4219 1831 4219 
Q 1534 4219 1204 4116 
Q 875 4013 500 3803 
L 500 4441 
Q 881 4594 1212 4672 
Q 1544 4750 1819 4750 
Q 2544 4750 2975 4387 
Q 3406 4025 3406 3419 
Q 3406 3131 3298 2873 
Q 3191 2616 2906 2266 
Q 2828 2175 2409 1742 
Q 1991 1309 1228 531 
z
" transform="scale(0.015625)"/>
       </defs>
       <use xlink:href="#DejaVuSans-15"/>
       <use xlink:href="#DejaVuSans-13" transform="translate(63.625 0)"/>
       <use xlink:href="#DejaVuSans-13" transform="translate(127.25 0)"/>
      </g>
     </g>
    </g>
    <g id="xtick_3">
     <g id="line2d_5">
      <path d="M 190.618428 315.957188 
L 190.618428 38.034375 
" clip-path="url(#p5b407dbb4d)" style="fill: none; stroke-dasharray: 2.96,1.28; stroke-dashoffset: 0; stroke: #b0b0b0; stroke-opacity: 0.3; stroke-width: 0.8"/>
     </g>
     <g id="line2d_6">
      <g>
       <use xlink:href="#m1ac437de42" x="190.618428" y="315.957188" style="stroke: #000000; stroke-width: 0.8"/>
      </g>
     </g>
     <g id="text_3">
      <!-- 400 -->
      <g transform="translate(181.074678 330.554844) scale(0.1 -0.1)">
       <defs>
        <path id="DejaVuSans-17" d="M 2419 4116 
L 825 1625 
L 2419 1625 
L 2419 4116 
z
M 2253 4666 
L 3047 4666 
L 3047 1625 
L 3713 1625 
L 3713 1100 
L 3047 1100 
L 3047 0 
L 2419 0 
L 2419 1100 
L 313 1100 
L 313 1709 
L 2253 4666 
z
" transform="scale(0.015625)"/>
       </defs>
       <use xlink:href="#DejaVuSans-17"/>
       <use xlink:href="#DejaVuSans-13" transform="translate(63.625 0)"/>
       <use xlink:href="#DejaVuSans-13" transform="translate(127.25 0)"/>
      </g>
     </g>
    </g>
    <g id="xtick_4">
     <g id="line2d_7">
      <path d="M 260.986235 315.957188 
L 260.986235 38.034375 
" clip-path="url(#p5b407dbb4d)" style="fill: none; stroke-dasharray: 2.96,1.28; stroke-dashoffset: 0; stroke: #b0b0b0; stroke-opacity: 0.3; stroke-width: 0.8"/>
     </g>
     <g id="line2d_8">
      <g>
       <use xlink:href="#m1ac437de42" x="260.986235" y="315.957188" style="stroke: #000000; stroke-width: 0.8"/>
      </g>
     </g>
     <g id="text_4">
      <!-- 600 -->
      <g transform="translate(251.442485 330.554844) scale(0.1 -0.1)">
       <defs>
        <path id="DejaVuSans-19" d="M 2113 2584 
Q 1688 2584 1439 2293 
Q 1191 2003 1191 1497 
Q 1191 994 1439 701 
Q 1688 409 2113 409 
Q 2538 409 2786 701 
Q 3034 994 3034 1497 
Q 3034 2003 2786 2293 
Q 2538 2584 2113 2584 
z
M 3366 4563 
L 3366 3988 
Q 3128 4100 2886 4159 
Q 2644 4219 2406 4219 
Q 1781 4219 1451 3797 
Q 1122 3375 1075 2522 
Q 1259 2794 1537 2939 
Q 1816 3084 2150 3084 
Q 2853 3084 3261 2657 
Q 3669 2231 3669 1497 
Q 3669 778 3244 343 
Q 2819 -91 2113 -91 
Q 1303 -91 875 529 
Q 447 1150 447 2328 
Q 447 3434 972 4092 
Q 1497 4750 2381 4750 
Q 2619 4750 2861 4703 
Q 3103 4656 3366 4563 
z
" transform="scale(0.015625)"/>
       </defs>
       <use xlink:href="#DejaVuSans-19"/>
       <use xlink:href="#DejaVuSans-13" transform="translate(63.625 0)"/>
       <use xlink:href="#DejaVuSans-13" transform="translate(127.25 0)"/>
      </g>
     </g>
    </g>
    <g id="xtick_5">
     <g id="line2d_9">
      <path d="M 331.354043 315.957188 
L 331.354043 38.034375 
" clip-path="url(#p5b407dbb4d)" style="fill: none; stroke-dasharray: 2.96,1.28; stroke-dashoffset: 0; stroke: #b0b0b0; stroke-opacity: 0.3; stroke-width: 0.8"/>
     </g>
     <g id="line2d_10">
      <g>
       <use xlink:href="#m1ac437de42" x="331.354043" y="315.957188" style="stroke: #000000; stroke-width: 0.8"/>
      </g>
     </g>
     <g id="text_5">
      <!-- 800 -->
      <g transform="translate(321.810293 330.554844) scale(0.1 -0.1)">
       <defs>
        <path id="DejaVuSans-1b" d="M 2034 2216 
Q 1584 2216 1326 1975 
Q 1069 1734 1069 1313 
Q 1069 891 1326 650 
Q 1584 409 2034 409 
Q 2484 409 2743 651 
Q 3003 894 3003 1313 
Q 3003 1734 2745 1975 
Q 2488 2216 2034 2216 
z
M 1403 2484 
Q 997 2584 770 2862 
Q 544 3141 544 3541 
Q 544 4100 942 4425 
Q 1341 4750 2034 4750 
Q 2731 4750 3128 4425 
Q 3525 4100 3525 3541 
Q 3525 3141 3298 2862 
Q 3072 2584 2669 2484 
Q 3125 2378 3379 2068 
Q 3634 1759 3634 1313 
Q 3634 634 3220 271 
Q 2806 -91 2034 -91 
Q 1263 -91 848 271 
Q 434 634 434 1313 
Q 434 1759 690 2068 
Q 947 2378 1403 2484 
z
M 1172 3481 
Q 1172 3119 1398 2916 
Q 1625 2713 2034 2713 
Q 2441 2713 2670 2916 
Q 2900 3119 2900 3481 
Q 2900 3844 2670 4047 
Q 2441 4250 2034 4250 
Q 1625 4250 1398 4047 
Q 1172 3844 1172 3481 
z
" transform="scale(0.015625)"/>
       </defs>
       <use xlink:href="#DejaVuSans-1b"/>
       <use xlink:href="#DejaVuSans-13" transform="translate(63.625 0)"/>
       <use xlink:href="#DejaVuSans-13" transform="translate(127.25 0)"/>
      </g>
     </g>
    </g>
    <g id="xtick_6">
     <g id="line2d_11">
      <path d="M 401.72185 315.957188 
L 401.72185 38.034375 
" clip-path="url(#p5b407dbb4d)" style="fill: none; stroke-dasharray: 2.96,1.28; stroke-dashoffset: 0; stroke: #b0b0b0; stroke-opacity: 0.3; stroke-width: 0.8"/>
     </g>
     <g id="line2d_12">
      <g>
       <use xlink:href="#m1ac437de42" x="401.72185" y="315.957188" style="stroke: #000000; stroke-width: 0.8"/>
      </g>
     </g>
     <g id="text_6">
      <!-- 1000 -->
      <g transform="translate(388.99685 330.554844) scale(0.1 -0.1)">
       <defs>
        <path id="DejaVuSans-14" d="M 794 531 
L 1825 531 
L 1825 4091 
L 703 3866 
L 703 4441 
L 1819 4666 
L 2450 4666 
L 2450 531 
L 3481 531 
L 3481 0 
L 794 0 
L 794 531 
z
" transform="scale(0.015625)"/>
       </defs>
       <use xlink:href="#DejaVuSans-14"/>
       <use xlink:href="#DejaVuSans-13" transform="translate(63.625 0)"/>
       <use xlink:href="#DejaVuSans-13" transform="translate(127.25 0)"/>
       <use xlink:href="#DejaVuSans-13" transform="translate(190.875 0)"/>
      </g>
     </g>
    </g>
    <g id="xtick_7">
     <g id="line2d_13">
      <path d="M 472.089658 315.957188 
L 472.089658 38.034375 
" clip-path="url(#p5b407dbb4d)" style="fill: none; stroke-dasharray: 2.96,1.28; stroke-dashoffset: 0; stroke: #b0b0b0; stroke-opacity: 0.3; stroke-width: 0.8"/>
     </g>
     <g id="line2d_14">
      <g>
       <use xlink:href="#m1ac437de42" x="472.089658" y="315.957188" style="stroke: #000000; stroke-width: 0.8"/>
      </g>
     </g>
     <g id="text_7">
      <!-- 1200 -->
      <g transform="translate(459.364658 330.554844) scale(0.1 -0.1)">
       <use xlink:href="#DejaVuSans-14"/>
       <use xlink:href="#DejaVuSans-15" transform="translate(63.625 0)"/>
       <use xlink:href="#DejaVuSans-13" transform="translate(127.25 0)"/>
       <use xlink:href="#DejaVuSans-13" transform="translate(190.875 0)"/>
      </g>
     </g>
    </g>
    <g id="text_8">
     <!-- Time (hours) -->
     <g transform="translate(228.302031 346.075312) scale(0.12 -0.12)">
      <defs>
       <path id="DejaVuSans-Bold-37" d="M 31 4666 
L 4331 4666 
L 4331 3756 
L 2784 3756 
L 2784 0 
L 1581 0 
L 1581 3756 
L 31 3756 
L 31 4666 
z
" transform="scale(0.015625)"/>
       <path id="DejaVuSans-Bold-4c" d="M 538 3500 
L 1656 3500 
L 1656 0 
L 538 0 
L 538 3500 
z
M 538 4863 
L 1656 4863 
L 1656 3950 
L 538 3950 
L 538 4863 
z
" transform="scale(0.015625)"/>
       <path id="DejaVuSans-Bold-50" d="M 3781 2919 
Q 3994 3244 4286 3414 
Q 4578 3584 4928 3584 
Q 5531 3584 5847 3212 
Q 6163 2841 6163 2131 
L 6163 0 
L 5038 0 
L 5038 1825 
Q 5041 1866 5042 1909 
Q 5044 1953 5044 2034 
Q 5044 2406 4934 2573 
Q 4825 2741 4581 2741 
Q 4263 2741 4089 2478 
Q 3916 2216 3909 1719 
L 3909 0 
L 2784 0 
L 2784 1825 
Q 2784 2406 2684 2573 
Q 2584 2741 2328 2741 
Q 2006 2741 1831 2477 
Q 1656 2213 1656 1722 
L 1656 0 
L 531 0 
L 531 3500 
L 1656 3500 
L 1656 2988 
Q 1863 3284 2130 3434 
Q 2397 3584 2719 3584 
Q 3081 3584 3359 3409 
Q 3638 3234 3781 2919 
z
" transform="scale(0.015625)"/>
       <path id="DejaVuSans-Bold-48" d="M 4031 1759 
L 4031 1441 
L 1416 1441 
Q 1456 1047 1700 850 
Q 1944 653 2381 653 
Q 2734 653 3104 758 
Q 3475 863 3866 1075 
L 3866 213 
Q 3469 63 3072 -14 
Q 2675 -91 2278 -91 
Q 1328 -91 801 392 
Q 275 875 275 1747 
Q 275 2603 792 3093 
Q 1309 3584 2216 3584 
Q 3041 3584 3536 3087 
Q 4031 2591 4031 1759 
z
M 2881 2131 
Q 2881 2450 2695 2645 
Q 2509 2841 2209 2841 
Q 1884 2841 1681 2658 
Q 1478 2475 1428 2131 
L 2881 2131 
z
" transform="scale(0.015625)"/>
       <path id="DejaVuSans-Bold-3" transform="scale(0.015625)"/>
       <path id="DejaVuSans-Bold-b" d="M 2413 -844 
L 1484 -844 
Q 1006 -72 778 623 
Q 550 1319 550 2003 
Q 550 2688 779 3389 
Q 1009 4091 1484 4856 
L 2413 4856 
Q 2013 4116 1813 3408 
Q 1613 2700 1613 2009 
Q 1613 1319 1811 609 
Q 2009 -100 2413 -844 
z
" transform="scale(0.015625)"/>
       <path id="DejaVuSans-Bold-4b" d="M 4056 2131 
L 4056 0 
L 2931 0 
L 2931 347 
L 2931 1625 
Q 2931 2084 2911 2256 
Q 2891 2428 2841 2509 
Q 2775 2619 2662 2680 
Q 2550 2741 2406 2741 
Q 2056 2741 1856 2470 
Q 1656 2200 1656 1722 
L 1656 0 
L 538 0 
L 538 4863 
L 1656 4863 
L 1656 2988 
Q 1909 3294 2193 3439 
Q 2478 3584 2822 3584 
Q 3428 3584 3742 3212 
Q 4056 2841 4056 2131 
z
" transform="scale(0.015625)"/>
       <path id="DejaVuSans-Bold-52" d="M 2203 2784 
Q 1831 2784 1636 2517 
Q 1441 2250 1441 1747 
Q 1441 1244 1636 976 
Q 1831 709 2203 709 
Q 2569 709 2762 976 
Q 2956 1244 2956 1747 
Q 2956 2250 2762 2517 
Q 2569 2784 2203 2784 
z
M 2203 3584 
Q 3106 3584 3614 3096 
Q 4122 2609 4122 1747 
Q 4122 884 3614 396 
Q 3106 -91 2203 -91 
Q 1297 -91 786 396 
Q 275 884 275 1747 
Q 275 2609 786 3096 
Q 1297 3584 2203 3584 
z
" transform="scale(0.015625)"/>
       <path id="DejaVuSans-Bold-58" d="M 500 1363 
L 500 3500 
L 1625 3500 
L 1625 3150 
Q 1625 2866 1622 2436 
Q 1619 2006 1619 1863 
Q 1619 1441 1641 1255 
Q 1663 1069 1716 984 
Q 1784 875 1895 815 
Q 2006 756 2150 756 
Q 2500 756 2700 1025 
Q 2900 1294 2900 1772 
L 2900 3500 
L 4019 3500 
L 4019 0 
L 2900 0 
L 2900 506 
Q 2647 200 2364 54 
Q 2081 -91 1741 -91 
Q 1134 -91 817 281 
Q 500 653 500 1363 
z
" transform="scale(0.015625)"/>
       <path id="DejaVuSans-Bold-55" d="M 3138 2547 
Q 2991 2616 2845 2648 
Q 2700 2681 2553 2681 
Q 2122 2681 1889 2404 
Q 1656 2128 1656 1613 
L 1656 0 
L 538 0 
L 538 3500 
L 1656 3500 
L 1656 2925 
Q 1872 3269 2151 3426 
Q 2431 3584 2822 3584 
Q 2878 3584 2943 3579 
Q 3009 3575 3134 3559 
L 3138 2547 
z
" transform="scale(0.015625)"/>
       <path id="DejaVuSans-Bold-56" d="M 3272 3391 
L 3272 2541 
Q 2913 2691 2578 2766 
Q 2244 2841 1947 2841 
Q 1628 2841 1473 2761 
Q 1319 2681 1319 2516 
Q 1319 2381 1436 2309 
Q 1553 2238 1856 2203 
L 2053 2175 
Q 2913 2066 3209 1816 
Q 3506 1566 3506 1031 
Q 3506 472 3093 190 
Q 2681 -91 1863 -91 
Q 1516 -91 1145 -36 
Q 775 19 384 128 
L 384 978 
Q 719 816 1070 734 
Q 1422 653 1784 653 
Q 2113 653 2278 743 
Q 2444 834 2444 1013 
Q 2444 1163 2330 1236 
Q 2216 1309 1875 1350 
L 1678 1375 
Q 931 1469 631 1722 
Q 331 1975 331 2491 
Q 331 3047 712 3315 
Q 1094 3584 1881 3584 
Q 2191 3584 2531 3537 
Q 2872 3491 3272 3391 
z
" transform="scale(0.015625)"/>
       <path id="DejaVuSans-Bold-c" d="M 513 -844 
Q 913 -100 1113 609 
Q 1313 1319 1313 2009 
Q 1313 2700 1113 3408 
Q 913 4116 513 4856 
L 1441 4856 
Q 1916 4091 2145 3389 
Q 2375 2688 2375 2003 
Q 2375 1319 2147 623 
Q 1919 -72 1441 -844 
L 513 -844 
z
" transform="scale(0.015625)"/>
      </defs>
      <use xlink:href="#DejaVuSans-Bold-37"/>
      <use xlink:href="#DejaVuSans-Bold-4c" transform="translate(68.21875 0)"/>
      <use xlink:href="#DejaVuSans-Bold-50" transform="translate(102.5 0)"/>
      <use xlink:href="#DejaVuSans-Bold-48" transform="translate(206.703125 0)"/>
      <use xlink:href="#DejaVuSans-Bold-3" transform="translate(274.53125 0)"/>
      <use xlink:href="#DejaVuSans-Bold-b" transform="translate(309.34375 0)"/>
      <use xlink:href="#DejaVuSans-Bold-4b" transform="translate(355.046875 0)"/>
      <use xlink:href="#DejaVuSans-Bold-52" transform="translate(426.234375 0)"/>
      <use xlink:href="#DejaVuSans-Bold-58" transform="translate(494.9375 0)"/>
      <use xlink:href="#DejaVuSans-Bold-55" transform="translate(566.125 0)"/>
      <use xlink:href="#DejaVuSans-Bold-56" transform="translate(615.4375 0)"/>
      <use xlink:href="#DejaVuSans-Bold-c" transform="translate(674.953125 0)"/>
     </g>
    </g>
   </g>
   <g id="matplotlib.axis_2">
    <g id="ytick_1">
     <g id="line2d_15">
      <path d="M 49.882813 315.957188 
L 493.2 315.957188 
" clip-path="url(#p5b407dbb4d)" style="fill: none; stroke-dasharray: 2.96,1.28; stroke-dashoffset: 0; stroke: #b0b0b0; stroke-opacity: 0.3; stroke-width: 0.8"/>
     </g>
     <g id="line2d_16">
      <defs>
       <path id="mb02ddb7362" d="M 0 0 
L -3.5 0 
" style="stroke: #000000; stroke-width: 0.8"/>
      </defs>
      <g>
       <use xlink:href="#mb02ddb7362" x="49.882813" y="315.957188" style="stroke: #000000; stroke-width: 0.8"/>
      </g>
     </g>
     <g id="text_9">
      <!-- 0.0 -->
      <g transform="translate(26.979688 319.756016) scale(0.1 -0.1)">
       <defs>
        <path id="DejaVuSans-11" d="M 684 794 
L 1344 794 
L 1344 0 
L 684 0 
L 684 794 
z
" transform="scale(0.015625)"/>
       </defs>
       <use xlink:href="#DejaVuSans-13"/>
       <use xlink:href="#DejaVuSans-11" transform="translate(63.625 0)"/>
       <use xlink:href="#DejaVuSans-13" transform="translate(95.40625 0)"/>
      </g>
     </g>
    </g>
    <g id="ytick_2">
     <g id="line2d_17">
      <path d="M 49.882813 265.364838 
L 493.2 265.364838 
" clip-path="url(#p5b407dbb4d)" style="fill: none; stroke-dasharray: 2.96,1.28; stroke-dashoffset: 0; stroke: #b0b0b0; stroke-opacity: 0.3; stroke-width: 0.8"/>
     </g>
     <g id="line2d_18">
      <g>
       <use xlink:href="#mb02ddb7362" x="49.882813" y="265.364838" style="stroke: #000000; stroke-width: 0.8"/>
      </g>
     </g>
     <g id="text_10">
      <!-- 0.2 -->
      <g transform="translate(26.979688 269.163667) scale(0.1 -0.1)">
       <use xlink:href="#DejaVuSans-13"/>
       <use xlink:href="#DejaVuSans-11" transform="translate(63.625 0)"/>
       <use xlink:href="#DejaVuSans-15" transform="translate(95.40625 0)"/>
      </g>
     </g>
    </g>
    <g id="ytick_3">
     <g id="line2d_19">
      <path d="M 49.882813 214.772489 
L 493.2 214.772489 
" clip-path="url(#p5b407dbb4d)" style="fill: none; stroke-dasharray: 2.96,1.28; stroke-dashoffset: 0; stroke: #b0b0b0; stroke-opacity: 0.3; stroke-width: 0.8"/>
     </g>
     <g id="line2d_20">
      <g>
       <use xlink:href="#mb02ddb7362" x="49.882813" y="214.772489" style="stroke: #000000; stroke-width: 0.8"/>
      </g>
     </g>
     <g id="text_11">
      <!-- 0.4 -->
      <g transform="translate(26.979688 218.571317) scale(0.1 -0.1)">
       <use xlink:href="#DejaVuSans-13"/>
       <use xlink:href="#DejaVuSans-11" transform="translate(63.625 0)"/>
       <use xlink:href="#DejaVuSans-17" transform="translate(95.40625 0)"/>
      </g>
     </g>
    </g>
    <g id="ytick_4">
     <g id="line2d_21">
      <path d="M 49.882813 164.18014 
L 493.2 164.18014 
" clip-path="url(#p5b407dbb4d)" style="fill: none; stroke-dasharray: 2.96,1.28; stroke-dashoffset: 0; stroke: #b0b0b0; stroke-opacity: 0.3; stroke-width: 0.8"/>
     </g>
     <g id="line2d_22">
      <g>
       <use xlink:href="#mb02ddb7362" x="49.882813" y="164.18014" style="stroke: #000000; stroke-width: 0.8"/>
      </g>
     </g>
     <g id="text_12">
      <!-- 0.6 -->
      <g transform="translate(26.979688 167.978968) scale(0.1 -0.1)">
       <use xlink:href="#DejaVuSans-13"/>
       <use xlink:href="#DejaVuSans-11" transform="translate(63.625 0)"/>
       <use xlink:href="#DejaVuSans-19" transform="translate(95.40625 0)"/>
      </g>
     </g>
    </g>
    <g id="ytick_5">
     <g id="line2d_23">
      <path d="M 49.882813 113.587791 
L 493.2 113.587791 
" clip-path="url(#p5b407dbb4d)" style="fill: none; stroke-dasharray: 2.96,1.28; stroke-dashoffset: 0; stroke: #b0b0b0; stroke-opacity: 0.3; stroke-width: 0.8"/>
     </g>
     <g id="line2d_24">
      <g>
       <use xlink:href="#mb02ddb7362" x="49.882813" y="113.587791" style="stroke: #000000; stroke-width: 0.8"/>
      </g>
     </g>
     <g id="text_13">
      <!-- 0.8 -->
      <g transform="translate(26.979688 117.386619) scale(0.1 -0.1)">
       <use xlink:href="#DejaVuSans-13"/>
       <use xlink:href="#DejaVuSans-11" transform="translate(63.625 0)"/>
       <use xlink:href="#DejaVuSans-1b" transform="translate(95.40625 0)"/>
      </g>
     </g>
    </g>
    <g id="ytick_6">
     <g id="line2d_25">
      <path d="M 49.882813 62.995442 
L 493.2 62.995442 
" clip-path="url(#p5b407dbb4d)" style="fill: none; stroke-dasharray: 2.96,1.28; stroke-dashoffset: 0; stroke: #b0b0b0; stroke-opacity: 0.3; stroke-width: 0.8"/>
     </g>
     <g id="line2d_26">
      <g>
       <use xlink:href="#mb02ddb7362" x="49.882813" y="62.995442" style="stroke: #000000; stroke-width: 0.8"/>
      </g>
     </g>
     <g id="text_14">
      <!-- 1.0 -->
      <g transform="translate(26.979688 66.79427) scale(0.1 -0.1)">
       <use xlink:href="#DejaVuSans-14"/>
       <use xlink:href="#DejaVuSans-11" transform="translate(63.625 0)"/>
       <use xlink:href="#DejaVuSans-13" transform="translate(95.40625 0)"/>
      </g>
     </g>
    </g>
    <g id="text_15">
     <!-- Amount in venous blood -->
     <g transform="translate(20.096875 259.125469) rotate(-90) scale(0.12 -0.12)">
      <defs>
       <path id="DejaVuSans-Bold-24" d="M 3419 850 
L 1538 850 
L 1241 0 
L 31 0 
L 1759 4666 
L 3194 4666 
L 4922 0 
L 3713 0 
L 3419 850 
z
M 1838 1716 
L 3116 1716 
L 2478 3572 
L 1838 1716 
z
" transform="scale(0.015625)"/>
       <path id="DejaVuSans-Bold-51" d="M 4056 2131 
L 4056 0 
L 2931 0 
L 2931 347 
L 2931 1631 
Q 2931 2084 2911 2256 
Q 2891 2428 2841 2509 
Q 2775 2619 2662 2680 
Q 2550 2741 2406 2741 
Q 2056 2741 1856 2470 
Q 1656 2200 1656 1722 
L 1656 0 
L 538 0 
L 538 3500 
L 1656 3500 
L 1656 2988 
Q 1909 3294 2193 3439 
Q 2478 3584 2822 3584 
Q 3428 3584 3742 3212 
Q 4056 2841 4056 2131 
z
" transform="scale(0.015625)"/>
       <path id="DejaVuSans-Bold-57" d="M 1759 4494 
L 1759 3500 
L 2913 3500 
L 2913 2700 
L 1759 2700 
L 1759 1216 
Q 1759 972 1856 886 
Q 1953 800 2241 800 
L 2816 800 
L 2816 0 
L 1856 0 
Q 1194 0 917 276 
Q 641 553 641 1216 
L 641 2700 
L 84 2700 
L 84 3500 
L 641 3500 
L 641 4494 
L 1759 4494 
z
" transform="scale(0.015625)"/>
       <path id="DejaVuSans-Bold-59" d="M 97 3500 
L 1216 3500 
L 2088 1081 
L 2956 3500 
L 4078 3500 
L 2700 0 
L 1472 0 
L 97 3500 
z
" transform="scale(0.015625)"/>
       <path id="DejaVuSans-Bold-45" d="M 2400 722 
Q 2759 722 2948 984 
Q 3138 1247 3138 1747 
Q 3138 2247 2948 2509 
Q 2759 2772 2400 2772 
Q 2041 2772 1848 2508 
Q 1656 2244 1656 1747 
Q 1656 1250 1848 986 
Q 2041 722 2400 722 
z
M 1656 2988 
Q 1888 3294 2169 3439 
Q 2450 3584 2816 3584 
Q 3463 3584 3878 3070 
Q 4294 2556 4294 1747 
Q 4294 938 3878 423 
Q 3463 -91 2816 -91 
Q 2450 -91 2169 54 
Q 1888 200 1656 506 
L 1656 0 
L 538 0 
L 538 4863 
L 1656 4863 
L 1656 2988 
z
" transform="scale(0.015625)"/>
       <path id="DejaVuSans-Bold-4f" d="M 538 4863 
L 1656 4863 
L 1656 0 
L 538 0 
L 538 4863 
z
" transform="scale(0.015625)"/>
       <path id="DejaVuSans-Bold-47" d="M 2919 2988 
L 2919 4863 
L 4044 4863 
L 4044 0 
L 2919 0 
L 2919 506 
Q 2688 197 2409 53 
Q 2131 -91 1766 -91 
Q 1119 -91 703 423 
Q 288 938 288 1747 
Q 288 2556 703 3070 
Q 1119 3584 1766 3584 
Q 2128 3584 2408 3439 
Q 2688 3294 2919 2988 
z
M 2181 722 
Q 2541 722 2730 984 
Q 2919 1247 2919 1747 
Q 2919 2247 2730 2509 
Q 2541 2772 2181 2772 
Q 1825 2772 1636 2509 
Q 1447 2247 1447 1747 
Q 1447 1247 1636 984 
Q 1825 722 2181 722 
z
" transform="scale(0.015625)"/>
      </defs>
      <use xlink:href="#DejaVuSans-Bold-24"/>
      <use xlink:href="#DejaVuSans-Bold-50" transform="translate(77.390625 0)"/>
      <use xlink:href="#DejaVuSans-Bold-52" transform="translate(181.59375 0)"/>
      <use xlink:href="#DejaVuSans-Bold-58" transform="translate(250.296875 0)"/>
      <use xlink:href="#DejaVuSans-Bold-51" transform="translate(321.484375 0)"/>
      <use xlink:href="#DejaVuSans-Bold-57" transform="translate(392.671875 0)"/>
      <use xlink:href="#DejaVuSans-Bold-3" transform="translate(440.46875 0)"/>
      <use xlink:href="#DejaVuSans-Bold-4c" transform="translate(475.28125 0)"/>
      <use xlink:href="#DejaVuSans-Bold-51" transform="translate(509.5625 0)"/>
      <use xlink:href="#DejaVuSans-Bold-3" transform="translate(580.75 0)"/>
      <use xlink:href="#DejaVuSans-Bold-59" transform="translate(615.5625 0)"/>
      <use xlink:href="#DejaVuSans-Bold-48" transform="translate(680.75 0)"/>
      <use xlink:href="#DejaVuSans-Bold-51" transform="translate(748.578125 0)"/>
      <use xlink:href="#DejaVuSans-Bold-52" transform="translate(819.765625 0)"/>
      <use xlink:href="#DejaVuSans-Bold-58" transform="translate(888.46875 0)"/>
      <use xlink:href="#DejaVuSans-Bold-56" transform="translate(959.65625 0)"/>
      <use xlink:href="#DejaVuSans-Bold-3" transform="translate(1019.171875 0)"/>
      <use xlink:href="#DejaVuSans-Bold-45" transform="translate(1053.984375 0)"/>
      <use xlink:href="#DejaVuSans-Bold-4f" transform="translate(1125.5625 0)"/>
      <use xlink:href="#DejaVuSans-Bold-52" transform="translate(1159.84375 0)"/>
      <use xlink:href="#DejaVuSans-Bold-52" transform="translate(1228.546875 0)"/>
      <use xlink:href="#DejaVuSans-Bold-47" transform="translate(1297.25 0)"/>
     </g>
    </g>
    <g id="text_16">
     <!-- 1e3 -->
     <g transform="translate(49.882813 35.034375) scale(0.1 -0.1)">
      <defs>
       <path id="DejaVuSans-48" d="M 3597 1894 
L 3597 1613 
L 953 1613 
Q 991 1019 1311 708 
Q 1631 397 2203 397 
Q 2534 397 2845 478 
Q 3156 559 3463 722 
L 3463 178 
Q 3153 47 2828 -22 
Q 2503 -91 2169 -91 
Q 1331 -91 842 396 
Q 353 884 353 1716 
Q 353 2575 817 3079 
Q 1281 3584 2069 3584 
Q 2775 3584 3186 3129 
Q 3597 2675 3597 1894 
z
M 3022 2063 
Q 3016 2534 2758 2815 
Q 2500 3097 2075 3097 
Q 1594 3097 1305 2825 
Q 1016 2553 972 2059 
L 3022 2063 
z
" transform="scale(0.015625)"/>
       <path id="DejaVuSans-16" d="M 2597 2516 
Q 3050 2419 3304 2112 
Q 3559 1806 3559 1356 
Q 3559 666 3084 287 
Q 2609 -91 1734 -91 
Q 1441 -91 1130 -33 
Q 819 25 488 141 
L 488 750 
Q 750 597 1062 519 
Q 1375 441 1716 441 
Q 2309 441 2620 675 
Q 2931 909 2931 1356 
Q 2931 1769 2642 2001 
Q 2353 2234 1838 2234 
L 1294 2234 
L 1294 2753 
L 1863 2753 
Q 2328 2753 2575 2939 
Q 2822 3125 2822 3475 
Q 2822 3834 2567 4026 
Q 2313 4219 1838 4219 
Q 1578 4219 1281 4162 
Q 984 4106 628 3988 
L 628 4550 
Q 988 4650 1302 4700 
Q 1616 4750 1894 4750 
Q 2613 4750 3031 4423 
Q 3450 4097 3450 3541 
Q 3450 3153 3228 2886 
Q 3006 2619 2597 2516 
z
" transform="scale(0.015625)"/>
      </defs>
      <use xlink:href="#DejaVuSans-14"/>
      <use xlink:href="#DejaVuSans-48" transform="translate(63.625 0)"/>
      <use xlink:href="#DejaVuSans-16" transform="translate(125.15625 0)"/>
     </g>
    </g>
   </g>
   <g id="line2d_27">
    <path d="M 49.882813 315.957188 
L 49.88809 315.806028 
L 50.09157 296.659004 
L 52.712185 54.078877 
L 52.761442 54.251936 
L 56.571273 68.540163 
L 60.562886 82.673616 
L 64.565056 96.033782 
L 68.576607 108.6575 
L 72.5993 120.58865 
L 76.634307 131.866408 
L 80.683975 142.530672 
L 84.748888 152.613978 
L 88.830808 162.149623 
L 92.931492 171.168638 
L 97.053872 179.702351 
L 101.200295 187.778511 
L 105.373693 195.423914 
L 109.576996 202.663282 
L 113.814311 209.521278 
L 118.08681 216.015967 
L 122.400943 222.171839 
L 126.760815 228.007755 
L 131.17229 233.54321 
L 135.640646 238.795005 
L 140.171746 243.77892 
L 144.772628 248.510312 
L 149.450915 253.003389 
L 154.214815 257.271228 
L 159.073712 261.326271 
L 164.037575 265.17973 
L 169.116958 268.841656 
L 174.324762 272.322143 
L 179.674474 275.629926 
L 185.180755 278.772838 
L 190.861197 281.758679 
L 196.73339 284.593498 
L 202.818446 287.283427 
L 209.139821 289.833792 
L 215.723902 292.249279 
L 222.60001 294.533808 
L 229.802741 296.691143 
L 237.371385 298.724404 
L 245.352267 300.636437 
L 253.799336 302.429577 
L 262.775923 304.105685 
L 272.358846 305.666477 
L 282.640755 307.113284 
L 293.737758 308.447423 
L 305.793523 309.669764 
L 318.992764 310.781104 
L 333.578838 311.782207 
L 349.877195 312.673593 
L 368.342294 313.455817 
L 389.633834 314.129432 
L 414.759832 314.695015 
L 445.376279 315.153325 
L 472.089658 315.414907 
L 472.089658 315.414907 
" clip-path="url(#p5b407dbb4d)" style="fill: none; stroke: #1f77b4; stroke-linecap: square"/>
   </g>
   <g id="line2d_28">
    <path d="M 49.882813 315.957188 
L 49.887504 315.870433 
L 50.010647 304.378705 
L 52.715703 51.268795 
L 52.786071 51.398407 
L 58.956741 63.160801 
L 64.847113 73.90076 
L 70.768564 84.237218 
L 76.721681 94.183874 
L 82.71174 103.761149 
L 88.741089 112.983829 
L 94.809139 121.861207 
L 100.919411 130.408063 
L 107.07718 138.64061 
L 113.285966 146.571586 
L 119.549288 154.212862 
L 125.871249 161.576176 
L 132.256541 168.673044 
L 138.709855 175.51408 
L 145.236469 182.109681 
L 151.842247 188.469937 
L 158.532467 194.603512 
L 165.313578 200.519353 
L 172.192617 206.226045 
L 179.176622 211.731288 
L 186.274388 217.043318 
L 193.49178 222.167343 
L 200.839938 227.111589 
L 208.327073 231.881354 
L 215.963739 236.482662 
L 223.761665 240.921367 
L 231.731992 245.202115 
L 239.888207 249.329975 
L 248.243798 253.309143 
L 256.814597 257.144017 
L 265.61585 260.837854 
L 274.666323 264.394493 
L 283.98478 267.816809 
L 293.592918 271.107835 
L 303.514192 274.270185 
L 313.774405 277.306227 
L 324.402876 280.218284 
L 335.430684 283.008053 
L 346.8936 285.677314 
L 358.832085 288.227696 
L 371.291292 290.660535 
L 384.322823 292.977062 
L 397.985906 295.178396 
L 412.348562 297.265478 
L 427.489369 299.239082 
L 443.500977 301.099957 
L 460.492457 302.848706 
L 472.089658 303.922561 
L 472.089658 303.922561 
" clip-path="url(#p5b407dbb4d)" style="fill: none; stroke-dasharray: 3.7,1.6; stroke-dashoffset: 0; stroke: #ff7f0e"/>
   </g>
   <g id="line2d_29">
    <path d="M 49.882813 315.957188 
L 49.906855 315.849453 
L 50.037035 313.388831 
L 50.901973 297.655867 
L 51.751078 286.105129 
L 52.600769 277.439147 
L 52.718049 276.502156 
L 52.772584 276.906523 
L 54.218642 292.00856 
L 55.070093 298.014608 
L 55.924475 302.527788 
L 56.783549 305.921686 
L 57.650246 308.477239 
L 58.531602 310.409662 
L 59.437002 311.876242 
L 60.384621 312.997794 
L 61.402023 313.861297 
L 62.533771 314.529301 
L 63.851409 315.043825 
L 65.476319 315.430759 
L 67.643061 315.7047 
L 70.925719 315.874241 
L 77.510973 315.948296 
L 117.314523 315.957187 
L 472.089658 315.957188 
L 472.089658 315.957188 
" clip-path="url(#p5b407dbb4d)" style="fill: none; stroke-dasharray: 6.4,1.6,1,1.6; stroke-dashoffset: 0; stroke: #2ca02c"/>
   </g>
   <g id="line2d_30">
    <path d="M 49.882813 315.957188 
L 49.893368 315.8523 
L 49.96139 310.676701 
L 52.745609 73.59059 
L 52.781966 73.672341 
L 62.616454 104.048158 
L 66.810375 115.814744 
L 71.019543 126.967208 
L 75.243957 137.535481 
L 79.48479 147.550517 
L 83.743801 157.042739 
L 88.023923 166.043034 
L 92.328088 174.579927 
L 96.658053 182.677626 
L 101.016166 190.359658 
L 105.405945 197.649939 
L 109.831493 204.571332 
L 114.296917 211.144733 
L 118.805734 217.388485 
L 123.362636 223.320993 
L 127.972314 228.959013 
L 132.641218 234.319787 
L 137.375799 239.418741 
L 142.182506 244.269686 
L 147.068378 248.885547 
L 152.041623 253.278843 
L 157.111623 257.461519 
L 162.287762 261.443949 
L 167.58118 265.236347 
L 173.004193 268.84815 
L 178.5697 272.287607 
L 184.291775 275.562192 
L 190.186838 278.679177 
L 196.271895 281.644567 
L 202.567468 284.464506 
L 209.095255 287.143978 
L 215.88047 289.687754 
L 222.950676 292.099748 
L 230.338123 294.383712 
L 238.077995 296.542452 
L 246.2131 298.578991 
L 254.792109 300.495682 
L 263.872488 302.294604 
L 273.521674 303.977408 
L 283.821761 305.545668 
L 294.87068 307.00046 
L 306.790987 308.342895 
L 319.735731 309.573829 
L 333.899598 310.693906 
L 349.53943 311.703826 
L 366.998856 312.604112 
L 386.755204 313.395265 
L 409.498666 314.077797 
L 436.280067 314.652279 
L 468.812864 315.119431 
L 472.089658 315.156003 
L 472.089658 315.156003 
" clip-path="url(#p5b407dbb4d)" style="fill: none; stroke-dasharray: 1,1.65; stroke-dashoffset: 0; stroke: #d62728"/>
   </g>
   <g id="line2d_31">
    <path d="M 49.882813 315.957188 
L 49.915064 315.850686 
L 50.025894 313.841335 
L 52.858198 255.786914 
L 52.875204 255.788351 
L 54.237407 256.058482 
L 72.920646 259.674815 
L 92.123435 263.1643 
L 111.952496 266.540567 
L 132.435979 269.801685 
L 153.623726 272.948681 
L 175.565581 275.981725 
L 198.319011 278.901251 
L 221.946762 281.707509 
L 246.522719 284.40113 
L 272.128977 286.982574 
L 298.857016 289.452131 
L 326.812973 291.810274 
L 356.108851 294.056626 
L 386.886557 296.191827 
L 419.309111 298.216371 
L 453.558882 300.130242 
L 472.089658 301.078186 
L 472.089658 301.078186 
" clip-path="url(#p5b407dbb4d)" style="fill: none; stroke: #9467bd; stroke-linecap: square"/>
   </g>
   <g id="patch_3">
    <path d="M 49.882813 315.957188 
L 49.882813 38.034375 
" style="fill: none; stroke: #000000; stroke-width: 0.8; stroke-linejoin: miter; stroke-linecap: square"/>
   </g>
   <g id="patch_4">
    <path d="M 493.2 315.957188 
L 493.2 38.034375 
" style="fill: none; stroke: #000000; stroke-width: 0.8; stroke-linejoin: miter; stroke-linecap: square"/>
   </g>
   <g id="patch_5">
    <path d="M 49.882813 315.957188 
L 493.2 315.957188 
" style="fill: none; stroke: #000000; stroke-width: 0.8; stroke-linejoin: miter; stroke-linecap: square"/>
   </g>
   <g id="patch_6">
    <path d="M 49.882813 38.034375 
L 493.2 38.034375 
" style="fill: none; stroke: #000000; stroke-width: 0.8; stroke-linejoin: miter; stroke-linecap: square"/>
   </g>
   <g id="text_17">
    <!-- Scenario 1: single continuous - Amount in venous blood -->
    <g transform="translate(76.217344 32.034375) scale(0.14 -0.14)">
     <defs>
      <path id="DejaVuSans-36" d="M 3425 4513 
L 3425 3897 
Q 3066 4069 2747 4153 
Q 2428 4238 2131 4238 
Q 1616 4238 1336 4038 
Q 1056 3838 1056 3469 
Q 1056 3159 1242 3001 
Q 1428 2844 1947 2747 
L 2328 2669 
Q 3034 2534 3370 2195 
Q 3706 1856 3706 1288 
Q 3706 609 3251 259 
Q 2797 -91 1919 -91 
Q 1588 -91 1214 -16 
Q 841 59 441 206 
L 441 856 
Q 825 641 1194 531 
Q 1563 422 1919 422 
Q 2459 422 2753 634 
Q 3047 847 3047 1241 
Q 3047 1584 2836 1778 
Q 2625 1972 2144 2069 
L 1759 2144 
Q 1053 2284 737 2584 
Q 422 2884 422 3419 
Q 422 4038 858 4394 
Q 1294 4750 2059 4750 
Q 2388 4750 2728 4690 
Q 3069 4631 3425 4513 
z
" transform="scale(0.015625)"/>
      <path id="DejaVuSans-46" d="M 3122 3366 
L 3122 2828 
Q 2878 2963 2633 3030 
Q 2388 3097 2138 3097 
Q 1578 3097 1268 2742 
Q 959 2388 959 1747 
Q 959 1106 1268 751 
Q 1578 397 2138 397 
Q 2388 397 2633 464 
Q 2878 531 3122 666 
L 3122 134 
Q 2881 22 2623 -34 
Q 2366 -91 2075 -91 
Q 1284 -91 818 406 
Q 353 903 353 1747 
Q 353 2603 823 3093 
Q 1294 3584 2113 3584 
Q 2378 3584 2631 3529 
Q 2884 3475 3122 3366 
z
" transform="scale(0.015625)"/>
      <path id="DejaVuSans-51" d="M 3513 2113 
L 3513 0 
L 2938 0 
L 2938 2094 
Q 2938 2591 2744 2837 
Q 2550 3084 2163 3084 
Q 1697 3084 1428 2787 
Q 1159 2491 1159 1978 
L 1159 0 
L 581 0 
L 581 3500 
L 1159 3500 
L 1159 2956 
Q 1366 3272 1645 3428 
Q 1925 3584 2291 3584 
Q 2894 3584 3203 3211 
Q 3513 2838 3513 2113 
z
" transform="scale(0.015625)"/>
      <path id="DejaVuSans-44" d="M 2194 1759 
Q 1497 1759 1228 1600 
Q 959 1441 959 1056 
Q 959 750 1161 570 
Q 1363 391 1709 391 
Q 2188 391 2477 730 
Q 2766 1069 2766 1631 
L 2766 1759 
L 2194 1759 
z
M 3341 1997 
L 3341 0 
L 2766 0 
L 2766 531 
Q 2569 213 2275 61 
Q 1981 -91 1556 -91 
Q 1019 -91 701 211 
Q 384 513 384 1019 
Q 384 1609 779 1909 
Q 1175 2209 1959 2209 
L 2766 2209 
L 2766 2266 
Q 2766 2663 2505 2880 
Q 2244 3097 1772 3097 
Q 1472 3097 1187 3025 
Q 903 2953 641 2809 
L 641 3341 
Q 956 3463 1253 3523 
Q 1550 3584 1831 3584 
Q 2591 3584 2966 3190 
Q 3341 2797 3341 1997 
z
" transform="scale(0.015625)"/>
      <path id="DejaVuSans-55" d="M 2631 2963 
Q 2534 3019 2420 3045 
Q 2306 3072 2169 3072 
Q 1681 3072 1420 2755 
Q 1159 2438 1159 1844 
L 1159 0 
L 581 0 
L 581 3500 
L 1159 3500 
L 1159 2956 
Q 1341 3275 1631 3429 
Q 1922 3584 2338 3584 
Q 2397 3584 2469 3576 
Q 2541 3569 2628 3553 
L 2631 2963 
z
" transform="scale(0.015625)"/>
      <path id="DejaVuSans-4c" d="M 603 3500 
L 1178 3500 
L 1178 0 
L 603 0 
L 603 3500 
z
M 603 4863 
L 1178 4863 
L 1178 4134 
L 603 4134 
L 603 4863 
z
" transform="scale(0.015625)"/>
      <path id="DejaVuSans-52" d="M 1959 3097 
Q 1497 3097 1228 2736 
Q 959 2375 959 1747 
Q 959 1119 1226 758 
Q 1494 397 1959 397 
Q 2419 397 2687 759 
Q 2956 1122 2956 1747 
Q 2956 2369 2687 2733 
Q 2419 3097 1959 3097 
z
M 1959 3584 
Q 2709 3584 3137 3096 
Q 3566 2609 3566 1747 
Q 3566 888 3137 398 
Q 2709 -91 1959 -91 
Q 1206 -91 779 398 
Q 353 888 353 1747 
Q 353 2609 779 3096 
Q 1206 3584 1959 3584 
z
" transform="scale(0.015625)"/>
      <path id="DejaVuSans-3" transform="scale(0.015625)"/>
      <path id="DejaVuSans-1d" d="M 750 794 
L 1409 794 
L 1409 0 
L 750 0 
L 750 794 
z
M 750 3309 
L 1409 3309 
L 1409 2516 
L 750 2516 
L 750 3309 
z
" transform="scale(0.015625)"/>
      <path id="DejaVuSans-56" d="M 2834 3397 
L 2834 2853 
Q 2591 2978 2328 3040 
Q 2066 3103 1784 3103 
Q 1356 3103 1142 2972 
Q 928 2841 928 2578 
Q 928 2378 1081 2264 
Q 1234 2150 1697 2047 
L 1894 2003 
Q 2506 1872 2764 1633 
Q 3022 1394 3022 966 
Q 3022 478 2636 193 
Q 2250 -91 1575 -91 
Q 1294 -91 989 -36 
Q 684 19 347 128 
L 347 722 
Q 666 556 975 473 
Q 1284 391 1588 391 
Q 1994 391 2212 530 
Q 2431 669 2431 922 
Q 2431 1156 2273 1281 
Q 2116 1406 1581 1522 
L 1381 1569 
Q 847 1681 609 1914 
Q 372 2147 372 2553 
Q 372 3047 722 3315 
Q 1072 3584 1716 3584 
Q 2034 3584 2315 3537 
Q 2597 3491 2834 3397 
z
" transform="scale(0.015625)"/>
      <path id="DejaVuSans-4a" d="M 2906 1791 
Q 2906 2416 2648 2759 
Q 2391 3103 1925 3103 
Q 1463 3103 1205 2759 
Q 947 2416 947 1791 
Q 947 1169 1205 825 
Q 1463 481 1925 481 
Q 2391 481 2648 825 
Q 2906 1169 2906 1791 
z
M 3481 434 
Q 3481 -459 3084 -895 
Q 2688 -1331 1869 -1331 
Q 1566 -1331 1297 -1286 
Q 1028 -1241 775 -1147 
L 775 -588 
Q 1028 -725 1275 -790 
Q 1522 -856 1778 -856 
Q 2344 -856 2625 -561 
Q 2906 -266 2906 331 
L 2906 616 
Q 2728 306 2450 153 
Q 2172 0 1784 0 
Q 1141 0 747 490 
Q 353 981 353 1791 
Q 353 2603 747 3093 
Q 1141 3584 1784 3584 
Q 2172 3584 2450 3431 
Q 2728 3278 2906 2969 
L 2906 3500 
L 3481 3500 
L 3481 434 
z
" transform="scale(0.015625)"/>
      <path id="DejaVuSans-4f" d="M 603 4863 
L 1178 4863 
L 1178 0 
L 603 0 
L 603 4863 
z
" transform="scale(0.015625)"/>
      <path id="DejaVuSans-57" d="M 1172 4494 
L 1172 3500 
L 2356 3500 
L 2356 3053 
L 1172 3053 
L 1172 1153 
Q 1172 725 1289 603 
Q 1406 481 1766 481 
L 2356 481 
L 2356 0 
L 1766 0 
Q 1100 0 847 248 
Q 594 497 594 1153 
L 594 3053 
L 172 3053 
L 172 3500 
L 594 3500 
L 594 4494 
L 1172 4494 
z
" transform="scale(0.015625)"/>
      <path id="DejaVuSans-58" d="M 544 1381 
L 544 3500 
L 1119 3500 
L 1119 1403 
Q 1119 906 1312 657 
Q 1506 409 1894 409 
Q 2359 409 2629 706 
Q 2900 1003 2900 1516 
L 2900 3500 
L 3475 3500 
L 3475 0 
L 2900 0 
L 2900 538 
Q 2691 219 2414 64 
Q 2138 -91 1772 -91 
Q 1169 -91 856 284 
Q 544 659 544 1381 
z
M 1991 3584 
L 1991 3584 
z
" transform="scale(0.015625)"/>
      <path id="DejaVuSans-10" d="M 313 2009 
L 1997 2009 
L 1997 1497 
L 313 1497 
L 313 2009 
z
" transform="scale(0.015625)"/>
      <path id="DejaVuSans-24" d="M 2188 4044 
L 1331 1722 
L 3047 1722 
L 2188 4044 
z
M 1831 4666 
L 2547 4666 
L 4325 0 
L 3669 0 
L 3244 1197 
L 1141 1197 
L 716 0 
L 50 0 
L 1831 4666 
z
" transform="scale(0.015625)"/>
      <path id="DejaVuSans-50" d="M 3328 2828 
Q 3544 3216 3844 3400 
Q 4144 3584 4550 3584 
Q 5097 3584 5394 3201 
Q 5691 2819 5691 2113 
L 5691 0 
L 5113 0 
L 5113 2094 
Q 5113 2597 4934 2840 
Q 4756 3084 4391 3084 
Q 3944 3084 3684 2787 
Q 3425 2491 3425 1978 
L 3425 0 
L 2847 0 
L 2847 2094 
Q 2847 2600 2669 2842 
Q 2491 3084 2119 3084 
Q 1678 3084 1418 2786 
Q 1159 2488 1159 1978 
L 1159 0 
L 581 0 
L 581 3500 
L 1159 3500 
L 1159 2956 
Q 1356 3278 1631 3431 
Q 1906 3584 2284 3584 
Q 2666 3584 2933 3390 
Q 3200 3197 3328 2828 
z
" transform="scale(0.015625)"/>
      <path id="DejaVuSans-59" d="M 191 3500 
L 800 3500 
L 1894 563 
L 2988 3500 
L 3597 3500 
L 2284 0 
L 1503 0 
L 191 3500 
z
" transform="scale(0.015625)"/>
      <path id="DejaVuSans-45" d="M 3116 1747 
Q 3116 2381 2855 2742 
Q 2594 3103 2138 3103 
Q 1681 3103 1420 2742 
Q 1159 2381 1159 1747 
Q 1159 1113 1420 752 
Q 1681 391 2138 391 
Q 2594 391 2855 752 
Q 3116 1113 3116 1747 
z
M 1159 2969 
Q 1341 3281 1617 3432 
Q 1894 3584 2278 3584 
Q 2916 3584 3314 3078 
Q 3713 2572 3713 1747 
Q 3713 922 3314 415 
Q 2916 -91 2278 -91 
Q 1894 -91 1617 61 
Q 1341 213 1159 525 
L 1159 0 
L 581 0 
L 581 4863 
L 1159 4863 
L 1159 2969 
z
" transform="scale(0.015625)"/>
      <path id="DejaVuSans-47" d="M 2906 2969 
L 2906 4863 
L 3481 4863 
L 3481 0 
L 2906 0 
L 2906 525 
Q 2725 213 2448 61 
Q 2172 -91 1784 -91 
Q 1150 -91 751 415 
Q 353 922 353 1747 
Q 353 2572 751 3078 
Q 1150 3584 1784 3584 
Q 2172 3584 2448 3432 
Q 2725 3281 2906 2969 
z
M 947 1747 
Q 947 1113 1208 752 
Q 1469 391 1925 391 
Q 2381 391 2643 752 
Q 2906 1113 2906 1747 
Q 2906 2381 2643 2742 
Q 2381 3103 1925 3103 
Q 1469 3103 1208 2742 
Q 947 2381 947 1747 
z
" transform="scale(0.015625)"/>
     </defs>
     <use xlink:href="#DejaVuSans-36"/>
     <use xlink:href="#DejaVuSans-46" transform="translate(63.484375 0)"/>
     <use xlink:href="#DejaVuSans-48" transform="translate(118.46875 0)"/>
     <use xlink:href="#DejaVuSans-51" transform="translate(180 0)"/>
     <use xlink:href="#DejaVuSans-44" transform="translate(243.375 0)"/>
     <use xlink:href="#DejaVuSans-55" transform="translate(304.65625 0)"/>
     <use xlink:href="#DejaVuSans-4c" transform="translate(345.765625 0)"/>
     <use xlink:href="#DejaVuSans-52" transform="translate(373.546875 0)"/>
     <use xlink:href="#DejaVuSans-3" transform="translate(434.734375 0)"/>
     <use xlink:href="#DejaVuSans-14" transform="translate(466.515625 0)"/>
     <use xlink:href="#DejaVuSans-1d" transform="translate(530.140625 0)"/>
     <use xlink:href="#DejaVuSans-3" transform="translate(563.828125 0)"/>
     <use xlink:href="#DejaVuSans-56" transform="translate(595.609375 0)"/>
     <use xlink:href="#DejaVuSans-4c" transform="translate(647.703125 0)"/>
     <use xlink:href="#DejaVuSans-51" transform="translate(675.484375 0)"/>
     <use xlink:href="#DejaVuSans-4a" transform="translate(738.859375 0)"/>
     <use xlink:href="#DejaVuSans-4f" transform="translate(802.34375 0)"/>
     <use xlink:href="#DejaVuSans-48" transform="translate(830.125 0)"/>
     <use xlink:href="#DejaVuSans-3" transform="translate(891.65625 0)"/>
     <use xlink:href="#DejaVuSans-46" transform="translate(923.4375 0)"/>
     <use xlink:href="#DejaVuSans-52" transform="translate(978.421875 0)"/>
     <use xlink:href="#DejaVuSans-51" transform="translate(1039.609375 0)"/>
     <use xlink:href="#DejaVuSans-57" transform="translate(1102.984375 0)"/>
     <use xlink:href="#DejaVuSans-4c" transform="translate(1142.1875 0)"/>
     <use xlink:href="#DejaVuSans-51" transform="translate(1169.96875 0)"/>
     <use xlink:href="#DejaVuSans-58" transform="translate(1233.34375 0)"/>
     <use xlink:href="#DejaVuSans-52" transform="translate(1296.71875 0)"/>
     <use xlink:href="#DejaVuSans-58" transform="translate(1357.90625 0)"/>
     <use xlink:href="#DejaVuSans-56" transform="translate(1421.28125 0)"/>
     <use xlink:href="#DejaVuSans-3" transform="translate(1473.375 0)"/>
     <use xlink:href="#DejaVuSans-10" transform="translate(1505.15625 0)"/>
     <use xlink:href="#DejaVuSans-3" transform="translate(1541.234375 0)"/>
     <use xlink:href="#DejaVuSans-24" transform="translate(1573.015625 0)"/>
     <use xlink:href="#DejaVuSans-50" transform="translate(1641.421875 0)"/>
     <use xlink:href="#DejaVuSans-52" transform="translate(1738.828125 0)"/>
     <use xlink:href="#DejaVuSans-58" transform="translate(1800.015625 0)"/>
     <use xlink:href="#DejaVuSans-51" transform="translate(1863.390625 0)"/>
     <use xlink:href="#DejaVuSans-57" transform="translate(1926.765625 0)"/>
     <use xlink:href="#DejaVuSans-3" transform="translate(1965.96875 0)"/>
     <use xlink:href="#DejaVuSans-4c" transform="translate(1997.75 0)"/>
     <use xlink:href="#DejaVuSans-51" transform="translate(2025.53125 0)"/>
     <use xlink:href="#DejaVuSans-3" transform="translate(2088.90625 0)"/>
     <use xlink:href="#DejaVuSans-59" transform="translate(2120.6875 0)"/>
     <use xlink:href="#DejaVuSans-48" transform="translate(2179.875 0)"/>
     <use xlink:href="#DejaVuSans-51" transform="translate(2241.40625 0)"/>
     <use xlink:href="#DejaVuSans-52" transform="translate(2304.78125 0)"/>
     <use xlink:href="#DejaVuSans-58" transform="translate(2365.96875 0)"/>
     <use xlink:href="#DejaVuSans-56" transform="translate(2429.34375 0)"/>
     <use xlink:href="#DejaVuSans-3" transform="translate(2481.4375 0)"/>
     <use xlink:href="#DejaVuSans-45" transform="translate(2513.21875 0)"/>
     <use xlink:href="#DejaVuSans-4f" transform="translate(2576.703125 0)"/>
     <use xlink:href="#DejaVuSans-52" transform="translate(2604.484375 0)"/>
     <use xlink:href="#DejaVuSans-52" transform="translate(2665.671875 0)"/>
     <use xlink:href="#DejaVuSans-47" transform="translate(2726.859375 0)"/>
    </g>
   </g>
   <g id="legend_1">
    <g id="patch_7">
     <path d="M 286.76875 121.038281 
L 486.2 121.038281 
Q 488.2 121.038281 488.2 119.038281 
L 488.2 45.034375 
Q 488.2 43.034375 486.2 43.034375 
L 286.76875 43.034375 
Q 284.76875 43.034375 284.76875 45.034375 
L 284.76875 119.038281 
Q 284.76875 121.038281 286.76875 121.038281 
z
" style="fill: #ffffff; opacity: 0.8; stroke: #cccccc; stroke-linejoin: miter"/>
    </g>
    <g id="line2d_32">
     <path d="M 288.76875 51.132813 
L 298.76875 51.132813 
L 308.76875 51.132813 
" style="fill: none; stroke: #1f77b4; stroke-linecap: square"/>
    </g>
    <g id="text_18">
     <!-- Structure A -->
     <g transform="translate(316.76875 54.632813) scale(0.1 -0.1)">
      <use xlink:href="#DejaVuSans-36"/>
      <use xlink:href="#DejaVuSans-57" transform="translate(63.484375 0)"/>
      <use xlink:href="#DejaVuSans-55" transform="translate(102.6875 0)"/>
      <use xlink:href="#DejaVuSans-58" transform="translate(143.796875 0)"/>
      <use xlink:href="#DejaVuSans-46" transform="translate(207.171875 0)"/>
      <use xlink:href="#DejaVuSans-57" transform="translate(262.15625 0)"/>
      <use xlink:href="#DejaVuSans-58" transform="translate(301.359375 0)"/>
      <use xlink:href="#DejaVuSans-55" transform="translate(364.734375 0)"/>
      <use xlink:href="#DejaVuSans-48" transform="translate(403.640625 0)"/>
      <use xlink:href="#DejaVuSans-3" transform="translate(465.171875 0)"/>
      <use xlink:href="#DejaVuSans-24" transform="translate(496.953125 0)"/>
     </g>
    </g>
    <g id="line2d_33">
     <path d="M 288.76875 66.133594 
L 298.76875 66.133594 
L 308.76875 66.133594 
" style="fill: none; stroke-dasharray: 3.7,1.6; stroke-dashoffset: 0; stroke: #ff7f0e"/>
    </g>
    <g id="text_19">
     <!-- Structure B (PCPulmBlood = 0.5) -->
     <g transform="translate(316.76875 69.633594) scale(0.1 -0.1)">
      <defs>
       <path id="DejaVuSans-25" d="M 1259 2228 
L 1259 519 
L 2272 519 
Q 2781 519 3026 730 
Q 3272 941 3272 1375 
Q 3272 1813 3026 2020 
Q 2781 2228 2272 2228 
L 1259 2228 
z
M 1259 4147 
L 1259 2741 
L 2194 2741 
Q 2656 2741 2882 2914 
Q 3109 3088 3109 3444 
Q 3109 3797 2882 3972 
Q 2656 4147 2194 4147 
L 1259 4147 
z
M 628 4666 
L 2241 4666 
Q 2963 4666 3353 4366 
Q 3744 4066 3744 3513 
Q 3744 3084 3544 2831 
Q 3344 2578 2956 2516 
Q 3422 2416 3680 2098 
Q 3938 1781 3938 1306 
Q 3938 681 3513 340 
Q 3088 0 2303 0 
L 628 0 
L 628 4666 
z
" transform="scale(0.015625)"/>
       <path id="DejaVuSans-b" d="M 1984 4856 
Q 1566 4138 1362 3434 
Q 1159 2731 1159 2009 
Q 1159 1288 1364 580 
Q 1569 -128 1984 -844 
L 1484 -844 
Q 1016 -109 783 600 
Q 550 1309 550 2009 
Q 550 2706 781 3412 
Q 1013 4119 1484 4856 
L 1984 4856 
z
" transform="scale(0.015625)"/>
       <path id="DejaVuSans-33" d="M 1259 4147 
L 1259 2394 
L 2053 2394 
Q 2494 2394 2734 2622 
Q 2975 2850 2975 3272 
Q 2975 3691 2734 3919 
Q 2494 4147 2053 4147 
L 1259 4147 
z
M 628 4666 
L 2053 4666 
Q 2838 4666 3239 4311 
Q 3641 3956 3641 3272 
Q 3641 2581 3239 2228 
Q 2838 1875 2053 1875 
L 1259 1875 
L 1259 0 
L 628 0 
L 628 4666 
z
" transform="scale(0.015625)"/>
       <path id="DejaVuSans-26" d="M 4122 4306 
L 4122 3641 
Q 3803 3938 3442 4084 
Q 3081 4231 2675 4231 
Q 1875 4231 1450 3742 
Q 1025 3253 1025 2328 
Q 1025 1406 1450 917 
Q 1875 428 2675 428 
Q 3081 428 3442 575 
Q 3803 722 4122 1019 
L 4122 359 
Q 3791 134 3420 21 
Q 3050 -91 2638 -91 
Q 1578 -91 968 557 
Q 359 1206 359 2328 
Q 359 3453 968 4101 
Q 1578 4750 2638 4750 
Q 3056 4750 3426 4639 
Q 3797 4528 4122 4306 
z
" transform="scale(0.015625)"/>
       <path id="DejaVuSans-20" d="M 678 2906 
L 4684 2906 
L 4684 2381 
L 678 2381 
L 678 2906 
z
M 678 1631 
L 4684 1631 
L 4684 1100 
L 678 1100 
L 678 1631 
z
" transform="scale(0.015625)"/>
       <path id="DejaVuSans-18" d="M 691 4666 
L 3169 4666 
L 3169 4134 
L 1269 4134 
L 1269 2991 
Q 1406 3038 1543 3061 
Q 1681 3084 1819 3084 
Q 2600 3084 3056 2656 
Q 3513 2228 3513 1497 
Q 3513 744 3044 326 
Q 2575 -91 1722 -91 
Q 1428 -91 1123 -41 
Q 819 9 494 109 
L 494 744 
Q 775 591 1075 516 
Q 1375 441 1709 441 
Q 2250 441 2565 725 
Q 2881 1009 2881 1497 
Q 2881 1984 2565 2268 
Q 2250 2553 1709 2553 
Q 1456 2553 1204 2497 
Q 953 2441 691 2322 
L 691 4666 
z
" transform="scale(0.015625)"/>
       <path id="DejaVuSans-c" d="M 513 4856 
L 1013 4856 
Q 1481 4119 1714 3412 
Q 1947 2706 1947 2009 
Q 1947 1309 1714 600 
Q 1481 -109 1013 -844 
L 513 -844 
Q 928 -128 1133 580 
Q 1338 1288 1338 2009 
Q 1338 2731 1133 3434 
Q 928 4138 513 4856 
z
" transform="scale(0.015625)"/>
      </defs>
      <use xlink:href="#DejaVuSans-36"/>
      <use xlink:href="#DejaVuSans-57" transform="translate(63.484375 0)"/>
      <use xlink:href="#DejaVuSans-55" transform="translate(102.6875 0)"/>
      <use xlink:href="#DejaVuSans-58" transform="translate(143.796875 0)"/>
      <use xlink:href="#DejaVuSans-46" transform="translate(207.171875 0)"/>
      <use xlink:href="#DejaVuSans-57" transform="translate(262.15625 0)"/>
      <use xlink:href="#DejaVuSans-58" transform="translate(301.359375 0)"/>
      <use xlink:href="#DejaVuSans-55" transform="translate(364.734375 0)"/>
      <use xlink:href="#DejaVuSans-48" transform="translate(403.640625 0)"/>
      <use xlink:href="#DejaVuSans-3" transform="translate(465.171875 0)"/>
      <use xlink:href="#DejaVuSans-25" transform="translate(496.953125 0)"/>
      <use xlink:href="#DejaVuSans-3" transform="translate(565.5625 0)"/>
      <use xlink:href="#DejaVuSans-b" transform="translate(597.34375 0)"/>
      <use xlink:href="#DejaVuSans-33" transform="translate(636.359375 0)"/>
      <use xlink:href="#DejaVuSans-26" transform="translate(696.65625 0)"/>
      <use xlink:href="#DejaVuSans-33" transform="translate(766.484375 0)"/>
      <use xlink:href="#DejaVuSans-58" transform="translate(825.03125 0)"/>
      <use xlink:href="#DejaVuSans-4f" transform="translate(888.40625 0)"/>
      <use xlink:href="#DejaVuSans-50" transform="translate(916.1875 0)"/>
      <use xlink:href="#DejaVuSans-25" transform="translate(1013.59375 0)"/>
      <use xlink:href="#DejaVuSans-4f" transform="translate(1082.203125 0)"/>
      <use xlink:href="#DejaVuSans-52" transform="translate(1109.984375 0)"/>
      <use xlink:href="#DejaVuSans-52" transform="translate(1171.171875 0)"/>
      <use xlink:href="#DejaVuSans-47" transform="translate(1232.359375 0)"/>
      <use xlink:href="#DejaVuSans-3" transform="translate(1295.84375 0)"/>
      <use xlink:href="#DejaVuSans-20" transform="translate(1327.625 0)"/>
      <use xlink:href="#DejaVuSans-3" transform="translate(1411.421875 0)"/>
      <use xlink:href="#DejaVuSans-13" transform="translate(1443.203125 0)"/>
      <use xlink:href="#DejaVuSans-11" transform="translate(1506.828125 0)"/>
      <use xlink:href="#DejaVuSans-18" transform="translate(1538.609375 0)"/>
      <use xlink:href="#DejaVuSans-c" transform="translate(1602.234375 0)"/>
     </g>
    </g>
    <g id="line2d_34">
     <path d="M 288.76875 81.134375 
L 298.76875 81.134375 
L 308.76875 81.134375 
" style="fill: none; stroke-dasharray: 6.4,1.6,1,1.6; stroke-dashoffset: 0; stroke: #2ca02c"/>
    </g>
    <g id="text_20">
     <!-- Structure B (PCPulmBlood = 100) -->
     <g transform="translate(316.76875 84.634375) scale(0.1 -0.1)">
      <use xlink:href="#DejaVuSans-36"/>
      <use xlink:href="#DejaVuSans-57" transform="translate(63.484375 0)"/>
      <use xlink:href="#DejaVuSans-55" transform="translate(102.6875 0)"/>
      <use xlink:href="#DejaVuSans-58" transform="translate(143.796875 0)"/>
      <use xlink:href="#DejaVuSans-46" transform="translate(207.171875 0)"/>
      <use xlink:href="#DejaVuSans-57" transform="translate(262.15625 0)"/>
      <use xlink:href="#DejaVuSans-58" transform="translate(301.359375 0)"/>
      <use xlink:href="#DejaVuSans-55" transform="translate(364.734375 0)"/>
      <use xlink:href="#DejaVuSans-48" transform="translate(403.640625 0)"/>
      <use xlink:href="#DejaVuSans-3" transform="translate(465.171875 0)"/>
      <use xlink:href="#DejaVuSans-25" transform="translate(496.953125 0)"/>
      <use xlink:href="#DejaVuSans-3" transform="translate(565.5625 0)"/>
      <use xlink:href="#DejaVuSans-b" transform="translate(597.34375 0)"/>
      <use xlink:href="#DejaVuSans-33" transform="translate(636.359375 0)"/>
      <use xlink:href="#DejaVuSans-26" transform="translate(696.65625 0)"/>
      <use xlink:href="#DejaVuSans-33" transform="translate(766.484375 0)"/>
      <use xlink:href="#DejaVuSans-58" transform="translate(825.03125 0)"/>
      <use xlink:href="#DejaVuSans-4f" transform="translate(888.40625 0)"/>
      <use xlink:href="#DejaVuSans-50" transform="translate(916.1875 0)"/>
      <use xlink:href="#DejaVuSans-25" transform="translate(1013.59375 0)"/>
      <use xlink:href="#DejaVuSans-4f" transform="translate(1082.203125 0)"/>
      <use xlink:href="#DejaVuSans-52" transform="translate(1109.984375 0)"/>
      <use xlink:href="#DejaVuSans-52" transform="translate(1171.171875 0)"/>
      <use xlink:href="#DejaVuSans-47" transform="translate(1232.359375 0)"/>
      <use xlink:href="#DejaVuSans-3" transform="translate(1295.84375 0)"/>
      <use xlink:href="#DejaVuSans-20" transform="translate(1327.625 0)"/>
      <use xlink:href="#DejaVuSans-3" transform="translate(1411.421875 0)"/>
      <use xlink:href="#DejaVuSans-14" transform="translate(1443.203125 0)"/>
      <use xlink:href="#DejaVuSans-13" transform="translate(1506.828125 0)"/>
      <use xlink:href="#DejaVuSans-13" transform="translate(1570.453125 0)"/>
      <use xlink:href="#DejaVuSans-c" transform="translate(1634.078125 0)"/>
     </g>
    </g>
    <g id="line2d_35">
     <path d="M 288.76875 96.135156 
L 298.76875 96.135156 
L 308.76875 96.135156 
" style="fill: none; stroke-dasharray: 1,1.65; stroke-dashoffset: 0; stroke: #d62728"/>
    </g>
    <g id="text_21">
     <!-- Structure C (PCPulmBlood = 0.5) -->
     <g transform="translate(316.76875 99.635156) scale(0.1 -0.1)">
      <use xlink:href="#DejaVuSans-36"/>
      <use xlink:href="#DejaVuSans-57" transform="translate(63.484375 0)"/>
      <use xlink:href="#DejaVuSans-55" transform="translate(102.6875 0)"/>
      <use xlink:href="#DejaVuSans-58" transform="translate(143.796875 0)"/>
      <use xlink:href="#DejaVuSans-46" transform="translate(207.171875 0)"/>
      <use xlink:href="#DejaVuSans-57" transform="translate(262.15625 0)"/>
      <use xlink:href="#DejaVuSans-58" transform="translate(301.359375 0)"/>
      <use xlink:href="#DejaVuSans-55" transform="translate(364.734375 0)"/>
      <use xlink:href="#DejaVuSans-48" transform="translate(403.640625 0)"/>
      <use xlink:href="#DejaVuSans-3" transform="translate(465.171875 0)"/>
      <use xlink:href="#DejaVuSans-26" transform="translate(496.953125 0)"/>
      <use xlink:href="#DejaVuSans-3" transform="translate(566.78125 0)"/>
      <use xlink:href="#DejaVuSans-b" transform="translate(598.5625 0)"/>
      <use xlink:href="#DejaVuSans-33" transform="translate(637.578125 0)"/>
      <use xlink:href="#DejaVuSans-26" transform="translate(697.875 0)"/>
      <use xlink:href="#DejaVuSans-33" transform="translate(767.703125 0)"/>
      <use xlink:href="#DejaVuSans-58" transform="translate(826.25 0)"/>
      <use xlink:href="#DejaVuSans-4f" transform="translate(889.625 0)"/>
      <use xlink:href="#DejaVuSans-50" transform="translate(917.40625 0)"/>
      <use xlink:href="#DejaVuSans-25" transform="translate(1014.8125 0)"/>
      <use xlink:href="#DejaVuSans-4f" transform="translate(1083.421875 0)"/>
      <use xlink:href="#DejaVuSans-52" transform="translate(1111.203125 0)"/>
      <use xlink:href="#DejaVuSans-52" transform="translate(1172.390625 0)"/>
      <use xlink:href="#DejaVuSans-47" transform="translate(1233.578125 0)"/>
      <use xlink:href="#DejaVuSans-3" transform="translate(1297.0625 0)"/>
      <use xlink:href="#DejaVuSans-20" transform="translate(1328.84375 0)"/>
      <use xlink:href="#DejaVuSans-3" transform="translate(1412.640625 0)"/>
      <use xlink:href="#DejaVuSans-13" transform="translate(1444.421875 0)"/>
      <use xlink:href="#DejaVuSans-11" transform="translate(1508.046875 0)"/>
      <use xlink:href="#DejaVuSans-18" transform="translate(1539.828125 0)"/>
      <use xlink:href="#DejaVuSans-c" transform="translate(1603.453125 0)"/>
     </g>
    </g>
    <g id="line2d_36">
     <path d="M 288.76875 111.135938 
L 298.76875 111.135938 
L 308.76875 111.135938 
" style="fill: none; stroke: #9467bd; stroke-linecap: square"/>
    </g>
    <g id="text_22">
     <!-- Structure C (PCPulmBlood = 100) -->
     <g transform="translate(316.76875 114.635938) scale(0.1 -0.1)">
      <use xlink:href="#DejaVuSans-36"/>
      <use xlink:href="#DejaVuSans-57" transform="translate(63.484375 0)"/>
      <use xlink:href="#DejaVuSans-55" transform="translate(102.6875 0)"/>
      <use xlink:href="#DejaVuSans-58" transform="translate(143.796875 0)"/>
      <use xlink:href="#DejaVuSans-46" transform="translate(207.171875 0)"/>
      <use xlink:href="#DejaVuSans-57" transform="translate(262.15625 0)"/>
      <use xlink:href="#DejaVuSans-58" transform="translate(301.359375 0)"/>
      <use xlink:href="#DejaVuSans-55" transform="translate(364.734375 0)"/>
      <use xlink:href="#DejaVuSans-48" transform="translate(403.640625 0)"/>
      <use xlink:href="#DejaVuSans-3" transform="translate(465.171875 0)"/>
      <use xlink:href="#DejaVuSans-26" transform="translate(496.953125 0)"/>
      <use xlink:href="#DejaVuSans-3" transform="translate(566.78125 0)"/>
      <use xlink:href="#DejaVuSans-b" transform="translate(598.5625 0)"/>
      <use xlink:href="#DejaVuSans-33" transform="translate(637.578125 0)"/>
      <use xlink:href="#DejaVuSans-26" transform="translate(697.875 0)"/>
      <use xlink:href="#DejaVuSans-33" transform="translate(767.703125 0)"/>
      <use xlink:href="#DejaVuSans-58" transform="translate(826.25 0)"/>
      <use xlink:href="#DejaVuSans-4f" transform="translate(889.625 0)"/>
      <use xlink:href="#DejaVuSans-50" transform="translate(917.40625 0)"/>
      <use xlink:href="#DejaVuSans-25" transform="translate(1014.8125 0)"/>
      <use xlink:href="#DejaVuSans-4f" transform="translate(1083.421875 0)"/>
      <use xlink:href="#DejaVuSans-52" transform="translate(1111.203125 0)"/>
      <use xlink:href="#DejaVuSans-52" transform="translate(1172.390625 0)"/>
      <use xlink:href="#DejaVuSans-47" transform="translate(1233.578125 0)"/>
      <use xlink:href="#DejaVuSans-3" transform="translate(1297.0625 0)"/>
      <use xlink:href="#DejaVuSans-20" transform="translate(1328.84375 0)"/>
      <use xlink:href="#DejaVuSans-3" transform="translate(1412.640625 0)"/>
      <use xlink:href="#DejaVuSans-14" transform="translate(1444.421875 0)"/>
      <use xlink:href="#DejaVuSans-13" transform="translate(1508.046875 0)"/>
      <use xlink:href="#DejaVuSans-13" transform="translate(1571.671875 0)"/>
      <use xlink:href="#DejaVuSans-c" transform="translate(1635.296875 0)"/>
     </g>
    </g>
   </g>
  </g>
 </g>
 <defs>
  <clipPath id="p5b407dbb4d">
   <rect x="49.882813" y="38.034375" width="443.317187" height="277.922812"/>
  </clipPath>
 </defs>
</svg>
