<?xml version="1.0" encoding="UTF-8" standalone="no"?>
<!DOCTYPE svg PUBLIC "-//W3C//DTD SVG 1.1//EN"
 "http://www.w3.org/Graphics/SVG/1.1/DTD/svg11.dtd">
<!-- Generated by graphviz version 2.43.0 (0)
 -->
<!-- Title: %3 Pages: 1 -->
<svg width="501pt" height="288pt"
 viewBox="0.00 0.00 501.19 288.00" xmlns="http://www.w3.org/2000/svg" xmlns:xlink="http://www.w3.org/1999/xlink">
<g id="graph0" class="graph" transform="scale(0.47 0.47) rotate(0) translate(4 612)">
<title>%3</title>
<polygon fill="white" stroke="transparent" points="-4,4 -4,-612 1068,-612 1068,4 -4,4"/>
<g id="clust1" class="cluster">
<title>cluster_Stomach</title>
<g id="a_clust1"><a xlink:href="#compartment-Stomach" xlink:title="Stomach&#10;[PBPKO:00566]">
<path fill="lightblue" stroke="black" d="M327.26,-508C327.26,-508 708.08,-508 708.08,-508 714.08,-508 720.08,-514 720.08,-520 720.08,-520 720.08,-588 720.08,-588 720.08,-594 714.08,-600 708.08,-600 708.08,-600 327.26,-600 327.26,-600 321.26,-600 315.26,-594 315.26,-588 315.26,-588 315.26,-520 315.26,-520 315.26,-514 321.26,-508 327.26,-508"/>
<text text-anchor="middle" x="517.67" y="-584.8" font-family="Arial" font-size="14.00">Stomach</text>
<text text-anchor="middle" x="517.67" y="-569.8" font-family="Arial" font-size="14.00">[PBPKO:00566]</text>
</a>
</g>
</g>
<g id="clust2" class="cluster">
<title>cluster_SI</title>
<g id="a_clust2"><a xlink:href="#compartment-SI" xlink:title="SI&#10;[PBPKO:00472]">
<path fill="lightblue" stroke="black" d="M115.89,-383C115.89,-383 496.71,-383 496.71,-383 502.71,-383 508.71,-389 508.71,-395 508.71,-395 508.71,-463 508.71,-463 508.71,-469 502.71,-475 496.71,-475 496.71,-475 115.89,-475 115.89,-475 109.89,-475 103.89,-469 103.89,-463 103.89,-463 103.89,-395 103.89,-395 103.89,-389 109.89,-383 115.89,-383"/>
<text text-anchor="middle" x="306.3" y="-459.8" font-family="Arial" font-size="14.00">SI</text>
<text text-anchor="middle" x="306.3" y="-444.8" font-family="Arial" font-size="14.00">[PBPKO:00472]</text>
</a>
</g>
</g>
<g id="clust3" class="cluster">
<title>cluster_Liver</title>
<g id="a_clust3"><a xlink:href="#compartment-Liver" xlink:title="Liver&#10;[PBPKO:00558]">
<path fill="lightblue" stroke="black" d="M384.58,-258C384.58,-258 826.3,-258 826.3,-258 832.3,-258 838.3,-264 838.3,-270 838.3,-270 838.3,-338 838.3,-338 838.3,-344 832.3,-350 826.3,-350 826.3,-350 384.58,-350 384.58,-350 378.58,-350 372.58,-344 372.58,-338 372.58,-338 372.58,-270 372.58,-270 372.58,-264 378.58,-258 384.58,-258"/>
<text text-anchor="middle" x="605.44" y="-334.8" font-family="Arial" font-size="14.00">Liver</text>
<text text-anchor="middle" x="605.44" y="-319.8" font-family="Arial" font-size="14.00">[PBPKO:00558]</text>
</a>
</g>
</g>
<g id="clust4" class="cluster">
<title>cluster_Plasma</title>
<g id="a_clust4"><a xlink:href="#compartment-Plasma" xlink:title="Plasma&#10;[PBPKO:00488]">
<path fill="lightblue" stroke="black" d="M542.21,-133C542.21,-133 983.93,-133 983.93,-133 989.93,-133 995.93,-139 995.93,-145 995.93,-145 995.93,-213 995.93,-213 995.93,-219 989.93,-225 983.93,-225 983.93,-225 542.21,-225 542.21,-225 536.21,-225 530.21,-219 530.21,-213 530.21,-213 530.21,-145 530.21,-145 530.21,-139 536.21,-133 542.21,-133"/>
<text text-anchor="middle" x="763.07" y="-209.8" font-family="Arial" font-size="14.00">Plasma</text>
<text text-anchor="middle" x="763.07" y="-194.8" font-family="Arial" font-size="14.00">[PBPKO:00488]</text>
</a>
</g>
</g>
<g id="clust5" class="cluster">
<title>cluster_Rest</title>
<g id="a_clust5"><a xlink:href="#compartment-Rest" xlink:title="Rest&#10;[PBPKO:00450]">
<path fill="lightblue" stroke="black" d="M581.62,-8C581.62,-8 1023.34,-8 1023.34,-8 1029.34,-8 1035.34,-14 1035.34,-20 1035.34,-20 1035.34,-88 1035.34,-88 1035.34,-94 1029.34,-100 1023.34,-100 1023.34,-100 581.62,-100 581.62,-100 575.62,-100 569.62,-94 569.62,-88 569.62,-88 569.62,-20 569.62,-20 569.62,-14 575.62,-8 581.62,-8"/>
<text text-anchor="middle" x="802.48" y="-84.8" font-family="Arial" font-size="14.00">Rest</text>
<text text-anchor="middle" x="802.48" y="-69.8" font-family="Arial" font-size="14.00">[PBPKO:00450]</text>
</a>
</g>
</g>
<g id="clust6" class="cluster">
<title>cluster_Feces</title>
<g id="a_clust6"><a xlink:href="#compartment-Feces" xlink:title="Feces&#10;[PBPKO:00555]">
<path fill="lightblue" stroke="black" d="M40.66,-133C40.66,-133 482.38,-133 482.38,-133 488.38,-133 494.38,-139 494.38,-145 494.38,-145 494.38,-213 494.38,-213 494.38,-219 488.38,-225 482.38,-225 482.38,-225 40.66,-225 40.66,-225 34.66,-225 28.66,-219 28.66,-213 28.66,-213 28.66,-145 28.66,-145 28.66,-139 34.66,-133 40.66,-133"/>
<text text-anchor="middle" x="261.52" y="-209.8" font-family="Arial" font-size="14.00">Feces</text>
<text text-anchor="middle" x="261.52" y="-194.8" font-family="Arial" font-size="14.00">[PBPKO:00555]</text>
</a>
</g>
</g>
<!-- AST -->
<g id="node1" class="node">
<title>AST</title>
<g id="a_node1"><a xlink:href="#species-AST" xlink:title="AST&#10;[&#45;]">
<path fill="gold" stroke="black" d="M530.81,-554C530.81,-554 500.81,-554 500.81,-554 494.81,-554 488.81,-548 488.81,-542 488.81,-542 488.81,-528 488.81,-528 488.81,-522 494.81,-516 500.81,-516 500.81,-516 530.81,-516 530.81,-516 536.81,-516 542.81,-522 542.81,-528 542.81,-528 542.81,-542 542.81,-542 542.81,-548 536.81,-554 530.81,-554"/>
<text text-anchor="middle" x="515.81" y="-538.8" font-family="Arial" font-size="14.00">AST</text>
<text text-anchor="middle" x="515.81" y="-523.8" font-family="Arial" font-size="14.00">[&#45;]</text>
</a>
</g>
</g>
<!-- ASI -->
<g id="node2" class="node">
<title>ASI</title>
<g id="a_node2"><a xlink:href="#species-ASI" xlink:title="ASI&#10;[&#45;]">
<path fill="gold" stroke="black" d="M394.81,-429C394.81,-429 364.81,-429 364.81,-429 358.81,-429 352.81,-423 352.81,-417 352.81,-417 352.81,-403 352.81,-403 352.81,-397 358.81,-391 364.81,-391 364.81,-391 394.81,-391 394.81,-391 400.81,-391 406.81,-397 406.81,-403 406.81,-403 406.81,-417 406.81,-417 406.81,-423 400.81,-429 394.81,-429"/>
<text text-anchor="middle" x="379.81" y="-413.8" font-family="Arial" font-size="14.00">ASI</text>
<text text-anchor="middle" x="379.81" y="-398.8" font-family="Arial" font-size="14.00">[&#45;]</text>
</a>
</g>
</g>
<!-- AST&#45;&gt;ASI -->
<g id="edge1" class="edge">
<title>AST&#45;&gt;ASI</title>
<path fill="none" stroke="black" d="M495.75,-515.85C472.45,-494.78 433.86,-459.88 407.67,-436.19"/>
<polygon fill="black" stroke="black" points="409.73,-433.34 399.96,-429.22 405.03,-438.53 409.73,-433.34"/>
<text text-anchor="middle" x="485.81" y="-487.3" font-family="Times,serif" font-size="14.00">_J0</text>
</g>
<!-- ALiver -->
<g id="node3" class="node">
<title>ALiver</title>
<g id="a_node3"><a xlink:href="#species-ALiver" xlink:title="ALiver&#10;[PBPKO:00497]">
<path fill="gold" stroke="black" d="M650.31,-304C650.31,-304 561.31,-304 561.31,-304 555.31,-304 549.31,-298 549.31,-292 549.31,-292 549.31,-278 549.31,-278 549.31,-272 555.31,-266 561.31,-266 561.31,-266 650.31,-266 650.31,-266 656.31,-266 662.31,-272 662.31,-278 662.31,-278 662.31,-292 662.31,-292 662.31,-298 656.31,-304 650.31,-304"/>
<text text-anchor="middle" x="605.81" y="-288.8" font-family="Arial" font-size="14.00">ALiver</text>
<text text-anchor="middle" x="605.81" y="-273.8" font-family="Arial" font-size="14.00">[PBPKO:00497]</text>
</a>
</g>
</g>
<!-- AST&#45;&gt;ALiver -->
<g id="edge2" class="edge">
<title>AST&#45;&gt;ALiver</title>
<path fill="none" stroke="black" d="M522.43,-515.76C538.04,-472.77 577.21,-364.83 595.76,-313.7"/>
<polygon fill="black" stroke="black" points="599.07,-314.86 599.19,-304.26 592.49,-312.47 599.07,-314.86"/>
<text text-anchor="middle" x="579.81" y="-406.3" font-family="Times,serif" font-size="14.00">_J1</text>
</g>
<!-- ASI&#45;&gt;ALiver -->
<g id="edge3" class="edge">
<title>ASI&#45;&gt;ALiver</title>
<path fill="none" stroke="black" d="M407.08,-394.16C446.04,-372.96 517.99,-333.8 563.8,-308.87"/>
<polygon fill="black" stroke="black" points="565.48,-311.94 572.59,-304.08 562.13,-305.79 565.48,-311.94"/>
<text text-anchor="middle" x="482.81" y="-362.3" font-family="Times,serif" font-size="14.00">_J2</text>
</g>
<!-- AFeces -->
<g id="node6" class="node">
<title>AFeces</title>
<g id="a_node6"><a xlink:href="#species-AFeces" xlink:title="AFeces&#10;[PBPKO:00275]">
<path fill="gold" stroke="black" d="M306.31,-179C306.31,-179 217.31,-179 217.31,-179 211.31,-179 205.31,-173 205.31,-167 205.31,-167 205.31,-153 205.31,-153 205.31,-147 211.31,-141 217.31,-141 217.31,-141 306.31,-141 306.31,-141 312.31,-141 318.31,-147 318.31,-153 318.31,-153 318.31,-167 318.31,-167 318.31,-173 312.31,-179 306.31,-179"/>
<text text-anchor="middle" x="261.81" y="-163.8" font-family="Arial" font-size="14.00">AFeces</text>
<text text-anchor="middle" x="261.81" y="-148.8" font-family="Arial" font-size="14.00">[PBPKO:00275]</text>
</a>
</g>
</g>
<!-- ASI&#45;&gt;AFeces -->
<g id="edge4" class="edge">
<title>ASI&#45;&gt;AFeces</title>
<path fill="none" stroke="black" d="M369.14,-390.88C362.47,-379.32 353.83,-363.94 346.81,-350 318.5,-293.75 289.17,-226.06 273.45,-188.87"/>
<polygon fill="black" stroke="black" points="276.49,-187.09 269.38,-179.23 270.04,-189.8 276.49,-187.09"/>
<text text-anchor="middle" x="357.81" y="-281.3" font-family="Times,serif" font-size="14.00">_J3</text>
</g>
<!-- APlasma -->
<g id="node4" class="node">
<title>APlasma</title>
<g id="a_node4"><a xlink:href="#species-APlasma" xlink:title="APlasma&#10;[PBPKO:00502]">
<path fill="gold" stroke="black" d="M807.31,-179C807.31,-179 718.31,-179 718.31,-179 712.31,-179 706.31,-173 706.31,-167 706.31,-167 706.31,-153 706.31,-153 706.31,-147 712.31,-141 718.31,-141 718.31,-141 807.31,-141 807.31,-141 813.31,-141 819.31,-147 819.31,-153 819.31,-153 819.31,-167 819.31,-167 819.31,-173 813.31,-179 807.31,-179"/>
<text text-anchor="middle" x="762.81" y="-163.8" font-family="Arial" font-size="14.00">APlasma</text>
<text text-anchor="middle" x="762.81" y="-148.8" font-family="Arial" font-size="14.00">[PBPKO:00502]</text>
</a>
</g>
</g>
<!-- ALiver&#45;&gt;APlasma -->
<g id="edge5" class="edge">
<title>ALiver&#45;&gt;APlasma</title>
<path fill="none" stroke="black" d="M628.98,-265.85C656.19,-244.53 701.45,-209.08 731.7,-185.37"/>
<polygon fill="black" stroke="black" points="734.1,-187.95 739.81,-179.02 729.78,-182.44 734.1,-187.95"/>
<text text-anchor="middle" x="680.81" y="-237.3" font-family="Times,serif" font-size="14.00">_J5</text>
</g>
<!-- ALiver&#45;&gt;AFeces -->
<g id="edge6" class="edge">
<title>ALiver&#45;&gt;AFeces</title>
<path fill="none" stroke="black" d="M555.43,-265.98C493.35,-243.79 388,-206.12 321.81,-182.45"/>
<polygon fill="black" stroke="black" points="322.93,-179.14 312.34,-179.07 320.58,-185.73 322.93,-179.14"/>
<text text-anchor="middle" x="514.81" y="-237.3" font-family="Times,serif" font-size="14.00">_J6</text>
</g>
<!-- APlasma&#45;&gt;ALiver -->
<g id="edge7" class="edge">
<title>APlasma&#45;&gt;ALiver</title>
<path fill="none" stroke="black" d="M708.86,-179.13C680.92,-190.86 648.08,-208.65 625.81,-233.5 620,-239.99 615.78,-248.38 612.75,-256.44"/>
<polygon fill="black" stroke="black" points="609.42,-255.38 609.64,-265.98 616.07,-257.56 609.42,-255.38"/>
<text text-anchor="middle" x="636.81" y="-237.3" font-family="Times,serif" font-size="14.00">_J4</text>
</g>
<!-- ARest -->
<g id="node5" class="node">
<title>ARest</title>
<g id="a_node5"><a xlink:href="#species-ARest" xlink:title="ARest&#10;[PBPKO:00501]">
<path fill="gold" stroke="black" d="M847.31,-54C847.31,-54 758.31,-54 758.31,-54 752.31,-54 746.31,-48 746.31,-42 746.31,-42 746.31,-28 746.31,-28 746.31,-22 752.31,-16 758.31,-16 758.31,-16 847.31,-16 847.31,-16 853.31,-16 859.31,-22 859.31,-28 859.31,-28 859.31,-42 859.31,-42 859.31,-48 853.31,-54 847.31,-54"/>
<text text-anchor="middle" x="802.81" y="-38.8" font-family="Arial" font-size="14.00">ARest</text>
<text text-anchor="middle" x="802.81" y="-23.8" font-family="Arial" font-size="14.00">[PBPKO:00501]</text>
</a>
</g>
</g>
<!-- APlasma&#45;&gt;ARest -->
<g id="edge8" class="edge">
<title>APlasma&#45;&gt;ARest</title>
<path fill="none" stroke="black" d="M768.72,-140.85C775.3,-120.59 786.04,-87.57 793.71,-64"/>
<polygon fill="black" stroke="black" points="797.12,-64.82 796.89,-54.22 790.47,-62.65 797.12,-64.82"/>
<text text-anchor="middle" x="789.81" y="-112.3" font-family="Times,serif" font-size="14.00">_J7</text>
</g>
<!-- ARest&#45;&gt;APlasma -->
<g id="edge9" class="edge">
<title>ARest&#45;&gt;APlasma</title>
<path fill="none" stroke="black" d="M807.69,-54.04C811.67,-72.42 815.11,-101.31 804.81,-123.5 803.14,-127.1 800.91,-130.47 798.34,-133.58"/>
<polygon fill="black" stroke="black" points="795.8,-131.16 791.38,-140.79 800.84,-136.03 795.8,-131.16"/>
<text text-anchor="middle" x="819.81" y="-112.3" font-family="Times,serif" font-size="14.00">_J8</text>
</g>
</g>
</svg>
