<?xml version="1.0" encoding="UTF-8" standalone="no"?>
<!DOCTYPE svg PUBLIC "-//W3C//DTD SVG 1.1//EN"
 "http://www.w3.org/Graphics/SVG/1.1/DTD/svg11.dtd">
<!-- Generated by graphviz version 2.43.0 (0)
 -->
<!-- Title: %3 Pages: 1 -->
<svg width="501pt" height="288pt"
 viewBox="0.00 0.00 501.19 288.00" xmlns="http://www.w3.org/2000/svg" xmlns:xlink="http://www.w3.org/1999/xlink">
<g id="graph0" class="graph" transform="scale(0.47 0.47) rotate(0) translate(4 612)">
<title>%3</title>
<polygon fill="white" stroke="transparent" points="-4,4 -4,-612 1068,-612 1068,4 -4,4"/>
<g id="clust1" class="cluster">
<title>cluster_Stomach</title>
<g id="a_clust1"><a xlink:href="#compartment-Stomach" xlink:title="Stomach&#10;[&#45;]">
<path fill="lightblue" stroke="black" d="M273.71,-508C273.71,-508 661.58,-508 661.58,-508 667.58,-508 673.58,-514 673.58,-520 673.58,-520 673.58,-588 673.58,-588 673.58,-594 667.58,-600 661.58,-600 661.58,-600 273.71,-600 273.71,-600 267.71,-600 261.71,-594 261.71,-588 261.71,-588 261.71,-520 261.71,-520 261.71,-514 267.71,-508 273.71,-508"/>
<text text-anchor="middle" x="467.65" y="-584.8" font-family="Arial" font-size="14.00">Stomach</text>
<text text-anchor="middle" x="467.65" y="-569.8" font-family="Arial" font-size="14.00">[&#45;]</text>
</a>
</g>
</g>
<g id="clust2" class="cluster">
<title>cluster_SI</title>
<g id="a_clust2"><a xlink:href="#compartment-SI" xlink:title="SI&#10;[&#45;]">
<path fill="lightblue" stroke="black" d="M166.45,-383C166.45,-383 442.77,-383 442.77,-383 448.77,-383 454.77,-389 454.77,-395 454.77,-395 454.77,-463 454.77,-463 454.77,-469 448.77,-475 442.77,-475 442.77,-475 166.45,-475 166.45,-475 160.45,-475 154.45,-469 154.45,-463 154.45,-463 154.45,-395 154.45,-395 154.45,-389 160.45,-383 166.45,-383"/>
<text text-anchor="middle" x="304.61" y="-459.8" font-family="Arial" font-size="14.00">SI</text>
<text text-anchor="middle" x="304.61" y="-444.8" font-family="Arial" font-size="14.00">[&#45;]</text>
</a>
</g>
</g>
<g id="clust3" class="cluster">
<title>cluster_Liver</title>
<g id="a_clust3"><a xlink:href="#compartment-Liver" xlink:title="Liver&#10;[&#45;]">
<path fill="lightblue" stroke="black" d="M308.03,-258C308.03,-258 841.77,-258 841.77,-258 847.77,-258 853.77,-264 853.77,-270 853.77,-270 853.77,-338 853.77,-338 853.77,-344 847.77,-350 841.77,-350 841.77,-350 308.03,-350 308.03,-350 302.03,-350 296.03,-344 296.03,-338 296.03,-338 296.03,-270 296.03,-270 296.03,-264 302.03,-258 308.03,-258"/>
<text text-anchor="middle" x="574.9" y="-334.8" font-family="Arial" font-size="14.00">Liver</text>
<text text-anchor="middle" x="574.9" y="-319.8" font-family="Arial" font-size="14.00">[&#45;]</text>
</a>
</g>
</g>
<g id="clust4" class="cluster">
<title>cluster_Plasma</title>
<g id="a_clust4"><a xlink:href="#compartment-Plasma" xlink:title="Plasma&#10;[PBPKO:00488]">
<path fill="lightblue" stroke="black" d="M436.74,-133C436.74,-133 970.48,-133 970.48,-133 976.48,-133 982.48,-139 982.48,-145 982.48,-145 982.48,-213 982.48,-213 982.48,-219 976.48,-225 970.48,-225 970.48,-225 436.74,-225 436.74,-225 430.74,-225 424.74,-219 424.74,-213 424.74,-213 424.74,-145 424.74,-145 424.74,-139 430.74,-133 436.74,-133"/>
<text text-anchor="middle" x="703.61" y="-209.8" font-family="Arial" font-size="14.00">Plasma</text>
<text text-anchor="middle" x="703.61" y="-194.8" font-family="Arial" font-size="14.00">[PBPKO:00488]</text>
</a>
</g>
</g>
<g id="clust5" class="cluster">
<title>cluster_Rest</title>
<g id="a_clust5"><a xlink:href="#compartment-Rest" xlink:title="Rest&#10;[PBPKO:00450]">
<path fill="lightblue" stroke="black" d="M483.94,-8C483.94,-8 1017.68,-8 1017.68,-8 1023.68,-8 1029.68,-14 1029.68,-20 1029.68,-20 1029.68,-88 1029.68,-88 1029.68,-94 1023.68,-100 1017.68,-100 1017.68,-100 483.94,-100 483.94,-100 477.94,-100 471.94,-94 471.94,-88 471.94,-88 471.94,-20 471.94,-20 471.94,-14 477.94,-8 483.94,-8"/>
<text text-anchor="middle" x="750.81" y="-84.8" font-family="Arial" font-size="14.00">Rest</text>
<text text-anchor="middle" x="750.81" y="-69.8" font-family="Arial" font-size="14.00">[PBPKO:00450]</text>
</a>
</g>
</g>
<g id="clust6" class="cluster">
<title>cluster_Feces</title>
<g id="a_clust6"><a xlink:href="#compartment-Feces" xlink:title="Feces&#10;[&#45;]">
<path fill="lightblue" stroke="black" d="M46.32,-133C46.32,-133 356.97,-133 356.97,-133 362.97,-133 368.97,-139 368.97,-145 368.97,-145 368.97,-213 368.97,-213 368.97,-219 362.97,-225 356.97,-225 356.97,-225 46.32,-225 46.32,-225 40.32,-225 34.32,-219 34.32,-213 34.32,-213 34.32,-145 34.32,-145 34.32,-139 40.32,-133 46.32,-133"/>
<text text-anchor="middle" x="201.65" y="-209.8" font-family="Arial" font-size="14.00">Feces</text>
<text text-anchor="middle" x="201.65" y="-194.8" font-family="Arial" font-size="14.00">[&#45;]</text>
</a>
</g>
</g>
<!-- AStomach -->
<g id="node1" class="node">
<title>AStomach</title>
<g id="a_node1"><a xlink:href="#species-AStomach" xlink:title="AStomach&#10;[&#45;]">
<path fill="gold" stroke="black" d="M495.26,-554C495.26,-554 439.26,-554 439.26,-554 433.26,-554 427.26,-548 427.26,-542 427.26,-542 427.26,-528 427.26,-528 427.26,-522 433.26,-516 439.26,-516 439.26,-516 495.26,-516 495.26,-516 501.26,-516 507.26,-522 507.26,-528 507.26,-528 507.26,-542 507.26,-542 507.26,-548 501.26,-554 495.26,-554"/>
<text text-anchor="middle" x="467.26" y="-538.8" font-family="Arial" font-size="14.00">AStomach</text>
<text text-anchor="middle" x="467.26" y="-523.8" font-family="Arial" font-size="14.00">[&#45;]</text>
</a>
</g>
</g>
<!-- ASI -->
<g id="node2" class="node">
<title>ASI</title>
<g id="a_node2"><a xlink:href="#species-ASI" xlink:title="ASI&#10;[&#45;]">
<path fill="gold" stroke="black" d="M319.26,-429C319.26,-429 289.26,-429 289.26,-429 283.26,-429 277.26,-423 277.26,-417 277.26,-417 277.26,-403 277.26,-403 277.26,-397 283.26,-391 289.26,-391 289.26,-391 319.26,-391 319.26,-391 325.26,-391 331.26,-397 331.26,-403 331.26,-403 331.26,-417 331.26,-417 331.26,-423 325.26,-429 319.26,-429"/>
<text text-anchor="middle" x="304.26" y="-413.8" font-family="Arial" font-size="14.00">ASI</text>
<text text-anchor="middle" x="304.26" y="-398.8" font-family="Arial" font-size="14.00">[&#45;]</text>
</a>
</g>
</g>
<!-- AStomach&#45;&gt;ASI -->
<g id="edge1" class="edge">
<title>AStomach&#45;&gt;ASI</title>
<path fill="none" stroke="black" d="M443.21,-515.85C414.84,-494.44 367.57,-458.77 336.16,-435.07"/>
<polygon fill="black" stroke="black" points="338.23,-432.25 328.14,-429.02 334.02,-437.84 338.23,-432.25"/>
<text text-anchor="middle" x="429.26" y="-487.3" font-family="Times,serif" font-size="14.00">_J0</text>
</g>
<!-- ALiver -->
<g id="node3" class="node">
<title>ALiver</title>
<g id="a_node3"><a xlink:href="#species-ALiver" xlink:title="ALiver&#10;[PBPKO:00497]">
<path fill="gold" stroke="black" d="M619.76,-304C619.76,-304 530.76,-304 530.76,-304 524.76,-304 518.76,-298 518.76,-292 518.76,-292 518.76,-278 518.76,-278 518.76,-272 524.76,-266 530.76,-266 530.76,-266 619.76,-266 619.76,-266 625.76,-266 631.76,-272 631.76,-278 631.76,-278 631.76,-292 631.76,-292 631.76,-298 625.76,-304 619.76,-304"/>
<text text-anchor="middle" x="575.26" y="-288.8" font-family="Arial" font-size="14.00">ALiver</text>
<text text-anchor="middle" x="575.26" y="-273.8" font-family="Arial" font-size="14.00">[PBPKO:00497]</text>
</a>
</g>
</g>
<!-- AStomach&#45;&gt;ALiver -->
<g id="edge2" class="edge">
<title>AStomach&#45;&gt;ALiver</title>
<path fill="none" stroke="black" d="M475.2,-515.76C493.92,-472.77 540.93,-364.83 563.2,-313.7"/>
<polygon fill="black" stroke="black" points="566.52,-314.83 567.3,-304.26 560.1,-312.03 566.52,-314.83"/>
<text text-anchor="middle" x="542.26" y="-406.3" font-family="Times,serif" font-size="14.00">_J1</text>
</g>
<!-- ASI&#45;&gt;ALiver -->
<g id="edge3" class="edge">
<title>ASI&#45;&gt;ALiver</title>
<path fill="none" stroke="black" d="M331.48,-396.64C377,-375.98 469.17,-334.15 526.22,-308.26"/>
<polygon fill="black" stroke="black" points="527.74,-311.41 535.4,-304.09 524.85,-305.03 527.74,-311.41"/>
<text text-anchor="middle" x="426.26" y="-362.3" font-family="Times,serif" font-size="14.00">_J2</text>
</g>
<!-- AFeces -->
<g id="node6" class="node">
<title>AFeces</title>
<g id="a_node6"><a xlink:href="#species-AFeces" xlink:title="AFeces&#10;[&#45;]">
<path fill="gold" stroke="black" d="M220.26,-179C220.26,-179 182.26,-179 182.26,-179 176.26,-179 170.26,-173 170.26,-167 170.26,-167 170.26,-153 170.26,-153 170.26,-147 176.26,-141 182.26,-141 182.26,-141 220.26,-141 220.26,-141 226.26,-141 232.26,-147 232.26,-153 232.26,-153 232.26,-167 232.26,-167 232.26,-173 226.26,-179 220.26,-179"/>
<text text-anchor="middle" x="201.26" y="-163.8" font-family="Arial" font-size="14.00">AFeces</text>
<text text-anchor="middle" x="201.26" y="-148.8" font-family="Arial" font-size="14.00">[&#45;]</text>
</a>
</g>
</g>
<!-- ASI&#45;&gt;AFeces -->
<g id="edge4" class="edge">
<title>ASI&#45;&gt;AFeces</title>
<path fill="none" stroke="black" d="M292.7,-390.84C285.69,-379.39 276.85,-364.14 270.26,-350 244.35,-294.44 221.53,-226.23 209.75,-188.83"/>
<polygon fill="black" stroke="black" points="213.04,-187.64 206.72,-179.13 206.36,-189.72 213.04,-187.64"/>
<text text-anchor="middle" x="281.26" y="-281.3" font-family="Times,serif" font-size="14.00">_J3</text>
</g>
<!-- APlasma -->
<g id="node4" class="node">
<title>APlasma</title>
<g id="a_node4"><a xlink:href="#species-APlasma" xlink:title="APlasma&#10;[PBPKO:00502]">
<path fill="gold" stroke="black" d="M747.76,-179C747.76,-179 658.76,-179 658.76,-179 652.76,-179 646.76,-173 646.76,-167 646.76,-167 646.76,-153 646.76,-153 646.76,-147 652.76,-141 658.76,-141 658.76,-141 747.76,-141 747.76,-141 753.76,-141 759.76,-147 759.76,-153 759.76,-153 759.76,-167 759.76,-167 759.76,-173 753.76,-179 747.76,-179"/>
<text text-anchor="middle" x="703.26" y="-163.8" font-family="Arial" font-size="14.00">APlasma</text>
<text text-anchor="middle" x="703.26" y="-148.8" font-family="Arial" font-size="14.00">[PBPKO:00502]</text>
</a>
</g>
</g>
<!-- ALiver&#45;&gt;APlasma -->
<g id="edge5" class="edge">
<title>ALiver&#45;&gt;APlasma</title>
<path fill="none" stroke="black" d="M594.14,-265.85C616.08,-244.78 652.39,-209.88 677.04,-186.19"/>
<polygon fill="black" stroke="black" points="679.51,-188.68 684.29,-179.22 674.66,-183.63 679.51,-188.68"/>
<text text-anchor="middle" x="638.26" y="-237.3" font-family="Times,serif" font-size="14.00">_J5</text>
</g>
<!-- ALiver&#45;&gt;AFeces -->
<g id="edge6" class="edge">
<title>ALiver&#45;&gt;AFeces</title>
<path fill="none" stroke="black" d="M520.47,-265.98C444.82,-241.1 310.07,-196.78 242.41,-174.53"/>
<polygon fill="black" stroke="black" points="243.13,-171.09 232.54,-171.29 240.94,-177.74 243.13,-171.09"/>
<text text-anchor="middle" x="475.26" y="-237.3" font-family="Times,serif" font-size="14.00">_J6</text>
</g>
<!-- APlasma&#45;&gt;ALiver -->
<g id="edge7" class="edge">
<title>APlasma&#45;&gt;ALiver</title>
<path fill="none" stroke="black" d="M656.83,-179.08C632.25,-190.96 603.64,-208.91 586.26,-233.5 581.65,-240.02 578.91,-248.11 577.31,-255.89"/>
<polygon fill="black" stroke="black" points="573.85,-255.37 575.79,-265.78 580.77,-256.43 573.85,-255.37"/>
<text text-anchor="middle" x="597.26" y="-237.3" font-family="Times,serif" font-size="14.00">_J4</text>
</g>
<!-- ARest -->
<g id="node5" class="node">
<title>ARest</title>
<g id="a_node5"><a xlink:href="#species-ARest" xlink:title="ARest&#10;[PBPKO:00501]">
<path fill="gold" stroke="black" d="M795.76,-54C795.76,-54 706.76,-54 706.76,-54 700.76,-54 694.76,-48 694.76,-42 694.76,-42 694.76,-28 694.76,-28 694.76,-22 700.76,-16 706.76,-16 706.76,-16 795.76,-16 795.76,-16 801.76,-16 807.76,-22 807.76,-28 807.76,-28 807.76,-42 807.76,-42 807.76,-48 801.76,-54 795.76,-54"/>
<text text-anchor="middle" x="751.26" y="-38.8" font-family="Arial" font-size="14.00">ARest</text>
<text text-anchor="middle" x="751.26" y="-23.8" font-family="Arial" font-size="14.00">[PBPKO:00501]</text>
</a>
</g>
</g>
<!-- APlasma&#45;&gt;ARest -->
<g id="edge8" class="edge">
<title>APlasma&#45;&gt;ARest</title>
<path fill="none" stroke="black" d="M710.34,-140.85C718.28,-120.5 731.25,-87.27 740.46,-63.68"/>
<polygon fill="black" stroke="black" points="743.77,-64.81 744.15,-54.22 737.25,-62.27 743.77,-64.81"/>
<text text-anchor="middle" x="733.26" y="-112.3" font-family="Times,serif" font-size="14.00">_J7</text>
</g>
<!-- ARest&#45;&gt;APlasma -->
<g id="edge9" class="edge">
<title>ARest&#45;&gt;APlasma</title>
<path fill="none" stroke="black" d="M754.89,-54.19C757.65,-72.69 759.31,-101.67 748.26,-123.5 746.44,-127.09 744.07,-130.44 741.37,-133.52"/>
<polygon fill="black" stroke="black" points="738.8,-131.14 734.11,-140.65 743.7,-136.14 738.8,-131.14"/>
<text text-anchor="middle" x="764.26" y="-112.3" font-family="Times,serif" font-size="14.00">_J8</text>
</g>
</g>
</svg>
