<?xml version="1.0" encoding="UTF-8" standalone="no"?>
<!DOCTYPE svg PUBLIC "-//W3C//DTD SVG 1.1//EN"
 "http://www.w3.org/Graphics/SVG/1.1/DTD/svg11.dtd">
<!-- Generated by graphviz version 2.43.0 (0)
 -->
<!-- Title: %3 Pages: 1 -->
<svg width="501pt" height="288pt"
 viewBox="0.00 0.00 501.19 288.00" xmlns="http://www.w3.org/2000/svg" xmlns:xlink="http://www.w3.org/1999/xlink">
<g id="graph0" class="graph" transform="scale(0.47 0.47) rotate(0) translate(4 612)">
<title>%3</title>
<polygon fill="white" stroke="transparent" points="-4,4 -4,-612 1068,-612 1068,4 -4,4"/>
<g id="clust1" class="cluster">
<title>cluster_Stomach</title>
<g id="a_clust1"><a xlink:href="#compartment-Stomach" xlink:title="Stomach&#10;[&#45;]">
<path fill="lightblue" stroke="black" d="M280.35,-508C280.35,-508 482.34,-508 482.34,-508 488.34,-508 494.34,-514 494.34,-520 494.34,-520 494.34,-588 494.34,-588 494.34,-594 488.34,-600 482.34,-600 482.34,-600 280.35,-600 280.35,-600 274.35,-600 268.35,-594 268.35,-588 268.35,-588 268.35,-520 268.35,-520 268.35,-514 274.35,-508 280.35,-508"/>
<text text-anchor="middle" x="381.35" y="-584.8" font-family="Arial" font-size="14.00">Stomach</text>
<text text-anchor="middle" x="381.35" y="-569.8" font-family="Arial" font-size="14.00">[&#45;]</text>
</a>
</g>
</g>
<g id="clust2" class="cluster">
<title>cluster_Liver</title>
<g id="a_clust2"><a xlink:href="#compartment-Liver" xlink:title="Liver&#10;[&#45;]">
<path fill="lightblue" stroke="black" d="M355.68,-8C355.68,-8 708.32,-8 708.32,-8 714.32,-8 720.32,-14 720.32,-20 720.32,-20 720.32,-338 720.32,-338 720.32,-344 714.32,-350 708.32,-350 708.32,-350 355.68,-350 355.68,-350 349.68,-350 343.68,-344 343.68,-338 343.68,-338 343.68,-20 343.68,-20 343.68,-14 349.68,-8 355.68,-8"/>
<text text-anchor="middle" x="532" y="-334.8" font-family="Arial" font-size="14.00">Liver</text>
<text text-anchor="middle" x="532" y="-319.8" font-family="Arial" font-size="14.00">[&#45;]</text>
</a>
</g>
</g>
<g id="clust3" class="cluster">
<title>cluster_Plasma</title>
<g id="a_clust3"><a xlink:href="#compartment-Plasma" xlink:title="Plasma&#10;[PBPKO:00488]">
<path fill="lightblue" stroke="black" d="M751.15,-133C751.15,-133 1033.17,-133 1033.17,-133 1039.17,-133 1045.17,-139 1045.17,-145 1045.17,-145 1045.17,-213 1045.17,-213 1045.17,-219 1039.17,-225 1033.17,-225 1033.17,-225 751.15,-225 751.15,-225 745.15,-225 739.15,-219 739.15,-213 739.15,-213 739.15,-145 739.15,-145 739.15,-139 745.15,-133 751.15,-133"/>
<text text-anchor="middle" x="892.16" y="-209.8" font-family="Arial" font-size="14.00">Plasma</text>
<text text-anchor="middle" x="892.16" y="-194.8" font-family="Arial" font-size="14.00">[PBPKO:00488]</text>
</a>
</g>
</g>
<g id="clust4" class="cluster">
<title>cluster_Gut</title>
<g id="a_clust4"><a xlink:href="#compartment-Gut" xlink:title="Gut&#10;[PBPKO:00477]">
<path fill="lightblue" stroke="black" d="M30.83,-258C30.83,-258 312.85,-258 312.85,-258 318.85,-258 324.85,-264 324.85,-270 324.85,-270 324.85,-463 324.85,-463 324.85,-469 318.85,-475 312.85,-475 312.85,-475 30.83,-475 30.83,-475 24.83,-475 18.83,-469 18.83,-463 18.83,-463 18.83,-270 18.83,-270 18.83,-264 24.83,-258 30.83,-258"/>
<text text-anchor="middle" x="171.84" y="-459.8" font-family="Arial" font-size="14.00">Gut</text>
<text text-anchor="middle" x="171.84" y="-444.8" font-family="Arial" font-size="14.00">[PBPKO:00477]</text>
</a>
</g>
</g>
<g id="clust5" class="cluster">
<title>cluster_Rest</title>
<g id="a_clust5"><a xlink:href="#compartment-Rest" xlink:title="Rest&#10;[PBPKO:00450]">
<path fill="lightblue" stroke="black" d="M751.15,-8C751.15,-8 1033.17,-8 1033.17,-8 1039.17,-8 1045.17,-14 1045.17,-20 1045.17,-20 1045.17,-88 1045.17,-88 1045.17,-94 1039.17,-100 1033.17,-100 1033.17,-100 751.15,-100 751.15,-100 745.15,-100 739.15,-94 739.15,-88 739.15,-88 739.15,-20 739.15,-20 739.15,-14 745.15,-8 751.15,-8"/>
<text text-anchor="middle" x="892.16" y="-84.8" font-family="Arial" font-size="14.00">Rest</text>
<text text-anchor="middle" x="892.16" y="-69.8" font-family="Arial" font-size="14.00">[PBPKO:00450]</text>
</a>
</g>
</g>
<!-- AStomach -->
<g id="node1" class="node">
<title>AStomach</title>
<g id="a_node1"><a xlink:href="#species-AStomach" xlink:title="AStomach&#10;[&#45;]">
<path fill="gold" stroke="black" d="M409.37,-554C409.37,-554 353.37,-554 353.37,-554 347.37,-554 341.37,-548 341.37,-542 341.37,-542 341.37,-528 341.37,-528 341.37,-522 347.37,-516 353.37,-516 353.37,-516 409.37,-516 409.37,-516 415.37,-516 421.37,-522 421.37,-528 421.37,-528 421.37,-542 421.37,-542 421.37,-548 415.37,-554 409.37,-554"/>
<text text-anchor="middle" x="381.37" y="-538.8" font-family="Arial" font-size="14.00">AStomach</text>
<text text-anchor="middle" x="381.37" y="-523.8" font-family="Arial" font-size="14.00">[&#45;]</text>
</a>
</g>
</g>
<!-- ALiver -->
<g id="node2" class="node">
<title>ALiver</title>
<g id="a_node2"><a xlink:href="#species-ALiver" xlink:title="ALiver&#10;[PBPKO:00497]">
<path fill="gold" stroke="black" d="M576.87,-304C576.87,-304 487.87,-304 487.87,-304 481.87,-304 475.87,-298 475.87,-292 475.87,-292 475.87,-278 475.87,-278 475.87,-272 481.87,-266 487.87,-266 487.87,-266 576.87,-266 576.87,-266 582.87,-266 588.87,-272 588.87,-278 588.87,-278 588.87,-292 588.87,-292 588.87,-298 582.87,-304 576.87,-304"/>
<text text-anchor="middle" x="532.37" y="-288.8" font-family="Arial" font-size="14.00">ALiver</text>
<text text-anchor="middle" x="532.37" y="-273.8" font-family="Arial" font-size="14.00">[PBPKO:00497]</text>
</a>
</g>
</g>
<!-- AStomach&#45;&gt;ALiver -->
<g id="edge1" class="edge">
<title>AStomach&#45;&gt;ALiver</title>
<path fill="none" stroke="black" d="M392.48,-515.76C418.76,-472.59 484.92,-363.93 515.9,-313.06"/>
<polygon fill="black" stroke="black" points="519.04,-314.62 521.25,-304.26 513.06,-310.98 519.04,-314.62"/>
<text text-anchor="middle" x="477.37" y="-406.3" font-family="Times,serif" font-size="14.00">_J1</text>
</g>
<!-- AGut -->
<g id="node6" class="node">
<title>AGut</title>
<g id="a_node6"><a xlink:href="#species-AGut" xlink:title="AGut&#10;[PBPKO:00496]">
<path fill="gold" stroke="black" d="M215.87,-429C215.87,-429 126.87,-429 126.87,-429 120.87,-429 114.87,-423 114.87,-417 114.87,-417 114.87,-403 114.87,-403 114.87,-397 120.87,-391 126.87,-391 126.87,-391 215.87,-391 215.87,-391 221.87,-391 227.87,-397 227.87,-403 227.87,-403 227.87,-417 227.87,-417 227.87,-423 221.87,-429 215.87,-429"/>
<text text-anchor="middle" x="171.37" y="-413.8" font-family="Arial" font-size="14.00">AGut</text>
<text text-anchor="middle" x="171.37" y="-398.8" font-family="Arial" font-size="14.00">[PBPKO:00496]</text>
</a>
</g>
</g>
<!-- AStomach&#45;&gt;AGut -->
<g id="edge2" class="edge">
<title>AStomach&#45;&gt;AGut</title>
<path fill="none" stroke="black" d="M350.39,-515.85C313.37,-494.17 251.38,-457.86 210.93,-434.17"/>
<polygon fill="black" stroke="black" points="212.54,-431.06 202.14,-429.02 209,-437.1 212.54,-431.06"/>
<text text-anchor="middle" x="329.37" y="-487.3" font-family="Times,serif" font-size="14.00">_J0</text>
</g>
<!-- ALiverMet1 -->
<g id="node3" class="node">
<title>ALiverMet1</title>
<g id="a_node3"><a xlink:href="#species-ALiverMet1" xlink:title="ALiverMet1&#10;[&#45;]">
<path fill="gold" stroke="black" d="M494.37,-179C494.37,-179 432.37,-179 432.37,-179 426.37,-179 420.37,-173 420.37,-167 420.37,-167 420.37,-153 420.37,-153 420.37,-147 426.37,-141 432.37,-141 432.37,-141 494.37,-141 494.37,-141 500.37,-141 506.37,-147 506.37,-153 506.37,-153 506.37,-167 506.37,-167 506.37,-173 500.37,-179 494.37,-179"/>
<text text-anchor="middle" x="463.37" y="-163.8" font-family="Arial" font-size="14.00">ALiverMet1</text>
<text text-anchor="middle" x="463.37" y="-148.8" font-family="Arial" font-size="14.00">[&#45;]</text>
</a>
</g>
</g>
<!-- ALiver&#45;&gt;ALiverMet1 -->
<g id="edge3" class="edge">
<title>ALiver&#45;&gt;ALiverMet1</title>
<path fill="none" stroke="black" d="M522.19,-265.85C510.67,-245.32 491.8,-211.68 478.55,-188.05"/>
<polygon fill="black" stroke="black" points="481.54,-186.23 473.59,-179.22 475.43,-189.66 481.54,-186.23"/>
<text text-anchor="middle" x="522.37" y="-237.3" font-family="Times,serif" font-size="14.00">_J8</text>
</g>
<!-- ALiverMet2 -->
<g id="node4" class="node">
<title>ALiverMet2</title>
<g id="a_node4"><a xlink:href="#species-ALiverMet2" xlink:title="ALiverMet2&#10;[&#45;]">
<path fill="gold" stroke="black" d="M631.37,-54C631.37,-54 569.37,-54 569.37,-54 563.37,-54 557.37,-48 557.37,-42 557.37,-42 557.37,-28 557.37,-28 557.37,-22 563.37,-16 569.37,-16 569.37,-16 631.37,-16 631.37,-16 637.37,-16 643.37,-22 643.37,-28 643.37,-28 643.37,-42 643.37,-42 643.37,-48 637.37,-54 631.37,-54"/>
<text text-anchor="middle" x="600.37" y="-38.8" font-family="Arial" font-size="14.00">ALiverMet2</text>
<text text-anchor="middle" x="600.37" y="-23.8" font-family="Arial" font-size="14.00">[&#45;]</text>
</a>
</g>
</g>
<!-- ALiver&#45;&gt;ALiverMet2 -->
<g id="edge4" class="edge">
<title>ALiver&#45;&gt;ALiverMet2</title>
<path fill="none" stroke="black" d="M537.37,-265.76C549.14,-222.86 578.63,-115.28 592.69,-64.02"/>
<polygon fill="black" stroke="black" points="596.1,-64.83 595.36,-54.26 589.34,-62.98 596.1,-64.83"/>
<text text-anchor="middle" x="583.37" y="-156.3" font-family="Times,serif" font-size="14.00">_J9</text>
</g>
<!-- APlasma -->
<g id="node5" class="node">
<title>APlasma</title>
<g id="a_node5"><a xlink:href="#species-APlasma" xlink:title="APlasma&#10;[PBPKO:00502]">
<path fill="gold" stroke="black" d="M936.87,-179C936.87,-179 847.87,-179 847.87,-179 841.87,-179 835.87,-173 835.87,-167 835.87,-167 835.87,-153 835.87,-153 835.87,-147 841.87,-141 847.87,-141 847.87,-141 936.87,-141 936.87,-141 942.87,-141 948.87,-147 948.87,-153 948.87,-153 948.87,-167 948.87,-167 948.87,-173 942.87,-179 936.87,-179"/>
<text text-anchor="middle" x="892.37" y="-163.8" font-family="Arial" font-size="14.00">APlasma</text>
<text text-anchor="middle" x="892.37" y="-148.8" font-family="Arial" font-size="14.00">[PBPKO:00502]</text>
</a>
</g>
</g>
<!-- ALiver&#45;&gt;APlasma -->
<g id="edge5" class="edge">
<title>ALiver&#45;&gt;APlasma</title>
<path fill="none" stroke="black" d="M589,-268.04C609.64,-262.09 633.11,-255.16 654.37,-248.5 718.04,-228.56 789.74,-201.56 837.65,-182.85"/>
<polygon fill="black" stroke="black" points="839.17,-186.01 847.2,-179.11 836.61,-179.5 839.17,-186.01"/>
<text text-anchor="middle" x="704.37" y="-237.3" font-family="Times,serif" font-size="14.00">_J5</text>
</g>
<!-- APlasma&#45;&gt;ALiver -->
<g id="edge6" class="edge">
<title>APlasma&#45;&gt;ALiver</title>
<path fill="none" stroke="black" d="M862.87,-179.17C829.3,-199.06 772.27,-230.5 719.37,-248.5 680.48,-261.73 635.27,-270.48 599.04,-275.99"/>
<polygon fill="black" stroke="black" points="598.46,-272.53 589.07,-277.45 599.47,-279.46 598.46,-272.53"/>
<text text-anchor="middle" x="764.37" y="-237.3" font-family="Times,serif" font-size="14.00">_J4</text>
</g>
<!-- ARest -->
<g id="node8" class="node">
<title>ARest</title>
<g id="a_node8"><a xlink:href="#species-ARest" xlink:title="ARest&#10;[PBPKO:00501]">
<path fill="gold" stroke="black" d="M936.87,-54C936.87,-54 847.87,-54 847.87,-54 841.87,-54 835.87,-48 835.87,-42 835.87,-42 835.87,-28 835.87,-28 835.87,-22 841.87,-16 847.87,-16 847.87,-16 936.87,-16 936.87,-16 942.87,-16 948.87,-22 948.87,-28 948.87,-28 948.87,-42 948.87,-42 948.87,-48 942.87,-54 936.87,-54"/>
<text text-anchor="middle" x="892.37" y="-38.8" font-family="Arial" font-size="14.00">ARest</text>
<text text-anchor="middle" x="892.37" y="-23.8" font-family="Arial" font-size="14.00">[PBPKO:00501]</text>
</a>
</g>
</g>
<!-- APlasma&#45;&gt;ARest -->
<g id="edge7" class="edge">
<title>APlasma&#45;&gt;ARest</title>
<path fill="none" stroke="black" d="M892.37,-140.85C892.37,-120.68 892.37,-87.86 892.37,-64.31"/>
<polygon fill="black" stroke="black" points="895.87,-64.22 892.37,-54.22 888.87,-64.22 895.87,-64.22"/>
<text text-anchor="middle" x="903.37" y="-112.3" font-family="Times,serif" font-size="14.00">_J6</text>
</g>
<!-- AGut&#45;&gt;ALiver -->
<g id="edge8" class="edge">
<title>AGut&#45;&gt;ALiver</title>
<path fill="none" stroke="black" d="M224.25,-390.98C289.53,-368.74 400.4,-330.96 469.84,-307.31"/>
<polygon fill="black" stroke="black" points="471.01,-310.6 479.35,-304.07 468.76,-303.98 471.01,-310.6"/>
<text text-anchor="middle" x="330.37" y="-362.3" font-family="Times,serif" font-size="14.00">_J2</text>
</g>
<!-- AGutMet1 -->
<g id="node7" class="node">
<title>AGutMet1</title>
<g id="a_node7"><a xlink:href="#species-AGutMet1" xlink:title="AGutMet1&#10;[&#45;]">
<path fill="gold" stroke="black" d="M198.87,-304C198.87,-304 143.87,-304 143.87,-304 137.87,-304 131.87,-298 131.87,-292 131.87,-292 131.87,-278 131.87,-278 131.87,-272 137.87,-266 143.87,-266 143.87,-266 198.87,-266 198.87,-266 204.87,-266 210.87,-272 210.87,-278 210.87,-278 210.87,-292 210.87,-292 210.87,-298 204.87,-304 198.87,-304"/>
<text text-anchor="middle" x="171.37" y="-288.8" font-family="Arial" font-size="14.00">AGutMet1</text>
<text text-anchor="middle" x="171.37" y="-273.8" font-family="Arial" font-size="14.00">[&#45;]</text>
</a>
</g>
</g>
<!-- AGut&#45;&gt;AGutMet1 -->
<g id="edge9" class="edge">
<title>AGut&#45;&gt;AGutMet1</title>
<path fill="none" stroke="black" d="M171.37,-390.85C171.37,-370.68 171.37,-337.86 171.37,-314.31"/>
<polygon fill="black" stroke="black" points="174.87,-314.22 171.37,-304.22 167.87,-314.22 174.87,-314.22"/>
<text text-anchor="middle" x="182.37" y="-362.3" font-family="Times,serif" font-size="14.00">_J3</text>
</g>
<!-- ARest&#45;&gt;APlasma -->
<g id="edge10" class="edge">
<title>ARest&#45;&gt;APlasma</title>
<path fill="none" stroke="black" d="M904.31,-54.19C914.43,-71.95 926.15,-99.7 918.37,-123.5 917.41,-126.45 916.09,-129.37 914.56,-132.17"/>
<polygon fill="black" stroke="black" points="911.54,-130.41 909.11,-140.72 917.44,-134.17 911.54,-130.41"/>
<text text-anchor="middle" x="931.37" y="-112.3" font-family="Times,serif" font-size="14.00">_J7</text>
</g>
</g>
</svg>
