<?xml version="1.0" encoding="UTF-8" standalone="no"?>
<!DOCTYPE svg PUBLIC "-//W3C//DTD SVG 1.1//EN"
 "http://www.w3.org/Graphics/SVG/1.1/DTD/svg11.dtd">
<!-- Generated by graphviz version 2.43.0 (0)
 -->
<!-- Title: %3 Pages: 1 -->
<svg width="501pt" height="288pt"
 viewBox="0.00 0.00 501.19 288.00" xmlns="http://www.w3.org/2000/svg" xmlns:xlink="http://www.w3.org/1999/xlink">
<g id="graph0" class="graph" transform="scale(0.47 0.47) rotate(0) translate(4 612)">
<title>%3</title>
<polygon fill="white" stroke="transparent" points="-4,4 -4,-612 1068,-612 1068,4 -4,4"/>
<g id="clust1" class="cluster">
<title>cluster_Stomach</title>
<g id="a_clust1"><a xlink:href="#compartment-Stomach" xlink:title="Stomach&#10;[PBPKO:00566]">
<path fill="lightblue" stroke="black" d="M269.13,-508C269.13,-508 495.62,-508 495.62,-508 501.62,-508 507.62,-514 507.62,-520 507.62,-520 507.62,-588 507.62,-588 507.62,-594 501.62,-600 495.62,-600 495.62,-600 269.13,-600 269.13,-600 263.13,-600 257.13,-594 257.13,-588 257.13,-588 257.13,-520 257.13,-520 257.13,-514 263.13,-508 269.13,-508"/>
<text text-anchor="middle" x="382.38" y="-584.8" font-family="Arial" font-size="14.00">Stomach</text>
<text text-anchor="middle" x="382.38" y="-569.8" font-family="Arial" font-size="14.00">[PBPKO:00566]</text>
</a>
</g>
</g>
<g id="clust2" class="cluster">
<title>cluster_Liver</title>
<g id="a_clust2"><a xlink:href="#compartment-Liver" xlink:title="Liver&#10;[PBPKO:00558]">
<path fill="lightblue" stroke="black" d="M335.63,-8C335.63,-8 728.37,-8 728.37,-8 734.37,-8 740.37,-14 740.37,-20 740.37,-20 740.37,-338 740.37,-338 740.37,-344 734.37,-350 728.37,-350 728.37,-350 335.63,-350 335.63,-350 329.63,-350 323.63,-344 323.63,-338 323.63,-338 323.63,-20 323.63,-20 323.63,-14 329.63,-8 335.63,-8"/>
<text text-anchor="middle" x="532" y="-334.8" font-family="Arial" font-size="14.00">Liver</text>
<text text-anchor="middle" x="532" y="-319.8" font-family="Arial" font-size="14.00">[PBPKO:00558]</text>
</a>
</g>
</g>
<g id="clust3" class="cluster">
<title>cluster_Plasma</title>
<g id="a_clust3"><a xlink:href="#compartment-Plasma" xlink:title="Plasma&#10;[PBPKO:00488]">
<path fill="lightblue" stroke="black" d="M770.1,-133C770.1,-133 1034.27,-133 1034.27,-133 1040.27,-133 1046.27,-139 1046.27,-145 1046.27,-145 1046.27,-213 1046.27,-213 1046.27,-219 1040.27,-225 1034.27,-225 1034.27,-225 770.1,-225 770.1,-225 764.1,-225 758.1,-219 758.1,-213 758.1,-213 758.1,-145 758.1,-145 758.1,-139 764.1,-133 770.1,-133"/>
<text text-anchor="middle" x="902.18" y="-209.8" font-family="Arial" font-size="14.00">Plasma</text>
<text text-anchor="middle" x="902.18" y="-194.8" font-family="Arial" font-size="14.00">[PBPKO:00488]</text>
</a>
</g>
</g>
<g id="clust4" class="cluster">
<title>cluster_Gut</title>
<g id="a_clust4"><a xlink:href="#compartment-Gut" xlink:title="Gut&#10;[PBPKO:00477]">
<path fill="lightblue" stroke="black" d="M29.73,-258C29.73,-258 293.9,-258 293.9,-258 299.9,-258 305.9,-264 305.9,-270 305.9,-270 305.9,-463 305.9,-463 305.9,-469 299.9,-475 293.9,-475 293.9,-475 29.73,-475 29.73,-475 23.73,-475 17.73,-469 17.73,-463 17.73,-463 17.73,-270 17.73,-270 17.73,-264 23.73,-258 29.73,-258"/>
<text text-anchor="middle" x="161.82" y="-459.8" font-family="Arial" font-size="14.00">Gut</text>
<text text-anchor="middle" x="161.82" y="-444.8" font-family="Arial" font-size="14.00">[PBPKO:00477]</text>
</a>
</g>
</g>
<g id="clust5" class="cluster">
<title>cluster_Rest</title>
<g id="a_clust5"><a xlink:href="#compartment-Rest" xlink:title="Rest&#10;[PBPKO:00450]">
<path fill="lightblue" stroke="black" d="M770.1,-8C770.1,-8 1034.27,-8 1034.27,-8 1040.27,-8 1046.27,-14 1046.27,-20 1046.27,-20 1046.27,-88 1046.27,-88 1046.27,-94 1040.27,-100 1034.27,-100 1034.27,-100 770.1,-100 770.1,-100 764.1,-100 758.1,-94 758.1,-88 758.1,-88 758.1,-20 758.1,-20 758.1,-14 764.1,-8 770.1,-8"/>
<text text-anchor="middle" x="902.18" y="-84.8" font-family="Arial" font-size="14.00">Rest</text>
<text text-anchor="middle" x="902.18" y="-69.8" font-family="Arial" font-size="14.00">[PBPKO:00450]</text>
</a>
</g>
</g>
<!-- ASt -->
<g id="node1" class="node">
<title>ASt</title>
<g id="a_node1"><a xlink:href="#species-ASt" xlink:title="ASt&#10;[&#45;]">
<path fill="gold" stroke="black" d="M396.08,-554C396.08,-554 366.08,-554 366.08,-554 360.08,-554 354.08,-548 354.08,-542 354.08,-542 354.08,-528 354.08,-528 354.08,-522 360.08,-516 366.08,-516 366.08,-516 396.08,-516 396.08,-516 402.08,-516 408.08,-522 408.08,-528 408.08,-528 408.08,-542 408.08,-542 408.08,-548 402.08,-554 396.08,-554"/>
<text text-anchor="middle" x="381.08" y="-538.8" font-family="Arial" font-size="14.00">ASt</text>
<text text-anchor="middle" x="381.08" y="-523.8" font-family="Arial" font-size="14.00">[&#45;]</text>
</a>
</g>
</g>
<!-- ALiver -->
<g id="node2" class="node">
<title>ALiver</title>
<g id="a_node2"><a xlink:href="#species-ALiver" xlink:title="ALiver&#10;[PBPKO:00497]">
<path fill="gold" stroke="black" d="M583.58,-304C583.58,-304 494.58,-304 494.58,-304 488.58,-304 482.58,-298 482.58,-292 482.58,-292 482.58,-278 482.58,-278 482.58,-272 488.58,-266 494.58,-266 494.58,-266 583.58,-266 583.58,-266 589.58,-266 595.58,-272 595.58,-278 595.58,-278 595.58,-292 595.58,-292 595.58,-298 589.58,-304 583.58,-304"/>
<text text-anchor="middle" x="539.08" y="-288.8" font-family="Arial" font-size="14.00">ALiver</text>
<text text-anchor="middle" x="539.08" y="-273.8" font-family="Arial" font-size="14.00">[PBPKO:00497]</text>
</a>
</g>
</g>
<!-- ASt&#45;&gt;ALiver -->
<g id="edge1" class="edge">
<title>ASt&#45;&gt;ALiver</title>
<path fill="none" stroke="black" d="M392.7,-515.76C420.27,-472.5 489.72,-363.48 522.04,-312.74"/>
<polygon fill="black" stroke="black" points="525.03,-314.58 527.45,-304.26 519.12,-310.82 525.03,-314.58"/>
<text text-anchor="middle" x="481.08" y="-406.3" font-family="Times,serif" font-size="14.00">_J1</text>
</g>
<!-- AGut -->
<g id="node6" class="node">
<title>AGut</title>
<g id="a_node6"><a xlink:href="#species-AGut" xlink:title="AGut&#10;[PBPKO:00496]">
<path fill="gold" stroke="black" d="M206.58,-429C206.58,-429 117.58,-429 117.58,-429 111.58,-429 105.58,-423 105.58,-417 105.58,-417 105.58,-403 105.58,-403 105.58,-397 111.58,-391 117.58,-391 117.58,-391 206.58,-391 206.58,-391 212.58,-391 218.58,-397 218.58,-403 218.58,-403 218.58,-417 218.58,-417 218.58,-423 212.58,-429 206.58,-429"/>
<text text-anchor="middle" x="162.08" y="-413.8" font-family="Arial" font-size="14.00">AGut</text>
<text text-anchor="middle" x="162.08" y="-398.8" font-family="Arial" font-size="14.00">[PBPKO:00496]</text>
</a>
</g>
</g>
<!-- ASt&#45;&gt;AGut -->
<g id="edge2" class="edge">
<title>ASt&#45;&gt;AGut</title>
<path fill="none" stroke="black" d="M353.79,-518.67C315.92,-497.4 247.15,-458.78 203.09,-434.03"/>
<polygon fill="black" stroke="black" points="204.79,-430.97 194.35,-429.12 201.36,-437.07 204.79,-430.97"/>
<text text-anchor="middle" x="327.08" y="-487.3" font-family="Times,serif" font-size="14.00">_J0</text>
</g>
<!-- ALiverMet1 -->
<g id="node3" class="node">
<title>ALiverMet1</title>
<g id="a_node3"><a xlink:href="#species-ALiverMet1" xlink:title="ALiverMet1&#10;[PBPKO:00497]">
<path fill="gold" stroke="black" d="M512.58,-179C512.58,-179 423.58,-179 423.58,-179 417.58,-179 411.58,-173 411.58,-167 411.58,-167 411.58,-153 411.58,-153 411.58,-147 417.58,-141 423.58,-141 423.58,-141 512.58,-141 512.58,-141 518.58,-141 524.58,-147 524.58,-153 524.58,-153 524.58,-167 524.58,-167 524.58,-173 518.58,-179 512.58,-179"/>
<text text-anchor="middle" x="468.08" y="-163.8" font-family="Arial" font-size="14.00">ALiverMet1</text>
<text text-anchor="middle" x="468.08" y="-148.8" font-family="Arial" font-size="14.00">[PBPKO:00497]</text>
</a>
</g>
</g>
<!-- ALiver&#45;&gt;ALiverMet1 -->
<g id="edge3" class="edge">
<title>ALiver&#45;&gt;ALiverMet1</title>
<path fill="none" stroke="black" d="M528.61,-265.85C516.76,-245.32 497.34,-211.68 483.7,-188.05"/>
<polygon fill="black" stroke="black" points="486.63,-186.13 478.6,-179.22 480.57,-189.63 486.63,-186.13"/>
<text text-anchor="middle" x="529.08" y="-237.3" font-family="Times,serif" font-size="14.00">_J8</text>
</g>
<!-- ALiverMet2 -->
<g id="node4" class="node">
<title>ALiverMet2</title>
<g id="a_node4"><a xlink:href="#species-ALiverMet2" xlink:title="ALiverMet2&#10;[PBPKO:00497]">
<path fill="gold" stroke="black" d="M640.58,-54C640.58,-54 551.58,-54 551.58,-54 545.58,-54 539.58,-48 539.58,-42 539.58,-42 539.58,-28 539.58,-28 539.58,-22 545.58,-16 551.58,-16 551.58,-16 640.58,-16 640.58,-16 646.58,-16 652.58,-22 652.58,-28 652.58,-28 652.58,-42 652.58,-42 652.58,-48 646.58,-54 640.58,-54"/>
<text text-anchor="middle" x="596.08" y="-38.8" font-family="Arial" font-size="14.00">ALiverMet2</text>
<text text-anchor="middle" x="596.08" y="-23.8" font-family="Arial" font-size="14.00">[PBPKO:00497]</text>
</a>
</g>
</g>
<!-- ALiver&#45;&gt;ALiverMet2 -->
<g id="edge4" class="edge">
<title>ALiver&#45;&gt;ALiverMet2</title>
<path fill="none" stroke="black" d="M543.27,-265.76C553.14,-222.86 577.86,-115.28 589.64,-64.02"/>
<polygon fill="black" stroke="black" points="593.06,-64.79 591.89,-54.26 586.23,-63.22 593.06,-64.79"/>
<text text-anchor="middle" x="584.08" y="-156.3" font-family="Times,serif" font-size="14.00">_J9</text>
</g>
<!-- APlasma -->
<g id="node5" class="node">
<title>APlasma</title>
<g id="a_node5"><a xlink:href="#species-APlasma" xlink:title="APlasma&#10;[PBPKO:00502]">
<path fill="gold" stroke="black" d="M946.58,-179C946.58,-179 857.58,-179 857.58,-179 851.58,-179 845.58,-173 845.58,-167 845.58,-167 845.58,-153 845.58,-153 845.58,-147 851.58,-141 857.58,-141 857.58,-141 946.58,-141 946.58,-141 952.58,-141 958.58,-147 958.58,-153 958.58,-153 958.58,-167 958.58,-167 958.58,-173 952.58,-179 946.58,-179"/>
<text text-anchor="middle" x="902.08" y="-163.8" font-family="Arial" font-size="14.00">APlasma</text>
<text text-anchor="middle" x="902.08" y="-148.8" font-family="Arial" font-size="14.00">[PBPKO:00502]</text>
</a>
</g>
</g>
<!-- ALiver&#45;&gt;APlasma -->
<g id="edge5" class="edge">
<title>ALiver&#45;&gt;APlasma</title>
<path fill="none" stroke="black" d="M595.64,-271C621.27,-264.77 651.87,-256.85 679.08,-248.5 739.83,-229.87 807.5,-202.31 852.19,-183.11"/>
<polygon fill="black" stroke="black" points="853.85,-186.21 861.65,-179.03 851.08,-179.78 853.85,-186.21"/>
<text text-anchor="middle" x="733.08" y="-237.3" font-family="Times,serif" font-size="14.00">_J5</text>
</g>
<!-- APlasma&#45;&gt;ALiver -->
<g id="edge6" class="edge">
<title>APlasma&#45;&gt;ALiver</title>
<path fill="none" stroke="black" d="M876.72,-179.12C847.25,-199.27 796.45,-231.25 748.08,-248.5 702.13,-264.88 647.72,-273.82 605.94,-278.63"/>
<polygon fill="black" stroke="black" points="605.43,-275.16 595.87,-279.73 606.2,-282.12 605.43,-275.16"/>
<text text-anchor="middle" x="794.08" y="-237.3" font-family="Times,serif" font-size="14.00">_J4</text>
</g>
<!-- ARest -->
<g id="node8" class="node">
<title>ARest</title>
<g id="a_node8"><a xlink:href="#species-ARest" xlink:title="ARest&#10;[PBPKO:00501]">
<path fill="gold" stroke="black" d="M946.58,-54C946.58,-54 857.58,-54 857.58,-54 851.58,-54 845.58,-48 845.58,-42 845.58,-42 845.58,-28 845.58,-28 845.58,-22 851.58,-16 857.58,-16 857.58,-16 946.58,-16 946.58,-16 952.58,-16 958.58,-22 958.58,-28 958.58,-28 958.58,-42 958.58,-42 958.58,-48 952.58,-54 946.58,-54"/>
<text text-anchor="middle" x="902.08" y="-38.8" font-family="Arial" font-size="14.00">ARest</text>
<text text-anchor="middle" x="902.08" y="-23.8" font-family="Arial" font-size="14.00">[PBPKO:00501]</text>
</a>
</g>
</g>
<!-- APlasma&#45;&gt;ARest -->
<g id="edge7" class="edge">
<title>APlasma&#45;&gt;ARest</title>
<path fill="none" stroke="black" d="M902.08,-140.85C902.08,-120.68 902.08,-87.86 902.08,-64.31"/>
<polygon fill="black" stroke="black" points="905.58,-64.22 902.08,-54.22 898.58,-64.22 905.58,-64.22"/>
<text text-anchor="middle" x="913.08" y="-112.3" font-family="Times,serif" font-size="14.00">_J6</text>
</g>
<!-- AGut&#45;&gt;ALiver -->
<g id="edge8" class="edge">
<title>AGut&#45;&gt;ALiver</title>
<path fill="none" stroke="black" d="M217.31,-390.98C285.48,-368.74 401.27,-330.96 473.78,-307.31"/>
<polygon fill="black" stroke="black" points="475.29,-310.49 483.71,-304.07 473.12,-303.84 475.29,-310.49"/>
<text text-anchor="middle" x="327.08" y="-362.3" font-family="Times,serif" font-size="14.00">_J2</text>
</g>
<!-- AGutMet1 -->
<g id="node7" class="node">
<title>AGutMet1</title>
<g id="a_node7"><a xlink:href="#species-AGutMet1" xlink:title="AGutMet1&#10;[PBPKO:00496]">
<path fill="gold" stroke="black" d="M206.58,-304C206.58,-304 117.58,-304 117.58,-304 111.58,-304 105.58,-298 105.58,-292 105.58,-292 105.58,-278 105.58,-278 105.58,-272 111.58,-266 117.58,-266 117.58,-266 206.58,-266 206.58,-266 212.58,-266 218.58,-272 218.58,-278 218.58,-278 218.58,-292 218.58,-292 218.58,-298 212.58,-304 206.58,-304"/>
<text text-anchor="middle" x="162.08" y="-288.8" font-family="Arial" font-size="14.00">AGutMet1</text>
<text text-anchor="middle" x="162.08" y="-273.8" font-family="Arial" font-size="14.00">[PBPKO:00496]</text>
</a>
</g>
</g>
<!-- AGut&#45;&gt;AGutMet1 -->
<g id="edge9" class="edge">
<title>AGut&#45;&gt;AGutMet1</title>
<path fill="none" stroke="black" d="M162.08,-390.85C162.08,-370.68 162.08,-337.86 162.08,-314.31"/>
<polygon fill="black" stroke="black" points="165.58,-314.22 162.08,-304.22 158.58,-314.22 165.58,-314.22"/>
<text text-anchor="middle" x="173.08" y="-362.3" font-family="Times,serif" font-size="14.00">_J3</text>
</g>
<!-- ARest&#45;&gt;APlasma -->
<g id="edge10" class="edge">
<title>ARest&#45;&gt;APlasma</title>
<path fill="none" stroke="black" d="M914.02,-54.19C924.14,-71.95 935.87,-99.7 928.08,-123.5 927.12,-126.45 925.8,-129.37 924.27,-132.17"/>
<polygon fill="black" stroke="black" points="921.25,-130.41 918.82,-140.72 927.15,-134.17 921.25,-130.41"/>
<text text-anchor="middle" x="941.08" y="-112.3" font-family="Times,serif" font-size="14.00">_J7</text>
</g>
</g>
</svg>
