<?xml version="1.0" encoding="UTF-8" standalone="no"?>
<!DOCTYPE svg PUBLIC "-//W3C//DTD SVG 1.1//EN"
 "http://www.w3.org/Graphics/SVG/1.1/DTD/svg11.dtd">
<!-- Generated by graphviz version 2.43.0 (0)
 -->
<!-- Title: %3 Pages: 1 -->
<svg width="501pt" height="288pt"
 viewBox="0.00 0.00 501.19 288.00" xmlns="http://www.w3.org/2000/svg" xmlns:xlink="http://www.w3.org/1999/xlink">
<g id="graph0" class="graph" transform="scale(0.47 0.47) rotate(0) translate(4 612)">
<title>%3</title>
<polygon fill="white" stroke="transparent" points="-4,4 -4,-612 1068,-612 1068,4 -4,4"/>
<g id="clust1" class="cluster">
<title>cluster_Stomach</title>
<g id="a_clust1"><a xlink:href="#compartment-Stomach" xlink:title="Stomach&#10;[PBPKO:00566]">
<path fill="lightblue" stroke="black" d="M62.98,-508C62.98,-508 289.47,-508 289.47,-508 295.47,-508 301.47,-514 301.47,-520 301.47,-520 301.47,-588 301.47,-588 301.47,-594 295.47,-600 289.47,-600 289.47,-600 62.98,-600 62.98,-600 56.98,-600 50.98,-594 50.98,-588 50.98,-588 50.98,-520 50.98,-520 50.98,-514 56.98,-508 62.98,-508"/>
<text text-anchor="middle" x="176.23" y="-584.8" font-family="Arial" font-size="14.00">Stomach</text>
<text text-anchor="middle" x="176.23" y="-569.8" font-family="Arial" font-size="14.00">[PBPKO:00566]</text>
</a>
</g>
</g>
<g id="clust2" class="cluster">
<title>cluster_Liver</title>
<g id="a_clust2"><a xlink:href="#compartment-Liver" xlink:title="Liver&#10;[PBPKO:00558]">
<path fill="lightblue" stroke="black" d="M335.63,-8C335.63,-8 728.37,-8 728.37,-8 734.37,-8 740.37,-14 740.37,-20 740.37,-20 740.37,-338 740.37,-338 740.37,-344 734.37,-350 728.37,-350 728.37,-350 335.63,-350 335.63,-350 329.63,-350 323.63,-344 323.63,-338 323.63,-338 323.63,-20 323.63,-20 323.63,-14 329.63,-8 335.63,-8"/>
<text text-anchor="middle" x="532" y="-334.8" font-family="Arial" font-size="14.00">Liver</text>
<text text-anchor="middle" x="532" y="-319.8" font-family="Arial" font-size="14.00">[PBPKO:00558]</text>
</a>
</g>
</g>
<g id="clust3" class="cluster">
<title>cluster_Plasma</title>
<g id="a_clust3"><a xlink:href="#compartment-Plasma" xlink:title="Plasma&#10;[PBPKO:00488]">
<path fill="lightblue" stroke="black" d="M770.1,-133C770.1,-133 1034.27,-133 1034.27,-133 1040.27,-133 1046.27,-139 1046.27,-145 1046.27,-145 1046.27,-213 1046.27,-213 1046.27,-219 1040.27,-225 1034.27,-225 1034.27,-225 770.1,-225 770.1,-225 764.1,-225 758.1,-219 758.1,-213 758.1,-213 758.1,-145 758.1,-145 758.1,-139 764.1,-133 770.1,-133"/>
<text text-anchor="middle" x="902.18" y="-209.8" font-family="Arial" font-size="14.00">Plasma</text>
<text text-anchor="middle" x="902.18" y="-194.8" font-family="Arial" font-size="14.00">[PBPKO:00488]</text>
</a>
</g>
</g>
<g id="clust4" class="cluster">
<title>cluster_Gut</title>
<g id="a_clust4"><a xlink:href="#compartment-Gut" xlink:title="Gut&#10;[PBPKO:00477]">
<path fill="lightblue" stroke="black" d="M29.73,-258C29.73,-258 293.9,-258 293.9,-258 299.9,-258 305.9,-264 305.9,-270 305.9,-270 305.9,-463 305.9,-463 305.9,-469 299.9,-475 293.9,-475 293.9,-475 29.73,-475 29.73,-475 23.73,-475 17.73,-469 17.73,-463 17.73,-463 17.73,-270 17.73,-270 17.73,-264 23.73,-258 29.73,-258"/>
<text text-anchor="middle" x="161.82" y="-459.8" font-family="Arial" font-size="14.00">Gut</text>
<text text-anchor="middle" x="161.82" y="-444.8" font-family="Arial" font-size="14.00">[PBPKO:00477]</text>
</a>
</g>
</g>
<g id="clust5" class="cluster">
<title>cluster_Rest</title>
<g id="a_clust5"><a xlink:href="#compartment-Rest" xlink:title="Rest&#10;[PBPKO:00450]">
<path fill="lightblue" stroke="black" d="M770.1,-8C770.1,-8 1034.27,-8 1034.27,-8 1040.27,-8 1046.27,-14 1046.27,-20 1046.27,-20 1046.27,-88 1046.27,-88 1046.27,-94 1040.27,-100 1034.27,-100 1034.27,-100 770.1,-100 770.1,-100 764.1,-100 758.1,-94 758.1,-88 758.1,-88 758.1,-20 758.1,-20 758.1,-14 764.1,-8 770.1,-8"/>
<text text-anchor="middle" x="902.18" y="-84.8" font-family="Arial" font-size="14.00">Rest</text>
<text text-anchor="middle" x="902.18" y="-69.8" font-family="Arial" font-size="14.00">[PBPKO:00450]</text>
</a>
</g>
</g>
<!-- ASt -->
<g id="node1" class="node">
<title>ASt</title>
<g id="a_node1"><a xlink:href="#species-ASt" xlink:title="ASt&#10;[&#45;]">
<path fill="gold" stroke="black" d="M177.07,-554C177.07,-554 147.07,-554 147.07,-554 141.07,-554 135.07,-548 135.07,-542 135.07,-542 135.07,-528 135.07,-528 135.07,-522 141.07,-516 147.07,-516 147.07,-516 177.07,-516 177.07,-516 183.07,-516 189.07,-522 189.07,-528 189.07,-528 189.07,-542 189.07,-542 189.07,-548 183.07,-554 177.07,-554"/>
<text text-anchor="middle" x="162.07" y="-538.8" font-family="Arial" font-size="14.00">ASt</text>
<text text-anchor="middle" x="162.07" y="-523.8" font-family="Arial" font-size="14.00">[&#45;]</text>
</a>
</g>
</g>
<!-- AGut -->
<g id="node6" class="node">
<title>AGut</title>
<g id="a_node6"><a xlink:href="#species-AGut" xlink:title="AGut&#10;[PBPKO:00496]">
<path fill="gold" stroke="black" d="M206.57,-429C206.57,-429 117.57,-429 117.57,-429 111.57,-429 105.57,-423 105.57,-417 105.57,-417 105.57,-403 105.57,-403 105.57,-397 111.57,-391 117.57,-391 117.57,-391 206.57,-391 206.57,-391 212.57,-391 218.57,-397 218.57,-403 218.57,-403 218.57,-417 218.57,-417 218.57,-423 212.57,-429 206.57,-429"/>
<text text-anchor="middle" x="162.07" y="-413.8" font-family="Arial" font-size="14.00">AGut</text>
<text text-anchor="middle" x="162.07" y="-398.8" font-family="Arial" font-size="14.00">[PBPKO:00496]</text>
</a>
</g>
</g>
<!-- ASt&#45;&gt;AGut -->
<g id="edge1" class="edge">
<title>ASt&#45;&gt;AGut</title>
<path fill="none" stroke="black" d="M162.07,-515.85C162.07,-495.68 162.07,-462.86 162.07,-439.31"/>
<polygon fill="black" stroke="black" points="165.57,-439.22 162.07,-429.22 158.57,-439.22 165.57,-439.22"/>
<text text-anchor="middle" x="173.07" y="-487.3" font-family="Times,serif" font-size="14.00">_J0</text>
</g>
<!-- ALiver -->
<g id="node2" class="node">
<title>ALiver</title>
<g id="a_node2"><a xlink:href="#species-ALiver" xlink:title="ALiver&#10;[PBPKO:00497]">
<path fill="gold" stroke="black" d="M640.57,-304C640.57,-304 551.57,-304 551.57,-304 545.57,-304 539.57,-298 539.57,-292 539.57,-292 539.57,-278 539.57,-278 539.57,-272 545.57,-266 551.57,-266 551.57,-266 640.57,-266 640.57,-266 646.57,-266 652.57,-272 652.57,-278 652.57,-278 652.57,-292 652.57,-292 652.57,-298 646.57,-304 640.57,-304"/>
<text text-anchor="middle" x="596.07" y="-288.8" font-family="Arial" font-size="14.00">ALiver</text>
<text text-anchor="middle" x="596.07" y="-273.8" font-family="Arial" font-size="14.00">[PBPKO:00497]</text>
</a>
</g>
</g>
<!-- ALiverMet1 -->
<g id="node3" class="node">
<title>ALiverMet1</title>
<g id="a_node3"><a xlink:href="#species-ALiverMet1" xlink:title="ALiverMet1&#10;[PBPKO:00497]">
<path fill="gold" stroke="black" d="M512.57,-179C512.57,-179 423.57,-179 423.57,-179 417.57,-179 411.57,-173 411.57,-167 411.57,-167 411.57,-153 411.57,-153 411.57,-147 417.57,-141 423.57,-141 423.57,-141 512.57,-141 512.57,-141 518.57,-141 524.57,-147 524.57,-153 524.57,-153 524.57,-167 524.57,-167 524.57,-173 518.57,-179 512.57,-179"/>
<text text-anchor="middle" x="468.07" y="-163.8" font-family="Arial" font-size="14.00">ALiverMet1</text>
<text text-anchor="middle" x="468.07" y="-148.8" font-family="Arial" font-size="14.00">[PBPKO:00497]</text>
</a>
</g>
</g>
<!-- ALiver&#45;&gt;ALiverMet1 -->
<g id="edge2" class="edge">
<title>ALiver&#45;&gt;ALiverMet1</title>
<path fill="none" stroke="black" d="M577.18,-265.85C555.25,-244.78 518.94,-209.88 494.28,-186.19"/>
<polygon fill="black" stroke="black" points="496.67,-183.63 487.03,-179.22 491.82,-188.68 496.67,-183.63"/>
<text text-anchor="middle" x="570.07" y="-237.3" font-family="Times,serif" font-size="14.00">_J7</text>
</g>
<!-- ALiverMet2 -->
<g id="node4" class="node">
<title>ALiverMet2</title>
<g id="a_node4"><a xlink:href="#species-ALiverMet2" xlink:title="ALiverMet2&#10;[PBPKO:00497]">
<path fill="gold" stroke="black" d="M640.57,-54C640.57,-54 551.57,-54 551.57,-54 545.57,-54 539.57,-48 539.57,-42 539.57,-42 539.57,-28 539.57,-28 539.57,-22 545.57,-16 551.57,-16 551.57,-16 640.57,-16 640.57,-16 646.57,-16 652.57,-22 652.57,-28 652.57,-28 652.57,-42 652.57,-42 652.57,-48 646.57,-54 640.57,-54"/>
<text text-anchor="middle" x="596.07" y="-38.8" font-family="Arial" font-size="14.00">ALiverMet2</text>
<text text-anchor="middle" x="596.07" y="-23.8" font-family="Arial" font-size="14.00">[PBPKO:00497]</text>
</a>
</g>
</g>
<!-- ALiver&#45;&gt;ALiverMet2 -->
<g id="edge3" class="edge">
<title>ALiver&#45;&gt;ALiverMet2</title>
<path fill="none" stroke="black" d="M596.07,-265.76C596.07,-222.95 596.07,-115.73 596.07,-64.34"/>
<polygon fill="black" stroke="black" points="599.57,-64.26 596.07,-54.26 592.57,-64.26 599.57,-64.26"/>
<text text-anchor="middle" x="607.07" y="-156.3" font-family="Times,serif" font-size="14.00">_J8</text>
</g>
<!-- APlasma -->
<g id="node5" class="node">
<title>APlasma</title>
<g id="a_node5"><a xlink:href="#species-APlasma" xlink:title="APlasma&#10;[PBPKO:00502]">
<path fill="gold" stroke="black" d="M946.57,-179C946.57,-179 857.57,-179 857.57,-179 851.57,-179 845.57,-173 845.57,-167 845.57,-167 845.57,-153 845.57,-153 845.57,-147 851.57,-141 857.57,-141 857.57,-141 946.57,-141 946.57,-141 952.57,-141 958.57,-147 958.57,-153 958.57,-153 958.57,-167 958.57,-167 958.57,-173 952.57,-179 946.57,-179"/>
<text text-anchor="middle" x="902.07" y="-163.8" font-family="Arial" font-size="14.00">APlasma</text>
<text text-anchor="middle" x="902.07" y="-148.8" font-family="Arial" font-size="14.00">[PBPKO:00502]</text>
</a>
</g>
</g>
<!-- ALiver&#45;&gt;APlasma -->
<g id="edge4" class="edge">
<title>ALiver&#45;&gt;APlasma</title>
<path fill="none" stroke="black" d="M641.43,-265.99C670.74,-254.34 709.67,-238.82 744.07,-225 778.63,-211.11 817.41,-195.41 847.89,-183.03"/>
<polygon fill="black" stroke="black" points="849.54,-186.14 857.48,-179.13 846.9,-179.65 849.54,-186.14"/>
<text text-anchor="middle" x="730.07" y="-237.3" font-family="Times,serif" font-size="14.00">_J4</text>
</g>
<!-- APlasma&#45;&gt;ALiver -->
<g id="edge5" class="edge">
<title>APlasma&#45;&gt;ALiver</title>
<path fill="none" stroke="black" d="M875.12,-179.05C844.71,-198.69 793.19,-229.77 745.07,-248.5 718.81,-258.72 688.76,-266.56 662.56,-272.24"/>
<polygon fill="black" stroke="black" points="661.78,-268.83 652.72,-274.32 663.23,-275.68 661.78,-268.83"/>
<text text-anchor="middle" x="787.07" y="-237.3" font-family="Times,serif" font-size="14.00">_J3</text>
</g>
<!-- ARest -->
<g id="node8" class="node">
<title>ARest</title>
<g id="a_node8"><a xlink:href="#species-ARest" xlink:title="ARest&#10;[PBPKO:00501]">
<path fill="gold" stroke="black" d="M946.57,-54C946.57,-54 857.57,-54 857.57,-54 851.57,-54 845.57,-48 845.57,-42 845.57,-42 845.57,-28 845.57,-28 845.57,-22 851.57,-16 857.57,-16 857.57,-16 946.57,-16 946.57,-16 952.57,-16 958.57,-22 958.57,-28 958.57,-28 958.57,-42 958.57,-42 958.57,-48 952.57,-54 946.57,-54"/>
<text text-anchor="middle" x="902.07" y="-38.8" font-family="Arial" font-size="14.00">ARest</text>
<text text-anchor="middle" x="902.07" y="-23.8" font-family="Arial" font-size="14.00">[PBPKO:00501]</text>
</a>
</g>
</g>
<!-- APlasma&#45;&gt;ARest -->
<g id="edge6" class="edge">
<title>APlasma&#45;&gt;ARest</title>
<path fill="none" stroke="black" d="M902.07,-140.85C902.07,-120.68 902.07,-87.86 902.07,-64.31"/>
<polygon fill="black" stroke="black" points="905.57,-64.22 902.07,-54.22 898.57,-64.22 905.57,-64.22"/>
<text text-anchor="middle" x="913.07" y="-112.3" font-family="Times,serif" font-size="14.00">_J5</text>
</g>
<!-- AGut&#45;&gt;ALiver -->
<g id="edge7" class="edge">
<title>AGut&#45;&gt;ALiver</title>
<path fill="none" stroke="black" d="M218.8,-392.92C298.81,-370.24 444.49,-328.96 529.51,-304.86"/>
<polygon fill="black" stroke="black" points="530.65,-308.18 539.31,-302.08 528.74,-301.44 530.65,-308.18"/>
<text text-anchor="middle" x="352.07" y="-362.3" font-family="Times,serif" font-size="14.00">_J1</text>
</g>
<!-- AGutMet1 -->
<g id="node7" class="node">
<title>AGutMet1</title>
<g id="a_node7"><a xlink:href="#species-AGutMet1" xlink:title="AGutMet1&#10;[PBPKO:00496]">
<path fill="gold" stroke="black" d="M206.57,-304C206.57,-304 117.57,-304 117.57,-304 111.57,-304 105.57,-298 105.57,-292 105.57,-292 105.57,-278 105.57,-278 105.57,-272 111.57,-266 117.57,-266 117.57,-266 206.57,-266 206.57,-266 212.57,-266 218.57,-272 218.57,-278 218.57,-278 218.57,-292 218.57,-292 218.57,-298 212.57,-304 206.57,-304"/>
<text text-anchor="middle" x="162.07" y="-288.8" font-family="Arial" font-size="14.00">AGutMet1</text>
<text text-anchor="middle" x="162.07" y="-273.8" font-family="Arial" font-size="14.00">[PBPKO:00496]</text>
</a>
</g>
</g>
<!-- AGut&#45;&gt;AGutMet1 -->
<g id="edge8" class="edge">
<title>AGut&#45;&gt;AGutMet1</title>
<path fill="none" stroke="black" d="M162.07,-390.85C162.07,-370.68 162.07,-337.86 162.07,-314.31"/>
<polygon fill="black" stroke="black" points="165.57,-314.22 162.07,-304.22 158.57,-314.22 165.57,-314.22"/>
<text text-anchor="middle" x="173.07" y="-362.3" font-family="Times,serif" font-size="14.00">_J2</text>
</g>
<!-- ARest&#45;&gt;APlasma -->
<g id="edge9" class="edge">
<title>ARest&#45;&gt;APlasma</title>
<path fill="none" stroke="black" d="M914,-54.19C924.12,-71.95 935.85,-99.7 928.07,-123.5 927.1,-126.45 925.78,-129.37 924.25,-132.17"/>
<polygon fill="black" stroke="black" points="921.23,-130.41 918.8,-140.72 927.13,-134.17 921.23,-130.41"/>
<text text-anchor="middle" x="941.07" y="-112.3" font-family="Times,serif" font-size="14.00">_J6</text>
</g>
</g>
</svg>
