<?xml version="1.0" encoding="UTF-8" standalone="no"?>
<!DOCTYPE svg PUBLIC "-//W3C//DTD SVG 1.1//EN"
 "http://www.w3.org/Graphics/SVG/1.1/DTD/svg11.dtd">
<!-- Generated by graphviz version 2.43.0 (0)
 -->
<!-- Title: %3 Pages: 1 -->
<svg width="501pt" height="288pt"
 viewBox="0.00 0.00 501.19 288.00" xmlns="http://www.w3.org/2000/svg" xmlns:xlink="http://www.w3.org/1999/xlink">
<g id="graph0" class="graph" transform="scale(0.47 0.47) rotate(0) translate(4 612)">
<title>%3</title>
<polygon fill="white" stroke="transparent" points="-4,4 -4,-612 1068,-612 1068,4 -4,4"/>
<g id="clust1" class="cluster">
<title>cluster_Stomach</title>
<g id="a_clust1"><a xlink:href="#compartment-Stomach" xlink:title="Stomach&#10;[&#45;]">
<path fill="lightblue" stroke="black" d="M310.96,-508C310.96,-508 454.09,-508 454.09,-508 460.09,-508 466.09,-514 466.09,-520 466.09,-520 466.09,-588 466.09,-588 466.09,-594 460.09,-600 454.09,-600 454.09,-600 310.96,-600 310.96,-600 304.96,-600 298.96,-594 298.96,-588 298.96,-588 298.96,-520 298.96,-520 298.96,-514 304.96,-508 310.96,-508"/>
<text text-anchor="middle" x="382.52" y="-584.8" font-family="Arial" font-size="14.00">Stomach</text>
<text text-anchor="middle" x="382.52" y="-569.8" font-family="Arial" font-size="14.00">[&#45;]</text>
</a>
</g>
</g>
<g id="clust2" class="cluster">
<title>cluster_Liver</title>
<g id="a_clust2"><a xlink:href="#compartment-Liver" xlink:title="Liver&#10;[&#45;]">
<path fill="lightblue" stroke="black" d="M355.68,-8C355.68,-8 708.32,-8 708.32,-8 714.32,-8 720.32,-14 720.32,-20 720.32,-20 720.32,-338 720.32,-338 720.32,-344 714.32,-350 708.32,-350 708.32,-350 355.68,-350 355.68,-350 349.68,-350 343.68,-344 343.68,-338 343.68,-338 343.68,-20 343.68,-20 343.68,-14 349.68,-8 355.68,-8"/>
<text text-anchor="middle" x="532" y="-334.8" font-family="Arial" font-size="14.00">Liver</text>
<text text-anchor="middle" x="532" y="-319.8" font-family="Arial" font-size="14.00">[&#45;]</text>
</a>
</g>
</g>
<g id="clust3" class="cluster">
<title>cluster_Plasma</title>
<g id="a_clust3"><a xlink:href="#compartment-Plasma" xlink:title="Plasma&#10;[PBPKO:00488]">
<path fill="lightblue" stroke="black" d="M751.15,-133C751.15,-133 1033.17,-133 1033.17,-133 1039.17,-133 1045.17,-139 1045.17,-145 1045.17,-145 1045.17,-213 1045.17,-213 1045.17,-219 1039.17,-225 1033.17,-225 1033.17,-225 751.15,-225 751.15,-225 745.15,-225 739.15,-219 739.15,-213 739.15,-213 739.15,-145 739.15,-145 739.15,-139 745.15,-133 751.15,-133"/>
<text text-anchor="middle" x="892.16" y="-209.8" font-family="Arial" font-size="14.00">Plasma</text>
<text text-anchor="middle" x="892.16" y="-194.8" font-family="Arial" font-size="14.00">[PBPKO:00488]</text>
</a>
</g>
</g>
<g id="clust4" class="cluster">
<title>cluster_Gut</title>
<g id="a_clust4"><a xlink:href="#compartment-Gut" xlink:title="Gut&#10;[PBPKO:00477]">
<path fill="lightblue" stroke="black" d="M30.83,-258C30.83,-258 312.85,-258 312.85,-258 318.85,-258 324.85,-264 324.85,-270 324.85,-270 324.85,-463 324.85,-463 324.85,-469 318.85,-475 312.85,-475 312.85,-475 30.83,-475 30.83,-475 24.83,-475 18.83,-469 18.83,-463 18.83,-463 18.83,-270 18.83,-270 18.83,-264 24.83,-258 30.83,-258"/>
<text text-anchor="middle" x="171.84" y="-459.8" font-family="Arial" font-size="14.00">Gut</text>
<text text-anchor="middle" x="171.84" y="-444.8" font-family="Arial" font-size="14.00">[PBPKO:00477]</text>
</a>
</g>
</g>
<g id="clust5" class="cluster">
<title>cluster_Rest</title>
<g id="a_clust5"><a xlink:href="#compartment-Rest" xlink:title="Rest&#10;[PBPKO:00450]">
<path fill="lightblue" stroke="black" d="M751.15,-8C751.15,-8 1033.17,-8 1033.17,-8 1039.17,-8 1045.17,-14 1045.17,-20 1045.17,-20 1045.17,-88 1045.17,-88 1045.17,-94 1039.17,-100 1033.17,-100 1033.17,-100 751.15,-100 751.15,-100 745.15,-100 739.15,-94 739.15,-88 739.15,-88 739.15,-20 739.15,-20 739.15,-14 745.15,-8 751.15,-8"/>
<text text-anchor="middle" x="892.16" y="-84.8" font-family="Arial" font-size="14.00">Rest</text>
<text text-anchor="middle" x="892.16" y="-69.8" font-family="Arial" font-size="14.00">[PBPKO:00450]</text>
</a>
</g>
</g>
<!-- ASt -->
<g id="node1" class="node">
<title>ASt</title>
<g id="a_node1"><a xlink:href="#species-ASt" xlink:title="ASt&#10;[&#45;]">
<path fill="gold" stroke="black" d="M396.77,-554C396.77,-554 366.77,-554 366.77,-554 360.77,-554 354.77,-548 354.77,-542 354.77,-542 354.77,-528 354.77,-528 354.77,-522 360.77,-516 366.77,-516 366.77,-516 396.77,-516 396.77,-516 402.77,-516 408.77,-522 408.77,-528 408.77,-528 408.77,-542 408.77,-542 408.77,-548 402.77,-554 396.77,-554"/>
<text text-anchor="middle" x="381.77" y="-538.8" font-family="Arial" font-size="14.00">ASt</text>
<text text-anchor="middle" x="381.77" y="-523.8" font-family="Arial" font-size="14.00">[&#45;]</text>
</a>
</g>
</g>
<!-- ALiver -->
<g id="node2" class="node">
<title>ALiver</title>
<g id="a_node2"><a xlink:href="#species-ALiver" xlink:title="ALiver&#10;[PBPKO:00497]">
<path fill="gold" stroke="black" d="M576.27,-304C576.27,-304 487.27,-304 487.27,-304 481.27,-304 475.27,-298 475.27,-292 475.27,-292 475.27,-278 475.27,-278 475.27,-272 481.27,-266 487.27,-266 487.27,-266 576.27,-266 576.27,-266 582.27,-266 588.27,-272 588.27,-278 588.27,-278 588.27,-292 588.27,-292 588.27,-298 582.27,-304 576.27,-304"/>
<text text-anchor="middle" x="531.77" y="-288.8" font-family="Arial" font-size="14.00">ALiver</text>
<text text-anchor="middle" x="531.77" y="-273.8" font-family="Arial" font-size="14.00">[PBPKO:00497]</text>
</a>
</g>
</g>
<!-- ASt&#45;&gt;ALiver -->
<g id="edge1" class="edge">
<title>ASt&#45;&gt;ALiver</title>
<path fill="none" stroke="black" d="M392.8,-515.76C418.91,-472.59 484.63,-363.93 515.4,-313.06"/>
<polygon fill="black" stroke="black" points="518.54,-314.63 520.72,-304.26 512.55,-311.01 518.54,-314.63"/>
<text text-anchor="middle" x="476.77" y="-406.3" font-family="Times,serif" font-size="14.00">_J1</text>
</g>
<!-- AGut -->
<g id="node6" class="node">
<title>AGut</title>
<g id="a_node6"><a xlink:href="#species-AGut" xlink:title="AGut&#10;[PBPKO:00496]">
<path fill="gold" stroke="black" d="M216.27,-429C216.27,-429 127.27,-429 127.27,-429 121.27,-429 115.27,-423 115.27,-417 115.27,-417 115.27,-403 115.27,-403 115.27,-397 121.27,-391 127.27,-391 127.27,-391 216.27,-391 216.27,-391 222.27,-391 228.27,-397 228.27,-403 228.27,-403 228.27,-417 228.27,-417 228.27,-423 222.27,-429 216.27,-429"/>
<text text-anchor="middle" x="171.77" y="-413.8" font-family="Arial" font-size="14.00">AGut</text>
<text text-anchor="middle" x="171.77" y="-398.8" font-family="Arial" font-size="14.00">[PBPKO:00496]</text>
</a>
</g>
</g>
<!-- ASt&#45;&gt;AGut -->
<g id="edge2" class="edge">
<title>ASt&#45;&gt;AGut</title>
<path fill="none" stroke="black" d="M354.75,-518.17C318.42,-496.89 253.56,-458.91 211.63,-434.34"/>
<polygon fill="black" stroke="black" points="213.18,-431.2 202.78,-429.17 209.64,-437.24 213.18,-431.2"/>
<text text-anchor="middle" x="329.77" y="-487.3" font-family="Times,serif" font-size="14.00">_J0</text>
</g>
<!-- ALiverMet1 -->
<g id="node3" class="node">
<title>ALiverMet1</title>
<g id="a_node3"><a xlink:href="#species-ALiverMet1" xlink:title="ALiverMet1&#10;[&#45;]">
<path fill="gold" stroke="black" d="M494.77,-179C494.77,-179 432.77,-179 432.77,-179 426.77,-179 420.77,-173 420.77,-167 420.77,-167 420.77,-153 420.77,-153 420.77,-147 426.77,-141 432.77,-141 432.77,-141 494.77,-141 494.77,-141 500.77,-141 506.77,-147 506.77,-153 506.77,-153 506.77,-167 506.77,-167 506.77,-173 500.77,-179 494.77,-179"/>
<text text-anchor="middle" x="463.77" y="-163.8" font-family="Arial" font-size="14.00">ALiverMet1</text>
<text text-anchor="middle" x="463.77" y="-148.8" font-family="Arial" font-size="14.00">[&#45;]</text>
</a>
</g>
</g>
<!-- ALiver&#45;&gt;ALiverMet1 -->
<g id="edge3" class="edge">
<title>ALiver&#45;&gt;ALiverMet1</title>
<path fill="none" stroke="black" d="M521.74,-265.85C510.39,-245.32 491.79,-211.68 478.72,-188.05"/>
<polygon fill="black" stroke="black" points="481.75,-186.28 473.84,-179.22 475.62,-189.67 481.75,-186.28"/>
<text text-anchor="middle" x="521.77" y="-237.3" font-family="Times,serif" font-size="14.00">_J8</text>
</g>
<!-- ALiverMet2 -->
<g id="node4" class="node">
<title>ALiverMet2</title>
<g id="a_node4"><a xlink:href="#species-ALiverMet2" xlink:title="ALiverMet2&#10;[&#45;]">
<path fill="gold" stroke="black" d="M630.77,-54C630.77,-54 568.77,-54 568.77,-54 562.77,-54 556.77,-48 556.77,-42 556.77,-42 556.77,-28 556.77,-28 556.77,-22 562.77,-16 568.77,-16 568.77,-16 630.77,-16 630.77,-16 636.77,-16 642.77,-22 642.77,-28 642.77,-28 642.77,-42 642.77,-42 642.77,-48 636.77,-54 630.77,-54"/>
<text text-anchor="middle" x="599.77" y="-38.8" font-family="Arial" font-size="14.00">ALiverMet2</text>
<text text-anchor="middle" x="599.77" y="-23.8" font-family="Arial" font-size="14.00">[&#45;]</text>
</a>
</g>
</g>
<!-- ALiver&#45;&gt;ALiverMet2 -->
<g id="edge4" class="edge">
<title>ALiver&#45;&gt;ALiverMet2</title>
<path fill="none" stroke="black" d="M536.77,-265.76C548.53,-222.86 578.03,-115.28 592.09,-64.02"/>
<polygon fill="black" stroke="black" points="595.49,-64.83 594.76,-54.26 588.74,-62.98 595.49,-64.83"/>
<text text-anchor="middle" x="582.77" y="-156.3" font-family="Times,serif" font-size="14.00">_J9</text>
</g>
<!-- APlasma -->
<g id="node5" class="node">
<title>APlasma</title>
<g id="a_node5"><a xlink:href="#species-APlasma" xlink:title="APlasma&#10;[PBPKO:00502]">
<path fill="gold" stroke="black" d="M936.27,-179C936.27,-179 847.27,-179 847.27,-179 841.27,-179 835.27,-173 835.27,-167 835.27,-167 835.27,-153 835.27,-153 835.27,-147 841.27,-141 847.27,-141 847.27,-141 936.27,-141 936.27,-141 942.27,-141 948.27,-147 948.27,-153 948.27,-153 948.27,-167 948.27,-167 948.27,-173 942.27,-179 936.27,-179"/>
<text text-anchor="middle" x="891.77" y="-163.8" font-family="Arial" font-size="14.00">APlasma</text>
<text text-anchor="middle" x="891.77" y="-148.8" font-family="Arial" font-size="14.00">[PBPKO:00502]</text>
</a>
</g>
</g>
<!-- ALiver&#45;&gt;APlasma -->
<g id="edge5" class="edge">
<title>ALiver&#45;&gt;APlasma</title>
<path fill="none" stroke="black" d="M588.56,-268.16C609.44,-262.19 633.23,-255.22 654.77,-248.5 718.23,-228.7 789.62,-201.68 837.3,-182.92"/>
<polygon fill="black" stroke="black" points="838.79,-186.1 846.81,-179.17 836.22,-179.58 838.79,-186.1"/>
<text text-anchor="middle" x="704.77" y="-237.3" font-family="Times,serif" font-size="14.00">_J5</text>
</g>
<!-- APlasma&#45;&gt;ALiver -->
<g id="edge6" class="edge">
<title>APlasma&#45;&gt;ALiver</title>
<path fill="none" stroke="black" d="M862.76,-179.01C829.44,-198.9 772.57,-230.5 719.77,-248.5 680.54,-261.88 634.9,-270.65 598.4,-276.12"/>
<polygon fill="black" stroke="black" points="597.76,-272.68 588.37,-277.58 598.77,-279.61 597.76,-272.68"/>
<text text-anchor="middle" x="764.77" y="-237.3" font-family="Times,serif" font-size="14.00">_J4</text>
</g>
<!-- ARest -->
<g id="node8" class="node">
<title>ARest</title>
<g id="a_node8"><a xlink:href="#species-ARest" xlink:title="ARest&#10;[PBPKO:00501]">
<path fill="gold" stroke="black" d="M936.27,-54C936.27,-54 847.27,-54 847.27,-54 841.27,-54 835.27,-48 835.27,-42 835.27,-42 835.27,-28 835.27,-28 835.27,-22 841.27,-16 847.27,-16 847.27,-16 936.27,-16 936.27,-16 942.27,-16 948.27,-22 948.27,-28 948.27,-28 948.27,-42 948.27,-42 948.27,-48 942.27,-54 936.27,-54"/>
<text text-anchor="middle" x="891.77" y="-38.8" font-family="Arial" font-size="14.00">ARest</text>
<text text-anchor="middle" x="891.77" y="-23.8" font-family="Arial" font-size="14.00">[PBPKO:00501]</text>
</a>
</g>
</g>
<!-- APlasma&#45;&gt;ARest -->
<g id="edge7" class="edge">
<title>APlasma&#45;&gt;ARest</title>
<path fill="none" stroke="black" d="M891.77,-140.85C891.77,-120.68 891.77,-87.86 891.77,-64.31"/>
<polygon fill="black" stroke="black" points="895.27,-64.22 891.77,-54.22 888.27,-64.22 895.27,-64.22"/>
<text text-anchor="middle" x="902.77" y="-112.3" font-family="Times,serif" font-size="14.00">_J6</text>
</g>
<!-- AGut&#45;&gt;ALiver -->
<g id="edge8" class="edge">
<title>AGut&#45;&gt;ALiver</title>
<path fill="none" stroke="black" d="M224.5,-390.98C289.6,-368.74 400.17,-330.96 469.41,-307.31"/>
<polygon fill="black" stroke="black" points="470.56,-310.61 478.9,-304.07 468.3,-303.99 470.56,-310.61"/>
<text text-anchor="middle" x="329.77" y="-362.3" font-family="Times,serif" font-size="14.00">_J2</text>
</g>
<!-- AGutMet1 -->
<g id="node7" class="node">
<title>AGutMet1</title>
<g id="a_node7"><a xlink:href="#species-AGutMet1" xlink:title="AGutMet1&#10;[&#45;]">
<path fill="gold" stroke="black" d="M199.27,-304C199.27,-304 144.27,-304 144.27,-304 138.27,-304 132.27,-298 132.27,-292 132.27,-292 132.27,-278 132.27,-278 132.27,-272 138.27,-266 144.27,-266 144.27,-266 199.27,-266 199.27,-266 205.27,-266 211.27,-272 211.27,-278 211.27,-278 211.27,-292 211.27,-292 211.27,-298 205.27,-304 199.27,-304"/>
<text text-anchor="middle" x="171.77" y="-288.8" font-family="Arial" font-size="14.00">AGutMet1</text>
<text text-anchor="middle" x="171.77" y="-273.8" font-family="Arial" font-size="14.00">[&#45;]</text>
</a>
</g>
</g>
<!-- AGut&#45;&gt;AGutMet1 -->
<g id="edge9" class="edge">
<title>AGut&#45;&gt;AGutMet1</title>
<path fill="none" stroke="black" d="M171.77,-390.85C171.77,-370.68 171.77,-337.86 171.77,-314.31"/>
<polygon fill="black" stroke="black" points="175.27,-314.22 171.77,-304.22 168.27,-314.22 175.27,-314.22"/>
<text text-anchor="middle" x="182.77" y="-362.3" font-family="Times,serif" font-size="14.00">_J3</text>
</g>
<!-- ARest&#45;&gt;APlasma -->
<g id="edge10" class="edge">
<title>ARest&#45;&gt;APlasma</title>
<path fill="none" stroke="black" d="M903.7,-54.19C913.82,-71.95 925.55,-99.7 917.77,-123.5 916.8,-126.45 915.49,-129.37 913.96,-132.17"/>
<polygon fill="black" stroke="black" points="910.94,-130.41 908.51,-140.72 916.84,-134.17 910.94,-130.41"/>
<text text-anchor="middle" x="930.77" y="-112.3" font-family="Times,serif" font-size="14.00">_J7</text>
</g>
</g>
</svg>
